<?xml version="1.0" encoding="utf-8" standalone="no"?>
<!DOCTYPE svg PUBLIC "-//W3C//DTD SVG 1.1//EN"
  "http://www.w3.org/Graphics/SVG/1.1/DTD/svg11.dtd">
<!-- Created with matplotlib (http://matplotlib.org/) -->
<svg height="345.6pt" version="1.1" viewBox="0 0 460.8 345.6" width="460.8pt" xmlns="http://www.w3.org/2000/svg" xmlns:xlink="http://www.w3.org/1999/xlink">
 <defs>
  <style type="text/css">
*{stroke-linecap:butt;stroke-linejoin:round;}
  </style>
 </defs>
 <g id="figure_1">
  <g id="patch_1">
   <path d="M 0 345.6 
L 460.8 345.6 
L 460.8 0 
L 0 0 
z
" style="fill:#ffffff;"/>
  </g>
  <g id="axes_1">
   <g id="patch_2">
    <path d="M 57.6 307.584 
L 414.72 307.584 
L 414.72 41.472 
L 57.6 41.472 
z
" style="fill:#ffffff;"/>
   </g>
   <g id="matplotlib.axis_1">
    <g id="xtick_1">
     <g id="line2d_1">
      <defs>
       <path d="M 0 0 
L 0 3.5 
" id="mb1fc635eff" style="stroke:#000000;stroke-width:0.8;"/>
      </defs>
      <g>
       <use style="stroke:#000000;stroke-width:0.8;" x="73.832727" xlink:href="#mb1fc635eff" y="307.584"/>
      </g>
     </g>
     <g id="text_1">
      <!-- 0 -->
      <defs>
       <path d="M 31.78125 66.40625 
Q 24.171875 66.40625 20.328125 58.90625 
Q 16.5 51.421875 16.5 36.375 
Q 16.5 21.390625 20.328125 13.890625 
Q 24.171875 6.390625 31.78125 6.390625 
Q 39.453125 6.390625 43.28125 13.890625 
Q 47.125 21.390625 47.125 36.375 
Q 47.125 51.421875 43.28125 58.90625 
Q 39.453125 66.40625 31.78125 66.40625 
z
M 31.78125 74.21875 
Q 44.046875 74.21875 50.515625 64.515625 
Q 56.984375 54.828125 56.984375 36.375 
Q 56.984375 17.96875 50.515625 8.265625 
Q 44.046875 -1.421875 31.78125 -1.421875 
Q 19.53125 -1.421875 13.0625 8.265625 
Q 6.59375 17.96875 6.59375 36.375 
Q 6.59375 54.828125 13.0625 64.515625 
Q 19.53125 74.21875 31.78125 74.21875 
z
" id="DejaVuSans-30"/>
      </defs>
      <g transform="translate(70.651477 322.182437)scale(0.1 -0.1)">
       <use xlink:href="#DejaVuSans-30"/>
      </g>
     </g>
    </g>
    <g id="xtick_2">
     <g id="line2d_2">
      <g>
       <use style="stroke:#000000;stroke-width:0.8;" x="117.125772" xlink:href="#mb1fc635eff" y="307.584"/>
      </g>
     </g>
     <g id="text_2">
      <!-- 2 -->
      <defs>
       <path d="M 19.1875 8.296875 
L 53.609375 8.296875 
L 53.609375 0 
L 7.328125 0 
L 7.328125 8.296875 
Q 12.9375 14.109375 22.625 23.890625 
Q 32.328125 33.6875 34.8125 36.53125 
Q 39.546875 41.84375 41.421875 45.53125 
Q 43.3125 49.21875 43.3125 52.78125 
Q 43.3125 58.59375 39.234375 62.25 
Q 35.15625 65.921875 28.609375 65.921875 
Q 23.96875 65.921875 18.8125 64.3125 
Q 13.671875 62.703125 7.8125 59.421875 
L 7.8125 69.390625 
Q 13.765625 71.78125 18.9375 73 
Q 24.125 74.21875 28.421875 74.21875 
Q 39.75 74.21875 46.484375 68.546875 
Q 53.21875 62.890625 53.21875 53.421875 
Q 53.21875 48.921875 51.53125 44.890625 
Q 49.859375 40.875 45.40625 35.40625 
Q 44.1875 33.984375 37.640625 27.21875 
Q 31.109375 20.453125 19.1875 8.296875 
z
" id="DejaVuSans-32"/>
      </defs>
      <g transform="translate(113.944522 322.182437)scale(0.1 -0.1)">
       <use xlink:href="#DejaVuSans-32"/>
      </g>
     </g>
    </g>
    <g id="xtick_3">
     <g id="line2d_3">
      <g>
       <use style="stroke:#000000;stroke-width:0.8;" x="160.418818" xlink:href="#mb1fc635eff" y="307.584"/>
      </g>
     </g>
     <g id="text_3">
      <!-- 4 -->
      <defs>
       <path d="M 37.796875 64.3125 
L 12.890625 25.390625 
L 37.796875 25.390625 
z
M 35.203125 72.90625 
L 47.609375 72.90625 
L 47.609375 25.390625 
L 58.015625 25.390625 
L 58.015625 17.1875 
L 47.609375 17.1875 
L 47.609375 0 
L 37.796875 0 
L 37.796875 17.1875 
L 4.890625 17.1875 
L 4.890625 26.703125 
z
" id="DejaVuSans-34"/>
      </defs>
      <g transform="translate(157.237568 322.182437)scale(0.1 -0.1)">
       <use xlink:href="#DejaVuSans-34"/>
      </g>
     </g>
    </g>
    <g id="xtick_4">
     <g id="line2d_4">
      <g>
       <use style="stroke:#000000;stroke-width:0.8;" x="203.711863" xlink:href="#mb1fc635eff" y="307.584"/>
      </g>
     </g>
     <g id="text_4">
      <!-- 6 -->
      <defs>
       <path d="M 33.015625 40.375 
Q 26.375 40.375 22.484375 35.828125 
Q 18.609375 31.296875 18.609375 23.390625 
Q 18.609375 15.53125 22.484375 10.953125 
Q 26.375 6.390625 33.015625 6.390625 
Q 39.65625 6.390625 43.53125 10.953125 
Q 47.40625 15.53125 47.40625 23.390625 
Q 47.40625 31.296875 43.53125 35.828125 
Q 39.65625 40.375 33.015625 40.375 
z
M 52.59375 71.296875 
L 52.59375 62.3125 
Q 48.875 64.0625 45.09375 64.984375 
Q 41.3125 65.921875 37.59375 65.921875 
Q 27.828125 65.921875 22.671875 59.328125 
Q 17.53125 52.734375 16.796875 39.40625 
Q 19.671875 43.65625 24.015625 45.921875 
Q 28.375 48.1875 33.59375 48.1875 
Q 44.578125 48.1875 50.953125 41.515625 
Q 57.328125 34.859375 57.328125 23.390625 
Q 57.328125 12.15625 50.6875 5.359375 
Q 44.046875 -1.421875 33.015625 -1.421875 
Q 20.359375 -1.421875 13.671875 8.265625 
Q 6.984375 17.96875 6.984375 36.375 
Q 6.984375 53.65625 15.1875 63.9375 
Q 23.390625 74.21875 37.203125 74.21875 
Q 40.921875 74.21875 44.703125 73.484375 
Q 48.484375 72.75 52.59375 71.296875 
z
" id="DejaVuSans-36"/>
      </defs>
      <g transform="translate(200.530613 322.182437)scale(0.1 -0.1)">
       <use xlink:href="#DejaVuSans-36"/>
      </g>
     </g>
    </g>
    <g id="xtick_5">
     <g id="line2d_5">
      <g>
       <use style="stroke:#000000;stroke-width:0.8;" x="247.004908" xlink:href="#mb1fc635eff" y="307.584"/>
      </g>
     </g>
     <g id="text_5">
      <!-- 8 -->
      <defs>
       <path d="M 31.78125 34.625 
Q 24.75 34.625 20.71875 30.859375 
Q 16.703125 27.09375 16.703125 20.515625 
Q 16.703125 13.921875 20.71875 10.15625 
Q 24.75 6.390625 31.78125 6.390625 
Q 38.8125 6.390625 42.859375 10.171875 
Q 46.921875 13.96875 46.921875 20.515625 
Q 46.921875 27.09375 42.890625 30.859375 
Q 38.875 34.625 31.78125 34.625 
z
M 21.921875 38.8125 
Q 15.578125 40.375 12.03125 44.71875 
Q 8.5 49.078125 8.5 55.328125 
Q 8.5 64.0625 14.71875 69.140625 
Q 20.953125 74.21875 31.78125 74.21875 
Q 42.671875 74.21875 48.875 69.140625 
Q 55.078125 64.0625 55.078125 55.328125 
Q 55.078125 49.078125 51.53125 44.71875 
Q 48 40.375 41.703125 38.8125 
Q 48.828125 37.15625 52.796875 32.3125 
Q 56.78125 27.484375 56.78125 20.515625 
Q 56.78125 9.90625 50.3125 4.234375 
Q 43.84375 -1.421875 31.78125 -1.421875 
Q 19.734375 -1.421875 13.25 4.234375 
Q 6.78125 9.90625 6.78125 20.515625 
Q 6.78125 27.484375 10.78125 32.3125 
Q 14.796875 37.15625 21.921875 38.8125 
z
M 18.3125 54.390625 
Q 18.3125 48.734375 21.84375 45.5625 
Q 25.390625 42.390625 31.78125 42.390625 
Q 38.140625 42.390625 41.71875 45.5625 
Q 45.3125 48.734375 45.3125 54.390625 
Q 45.3125 60.0625 41.71875 63.234375 
Q 38.140625 66.40625 31.78125 66.40625 
Q 25.390625 66.40625 21.84375 63.234375 
Q 18.3125 60.0625 18.3125 54.390625 
z
" id="DejaVuSans-38"/>
      </defs>
      <g transform="translate(243.823658 322.182437)scale(0.1 -0.1)">
       <use xlink:href="#DejaVuSans-38"/>
      </g>
     </g>
    </g>
    <g id="xtick_6">
     <g id="line2d_6">
      <g>
       <use style="stroke:#000000;stroke-width:0.8;" x="290.297953" xlink:href="#mb1fc635eff" y="307.584"/>
      </g>
     </g>
     <g id="text_6">
      <!-- 10 -->
      <defs>
       <path d="M 12.40625 8.296875 
L 28.515625 8.296875 
L 28.515625 63.921875 
L 10.984375 60.40625 
L 10.984375 69.390625 
L 28.421875 72.90625 
L 38.28125 72.90625 
L 38.28125 8.296875 
L 54.390625 8.296875 
L 54.390625 0 
L 12.40625 0 
z
" id="DejaVuSans-31"/>
      </defs>
      <g transform="translate(283.935453 322.182437)scale(0.1 -0.1)">
       <use xlink:href="#DejaVuSans-31"/>
       <use x="63.623047" xlink:href="#DejaVuSans-30"/>
      </g>
     </g>
    </g>
    <g id="xtick_7">
     <g id="line2d_7">
      <g>
       <use style="stroke:#000000;stroke-width:0.8;" x="333.590998" xlink:href="#mb1fc635eff" y="307.584"/>
      </g>
     </g>
     <g id="text_7">
      <!-- 12 -->
      <g transform="translate(327.228498 322.182437)scale(0.1 -0.1)">
       <use xlink:href="#DejaVuSans-31"/>
       <use x="63.623047" xlink:href="#DejaVuSans-32"/>
      </g>
     </g>
    </g>
    <g id="xtick_8">
     <g id="line2d_8">
      <g>
       <use style="stroke:#000000;stroke-width:0.8;" x="376.884043" xlink:href="#mb1fc635eff" y="307.584"/>
      </g>
     </g>
     <g id="text_8">
      <!-- 14 -->
      <g transform="translate(370.521543 322.182437)scale(0.1 -0.1)">
       <use xlink:href="#DejaVuSans-31"/>
       <use x="63.623047" xlink:href="#DejaVuSans-34"/>
      </g>
     </g>
    </g>
   </g>
   <g id="matplotlib.axis_2">
    <g id="ytick_1">
     <g id="line2d_9">
      <defs>
       <path d="M 0 0 
L -3.5 0 
" id="m0867428ded" style="stroke:#000000;stroke-width:0.8;"/>
      </defs>
      <g>
       <use style="stroke:#000000;stroke-width:0.8;" x="57.6" xlink:href="#m0867428ded" y="277.377628"/>
      </g>
     </g>
     <g id="text_9">
      <!-- −10000 -->
      <defs>
       <path d="M 10.59375 35.5 
L 73.1875 35.5 
L 73.1875 27.203125 
L 10.59375 27.203125 
z
" id="DejaVuSans-2212"/>
      </defs>
      <g transform="translate(10.407812 281.176847)scale(0.1 -0.1)">
       <use xlink:href="#DejaVuSans-2212"/>
       <use x="83.789062" xlink:href="#DejaVuSans-31"/>
       <use x="147.412109" xlink:href="#DejaVuSans-30"/>
       <use x="211.035156" xlink:href="#DejaVuSans-30"/>
       <use x="274.658203" xlink:href="#DejaVuSans-30"/>
       <use x="338.28125" xlink:href="#DejaVuSans-30"/>
      </g>
     </g>
    </g>
    <g id="ytick_2">
     <g id="line2d_10">
      <g>
       <use style="stroke:#000000;stroke-width:0.8;" x="57.6" xlink:href="#m0867428ded" y="237.951934"/>
      </g>
     </g>
     <g id="text_10">
      <!-- 0 -->
      <g transform="translate(44.2375 241.751153)scale(0.1 -0.1)">
       <use xlink:href="#DejaVuSans-30"/>
      </g>
     </g>
    </g>
    <g id="ytick_3">
     <g id="line2d_11">
      <g>
       <use style="stroke:#000000;stroke-width:0.8;" x="57.6" xlink:href="#m0867428ded" y="198.52624"/>
      </g>
     </g>
     <g id="text_11">
      <!-- 10000 -->
      <g transform="translate(18.7875 202.325459)scale(0.1 -0.1)">
       <use xlink:href="#DejaVuSans-31"/>
       <use x="63.623047" xlink:href="#DejaVuSans-30"/>
       <use x="127.246094" xlink:href="#DejaVuSans-30"/>
       <use x="190.869141" xlink:href="#DejaVuSans-30"/>
       <use x="254.492188" xlink:href="#DejaVuSans-30"/>
      </g>
     </g>
    </g>
    <g id="ytick_4">
     <g id="line2d_12">
      <g>
       <use style="stroke:#000000;stroke-width:0.8;" x="57.6" xlink:href="#m0867428ded" y="159.100546"/>
      </g>
     </g>
     <g id="text_12">
      <!-- 20000 -->
      <g transform="translate(18.7875 162.899765)scale(0.1 -0.1)">
       <use xlink:href="#DejaVuSans-32"/>
       <use x="63.623047" xlink:href="#DejaVuSans-30"/>
       <use x="127.246094" xlink:href="#DejaVuSans-30"/>
       <use x="190.869141" xlink:href="#DejaVuSans-30"/>
       <use x="254.492188" xlink:href="#DejaVuSans-30"/>
      </g>
     </g>
    </g>
    <g id="ytick_5">
     <g id="line2d_13">
      <g>
       <use style="stroke:#000000;stroke-width:0.8;" x="57.6" xlink:href="#m0867428ded" y="119.674852"/>
      </g>
     </g>
     <g id="text_13">
      <!-- 30000 -->
      <defs>
       <path d="M 40.578125 39.3125 
Q 47.65625 37.796875 51.625 33 
Q 55.609375 28.21875 55.609375 21.1875 
Q 55.609375 10.40625 48.1875 4.484375 
Q 40.765625 -1.421875 27.09375 -1.421875 
Q 22.515625 -1.421875 17.65625 -0.515625 
Q 12.796875 0.390625 7.625 2.203125 
L 7.625 11.71875 
Q 11.71875 9.328125 16.59375 8.109375 
Q 21.484375 6.890625 26.8125 6.890625 
Q 36.078125 6.890625 40.9375 10.546875 
Q 45.796875 14.203125 45.796875 21.1875 
Q 45.796875 27.640625 41.28125 31.265625 
Q 36.765625 34.90625 28.71875 34.90625 
L 20.21875 34.90625 
L 20.21875 43.015625 
L 29.109375 43.015625 
Q 36.375 43.015625 40.234375 45.921875 
Q 44.09375 48.828125 44.09375 54.296875 
Q 44.09375 59.90625 40.109375 62.90625 
Q 36.140625 65.921875 28.71875 65.921875 
Q 24.65625 65.921875 20.015625 65.03125 
Q 15.375 64.15625 9.8125 62.3125 
L 9.8125 71.09375 
Q 15.4375 72.65625 20.34375 73.4375 
Q 25.25 74.21875 29.59375 74.21875 
Q 40.828125 74.21875 47.359375 69.109375 
Q 53.90625 64.015625 53.90625 55.328125 
Q 53.90625 49.265625 50.4375 45.09375 
Q 46.96875 40.921875 40.578125 39.3125 
z
" id="DejaVuSans-33"/>
      </defs>
      <g transform="translate(18.7875 123.474071)scale(0.1 -0.1)">
       <use xlink:href="#DejaVuSans-33"/>
       <use x="63.623047" xlink:href="#DejaVuSans-30"/>
       <use x="127.246094" xlink:href="#DejaVuSans-30"/>
       <use x="190.869141" xlink:href="#DejaVuSans-30"/>
       <use x="254.492188" xlink:href="#DejaVuSans-30"/>
      </g>
     </g>
    </g>
    <g id="ytick_6">
     <g id="line2d_14">
      <g>
       <use style="stroke:#000000;stroke-width:0.8;" x="57.6" xlink:href="#m0867428ded" y="80.249159"/>
      </g>
     </g>
     <g id="text_14">
      <!-- 40000 -->
      <g transform="translate(18.7875 84.048377)scale(0.1 -0.1)">
       <use xlink:href="#DejaVuSans-34"/>
       <use x="63.623047" xlink:href="#DejaVuSans-30"/>
       <use x="127.246094" xlink:href="#DejaVuSans-30"/>
       <use x="190.869141" xlink:href="#DejaVuSans-30"/>
       <use x="254.492188" xlink:href="#DejaVuSans-30"/>
      </g>
     </g>
    </g>
   </g>
   <g id="line2d_15">
    <path clip-path="url(#pf9e142984c)" d="M 73.832727 267.326227 
L 74.049192 237.548 
L 74.092486 242.929608 
L 74.135779 237.9462 
L 74.179072 236.471679 
L 74.265658 245.992984 
L 74.525416 283.904731 
L 74.568709 283.017653 
L 74.915053 230.601193 
L 74.958346 232.919424 
L 75.347984 276.520299 
L 75.391277 275.089146 
L 75.43457 273.555487 
L 75.780914 229.635264 
L 75.8675 232.091484 
L 75.99738 246.872177 
L 76.170552 261.834228 
L 76.300431 274.600267 
L 76.560189 238.021109 
L 76.646775 222.491328 
L 76.690068 225.531049 
L 76.776654 231.251717 
L 77.079706 269.545893 
L 77.122999 268.891427 
L 77.209585 253.503579 
L 77.296171 254.27238 
L 77.599222 216.360632 
L 77.642515 221.903885 
L 77.98886 263.947445 
L 78.032153 261.522765 
L 78.378497 207.284838 
L 78.638255 223.591305 
L 78.854721 249.091843 
L 79.244358 197.195803 
L 79.374237 203.082059 
L 79.41753 204.552637 
L 79.677288 234.512222 
L 79.720581 231.078244 
L 80.196805 183.317958 
L 80.499856 217.421184 
L 80.629735 226.946431 
L 80.97608 179.939176 
L 81.062666 185.159138 
L 81.452303 240.836103 
L 81.495596 239.385238 
L 81.798648 194.187622 
L 82.058406 219.282076 
L 82.318164 257.304216 
L 82.448043 248.9026 
L 82.491336 249.387536 
L 82.707802 219.077063 
L 82.751095 220.922185 
L 83.140732 275.712072 
L 83.227318 271.142634 
L 83.313904 262.425613 
L 83.357197 266.695416 
L 83.487076 241.991276 
L 83.573662 233.857755 
L 83.616955 236.081365 
L 83.703542 243.398773 
L 84.049886 281.255325 
L 84.266351 265.205125 
L 84.39623 241.569421 
L 84.569402 246.347815 
L 84.915747 280.975402 
L 85.39197 243.493395 
L 85.521849 250.503283 
L 85.781608 290.082737 
L 85.95478 270.705009 
L 86.127952 240.694171 
L 86.171245 240.240775 
L 86.257831 234.949847 
L 86.604176 283.833765 
L 86.647469 281.507649 
L 86.95052 243.410601 
L 86.993813 243.339635 
L 87.037106 244.096608 
L 87.123692 240.256545 
L 87.556623 285.895729 
L 87.686502 267.066017 
L 87.859674 243.012401 
L 87.94626 235.3993 
L 87.989553 239.582366 
L 88.335897 279.504824 
L 88.37919 280.943862 
L 88.595656 260.880126 
L 88.855414 235.683165 
L 89.201758 284.862776 
L 89.245051 282.465693 
L 89.634689 239.412836 
L 89.677982 237.473092 
L 89.721275 237.843693 
L 89.764568 239.732184 
L 90.024326 285.272803 
L 90.067619 279.950334 
L 90.197498 274.383426 
L 90.240791 278.329938 
L 90.457257 238.001396 
L 90.717015 255.13186 
L 90.803601 274.32823 
L 90.846894 271.217543 
L 90.890187 267.75991 
L 90.93348 271.942976 
L 90.976773 275.282332 
L 91.020066 271.584202 
L 91.063359 269.963806 
L 91.106652 271.193887 
L 91.323118 233.491096 
L 91.409704 229.773253 
L 91.582876 250.735895 
L 91.669462 264.96857 
L 91.756048 264.771442 
L 91.799341 269.750907 
L 91.842634 269.005761 
L 91.885927 263.659637 
L 91.92922 268.217248 
L 91.972513 269.001819 
L 92.145685 228.192283 
L 92.188978 229.15427 
L 92.275564 224.048643 
L 92.318858 227.801969 
L 92.621909 266.462804 
L 92.665202 266.182882 
L 92.751788 267.180352 
L 92.838374 260.659342 
L 93.054839 234.346634 
L 93.184718 227.514161 
L 93.660942 289.660882 
L 93.9207 238.860876 
L 93.963993 241.324982 
L 94.050579 242.026759 
L 94.440217 284.433035 
L 94.570096 278.795161 
L 94.786561 240.985921 
L 94.829854 239.917485 
L 95.132905 266.67176 
L 95.349371 291.663708 
L 95.392664 288.765919 
L 95.522543 253.42867 
L 95.565836 255.104262 
L 95.695715 240.165866 
L 95.739008 243.233185 
L 95.998766 279.244614 
L 96.128646 277.170823 
L 96.215232 285.292516 
L 96.258525 279.362891 
L 96.561576 172.74793 
L 97.167679 94.156752 
L 97.254265 107.297336 
L 97.47073 175.460418 
L 97.730488 253.318278 
L 97.946953 286.376722 
L 97.990246 280.979345 
L 98.163419 248.942026 
L 98.206712 250.795033 
L 98.293298 254.043711 
L 98.336591 253.341933 
L 98.379884 253.420785 
L 98.812814 294.222435 
L 99.115866 239.736126 
L 99.202452 250.010462 
L 99.289038 241.699526 
L 99.332331 243.016344 
L 99.635382 285.816877 
L 99.678675 284.42515 
L 99.938433 235.95126 
L 99.981727 234.638384 
L 100.02502 235.296793 
L 100.501243 284.070319 
L 100.544536 283.569613 
L 100.761001 241.76655 
L 100.804294 240.615319 
L 100.89088 231.910126 
L 100.934174 233.439843 
L 101.280518 274.17447 
L 101.323811 272.017884 
L 101.410397 280.730963 
L 101.626862 240.812448 
L 101.800034 235.462381 
L 102.0165 253.953032 
L 102.232965 275.140399 
L 102.276258 273.705304 
L 102.536016 232.805089 
L 102.622602 228.60231 
L 102.665895 230.392237 
L 103.01224 270.933678 
L 103.055533 266.711186 
L 103.098826 265.516588 
L 103.488463 216.549876 
L 103.575049 224.005274 
L 103.964687 265.445621 
L 104.181152 228.578655 
L 104.354324 207.888051 
L 104.397617 210.017038 
L 104.830548 256.783796 
L 105.047013 213.541695 
L 105.220185 200.704689 
L 105.263478 200.645551 
L 105.306771 199.482493 
L 105.479943 220.535813 
L 105.696408 241.277671 
L 105.912874 199.533746 
L 106.086046 185.754466 
L 106.129339 185.793892 
L 106.302511 201.339443 
L 106.518976 228.767898 
L 106.562269 232.379292 
L 106.865321 181.685735 
L 106.908614 175.452533 
L 106.951907 177.806246 
L 107.298251 220.106073 
L 107.341544 221.584537 
L 107.42813 230.959967 
L 107.687889 192.180854 
L 107.817768 185.825433 
L 107.861061 187.595646 
L 108.293991 254.465566 
L 108.337284 249.407249 
L 108.640336 214.010861 
L 108.683629 216.364575 
L 109.116559 269.435502 
L 109.203145 263.020941 
L 109.289731 254.631153 
L 109.506196 226.587657 
L 109.679369 240.130383 
L 109.98242 283.388255 
L 110.328764 235.064182 
L 110.372057 235.832983 
L 110.631816 258.486986 
L 110.848281 289.759447 
L 111.324504 233.152035 
L 111.627556 289.069497 
L 111.670849 288.844771 
L 112.103779 237.524345 
L 112.190365 242.681226 
L 112.580003 287.204662 
L 113.012933 234.827627 
L 113.056226 235.26131 
L 113.229398 261.715951 
L 113.402571 295.488 
L 113.662329 249.947381 
L 113.835501 231.346339 
L 113.878794 235.044469 
L 114.008673 245.886535 
L 114.268431 286.065259 
L 114.311724 280.179003 
L 114.744655 235.324391 
L 114.787948 235.363817 
L 114.96112 260.064014 
L 115.047706 274.612095 
L 115.090999 270.728664 
L 115.134292 275.802751 
L 115.177585 271.651226 
L 115.350758 259.086257 
L 115.610516 238.612494 
L 115.653809 237.595311 
L 116.000153 282.69042 
L 116.173325 264.381128 
L 116.216618 261.818457 
L 116.389791 236.625439 
L 116.476377 232.347751 
L 116.736135 264.428438 
L 116.866014 284.436978 
L 116.909307 278.105212 
L 117.255652 232.769606 
L 117.342238 227.652151 
L 117.558703 254.859822 
L 117.688582 274.347943 
L 117.731875 272.104621 
L 117.94834 250.708297 
L 118.164805 225.59413 
L 118.208099 225.168332 
L 118.337978 236.002513 
L 118.554443 273.874835 
L 118.597736 269.474927 
L 118.684322 255.940087 
L 118.727615 259.717068 
L 118.770908 261.167934 
L 118.900787 221.166625 
L 119.030666 224.19846 
L 119.333718 253.073839 
L 119.420304 270.208245 
L 119.463597 262.118093 
L 119.50689 262.66611 
L 119.550183 266.328757 
L 119.593476 265.820165 
L 119.723355 245.598727 
L 119.896527 229.741713 
L 119.93982 232.343809 
L 120.286165 286.435861 
L 120.329458 277.805576 
L 120.372751 271.111093 
L 120.459337 273.169115 
L 120.545923 258.234662 
L 120.632509 240.169809 
L 120.719095 241.328924 
L 120.762388 240.11067 
L 120.978853 260.399132 
L 121.152026 281.093679 
L 121.195319 278.696597 
L 121.238612 280.202658 
L 121.281905 278.88584 
L 121.584956 237.847636 
L 121.671542 232.907596 
L 122.104473 284.815465 
L 122.147766 287.287456 
L 122.537403 230.431663 
L 122.580696 232.402947 
L 122.623989 230.889001 
L 122.753868 223.453315 
L 122.797161 226.260424 
L 122.840454 225.538934 
L 123.359971 58.10984 
L 123.403264 59.848513 
L 123.48985 74.542469 
L 123.92278 252.060598 
L 123.966074 247.885417 
L 124.095953 221.556939 
L 124.139246 223.240416 
L 124.615469 291.506005 
L 124.961814 266.782152 
L 125.005107 266.892544 
L 125.134986 236.294263 
L 125.178279 238.647977 
L 125.438037 281.12522 
L 125.48133 273.642223 
L 125.524623 277.293042 
L 125.567916 277.915968 
L 125.870968 236.767372 
L 125.914261 231.8707 
L 125.957554 232.414775 
L 126.217312 258.080902 
L 126.303898 275.838234 
L 126.390484 274.407082 
L 126.433777 276.733197 
L 126.47707 274.667291 
L 126.823415 231.653859 
L 126.866708 233.211174 
L 127.03988 246.982569 
L 127.126466 267.255261 
L 127.213052 265.78074 
L 127.299638 273.819639 
L 127.342931 270.862712 
L 127.732568 223.851514 
L 128.165499 270.133336 
L 128.295378 255.194941 
L 128.511843 225.881938 
L 128.555136 227.273665 
L 128.641722 219.392468 
L 128.685015 224.076241 
L 128.858188 261.790859 
L 128.901481 257.923199 
L 128.988067 261.719893 
L 129.03136 260.580491 
L 129.117946 257.674817 
L 129.334411 219.995681 
L 129.420997 222.298142 
L 129.637462 234.796087 
L 129.724049 257.430378 
L 129.767342 253.475981 
L 129.853928 258.459388 
L 129.897221 255.526117 
L 130.200272 221.05229 
L 130.286858 202.581352 
L 130.330151 206.279483 
L 130.719789 256.464448 
L 130.763082 254.71789 
L 131.02284 204.745823 
L 131.109426 206.326793 
L 131.152719 206.847213 
L 131.239305 202.486731 
L 131.282598 204.461958 
L 131.325891 206.484496 
L 131.542356 236.680635 
L 131.672236 231.791849 
L 131.975287 181.181086 
L 132.45151 225.247184 
L 132.494803 223.216761 
L 132.58139 209.890876 
L 132.841148 173.721745 
L 132.884441 173.362971 
L 132.927734 174.171197 
L 133.274078 217.555231 
L 133.360664 223.039345 
L 133.793595 178.480426 
L 134.226525 237.918602 
L 134.269818 232.8524 
L 134.57287 202.277775 
L 134.616163 202.896758 
L 134.702749 214.014804 
L 134.962507 248.516228 
L 135.049093 258.593436 
L 135.135679 252.29321 
L 135.482024 215.457784 
L 135.655196 236.357344 
L 135.828368 262.859296 
L 135.914954 267.535183 
L 135.958247 265.512645 
L 136.347884 226.402357 
L 136.391177 229.702287 
L 136.737522 274.868362 
L 136.780815 281.964987 
L 136.824108 279.71378 
L 137.127159 229.958554 
L 137.343624 243.434256 
L 137.430211 268.248788 
L 137.473504 264.724131 
L 137.516797 261.313809 
L 137.56009 265.264263 
L 137.689969 274.639693 
L 137.863141 255.242252 
L 138.036313 229.15427 
L 138.079606 229.852105 
L 138.209485 240.410306 
L 138.425951 271.201773 
L 138.469244 273.397784 
L 138.55583 273.220368 
L 138.642416 261.747491 
L 138.858881 235.667395 
L 138.98876 230.179338 
L 139.378398 278.176178 
L 139.421691 270.925793 
L 139.724742 233.333394 
L 139.768035 235.024756 
L 140.071086 259.354352 
L 140.200965 278.385134 
L 140.633896 223.437544 
L 141.110119 272.577729 
L 141.196706 265.906902 
L 141.456464 228.148915 
L 141.54305 228.807324 
L 141.586343 229.485446 
L 141.802808 258.270145 
L 141.889394 272.16376 
L 141.932687 271.229371 
L 142.452204 231.728768 
L 142.798548 275.459748 
L 142.841841 273.129689 
L 143.188186 227.770428 
L 143.361358 235.213999 
L 143.664409 270.499995 
L 143.707702 272.380601 
L 143.750995 271.398901 
L 143.924167 245.882592 
L 144.054046 225.582302 
L 144.09734 229.587953 
L 144.573563 266.707243 
L 144.616856 265.95027 
L 144.746735 248.914428 
L 144.919907 218.548758 
L 144.9632 216.987501 
L 145.309545 253.30645 
L 145.396131 263.92379 
L 145.439424 261.885481 
L 145.569303 247.447792 
L 145.829061 220.165212 
L 145.872354 221.478088 
L 145.915647 223.197048 
L 146.305285 268.225133 
L 146.391871 262.090495 
L 146.694922 231.858873 
L 146.738215 229.85999 
L 147.08456 268.891427 
L 147.214439 273.587027 
L 147.560783 228.066121 
L 147.647369 233.254542 
L 147.863834 263.036711 
L 148.037007 278.515239 
L 148.0803 275.664761 
L 148.296765 242.870469 
L 148.469937 232.659214 
L 148.51323 234.665982 
L 148.772988 272.155874 
L 148.902868 279.678297 
L 148.989454 268.193592 
L 149.119333 253.101437 
L 149.292505 234.827627 
L 149.335798 229.540642 
L 149.379091 230.577538 
L 149.422384 234.303266 
L 149.595556 209.031396 
L 149.855315 166.621177 
L 150.028487 93.139569 
L 150.201659 53.568 
L 150.244952 56.927069 
L 150.548003 191.151844 
L 150.721175 244.36076 
L 150.937641 220.77631 
L 150.980934 222.731825 
L 151.283985 255.742958 
L 151.457157 282.469636 
L 151.630329 273.894547 
L 151.846795 240.268373 
L 151.890088 241.529995 
L 152.323018 273.224311 
L 152.366311 280.013415 
L 152.409604 274.962984 
L 152.799242 231.504041 
L 153.145586 269.183177 
L 153.275465 266.857061 
L 153.405344 250.798976 
L 153.535223 228.949256 
L 153.578516 231.381822 
L 154.098033 279.666469 
L 153.665102 229.879703 
L 154.141326 270.105738 
L 154.357791 232.702583 
L 154.48767 228.819152 
L 154.574256 236.246952 
L 154.617549 225.649326 
L 154.660843 231.283258 
L 154.877308 269.443387 
L 154.963894 263.328462 
L 155.137066 244.510578 
L 155.310238 219.834036 
L 155.353531 222.641145 
L 155.656583 251.307567 
L 155.829755 265.21301 
L 156.132806 222.037932 
L 156.219392 215.785017 
L 156.262685 219.644793 
L 156.305978 232.174278 
L 156.392564 228.618081 
L 156.695616 265.678233 
L 156.782202 248.114086 
L 157.04196 207.221757 
L 157.085253 211.684745 
L 157.171839 218.048052 
L 157.215132 212.138141 
L 157.258425 216.163504 
L 157.345011 241.415661 
L 157.431597 237.429723 
L 157.561477 254.059481 
L 157.951114 197.72805 
L 157.994407 200.062051 
L 158.297458 239.239363 
L 158.427337 235.320449 
L 158.513924 227.407712 
L 158.816975 187.359092 
L 158.903561 192.330672 
L 159.076733 209.240352 
L 159.249905 229.209466 
L 159.293198 226.737475 
L 159.552957 186.223632 
L 159.639543 182.044509 
L 159.726129 186.779534 
L 159.769422 179.899751 
L 159.812715 184.323314 
L 160.159059 225.483738 
L 160.202352 221.111429 
L 160.375524 191.443594 
L 160.418818 192.310959 
L 160.462111 190.966543 
L 160.505404 184.492844 
L 160.59199 187.441886 
L 160.635283 186.058044 
L 160.765162 209.85145 
L 160.981627 236.507162 
L 161.02492 239.554768 
L 161.068213 234.859168 
L 161.371265 200.483906 
L 161.544437 211.897644 
L 161.674316 240.351167 
L 161.847488 255.628624 
L 161.934074 259.334639 
L 161.977367 263.273266 
L 162.02066 259.886598 
L 162.237125 215.134493 
L 162.670056 268.94268 
L 162.756642 266.253848 
L 163.059693 234.870996 
L 163.102986 235.324391 
L 163.146279 234.472796 
L 163.189572 227.151445 
L 163.232865 232.466028 
L 163.449331 261.857883 
L 163.622503 272.006057 
L 163.752382 257.560483 
L 163.925554 236.984213 
L 163.968847 241.553651 
L 164.01214 243.528878 
L 164.055433 233.905066 
L 164.098726 237.354814 
L 164.401778 274.58844 
L 164.488364 277.766151 
L 164.57495 268.339467 
L 164.791415 234.00363 
L 165.00788 243.493395 
L 165.094466 252.987102 
L 165.267639 279.863598 
L 165.310932 279.567905 
L 165.354225 278.980462 
L 165.527397 254.619326 
L 165.657276 233.719765 
L 165.700569 235.915777 
L 165.743862 236.680635 
L 165.787155 231.172866 
L 165.830448 232.773549 
L 166.176793 278.775448 
L 166.220086 275.112801 
L 166.523137 235.513635 
L 166.56643 239.791322 
L 166.609723 241.924252 
L 166.653016 236.069537 
L 166.696309 238.663747 
L 166.99936 278.550722 
L 167.085946 272.518591 
L 167.172533 262.646397 
L 167.388998 231.756366 
L 167.475584 236.716118 
L 167.518877 230.439548 
L 167.56217 233.893239 
L 167.735342 260.213832 
L 167.865221 273.19277 
L 167.908514 272.877365 
L 168.168273 239.274846 
L 168.211566 232.016575 
L 168.254859 236.834395 
L 168.298152 242.941435 
L 168.384738 231.831275 
L 168.731082 269.502525 
L 168.774375 269.699654 
L 168.817668 272.420027 
L 168.860961 271.051955 
L 168.99084 248.949911 
L 169.207306 222.952608 
L 169.640236 268.430146 
L 169.683529 268.260616 
L 169.899994 244.447497 
L 170.073167 229.725943 
L 170.289632 253.129035 
L 170.506097 275.384839 
L 170.54939 277.032833 
L 170.982321 228.03458 
L 171.371958 270.07814 
L 171.415251 268.631217 
L 171.804888 224.770133 
L 171.848181 226.319563 
L 172.237819 269.774562 
L 172.281112 266.356355 
L 172.627456 217.401471 
L 172.670749 223.043288 
L 173.10368 259.433203 
L 173.146973 259.784092 
L 173.276852 246.363585 
L 173.363438 228.385469 
L 173.450024 231.634146 
L 173.493317 223.457257 
L 173.53661 225.061883 
L 173.623196 236.487449 
L 173.926248 279.556077 
L 174.186006 253.795329 
L 174.402471 220.437249 
L 174.835402 274.635751 
L 174.878695 274.828936 
L 175.051867 251.86347 
L 175.225039 232.079657 
L 175.268332 228.010925 
L 175.311625 230.3055 
L 175.701262 275.763325 
L 175.744556 278.310225 
L 175.787849 276.61492 
L 176.0909 232.462086 
L 176.134193 233.932664 
L 176.264072 248.666046 
L 176.437244 264.735959 
L 176.567123 277.415262 
L 176.610416 276.705599 
L 176.740296 235.466324 
L 176.956761 167.429404 
L 177.51957 94.732367 
L 177.562863 92.508758 
L 177.822622 154.162658 
L 178.125673 239.550826 
L 178.342138 270.247671 
L 178.385431 266.21048 
L 178.64519 234.129793 
L 178.818362 247.980039 
L 178.991534 276.693772 
L 179.034827 273.401726 
L 179.07812 273.922145 
L 179.164706 289.511065 
L 179.207999 282.513004 
L 179.424464 243.33175 
L 179.467757 241.226418 
L 179.554343 221.671273 
L 179.597637 229.106959 
L 179.987274 278.838529 
L 180.07386 273.752615 
L 180.420204 228.637794 
L 180.50679 237.390298 
L 180.809842 268.694298 
L 180.853135 268.615447 
L 180.896428 269.092498 
L 181.286065 228.933486 
L 181.372651 231.259602 
L 181.459237 239.168396 
L 181.718996 286.838003 
L 181.762289 277.170823 
L 182.108633 223.914595 
L 182.195219 220.409651 
L 182.368391 240.564066 
L 182.584857 265.768912 
L 182.62815 269.250201 
L 182.671443 264.747787 
L 182.887908 234.567418 
L 182.974494 217.019042 
L 183.017787 219.313617 
L 183.147666 229.343513 
L 183.320838 251.57172 
L 183.450718 265.429851 
L 183.494011 262.031356 
L 183.840355 218.745887 
L 184.143406 241.6601 
L 184.229992 255.332931 
L 184.273285 254.087079 
L 184.359871 252.742663 
L 184.489751 243.828513 
L 184.706216 208.069409 
L 184.965974 226.362931 
L 185.139146 248.973566 
L 185.269025 238.561241 
L 185.485491 213.667858 
L 185.658663 196.825201 
L 185.701956 200.393226 
L 185.788542 208.144318 
L 185.918421 227.060766 
L 185.961714 222.609605 
L 186.0483 226.71382 
L 186.091593 226.098779 
L 186.221472 212.268245 
L 186.481231 188.395988 
L 186.61111 185.348382 
L 186.697696 196.643843 
L 186.870868 224.233944 
L 186.914161 221.848689 
L 187.130626 205.609246 
L 187.347092 174.529971 
L 187.390385 175.976894 
L 187.736729 218.91936 
L 187.780022 222.380936 
L 187.823315 221.74224 
L 187.953194 215.106895 
L 187.996487 216.108308 
L 188.212953 186.791362 
L 188.256246 187.303896 
L 188.645883 250.396834 
L 188.689176 245.768257 
L 188.992227 212.063232 
L 189.03552 212.433833 
L 189.511744 267.819048 
L 189.555037 265.855649 
L 189.641623 254.741545 
L 189.858088 229.406595 
L 189.944674 223.291669 
L 190.334312 265.027709 
L 190.420898 269.829758 
L 190.464191 269.384248 
L 190.723949 228.996567 
L 190.810535 232.016575 
L 190.940414 242.645743 
L 191.243466 277.131397 
L 191.286759 276.425677 
L 191.546517 236.806797 
L 191.676396 240.709941 
L 191.719689 238.868761 
L 191.762982 238.963383 
L 192.15262 278.582262 
L 192.195913 274.276977 
L 192.455671 231.610491 
L 192.542257 236.223297 
L 192.58555 236.475621 
L 192.715429 241.825688 
L 192.931894 276.358653 
L 192.975187 277.005235 
L 193.191653 257.682702 
L 193.278239 232.138795 
L 193.321532 233.065299 
L 193.408118 237.015753 
L 193.451411 235.217942 
L 193.494704 235.990685 
L 193.797755 275.865832 
L 193.841048 269.63263 
L 194.057514 258.1085 
L 194.230686 225.515279 
L 194.490444 253.728305 
L 194.620323 274.970869 
L 194.663616 271.426499 
L 194.706909 271.040127 
L 194.750202 273.188828 
L 195.096547 238.584896 
L 195.183133 233.901124 
L 195.57277 273.847237 
L 195.616063 275.522829 
L 196.048994 229.29226 
L 196.481924 275.99988 
L 196.525217 272.561959 
L 196.56851 269.045187 
L 196.698389 234.393945 
L 196.741682 237.145858 
L 196.828268 230.266075 
L 196.871562 233.979975 
L 197.088027 253.700707 
L 197.304492 277.261502 
L 197.737422 229.509101 
L 197.824009 233.096839 
L 197.997181 259.819575 
L 198.083767 270.756262 
L 198.12706 268.781035 
L 198.213646 269.088555 
L 198.256939 268.745552 
L 198.300232 271.339763 
L 198.55999 227.790141 
L 198.646576 232.738066 
L 198.819749 254.079194 
L 198.992921 272.364831 
L 199.036214 271.998172 
L 199.469144 234.563475 
L 199.512437 233.822272 
L 199.599023 245.405541 
L 199.815489 274.935386 
L 199.988661 270.401431 
L 200.031954 272.313577 
L 200.248419 234.145563 
L 200.291712 232.367464 
L 200.335005 232.481799 
L 200.378298 235.158803 
L 200.421591 234.011516 
L 200.464884 233.124437 
L 200.594763 259.326754 
L 200.638056 256.921786 
L 200.68135 256.720715 
L 200.854522 270.925793 
L 201.11428 223.303497 
L 201.157573 223.524281 
L 201.244159 227.829567 
L 201.54721 260.612031 
L 201.763676 251.145922 
L 201.936848 216.404001 
L 201.980141 216.656325 
L 202.023434 217.448782 
L 202.369778 258.621034 
L 202.456364 274.935386 
L 202.499657 270.484225 
L 202.802709 226.351103 
L 202.889295 230.636676 
L 203.062467 241.526053 
L 203.322225 278.956807 
L 203.365518 277.986935 
L 203.798449 230.778609 
L 203.841742 234.031228 
L 204.188086 279.370776 
L 204.231379 281.062139 
L 204.274672 278.948921 
L 204.317965 277.261502 
L 204.577724 227.029225 
L 204.924068 268.576021 
L 205.140533 278.759678 
L 205.183826 278.4561 
L 205.703343 190.848266 
L 205.746636 193.698744 
L 205.789929 193.032449 
L 205.963101 164.882504 
L 206.309445 54.636436 
L 206.352738 60.838098 
L 206.569204 145.508718 
L 206.828962 246.962856 
L 206.915548 247.660691 
L 207.045427 226.489093 
L 207.08872 226.623141 
L 207.132013 228.184398 
L 207.175306 225.818856 
L 207.218599 224.340393 
L 207.391772 243.662925 
L 207.738116 287.69354 
L 208.08446 234.595016 
L 208.127753 238.813565 
L 208.171046 242.216002 
L 208.214339 242.007046 
L 208.257632 239.180224 
L 208.603977 282.296163 
L 208.907028 233.920836 
L 208.950321 232.986448 
L 208.993614 233.905066 
L 209.0802 238.308916 
L 209.339959 275.822464 
L 209.383252 274.46622 
L 209.469838 277.068316 
L 209.729596 231.618376 
L 209.816182 229.233121 
L 209.902768 230.076831 
L 210.119233 265.307631 
L 210.162526 275.854004 
L 210.205819 271.915378 
L 210.378992 257.595966 
L 210.682043 222.61749 
L 210.725336 226.358988 
L 210.811922 239.270903 
L 210.855215 235.687108 
L 210.898508 237.141916 
L 211.158266 275.712072 
L 211.201559 270.803573 
L 211.418025 227.474736 
L 211.461318 226.394472 
L 211.504611 226.934604 
L 211.547904 228.799439 
L 211.63449 222.01822 
L 211.677783 225.810971 
L 212.024127 270.93762 
L 212.240593 232.13091 
L 212.327179 215.824443 
L 212.370472 217.7839 
L 212.63023 239.136856 
L 212.889988 261.853941 
L 212.933281 255.037238 
L 213.236333 206.839327 
L 213.496091 224.829271 
L 213.712556 255.486691 
L 213.755849 258.029648 
L 214.015607 207.154733 
L 214.102194 197.676796 
L 214.18878 198.973901 
L 214.62171 244.510578 
L 214.968054 187.753349 
L 215.05464 183.684617 
L 215.444278 228.223824 
L 215.487571 226.386586 
L 215.704036 185.265588 
L 215.833915 174.857205 
L 215.877208 176.379036 
L 216.093674 195.161437 
L 216.18026 215.209402 
L 216.223553 213.025219 
L 216.266846 213.348509 
L 216.353432 221.05229 
L 216.699776 175.783708 
L 216.743069 174.648248 
L 216.786362 176.426347 
L 217.089414 220.752655 
L 217.219293 234.957732 
L 217.262586 227.411654 
L 217.565637 201.781011 
L 217.60893 199.719047 
L 217.652223 201.18174 
L 218.041861 260.016703 
L 218.128447 248.535941 
L 218.215033 245.137446 
L 218.474791 219.581712 
L 218.907722 269.435502 
L 218.951015 261.644984 
L 219.297359 231.988977 
L 219.340652 232.312268 
L 219.383945 230.041348 
L 219.427238 231.208349 
L 219.513824 240.690228 
L 219.773582 281.172531 
L 219.946755 260.209889 
L 220.16322 227.490506 
L 220.206513 227.163273 
L 220.422978 251.555949 
L 220.509564 281.783629 
L 220.59615 280.683652 
L 220.899202 235.221884 
L 221.072374 228.815209 
L 221.15896 236.424368 
L 221.462011 280.770388 
L 221.548597 271.398901 
L 221.851649 233.672455 
L 221.894942 234.255955 
L 221.938235 234.058826 
L 221.981528 233.053471 
L 222.068114 238.533643 
L 222.327872 280.58903 
L 222.414458 269.388191 
L 222.58763 249.466388 
L 222.804096 228.444608 
L 222.847389 230.187223 
L 223.193733 284.23985 
L 223.237026 277.963279 
L 223.323612 268.714011 
L 223.540077 235.284965 
L 223.626663 228.424895 
L 223.669956 229.398709 
L 223.799836 240.406363 
L 223.973008 270.235843 
L 224.059594 282.166058 
L 224.102887 278.653229 
L 224.492524 229.812679 
L 224.57911 226.72959 
L 224.925455 279.118452 
L 224.968748 269.482812 
L 225.14192 248.323042 
L 225.401678 229.741713 
L 225.531557 241.884827 
L 225.791316 280.522007 
L 226.224246 228.795496 
L 226.310832 234.12585 
L 226.397418 244.747132 
L 226.613884 272.668408 
L 226.657177 272.053368 
L 226.743763 263.257495 
L 226.787056 266.352412 
L 226.830349 269.470985 
L 227.1334 227.514161 
L 227.176693 227.971499 
L 227.479744 276.85936 
L 227.566331 272.565902 
L 227.782796 250.365293 
L 227.999261 226.433897 
L 228.345605 272.226841 
L 228.562071 263.348174 
L 228.865122 228.263249 
L 228.908415 232.734123 
L 229.211466 279.765033 
L 229.254759 271.998172 
L 229.774276 236.629382 
L 229.817569 235.734418 
L 230.077327 272.175587 
L 230.163913 271.323992 
L 230.207206 270.330465 
L 230.466965 238.987038 
L 230.596844 223.268014 
L 230.640137 224.407417 
L 230.943188 275.112801 
L 230.986481 264.688648 
L 231.073067 267.06996 
L 231.202946 246.663221 
L 231.376119 220.342628 
L 231.505998 225.523164 
L 231.67917 246.328102 
L 231.765756 265.38254 
L 231.852342 262.394073 
L 231.895635 262.133863 
L 232.025514 251.942321 
L 232.241979 219.680276 
L 232.285272 217.862751 
L 232.371859 223.784491 
L 232.415152 222.294199 
L 232.458445 221.828976 
L 232.545031 238.234007 
L 232.718203 270.385661 
L 232.761496 273.768385 
L 233.10784 231.878586 
L 233.194426 232.505454 
L 233.237719 229.627378 
L 233.410892 260.162578 
L 233.584064 280.123807 
L 233.627357 279.193361 
L 234.060287 225.385174 
L 234.10358 232.556707 
L 234.449925 278.621688 
L 234.839562 231.815504 
L 234.926148 229.907301 
L 234.969441 230.404065 
L 235.2292 275.830349 
L 235.272493 271.016472 
L 235.315786 271.761617 
L 235.359079 276.543954 
L 235.402372 271.493523 
L 235.705423 231.235947 
L 235.965181 209.516332 
L 236.008474 210.178684 
L 236.051767 211.381167 
L 236.527991 69.105666 
L 236.614577 57.751066 
L 236.65787 58.066472 
L 236.787749 118.513945 
L 237.134094 246.990454 
L 237.307266 227.762543 
L 237.437145 231.760308 
L 237.610317 238.750484 
L 237.870075 285.489644 
L 237.913368 286.84983 
L 238.346299 235.624026 
L 238.389592 237.709646 
L 238.822522 277.880485 
L 239.21216 225.377289 
L 239.298746 233.518694 
L 239.428625 251.319395 
L 239.601797 268.812576 
L 239.64509 273.531831 
L 239.731676 272.510706 
L 239.861555 247.940613 
L 240.034728 228.854635 
L 240.078021 228.98474 
L 240.251193 246.07972 
L 240.337779 263.032769 
L 240.381072 258.526412 
L 240.424365 258.368709 
L 240.510951 267.030534 
L 240.597537 265.694003 
L 240.727416 247.32163 
L 240.900588 225.069768 
L 240.943881 226.650739 
L 240.987175 226.035698 
L 241.160347 250.337695 
L 241.20364 260.004876 
L 241.290226 258.112442 
L 241.420105 268.024062 
L 241.723156 226.31562 
L 241.809742 225.483738 
L 241.853035 221.998507 
L 241.896328 222.976264 
L 241.982915 232.383234 
L 242.156087 257.54077 
L 242.19938 261.842113 
L 242.242673 260.94715 
L 242.415845 251.662399 
L 242.63231 219.077063 
L 242.848775 225.322093 
L 242.935362 248.650276 
L 242.978655 242.831043 
L 243.021948 240.92284 
L 243.151827 255.806039 
L 243.19512 253.298565 
L 243.324999 236.034054 
L 243.584757 206.606716 
L 243.62805 215.706166 
L 243.801222 244.309507 
L 243.887809 243.710236 
L 243.931102 242.377648 
L 243.974395 243.020287 
L 244.017688 248.106201 
L 244.060981 244.388358 
L 244.364032 196.044572 
L 244.407325 198.2051 
L 244.450618 199.127662 
L 244.840256 235.600371 
L 244.926842 231.192578 
L 245.056721 212.6901 
L 245.1866 190.375158 
L 245.359772 198.674266 
L 245.403065 199.013327 
L 245.446358 198.969959 
L 245.662823 221.091716 
L 245.706116 219.514688 
L 245.922582 199.987142 
L 246.052461 177.147837 
L 246.095754 179.663197 
L 246.139047 182.592526 
L 246.225633 181.563515 
L 246.268926 182.971012 
L 246.571977 219.116488 
L 246.74515 207.351861 
L 246.875029 175.791593 
L 246.918322 176.260759 
L 246.961615 175.957181 
L 247.004908 176.556452 
L 247.134787 189.838968 
L 247.394545 228.121317 
L 247.437838 234.267783 
L 247.481131 227.190871 
L 247.61101 208.380872 
L 247.654303 210.017038 
L 247.870769 193.738169 
L 248.043941 220.949783 
L 248.260406 250.357408 
L 248.303699 253.562717 
L 248.346992 249.635918 
L 248.563457 224.671569 
L 248.73663 217.831211 
L 248.909802 239.728241 
L 249.126267 262.985458 
L 249.16956 265.571784 
L 249.212853 262.985458 
L 249.386025 250.136624 
L 249.515904 227.833509 
L 249.559197 228.503746 
L 249.602491 229.099074 
L 249.645784 227.928131 
L 249.73237 237.27202 
L 250.035421 274.840764 
L 250.208593 255.683819 
L 250.381765 226.445725 
L 250.425058 230.329156 
L 250.901282 273.042952 
L 250.944575 271.024357 
L 251.290919 225.314208 
L 251.334212 225.87011 
L 251.420798 237.390298 
L 251.637264 262.811985 
L 251.72385 274.698832 
L 251.810436 270.334407 
L 252.113487 231.622319 
L 252.200073 231.693285 
L 252.243366 231.543467 
L 252.329952 248.894715 
L 252.459831 262.066839 
L 252.503125 261.605559 
L 252.633004 272.924675 
L 252.676297 270.243728 
L 253.022641 232.706525 
L 253.109227 230.238477 
L 253.195813 241.620675 
L 253.412278 268.477457 
L 253.455572 268.34341 
L 253.542158 271.118979 
L 253.845209 230.187223 
L 253.975088 233.569948 
L 254.061674 257.718185 
L 254.14826 254.966272 
L 254.321432 276.480873 
L 254.408019 269.624745 
L 254.451312 271.808928 
L 254.494605 268.919025 
L 254.754363 225.28661 
L 254.840949 233.873526 
L 255.057414 260.623859 
L 255.144 266.963511 
L 255.187293 264.428438 
L 255.620224 226.749303 
L 255.70681 233.968147 
L 256.053154 275.211366 
L 256.13974 267.886072 
L 256.442792 230.498686 
L 256.486085 231.515869 
L 256.572671 233.881411 
L 256.789136 263.076137 
L 256.962308 271.694594 
L 257.005601 269.948036 
L 257.395239 230.597251 
L 257.481825 252.261669 
L 257.525118 250.392891 
L 257.568411 238.021109 
L 257.611704 246.89189 
L 257.784876 276.985522 
L 258.001341 256.40531 
L 258.2611 225.310265 
L 258.304393 226.938546 
L 258.390979 248.252076 
L 258.434272 245.661808 
L 258.520858 255.427552 
L 258.650737 270.949448 
L 258.69403 270.137279 
L 259.040374 230.987565 
L 259.083667 235.419013 
L 259.12696 235.304678 
L 259.300133 249.572837 
L 259.473305 265.662463 
L 259.559891 268.134454 
L 259.819649 237.197112 
L 259.949528 228.819152 
L 259.992821 230.632734 
L 260.295873 265.118388 
L 260.382459 277.308813 
L 260.425752 275.045778 
L 260.68551 238.817508 
L 260.772096 235.411128 
L 260.815389 226.528519 
L 260.858682 228.795496 
L 260.945268 243.08731 
L 260.988561 239.050119 
L 261.291613 273.957629 
L 261.334906 272.34906 
L 261.594664 237.106433 
L 261.637957 235.714706 
L 261.724543 225.251126 
L 261.941008 253.479923 
L 262.114181 268.520825 
L 262.157474 264.50729 
L 262.547111 218.209697 
L 262.590404 219.246593 
L 262.763576 237.796382 
L 262.936748 260.39519 
L 262.980041 258.439675 
L 263.066628 254.15016 
L 263.369679 215.615487 
L 263.845902 272.561959 
L 263.889195 268.6667 
L 264.278833 230.132027 
L 264.538591 268.390721 
L 264.581884 266.813693 
L 264.66847 275.290217 
L 264.711763 273.173057 
L 264.928228 255.557657 
L 265.144694 229.509101 
L 265.361159 252.383889 
L 265.491038 267.271031 
L 265.577624 279.701952 
L 265.620917 279.520594 
L 265.967262 237.114318 
L 266.010555 237.015753 
L 266.053848 242.369763 
L 266.097141 241.037174 
L 266.140434 238.525758 
L 266.486778 273.173057 
L 266.573364 263.324519 
L 267.525811 82.230479 
L 267.569104 80.318333 
L 267.742276 132.127638 
L 268.002035 240.197407 
L 268.261793 269.447329 
L 268.305086 268.540538 
L 268.478258 242.507753 
L 268.521551 242.535351 
L 268.608137 248.401894 
L 268.65143 248.149569 
L 268.694723 245.330632 
L 268.911189 278.475813 
L 268.997775 281.077909 
L 269.041068 280.293338 
L 269.084361 279.441743 
L 269.257533 254.721833 
L 269.430705 232.915481 
L 269.64717 247.625208 
L 269.906929 278.16435 
L 269.950222 276.603093 
L 270.20998 245.858937 
L 270.296566 224.162977 
L 270.339859 231.354224 
L 270.556324 254.729718 
L 270.599617 267.010821 
L 270.686203 265.922672 
L 270.729497 270.054485 
L 270.816083 268.899312 
L 270.945962 257.647219 
L 271.162427 226.974029 
L 271.335599 239.377353 
L 271.465478 255.727188 
L 271.63865 269.739079 
L 271.681944 268.615447 
L 272.028288 229.524872 
L 272.071581 233.368877 
L 272.114874 233.088954 
L 272.158167 228.460378 
L 272.20146 229.970382 
L 272.547804 265.776797 
L 272.980735 217.862751 
L 273.024028 221.336155 
L 273.327079 261.633157 
L 273.370372 260.958977 
L 273.413665 260.355764 
L 273.543544 246.911603 
L 273.76001 220.259834 
L 273.846596 208.404527 
L 273.889889 214.661385 
L 274.149647 254.402484 
L 274.236233 251.4495 
L 274.279526 254.875593 
L 274.322819 254.473451 
L 274.452698 235.84481 
L 274.582578 210.628137 
L 274.625871 212.173624 
L 274.712457 205.948307 
L 275.015508 245.275436 
L 275.058801 247.345285 
L 275.102094 245.484392 
L 275.231973 234.070654 
L 275.535025 201.899288 
L 275.578318 196.604417 
L 275.621611 202.798194 
L 275.924662 232.8524 
L 275.967955 232.69864 
L 276.141127 214.37752 
L 276.314299 186.901754 
L 276.357592 187.930765 
L 276.444178 182.190384 
L 276.790523 230.44349 
L 276.833816 228.752128 
L 276.920402 215.599717 
L 277.136867 178.606588 
L 277.18016 178.929879 
L 277.223453 184.13407 
L 277.310039 171.746517 
L 277.526505 199.604713 
L 277.74297 220.902472 
L 277.786263 215.643085 
L 278.002728 193.403051 
L 278.046021 197.937006 
L 278.089314 197.810843 
L 278.219193 187.40246 
L 278.262486 188.325022 
L 278.565538 239.026464 
L 278.825296 207.600243 
L 278.868589 207.899879 
L 278.911882 211.1249 
L 278.955175 208.475494 
L 278.998468 202.873103 
L 279.041761 205.908881 
L 279.214933 230.589365 
L 279.344813 255.951914 
L 279.388106 252.809686 
L 279.474692 252.975274 
L 279.561278 248.666046 
L 279.864329 220.165212 
L 279.907622 223.516396 
L 280.29726 271.04407 
L 280.340553 270.787803 
L 280.470432 254.713947 
L 280.600311 232.052059 
L 280.643604 235.09178 
L 280.686897 234.504337 
L 280.73019 227.179043 
L 280.773483 229.095132 
L 281.119827 276.161525 
L 281.16312 274.253321 
L 281.336293 260.343937 
L 281.552758 230.262132 
L 281.596051 226.42207 
L 281.639344 229.970382 
L 281.985688 277.951451 
L 282.072274 275.026065 
L 282.202153 259.480514 
L 282.461912 228.574712 
L 282.591791 242.164749 
L 282.808256 270.957333 
L 282.938135 273.705304 
L 283.024721 264.085435 
L 283.28448 229.710172 
L 283.630824 269.120096 
L 283.760703 276.039305 
L 283.803996 272.743317 
L 284.236927 227.74283 
L 284.496685 265.831993 
L 284.626564 276.946096 
L 284.669857 275.668704 
L 285.016201 229.256777 
L 285.059494 227.46685 
L 285.405839 273.196713 
L 285.449132 271.623628 
L 285.492425 271.189945 
L 285.70889 243.217415 
L 285.882062 229.85999 
L 285.925355 227.648209 
L 286.358286 273.634338 
L 286.401579 270.535478 
L 286.618044 249.8843 
L 286.661337 251.855585 
L 286.747923 236.22724 
L 286.791216 238.825393 
L 286.834509 237.295676 
L 286.877802 238.293146 
L 286.921095 239.874116 
L 287.224147 276.73714 
L 287.26744 275.814579 
L 287.613784 229.623436 
L 287.70037 238.127558 
L 287.873542 254.788856 
L 288.090008 274.422852 
L 288.26318 260.895896 
L 288.479645 225.152562 
L 288.522938 231.594721 
L 288.825989 267.460274 
L 288.869282 280.064669 
L 288.955869 273.220368 
L 289.302213 227.182985 
L 289.345506 228.282962 
L 289.735143 275.34147 
L 289.778436 275.065491 
L 289.908316 268.142339 
L 289.994902 252.230129 
L 290.168074 233.518694 
L 290.211367 230.112314 
L 290.25466 230.751011 
L 290.557711 268.812576 
L 290.644297 278.432445 
L 290.68759 275.58591 
L 291.033935 232.2689 
L 291.207107 243.189817 
L 291.2504 238.900302 
L 291.293693 244.013814 
L 291.466865 267.822991 
L 291.510158 275.972282 
L 291.553451 275.503116 
L 291.899796 224.470498 
L 291.986382 227.939959 
L 292.159554 245.259666 
L 292.332726 268.300042 
L 292.376019 267.424791 
L 292.895536 222.290257 
L 292.982122 232.702583 
L 293.24188 258.613149 
L 293.285173 260.308453 
L 293.328466 258.960095 
L 293.371759 257.513172 
L 293.67481 218.020454 
L 293.718104 217.224055 
L 293.761397 219.424009 
L 294.107741 269.672056 
L 294.194327 270.6301 
L 294.540671 233.700053 
L 294.583964 232.162451 
L 294.67055 241.206705 
L 294.887016 270.618272 
L 294.973602 276.622805 
L 295.016895 273.16123 
L 295.103481 259.180879 
L 295.146774 261.10091 
L 295.190067 263.620212 
L 295.406532 226.015985 
L 295.449825 230.699757 
L 295.709584 264.795097 
L 295.752877 267.062075 
L 295.839463 281.006943 
L 295.882756 279.331351 
L 296.2291 228.499804 
L 296.402272 239.933255 
L 296.445565 240.457617 
L 296.748617 271.773445 
L 296.878496 237.465206 
L 297.311426 133.491767 
L 297.571185 108.40914 
L 297.657771 89.484807 
L 297.701064 90.174757 
L 297.960822 152.080981 
L 298.263873 253.424727 
L 298.480338 279.209131 
L 298.523632 276.023535 
L 298.78339 240.607434 
L 298.826683 242.547178 
L 299.346199 284.752384 
L 299.432785 275.704187 
L 299.649251 231.082187 
L 299.692544 236.562358 
L 299.735837 237.993511 
L 299.77913 236.254838 
L 299.865716 235.241597 
L 300.168767 285.540897 
L 300.21206 277.001292 
L 300.428526 239.247248 
L 300.515112 233.763134 
L 300.601698 220.993151 
L 300.644991 221.722527 
L 300.991335 274.269092 
L 301.034628 271.146577 
L 301.164507 258.24649 
L 301.251093 247.637035 
L 301.337679 228.716645 
L 301.380972 230.683987 
L 301.424266 232.466028 
L 301.467559 230.25819 
L 301.510852 229.359284 
L 301.684024 247.838106 
L 301.900489 269.672056 
L 302.073661 256.7286 
L 302.376713 218.48962 
L 302.420006 220.409651 
L 302.593178 256.827165 
L 302.679764 252.56919 
L 302.809643 261.715951 
L 303.19928 214.570706 
L 303.545625 257.631449 
L 303.718797 250.917253 
L 304.108434 206.527864 
L 304.498072 251.555949 
L 304.541365 247.838106 
L 304.671244 243.36329 
L 304.844416 205.865513 
L 304.931002 200.511504 
L 304.974295 203.764123 
L 305.277347 242.79556 
L 305.32064 244.983686 
L 305.75357 190.146489 
L 305.796863 192.91023 
L 305.883449 194.719869 
L 306.229794 231.709055 
L 306.619431 180.278237 
L 306.662724 180.392572 
L 306.706017 179.797244 
L 307.138947 222.085243 
L 307.225534 214.468199 
L 307.441999 164.945585 
L 307.918222 217.716876 
L 308.004808 210.186569 
L 308.264567 181.721218 
L 308.30786 183.24305 
L 308.437739 177.171493 
L 308.610911 206.165148 
L 308.784083 233.731593 
L 308.827376 232.690755 
L 308.870669 232.308326 
L 308.957255 235.53729 
L 309.173721 201.552342 
L 309.217014 201.071348 
L 309.3036 206.058699 
L 309.693237 255.632566 
L 309.779823 257.635391 
L 309.823116 253.84264 
L 310.039582 215.548463 
L 310.29934 238.316801 
L 310.515805 266.821578 
L 310.559098 264.870006 
L 310.645684 265.177527 
L 310.688977 261.183704 
L 310.905442 223.985562 
L 311.121908 240.134326 
L 311.511545 272.475223 
L 311.554838 270.846941 
L 311.771303 227.399827 
L 311.814596 226.903063 
L 311.857889 227.127789 
L 312.334113 271.367361 
L 312.377406 274.612095 
L 312.72375 225.219586 
L 312.767043 228.290847 
L 313.156681 282.788984 
L 313.199974 278.44033 
L 313.416439 237.078835 
L 313.459732 236.128675 
L 313.546318 225.538934 
L 313.632904 226.232826 
L 313.676197 227.533874 
L 313.979249 271.911435 
L 314.109128 263.884364 
L 314.2823 234.046999 
L 314.455472 223.780548 
L 314.542058 233.28214 
L 314.931696 273.31499 
L 314.974989 272.554074 
L 315.148161 235.627969 
L 315.191454 236.404655 
L 315.234747 235.379587 
L 315.321333 223.425717 
L 315.364626 230.195108 
L 315.494505 239.089545 
L 315.667677 262.646397 
L 315.797557 266.111916 
L 315.84085 264.597969 
L 316.143901 225.566532 
L 316.187194 222.932896 
L 316.230487 225.783373 
L 316.620124 267.002936 
L 316.663417 268.114741 
L 316.923176 233.522637 
L 317.009762 218.410769 
L 317.053055 220.811793 
L 317.312813 257.036121 
L 317.529278 269.522238 
L 317.83233 223.378406 
L 317.962209 225.736062 
L 318.351846 269.743022 
L 318.395139 266.608679 
L 318.568311 246.505518 
L 318.698191 229.954612 
L 318.784777 219.096776 
L 318.82807 221.974851 
L 319.217707 272.443682 
L 319.261 271.170232 
L 319.564051 222.191693 
L 319.607344 219.368813 
L 319.650638 220.949783 
L 319.910396 256.929671 
L 319.953689 255.99134 
L 320.083568 267.905785 
L 320.126861 264.901547 
L 320.343326 227.198756 
L 320.516498 216.195045 
L 320.559791 216.301494 
L 320.949429 267.014764 
L 320.992722 266.462804 
L 321.209187 217.835153 
L 321.25248 219.254478 
L 321.339066 216.309379 
L 321.771997 257.040063 
L 321.81529 263.269323 
L 321.858583 255.849407 
L 322.075048 224.813501 
L 322.161634 217.760245 
L 322.204927 218.21364 
L 322.551272 263.186529 
L 322.637858 276.733197 
L 322.681151 284.298988 
L 322.897616 237.445494 
L 323.027495 227.017398 
L 323.070788 228.495861 
L 323.24396 236.298206 
L 323.417132 262.792272 
L 323.547012 273.476635 
L 323.763477 239.069832 
L 323.936649 232.296498 
L 323.979942 228.637794 
L 324.023235 229.264662 
L 324.066528 231.212291 
L 324.369579 276.331055 
L 324.412873 276.867245 
L 324.672631 227.261837 
L 324.715924 225.59413 
L 324.759217 218.079593 
L 324.80251 219.806438 
L 325.062268 240.465502 
L 325.105561 237.630794 
L 325.79825 57.995505 
L 325.841543 58.342452 
L 326.058008 156.532142 
L 326.274473 229.434193 
L 326.447646 214.330209 
L 326.490939 215.92695 
L 326.577525 223.47697 
L 326.880576 274.497761 
L 327.010455 289.996001 
L 327.097041 283.27392 
L 327.400093 232.142738 
L 327.443386 232.899711 
L 327.833023 274.170527 
L 328.049488 244.36076 
L 328.309247 226.323505 
L 328.395833 230.818034 
L 328.655591 273.02324 
L 328.698884 272.451567 
L 328.872056 248.240248 
L 329.088521 225.980502 
L 329.218401 227.285492 
L 329.261694 229.966439 
L 329.434866 251.934436 
L 329.478159 254.42614 
L 329.564745 265.666405 
L 329.867796 229.919129 
L 329.954382 222.392764 
L 330.084261 223.354751 
L 330.170848 228.452493 
L 330.387313 263.119505 
L 330.430606 262.918434 
L 330.77695 215.52875 
L 330.820243 216.624785 
L 331.209881 253.105379 
L 331.253174 262.413785 
L 331.296467 261.65287 
L 331.599518 221.332212 
L 331.77269 213.770364 
L 331.859276 219.944428 
L 332.119035 256.98881 
L 332.508672 203.748353 
L 332.551965 202.813964 
L 332.725137 212.993678 
L 332.984895 252.896423 
L 333.028188 245.63421 
L 333.114775 239.779495 
L 333.417826 190.970486 
L 333.850756 241.474799 
L 333.894049 232.809032 
L 334.32698 173.954356 
L 334.370273 174.05292 
L 334.630031 215.946663 
L 334.716617 227.861107 
L 334.75991 222.676629 
L 334.846496 214.030574 
L 335.106255 176.402692 
L 335.236134 171.379858 
L 335.366013 186.550865 
L 335.582478 220.011452 
L 335.972116 169.010374 
L 336.275167 196.509796 
L 336.448339 223.733237 
L 336.534925 219.36487 
L 336.88127 188.486667 
L 337.270907 240.989863 
L 337.400786 236.317919 
L 337.617251 220.015394 
L 337.660544 221.249418 
L 337.790423 210.064349 
L 338.093475 258.833932 
L 338.223354 255.766613 
L 338.569698 220.973439 
L 338.612991 221.848689 
L 338.916043 250.597905 
L 339.002629 267.20795 
L 339.045922 263.040654 
L 339.132508 265.544186 
L 339.565438 223.788433 
L 339.86849 277.434975 
L 339.955076 263.375772 
L 340.041662 265.335229 
L 340.344713 221.844746 
L 340.388006 225.968674 
L 340.691057 266.577139 
L 340.734351 265.402253 
L 340.777644 261.849998 
L 340.820937 266.920142 
L 340.86423 272.837939 
L 340.907523 267.073902 
L 341.210574 223.469085 
L 341.513625 269.514353 
L 341.643504 263.872536 
L 341.686798 265.280033 
L 341.730091 264.471807 
L 341.773384 263.198357 
L 341.85997 243.394831 
L 342.033142 224.095954 
L 342.076435 222.664801 
L 342.119728 224.194518 
L 342.249607 237.126145 
L 342.379486 263.561073 
L 342.422779 263.091907 
L 342.466072 259.314926 
L 342.509365 263.12739 
L 342.552658 265.552071 
L 342.899003 223.441487 
L 343.028882 226.508806 
L 343.072175 227.29732 
L 343.28864 265.737371 
L 343.418519 262.449269 
L 343.461812 261.499109 
L 343.634985 240.568008 
L 343.808157 226.595543 
L 343.85145 225.905593 
L 343.894743 225.980502 
L 343.938036 228.775783 
L 344.111208 267.629805 
L 344.154501 262.338877 
L 344.241087 257.753668 
L 344.28438 260.864356 
L 344.327673 259.547537 
L 344.457552 244.210943 
L 344.674018 218.635495 
L 345.150241 267.795393 
L 345.28012 252.234071 
L 345.539879 223.141852 
L 345.626465 231.30297 
L 345.669758 228.980797 
L 345.713051 229.840277 
L 345.799637 249.631975 
L 345.929516 267.369595 
L 345.972809 267.862416 
L 346.362446 223.240416 
L 346.405739 224.450785 
L 346.881963 267.905785 
L 346.925256 263.182586 
L 347.228307 217.247711 
L 347.2716 222.885585 
L 347.661238 254.54836 
L 347.747824 252.033 
L 347.791117 251.891068 
L 348.137461 215.039872 
L 348.180754 218.773485 
L 348.39722 243.591959 
L 348.440513 254.177758 
L 348.527099 251.421902 
L 348.570392 254.698177 
L 348.613685 253.132977 
L 348.743564 241.549708 
L 348.916736 221.415006 
L 348.960029 218.64338 
L 349.003322 218.978499 
L 349.219787 237.031524 
L 349.39296 260.450386 
L 349.479546 265.216952 
L 349.522839 261.775089 
L 349.869183 224.856869 
L 349.912476 229.091189 
L 350.302113 270.854826 
L 350.345407 269.849471 
L 350.691751 229.781139 
L 350.735044 230.376467 
L 350.82163 236.984213 
L 350.908216 229.70623 
L 351.167974 273.062665 
L 351.211267 271.083496 
L 351.427733 235.005043 
L 351.557612 229.962497 
L 351.600905 228.716645 
L 351.774077 245.161102 
L 351.947249 260.312396 
L 352.077128 266.05672 
L 352.120421 263.37183 
L 352.207007 251.662399 
L 352.596645 152.968059 
L 352.726524 148.769223 
L 352.899696 119.550841 
L 353.116161 71.080893 
L 353.159454 75.823804 
L 353.37592 147.696844 
L 353.592385 236.39677 
L 353.635678 234.157391 
L 353.722264 238.51393 
L 353.895436 256.042593 
L 354.155195 227.478678 
L 354.198488 228.137087 
L 354.631418 282.580028 
L 355.021055 223.883055 
L 355.107642 230.904771 
L 355.453986 266.723014 
L 355.713744 246.162514 
L 355.930209 219.151972 
L 355.973502 222.266601 
L 356.189968 257.465861 
L 356.36314 266.013351 
L 356.406433 264.637395 
L 356.709484 226.280137 
L 356.752777 225.948961 
L 356.839363 221.403179 
L 356.925949 233.554178 
L 357.099122 254.075251 
L 357.272294 267.330169 
L 357.35888 253.215771 
L 357.618638 215.895409 
L 357.661931 214.645615 
L 357.79181 231.941667 
L 357.964982 252.084254 
L 358.051569 259.082314 
L 358.397913 224.107781 
L 358.571085 215.631257 
L 358.614378 217.188572 
L 358.960723 257.040063 
L 359.004016 254.572015 
L 359.436946 202.557697 
L 359.480239 210.091947 
L 359.739997 244.869352 
L 359.78329 249.127327 
L 359.826583 247.250664 
L 359.956463 240.702056 
L 360.172928 206.366219 
L 360.259514 202.74694 
L 360.302807 203.034748 
L 360.649151 240.039704 
L 360.692444 240.516755 
L 360.865617 216.348805 
L 360.995496 194.171852 
L 361.038789 195.122011 
L 361.082082 193.895872 
L 361.125375 194.696214 
L 361.255254 204.414647 
L 361.471719 225.692694 
L 361.558305 228.204111 
L 361.601598 226.14609 
L 361.991236 170.193145 
L 362.33758 213.175036 
L 362.467459 211.412708 
L 362.510752 210.565055 
L 362.813804 175.488016 
L 363.246734 215.812615 
L 363.290027 212.938482 
L 363.636371 173.958299 
L 363.679664 175.436762 
L 363.809544 189.235755 
L 364.069302 229.110902 
L 364.199181 235.127263 
L 364.285767 226.319563 
L 364.415646 203.393522 
L 364.458939 205.380577 
L 364.545525 201.986024 
L 364.588818 203.973079 
L 364.632111 206.926064 
L 364.89187 247.049593 
L 364.935163 250.936966 
L 364.978456 247.573954 
L 365.108335 243.978331 
L 365.411386 218.178157 
L 365.454679 221.411064 
L 365.88761 271.741905 
L 365.930903 269.486755 
L 366.233954 223.76872 
L 366.363833 231.232004 
L 366.710178 272.684179 
L 366.753471 275.9092 
L 367.099815 222.751537 
L 367.143108 224.90418 
L 367.272987 235.955202 
L 367.489452 264.227367 
L 367.619332 271.327935 
L 368.052262 226.382644 
L 368.138848 238.068419 
L 368.182141 236.936902 
L 368.441899 268.173879 
L 368.571779 260.584433 
L 368.658365 250.215476 
L 368.87483 227.861107 
L 368.918123 225.850397 
L 369.30776 265.887189 
L 369.351053 264.52306 
L 369.394346 264.846351 
L 369.437639 265.792567 
L 369.697398 224.095954 
L 369.827277 230.640619 
L 370.130328 265.351 
L 370.173621 266.845233 
L 370.346793 253.357704 
L 370.563259 227.123847 
L 370.649845 232.099369 
L 370.693138 237.421838 
L 370.736431 235.663452 
L 370.779724 229.177926 
L 370.823017 237.094605 
L 371.039482 271.256969 
L 371.082775 274.86442 
L 371.126068 271.998172 
L 371.385826 219.924715 
L 371.42912 221.217878 
L 371.472413 220.602837 
L 371.515706 222.045818 
L 371.688878 239.92537 
L 371.948636 265.276091 
L 372.121808 246.403011 
L 372.29498 225.077653 
L 372.338273 223.969791 
L 372.771204 268.524768 
L 372.944376 254.682407 
L 373.160841 222.58595 
L 373.204134 226.512749 
L 373.723651 263.671465 
L 374.069995 214.476084 
L 374.546219 259.606676 
L 374.676098 249.651688 
L 374.84927 208.747531 
L 374.935856 213.048874 
L 375.152321 230.076831 
L 375.368787 257.994165 
L 375.41208 258.719598 
L 375.541959 241.029289 
L 375.758424 209.007741 
L 375.801717 216.100423 
L 376.018182 243.603787 
L 376.104768 250.700412 
L 376.191354 264.992226 
L 376.234648 264.653165 
L 376.451113 249.631975 
L 376.667578 228.208053 
L 377.057215 272.60927 
L 377.100508 270.247671 
L 377.316974 250.361351 
L 377.446853 225.877995 
L 377.490146 228.373641 
L 378.009662 270.488168 
L 378.052955 265.023766 
L 378.356007 225.061883 
L 378.3993 229.434193 
L 378.442593 231.894356 
L 378.485886 226.808441 
L 378.529179 227.533874 
L 378.745644 270.945506 
L 378.788937 261.384775 
L 379.481626 86.303154 
L 379.524919 87.119265 
L 379.611505 81.5563 
L 379.654798 85.073072 
L 380.044436 191.550043 
L 380.347487 229.241007 
L 380.520659 261.940677 
L 380.607245 266.037007 
L 380.650538 263.001228 
L 380.737124 259.713125 
L 380.953589 237.082777 
L 380.996882 245.216298 
L 381.040176 244.183345 
L 381.083469 237.236537 
L 381.126762 238.892416 
L 381.429813 270.208245 
L 381.602985 257.55654 
L 381.81945 227.46685 
L 381.862743 229.970382 
L 381.906036 225.558647 
L 381.949329 231.346339 
L 382.252381 271.793158 
L 382.295674 270.803573 
L 382.771897 218.292491 
L 383.161535 271.142634 
L 383.204828 264.554601 
L 383.464586 224.127494 
L 383.507879 220.701401 
L 383.551172 225.889823 
L 383.594465 228.381527 
L 383.637758 223.327153 
L 383.681051 226.650739 
L 384.070689 263.482222 
L 384.37374 221.564824 
L 384.417033 226.690164 
L 384.460326 228.60231 
L 384.546912 216.025514 
L 384.590205 220.764482 
L 384.849964 259.480514 
L 384.893257 260.951092 
L 385.239601 214.92948 
L 385.282894 218.35163 
L 385.326187 216.534106 
L 385.36948 209.165443 
L 385.412773 211.50733 
L 385.715824 257.666932 
L 385.759117 257.079489 
L 386.062169 210.427066 
L 386.148755 217.531576 
L 386.192048 216.624785 
L 386.278634 207.064054 
L 386.581685 250.550594 
L 386.624978 248.516228 
L 386.841444 217.594657 
L 387.057909 201.035865 
L 387.101202 202.246234 
L 387.490839 238.636149 
L 387.92377 181.910461 
L 387.967063 184.126185 
L 388.270114 213.667858 
L 388.3567 218.134789 
L 388.399993 215.394703 
L 388.529872 207.000973 
L 388.659751 175.125299 
L 388.703045 181.149545 
L 388.746338 178.571105 
L 388.789631 168.596404 
L 388.832924 171.943646 
L 389.135975 204.737938 
L 389.222561 209.244295 
L 389.482319 177.691912 
L 389.655492 167.642303 
L 389.698785 165.840548 
L 390.045129 217.531576 
L 390.218301 214.53128 
L 390.34818 182.777826 
L 390.434766 189.866566 
L 390.478059 188.478782 
L 390.521352 182.588583 
L 390.564645 186.077757 
L 390.91099 242.771905 
L 391.387213 203.602478 
L 391.430506 206.492381 
L 391.690265 246.970741 
L 391.863437 256.030766 
L 392.036609 234.650212 
L 392.209781 221.840804 
L 392.253074 223.950079 
L 392.469539 247.648863 
L 392.512832 247.3374 
L 392.686005 268.449859 
L 392.729298 261.294096 
L 392.945763 233.562063 
L 393.032349 234.543762 
L 393.162228 222.645088 
L 393.205521 225.239299 
L 393.551866 266.667818 
L 393.984796 217.602542 
L 394.028089 222.227176 
L 394.374433 267.799335 
L 394.417726 266.541656 
L 394.677485 235.482094 
L 394.764071 236.771314 
L 394.850657 209.658265 
L 394.89395 220.326857 
L 395.110415 258.703828 
L 395.283587 272.889192 
L 395.32688 265.926615 
L 395.759811 221.300672 
L 395.846397 231.275372 
L 396.149448 271.828641 
L 396.539086 220.015394 
L 396.582379 220.910358 
L 396.88543 258.699885 
L 396.928723 258.061189 
L 396.972016 256.594553 
L 397.058602 261.305923 
L 397.101895 258.467273 
L 397.404947 220.579182 
L 397.491533 224.624258 
L 397.88117 267.176409 
L 398.227514 224.58089 
L 398.270808 225.053998 
L 398.314101 221.726469 
L 398.357394 223.61496 
L 398.487273 243.828513 
L 398.487273 243.828513 
" style="fill:none;stroke:#1f77b4;stroke-linecap:square;stroke-width:1.5;"/>
   </g>
   <g id="patch_3">
    <path d="M 57.6 307.584 
L 57.6 41.472 
" style="fill:none;stroke:#000000;stroke-linecap:square;stroke-linejoin:miter;stroke-width:0.8;"/>
   </g>
   <g id="patch_4">
    <path d="M 414.72 307.584 
L 414.72 41.472 
" style="fill:none;stroke:#000000;stroke-linecap:square;stroke-linejoin:miter;stroke-width:0.8;"/>
   </g>
   <g id="patch_5">
    <path d="M 57.6 307.584 
L 414.72 307.584 
" style="fill:none;stroke:#000000;stroke-linecap:square;stroke-linejoin:miter;stroke-width:0.8;"/>
   </g>
   <g id="patch_6">
    <path d="M 57.6 41.472 
L 414.72 41.472 
" style="fill:none;stroke:#000000;stroke-linecap:square;stroke-linejoin:miter;stroke-width:0.8;"/>
   </g>
  </g>
 </g>
 <defs>
  <clipPath id="pf9e142984c">
   <rect height="266.112" width="357.12" x="57.6" y="41.472"/>
  </clipPath>
 </defs>
</svg>
