<?xml version="1.0" encoding="utf-8" standalone="no"?>
<!DOCTYPE svg PUBLIC "-//W3C//DTD SVG 1.1//EN"
  "http://www.w3.org/Graphics/SVG/1.1/DTD/svg11.dtd">
<!-- Created with matplotlib (http://matplotlib.org/) -->
<svg height="345.6pt" version="1.1" viewBox="0 0 460.8 345.6" width="460.8pt" xmlns="http://www.w3.org/2000/svg" xmlns:xlink="http://www.w3.org/1999/xlink">
 <defs>
  <style type="text/css">
*{stroke-linecap:butt;stroke-linejoin:round;}
  </style>
 </defs>
 <g id="figure_1">
  <g id="patch_1">
   <path d="M 0 345.6 
L 460.8 345.6 
L 460.8 0 
L 0 0 
z
" style="fill:#ffffff;"/>
  </g>
  <g id="axes_1">
   <g id="patch_2">
    <path d="M 57.6 307.584 
L 414.72 307.584 
L 414.72 41.472 
L 57.6 41.472 
z
" style="fill:#ffffff;"/>
   </g>
   <g id="matplotlib.axis_1">
    <g id="xtick_1">
     <g id="line2d_1">
      <defs>
       <path d="M 0 0 
L 0 3.5 
" id="m9bddac2aa2" style="stroke:#000000;stroke-width:0.8;"/>
      </defs>
      <g>
       <use style="stroke:#000000;stroke-width:0.8;" x="73.832727" xlink:href="#m9bddac2aa2" y="307.584"/>
      </g>
     </g>
     <g id="text_1">
      <!-- 0 -->
      <defs>
       <path d="M 31.78125 66.40625 
Q 24.171875 66.40625 20.328125 58.90625 
Q 16.5 51.421875 16.5 36.375 
Q 16.5 21.390625 20.328125 13.890625 
Q 24.171875 6.390625 31.78125 6.390625 
Q 39.453125 6.390625 43.28125 13.890625 
Q 47.125 21.390625 47.125 36.375 
Q 47.125 51.421875 43.28125 58.90625 
Q 39.453125 66.40625 31.78125 66.40625 
z
M 31.78125 74.21875 
Q 44.046875 74.21875 50.515625 64.515625 
Q 56.984375 54.828125 56.984375 36.375 
Q 56.984375 17.96875 50.515625 8.265625 
Q 44.046875 -1.421875 31.78125 -1.421875 
Q 19.53125 -1.421875 13.0625 8.265625 
Q 6.59375 17.96875 6.59375 36.375 
Q 6.59375 54.828125 13.0625 64.515625 
Q 19.53125 74.21875 31.78125 74.21875 
z
" id="DejaVuSans-30"/>
      </defs>
      <g transform="translate(70.651477 322.182437)scale(0.1 -0.1)">
       <use xlink:href="#DejaVuSans-30"/>
      </g>
     </g>
    </g>
    <g id="xtick_2">
     <g id="line2d_2">
      <g>
       <use style="stroke:#000000;stroke-width:0.8;" x="117.125772" xlink:href="#m9bddac2aa2" y="307.584"/>
      </g>
     </g>
     <g id="text_2">
      <!-- 2 -->
      <defs>
       <path d="M 19.1875 8.296875 
L 53.609375 8.296875 
L 53.609375 0 
L 7.328125 0 
L 7.328125 8.296875 
Q 12.9375 14.109375 22.625 23.890625 
Q 32.328125 33.6875 34.8125 36.53125 
Q 39.546875 41.84375 41.421875 45.53125 
Q 43.3125 49.21875 43.3125 52.78125 
Q 43.3125 58.59375 39.234375 62.25 
Q 35.15625 65.921875 28.609375 65.921875 
Q 23.96875 65.921875 18.8125 64.3125 
Q 13.671875 62.703125 7.8125 59.421875 
L 7.8125 69.390625 
Q 13.765625 71.78125 18.9375 73 
Q 24.125 74.21875 28.421875 74.21875 
Q 39.75 74.21875 46.484375 68.546875 
Q 53.21875 62.890625 53.21875 53.421875 
Q 53.21875 48.921875 51.53125 44.890625 
Q 49.859375 40.875 45.40625 35.40625 
Q 44.1875 33.984375 37.640625 27.21875 
Q 31.109375 20.453125 19.1875 8.296875 
z
" id="DejaVuSans-32"/>
      </defs>
      <g transform="translate(113.944522 322.182437)scale(0.1 -0.1)">
       <use xlink:href="#DejaVuSans-32"/>
      </g>
     </g>
    </g>
    <g id="xtick_3">
     <g id="line2d_3">
      <g>
       <use style="stroke:#000000;stroke-width:0.8;" x="160.418818" xlink:href="#m9bddac2aa2" y="307.584"/>
      </g>
     </g>
     <g id="text_3">
      <!-- 4 -->
      <defs>
       <path d="M 37.796875 64.3125 
L 12.890625 25.390625 
L 37.796875 25.390625 
z
M 35.203125 72.90625 
L 47.609375 72.90625 
L 47.609375 25.390625 
L 58.015625 25.390625 
L 58.015625 17.1875 
L 47.609375 17.1875 
L 47.609375 0 
L 37.796875 0 
L 37.796875 17.1875 
L 4.890625 17.1875 
L 4.890625 26.703125 
z
" id="DejaVuSans-34"/>
      </defs>
      <g transform="translate(157.237568 322.182437)scale(0.1 -0.1)">
       <use xlink:href="#DejaVuSans-34"/>
      </g>
     </g>
    </g>
    <g id="xtick_4">
     <g id="line2d_4">
      <g>
       <use style="stroke:#000000;stroke-width:0.8;" x="203.711863" xlink:href="#m9bddac2aa2" y="307.584"/>
      </g>
     </g>
     <g id="text_4">
      <!-- 6 -->
      <defs>
       <path d="M 33.015625 40.375 
Q 26.375 40.375 22.484375 35.828125 
Q 18.609375 31.296875 18.609375 23.390625 
Q 18.609375 15.53125 22.484375 10.953125 
Q 26.375 6.390625 33.015625 6.390625 
Q 39.65625 6.390625 43.53125 10.953125 
Q 47.40625 15.53125 47.40625 23.390625 
Q 47.40625 31.296875 43.53125 35.828125 
Q 39.65625 40.375 33.015625 40.375 
z
M 52.59375 71.296875 
L 52.59375 62.3125 
Q 48.875 64.0625 45.09375 64.984375 
Q 41.3125 65.921875 37.59375 65.921875 
Q 27.828125 65.921875 22.671875 59.328125 
Q 17.53125 52.734375 16.796875 39.40625 
Q 19.671875 43.65625 24.015625 45.921875 
Q 28.375 48.1875 33.59375 48.1875 
Q 44.578125 48.1875 50.953125 41.515625 
Q 57.328125 34.859375 57.328125 23.390625 
Q 57.328125 12.15625 50.6875 5.359375 
Q 44.046875 -1.421875 33.015625 -1.421875 
Q 20.359375 -1.421875 13.671875 8.265625 
Q 6.984375 17.96875 6.984375 36.375 
Q 6.984375 53.65625 15.1875 63.9375 
Q 23.390625 74.21875 37.203125 74.21875 
Q 40.921875 74.21875 44.703125 73.484375 
Q 48.484375 72.75 52.59375 71.296875 
z
" id="DejaVuSans-36"/>
      </defs>
      <g transform="translate(200.530613 322.182437)scale(0.1 -0.1)">
       <use xlink:href="#DejaVuSans-36"/>
      </g>
     </g>
    </g>
    <g id="xtick_5">
     <g id="line2d_5">
      <g>
       <use style="stroke:#000000;stroke-width:0.8;" x="247.004908" xlink:href="#m9bddac2aa2" y="307.584"/>
      </g>
     </g>
     <g id="text_5">
      <!-- 8 -->
      <defs>
       <path d="M 31.78125 34.625 
Q 24.75 34.625 20.71875 30.859375 
Q 16.703125 27.09375 16.703125 20.515625 
Q 16.703125 13.921875 20.71875 10.15625 
Q 24.75 6.390625 31.78125 6.390625 
Q 38.8125 6.390625 42.859375 10.171875 
Q 46.921875 13.96875 46.921875 20.515625 
Q 46.921875 27.09375 42.890625 30.859375 
Q 38.875 34.625 31.78125 34.625 
z
M 21.921875 38.8125 
Q 15.578125 40.375 12.03125 44.71875 
Q 8.5 49.078125 8.5 55.328125 
Q 8.5 64.0625 14.71875 69.140625 
Q 20.953125 74.21875 31.78125 74.21875 
Q 42.671875 74.21875 48.875 69.140625 
Q 55.078125 64.0625 55.078125 55.328125 
Q 55.078125 49.078125 51.53125 44.71875 
Q 48 40.375 41.703125 38.8125 
Q 48.828125 37.15625 52.796875 32.3125 
Q 56.78125 27.484375 56.78125 20.515625 
Q 56.78125 9.90625 50.3125 4.234375 
Q 43.84375 -1.421875 31.78125 -1.421875 
Q 19.734375 -1.421875 13.25 4.234375 
Q 6.78125 9.90625 6.78125 20.515625 
Q 6.78125 27.484375 10.78125 32.3125 
Q 14.796875 37.15625 21.921875 38.8125 
z
M 18.3125 54.390625 
Q 18.3125 48.734375 21.84375 45.5625 
Q 25.390625 42.390625 31.78125 42.390625 
Q 38.140625 42.390625 41.71875 45.5625 
Q 45.3125 48.734375 45.3125 54.390625 
Q 45.3125 60.0625 41.71875 63.234375 
Q 38.140625 66.40625 31.78125 66.40625 
Q 25.390625 66.40625 21.84375 63.234375 
Q 18.3125 60.0625 18.3125 54.390625 
z
" id="DejaVuSans-38"/>
      </defs>
      <g transform="translate(243.823658 322.182437)scale(0.1 -0.1)">
       <use xlink:href="#DejaVuSans-38"/>
      </g>
     </g>
    </g>
    <g id="xtick_6">
     <g id="line2d_6">
      <g>
       <use style="stroke:#000000;stroke-width:0.8;" x="290.297953" xlink:href="#m9bddac2aa2" y="307.584"/>
      </g>
     </g>
     <g id="text_6">
      <!-- 10 -->
      <defs>
       <path d="M 12.40625 8.296875 
L 28.515625 8.296875 
L 28.515625 63.921875 
L 10.984375 60.40625 
L 10.984375 69.390625 
L 28.421875 72.90625 
L 38.28125 72.90625 
L 38.28125 8.296875 
L 54.390625 8.296875 
L 54.390625 0 
L 12.40625 0 
z
" id="DejaVuSans-31"/>
      </defs>
      <g transform="translate(283.935453 322.182437)scale(0.1 -0.1)">
       <use xlink:href="#DejaVuSans-31"/>
       <use x="63.623047" xlink:href="#DejaVuSans-30"/>
      </g>
     </g>
    </g>
    <g id="xtick_7">
     <g id="line2d_7">
      <g>
       <use style="stroke:#000000;stroke-width:0.8;" x="333.590998" xlink:href="#m9bddac2aa2" y="307.584"/>
      </g>
     </g>
     <g id="text_7">
      <!-- 12 -->
      <g transform="translate(327.228498 322.182437)scale(0.1 -0.1)">
       <use xlink:href="#DejaVuSans-31"/>
       <use x="63.623047" xlink:href="#DejaVuSans-32"/>
      </g>
     </g>
    </g>
    <g id="xtick_8">
     <g id="line2d_8">
      <g>
       <use style="stroke:#000000;stroke-width:0.8;" x="376.884043" xlink:href="#m9bddac2aa2" y="307.584"/>
      </g>
     </g>
     <g id="text_8">
      <!-- 14 -->
      <g transform="translate(370.521543 322.182437)scale(0.1 -0.1)">
       <use xlink:href="#DejaVuSans-31"/>
       <use x="63.623047" xlink:href="#DejaVuSans-34"/>
      </g>
     </g>
    </g>
   </g>
   <g id="matplotlib.axis_2">
    <g id="ytick_1">
     <g id="line2d_9">
      <defs>
       <path d="M 0 0 
L -3.5 0 
" id="m3225603011" style="stroke:#000000;stroke-width:0.8;"/>
      </defs>
      <g>
       <use style="stroke:#000000;stroke-width:0.8;" x="57.6" xlink:href="#m3225603011" y="279.175652"/>
      </g>
     </g>
     <g id="text_9">
      <!-- −10000 -->
      <defs>
       <path d="M 10.59375 35.5 
L 73.1875 35.5 
L 73.1875 27.203125 
L 10.59375 27.203125 
z
" id="DejaVuSans-2212"/>
      </defs>
      <g transform="translate(10.407812 282.97487)scale(0.1 -0.1)">
       <use xlink:href="#DejaVuSans-2212"/>
       <use x="83.789062" xlink:href="#DejaVuSans-31"/>
       <use x="147.412109" xlink:href="#DejaVuSans-30"/>
       <use x="211.035156" xlink:href="#DejaVuSans-30"/>
       <use x="274.658203" xlink:href="#DejaVuSans-30"/>
       <use x="338.28125" xlink:href="#DejaVuSans-30"/>
      </g>
     </g>
    </g>
    <g id="ytick_2">
     <g id="line2d_10">
      <g>
       <use style="stroke:#000000;stroke-width:0.8;" x="57.6" xlink:href="#m3225603011" y="240.45916"/>
      </g>
     </g>
     <g id="text_10">
      <!-- 0 -->
      <g transform="translate(44.2375 244.258378)scale(0.1 -0.1)">
       <use xlink:href="#DejaVuSans-30"/>
      </g>
     </g>
    </g>
    <g id="ytick_3">
     <g id="line2d_11">
      <g>
       <use style="stroke:#000000;stroke-width:0.8;" x="57.6" xlink:href="#m3225603011" y="201.742668"/>
      </g>
     </g>
     <g id="text_11">
      <!-- 10000 -->
      <g transform="translate(18.7875 205.541887)scale(0.1 -0.1)">
       <use xlink:href="#DejaVuSans-31"/>
       <use x="63.623047" xlink:href="#DejaVuSans-30"/>
       <use x="127.246094" xlink:href="#DejaVuSans-30"/>
       <use x="190.869141" xlink:href="#DejaVuSans-30"/>
       <use x="254.492188" xlink:href="#DejaVuSans-30"/>
      </g>
     </g>
    </g>
    <g id="ytick_4">
     <g id="line2d_12">
      <g>
       <use style="stroke:#000000;stroke-width:0.8;" x="57.6" xlink:href="#m3225603011" y="163.026176"/>
      </g>
     </g>
     <g id="text_12">
      <!-- 20000 -->
      <g transform="translate(18.7875 166.825395)scale(0.1 -0.1)">
       <use xlink:href="#DejaVuSans-32"/>
       <use x="63.623047" xlink:href="#DejaVuSans-30"/>
       <use x="127.246094" xlink:href="#DejaVuSans-30"/>
       <use x="190.869141" xlink:href="#DejaVuSans-30"/>
       <use x="254.492188" xlink:href="#DejaVuSans-30"/>
      </g>
     </g>
    </g>
    <g id="ytick_5">
     <g id="line2d_13">
      <g>
       <use style="stroke:#000000;stroke-width:0.8;" x="57.6" xlink:href="#m3225603011" y="124.309684"/>
      </g>
     </g>
     <g id="text_13">
      <!-- 30000 -->
      <defs>
       <path d="M 40.578125 39.3125 
Q 47.65625 37.796875 51.625 33 
Q 55.609375 28.21875 55.609375 21.1875 
Q 55.609375 10.40625 48.1875 4.484375 
Q 40.765625 -1.421875 27.09375 -1.421875 
Q 22.515625 -1.421875 17.65625 -0.515625 
Q 12.796875 0.390625 7.625 2.203125 
L 7.625 11.71875 
Q 11.71875 9.328125 16.59375 8.109375 
Q 21.484375 6.890625 26.8125 6.890625 
Q 36.078125 6.890625 40.9375 10.546875 
Q 45.796875 14.203125 45.796875 21.1875 
Q 45.796875 27.640625 41.28125 31.265625 
Q 36.765625 34.90625 28.71875 34.90625 
L 20.21875 34.90625 
L 20.21875 43.015625 
L 29.109375 43.015625 
Q 36.375 43.015625 40.234375 45.921875 
Q 44.09375 48.828125 44.09375 54.296875 
Q 44.09375 59.90625 40.109375 62.90625 
Q 36.140625 65.921875 28.71875 65.921875 
Q 24.65625 65.921875 20.015625 65.03125 
Q 15.375 64.15625 9.8125 62.3125 
L 9.8125 71.09375 
Q 15.4375 72.65625 20.34375 73.4375 
Q 25.25 74.21875 29.59375 74.21875 
Q 40.828125 74.21875 47.359375 69.109375 
Q 53.90625 64.015625 53.90625 55.328125 
Q 53.90625 49.265625 50.4375 45.09375 
Q 46.96875 40.921875 40.578125 39.3125 
z
" id="DejaVuSans-33"/>
      </defs>
      <g transform="translate(18.7875 128.108903)scale(0.1 -0.1)">
       <use xlink:href="#DejaVuSans-33"/>
       <use x="63.623047" xlink:href="#DejaVuSans-30"/>
       <use x="127.246094" xlink:href="#DejaVuSans-30"/>
       <use x="190.869141" xlink:href="#DejaVuSans-30"/>
       <use x="254.492188" xlink:href="#DejaVuSans-30"/>
      </g>
     </g>
    </g>
    <g id="ytick_6">
     <g id="line2d_14">
      <g>
       <use style="stroke:#000000;stroke-width:0.8;" x="57.6" xlink:href="#m3225603011" y="85.593192"/>
      </g>
     </g>
     <g id="text_14">
      <!-- 40000 -->
      <g transform="translate(18.7875 89.392411)scale(0.1 -0.1)">
       <use xlink:href="#DejaVuSans-34"/>
       <use x="63.623047" xlink:href="#DejaVuSans-30"/>
       <use x="127.246094" xlink:href="#DejaVuSans-30"/>
       <use x="190.869141" xlink:href="#DejaVuSans-30"/>
       <use x="254.492188" xlink:href="#DejaVuSans-30"/>
      </g>
     </g>
    </g>
    <g id="ytick_7">
     <g id="line2d_15">
      <g>
       <use style="stroke:#000000;stroke-width:0.8;" x="57.6" xlink:href="#m3225603011" y="46.8767"/>
      </g>
     </g>
     <g id="text_15">
      <!-- 50000 -->
      <defs>
       <path d="M 10.796875 72.90625 
L 49.515625 72.90625 
L 49.515625 64.59375 
L 19.828125 64.59375 
L 19.828125 46.734375 
Q 21.96875 47.46875 24.109375 47.828125 
Q 26.265625 48.1875 28.421875 48.1875 
Q 40.625 48.1875 47.75 41.5 
Q 54.890625 34.8125 54.890625 23.390625 
Q 54.890625 11.625 47.5625 5.09375 
Q 40.234375 -1.421875 26.90625 -1.421875 
Q 22.3125 -1.421875 17.546875 -0.640625 
Q 12.796875 0.140625 7.71875 1.703125 
L 7.71875 11.625 
Q 12.109375 9.234375 16.796875 8.0625 
Q 21.484375 6.890625 26.703125 6.890625 
Q 35.15625 6.890625 40.078125 11.328125 
Q 45.015625 15.765625 45.015625 23.390625 
Q 45.015625 31 40.078125 35.4375 
Q 35.15625 39.890625 26.703125 39.890625 
Q 22.75 39.890625 18.8125 39.015625 
Q 14.890625 38.140625 10.796875 36.28125 
z
" id="DejaVuSans-35"/>
      </defs>
      <g transform="translate(18.7875 50.675919)scale(0.1 -0.1)">
       <use xlink:href="#DejaVuSans-35"/>
       <use x="63.623047" xlink:href="#DejaVuSans-30"/>
       <use x="127.246094" xlink:href="#DejaVuSans-30"/>
       <use x="190.869141" xlink:href="#DejaVuSans-30"/>
       <use x="254.492188" xlink:href="#DejaVuSans-30"/>
      </g>
     </g>
    </g>
   </g>
   <g id="line2d_16">
    <path clip-path="url(#pe28f63c4b7)" d="M 73.832727 235.430978 
L 74.179072 276.296235 
L 74.222365 275.599338 
L 74.482123 237.920448 
L 74.655295 231.749039 
L 75.088226 269.400828 
L 75.131519 270.875926 
L 75.477863 227.57153 
L 75.521156 230.862432 
L 75.780914 262.242148 
L 75.954086 271.94063 
L 76.127259 253.108928 
L 76.257138 232.693722 
L 76.300431 232.728567 
L 76.560189 248.1145 
L 76.733361 272.513634 
L 76.99312 251.47122 
L 77.166292 227.354717 
L 77.209585 227.997411 
L 77.339464 241.242323 
L 77.555929 273.814508 
L 77.642515 271.882555 
L 77.729101 269.048508 
L 78.032153 235.113502 
L 78.118739 230.560443 
L 78.508376 271.1663 
L 78.551669 269.59441 
L 78.898014 234.153333 
L 79.201065 260.178559 
L 79.287651 274.108753 
L 79.330944 272.172929 
L 79.460823 263.686274 
L 79.504116 267.170758 
L 79.547409 265.544665 
L 79.720581 235.698121 
L 79.807168 231.179907 
L 79.850461 233.851345 
L 80.110219 266.597754 
L 80.196805 273.191172 
L 80.240098 271.681229 
L 80.369977 269.273063 
L 80.629735 231.125704 
L 81.062666 271.479903 
L 81.105959 271.356011 
L 81.279131 258.91253 
L 81.452303 225.662807 
L 81.495596 224.811044 
L 81.538889 225.442123 
L 81.582182 225.751855 
L 81.668768 230.715309 
L 81.755355 242.605144 
L 81.97182 267.03525 
L 82.058406 260.255992 
L 82.188285 240.17762 
L 82.318164 220.45931 
L 82.40475 220.830989 
L 82.448043 221.059416 
L 82.880974 258.908658 
L 83.010853 249.690262 
L 83.184025 226.804943 
L 83.357197 241.126174 
L 83.660249 269.606025 
L 83.703542 266.562909 
L 83.746835 267.770863 
L 83.833421 270.612654 
L 84.049886 234.161077 
L 84.093179 229.894519 
L 84.136472 234.98961 
L 84.309644 247.208535 
L 84.569402 277.721002 
L 84.742575 253.999407 
L 84.915747 236.65829 
L 85.002333 235.636175 
L 85.088919 244.324156 
L 85.521849 283.551706 
L 85.824901 227.83093 
L 85.868194 228.078716 
L 86.127952 253.310254 
L 86.171245 248.497794 
L 86.301124 233.011197 
L 86.517589 165.745164 
L 86.907227 79.163473 
L 86.95052 77.51415 
L 87.080399 112.873922 
L 87.340157 194.515389 
L 87.599916 216.014657 
L 87.729795 235.024455 
L 88.032846 280.566664 
L 88.119432 288.104765 
L 88.37919 241.16489 
L 88.422483 239.701407 
L 88.465777 240.677062 
L 88.855414 271.065637 
L 89.028586 257.894286 
L 89.245051 232.372375 
L 89.288344 232.953122 
L 89.50481 253.782595 
L 89.677982 272.625911 
L 89.764568 269.853811 
L 89.807861 273.593824 
L 89.851154 270.659114 
L 90.067619 239.078071 
L 90.110912 239.496209 
L 90.197498 228.492982 
L 90.240791 228.682693 
L 90.587136 276.346566 
L 90.717015 261.804652 
L 90.976773 228.667207 
L 91.063359 231.590302 
L 91.106652 227.811572 
L 91.149945 232.082001 
L 91.452997 267.042993 
L 91.49629 266.299637 
L 91.539583 267.108811 
L 91.885927 224.617461 
L 91.92922 228.055486 
L 92.318858 270.360997 
L 92.362151 266.992662 
L 92.405444 266.485476 
L 92.578616 234.157205 
L 92.665202 219.603676 
L 92.708495 221.357533 
L 92.795081 217.784001 
L 92.838374 219.692724 
L 92.968253 237.587486 
L 93.228011 266.957817 
L 93.401184 249.345685 
L 93.617649 219.14295 
L 93.704235 211.407394 
L 93.747528 214.930595 
L 94.093872 257.452918 
L 94.137165 253.275409 
L 94.396924 208.244257 
L 94.440217 208.612064 
L 94.526803 206.412967 
L 94.959733 242.806469 
L 95.003026 240.862901 
L 95.262785 193.48553 
L 95.306078 193.497145 
L 95.349371 195.467815 
L 95.392664 192.715072 
L 95.435957 191.890411 
L 95.695715 223.254641 
L 95.739008 229.999054 
L 95.825594 228.210352 
L 95.91218 215.046745 
L 96.258525 176.686444 
L 96.431697 194.523132 
L 96.691455 222.731968 
L 96.90792 184.98726 
L 96.994506 176.105697 
L 97.037799 177.453031 
L 97.124386 175.633356 
L 97.514023 225.662807 
L 97.557316 225.132391 
L 97.773781 200.702284 
L 97.946953 191.836208 
L 98.379884 244.82747 
L 98.423177 245.872816 
L 98.726228 216.777372 
L 98.769521 215.797845 
L 98.812814 216.909008 
L 98.856107 217.737541 
L 99.072573 245.102357 
L 99.245745 266.055723 
L 99.289038 266.098311 
L 99.592089 230.777255 
L 99.635382 229.182136 
L 99.851847 245.876687 
L 100.111606 276.373668 
L 100.154899 274.379769 
L 100.414657 236.011725 
L 100.45795 235.20255 
L 100.501243 236.68152 
L 100.544536 235.237395 
L 100.587829 235.372903 
L 101.02076 279.153512 
L 101.064053 268.541322 
L 101.367104 231.28057 
L 101.410397 233.231881 
L 101.800034 281.375839 
L 101.843327 279.250303 
L 101.929914 264.623213 
L 101.973207 265.641456 
L 102.0165 266.671315 
L 102.276258 228.783356 
L 102.319551 231.51674 
L 102.709188 274.224903 
L 102.882361 259.764293 
L 102.968947 248.331313 
L 103.055533 237.14999 
L 103.098826 237.730737 
L 103.185412 235.345801 
L 103.271998 244.96685 
L 103.575049 277.775205 
L 103.618342 270.190644 
L 103.964687 234.223023 
L 104.267738 254.704047 
L 104.44091 277.283505 
L 104.657375 252.512694 
L 104.830548 231.385104 
L 104.873841 229.282799 
L 104.917134 231.412206 
L 105.306771 281.47263 
L 105.653115 234.532755 
L 105.696408 228.976938 
L 105.739702 232.256225 
L 106.129339 272.126469 
L 106.172632 269.915757 
L 106.605562 233.785527 
L 106.648855 235.01284 
L 106.908614 259.609427 
L 106.9952 276.056193 
L 107.038493 269.516977 
L 107.514716 232.240739 
L 107.601302 240.46025 
L 107.861061 274.747575 
L 107.904354 272.021934 
L 107.99094 263.151986 
L 108.034233 264.75872 
L 108.077526 265.927958 
L 108.207405 237.959165 
L 108.250698 230.150048 
L 108.337284 233.901676 
L 108.380577 232.159434 
L 108.683629 274.728217 
L 108.726922 272.62204 
L 108.770215 267.217218 
L 108.856801 269.033021 
L 108.98668 252.408159 
L 109.159852 231.191522 
L 109.333024 243.561441 
L 109.592783 272.862082 
L 109.765955 261.661401 
L 110.069006 226.379062 
L 110.112299 228.462009 
L 110.458643 266.895871 
L 110.501937 259.752678 
L 110.675109 244.308669 
L 110.891574 222.530643 
L 110.934867 219.452681 
L 110.97816 220.55223 
L 111.281211 260.83674 
L 111.324504 254.111685 
L 111.367797 254.642101 
L 111.41109 260.08564 
L 111.454383 259.94626 
L 111.757435 222.708738 
L 111.800728 226.471981 
L 111.9739 240.444763 
L 112.147072 274.534635 
L 112.276951 273.462188 
L 112.623296 234.176563 
L 112.753175 240.708036 
L 112.926347 262.939045 
L 113.012933 282.359238 
L 113.056226 279.343223 
L 113.142812 279.87751 
L 113.229398 268.909128 
L 113.489157 230.862432 
L 113.53245 232.864074 
L 113.705622 250.654302 
L 113.878794 274.85211 
L 113.922087 272.474917 
L 113.96538 276.048449 
L 114.008673 275.115382 
L 114.095259 264.901971 
L 114.138552 266.187359 
L 114.225138 253.228949 
L 114.441604 227.916107 
L 114.744655 269.683458 
L 114.831241 265.738248 
L 115.047706 190.299163 
L 115.350758 112.184769 
L 115.480637 95.579265 
L 115.52393 98.239088 
L 115.567223 100.697586 
L 115.653809 90.515148 
L 115.870274 151.493623 
L 116.476377 270.83721 
L 116.562963 278.832165 
L 116.606256 277.01249 
L 117.039186 247.053669 
L 117.298945 278.677299 
L 117.342238 279.277405 
L 117.558703 262.819024 
L 117.731875 235.419363 
L 117.818461 238.195335 
L 117.861754 239.879503 
L 117.905047 236.336944 
L 117.94834 238.474094 
L 118.251392 273.980989 
L 118.337978 271.030792 
L 118.424564 266.133156 
L 118.641029 234.106874 
L 118.684322 237.308728 
L 118.727615 238.710265 
L 118.770908 236.28274 
L 118.814201 236.987381 
L 118.94408 254.52208 
L 119.030666 269.408571 
L 119.073959 267.546308 
L 119.203839 260.32181 
L 119.550183 227.261798 
L 119.593476 228.733025 
L 119.636769 229.673835 
L 119.983113 264.034722 
L 120.026406 263.190702 
L 120.199579 250.255522 
L 120.416044 223.90895 
L 120.459337 222.600332 
L 120.589216 233.390619 
L 120.719095 266.605497 
L 120.848974 263.608841 
L 120.93556 262.482191 
L 121.238612 219.654007 
L 121.368491 224.741354 
L 121.714835 260.302452 
L 121.974593 232.140076 
L 122.147766 211.465469 
L 122.234352 216.370849 
L 122.450817 249.868358 
L 122.580696 248.16096 
L 122.623989 248.284853 
L 122.667282 249.698005 
L 122.797161 229.886776 
L 123.013627 207.915167 
L 123.230092 221.67888 
L 123.316678 238.946435 
L 123.359971 233.468052 
L 123.446557 240.402175 
L 123.533143 238.973537 
L 123.966074 190.078479 
L 124.095953 207.512515 
L 124.182539 226.673307 
L 124.225832 223.924436 
L 124.269125 223.835388 
L 124.312418 223.281742 
L 124.48559 209.034073 
L 124.745348 180.914285 
L 124.918521 189.455143 
L 125.134986 214.698296 
L 125.178279 217.493627 
L 125.221572 214.748628 
L 125.611209 176.349611 
L 125.697795 180.480661 
L 126.087433 220.149578 
L 126.390484 188.177499 
L 126.520363 192.92027 
L 126.563656 193.590065 
L 126.650242 206.540731 
L 126.823415 235.612945 
L 126.953294 243.363987 
L 126.996587 241.753381 
L 127.213052 220.420594 
L 127.299638 211.086048 
L 127.386224 215.813331 
L 127.559396 237.444235 
L 127.732568 258.784766 
L 127.775862 260.972247 
L 127.819155 258.962861 
L 128.208792 227.544428 
L 128.252085 229.155034 
L 128.685015 271.979346 
L 128.728309 271.131455 
L 128.988067 233.541613 
L 129.074653 237.920448 
L 129.161239 229.240211 
L 129.507583 270.124826 
L 129.550876 270.643627 
L 129.680755 262.215047 
L 129.897221 234.958636 
L 130.0271 240.076957 
L 130.070393 240.06147 
L 130.373444 273.733203 
L 130.416737 273.740946 
L 130.763082 233.390619 
L 130.979547 244.715192 
L 131.239305 275.525777 
L 131.45577 254.111685 
L 131.628943 232.256225 
L 131.672236 235.678763 
L 132.105166 269.048508 
L 132.148459 265.947317 
L 132.538096 231.028913 
L 132.624683 235.589715 
L 132.927734 270.244847 
L 132.971027 270.779135 
L 133.01432 269.52472 
L 133.230785 250.209063 
L 133.403957 224.346446 
L 133.490543 231.814857 
L 133.793595 272.180672 
L 133.836888 274.534635 
L 133.880181 272.889184 
L 134.183232 235.914934 
L 134.269818 231.299928 
L 134.313111 233.003454 
L 134.659456 270.217746 
L 134.702749 270.10934 
L 134.746042 269.598282 
L 134.919214 251.568012 
L 135.092386 231.14119 
L 135.222265 242.670962 
L 135.43873 263.070681 
L 135.525317 271.832223 
L 135.611903 268.785235 
L 135.741782 257.603913 
L 136.00154 233.874575 
L 136.044833 232.678235 
L 136.088126 233.084758 
L 136.434471 270.883669 
L 136.477764 270.34551 
L 136.824108 228.872404 
L 136.910694 234.676006 
L 136.99728 248.49005 
L 137.083866 245.981222 
L 137.300331 267.116555 
L 137.343624 267.344982 
L 137.516797 247.258866 
L 137.733262 226.650077 
L 137.776555 228.473624 
L 137.863141 244.61453 
L 137.906434 241.230708 
L 137.949727 234.691493 
L 137.99302 241.056484 
L 138.122899 258.564082 
L 138.166192 258.533108 
L 138.209485 259.543609 
L 138.425951 231.927135 
L 138.599123 217.392964 
L 138.642416 217.799487 
L 138.729002 237.575871 
L 138.772295 233.576458 
L 138.815588 230.715309 
L 138.98876 256.732792 
L 139.032053 255.331255 
L 139.075346 257.565196 
L 139.118639 255.55581 
L 139.205225 252.640458 
L 139.421691 222.817145 
L 139.508277 228.043871 
L 139.854621 267.662457 
L 139.897914 268.854925 
L 139.941207 267.008149 
L 140.157672 253.472863 
L 140.287552 227.474739 
L 140.330845 228.72141 
L 140.763775 274.82888 
L 140.850361 264.677416 
L 141.196706 228.895634 
L 141.239999 231.369618 
L 141.499757 266.106054 
L 141.54305 263.949546 
L 141.629636 269.61764 
L 141.672929 269.063994 
L 141.802808 264.267021 
L 141.97598 233.952008 
L 142.019273 233.998467 
L 142.062566 233.735195 
L 142.105859 232.403348 
L 142.365618 262.733848 
L 142.408911 263.810166 
L 142.452204 262.203432 
L 142.495497 262.307966 
L 142.625376 233.154448 
L 143.188186 99.613524 
L 143.318065 87.967603 
L 143.361358 89.214274 
L 144.227219 277.539034 
L 144.270512 275.436729 
L 144.486977 247.634416 
L 144.53027 244.637759 
L 144.573563 246.031553 
L 145.09308 284.717072 
L 145.136373 282.134682 
L 145.482717 231.443179 
L 145.52601 232.616289 
L 145.612596 239.724637 
L 145.655889 235.465823 
L 145.742475 248.954648 
L 145.915647 266.702288 
L 145.95894 272.289078 
L 146.002234 270.879798 
L 146.348578 222.793915 
L 146.391871 227.273413 
L 146.651629 257.789752 
L 146.738215 265.513692 
L 146.781508 270.055136 
L 146.868094 268.483247 
L 146.911387 266.268664 
L 147.214439 227.85416 
L 147.301025 236.0698 
L 147.344318 227.765112 
L 147.387611 232.852459 
L 147.647369 265.397542 
L 147.863834 249.279867 
L 148.0803 220.463182 
L 148.123593 223.432737 
L 148.469937 261.041937 
L 148.599816 255.865542 
L 148.902868 224.381291 
L 148.946161 215.464883 
L 148.989454 216.42118 
L 149.379091 255.002164 
L 149.682142 222.081531 
L 149.812021 212.925081 
L 149.855315 215.491984 
L 149.898608 214.280158 
L 149.941901 213.749742 
L 150.158366 243.909889 
L 150.201659 242.450278 
L 150.244952 245.350143 
L 150.288245 242.841314 
L 150.461417 229.600274 
L 150.677882 199.463357 
L 151.154106 243.127816 
L 151.197399 240.243438 
L 151.50045 193.10998 
L 151.543743 191.383225 
L 151.630329 197.99213 
L 151.673622 194.72833 
L 151.760209 200.969428 
L 151.890088 222.71261 
L 151.976674 221.330431 
L 152.06326 226.638462 
L 152.106553 223.320459 
L 152.366311 183.287606 
L 152.409604 183.337938 
L 152.452897 183.1792 
L 152.49619 177.178144 
L 152.539483 182.02932 
L 152.669362 211.020229 
L 152.799242 208.937282 
L 152.842535 210.485942 
L 152.929121 209.742585 
L 153.059 198.050205 
L 153.232172 173.403286 
L 153.275465 174.057595 
L 153.535223 192.707329 
L 153.751689 218.72094 
L 153.794982 217.838204 
L 154.098033 185.188586 
L 154.141326 189.706801 
L 154.530963 231.063757 
L 154.617549 241.559798 
L 154.660843 240.746752 
L 154.963894 212.983156 
L 155.007187 216.963211 
L 155.180359 223.726982 
L 155.440117 257.263207 
L 155.48341 256.028151 
L 155.656583 243.890531 
L 155.786462 227.679936 
L 155.829755 228.175507 
L 155.916341 233.41772 
L 155.959634 224.783942 
L 156.002927 225.697652 
L 156.305978 266.431273 
L 156.349271 265.11104 
L 156.392564 264.634828 
L 156.565737 249.516037 
L 156.652323 230.90502 
L 156.695616 233.680992 
L 156.738909 240.862901 
L 156.825495 237.370674 
L 156.912081 242.136674 
L 157.128546 272.687858 
L 157.171839 272.48266 
L 157.648063 228.616875 
L 157.864528 249.876101 
L 158.080993 272.59881 
L 158.124286 266.675187 
L 158.384044 234.757311 
L 158.427337 234.796027 
L 158.470631 234.586958 
L 158.513924 230.684336 
L 158.557217 233.924906 
L 158.860268 272.958873 
L 158.946854 270.229361 
L 159.03344 258.169173 
L 159.249905 232.217509 
L 159.293198 235.171577 
L 159.336491 238.942563 
L 159.423078 230.378475 
L 159.682836 266.384813 
L 159.726129 265.397542 
L 159.812715 263.686274 
L 159.856008 264.623213 
L 159.942594 260.488291 
L 160.245645 228.752383 
L 160.288938 228.492982 
L 160.678576 271.584438 
L 160.808455 255.95459 
L 160.981627 231.737424 
L 161.02492 235.109631 
L 161.111506 225.898977 
L 161.154799 230.537213 
L 161.501144 269.904142 
L 161.544437 269.021406 
L 161.58773 268.13867 
L 161.977367 225.775085 
L 162.02066 229.344745 
L 162.150539 243.495623 
L 162.367005 278.657941 
L 162.799935 231.818729 
L 162.843228 232.353017 
L 162.886521 232.945379 
L 163.146279 259.373256 
L 163.276159 266.094439 
L 163.319452 265.583382 
L 163.665796 225.980282 
L 163.709089 228.771741 
L 164.098726 269.31178 
L 164.142019 270.539093 
L 164.185312 269.00592 
L 164.57495 226.510698 
L 164.921294 263.899214 
L 165.00788 266.721646 
L 165.051173 264.700646 
L 165.224346 241.644975 
L 165.397518 216.738655 
L 165.440811 218.078246 
L 165.873741 258.025922 
L 166.046913 246.078013 
L 166.263379 216.0224 
L 166.306672 216.800602 
L 166.782895 261.088397 
L 166.912774 251.014366 
L 167.085946 225.407278 
L 167.12924 226.290014 
L 167.215826 231.017298 
L 167.518877 271.034664 
L 167.605463 274.437843 
L 167.9951 231.849702 
L 168.211566 254.088455 
L 168.384738 275.905198 
L 168.55791 268.332253 
L 168.644496 252.125529 
L 168.817668 232.457551 
L 169.250599 278.065579 
L 169.337185 270.179029 
L 169.683529 235.539384 
L 169.770115 237.297113 
L 169.899994 232.302685 
L 169.943287 233.37126 
L 169.986581 235.392261 
L 170.029874 234.435964 
L 170.462804 112.688083 
L 170.635976 71.602142 
L 170.679269 72.333884 
L 170.722562 70.89363 
L 170.809148 104.325321 
L 171.155493 231.555457 
L 171.198786 236.576986 
L 171.285372 234.064286 
L 171.415251 219.82436 
L 171.458544 221.949895 
L 171.804888 280.496974 
L 171.848181 284.631896 
L 171.934768 284.144068 
L 172.194526 258.157558 
L 172.324405 242.163776 
L 172.367698 242.891646 
L 172.800628 274.197801 
L 172.843921 273.361525 
L 173.146973 236.968022 
L 173.276852 239.75561 
L 173.623196 274.832752 
L 173.666489 272.15357 
L 173.926248 244.448049 
L 174.012834 229.859674 
L 174.056127 231.973595 
L 174.489057 266.419658 
L 174.53235 265.962803 
L 174.748815 253.968434 
L 174.921988 230.417192 
L 174.965281 229.956466 
L 175.311625 268.831695 
L 175.398211 266.055723 
L 175.831142 225.101418 
L 175.874435 230.467523 
L 176.0909 257.507121 
L 176.134193 252.919217 
L 176.177486 256.678588 
L 176.264072 266.795208 
L 176.307365 264.05408 
L 176.52383 221.620805 
L 176.567123 221.856976 
L 176.870175 239.434263 
L 176.956761 254.460133 
L 177.000054 253.046982 
L 177.129933 257.499378 
L 177.51957 211.043459 
L 177.562863 213.339347 
L 177.822622 244.707449 
L 177.995794 249.70962 
L 178.385431 205.952241 
L 178.428724 207.419596 
L 178.64519 235.454208 
L 178.688483 234.219151 
L 178.731776 234.89669 
L 178.818362 239.670434 
L 179.251292 190.016533 
L 179.294585 190.032019 
L 179.64093 231.048271 
L 179.727516 223.55663 
L 180.07386 181.316937 
L 180.117153 183.585723 
L 180.203739 194.647025 
L 180.247032 188.518204 
L 180.333618 199.134266 
L 180.50679 218.492512 
L 180.593377 214.450511 
L 180.939721 181.04205 
L 181.0696 187.256047 
L 181.415944 235.883961 
L 181.459237 234.188178 
L 181.762289 202.85105 
L 181.805582 200.187355 
L 182.281805 252.357828 
L 182.325098 249.008851 
L 182.368391 243.151046 
L 182.411684 244.444177 
L 182.454978 249.465706 
L 182.498271 244.045397 
L 182.671443 224.540028 
L 182.758029 221.826002 
L 182.931201 244.819727 
L 183.147666 271.193401 
L 183.234252 263.546894 
L 183.450718 234.253996 
L 183.537304 236.379532 
L 183.580597 237.05707 
L 183.62389 236.290484 
L 183.667183 234.753439 
L 184.013527 276.060064 
L 184.05682 273.268605 
L 184.359871 239.674305 
L 184.446458 235.043813 
L 184.836095 279.850409 
L 185.312318 233.502896 
L 185.355612 236.309842 
L 185.701956 279.14964 
L 185.788542 271.421829 
L 185.831835 265.48659 
L 185.875128 269.048508 
L 185.918421 269.625383 
L 186.091593 235.961394 
L 186.221472 239.941449 
L 186.437938 264.402529 
L 186.567817 279.459372 
L 186.61111 276.528534 
L 187.000747 230.893405 
L 187.476971 279.060592 
L 187.823315 236.216922 
L 187.909901 239.244552 
L 188.299539 275.781306 
L 188.342832 275.684514 
L 188.559297 249.589599 
L 188.732469 229.42605 
L 189.1654 275.370911 
L 189.381865 256.852813 
L 189.59833 228.705923 
L 189.728209 239.933706 
L 189.987967 270.217746 
L 190.03126 275.560622 
L 190.074553 275.398012 
L 190.550777 234.385632 
L 190.810535 270.179029 
L 190.940414 274.197801 
L 190.983707 273.829994 
L 191.070293 267.461131 
L 191.330052 228.717538 
L 191.373345 234.288841 
L 191.806275 273.109868 
L 191.849568 270.740418 
L 191.892861 269.559565 
L 192.282499 230.572058 
L 192.325792 230.715309 
L 192.412378 241.168762 
L 192.628843 264.886485 
L 192.672136 265.432387 
L 192.715429 267.778607 
L 192.758722 266.75262 
L 192.931894 232.426578 
L 193.018481 226.270656 
L 193.105067 226.952066 
L 193.234946 232.391733 
L 193.58129 272.614297 
L 193.884341 230.672721 
L 193.927634 235.307085 
L 194.447151 281.461015 
L 194.490444 278.905726 
L 194.706909 243.41819 
L 194.836788 236.937049 
L 194.880081 237.490695 
L 195.13984 274.515276 
L 195.226426 279.474859 
L 195.269719 279.420656 
L 195.313012 278.669556 
L 195.486184 253.46512 
L 195.616063 238.683163 
L 196.048994 281.716544 
L 196.092287 285.665626 
L 196.178873 283.981459 
L 196.56851 239.864016 
L 196.611803 239.856273 
L 196.871562 267.890885 
L 197.001441 252.888244 
L 197.347785 141.214394 
L 197.56425 95.00239 
L 197.607543 95.006261 
L 197.694129 91.626312 
L 197.737422 94.820422 
L 198.213646 214.373078 
L 198.256939 210.993128 
L 198.300232 211.589362 
L 198.603283 268.123183 
L 198.646576 266.880384 
L 198.776456 280.616995 
L 198.906335 267.840553 
L 198.949628 267.778607 
L 199.166093 248.037067 
L 199.209386 247.3634 
L 199.599023 280.284034 
L 199.642316 279.428399 
L 199.858782 243.909889 
L 199.945368 239.728508 
L 199.988661 240.231823 
L 200.464884 281.82495 
L 200.508177 275.053436 
L 200.767936 237.471337 
L 200.811229 234.89669 
L 200.854522 235.520026 
L 201.11428 262.582853 
L 201.330745 282.289548 
L 201.374038 279.401298 
L 201.633797 234.428221 
L 201.67709 232.387861 
L 201.720383 234.033312 
L 201.850262 239.569771 
L 202.196606 279.176742 
L 202.456364 241.30427 
L 202.54295 239.953064 
L 202.629537 231.056014 
L 202.889295 258.687974 
L 202.932588 259.168059 
L 203.019174 268.773621 
L 203.062467 268.134798 
L 203.408811 229.120189 
L 203.452104 231.133447 
L 203.495397 229.789985 
L 203.53869 226.913349 
L 203.581984 228.725281 
L 203.885035 261.885957 
L 203.928328 262.249892 
L 204.231379 223.254641 
L 204.361258 224.269013 
L 204.491137 230.695951 
L 204.577724 244.819727 
L 204.794189 262.354426 
L 205.140533 211.992013 
L 205.183826 212.599862 
L 205.270412 215.066103 
L 205.616757 249.066926 
L 205.66005 248.830756 
L 205.919808 202.862665 
L 205.963101 199.974414 
L 206.006394 203.90801 
L 206.049687 206.478785 
L 206.09298 203.640866 
L 206.179566 207.764173 
L 206.482618 237.374546 
L 206.742376 198.781946 
L 206.958841 182.884955 
L 207.348478 227.014012 
L 207.738116 178.575809 
L 207.781409 178.587424 
L 208.214339 232.538856 
L 208.257632 226.499083 
L 208.344219 223.804415 
L 208.560684 193.973358 
L 208.603977 194.945142 
L 208.820442 219.537858 
L 209.0802 258.715076 
L 209.426545 222.611947 
L 209.599717 229.398948 
L 209.946061 274.844366 
L 209.989354 266.059594 
L 210.292406 237.579743 
L 210.335699 237.444235 
L 210.63875 266.326738 
L 210.768629 283.489759 
L 210.811922 278.123653 
L 211.114973 242.094086 
L 211.201559 238.690906 
L 211.244853 235.489052 
L 211.288146 238.733494 
L 211.504611 266.922972 
L 211.63449 285.162312 
L 211.677783 284.415083 
L 211.721076 282.657355 
L 212.06742 239.469108 
L 212.110713 241.362344 
L 212.240593 248.13773 
L 212.500351 280.198857 
L 212.716816 259.99272 
L 212.933281 236.747338 
L 213.106453 252.020994 
L 213.366212 280.833808 
L 213.409505 276.880854 
L 213.452798 277.120896 
L 213.62597 251.47122 
L 213.755849 241.877274 
L 213.799142 240.870645 
L 214.015607 253.004393 
L 214.232073 284.949371 
L 214.275366 280.516333 
L 214.448538 264.708389 
L 214.62171 234.954765 
L 214.665003 235.814271 
L 214.968054 267.097196 
L 215.05464 281.913998 
L 215.097934 281.708801 
L 215.18452 267.701174 
L 215.227813 267.871526 
L 215.357692 254.200733 
L 215.487571 236.755082 
L 215.530864 238.017239 
L 215.790622 256.334012 
L 215.920501 286.451571 
L 216.007087 280.206601 
L 216.223553 257.239978 
L 216.396725 229.906134 
L 216.440018 234.641161 
L 216.569897 253.983921 
L 216.743069 275.754204 
L 216.786362 274.604324 
L 216.829655 267.03525 
L 216.872948 270.934001 
L 216.916241 274.062293 
L 216.959534 271.356011 
L 217.046121 264.766464 
L 217.262586 233.917163 
L 217.305879 236.65829 
L 217.479051 249.299225 
L 217.652223 281.197743 
L 217.695516 277.322222 
L 217.911981 266.195102 
L 218.085154 237.529412 
L 218.128447 239.66269 
L 218.17174 239.682048 
L 218.388205 253.627729 
L 218.518084 276.075551 
L 218.60467 273.868711 
L 218.647963 274.813393 
L 219.037601 225.403406 
L 219.124187 232.960865 
L 219.383945 269.187887 
L 219.470531 266.280278 
L 219.60041 260.941274 
L 219.816875 231.404463 
L 219.860169 229.522841 
L 220.206513 269.369855 
L 220.293099 262.517035 
L 220.509564 248.757194 
L 220.682736 230.378475 
L 220.726029 230.599159 
L 220.855909 244.285439 
L 221.072374 283.826593 
L 221.245546 279.9472 
L 221.462011 245.834099 
L 221.505304 239.31037 
L 221.548597 240.200849 
L 221.635183 249.078541 
L 221.678476 246.651017 
L 221.721769 244.300926 
L 221.765062 247.313069 
L 221.938235 278.158498 
L 222.024821 277.190586 
L 222.068114 278.433385 
L 222.111407 276.768576 
L 222.284579 255.513222 
L 222.371165 246.426461 
L 222.414458 246.813626 
L 222.457751 248.710734 
L 222.544337 242.372845 
L 222.804096 285.139082 
L 222.933975 279.207715 
L 223.063854 263.992134 
L 223.280319 243.398832 
L 223.323612 237.978523 
L 223.366905 238.117902 
L 223.669956 273.253119 
L 223.71325 264.12377 
L 223.973008 195.069035 
L 224.319352 98.122939 
L 224.405938 88.482532 
L 224.449231 92.238032 
L 224.622403 126.385978 
L 224.925455 206.722699 
L 224.968748 213.385807 
L 225.055334 210.919567 
L 225.185213 223.339817 
L 225.315092 258.196275 
L 225.488264 279.331608 
L 225.57485 285.073264 
L 225.618144 281.422298 
L 225.70473 273.109868 
L 225.877902 252.330726 
L 225.921195 255.718419 
L 225.964488 253.252179 
L 226.007781 251.657059 
L 226.354125 278.464358 
L 226.397418 276.509176 
L 226.873642 237.277754 
L 227.263279 284.387982 
L 227.306572 281.859795 
L 227.609624 239.565899 
L 227.69621 239.097429 
L 227.869382 249.090156 
L 227.955968 269.888656 
L 227.999261 265.378184 
L 228.12914 270.934001 
L 228.172433 270.442301 
L 228.259019 261.417487 
L 228.475484 238.423763 
L 228.518778 237.618459 
L 228.562071 237.862373 
L 228.69195 244.924262 
L 228.951708 274.894698 
L 229.038294 268.436787 
L 229.427931 232.457551 
L 229.557811 245.137202 
L 229.644397 262.679645 
L 229.730983 259.299695 
L 229.860862 271.019177 
L 229.904155 264.963918 
L 230.207206 224.528414 
L 230.250499 225.581502 
L 230.423672 238.55927 
L 230.596844 252.717891 
L 230.726723 259.013193 
L 230.770016 257.631014 
L 230.899895 239.186477 
L 231.11636 219.564959 
L 231.332825 239.453621 
L 231.376119 251.014366 
L 231.462705 250.325212 
L 231.549291 255.93136 
L 231.592584 254.762122 
L 231.938928 210.273001 
L 232.068807 214.013014 
L 232.371859 241.792097 
L 232.458445 237.293241 
L 232.501738 237.471337 
L 232.631617 221.733083 
L 232.848082 192.204014 
L 233.021254 202.127051 
L 233.194426 225.57763 
L 233.281012 228.996297 
L 233.324306 227.466995 
L 233.540771 199.548533 
L 233.713943 185.610596 
L 233.757236 182.741704 
L 233.800529 186.954058 
L 234.146873 218.085989 
L 234.190166 213.974298 
L 234.363339 203.327263 
L 234.536511 180.647142 
L 235.056027 227.528942 
L 235.142613 220.656764 
L 235.359079 198.185712 
L 235.402372 199.296876 
L 235.532251 210.95054 
L 235.575544 210.168467 
L 235.878595 255.389329 
L 235.921888 258.107227 
L 236.138353 228.678821 
L 236.22494 217.996941 
L 236.268233 219.526243 
L 236.441405 239.38006 
L 236.701163 272.242618 
L 236.744456 268.545193 
L 236.787749 264.371555 
L 236.831042 266.106054 
L 236.874335 267.759248 
L 237.177387 230.746282 
L 237.567024 280.175627 
L 237.65361 277.395783 
L 237.870075 247.665389 
L 237.999954 237.440364 
L 238.043247 238.094672 
L 238.173127 248.157089 
L 238.346299 269.578924 
L 238.389592 269.373726 
L 238.476178 274.193929 
L 238.519471 273.911299 
L 238.606057 266.30738 
L 238.865815 239.968551 
L 238.952401 245.253352 
L 238.995694 244.935876 
L 239.342039 283.156797 
L 239.385332 277.147998 
L 239.64509 241.761124 
L 239.818262 236.464708 
L 240.2079 281.09708 
L 240.337779 271.069509 
L 240.64083 234.501782 
L 240.727416 242.450278 
L 241.030468 278.650198 
L 241.117054 284.318292 
L 241.160347 281.279047 
L 241.420105 240.293769 
L 241.463398 237.52554 
L 241.506691 240.599629 
L 241.853035 276.063936 
L 241.896328 273.779663 
L 242.156087 259.098369 
L 242.415845 235.95365 
L 242.848775 278.42177 
L 242.935362 277.527419 
L 243.19512 235.403876 
L 243.454878 255.989435 
L 243.62805 280.903497 
L 243.844516 266.067338 
L 244.060981 236.689264 
L 244.104274 237.184835 
L 244.147567 239.147761 
L 244.407325 268.614883 
L 244.537204 280.307264 
L 244.580497 279.536805 
L 244.970135 240.479608 
L 245.013428 238.129517 
L 245.100014 255.025394 
L 245.143307 251.703519 
L 245.1866 253.685804 
L 245.359772 273.384755 
L 245.446358 280.752503 
L 245.489651 279.982045 
L 245.706116 240.433148 
L 245.792703 238.795441 
L 245.835996 238.985152 
L 246.268926 272.327795 
L 246.312219 273.404113 
L 246.442098 259.009321 
L 246.658563 223.7928 
L 246.74515 229.011783 
L 246.831736 247.506652 
L 246.918322 245.896045 
L 247.134787 264.700646 
L 247.17808 264.576753 
L 247.264666 259.779779 
L 247.524424 228.5588 
L 247.784183 243.534339 
L 248.000648 276.013605 
L 248.043941 275.212173 
L 248.17382 258.173045 
L 248.346992 238.570885 
L 248.433578 242.663218 
L 248.779923 275.64967 
L 248.823216 274.778548 
L 248.909802 281.108695 
L 249.256146 241.981808 
L 249.299439 240.231823 
L 249.515904 263.322338 
L 249.689077 279.521319 
L 249.775663 283.272947 
L 250.078714 244.277696 
L 250.122007 244.331899 
L 250.1653 244.42869 
L 250.598231 292.85915 
L 250.641524 288.604208 
L 250.901282 245.024924 
L 251.074454 229.213109 
L 251.420798 186.292006 
L 251.550678 143.769683 
L 251.853729 53.955165 
L 251.897022 59.867173 
L 252.373245 253.712905 
L 252.589711 237.997881 
L 252.633004 240.893875 
L 252.762883 245.795383 
L 252.849469 246.674247 
L 253.15252 293.354721 
L 253.195813 295.488 
L 253.368985 273.799021 
L 253.542158 251.63383 
L 253.672037 253.116671 
L 253.71533 250.263266 
L 253.758623 250.960163 
L 254.018381 283.67947 
L 254.104967 275.076665 
L 254.451312 240.166005 
L 254.494605 240.677062 
L 254.71107 263.601097 
L 254.797656 277.329965 
L 254.840949 276.203315 
L 254.884242 276.710501 
L 255.057414 262.381528 
L 255.273879 241.130045 
L 255.317172 241.703049 
L 255.360466 242.427048 
L 255.447052 240.069213 
L 255.70681 270.202259 
L 255.750103 269.908014 
L 255.836689 262.939045 
L 256.009861 248.164832 
L 256.13974 230.378475 
L 256.183033 231.524484 
L 256.269619 238.5825 
L 256.312913 233.990724 
L 256.356206 237.680406 
L 256.615964 269.416314 
L 256.789136 263.217804 
L 257.005601 231.439307 
L 257.048894 234.679878 
L 257.092187 235.651662 
L 257.13548 228.640105 
L 257.178773 234.374017 
L 257.525118 269.726046 
L 257.568411 269.346625 
L 258.001341 223.467582 
L 258.174513 247.45632 
L 258.347686 262.048566 
L 258.434272 252.187475 
L 258.910495 213.285144 
L 259.25684 248.222907 
L 259.300133 247.688619 
L 259.646477 210.238156 
L 259.68977 212.595991 
L 259.776356 205.077248 
L 259.819649 209.092148 
L 260.1227 240.301512 
L 260.469045 192.176913 
L 260.555631 192.42857 
L 260.598924 188.878268 
L 260.642217 193.241616 
L 260.945268 225.461481 
L 261.031854 222.700995 
L 261.291613 188.940214 
L 261.334906 187.507704 
L 261.378199 191.437428 
L 261.421492 182.470688 
L 261.464785 183.512162 
L 261.68125 215.867534 
L 261.724543 215.921737 
L 261.854422 217.675594 
L 261.984301 208.840491 
L 262.157474 188.131039 
L 262.24406 194.015946 
L 262.287353 188.870524 
L 262.330646 189.49386 
L 262.590404 230.966966 
L 262.720283 238.086929 
L 262.763576 238.083057 
L 262.850162 243.391088 
L 262.893455 239.391675 
L 263.153214 201.004273 
L 263.542851 262.842254 
L 263.932488 228.841431 
L 264.148954 240.839672 
L 264.322126 271.437315 
L 264.365419 268.916872 
L 264.408712 269.145299 
L 264.452005 273.082766 
L 264.495298 272.9279 
L 264.711763 236.971894 
L 264.884935 237.994009 
L 265.274573 279.672313 
L 265.317866 279.316121 
L 265.750796 236.247896 
L 266.183727 281.534576 
L 266.22702 278.956058 
L 266.573364 240.471865 
L 266.65995 247.541496 
L 266.789829 258.397601 
L 267.049588 280.748632 
L 267.179467 270.237104 
L 267.309346 245.837971 
L 267.352639 250.441362 
L 267.395932 249.047568 
L 267.439225 240.533811 
L 267.482518 241.040997 
L 267.915449 282.250831 
L 268.261793 241.071971 
L 268.348379 238.017239 
L 268.391672 239.44975 
L 268.694723 276.423999 
L 268.738016 281.058363 
L 268.78131 279.296763 
L 269.041068 244.180905 
L 269.084361 244.691963 
L 269.127654 244.808112 
L 269.170947 240.212464 
L 269.257533 241.900503 
L 269.560584 277.132511 
L 269.690463 274.643041 
L 270.036808 233.90942 
L 270.383152 269.029149 
L 270.426445 274.623682 
L 270.513031 273.613182 
L 270.64291 262.977762 
L 270.859376 241.366216 
L 270.945962 243.108458 
L 270.989255 242.670962 
L 271.335599 279.784591 
L 271.378892 276.249775 
L 271.595357 248.044811 
L 271.63865 247.951891 
L 271.811823 237.641689 
L 272.158167 278.212701 
L 272.244753 272.006448 
L 272.634391 233.456437 
L 272.677684 231.830344 
L 273.110614 278.777962 
L 273.240493 269.706688 
L 273.500251 231.96198 
L 273.846596 267.828938 
L 273.976475 272.219388 
L 274.019768 270.515863 
L 274.106354 263.364927 
L 274.366112 230.513983 
L 274.409405 232.511754 
L 274.669164 260.174688 
L 274.75575 270.515863 
L 274.799043 268.549065 
L 275.231973 223.986383 
L 275.275266 226.893991 
L 275.664904 275.374782 
L 276.054541 231.071501 
L 276.141127 234.257868 
L 276.227713 242.593529 
L 276.357592 267.557923 
L 276.400885 265.680173 
L 276.444178 259.92303 
L 276.487472 260.712847 
L 276.574058 270.608782 
L 276.660644 268.417429 
L 276.920402 233.715837 
L 277.006988 237.111273 
L 277.396625 283.555577 
L 277.439919 282.355366 
L 277.786263 236.813156 
L 277.959435 249.531524 
L 278.1759 273.818379 
L 278.262486 282.281805 
L 278.305779 279.188357 
L 278.73871 234.668263 
L 278.782003 238.427634 
L 279.085054 271.139198 
L 279.214933 247.053669 
L 279.73445 110.736772 
L 279.864329 100.639511 
L 279.907622 101.092494 
L 279.994208 110.597393 
L 280.470432 221.493041 
L 280.903362 284.860323 
L 280.946655 279.056721 
L 281.16312 255.459019 
L 281.293 250.967906 
L 281.336293 251.316354 
L 281.639344 284.109223 
L 281.72593 285.092622 
L 281.855809 270.419071 
L 282.072274 237.568128 
L 282.202153 241.850172 
L 282.245447 243.665976 
L 282.505205 270.488761 
L 282.635084 274.066165 
L 282.808256 261.959518 
L 282.938135 234.877332 
L 282.981428 235.512282 
L 283.197894 251.552525 
L 283.414359 279.99366 
L 283.457652 276.30785 
L 283.71741 247.138845 
L 283.890582 230.289428 
L 284.020461 247.789282 
L 284.236927 267.302394 
L 284.28022 271.158556 
L 284.323513 270.523606 
L 284.71315 229.712552 
L 284.756443 230.17715 
L 285.016201 250.8595 
L 285.189374 267.770863 
L 285.232667 263.558509 
L 285.535718 226.506826 
L 285.622304 222.972011 
L 285.795476 236.758953 
L 285.968648 267.344982 
L 286.011941 263.508178 
L 286.098528 256.647615 
L 286.141821 258.614413 
L 286.185114 257.298052 
L 286.401579 220.745812 
L 286.488165 220.88132 
L 286.531458 217.590418 
L 286.574751 221.752441 
L 286.877802 256.357242 
L 286.921095 255.385458 
L 287.354026 209.281859 
L 287.397319 210.06006 
L 287.70037 243.635002 
L 287.743663 242.659347 
L 287.960129 228.872404 
L 288.176594 198.778075 
L 288.219887 200.868765 
L 288.26318 199.126523 
L 288.306473 199.765345 
L 288.393059 210.044574 
L 288.566231 230.254583 
L 288.825989 217.613648 
L 288.999162 184.499433 
L 289.085748 185.215688 
L 289.215627 188.417541 
L 289.518678 220.331546 
L 289.561971 217.962097 
L 289.778436 182.641041 
L 289.821729 183.636055 
L 289.908316 178.38997 
L 289.951609 181.665385 
L 290.384539 225.395663 
L 290.601004 206.203898 
L 290.730883 189.89264 
L 290.947349 208.530759 
L 291.207107 243.933119 
L 291.2504 243.685334 
L 291.336986 241.288783 
L 291.380279 245.330785 
L 291.423572 241.89276 
L 291.596744 219.197153 
L 291.640037 219.417837 
L 291.856503 234.358531 
L 292.072968 267.654714 
L 292.116261 269.114326 
L 292.332726 243.832456 
L 292.462605 231.307671 
L 292.549191 228.117432 
L 292.722363 254.022637 
L 292.80895 267.108811 
L 292.852243 264.073438 
L 292.895536 262.946789 
L 292.982122 271.828352 
L 293.025415 270.632012 
L 293.371759 231.172164 
L 293.458345 237.916576 
L 293.847983 279.420656 
L 293.891276 275.638055 
L 294.280913 232.496268 
L 294.80043 276.954415 
L 294.843723 274.515276 
L 295.016895 242.821956 
L 295.060188 242.663218 
L 295.146774 238.462479 
L 295.536411 275.297349 
L 295.579704 274.507533 
L 295.709584 270.833338 
L 295.926049 233.247368 
L 296.012635 239.678177 
L 296.185807 251.993893 
L 296.358979 273.760305 
L 296.402272 276.1917 
L 296.445565 275.95553 
L 296.575444 268.177387 
L 296.748617 238.733494 
L 296.835203 236.340815 
L 296.878496 238.16049 
L 297.22484 272.049036 
L 297.268133 272.025806 
L 297.311426 272.134212 
L 297.657771 234.695364 
L 297.744357 236.224666 
L 297.917529 253.48835 
L 298.133994 274.677886 
L 298.350459 247.727336 
L 298.437045 235.903319 
L 298.523632 236.824771 
L 298.566925 237.029969 
L 298.610218 235.825886 
L 299.086441 276.772448 
L 299.129734 274.488175 
L 299.259613 240.808698 
L 299.302906 240.901618 
L 299.346199 240.080828 
L 299.432785 233.258982 
L 299.476079 234.96638 
L 299.909009 272.242618 
L 299.952302 270.848825 
L 300.038888 262.896457 
L 300.298646 232.411091 
L 300.731577 275.026334 
L 300.818163 276.091038 
L 301.077921 235.345801 
L 301.164507 237.510053 
L 301.2078 234.85023 
L 301.251093 238.694778 
L 301.640731 273.497033 
L 301.684024 275.026334 
L 301.727317 272.579452 
L 301.943782 238.493452 
L 301.987075 233.251239 
L 302.030368 234.89669 
L 302.20354 248.571355 
L 302.549885 278.987031 
L 302.723057 248.602328 
L 302.896229 235.798784 
L 302.939522 235.527769 
L 303.372453 275.723231 
L 303.415746 272.486532 
L 303.588918 246.856214 
L 303.805383 226.410035 
L 304.238313 270.151928 
L 304.281607 266.667443 
L 304.541365 222.608076 
L 304.584658 220.327674 
L 304.627951 221.806644 
L 304.887709 243.329142 
L 305.017588 262.594468 
L 305.060881 262.257635 
L 305.104174 266.179616 
L 305.147467 261.673016 
L 305.363933 228.589774 
L 305.493812 227.331488 
L 305.580398 236.565371 
L 305.970035 280.074965 
L 306.013328 276.423999 
L 306.229794 244.513867 
L 306.359673 233.154448 
L 306.402966 238.226308 
L 306.835896 283.733673 
L 307.095654 239.794326 
L 307.225534 236.391147 
L 307.31212 244.726807 
L 307.658464 282.15404 
L 307.701757 281.952714 
L 307.918222 242.547069 
L 308.048101 233.591944 
L 308.177981 242.941977 
L 308.394446 261.413615 
L 308.437739 260.759307 
L 308.567618 250.03871 
L 308.870669 133.978282 
L 309.087135 99.249589 
L 309.260307 87.328781 
L 309.346893 109.37008 
L 309.606651 187.197972 
L 309.73653 212.983156 
L 309.779823 209.692254 
L 309.823116 202.413553 
L 309.866409 205.514744 
L 310.29934 277.573879 
L 310.515805 252.218449 
L 310.559098 249.620572 
L 310.602391 251.281509 
L 310.645684 252.744993 
L 310.73227 244.502252 
L 310.775563 246.314184 
L 310.862149 253.74775 
L 311.035322 274.306207 
L 311.078615 272.347153 
L 311.121908 274.085523 
L 311.424959 239.225194 
L 311.468252 238.872874 
L 311.554838 234.784412 
L 311.901182 267.108811 
L 311.987769 283.404583 
L 312.031062 274.011962 
L 312.247527 243.859558 
L 312.377406 226.592003 
L 312.420699 227.180493 
L 312.550578 239.244552 
L 312.853629 276.129754 
L 313.156681 232.806 
L 313.199974 232.767283 
L 313.28656 224.377419 
L 313.329853 225.782828 
L 313.676197 272.877569 
L 313.71949 271.1663 
L 313.979249 234.784412 
L 314.065835 229.782241 
L 314.109128 232.298813 
L 314.152421 234.389504 
L 314.195714 233.375132 
L 314.2823 232.36076 
L 314.325593 234.006211 
L 314.542058 265.312366 
L 314.585351 264.514806 
L 314.801816 233.680992 
L 314.974989 221.314945 
L 315.018282 220.954881 
L 315.148161 236.75121 
L 315.321333 249.500551 
L 315.364626 251.320226 
L 315.451212 262.606083 
L 315.754263 220.196038 
L 315.797557 219.909536 
L 315.884143 210.497557 
L 315.927436 212.340462 
L 316.27378 256.872171 
L 316.490245 232.143948 
L 316.70671 203.094964 
L 316.966469 226.44488 
L 317.139641 243.058127 
L 317.529278 194.062406 
L 317.615864 190.883782 
L 317.659157 192.40534 
L 317.918916 220.339289 
L 318.005502 226.359704 
L 318.438432 182.47456 
L 318.481725 183.701873 
L 318.568311 185.517676 
L 318.784777 209.347677 
L 318.871363 218.655122 
L 319.304293 171.912701 
L 319.434172 183.97676 
L 319.737224 221.806644 
L 319.780517 216.967083 
L 320.083568 188.254932 
L 320.126861 188.39044 
L 320.300033 205.266959 
L 320.343326 204.51973 
L 320.386619 205.251472 
L 320.603085 246.457435 
L 320.646378 244.831342 
L 320.81955 230.699822 
L 320.992722 212.750857 
L 321.079308 214.601505 
L 321.165894 225.519556 
L 321.425652 263.527536 
L 321.468945 259.926902 
L 321.512238 262.234405 
L 321.901876 224.396777 
L 322.031755 233.79327 
L 322.291513 273.071151 
L 322.378099 268.986561 
L 322.507979 257.685217 
L 322.724444 231.559328 
L 322.854323 233.444822 
L 323.157374 273.822251 
L 323.200667 267.418543 
L 323.287253 275.83938 
L 323.330546 271.1663 
L 323.590305 228.578159 
L 323.633598 229.739653 
L 324.023235 272.664628 
L 324.326286 246.04704 
L 324.456166 232.809871 
L 324.499459 234.083644 
L 324.715924 248.53651 
L 324.845803 267.561794 
L 324.889096 263.423001 
L 324.975682 271.154685 
L 325.018975 267.588896 
L 325.322026 230.618518 
L 325.451906 236.68152 
L 325.711664 272.610425 
L 325.754957 268.51422 
L 325.841543 272.134212 
L 325.884836 271.603796 
L 326.23118 229.530584 
L 326.274473 231.880675 
L 326.577525 271.356011 
L 326.664111 265.765349 
L 326.707404 266.930716 
L 326.750697 267.50372 
L 326.880576 252.516566 
L 327.010455 236.697007 
L 327.053748 236.724109 
L 327.140334 232.0549 
L 327.183627 233.967494 
L 327.443386 272.22326 
L 327.573265 269.877041 
L 327.876316 230.715309 
L 327.962902 233.638404 
L 328.309247 271.890298 
L 328.482419 271.51862 
L 328.78547 228.361346 
L 328.958642 236.580857 
L 329.088521 256.016536 
L 329.175107 269.644742 
L 329.218401 266.485476 
L 329.304987 265.792451 
L 329.434866 259.369385 
L 329.694624 230.8121 
L 329.824503 239.314242 
L 329.997675 269.61764 
L 330.084261 266.133156 
L 330.127554 267.143656 
L 330.170848 271.019177 
L 330.214141 269.776378 
L 330.473899 229.70868 
L 330.517192 230.374604 
L 330.950122 271.785764 
L 330.993415 272.025806 
L 331.209881 252.493336 
L 331.426346 234.792156 
L 331.469639 234.149462 
L 331.642811 248.706863 
L 331.815983 266.466118 
L 332.032448 260.488291 
L 332.248914 233.235753 
L 332.595258 266.179616 
L 332.725137 264.274764 
L 332.941602 251.157617 
L 333.158068 233.928778 
L 333.201361 235.20255 
L 333.590998 269.621512 
L 333.634291 269.346625 
L 334.023929 229.995182 
L 334.067222 232.078129 
L 334.283687 264.313481 
L 334.456859 263.802423 
L 334.630031 247.541496 
L 334.889789 223.595346 
L 335.062962 232.434321 
L 335.236134 255.942975 
L 335.32272 263.016478 
L 335.366013 258.09174 
L 335.625771 234.571472 
L 335.75565 218.647378 
L 335.798943 218.995827 
L 336.145288 263.705632 
L 336.361753 253.983921 
L 336.578218 231.977467 
L 336.708097 239.101301 
L 336.88127 264.816795 
L 336.924563 263.519793 
L 336.967856 263.488819 
L 337.097735 271.576695 
L 337.530665 234.455322 
L 337.660544 246.496151 
L 337.87701 270.465531 
L 337.920303 273.566722 
L 337.963596 271.572823 
L 338.396526 236.050442 
L 338.439819 238.830286 
L 338.786163 271.568951 
L 339.002629 247.344042 
L 339.348973 179.203016 
L 339.565438 150.35923 
L 339.911783 67.684033 
L 339.955076 75.090498 
L 340.517885 250.352314 
L 340.561178 247.270481 
L 340.604471 247.50278 
L 340.691057 255.950718 
L 340.734351 252.512694 
L 340.907523 234.935407 
L 340.950816 235.074786 
L 341.037402 246.221264 
L 341.340453 284.244731 
L 341.383746 285.278461 
L 341.816677 229.669964 
L 341.903263 237.242909 
L 341.989849 248.788167 
L 342.206314 275.20443 
L 342.379486 261.649786 
L 342.552658 230.924378 
L 342.682538 233.320929 
L 343.115468 266.462246 
L 343.158761 267.964446 
L 343.202054 266.953945 
L 343.418519 235.210294 
L 343.505105 222.623562 
L 343.548398 225.806058 
L 343.721571 257.584554 
L 343.808157 252.640458 
L 343.85145 253.1128 
L 344.024622 266.396428 
L 344.197794 239.360702 
L 344.370966 226.282271 
L 344.544138 233.046042 
L 344.84719 265.807937 
L 344.933776 259.338411 
L 345.193534 222.232526 
L 345.236827 224.880734 
L 345.28012 225.705395 
L 345.323413 225.120776 
L 345.366706 225.109161 
L 345.496585 240.313127 
L 345.626465 264.669672 
L 345.669758 260.190174 
L 346.016102 222.228654 
L 346.059395 222.093146 
L 346.145981 211.798431 
L 346.189274 211.891351 
L 346.492326 247.227893 
L 346.578912 249.221792 
L 346.622205 247.928661 
L 347.011842 209.173453 
L 347.098428 219.321045 
L 347.2716 232.724695 
L 347.444773 241.764996 
L 347.488066 240.181491 
L 347.83441 201.910239 
L 347.920996 199.715014 
L 348.137461 220.873577 
L 348.224047 227.513455 
L 348.310633 226.824302 
L 348.353926 226.564901 
L 348.440513 218.879677 
L 348.700271 185.548649 
L 348.786857 187.325736 
L 349.176494 221.434966 
L 349.479546 176.210232 
L 349.566132 173.589125 
L 349.609425 174.053723 
L 349.82589 191.414198 
L 349.999062 213.594876 
L 350.431993 181.049793 
L 350.475286 184.054193 
L 350.691751 204.736543 
L 350.864923 228.481367 
L 351.081388 219.452681 
L 351.297854 198.832278 
L 351.38444 207.516387 
L 351.644198 242.941977 
L 351.774077 258.428574 
L 351.81737 254.131043 
L 352.163714 220.567716 
L 352.207007 221.942152 
L 352.639938 271.634769 
L 353.029575 224.280628 
L 353.116161 234.571472 
L 353.289334 251.796439 
L 353.462506 270.291307 
L 353.549092 266.6597 
L 353.895436 226.293886 
L 353.938729 228.763998 
L 354.198488 259.206775 
L 354.37166 275.591595 
L 354.588125 251.746107 
L 354.674711 224.040586 
L 354.761297 226.572644 
L 355.237521 270.69783 
L 355.410693 252.241678 
L 355.627158 228.992425 
L 355.713744 241.126174 
L 356.060088 270.999819 
L 356.103382 272.625911 
L 356.146675 271.669614 
L 356.493019 230.668849 
L 356.536312 231.698708 
L 356.969242 274.774677 
L 357.055829 264.998763 
L 357.315587 230.467523 
L 357.35888 231.896162 
L 357.445466 241.555927 
L 357.488759 236.058185 
L 357.835103 270.384227 
L 357.878396 267.554051 
L 358.224741 229.247954 
L 358.571085 262.060181 
L 358.657671 266.071209 
L 358.700964 265.815681 
L 359.047309 231.249597 
L 359.090602 233.642276 
L 359.177188 235.709736 
L 359.220481 233.069272 
L 359.263774 235.264497 
L 359.393653 263.403643 
L 359.436946 262.435731 
L 359.566825 267.883141 
L 359.610118 266.551294 
L 359.653411 266.810694 
L 359.91317 228.938222 
L 360.216221 247.874458 
L 360.3461 267.418543 
L 360.389393 265.490462 
L 360.519272 256.814096 
L 360.822323 231.86906 
L 360.865617 231.663863 
L 361.038789 245.861201 
L 361.168668 267.712789 
L 361.211961 267.263677 
L 361.298547 269.319523 
L 361.428426 257.085112 
L 361.644891 228.094202 
L 361.947943 254.704047 
L 362.077822 272.049036 
L 362.121115 271.990961 
L 362.380873 242.609015 
L 362.510752 228.241325 
L 362.943683 269.846067 
L 362.986976 268.293536 
L 363.246734 243.74728 
L 363.376613 228.922735 
L 363.809544 267.712789 
L 363.852837 267.228833 
L 364.069302 246.534868 
L 364.242474 232.895047 
L 364.285767 238.88836 
L 364.32906 238.044341 
L 364.372353 232.248482 
L 364.415646 233.185421 
L 364.675404 263.202317 
L 364.718698 264.52255 
L 364.761991 263.717247 
L 365.108335 222.437723 
L 365.238214 225.209824 
L 365.584558 259.582325 
L 365.627851 255.946847 
L 365.757731 246.720707 
L 365.930903 220.227011 
L 365.974196 220.261856 
L 366.017489 224.834274 
L 366.060782 218.597047 
L 366.147368 224.640691 
L 366.32054 243.147175 
L 366.407126 259.861084 
L 366.450419 258.393729 
L 366.537005 258.595055 
L 366.666885 246.875573 
L 366.796764 229.398948 
L 366.88335 233.8165 
L 366.926643 227.17275 
L 366.969936 234.025569 
L 367.229694 266.489348 
L 367.359573 264.681287 
L 367.662625 229.174393 
L 367.705918 232.217509 
L 367.835797 234.85023 
L 367.87909 235.458079 
L 368.138848 264.410272 
L 368.225434 269.145299 
L 368.268727 266.72939 
L 368.528485 230.455908 
L 368.658365 232.914406 
L 369.048002 270.426815 
L 369.091295 266.930716 
L 369.394346 229.507354 
L 369.437639 230.893405 
L 370.000449 140.3123 
L 370.260207 53.568 
L 370.3035 54.156491 
L 370.346793 55.883246 
L 370.649845 204.597163 
L 370.823017 247.162075 
L 370.996189 234.234638 
L 371.082775 237.614588 
L 371.169361 241.838557 
L 371.255947 229.855803 
L 371.29924 236.182078 
L 371.645585 282.610895 
L 371.688878 280.303392 
L 371.86205 261.487177 
L 372.035222 242.523839 
L 372.121808 233.328672 
L 372.468153 269.6641 
L 372.511446 271.611539 
L 372.771204 236.542141 
L 372.814497 226.363575 
L 372.901083 228.098074 
L 372.944376 224.292243 
L 372.987669 228.051614 
L 373.247427 260.201789 
L 373.377307 265.881499 
L 373.4206 263.914701 
L 373.680358 229.964209 
L 373.723651 233.696479 
L 373.766944 234.199793 
L 373.810237 230.885662 
L 373.85353 233.665506 
L 374.199874 265.827296 
L 374.243167 264.003749 
L 374.41634 247.967378 
L 374.676098 214.864777 
L 374.762684 221.841489 
L 375.065735 258.320168 
L 375.109028 257.627143 
L 375.282201 241.795969 
L 375.498666 222.306087 
L 375.541959 222.495798 
L 375.628545 223.564373 
L 375.671838 225.140134 
L 375.888303 258.312424 
L 375.931596 254.622743 
L 375.974889 254.293653 
L 376.364527 210.315589 
L 376.40782 211.306732 
L 376.797457 247.378887 
L 376.84075 246.712963 
L 376.884043 249.24115 
L 376.927336 247.440833 
L 377.273681 203.88478 
L 377.360267 211.806174 
L 377.533439 230.645619 
L 377.576732 229.700937 
L 377.620025 227.176622 
L 377.706611 240.340229 
L 377.749904 238.284383 
L 378.096248 186.764347 
L 378.139542 188.541434 
L 378.572472 230.010669 
L 378.702351 217.063874 
L 378.962109 177.104583 
L 379.005402 178.095725 
L 379.481626 219.576574 
L 379.784677 168.075897 
L 379.871263 172.470218 
L 380.304194 208.662395 
L 380.347487 208.34492 
L 380.693831 172.431502 
L 380.953589 195.417483 
L 381.170055 225.391791 
L 381.429813 204.61265 
L 381.473106 203.547947 
L 381.602985 193.357766 
L 381.646278 195.196799 
L 381.949329 241.865659 
L 382.035916 244.014424 
L 382.079209 243.782125 
L 382.38226 217.056131 
L 382.468846 218.527357 
L 382.555432 223.688266 
L 382.81519 255.362228 
L 382.858483 260.112741 
L 382.94507 257.445175 
L 382.988363 257.15093 
L 383.074949 248.180318 
L 383.291414 225.264027 
L 383.464586 234.854102 
L 383.724344 266.191231 
L 383.81093 263.101654 
L 383.94081 255.60227 
L 384.113982 228.601388 
L 384.157275 229.236339 
L 384.330447 241.226837 
L 384.503619 267.174629 
L 384.546912 265.687916 
L 384.590205 264.650314 
L 384.720084 266.934587 
L 385.023136 225.295 
L 385.066429 226.998526 
L 385.412773 269.590539 
L 385.456066 269.799608 
L 385.629238 256.771508 
L 385.845704 230.843073 
L 385.888997 232.825358 
L 385.93229 229.952594 
L 385.975583 230.20038 
L 386.062169 235.372903 
L 386.278634 266.814566 
L 386.321927 266.891999 
L 386.624978 240.135031 
L 386.798151 225.194337 
L 387.187788 266.160257 
L 387.231081 266.663572 
L 387.36096 258.757664 
L 387.620718 224.280628 
L 387.880477 252.826298 
L 388.010356 268.940101 
L 388.529872 220.997469 
L 388.91951 264.983276 
L 388.962803 264.514806 
L 389.006096 265.184602 
L 389.179268 244.715192 
L 389.309147 227.184365 
L 389.395733 229.786113 
L 389.482319 235.849116 
L 389.785371 265.358826 
L 389.871957 266.837796 
L 390.045129 248.455206 
L 390.218301 224.377419 
L 390.304887 225.585374 
L 390.391473 234.857974 
L 390.651232 269.094967 
L 390.694525 270.593296 
L 390.997576 224.865247 
L 391.040869 225.422765 
L 391.34392 248.989493 
L 391.430506 268.777492 
L 391.473799 268.076724 
L 391.646972 260.294709 
L 391.776851 246.918161 
L 391.950023 227.292771 
L 391.993316 228.32263 
L 392.426246 269.6641 
L 392.469539 266.218332 
L 392.859177 231.698708 
L 392.945763 236.213051 
L 393.248814 270.810108 
L 393.292107 270.06288 
L 393.595159 230.92825 
L 393.681745 232.534984 
L 393.768331 239.604616 
L 394.071382 265.86214 
L 394.157968 270.06288 
L 394.201261 267.197859 
L 394.33114 257.8788 
L 394.504313 226.874633 
L 394.547606 227.513455 
L 394.677485 235.477437 
L 394.980536 260.004335 
L 395.023829 260.395372 
L 395.153708 253.925846 
L 395.370173 219.537858 
L 395.500053 220.513513 
L 395.543346 221.663393 
L 395.716518 251.413146 
L 395.803104 250.832398 
L 395.88969 256.790866 
L 395.932983 253.635472 
L 396.236034 217.90015 
L 396.32262 222.751327 
L 396.4525 240.181491 
L 396.755551 266.710032 
L 397.101895 236.894461 
L 397.318361 244.459664 
L 397.578119 271.983218 
L 397.621412 271.046279 
L 397.88117 240.309256 
L 398.054342 234.892818 
L 398.400687 276.338823 
L 398.487273 269.222732 
L 398.487273 269.222732 
" style="fill:none;stroke:#1f77b4;stroke-linecap:square;stroke-width:1.5;"/>
   </g>
   <g id="patch_3">
    <path d="M 57.6 307.584 
L 57.6 41.472 
" style="fill:none;stroke:#000000;stroke-linecap:square;stroke-linejoin:miter;stroke-width:0.8;"/>
   </g>
   <g id="patch_4">
    <path d="M 414.72 307.584 
L 414.72 41.472 
" style="fill:none;stroke:#000000;stroke-linecap:square;stroke-linejoin:miter;stroke-width:0.8;"/>
   </g>
   <g id="patch_5">
    <path d="M 57.6 307.584 
L 414.72 307.584 
" style="fill:none;stroke:#000000;stroke-linecap:square;stroke-linejoin:miter;stroke-width:0.8;"/>
   </g>
   <g id="patch_6">
    <path d="M 57.6 41.472 
L 414.72 41.472 
" style="fill:none;stroke:#000000;stroke-linecap:square;stroke-linejoin:miter;stroke-width:0.8;"/>
   </g>
  </g>
 </g>
 <defs>
  <clipPath id="pe28f63c4b7">
   <rect height="266.112" width="357.12" x="57.6" y="41.472"/>
  </clipPath>
 </defs>
</svg>
