<?xml version="1.0" encoding="utf-8" standalone="no"?>
<!DOCTYPE svg PUBLIC "-//W3C//DTD SVG 1.1//EN"
  "http://www.w3.org/Graphics/SVG/1.1/DTD/svg11.dtd">
<!-- Created with matplotlib (http://matplotlib.org/) -->
<svg height="345.6pt" version="1.1" viewBox="0 0 460.8 345.6" width="460.8pt" xmlns="http://www.w3.org/2000/svg" xmlns:xlink="http://www.w3.org/1999/xlink">
 <defs>
  <style type="text/css">
*{stroke-linecap:butt;stroke-linejoin:round;}
  </style>
 </defs>
 <g id="figure_1">
  <g id="patch_1">
   <path d="M 0 345.6 
L 460.8 345.6 
L 460.8 0 
L 0 0 
z
" style="fill:#ffffff;"/>
  </g>
  <g id="axes_1">
   <g id="patch_2">
    <path d="M 57.6 307.584 
L 414.72 307.584 
L 414.72 41.472 
L 57.6 41.472 
z
" style="fill:#ffffff;"/>
   </g>
   <g id="matplotlib.axis_1">
    <g id="xtick_1">
     <g id="line2d_1">
      <defs>
       <path d="M 0 0 
L 0 3.5 
" id="m2f9dc075ff" style="stroke:#000000;stroke-width:0.8;"/>
      </defs>
      <g>
       <use style="stroke:#000000;stroke-width:0.8;" x="73.832727" xlink:href="#m2f9dc075ff" y="307.584"/>
      </g>
     </g>
     <g id="text_1">
      <!-- 0 -->
      <defs>
       <path d="M 31.78125 66.40625 
Q 24.171875 66.40625 20.328125 58.90625 
Q 16.5 51.421875 16.5 36.375 
Q 16.5 21.390625 20.328125 13.890625 
Q 24.171875 6.390625 31.78125 6.390625 
Q 39.453125 6.390625 43.28125 13.890625 
Q 47.125 21.390625 47.125 36.375 
Q 47.125 51.421875 43.28125 58.90625 
Q 39.453125 66.40625 31.78125 66.40625 
z
M 31.78125 74.21875 
Q 44.046875 74.21875 50.515625 64.515625 
Q 56.984375 54.828125 56.984375 36.375 
Q 56.984375 17.96875 50.515625 8.265625 
Q 44.046875 -1.421875 31.78125 -1.421875 
Q 19.53125 -1.421875 13.0625 8.265625 
Q 6.59375 17.96875 6.59375 36.375 
Q 6.59375 54.828125 13.0625 64.515625 
Q 19.53125 74.21875 31.78125 74.21875 
z
" id="DejaVuSans-30"/>
      </defs>
      <g transform="translate(70.651477 322.182437)scale(0.1 -0.1)">
       <use xlink:href="#DejaVuSans-30"/>
      </g>
     </g>
    </g>
    <g id="xtick_2">
     <g id="line2d_2">
      <g>
       <use style="stroke:#000000;stroke-width:0.8;" x="117.125772" xlink:href="#m2f9dc075ff" y="307.584"/>
      </g>
     </g>
     <g id="text_2">
      <!-- 2 -->
      <defs>
       <path d="M 19.1875 8.296875 
L 53.609375 8.296875 
L 53.609375 0 
L 7.328125 0 
L 7.328125 8.296875 
Q 12.9375 14.109375 22.625 23.890625 
Q 32.328125 33.6875 34.8125 36.53125 
Q 39.546875 41.84375 41.421875 45.53125 
Q 43.3125 49.21875 43.3125 52.78125 
Q 43.3125 58.59375 39.234375 62.25 
Q 35.15625 65.921875 28.609375 65.921875 
Q 23.96875 65.921875 18.8125 64.3125 
Q 13.671875 62.703125 7.8125 59.421875 
L 7.8125 69.390625 
Q 13.765625 71.78125 18.9375 73 
Q 24.125 74.21875 28.421875 74.21875 
Q 39.75 74.21875 46.484375 68.546875 
Q 53.21875 62.890625 53.21875 53.421875 
Q 53.21875 48.921875 51.53125 44.890625 
Q 49.859375 40.875 45.40625 35.40625 
Q 44.1875 33.984375 37.640625 27.21875 
Q 31.109375 20.453125 19.1875 8.296875 
z
" id="DejaVuSans-32"/>
      </defs>
      <g transform="translate(113.944522 322.182437)scale(0.1 -0.1)">
       <use xlink:href="#DejaVuSans-32"/>
      </g>
     </g>
    </g>
    <g id="xtick_3">
     <g id="line2d_3">
      <g>
       <use style="stroke:#000000;stroke-width:0.8;" x="160.418818" xlink:href="#m2f9dc075ff" y="307.584"/>
      </g>
     </g>
     <g id="text_3">
      <!-- 4 -->
      <defs>
       <path d="M 37.796875 64.3125 
L 12.890625 25.390625 
L 37.796875 25.390625 
z
M 35.203125 72.90625 
L 47.609375 72.90625 
L 47.609375 25.390625 
L 58.015625 25.390625 
L 58.015625 17.1875 
L 47.609375 17.1875 
L 47.609375 0 
L 37.796875 0 
L 37.796875 17.1875 
L 4.890625 17.1875 
L 4.890625 26.703125 
z
" id="DejaVuSans-34"/>
      </defs>
      <g transform="translate(157.237568 322.182437)scale(0.1 -0.1)">
       <use xlink:href="#DejaVuSans-34"/>
      </g>
     </g>
    </g>
    <g id="xtick_4">
     <g id="line2d_4">
      <g>
       <use style="stroke:#000000;stroke-width:0.8;" x="203.711863" xlink:href="#m2f9dc075ff" y="307.584"/>
      </g>
     </g>
     <g id="text_4">
      <!-- 6 -->
      <defs>
       <path d="M 33.015625 40.375 
Q 26.375 40.375 22.484375 35.828125 
Q 18.609375 31.296875 18.609375 23.390625 
Q 18.609375 15.53125 22.484375 10.953125 
Q 26.375 6.390625 33.015625 6.390625 
Q 39.65625 6.390625 43.53125 10.953125 
Q 47.40625 15.53125 47.40625 23.390625 
Q 47.40625 31.296875 43.53125 35.828125 
Q 39.65625 40.375 33.015625 40.375 
z
M 52.59375 71.296875 
L 52.59375 62.3125 
Q 48.875 64.0625 45.09375 64.984375 
Q 41.3125 65.921875 37.59375 65.921875 
Q 27.828125 65.921875 22.671875 59.328125 
Q 17.53125 52.734375 16.796875 39.40625 
Q 19.671875 43.65625 24.015625 45.921875 
Q 28.375 48.1875 33.59375 48.1875 
Q 44.578125 48.1875 50.953125 41.515625 
Q 57.328125 34.859375 57.328125 23.390625 
Q 57.328125 12.15625 50.6875 5.359375 
Q 44.046875 -1.421875 33.015625 -1.421875 
Q 20.359375 -1.421875 13.671875 8.265625 
Q 6.984375 17.96875 6.984375 36.375 
Q 6.984375 53.65625 15.1875 63.9375 
Q 23.390625 74.21875 37.203125 74.21875 
Q 40.921875 74.21875 44.703125 73.484375 
Q 48.484375 72.75 52.59375 71.296875 
z
" id="DejaVuSans-36"/>
      </defs>
      <g transform="translate(200.530613 322.182437)scale(0.1 -0.1)">
       <use xlink:href="#DejaVuSans-36"/>
      </g>
     </g>
    </g>
    <g id="xtick_5">
     <g id="line2d_5">
      <g>
       <use style="stroke:#000000;stroke-width:0.8;" x="247.004908" xlink:href="#m2f9dc075ff" y="307.584"/>
      </g>
     </g>
     <g id="text_5">
      <!-- 8 -->
      <defs>
       <path d="M 31.78125 34.625 
Q 24.75 34.625 20.71875 30.859375 
Q 16.703125 27.09375 16.703125 20.515625 
Q 16.703125 13.921875 20.71875 10.15625 
Q 24.75 6.390625 31.78125 6.390625 
Q 38.8125 6.390625 42.859375 10.171875 
Q 46.921875 13.96875 46.921875 20.515625 
Q 46.921875 27.09375 42.890625 30.859375 
Q 38.875 34.625 31.78125 34.625 
z
M 21.921875 38.8125 
Q 15.578125 40.375 12.03125 44.71875 
Q 8.5 49.078125 8.5 55.328125 
Q 8.5 64.0625 14.71875 69.140625 
Q 20.953125 74.21875 31.78125 74.21875 
Q 42.671875 74.21875 48.875 69.140625 
Q 55.078125 64.0625 55.078125 55.328125 
Q 55.078125 49.078125 51.53125 44.71875 
Q 48 40.375 41.703125 38.8125 
Q 48.828125 37.15625 52.796875 32.3125 
Q 56.78125 27.484375 56.78125 20.515625 
Q 56.78125 9.90625 50.3125 4.234375 
Q 43.84375 -1.421875 31.78125 -1.421875 
Q 19.734375 -1.421875 13.25 4.234375 
Q 6.78125 9.90625 6.78125 20.515625 
Q 6.78125 27.484375 10.78125 32.3125 
Q 14.796875 37.15625 21.921875 38.8125 
z
M 18.3125 54.390625 
Q 18.3125 48.734375 21.84375 45.5625 
Q 25.390625 42.390625 31.78125 42.390625 
Q 38.140625 42.390625 41.71875 45.5625 
Q 45.3125 48.734375 45.3125 54.390625 
Q 45.3125 60.0625 41.71875 63.234375 
Q 38.140625 66.40625 31.78125 66.40625 
Q 25.390625 66.40625 21.84375 63.234375 
Q 18.3125 60.0625 18.3125 54.390625 
z
" id="DejaVuSans-38"/>
      </defs>
      <g transform="translate(243.823658 322.182437)scale(0.1 -0.1)">
       <use xlink:href="#DejaVuSans-38"/>
      </g>
     </g>
    </g>
    <g id="xtick_6">
     <g id="line2d_6">
      <g>
       <use style="stroke:#000000;stroke-width:0.8;" x="290.297953" xlink:href="#m2f9dc075ff" y="307.584"/>
      </g>
     </g>
     <g id="text_6">
      <!-- 10 -->
      <defs>
       <path d="M 12.40625 8.296875 
L 28.515625 8.296875 
L 28.515625 63.921875 
L 10.984375 60.40625 
L 10.984375 69.390625 
L 28.421875 72.90625 
L 38.28125 72.90625 
L 38.28125 8.296875 
L 54.390625 8.296875 
L 54.390625 0 
L 12.40625 0 
z
" id="DejaVuSans-31"/>
      </defs>
      <g transform="translate(283.935453 322.182437)scale(0.1 -0.1)">
       <use xlink:href="#DejaVuSans-31"/>
       <use x="63.623047" xlink:href="#DejaVuSans-30"/>
      </g>
     </g>
    </g>
    <g id="xtick_7">
     <g id="line2d_7">
      <g>
       <use style="stroke:#000000;stroke-width:0.8;" x="333.590998" xlink:href="#m2f9dc075ff" y="307.584"/>
      </g>
     </g>
     <g id="text_7">
      <!-- 12 -->
      <g transform="translate(327.228498 322.182437)scale(0.1 -0.1)">
       <use xlink:href="#DejaVuSans-31"/>
       <use x="63.623047" xlink:href="#DejaVuSans-32"/>
      </g>
     </g>
    </g>
    <g id="xtick_8">
     <g id="line2d_8">
      <g>
       <use style="stroke:#000000;stroke-width:0.8;" x="376.884043" xlink:href="#m2f9dc075ff" y="307.584"/>
      </g>
     </g>
     <g id="text_8">
      <!-- 14 -->
      <g transform="translate(370.521543 322.182437)scale(0.1 -0.1)">
       <use xlink:href="#DejaVuSans-31"/>
       <use x="63.623047" xlink:href="#DejaVuSans-34"/>
      </g>
     </g>
    </g>
   </g>
   <g id="matplotlib.axis_2">
    <g id="ytick_1">
     <g id="line2d_9">
      <defs>
       <path d="M 0 0 
L -3.5 0 
" id="mf275b24329" style="stroke:#000000;stroke-width:0.8;"/>
      </defs>
      <g>
       <use style="stroke:#000000;stroke-width:0.8;" x="57.6" xlink:href="#mf275b24329" y="278.707493"/>
      </g>
     </g>
     <g id="text_9">
      <!-- −10000 -->
      <defs>
       <path d="M 10.59375 35.5 
L 73.1875 35.5 
L 73.1875 27.203125 
L 10.59375 27.203125 
z
" id="DejaVuSans-2212"/>
      </defs>
      <g transform="translate(10.407812 282.506712)scale(0.1 -0.1)">
       <use xlink:href="#DejaVuSans-2212"/>
       <use x="83.789062" xlink:href="#DejaVuSans-31"/>
       <use x="147.412109" xlink:href="#DejaVuSans-30"/>
       <use x="211.035156" xlink:href="#DejaVuSans-30"/>
       <use x="274.658203" xlink:href="#DejaVuSans-30"/>
       <use x="338.28125" xlink:href="#DejaVuSans-30"/>
      </g>
     </g>
    </g>
    <g id="ytick_2">
     <g id="line2d_10">
      <g>
       <use style="stroke:#000000;stroke-width:0.8;" x="57.6" xlink:href="#mf275b24329" y="238.657828"/>
      </g>
     </g>
     <g id="text_10">
      <!-- 0 -->
      <g transform="translate(44.2375 242.457047)scale(0.1 -0.1)">
       <use xlink:href="#DejaVuSans-30"/>
      </g>
     </g>
    </g>
    <g id="ytick_3">
     <g id="line2d_11">
      <g>
       <use style="stroke:#000000;stroke-width:0.8;" x="57.6" xlink:href="#mf275b24329" y="198.608164"/>
      </g>
     </g>
     <g id="text_11">
      <!-- 10000 -->
      <g transform="translate(18.7875 202.407382)scale(0.1 -0.1)">
       <use xlink:href="#DejaVuSans-31"/>
       <use x="63.623047" xlink:href="#DejaVuSans-30"/>
       <use x="127.246094" xlink:href="#DejaVuSans-30"/>
       <use x="190.869141" xlink:href="#DejaVuSans-30"/>
       <use x="254.492188" xlink:href="#DejaVuSans-30"/>
      </g>
     </g>
    </g>
    <g id="ytick_4">
     <g id="line2d_12">
      <g>
       <use style="stroke:#000000;stroke-width:0.8;" x="57.6" xlink:href="#mf275b24329" y="158.558499"/>
      </g>
     </g>
     <g id="text_12">
      <!-- 20000 -->
      <g transform="translate(18.7875 162.357718)scale(0.1 -0.1)">
       <use xlink:href="#DejaVuSans-32"/>
       <use x="63.623047" xlink:href="#DejaVuSans-30"/>
       <use x="127.246094" xlink:href="#DejaVuSans-30"/>
       <use x="190.869141" xlink:href="#DejaVuSans-30"/>
       <use x="254.492188" xlink:href="#DejaVuSans-30"/>
      </g>
     </g>
    </g>
    <g id="ytick_5">
     <g id="line2d_13">
      <g>
       <use style="stroke:#000000;stroke-width:0.8;" x="57.6" xlink:href="#mf275b24329" y="118.508834"/>
      </g>
     </g>
     <g id="text_13">
      <!-- 30000 -->
      <defs>
       <path d="M 40.578125 39.3125 
Q 47.65625 37.796875 51.625 33 
Q 55.609375 28.21875 55.609375 21.1875 
Q 55.609375 10.40625 48.1875 4.484375 
Q 40.765625 -1.421875 27.09375 -1.421875 
Q 22.515625 -1.421875 17.65625 -0.515625 
Q 12.796875 0.390625 7.625 2.203125 
L 7.625 11.71875 
Q 11.71875 9.328125 16.59375 8.109375 
Q 21.484375 6.890625 26.8125 6.890625 
Q 36.078125 6.890625 40.9375 10.546875 
Q 45.796875 14.203125 45.796875 21.1875 
Q 45.796875 27.640625 41.28125 31.265625 
Q 36.765625 34.90625 28.71875 34.90625 
L 20.21875 34.90625 
L 20.21875 43.015625 
L 29.109375 43.015625 
Q 36.375 43.015625 40.234375 45.921875 
Q 44.09375 48.828125 44.09375 54.296875 
Q 44.09375 59.90625 40.109375 62.90625 
Q 36.140625 65.921875 28.71875 65.921875 
Q 24.65625 65.921875 20.015625 65.03125 
Q 15.375 64.15625 9.8125 62.3125 
L 9.8125 71.09375 
Q 15.4375 72.65625 20.34375 73.4375 
Q 25.25 74.21875 29.59375 74.21875 
Q 40.828125 74.21875 47.359375 69.109375 
Q 53.90625 64.015625 53.90625 55.328125 
Q 53.90625 49.265625 50.4375 45.09375 
Q 46.96875 40.921875 40.578125 39.3125 
z
" id="DejaVuSans-33"/>
      </defs>
      <g transform="translate(18.7875 122.308053)scale(0.1 -0.1)">
       <use xlink:href="#DejaVuSans-33"/>
       <use x="63.623047" xlink:href="#DejaVuSans-30"/>
       <use x="127.246094" xlink:href="#DejaVuSans-30"/>
       <use x="190.869141" xlink:href="#DejaVuSans-30"/>
       <use x="254.492188" xlink:href="#DejaVuSans-30"/>
      </g>
     </g>
    </g>
    <g id="ytick_6">
     <g id="line2d_14">
      <g>
       <use style="stroke:#000000;stroke-width:0.8;" x="57.6" xlink:href="#mf275b24329" y="78.459169"/>
      </g>
     </g>
     <g id="text_14">
      <!-- 40000 -->
      <g transform="translate(18.7875 82.258388)scale(0.1 -0.1)">
       <use xlink:href="#DejaVuSans-34"/>
       <use x="63.623047" xlink:href="#DejaVuSans-30"/>
       <use x="127.246094" xlink:href="#DejaVuSans-30"/>
       <use x="190.869141" xlink:href="#DejaVuSans-30"/>
       <use x="254.492188" xlink:href="#DejaVuSans-30"/>
      </g>
     </g>
    </g>
   </g>
   <g id="line2d_15">
    <path clip-path="url(#pf3c0ce2552)" d="M 73.832727 234.668579 
L 73.919313 217.25098 
L 73.962606 218.140082 
L 74.135779 232.594006 
L 74.525416 260.044047 
L 74.568709 260.560687 
L 74.87176 227.872151 
L 75.088226 242.562368 
L 75.347984 268.794898 
L 75.391277 267.413185 
L 75.780914 227.375535 
L 76.170552 268.574625 
L 76.213845 264.769907 
L 76.646775 223.302484 
L 76.690068 227.163272 
L 76.906533 250.271928 
L 77.036413 241.7814 
L 77.252878 188.194948 
L 77.469343 109.529397 
L 77.685808 82.011272 
L 77.729101 82.123411 
L 77.815687 85.836015 
L 78.291911 208.720401 
L 78.378497 212.909596 
L 78.465083 225.849643 
L 78.724841 268.61868 
L 78.768134 273.520759 
L 78.854721 272.23917 
L 79.071186 243.103038 
L 79.114479 245.742311 
L 79.201065 244.933308 
L 79.244358 245.626167 
L 79.287651 243.407416 
L 79.330944 246.575344 
L 79.633995 273.584838 
L 79.677288 267.160872 
L 79.937047 234.348182 
L 79.98034 234.011765 
L 80.066926 227.623843 
L 80.110219 227.699937 
L 80.369977 256.739949 
L 80.543149 260.90111 
L 80.673028 252.851127 
L 80.97608 220.20264 
L 81.365717 260.82101 
L 81.538889 253.62809 
L 81.712061 227.279416 
L 81.798648 222.55756 
L 81.841941 224.592083 
L 82.188285 256.872113 
L 82.274871 261.149417 
L 82.318164 259.090865 
L 82.40475 248.754046 
L 82.534629 215.316581 
L 82.577922 215.576904 
L 82.707802 219.914283 
L 82.837681 232.565972 
L 83.054146 258.45007 
L 83.097439 254.489158 
L 83.270611 247.328278 
L 83.443783 212.653278 
L 83.487076 212.212732 
L 83.660249 221.251941 
L 83.746835 230.022818 
L 83.920007 252.558764 
L 84.136472 243.119058 
L 84.352937 206.950206 
L 84.39623 204.831579 
L 84.439523 204.963743 
L 84.569402 219.57386 
L 84.742575 232.938434 
L 84.872454 240.55588 
L 84.95904 238.573421 
L 85.262091 196.529283 
L 85.348677 203.854367 
L 85.651729 228.785283 
L 85.738315 233.899626 
L 86.084659 184.706622 
L 86.171245 193.289265 
L 86.214538 194.731053 
L 86.257831 192.408173 
L 86.301124 193.689762 
L 86.517589 220.254705 
L 86.690762 204.843594 
L 86.95052 172.843912 
L 86.993813 172.46344 
L 87.037106 172.843912 
L 87.38345 205.304165 
L 87.426743 205.047847 
L 87.773088 165.158381 
L 87.816381 166.544099 
L 87.94626 171.133791 
L 87.989553 171.281975 
L 88.076139 179.444096 
L 88.162725 200.189823 
L 88.249311 199.240646 
L 88.37919 204.202799 
L 88.638949 177.922209 
L 88.725535 175.715473 
L 88.768828 177.713951 
L 89.158465 229.818565 
L 89.37493 210.590721 
L 89.461517 197.522515 
L 89.548103 198.055176 
L 89.721275 210.570696 
L 89.981033 249.651159 
L 90.024326 249.823372 
L 90.110912 250.712475 
L 90.327377 219.089259 
L 90.370671 219.04921 
L 90.630429 233.214776 
L 90.890187 263.556402 
L 90.93348 263.988939 
L 91.279824 222.845918 
L 91.323118 223.402608 
L 91.799341 267.036718 
L 91.842634 261.870311 
L 91.92922 239.618718 
L 91.972513 242.045727 
L 92.015806 241.140605 
L 92.102392 230.735702 
L 92.145685 230.755727 
L 92.275564 243.587639 
L 92.318858 239.558643 
L 92.362151 240.227473 
L 92.621909 264.46553 
L 92.665202 264.38543 
L 93.011546 222.641665 
L 93.098132 229.966748 
L 93.357891 264.117098 
L 93.401184 262.362922 
L 93.444477 259.02278 
L 93.48777 260.500613 
L 93.531063 266.107566 
L 93.574356 263.672546 
L 93.790821 230.447344 
L 93.877407 223.698976 
L 93.9207 225.088699 
L 94.396924 267.673508 
L 94.613389 235.681836 
L 94.743268 224.564049 
L 94.786561 230.034833 
L 94.91644 235.966188 
L 95.219492 269.720046 
L 95.262785 268.294278 
L 95.522543 230.763737 
L 95.565836 230.483389 
L 95.652422 227.459639 
L 95.782301 238.713595 
L 95.998766 262.406977 
L 96.085352 269.23144 
L 96.128646 265.719084 
L 96.345111 229.834585 
L 96.431697 223.81512 
L 96.47499 219.333562 
L 96.518283 223.811115 
L 96.691455 238.397203 
L 96.951213 268.782884 
L 96.994506 266.451993 
L 97.254265 224.207607 
L 97.297558 220.627167 
L 97.340851 220.983609 
L 97.817074 267.913806 
L 97.860367 265.951372 
L 98.120126 224.279696 
L 98.163419 224.251661 
L 98.206712 222.677709 
L 98.250005 224.740267 
L 98.682935 275.170805 
L 98.726228 267.008683 
L 98.942693 229.073641 
L 99.115866 222.145049 
L 99.548796 268.198158 
L 99.851847 226.121981 
L 99.89514 226.834865 
L 99.938433 225.797578 
L 99.981727 225.709469 
L 100.02502 226.406333 
L 100.371364 271.866708 
L 100.45795 255.210052 
L 100.631122 241.573141 
L 100.804294 222.129029 
L 100.847587 223.747036 
L 101.150639 255.838832 
L 101.237225 264.773912 
L 101.280518 262.459041 
L 101.496983 237.59621 
L 101.626862 225.449146 
L 101.670155 225.901707 
L 101.843327 239.074042 
L 102.103086 268.214178 
L 102.146379 267.260996 
L 102.492723 223.430643 
L 102.622602 231.144209 
L 102.752481 243.431446 
L 102.968947 267.024703 
L 103.315291 227.743992 
L 103.401877 224.588078 
L 103.834808 263.135881 
L 104.051273 238.124865 
L 104.267738 216.193669 
L 104.397617 228.192548 
L 104.614082 249.975561 
L 104.700668 255.310176 
L 104.743961 252.983291 
L 104.917134 227.543744 
L 105.090306 214.343374 
L 105.133599 215.817202 
L 105.176892 216.277773 
L 105.306771 228.861378 
L 105.523236 258.265842 
L 105.609822 255.966991 
L 105.653115 256.727934 
L 105.99946 220.1706 
L 106.042753 221.392115 
L 106.259218 246.971836 
L 106.43239 269.271489 
L 106.778735 229.474138 
L 106.951907 237.159668 
L 106.9952 236.542903 
L 107.038493 234.240048 
L 107.298251 265.426722 
L 107.601302 235.057061 
L 107.731182 222.55756 
L 107.774475 225.449146 
L 108.034233 259.018775 
L 108.120819 272.895984 
L 108.164112 267.421195 
L 108.813508 196.144807 
L 108.856801 197.194108 
L 108.943387 192.075761 
L 109.116559 147.051927 
L 109.462903 53.568 
L 109.592783 104.238836 
L 109.939127 244.484752 
L 110.069006 239.130112 
L 110.155592 230.138962 
L 110.198885 232.702141 
L 110.242178 236.751162 
L 110.285471 234.812758 
L 110.328764 231.865103 
L 110.372057 232.421793 
L 110.458643 239.562648 
L 110.718402 283.833548 
L 110.761695 276.684682 
L 110.804988 277.641869 
L 110.848281 276.684682 
L 111.151332 233.731417 
L 111.194625 234.448306 
L 111.41109 244.961343 
L 111.584263 268.923057 
L 111.627556 265.158389 
L 111.800728 248.165316 
L 111.9739 228.885407 
L 112.017193 231.324432 
L 112.060486 235.009001 
L 112.103779 234.61251 
L 112.190365 226.370289 
L 112.233658 231.700899 
L 112.40683 268.170124 
L 112.450124 261.894341 
L 112.883054 224.163552 
L 112.96964 225.54927 
L 113.056226 230.239086 
L 113.272691 266.379904 
L 113.315984 256.856093 
L 113.835501 220.362839 
L 113.878794 221.111768 
L 113.96538 231.116174 
L 114.138552 254.553238 
L 114.225138 252.282422 
L 114.268431 254.152741 
L 114.311724 251.749761 
L 114.398311 243.49953 
L 114.614776 216.61419 
L 114.874534 236.350665 
L 115.004413 259.182979 
L 115.047706 254.761496 
L 115.264171 239.546628 
L 115.437344 212.533129 
L 115.480637 214.147131 
L 115.567223 218.716798 
L 115.610516 216.449987 
L 115.653809 216.886528 
L 115.870274 249.210612 
L 115.913567 244.560846 
L 116.000153 245.473979 
L 116.433084 207.919408 
L 116.736135 241.416948 
L 116.779428 234.388231 
L 116.822721 233.246816 
L 116.866014 235.669821 
L 116.909307 233.218781 
L 116.9526 230.923935 
L 117.212358 195.804384 
L 117.255652 195.944558 
L 117.688582 231.528685 
L 118.034926 182.908392 
L 118.078219 184.470329 
L 118.164805 190.409695 
L 118.208099 189.644746 
L 118.251392 188.371167 
L 118.337978 198.756045 
L 118.424564 215.725088 
L 118.467857 212.40497 
L 118.554443 212.553154 
L 118.597736 210.274328 
L 118.900787 171.133791 
L 118.987373 173.096224 
L 119.030666 169.764092 
L 119.073959 170.921528 
L 119.290425 205.572498 
L 119.420304 201.827854 
L 119.463597 202.168276 
L 119.50689 200.850642 
L 119.809941 168.326309 
L 119.853234 169.551829 
L 120.329458 217.351104 
L 120.589216 184.318141 
L 120.632509 185.151174 
L 120.892267 206.401526 
L 121.108733 235.814 
L 121.152026 239.430484 
L 121.195319 236.582953 
L 121.541663 209.345176 
L 121.584956 211.84027 
L 121.671542 218.424435 
L 122.017887 258.638303 
L 122.06118 257.348704 
L 122.364231 224.892456 
L 122.407524 225.421111 
L 122.840454 260.568697 
L 122.883747 260.624767 
L 123.013627 254.957739 
L 123.273385 225.296958 
L 123.316678 226.658646 
L 123.446557 236.35467 
L 123.749608 267.260996 
L 123.966074 244.721045 
L 124.095953 223.158305 
L 124.139246 225.212853 
L 124.572176 263.612472 
L 124.615469 261.337651 
L 124.918521 239.37842 
L 124.961814 238.68556 
L 125.0484 233.218781 
L 125.091693 234.087859 
L 125.178279 236.98345 
L 125.438037 276.071923 
L 125.48133 268.574625 
L 125.784381 232.565972 
L 125.827674 231.969232 
L 125.914261 235.269324 
L 125.957554 231.01605 
L 126.000847 233.374975 
L 126.087433 247.240169 
L 126.260605 264.345381 
L 126.347191 270.757332 
L 126.693535 228.428841 
L 126.736828 229.714436 
L 127.213052 272.447428 
L 127.256345 270.012408 
L 127.47281 233.9597 
L 127.559396 223.374574 
L 127.602689 223.562807 
L 127.992327 264.882046 
L 128.03562 265.855253 
L 128.078913 264.910081 
L 128.46855 226.682676 
L 128.511843 228.893417 
L 128.901481 265.466771 
L 128.988067 263.344139 
L 129.204532 234.428281 
L 129.247825 225.361037 
L 129.291118 230.307171 
L 129.334411 241.060506 
L 129.377704 235.533652 
L 129.420997 227.331481 
L 129.46429 229.842594 
L 129.767342 258.598254 
L 129.810635 257.568977 
L 130.113686 226.466408 
L 130.200272 232.377738 
L 130.243565 232.7502 
L 130.286858 231.825053 
L 130.676496 263.448268 
L 130.719789 259.239048 
L 131.109426 225.585315 
L 131.45577 264.846001 
L 131.499063 266.363884 
L 131.542356 266.275775 
L 131.931994 228.961502 
L 131.975287 228.665134 
L 132.105166 244.192389 
L 132.364924 263.227995 
L 132.408217 264.169162 
L 132.797855 227.023098 
L 132.841148 230.034833 
L 133.274078 267.621443 
L 133.620423 226.101956 
L 133.663716 226.138 
L 133.707009 226.995063 
L 134.053353 265.494806 
L 134.096646 263.676551 
L 134.57287 230.162992 
L 134.659456 234.844798 
L 134.919214 266.311819 
L 134.962507 265.370652 
L 135.395437 225.957777 
L 135.43873 227.96026 
L 135.741782 259.391237 
L 135.871661 263.27205 
L 136.00154 252.198317 
L 136.261298 223.650916 
L 136.347884 229.626326 
L 136.521057 249.038399 
L 136.650936 255.774752 
L 136.99728 230.743712 
L 137.083866 215.176407 
L 137.127159 215.833222 
L 137.170452 215.893296 
L 137.473504 253.912443 
L 137.56009 251.741751 
L 137.603383 250.70046 
L 137.863141 221.856691 
L 137.949727 219.770104 
L 137.99302 220.322789 
L 138.382658 263.668541 
L 138.55583 254.89366 
L 138.772295 229.686401 
L 138.945467 239.058022 
L 139.248518 269.696016 
L 139.291812 268.698779 
L 139.681449 231.076124 
L 139.811328 243.551595 
L 139.854621 241.957618 
L 139.897914 237.103599 
L 140.114379 265.526846 
L 140.200965 263.908839 
L 140.330845 249.987576 
L 140.54731 229.630331 
L 140.633896 226.999068 
L 140.936947 262.767424 
L 140.98024 262.226753 
L 141.110119 240.239487 
L 141.456464 135.165187 
L 141.629636 102.168268 
L 141.672929 102.348492 
L 141.716222 104.202791 
L 141.846101 88.86377 
L 141.889394 90.54986 
L 142.408911 216.886528 
L 142.798548 266.944604 
L 142.841841 264.805952 
L 143.101599 239.987175 
L 143.144893 236.835266 
L 143.188186 239.130112 
L 143.491237 268.210173 
L 143.577823 278.378783 
L 143.621116 277.754008 
L 143.96746 228.773268 
L 144.010753 228.444861 
L 144.054046 226.310214 
L 144.140633 244.16836 
L 144.183926 236.446784 
L 144.227219 236.490839 
L 144.486977 268.630695 
L 144.53027 266.956619 
L 144.833321 225.256908 
L 144.876614 226.466408 
L 144.919907 227.703942 
L 145.006493 239.931105 
L 145.049787 234.860817 
L 145.09308 235.721885 
L 145.309545 263.22399 
L 145.352838 260.228275 
L 145.699182 230.619558 
L 145.742475 232.13744 
L 145.785768 232.385748 
L 145.95894 241.589161 
L 146.002234 242.37814 
L 146.218699 261.630013 
L 146.261992 255.358236 
L 146.478457 228.705184 
L 146.608336 217.579387 
L 146.651629 220.631172 
L 146.738215 233.559203 
L 146.781508 224.295716 
L 146.824801 231.224308 
L 147.041267 257.144451 
L 147.08456 257.332684 
L 147.257732 234.360197 
L 147.430904 220.190625 
L 147.51749 218.007919 
L 147.733955 240.471776 
L 147.907127 255.254107 
L 148.0803 249.098473 
L 148.296765 210.286343 
L 148.340058 210.258308 
L 148.772988 249.851407 
L 148.816281 249.326756 
L 149.119333 206.205282 
L 149.205919 207.142444 
L 149.292505 214.367404 
L 149.335798 207.847319 
L 149.379091 211.732136 
L 149.638849 241.601176 
L 149.682142 242.213936 
L 149.768728 230.923935 
L 149.985194 196.781596 
L 150.028487 198.011121 
L 150.158366 210.602736 
L 150.244952 201.455392 
L 150.461417 221.964825 
L 150.50471 222.885968 
L 150.894348 174.78632 
L 150.937641 178.498924 
L 150.980934 182.952447 
L 151.024227 181.835061 
L 151.06752 176.007835 
L 151.110813 179.311932 
L 151.370571 209.056818 
L 151.413864 209.481345 
L 151.760209 162.170676 
L 151.846795 171.322024 
L 152.279725 210.758929 
L 152.323018 207.939433 
L 152.626069 177.185295 
L 152.669362 172.571574 
L 153.059 229.313939 
L 153.102293 230.267121 
L 153.188879 222.677709 
L 153.448637 196.116772 
L 153.49193 196.633412 
L 153.708396 219.341572 
L 153.968154 271.894742 
L 154.011447 270.681238 
L 154.227912 217.058741 
L 154.444377 224.732257 
L 154.48767 222.237163 
L 154.790722 262.314863 
L 154.834015 261.830262 
L 155.137066 228.61307 
L 155.180359 228.709189 
L 155.223652 229.406053 
L 155.266945 233.567213 
L 155.310238 233.046568 
L 155.353531 228.817323 
L 155.396824 233.723407 
L 155.656583 264.938116 
L 155.699876 264.954136 
L 155.743169 264.337371 
L 156.04622 230.259111 
L 156.089513 231.204283 
L 156.349271 251.269165 
L 156.47915 263.147896 
L 156.522443 267.240971 
L 156.60903 265.178414 
L 156.652323 265.010205 
L 156.782202 246.415146 
L 156.955374 229.538217 
L 157.431597 269.431688 
L 157.47489 267.180897 
L 157.777942 229.778515 
L 157.821235 232.229555 
L 157.864528 237.784443 
L 157.907821 230.803786 
L 157.951114 232.590001 
L 158.254165 269.724051 
L 158.297458 269.940319 
L 158.340751 268.762859 
L 158.643803 236.478824 
L 158.687096 240.099314 
L 158.730389 240.812198 
L 158.773682 226.75877 
L 158.816975 230.603538 
L 158.990147 261.225512 
L 159.03344 259.915888 
L 159.206612 267.140847 
L 159.509664 233.495124 
L 159.59625 237.484071 
L 159.639543 233.763457 
L 159.682836 236.010243 
L 159.769422 245.838431 
L 159.856008 260.24029 
L 159.899301 259.06283 
L 159.942594 256.60378 
L 159.985887 259.154944 
L 160.072473 270.617158 
L 160.115766 265.182419 
L 160.332231 231.488636 
L 160.375524 232.273609 
L 160.418818 232.610026 
L 160.462111 231.873112 
L 160.505404 231.937192 
L 160.895041 270.785367 
L 160.938334 269.127311 
L 161.241385 234.492361 
L 161.284678 234.228033 
L 161.371265 224.159547 
L 161.414558 230.058863 
L 161.760902 268.394402 
L 162.02066 236.723127 
L 162.107246 234.700619 
L 162.150539 240.53986 
L 162.193832 239.37842 
L 162.237125 232.938434 
L 162.280418 234.280097 
L 162.410298 250.500212 
L 162.453591 261.113373 
L 162.540177 260.340414 
L 162.58347 262.783444 
L 162.626763 261.225512 
L 162.843228 241.376898 
L 162.929814 228.084414 
L 162.973107 232.690126 
L 163.0164 236.843276 
L 163.059693 232.189505 
L 163.102986 230.783762 
L 163.146279 232.489877 
L 163.232865 240.832222 
L 163.449331 266.82045 
L 163.492624 269.187385 
L 163.535917 265.823213 
L 163.795675 231.108164 
L 163.838968 235.509622 
L 163.882261 235.253304 
L 163.925554 228.54098 
L 163.968847 231.496646 
L 164.098726 244.420672 
L 164.228606 264.866026 
L 164.271899 264.625728 
L 164.315192 265.230478 
L 164.358485 264.669783 
L 164.488364 258.249822 
L 164.748122 230.535454 
L 164.791415 228.104439 
L 164.834708 230.563488 
L 165.137759 263.26404 
L 165.181053 264.757892 
L 165.224346 263.167921 
L 165.484104 241.769385 
L 165.657276 226.902949 
L 166.046913 267.933831 
L 166.090206 267.200922 
L 166.523137 230.315181 
L 166.956067 265.939357 
L 167.345705 229.001552 
L 167.388998 229.918689 
L 167.778635 264.565654 
L 167.865221 262.655285 
L 168.168273 232.938434 
L 168.211566 225.389072 
L 168.254859 226.670661 
L 168.55791 263.612472 
L 168.731082 266.363884 
L 169.077427 229.458118 
L 169.12072 230.655603 
L 169.293892 241.541102 
L 169.510357 267.761617 
L 169.55365 268.094029 
L 169.943287 217.867745 
L 169.986581 222.177089 
L 170.376218 260.160191 
L 170.462804 251.809836 
L 170.679269 227.96026 
L 170.722562 229.029586 
L 170.809148 215.737103 
L 170.852441 218.440455 
L 171.285372 257.809275 
L 171.458544 240.427721 
L 171.675009 216.257748 
L 172.151233 266.512068 
L 172.194526 265.554881 
L 172.584163 231.036074 
L 172.627456 232.365723 
L 172.930508 271.334047 
L 172.973801 270.220667 
L 173.363438 230.815801 
L 173.406731 231.965227 
L 173.839662 271.674469 
L 173.882955 271.177853 
L 173.969541 266.275775 
L 174.272592 220.611147 
L 174.402471 242.137842 
L 174.445764 238.16091 
L 174.921988 152.050126 
L 175.181746 77.878147 
L 175.311625 70.813386 
L 175.52809 155.606536 
L 175.787849 225.769544 
L 175.831142 225.709469 
L 175.874435 226.113971 
L 175.961021 210.814999 
L 176.004314 212.368926 
L 176.437244 276.472419 
L 176.610416 267.921816 
L 176.870175 241.593166 
L 176.913468 239.042002 
L 176.956761 242.105802 
L 177.173226 267.180897 
L 177.216519 264.749882 
L 177.303105 260.993224 
L 177.389691 266.976644 
L 177.736036 228.6371 
L 177.779329 229.754485 
L 178.168966 272.615636 
L 178.472017 240.479785 
L 178.558603 228.544985 
L 178.601896 229.598292 
L 178.991534 263.528368 
L 179.07812 260.044047 
L 179.207999 252.734983 
L 179.424464 220.611147 
L 179.597637 232.938434 
L 179.900688 262.911603 
L 180.07386 246.290992 
L 180.290325 223.098231 
L 180.376911 225.160789 
L 180.723256 264.057023 
L 180.809842 257.79726 
L 181.112893 228.264638 
L 181.156186 228.212573 
L 181.242772 222.58159 
L 181.415944 238.957898 
L 181.459237 238.453272 
L 181.589117 250.139765 
L 181.63241 247.13604 
L 181.762289 241.74135 
L 181.978754 214.827975 
L 182.06534 210.770944 
L 182.108633 213.486311 
L 182.454978 248.561808 
L 182.584857 243.323312 
L 182.887908 204.875633 
L 182.931201 207.046325 
L 182.974494 212.312856 
L 183.017787 210.202239 
L 183.06108 209.148933 
L 183.320838 235.241289 
L 183.407425 234.396241 
L 183.62389 207.182494 
L 183.710476 192.748595 
L 183.753769 193.209166 
L 183.840355 198.023136 
L 183.883648 196.405129 
L 183.926941 194.514785 
L 184.186699 224.035393 
L 184.229992 223.458678 
L 184.489751 190.493799 
L 184.61963 173.889208 
L 184.662923 175.106718 
L 185.009267 205.604537 
L 185.095853 214.940114 
L 185.139146 214.155141 
L 185.442198 167.365117 
L 185.485491 166.383901 
L 185.61537 175.851641 
L 185.918421 213.213974 
L 186.005007 210.798979 
L 186.134886 202.036112 
L 186.308059 182.239563 
L 186.351352 183.21277 
L 186.481231 192.552352 
L 186.784282 234.956937 
L 186.827575 237.468051 
L 186.870868 236.530889 
L 186.914161 232.525922 
L 186.957454 233.823531 
L 187.000747 236.174446 
L 187.173919 206.958216 
L 187.217212 208.992739 
L 187.650143 260.136161 
L 187.693436 257.540943 
L 187.909901 240.235482 
L 188.03978 226.158025 
L 188.169659 228.340732 
L 188.60259 267.224952 
L 188.732469 257.717161 
L 188.819055 240.207448 
L 188.905641 229.686401 
L 188.948934 230.627568 
L 189.122106 237.756408 
L 189.381865 267.809677 
L 189.425158 265.995427 
L 189.641623 242.998909 
L 189.771502 229.998788 
L 189.814795 231.789008 
L 190.204433 268.726814 
L 190.464191 254.365004 
L 190.550777 234.952932 
L 190.59407 236.955415 
L 190.680656 235.721885 
L 190.897121 255.174007 
L 191.113587 277.421596 
L 191.15688 275.483192 
L 191.416638 235.101115 
L 191.459931 239.238246 
L 191.503224 241.601176 
L 191.58981 230.543464 
L 191.633103 236.546908 
L 191.936154 269.26348 
L 192.02274 267.281021 
L 192.066034 266.940599 
L 192.369085 233.931665 
L 192.498964 235.329399 
L 192.628843 248.185341 
L 192.888601 275.515232 
L 193.278239 230.086897 
L 193.321532 231.688884 
L 193.711169 269.355594 
L 193.754462 270.396885 
L 194.057514 232.257589 
L 194.1441 233.33893 
L 194.317272 248.625887 
L 194.533737 268.262238 
L 194.663616 265.106324 
L 194.750202 266.980649 
L 194.923375 234.528405 
L 195.009961 232.285624 
L 195.442891 269.543827 
L 195.486184 269.20741 
L 195.832528 232.990498 
L 195.919115 234.996986 
L 195.962408 236.843276 
L 196.13558 249.462925 
L 196.352045 265.63498 
L 196.698389 231.00804 
L 196.784975 235.485592 
L 197.174613 269.7641 
L 197.607543 225.757529 
L 198.083767 270.625168 
L 198.430111 229.694411 
L 198.516697 230.547469 
L 198.863042 270.985615 
L 198.906335 270.793377 
L 199.209386 235.181215 
L 199.295972 236.170442 
L 199.339265 233.839551 
L 199.382558 235.70987 
L 199.685609 264.293316 
L 199.772196 270.937556 
L 199.815489 269.371614 
L 199.902075 262.334888 
L 200.11854 231.881122 
L 200.161833 231.680874 
L 200.421591 251.385309 
L 200.594763 269.631936 
L 200.638056 269.163355 
L 200.724643 272.651681 
L 201.027694 230.647593 
L 201.11428 233.563208 
L 201.287452 253.015331 
L 201.503917 275.8116 
L 201.54721 275.81961 
L 201.590503 273.524764 
L 201.850262 229.550232 
L 202.369778 270.885491 
L 202.413071 269.976364 
L 202.456364 270.080493 
L 202.499657 268.302288 
L 202.759416 232.970473 
L 202.802709 233.99174 
L 203.192346 268.382387 
L 203.235639 267.240971 
L 203.322225 269.760095 
L 203.495397 239.686802 
L 203.625277 229.426078 
L 203.66857 232.181495 
L 204.1015 277.081174 
L 204.144793 274.778318 
L 204.404551 235.878079 
L 204.447844 235.233279 
L 204.491137 231.288387 
L 204.534431 232.489877 
L 204.750896 247.73278 
L 205.010654 267.701543 
L 205.443584 216.866503 
L 205.876515 261.057303 
L 205.963101 246.963826 
L 206.136273 228.084414 
L 206.222859 222.6697 
L 206.266152 224.828376 
L 206.352738 224.564049 
L 206.396031 228.981527 
L 206.612497 259.65957 
L 206.742376 265.190429 
L 206.785669 264.253266 
L 206.958841 231.224308 
L 207.002134 233.675347 
L 207.132013 223.274449 
L 207.175306 230.4113 
L 207.478358 273.837151 
L 207.521651 275.050656 
L 207.65153 259.65957 
L 207.954581 229.990778 
L 207.997874 231.312417 
L 208.430805 274.590085 
L 208.777149 231.981247 
L 208.863735 236.699097 
L 209.296665 270.016413 
L 209.339959 268.710794 
L 209.772889 192.824689 
L 210.07594 159.419264 
L 210.292406 110.774941 
L 210.465578 65.51882 
L 210.508871 75.519221 
L 210.768629 181.875111 
L 210.985094 247.300243 
L 211.07168 252.322471 
L 211.158266 245.097512 
L 211.201559 246.683479 
L 211.374732 232.71015 
L 211.418025 233.290871 
L 211.504611 237.407976 
L 211.894248 289.019979 
L 211.937541 291.374899 
L 212.1973 248.185341 
L 212.327179 239.494564 
L 212.413765 241.481027 
L 212.760109 271.269968 
L 213.06316 237.616234 
L 213.149747 230.315181 
L 213.19304 230.93595 
L 213.62597 273.032153 
L 213.842435 246.098753 
L 214.015607 229.398043 
L 214.145487 237.043524 
L 214.405245 264.105083 
L 214.448538 264.801947 
L 214.708296 246.775593 
L 214.838175 229.406053 
L 214.881468 229.922694 
L 214.924761 229.914684 
L 214.968054 229.013566 
L 215.314399 268.630695 
L 215.357692 266.383909 
L 215.574157 244.036196 
L 215.704036 222.153059 
L 215.747329 224.580069 
L 215.833915 230.903911 
L 216.223553 274.922497 
L 216.526604 217.939834 
L 216.61319 215.889291 
L 216.699776 220.659206 
L 217.046121 258.578229 
L 217.219293 238.853769 
L 217.479051 215.624963 
L 217.522344 216.377897 
L 217.782102 244.524802 
L 217.825395 241.649236 
L 217.911981 249.190588 
L 217.955275 243.932067 
L 218.344912 202.809071 
L 218.431498 209.337166 
L 218.777842 245.433929 
L 218.821135 236.91937 
L 219.210773 187.438009 
L 219.254066 187.249776 
L 219.643703 227.459639 
L 219.686996 221.904751 
L 219.990048 178.779272 
L 220.033341 180.22106 
L 220.076634 178.823327 
L 220.119927 178.951485 
L 220.466271 216.59016 
L 220.509564 216.457997 
L 220.769322 184.538414 
L 220.855909 176.620595 
L 220.899202 177.177285 
L 221.202253 199.701217 
L 221.332132 218.720803 
L 221.418718 216.029465 
L 221.462011 216.265758 
L 221.765062 190.842231 
L 221.851649 199.813356 
L 222.197993 247.176089 
L 222.241286 235.661811 
L 222.284579 234.688604 
L 222.371165 240.275532 
L 222.630923 217.903789 
L 222.674216 219.353587 
L 222.890682 234.992981 
L 223.063854 263.316104 
L 223.496784 224.447905 
L 223.756543 256.339453 
L 223.886422 271.826658 
L 223.929715 269.451713 
L 223.973008 263.592447 
L 224.016301 268.110049 
L 224.059594 269.82017 
L 224.189473 249.342776 
L 224.362645 227.583793 
L 224.405938 228.468891 
L 224.795576 278.611071 
L 224.838869 272.147055 
L 225.012041 252.718963 
L 225.185213 234.960942 
L 225.228506 233.875596 
L 225.271799 235.069076 
L 225.748023 273.200362 
L 225.877902 250.612351 
L 226.007781 237.58019 
L 226.051074 238.224989 
L 226.094367 239.310335 
L 226.13766 238.597451 
L 226.180953 237.576185 
L 226.224246 238.589441 
L 226.310832 251.048892 
L 226.484004 269.984373 
L 226.570591 272.715761 
L 226.613884 271.494246 
L 226.743763 257.897385 
L 226.916935 237.127629 
L 226.960228 237.243773 
L 227.003521 234.712634 
L 227.046814 238.100835 
L 227.349865 274.385832 
L 227.826089 230.607543 
L 227.869382 231.416546 
L 228.215726 269.003157 
L 228.259019 267.761617 
L 228.432191 264.902071 
L 228.778536 231.684879 
L 229.168173 277.193313 
L 229.211466 274.698219 
L 229.514518 233.230796 
L 229.557811 229.406053 
L 229.601104 230.819806 
L 229.68769 240.219463 
L 229.947448 273.292476 
L 229.990741 271.55432 
L 230.077327 266.640226 
L 230.250499 248.561808 
L 230.380378 232.369728 
L 230.423672 231.929182 
L 230.553551 234.191988 
L 230.770016 270.653203 
L 230.899895 266.600177 
L 230.943188 266.684281 
L 231.289532 229.706426 
L 231.332825 230.431325 
L 231.635877 268.134079 
L 231.67917 263.384189 
L 231.722463 262.639265 
L 231.809049 266.81244 
L 231.852342 263.344139 
L 232.198686 232.205525 
L 232.328566 244.528807 
L 232.501738 264.930106 
L 232.545031 262.731379 
L 232.631617 271.778598 
L 232.67491 270.028428 
L 233.021254 230.751722 
L 233.064547 233.022538 
L 233.281012 256.812039 
L 233.367599 271.298002 
L 233.410892 267.293036 
L 233.454185 268.678754 
L 233.497478 267.581394 
L 233.67065 253.68416 
L 233.843822 233.591243 
L 233.930408 234.456316 
L 233.973701 235.661811 
L 234.320046 269.555842 
L 234.363339 271.830663 
L 234.406632 269.663976 
L 234.579804 247.260194 
L 234.752976 232.670101 
L 234.839562 237.419991 
L 235.185906 272.243175 
L 235.359079 257.384749 
L 235.575544 233.859576 
L 235.618837 234.380222 
L 236.051767 278.010326 
L 236.09506 276.700702 
L 236.484698 231.352467 
L 236.527991 231.044084 
L 236.917628 272.038921 
L 236.960921 273.885211 
L 237.004214 271.354072 
L 237.393852 230.463364 
L 237.826782 272.251185 
L 238.21642 232.958458 
L 238.259713 233.635298 
L 238.519471 276.404335 
L 238.64935 268.202163 
L 238.735936 259.979967 
L 239.125574 223.16231 
L 239.342039 257.785246 
L 239.385332 251.401329 
L 239.428625 251.457399 
L 239.558504 262.499091 
L 239.601797 261.593969 
L 239.948141 216.445982 
L 239.991434 217.699536 
L 240.2079 254.973759 
L 240.251193 252.811077 
L 240.294486 252.010084 
L 240.381072 256.267363 
L 240.424365 261.561929 
L 240.467658 260.79698 
L 240.770709 226.598572 
L 240.814002 227.615833 
L 240.987175 248.32151 
L 241.160347 267.112813 
L 241.20364 266.492043 
L 241.290226 272.127031 
L 241.723156 233.298881 
L 241.853035 251.124986 
L 242.026208 267.521319 
L 242.069501 277.153263 
L 242.112794 271.874718 
L 242.459138 236.474819 
L 242.502431 235.862059 
L 242.63231 241.625206 
L 242.978655 274.882447 
L 243.021948 272.054941 
L 243.324999 232.049331 
L 243.368292 232.089381 
L 243.454878 236.082332 
L 243.62805 256.171244 
L 243.671343 252.494685 
L 244.364032 76.728721 
L 244.407325 71.51826 
L 244.450618 72.607611 
L 244.580497 109.873824 
L 244.926842 224.716237 
L 245.100014 214.619717 
L 245.1866 224.059423 
L 245.576237 280.140968 
L 245.61953 280.205048 
L 246.052461 245.962585 
L 246.18234 264.625728 
L 246.268926 270.160592 
L 246.312219 268.5546 
L 246.355512 269.331564 
L 246.398805 273.789092 
L 246.442098 272.319269 
L 246.61527 254.565253 
L 246.831736 234.123904 
L 247.004908 241.408938 
L 247.17808 262.775434 
L 247.307959 272.391358 
L 247.394545 267.961865 
L 247.437838 265.526846 
L 247.697597 226.278174 
L 247.870769 243.103038 
L 248.043941 260.913124 
L 248.17382 276.945005 
L 248.563457 230.038838 
L 248.60675 230.555479 
L 248.73663 242.233961 
L 248.866509 256.719925 
L 248.953095 259.503376 
L 249.039681 266.395924 
L 249.082974 265.530851 
L 249.429318 222.865943 
L 249.515904 226.270164 
L 249.689077 247.288228 
L 249.775663 261.025263 
L 249.818956 256.255348 
L 249.862249 256.08714 
L 249.992128 259.283103 
L 250.035421 258.598254 
L 250.338472 219.990377 
L 250.381765 221.448185 
L 250.72811 263.195955 
L 250.814696 255.077888 
L 251.117747 217.303044 
L 251.16104 219.714034 
L 251.334212 234.728654 
L 251.464091 245.437934 
L 251.507384 244.801144 
L 251.550678 245.962585 
L 251.637264 251.733741 
L 251.680557 248.085217 
L 252.070194 206.585754 
L 252.15678 218.953091 
L 252.329952 230.3312 
L 252.503125 242.482269 
L 252.546418 241.481027 
L 252.762883 211.411739 
L 252.892762 193.000908 
L 252.936055 197.258187 
L 253.368985 228.400807 
L 253.758623 180.877874 
L 253.845209 183.080606 
L 254.104967 209.569454 
L 254.191553 218.913041 
L 254.234846 216.770384 
L 254.624484 175.607338 
L 254.667777 176.180049 
L 255.057414 214.687801 
L 255.100707 214.515588 
L 255.230586 202.789046 
L 255.317172 186.480822 
L 255.360466 188.363157 
L 255.403759 189.592681 
L 255.447052 188.427236 
L 255.533638 187.337885 
L 255.576931 189.476537 
L 255.836689 230.575503 
L 255.923275 232.78224 
L 255.966568 235.653801 
L 256.009861 234.740668 
L 256.269619 210.390472 
L 256.659257 247.977083 
L 256.745843 260.080091 
L 256.789136 258.109648 
L 257.092187 233.491119 
L 257.178773 227.912201 
L 257.222066 229.093666 
L 257.26536 229.237845 
L 257.654997 267.164877 
L 257.741583 264.585679 
L 257.828169 266.187665 
L 258.044634 234.856813 
L 258.087927 235.894099 
L 258.217806 255.037839 
L 258.2611 248.24942 
L 258.304393 245.974599 
L 258.477565 271.974842 
L 258.520858 267.200922 
L 258.564151 260.444543 
L 258.650737 262.00648 
L 258.910495 233.939675 
L 258.997081 241.68528 
L 259.25684 269.303529 
L 259.386719 274.381827 
L 259.430012 273.652923 
L 259.733063 240.019214 
L 259.862942 232.886369 
L 260.209287 272.195115 
L 260.25258 275.22287 
L 260.295873 275.194835 
L 260.512338 244.420672 
L 260.598924 236.458799 
L 260.642217 237.087579 
L 261.161734 273.324516 
L 261.205027 270.036438 
L 261.551371 238.481307 
L 261.594664 240.215458 
L 261.68125 252.975281 
L 261.724543 250.051655 
L 261.811129 261.613994 
L 261.984301 277.205328 
L 262.027594 279.768507 
L 262.24406 243.006919 
L 262.373939 232.349704 
L 262.417232 233.162712 
L 262.503818 250.832624 
L 262.547111 245.041442 
L 262.633697 252.090183 
L 262.850162 276.32824 
L 262.936748 267.152862 
L 263.2398 238.745635 
L 263.283093 239.538618 
L 263.499558 256.419552 
L 263.759316 277.974282 
L 264.105661 232.093386 
L 264.148954 233.278856 
L 264.23554 255.554479 
L 264.278833 251.28919 
L 264.322126 246.827657 
L 264.365419 251.449389 
L 264.538591 269.135321 
L 264.581884 271.754569 
L 264.625177 271.718524 
L 264.971522 231.428561 
L 265.014815 234.832783 
L 265.101401 245.34582 
L 265.144694 240.756128 
L 265.491038 276.356275 
L 265.880675 234.624524 
L 265.923969 243.022939 
L 266.270313 271.346062 
L 266.356899 271.722529 
L 266.486778 256.6999 
L 266.703243 238.16892 
L 266.746536 240.527845 
L 266.833122 240.391676 
L 266.963002 258.758452 
L 267.136174 272.599617 
L 267.179467 274.177573 
L 267.395932 247.528526 
L 267.482518 237.067554 
L 267.569104 239.122102 
L 267.612397 239.474539 
L 268.088621 274.065434 
L 268.2185 263.856775 
L 268.348379 230.94396 
L 268.391672 231.208288 
L 268.434965 232.517912 
L 268.867896 272.107006 
L 268.911189 272.980088 
L 269.041068 268.722809 
L 269.257533 236.286586 
L 269.300826 236.939395 
L 269.344119 242.610428 
L 269.387412 240.327597 
L 269.430705 238.745635 
L 269.473998 240.788168 
L 269.603877 258.866587 
L 269.733757 271.338052 
L 269.77705 270.152582 
L 269.906929 266.992664 
L 270.123394 237.612229 
L 270.166687 235.769945 
L 270.253273 244.184379 
L 270.296566 240.471776 
L 270.339859 241.284784 
L 270.599617 272.968074 
L 270.64291 273.092227 
L 270.859376 249.174568 
L 270.989255 237.359917 
L 271.032548 237.57218 
L 271.075841 243.143088 
L 271.119134 236.138402 
L 271.162427 240.423716 
L 271.508771 267.933831 
L 271.552064 268.630695 
L 271.855116 228.160509 
L 271.898409 229.121701 
L 272.331339 260.196235 
L 272.374632 259.803749 
L 272.461218 252.843117 
L 272.720977 222.381342 
L 272.894149 229.718441 
L 273.024028 250.404092 
L 273.1972 264.649758 
L 273.240493 264.649758 
L 273.586838 233.95169 
L 273.716717 238.09683 
L 273.976475 275.331004 
L 274.063061 268.955097 
L 274.106354 270.292756 
L 274.149647 273.833146 
L 274.19294 271.566335 
L 274.322819 249.831382 
L 274.409405 240.031229 
L 274.452698 240.47578 
L 274.495991 241.469012 
L 274.539285 239.923095 
L 274.582578 235.401488 
L 274.625871 238.993943 
L 274.928922 276.063913 
L 275.145387 262.162674 
L 275.318559 236.771186 
L 275.405145 247.248179 
L 275.448438 242.938835 
L 275.838076 274.317747 
L 275.881369 271.346062 
L 276.141127 223.915244 
L 276.227713 216.68628 
L 276.400885 191.747353 
L 276.703937 143.775865 
L 277.006988 58.794481 
L 277.266746 158.089615 
L 277.526505 249.935511 
L 277.699677 247.124025 
L 277.74297 247.444422 
L 277.786263 247.640666 
L 277.872849 242.95886 
L 277.916142 246.715518 
L 277.959435 244.456717 
L 278.002728 236.218501 
L 278.046021 237.5882 
L 278.392366 291.410944 
L 278.911882 236.170442 
L 279.214933 276.596573 
L 279.301519 270.513029 
L 279.604571 233.91164 
L 279.73445 234.856813 
L 280.080794 270.517034 
L 280.124087 270.020418 
L 280.16738 270.032433 
L 280.29726 258.193752 
L 280.427139 241.424958 
L 280.470432 243.307292 
L 280.513725 246.198878 
L 280.600311 236.106362 
L 280.643604 240.091304 
L 280.903362 265.234483 
L 281.033241 273.480709 
L 281.293 239.582673 
L 281.336293 242.830701 
L 281.379586 240.920332 
L 281.509465 229.802545 
L 281.639344 245.285745 
L 281.812516 266.067516 
L 281.855809 266.85249 
L 281.985688 262.262798 
L 282.28874 227.45163 
L 282.332033 228.120459 
L 282.418619 234.54843 
L 282.505205 244.400648 
L 282.678377 260.85305 
L 282.764963 265.458761 
L 282.808256 263.7967 
L 283.197894 223.686961 
L 283.241187 222.317262 
L 283.327773 236.759172 
L 283.500945 252.891177 
L 283.587531 256.443582 
L 284.020461 212.449025 
L 284.063754 216.490036 
L 284.323513 241.641226 
L 284.496685 252.150258 
L 284.669857 233.206766 
L 284.886322 204.983768 
L 285.059494 218.488515 
L 285.27596 238.517352 
L 285.535718 212.933626 
L 285.752183 186.284579 
L 285.968648 209.188982 
L 286.141821 223.346539 
L 286.314993 215.877276 
L 286.488165 189.708825 
L 286.531458 188.747633 
L 286.618044 181.44658 
L 286.661337 184.762692 
L 287.050975 217.551352 
L 287.094268 213.874793 
L 287.440612 173.64891 
L 287.483905 175.39107 
L 287.830249 211.599972 
L 287.960129 227.731977 
L 288.003422 225.244893 
L 288.176594 197.182093 
L 288.219887 200.602334 
L 288.26318 201.67166 
L 288.349766 195.74431 
L 288.739403 249.971556 
L 288.825989 243.791893 
L 289.172334 219.129309 
L 289.215627 221.644428 
L 289.25892 222.986092 
L 289.648557 268.06199 
L 289.69185 269.315544 
L 290.081488 229.694411 
L 290.168074 237.103599 
L 290.384539 275.1668 
L 290.557711 271.073724 
L 290.730883 256.880123 
L 290.860763 233.066593 
L 290.947349 239.562648 
L 291.077228 248.069197 
L 291.380279 272.956059 
L 291.423572 275.77155 
L 291.466865 275.146775 
L 291.856503 234.368207 
L 292.159554 276.552519 
L 292.24614 280.978006 
L 292.289433 280.024824 
L 292.67907 229.374013 
L 292.722363 236.390715 
L 292.982122 271.950812 
L 293.068708 277.085179 
L 293.501638 235.273329 
L 293.588224 238.933868 
L 293.934569 280.120944 
L 293.977862 283.993746 
L 294.021155 282.660092 
L 294.324206 232.569977 
L 294.454085 237.291832 
L 294.757137 275.17481 
L 294.887016 271.390117 
L 295.190067 240.227473 
L 295.23336 236.819246 
L 295.276653 237.852527 
L 295.666291 272.479468 
L 295.709584 275.278939 
L 295.752877 273.500734 
L 295.969342 251.225111 
L 296.055928 238.661531 
L 296.099221 238.901829 
L 296.142514 238.517352 
L 296.185807 239.730857 
L 296.532151 278.242614 
L 296.965082 237.55616 
L 297.008375 237.616234 
L 297.138254 246.106763 
L 297.354719 276.428365 
L 297.441305 268.090024 
L 297.874236 236.835266 
L 297.917529 239.310335 
L 298.263873 276.572543 
L 298.437045 266.832465 
L 298.740097 234.976962 
L 298.78339 235.930144 
L 299.129734 276.784807 
L 299.173027 277.217343 
L 299.476079 238.333123 
L 299.562665 238.401208 
L 299.605958 237.131633 
L 299.995595 276.556523 
L 300.038888 273.616878 
L 300.471819 233.575223 
L 300.904749 275.298964 
L 300.948042 271.193873 
L 301.251093 238.573421 
L 301.294386 237.371931 
L 301.337679 237.632254 
L 301.727317 273.308496 
L 301.77061 268.394402 
L 302.030368 225.917727 
L 302.20354 229.15374 
L 302.420006 251.661652 
L 302.549885 266.327839 
L 302.896229 224.035393 
L 303.069401 227.587798 
L 303.112694 227.039118 
L 303.502332 273.196357 
L 303.545625 265.566895 
L 303.76209 241.068516 
L 303.805383 241.208689 
L 303.848676 244.821169 
L 303.891969 243.303287 
L 303.935262 239.899065 
L 303.978555 244.70102 
L 304.238313 272.407378 
L 304.281607 271.233923 
L 304.368193 278.030351 
L 304.411486 272.707751 
L 304.584658 249.026384 
L 304.671244 238.485312 
L 304.75783 245.602138 
L 304.844416 238.449267 
L 305.19076 274.025385 
L 305.234054 272.579592 
L 305.623691 240.463766 
L 305.710277 243.920052 
L 306.056621 273.128272 
L 306.099914 270.99763 
L 306.273087 249.787328 
L 306.532845 185.63177 
L 307.009068 112.885558 
L 307.182241 70.476968 
L 307.225534 80.981996 
L 307.485292 188.122859 
L 307.74505 261.814242 
L 307.918222 272.956059 
L 307.961515 271.454196 
L 308.134688 248.029147 
L 308.221274 241.461002 
L 308.654204 290.842239 
L 308.827376 277.297442 
L 309.043841 241.977643 
L 309.130428 238.825734 
L 309.173721 240.49981 
L 309.260307 247.05594 
L 309.476772 277.541745 
L 309.520065 276.568538 
L 309.73653 249.518995 
L 309.909702 238.056781 
L 309.952995 238.257029 
L 309.996288 237.716359 
L 310.385926 272.635661 
L 310.472512 269.451713 
L 310.515805 269.463728 
L 310.818856 230.215056 
L 310.948735 242.410179 
L 311.208494 274.073444 
L 311.251787 273.729017 
L 311.424959 260.048052 
L 311.598131 226.975038 
L 311.684717 223.086216 
L 312.117648 274.341777 
L 312.204234 269.22343 
L 312.247527 266.988659 
L 312.420699 235.093106 
L 312.463992 233.555198 
L 312.593871 212.865542 
L 312.853629 251.625607 
L 312.983509 260.620762 
L 313.026802 260.144171 
L 313.070095 261.682078 
L 313.156681 241.777395 
L 313.243267 223.710991 
L 313.28656 226.041881 
L 313.329853 228.617075 
L 313.373146 225.437131 
L 313.459732 219.962342 
L 313.849369 256.551716 
L 313.892663 256.135199 
L 313.935956 255.554479 
L 314.022542 239.294315 
L 314.239007 210.642785 
L 314.2823 210.899103 
L 314.671937 249.651159 
L 314.71523 246.48323 
L 315.148161 202.552753 
L 315.191454 202.841111 
L 315.494505 236.038278 
L 315.537798 235.753925 
L 315.71097 226.526482 
L 315.927436 186.709106 
L 315.970729 183.625281 
L 316.014022 184.942915 
L 316.100608 190.257506 
L 316.403659 220.410898 
L 316.446952 218.260231 
L 316.490245 219.129309 
L 316.533538 220.579107 
L 316.793297 172.683713 
L 316.83659 178.342731 
L 316.879883 184.43829 
L 316.923176 181.026058 
L 317.009762 174.073436 
L 317.399399 212.433005 
L 317.572571 180.293149 
L 317.615864 182.62404 
L 317.659157 187.97067 
L 317.702451 183.857569 
L 317.789037 177.545742 
L 318.135381 224.259671 
L 318.221967 225.661409 
L 318.525018 199.797336 
L 318.784777 221.031668 
L 319.087828 257.913405 
L 319.131121 254.27289 
L 319.304293 225.489196 
L 319.434172 221.376095 
L 319.477465 222.193109 
L 319.953689 266.640226 
L 319.996982 265.927342 
L 320.25674 230.603538 
L 320.300033 231.845078 
L 320.473205 243.203163 
L 320.732964 274.902472 
L 320.81955 278.202565 
L 321.036015 244.184379 
L 321.079308 244.14433 
L 321.122601 240.756128 
L 321.165894 242.101797 
L 321.209187 246.142808 
L 321.25248 242.253986 
L 321.295773 240.627969 
L 321.642118 278.871394 
L 322.031755 232.690126 
L 322.075048 233.607263 
L 322.507979 276.39232 
L 322.551272 273.024143 
L 322.767737 247.804869 
L 322.81103 248.041162 
L 322.984202 233.166717 
L 323.373839 278.270649 
L 323.503719 261.682078 
L 323.80677 233.667337 
L 324.196407 277.373537 
L 324.2397 277.341497 
L 324.586045 238.573421 
L 324.629338 237.664294 
L 324.80251 244.184379 
L 325.018975 275.559287 
L 325.062268 275.331004 
L 325.105561 278.831344 
L 325.148854 275.507222 
L 325.365319 236.33064 
L 325.495199 240.820208 
L 325.581785 244.901268 
L 325.841543 269.7641 
L 325.884836 272.84392 
L 325.928129 272.767825 
L 326.36106 231.168238 
L 326.447646 238.18494 
L 326.79399 279.219826 
L 326.837283 282.095392 
L 327.140334 237.151658 
L 327.22692 232.838309 
L 327.270213 234.552435 
L 327.443386 246.635419 
L 327.659851 276.592568 
L 327.703144 274.682199 
L 327.962902 237.860537 
L 328.049488 230.635578 
L 328.092781 233.226791 
L 328.136074 234.043804 
L 328.569005 278.563012 
L 328.78547 243.127068 
L 328.828763 243.863982 
L 328.872056 243.255227 
L 329.001935 232.065351 
L 329.434866 275.979808 
L 329.651331 243.880002 
L 329.78121 230.727692 
L 329.824503 231.324432 
L 330.257434 275.671426 
L 330.473899 243.151098 
L 330.647071 225.885688 
L 330.690364 225.773549 
L 330.733657 225.897703 
L 330.820243 231.897142 
L 331.080001 260.652802 
L 331.123294 258.566214 
L 331.512932 219.734059 
L 331.556225 222.245173 
L 331.686104 231.62881 
L 331.989155 277.137244 
L 332.032448 264.789932 
L 332.378793 231.849083 
L 332.422086 233.318905 
L 332.855016 279.424079 
L 333.158068 242.478264 
L 333.201361 242.678512 
L 333.244654 240.487795 
L 333.287947 242.450229 
L 333.461119 251.393319 
L 333.677584 281.034076 
L 333.720877 280.597535 
L 333.980635 247.09599 
L 334.067222 250.928743 
L 334.110515 248.117257 
L 334.197101 239.778916 
L 334.240394 241.016451 
L 334.543445 282.38375 
L 334.586738 270.292756 
L 334.803203 242.28202 
L 335.062962 178.755242 
L 335.106255 177.397558 
L 335.495892 117.963856 
L 335.669064 76.460388 
L 335.712357 77.782027 
L 336.31846 264.229237 
L 336.405046 256.127189 
L 336.448339 261.46581 
L 336.491632 262.306853 
L 336.75139 243.403411 
L 337.141028 295.488 
L 337.184321 286.604984 
L 337.270907 279.580273 
L 337.530665 244.781119 
L 337.617251 238.997948 
L 337.660544 239.222226 
L 337.963596 271.622405 
L 338.006889 274.926502 
L 338.050182 274.253668 
L 338.266647 250.291953 
L 338.439819 236.614993 
L 338.526405 232.866344 
L 338.829457 276.456399 
L 338.916043 265.466771 
L 339.392266 228.62108 
L 339.522145 249.631134 
L 339.695317 267.99791 
L 339.781904 264.353391 
L 339.825197 266.988659 
L 340.171541 228.689164 
L 340.30142 234.752683 
L 340.561178 271.125789 
L 340.604471 265.194434 
L 340.647764 266.488038 
L 340.777644 250.612351 
L 341.037402 224.167557 
L 341.080695 226.83086 
L 341.340453 246.479225 
L 341.427039 261.313621 
L 341.470332 258.958701 
L 341.513625 259.359197 
L 341.556918 258.470095 
L 341.903263 218.212172 
L 341.989849 225.949767 
L 342.2929 255.562489 
L 342.379486 250.151779 
L 342.422779 250.532251 
L 342.509365 249.010364 
L 342.769124 207.63105 
L 342.812417 207.635055 
L 343.158761 254.180776 
L 343.202054 247.544546 
L 343.591691 204.134715 
L 343.634985 205.972994 
L 343.981329 243.251222 
L 344.024622 230.99202 
L 344.067915 231.869108 
L 344.111208 230.827816 
L 344.197794 221.752562 
L 344.457552 190.842231 
L 344.544138 182.716154 
L 344.587432 188.243008 
L 344.84719 221.980845 
L 344.933776 220.967589 
L 345.366706 171.85068 
L 345.453292 179.424072 
L 345.799637 215.316581 
L 345.886223 213.382182 
L 346.016102 193.040958 
L 346.189274 176.376292 
L 346.319153 179.311932 
L 346.578912 221.892736 
L 346.622205 221.772587 
L 346.752084 222.817883 
L 346.881963 215.136358 
L 347.098428 197.326272 
L 347.531359 253.447867 
L 347.574652 252.410581 
L 347.747824 237.039519 
L 347.964289 222.801863 
L 348.137461 239.638742 
L 348.353926 261.405735 
L 348.440513 270.212657 
L 348.483806 265.126349 
L 348.873443 231.821048 
L 349.133201 275.807595 
L 349.26308 270.484994 
L 349.39296 265.134359 
L 349.652718 234.568455 
L 349.696011 235.341413 
L 349.82589 243.912042 
L 349.999062 276.372295 
L 350.128941 272.195115 
L 350.172234 271.842678 
L 350.25882 266.19968 
L 350.518579 238.449267 
L 350.561872 238.397203 
L 350.648458 244.901268 
L 350.778337 258.377981 
L 350.951509 271.550315 
L 351.038095 276.480429 
L 351.471026 233.098632 
L 351.514319 240.651999 
L 351.730784 270.412905 
L 351.774077 269.295519 
L 351.903956 272.21514 
L 352.033835 264.565654 
L 352.250301 233.719402 
L 352.293594 234.155943 
L 352.510059 259.65957 
L 352.553352 270.052458 
L 352.639938 267.104803 
L 352.726524 274.061429 
L 352.769817 278.382788 
L 353.116161 239.96715 
L 353.202748 239.478544 
L 353.289334 246.755568 
L 353.592385 273.789092 
L 353.982022 235.16119 
L 354.068608 237.680314 
L 354.198488 252.959261 
L 354.285074 268.931067 
L 354.37166 268.622685 
L 354.414953 274.397847 
L 354.458246 272.523522 
L 354.631418 258.205767 
L 354.847883 229.434088 
L 354.934469 235.009001 
L 355.064348 247.164074 
L 355.280814 270.813402 
L 355.3674 275.659411 
L 355.713744 231.456596 
L 355.757037 232.457838 
L 355.886916 245.722287 
L 356.146675 278.727215 
L 356.189968 274.938517 
L 356.536312 233.939675 
L 357.012535 273.180337 
L 357.185708 264.36941 
L 357.445466 232.990498 
L 357.488759 233.731417 
L 357.618638 248.798101 
L 357.748517 266.259755 
L 357.79181 263.968914 
L 357.835103 261.758172 
L 357.878396 265.086299 
L 357.921689 269.736066 
L 357.964982 266.027467 
L 358.311327 225.096709 
L 358.35462 227.047128 
L 358.484499 234.680594 
L 358.657671 257.725171 
L 358.700964 261.886331 
L 358.78755 261.341656 
L 358.830843 262.835508 
L 358.917429 253.952493 
L 359.090602 224.499969 
L 359.133895 226.450388 
L 359.220481 222.337287 
L 359.393653 241.981648 
L 359.566825 264.621723 
L 359.610118 264.097073 
L 359.826583 257.108406 
L 360.086342 234.972957 
L 360.129635 233.631293 
L 360.562565 277.958262 
L 360.865617 239.094067 
L 360.90891 238.933868 
L 360.995496 241.657246 
L 361.34184 277.493686 
L 361.385133 279.323955 
L 361.77477 239.818966 
L 361.818063 240.744113 
L 362.207701 282.96447 
L 362.294287 274.089464 
L 362.554045 238.74964 
L 362.597338 242.137842 
L 362.640631 241.312818 
L 362.683924 235.930144 
L 362.727217 237.472056 
L 362.813804 241.681275 
L 363.160148 184.089857 
L 363.549785 58.670327 
L 363.593078 53.824318 
L 363.636371 59.915872 
L 364.069302 241.320828 
L 364.242474 219.65396 
L 364.32906 223.674946 
L 364.415646 231.00003 
L 364.761991 277.906197 
L 364.89187 287.17369 
L 365.238214 247.704745 
L 365.281507 252.722968 
L 365.454679 260.392479 
L 365.497972 259.6836 
L 365.584558 272.078971 
L 365.627851 269.655966 
L 365.671145 269.523802 
L 365.714438 271.057704 
L 365.757731 270.232681 
L 365.930903 253.387792 
L 366.060782 237.872552 
L 366.104075 238.257029 
L 366.363833 255.738708 
L 366.450419 272.16708 
L 366.493712 269.155345 
L 366.537005 265.759134 
L 366.580298 267.593408 
L 366.623592 267.809677 
L 366.926643 230.519434 
L 366.969936 231.136199 
L 367.186401 252.971276 
L 367.359573 267.765622 
L 367.402866 266.888534 
L 367.489452 268.526566 
L 367.532745 265.987417 
L 367.792504 228.925457 
L 367.835797 227.804067 
L 367.965676 244.745075 
L 368.225434 269.083256 
L 368.701658 226.057901 
L 368.744951 226.79882 
L 368.831537 237.912602 
L 369.091295 263.464288 
L 369.134588 262.01449 
L 369.221174 267.024703 
L 369.264467 264.902071 
L 369.610812 221.456195 
L 369.740691 244.324553 
L 369.783984 239.30633 
L 370.043742 260.865065 
L 370.087035 258.321911 
L 370.3035 218.148092 
L 370.346793 222.437411 
L 370.390086 222.281218 
L 370.476673 214.543623 
L 370.519966 218.496524 
L 370.736431 244.352588 
L 370.823017 253.323713 
L 370.86631 250.392077 
L 371.29924 201.611586 
L 371.342533 205.764736 
L 371.645585 240.243492 
L 371.688878 244.408658 
L 371.732171 244.056221 
L 372.121808 199.444899 
L 372.165101 199.785321 
L 372.208394 195.880479 
L 372.251687 201.455392 
L 372.468153 217.118816 
L 372.554739 223.606862 
L 372.598032 227.003073 
L 372.641325 226.606582 
L 373.074255 181.694888 
L 373.117548 187.710347 
L 373.4206 223.050171 
L 373.723651 191.975636 
L 373.940116 175.739502 
L 374.28646 218.144087 
L 374.373047 223.502733 
L 374.41634 220.042442 
L 374.676098 194.775108 
L 374.762684 196.072717 
L 374.892563 212.332881 
L 374.935856 211.451788 
L 375.195614 249.747278 
L 375.585252 218.116053 
L 375.628545 219.389632 
L 375.931596 256.900148 
L 376.104768 268.238208 
L 376.148061 266.22371 
L 376.364527 232.481867 
L 376.40782 232.598011 
L 376.970629 269.135321 
L 377.013922 266.556122 
L 377.273681 237.704344 
L 377.360267 240.952371 
L 377.446853 251.693692 
L 377.490146 245.461964 
L 377.533439 246.347061 
L 377.749904 278.530972 
L 377.793197 276.252146 
L 377.966369 261.389715 
L 378.009662 260.716881 
L 378.182835 240.011204 
L 378.226128 240.724088 
L 378.442593 257.392759 
L 378.529179 267.064753 
L 378.572472 265.250503 
L 378.702351 271.910762 
L 378.745644 269.463728 
L 379.048695 241.08053 
L 379.438333 272.363324 
L 379.481626 279.460124 
L 379.524919 278.667141 
L 379.871263 233.831541 
L 379.914556 235.669821 
L 380.347487 278.903434 
L 380.39078 272.715761 
L 380.477366 266.319829 
L 380.693831 239.230236 
L 380.867003 242.546348 
L 380.910296 239.32235 
L 380.953589 242.638462 
L 381.256641 281.170245 
L 381.299934 278.102441 
L 381.646278 234.61251 
L 381.732864 242.754606 
L 381.776157 241.77339 
L 381.906036 255.854852 
L 382.079209 279.780521 
L 382.122502 279.199801 
L 382.338967 254.597292 
L 382.425553 232.930424 
L 382.468846 236.342655 
L 382.512139 234.468331 
L 382.555432 235.000991 
L 382.642018 241.236724 
L 382.988363 273.116257 
L 383.031656 274.025385 
L 383.378 236.643028 
L 383.464586 252.082173 
L 383.507879 247.836909 
L 383.551172 242.153861 
L 383.594465 248.133276 
L 383.767637 266.540102 
L 383.854223 272.15907 
L 383.897517 271.161834 
L 384.200568 234.139924 
L 384.243861 236.102357 
L 384.287154 247.07196 
L 384.37374 245.962585 
L 384.676791 270.637183 
L 384.763377 267.793657 
L 384.93655 255.161993 
L 385.066429 235.681836 
L 385.109722 238.204964 
L 385.153015 240.455756 
L 385.196308 234.640544 
L 385.239601 240.159388 
L 385.542652 272.339294 
L 385.585945 269.399648 
L 385.802411 249.747278 
L 385.975583 226.069916 
L 386.408513 266.119581 
L 386.495099 261.321631 
L 386.798151 226.674666 
L 386.841444 229.842594 
L 386.92803 224.167557 
L 386.971323 226.558522 
L 387.36096 267.39316 
L 387.490839 258.518154 
L 387.664011 232.265599 
L 387.750598 244.000151 
L 387.793891 241.825454 
L 387.92377 250.04765 
L 388.140235 279.864626 
L 388.183528 277.994306 
L 388.3567 264.237247 
L 388.529872 235.990218 
L 388.91951 269.984373 
L 389.006096 277.161273 
L 389.049389 276.039883 
L 389.35244 245.642187 
L 389.395733 246.53129 
L 389.439026 246.098753 
L 389.482319 238.593446 
L 389.525612 240.419711 
L 389.91525 284.242054 
L 389.958543 278.827339 
L 390.175008 249.426881 
L 390.34818 231.696894 
L 390.391473 232.866344 
L 390.781111 191.619194 
L 391.257334 60.011991 
L 391.300627 67.93782 
L 391.690265 237.56417 
L 391.733558 234.828778 
L 391.776851 234.980966 
L 391.863437 228.404812 
L 391.950023 222.185099 
L 392.209781 253.351748 
L 392.469539 284.310139 
L 392.556126 280.805793 
L 392.686005 273.144292 
L 392.945763 245.205646 
L 392.989056 245.85445 
L 393.292107 273.268446 
L 393.3354 276.34426 
L 393.378693 275.274934 
L 393.551866 256.996267 
L 393.768331 236.098352 
L 393.811624 234.328157 
L 394.071382 268.975122 
L 394.114675 269.25547 
L 394.244554 277.986296 
L 394.287847 273.412625 
L 394.417726 264.846001 
L 394.634192 234.139924 
L 394.807364 247.360318 
L 394.980536 263.019737 
L 395.110415 271.722529 
L 395.500053 229.329959 
L 395.543346 232.79025 
L 395.88969 270.821411 
L 395.932983 273.877201 
L 395.976276 272.038921 
L 396.279327 235.842034 
L 396.365914 221.332041 
L 396.4525 229.434088 
L 396.712258 264.717843 
L 396.842137 264.373415 
L 396.928723 257.661092 
L 397.101895 226.622601 
L 397.145188 230.703662 
L 397.188481 231.829058 
L 397.275067 223.042161 
L 397.664705 263.18394 
L 397.707998 261.782202 
L 398.097635 219.481746 
L 398.270808 228.749239 
L 398.487273 252.142248 
L 398.487273 252.142248 
" style="fill:none;stroke:#1f77b4;stroke-linecap:square;stroke-width:1.5;"/>
   </g>
   <g id="patch_3">
    <path d="M 57.6 307.584 
L 57.6 41.472 
" style="fill:none;stroke:#000000;stroke-linecap:square;stroke-linejoin:miter;stroke-width:0.8;"/>
   </g>
   <g id="patch_4">
    <path d="M 414.72 307.584 
L 414.72 41.472 
" style="fill:none;stroke:#000000;stroke-linecap:square;stroke-linejoin:miter;stroke-width:0.8;"/>
   </g>
   <g id="patch_5">
    <path d="M 57.6 307.584 
L 414.72 307.584 
" style="fill:none;stroke:#000000;stroke-linecap:square;stroke-linejoin:miter;stroke-width:0.8;"/>
   </g>
   <g id="patch_6">
    <path d="M 57.6 41.472 
L 414.72 41.472 
" style="fill:none;stroke:#000000;stroke-linecap:square;stroke-linejoin:miter;stroke-width:0.8;"/>
   </g>
  </g>
 </g>
 <defs>
  <clipPath id="pf3c0ce2552">
   <rect height="266.112" width="357.12" x="57.6" y="41.472"/>
  </clipPath>
 </defs>
</svg>
