<?xml version="1.0" encoding="utf-8" standalone="no"?>
<!DOCTYPE svg PUBLIC "-//W3C//DTD SVG 1.1//EN"
  "http://www.w3.org/Graphics/SVG/1.1/DTD/svg11.dtd">
<!-- Created with matplotlib (http://matplotlib.org/) -->
<svg height="345.6pt" version="1.1" viewBox="0 0 460.8 345.6" width="460.8pt" xmlns="http://www.w3.org/2000/svg" xmlns:xlink="http://www.w3.org/1999/xlink">
 <defs>
  <style type="text/css">
*{stroke-linecap:butt;stroke-linejoin:round;}
  </style>
 </defs>
 <g id="figure_1">
  <g id="patch_1">
   <path d="M 0 345.6 
L 460.8 345.6 
L 460.8 0 
L 0 0 
z
" style="fill:#ffffff;"/>
  </g>
  <g id="axes_1">
   <g id="patch_2">
    <path d="M 57.6 307.584 
L 414.72 307.584 
L 414.72 41.472 
L 57.6 41.472 
z
" style="fill:#ffffff;"/>
   </g>
   <g id="matplotlib.axis_1">
    <g id="xtick_1">
     <g id="line2d_1">
      <defs>
       <path d="M 0 0 
L 0 3.5 
" id="mdf15362430" style="stroke:#000000;stroke-width:0.8;"/>
      </defs>
      <g>
       <use style="stroke:#000000;stroke-width:0.8;" x="73.832727" xlink:href="#mdf15362430" y="307.584"/>
      </g>
     </g>
     <g id="text_1">
      <!-- 0 -->
      <defs>
       <path d="M 31.78125 66.40625 
Q 24.171875 66.40625 20.328125 58.90625 
Q 16.5 51.421875 16.5 36.375 
Q 16.5 21.390625 20.328125 13.890625 
Q 24.171875 6.390625 31.78125 6.390625 
Q 39.453125 6.390625 43.28125 13.890625 
Q 47.125 21.390625 47.125 36.375 
Q 47.125 51.421875 43.28125 58.90625 
Q 39.453125 66.40625 31.78125 66.40625 
z
M 31.78125 74.21875 
Q 44.046875 74.21875 50.515625 64.515625 
Q 56.984375 54.828125 56.984375 36.375 
Q 56.984375 17.96875 50.515625 8.265625 
Q 44.046875 -1.421875 31.78125 -1.421875 
Q 19.53125 -1.421875 13.0625 8.265625 
Q 6.59375 17.96875 6.59375 36.375 
Q 6.59375 54.828125 13.0625 64.515625 
Q 19.53125 74.21875 31.78125 74.21875 
z
" id="DejaVuSans-30"/>
      </defs>
      <g transform="translate(70.651477 322.182437)scale(0.1 -0.1)">
       <use xlink:href="#DejaVuSans-30"/>
      </g>
     </g>
    </g>
    <g id="xtick_2">
     <g id="line2d_2">
      <g>
       <use style="stroke:#000000;stroke-width:0.8;" x="117.125772" xlink:href="#mdf15362430" y="307.584"/>
      </g>
     </g>
     <g id="text_2">
      <!-- 2 -->
      <defs>
       <path d="M 19.1875 8.296875 
L 53.609375 8.296875 
L 53.609375 0 
L 7.328125 0 
L 7.328125 8.296875 
Q 12.9375 14.109375 22.625 23.890625 
Q 32.328125 33.6875 34.8125 36.53125 
Q 39.546875 41.84375 41.421875 45.53125 
Q 43.3125 49.21875 43.3125 52.78125 
Q 43.3125 58.59375 39.234375 62.25 
Q 35.15625 65.921875 28.609375 65.921875 
Q 23.96875 65.921875 18.8125 64.3125 
Q 13.671875 62.703125 7.8125 59.421875 
L 7.8125 69.390625 
Q 13.765625 71.78125 18.9375 73 
Q 24.125 74.21875 28.421875 74.21875 
Q 39.75 74.21875 46.484375 68.546875 
Q 53.21875 62.890625 53.21875 53.421875 
Q 53.21875 48.921875 51.53125 44.890625 
Q 49.859375 40.875 45.40625 35.40625 
Q 44.1875 33.984375 37.640625 27.21875 
Q 31.109375 20.453125 19.1875 8.296875 
z
" id="DejaVuSans-32"/>
      </defs>
      <g transform="translate(113.944522 322.182437)scale(0.1 -0.1)">
       <use xlink:href="#DejaVuSans-32"/>
      </g>
     </g>
    </g>
    <g id="xtick_3">
     <g id="line2d_3">
      <g>
       <use style="stroke:#000000;stroke-width:0.8;" x="160.418818" xlink:href="#mdf15362430" y="307.584"/>
      </g>
     </g>
     <g id="text_3">
      <!-- 4 -->
      <defs>
       <path d="M 37.796875 64.3125 
L 12.890625 25.390625 
L 37.796875 25.390625 
z
M 35.203125 72.90625 
L 47.609375 72.90625 
L 47.609375 25.390625 
L 58.015625 25.390625 
L 58.015625 17.1875 
L 47.609375 17.1875 
L 47.609375 0 
L 37.796875 0 
L 37.796875 17.1875 
L 4.890625 17.1875 
L 4.890625 26.703125 
z
" id="DejaVuSans-34"/>
      </defs>
      <g transform="translate(157.237568 322.182437)scale(0.1 -0.1)">
       <use xlink:href="#DejaVuSans-34"/>
      </g>
     </g>
    </g>
    <g id="xtick_4">
     <g id="line2d_4">
      <g>
       <use style="stroke:#000000;stroke-width:0.8;" x="203.711863" xlink:href="#mdf15362430" y="307.584"/>
      </g>
     </g>
     <g id="text_4">
      <!-- 6 -->
      <defs>
       <path d="M 33.015625 40.375 
Q 26.375 40.375 22.484375 35.828125 
Q 18.609375 31.296875 18.609375 23.390625 
Q 18.609375 15.53125 22.484375 10.953125 
Q 26.375 6.390625 33.015625 6.390625 
Q 39.65625 6.390625 43.53125 10.953125 
Q 47.40625 15.53125 47.40625 23.390625 
Q 47.40625 31.296875 43.53125 35.828125 
Q 39.65625 40.375 33.015625 40.375 
z
M 52.59375 71.296875 
L 52.59375 62.3125 
Q 48.875 64.0625 45.09375 64.984375 
Q 41.3125 65.921875 37.59375 65.921875 
Q 27.828125 65.921875 22.671875 59.328125 
Q 17.53125 52.734375 16.796875 39.40625 
Q 19.671875 43.65625 24.015625 45.921875 
Q 28.375 48.1875 33.59375 48.1875 
Q 44.578125 48.1875 50.953125 41.515625 
Q 57.328125 34.859375 57.328125 23.390625 
Q 57.328125 12.15625 50.6875 5.359375 
Q 44.046875 -1.421875 33.015625 -1.421875 
Q 20.359375 -1.421875 13.671875 8.265625 
Q 6.984375 17.96875 6.984375 36.375 
Q 6.984375 53.65625 15.1875 63.9375 
Q 23.390625 74.21875 37.203125 74.21875 
Q 40.921875 74.21875 44.703125 73.484375 
Q 48.484375 72.75 52.59375 71.296875 
z
" id="DejaVuSans-36"/>
      </defs>
      <g transform="translate(200.530613 322.182437)scale(0.1 -0.1)">
       <use xlink:href="#DejaVuSans-36"/>
      </g>
     </g>
    </g>
    <g id="xtick_5">
     <g id="line2d_5">
      <g>
       <use style="stroke:#000000;stroke-width:0.8;" x="247.004908" xlink:href="#mdf15362430" y="307.584"/>
      </g>
     </g>
     <g id="text_5">
      <!-- 8 -->
      <defs>
       <path d="M 31.78125 34.625 
Q 24.75 34.625 20.71875 30.859375 
Q 16.703125 27.09375 16.703125 20.515625 
Q 16.703125 13.921875 20.71875 10.15625 
Q 24.75 6.390625 31.78125 6.390625 
Q 38.8125 6.390625 42.859375 10.171875 
Q 46.921875 13.96875 46.921875 20.515625 
Q 46.921875 27.09375 42.890625 30.859375 
Q 38.875 34.625 31.78125 34.625 
z
M 21.921875 38.8125 
Q 15.578125 40.375 12.03125 44.71875 
Q 8.5 49.078125 8.5 55.328125 
Q 8.5 64.0625 14.71875 69.140625 
Q 20.953125 74.21875 31.78125 74.21875 
Q 42.671875 74.21875 48.875 69.140625 
Q 55.078125 64.0625 55.078125 55.328125 
Q 55.078125 49.078125 51.53125 44.71875 
Q 48 40.375 41.703125 38.8125 
Q 48.828125 37.15625 52.796875 32.3125 
Q 56.78125 27.484375 56.78125 20.515625 
Q 56.78125 9.90625 50.3125 4.234375 
Q 43.84375 -1.421875 31.78125 -1.421875 
Q 19.734375 -1.421875 13.25 4.234375 
Q 6.78125 9.90625 6.78125 20.515625 
Q 6.78125 27.484375 10.78125 32.3125 
Q 14.796875 37.15625 21.921875 38.8125 
z
M 18.3125 54.390625 
Q 18.3125 48.734375 21.84375 45.5625 
Q 25.390625 42.390625 31.78125 42.390625 
Q 38.140625 42.390625 41.71875 45.5625 
Q 45.3125 48.734375 45.3125 54.390625 
Q 45.3125 60.0625 41.71875 63.234375 
Q 38.140625 66.40625 31.78125 66.40625 
Q 25.390625 66.40625 21.84375 63.234375 
Q 18.3125 60.0625 18.3125 54.390625 
z
" id="DejaVuSans-38"/>
      </defs>
      <g transform="translate(243.823658 322.182437)scale(0.1 -0.1)">
       <use xlink:href="#DejaVuSans-38"/>
      </g>
     </g>
    </g>
    <g id="xtick_6">
     <g id="line2d_6">
      <g>
       <use style="stroke:#000000;stroke-width:0.8;" x="290.297953" xlink:href="#mdf15362430" y="307.584"/>
      </g>
     </g>
     <g id="text_6">
      <!-- 10 -->
      <defs>
       <path d="M 12.40625 8.296875 
L 28.515625 8.296875 
L 28.515625 63.921875 
L 10.984375 60.40625 
L 10.984375 69.390625 
L 28.421875 72.90625 
L 38.28125 72.90625 
L 38.28125 8.296875 
L 54.390625 8.296875 
L 54.390625 0 
L 12.40625 0 
z
" id="DejaVuSans-31"/>
      </defs>
      <g transform="translate(283.935453 322.182437)scale(0.1 -0.1)">
       <use xlink:href="#DejaVuSans-31"/>
       <use x="63.623047" xlink:href="#DejaVuSans-30"/>
      </g>
     </g>
    </g>
    <g id="xtick_7">
     <g id="line2d_7">
      <g>
       <use style="stroke:#000000;stroke-width:0.8;" x="333.590998" xlink:href="#mdf15362430" y="307.584"/>
      </g>
     </g>
     <g id="text_7">
      <!-- 12 -->
      <g transform="translate(327.228498 322.182437)scale(0.1 -0.1)">
       <use xlink:href="#DejaVuSans-31"/>
       <use x="63.623047" xlink:href="#DejaVuSans-32"/>
      </g>
     </g>
    </g>
    <g id="xtick_8">
     <g id="line2d_8">
      <g>
       <use style="stroke:#000000;stroke-width:0.8;" x="376.884043" xlink:href="#mdf15362430" y="307.584"/>
      </g>
     </g>
     <g id="text_8">
      <!-- 14 -->
      <g transform="translate(370.521543 322.182437)scale(0.1 -0.1)">
       <use xlink:href="#DejaVuSans-31"/>
       <use x="63.623047" xlink:href="#DejaVuSans-34"/>
      </g>
     </g>
    </g>
   </g>
   <g id="matplotlib.axis_2">
    <g id="ytick_1">
     <g id="line2d_9">
      <defs>
       <path d="M 0 0 
L -3.5 0 
" id="m06161fc9c8" style="stroke:#000000;stroke-width:0.8;"/>
      </defs>
      <g>
       <use style="stroke:#000000;stroke-width:0.8;" x="57.6" xlink:href="#m06161fc9c8" y="276.012128"/>
      </g>
     </g>
     <g id="text_9">
      <!-- −10000 -->
      <defs>
       <path d="M 10.59375 35.5 
L 73.1875 35.5 
L 73.1875 27.203125 
L 10.59375 27.203125 
z
" id="DejaVuSans-2212"/>
      </defs>
      <g transform="translate(10.407812 279.811347)scale(0.1 -0.1)">
       <use xlink:href="#DejaVuSans-2212"/>
       <use x="83.789062" xlink:href="#DejaVuSans-31"/>
       <use x="147.412109" xlink:href="#DejaVuSans-30"/>
       <use x="211.035156" xlink:href="#DejaVuSans-30"/>
       <use x="274.658203" xlink:href="#DejaVuSans-30"/>
       <use x="338.28125" xlink:href="#DejaVuSans-30"/>
      </g>
     </g>
    </g>
    <g id="ytick_2">
     <g id="line2d_10">
      <g>
       <use style="stroke:#000000;stroke-width:0.8;" x="57.6" xlink:href="#m06161fc9c8" y="237.11386"/>
      </g>
     </g>
     <g id="text_10">
      <!-- 0 -->
      <g transform="translate(44.2375 240.913079)scale(0.1 -0.1)">
       <use xlink:href="#DejaVuSans-30"/>
      </g>
     </g>
    </g>
    <g id="ytick_3">
     <g id="line2d_11">
      <g>
       <use style="stroke:#000000;stroke-width:0.8;" x="57.6" xlink:href="#m06161fc9c8" y="198.215592"/>
      </g>
     </g>
     <g id="text_11">
      <!-- 10000 -->
      <g transform="translate(18.7875 202.01481)scale(0.1 -0.1)">
       <use xlink:href="#DejaVuSans-31"/>
       <use x="63.623047" xlink:href="#DejaVuSans-30"/>
       <use x="127.246094" xlink:href="#DejaVuSans-30"/>
       <use x="190.869141" xlink:href="#DejaVuSans-30"/>
       <use x="254.492188" xlink:href="#DejaVuSans-30"/>
      </g>
     </g>
    </g>
    <g id="ytick_4">
     <g id="line2d_12">
      <g>
       <use style="stroke:#000000;stroke-width:0.8;" x="57.6" xlink:href="#m06161fc9c8" y="159.317323"/>
      </g>
     </g>
     <g id="text_12">
      <!-- 20000 -->
      <g transform="translate(18.7875 163.116542)scale(0.1 -0.1)">
       <use xlink:href="#DejaVuSans-32"/>
       <use x="63.623047" xlink:href="#DejaVuSans-30"/>
       <use x="127.246094" xlink:href="#DejaVuSans-30"/>
       <use x="190.869141" xlink:href="#DejaVuSans-30"/>
       <use x="254.492188" xlink:href="#DejaVuSans-30"/>
      </g>
     </g>
    </g>
    <g id="ytick_5">
     <g id="line2d_13">
      <g>
       <use style="stroke:#000000;stroke-width:0.8;" x="57.6" xlink:href="#m06161fc9c8" y="120.419055"/>
      </g>
     </g>
     <g id="text_13">
      <!-- 30000 -->
      <defs>
       <path d="M 40.578125 39.3125 
Q 47.65625 37.796875 51.625 33 
Q 55.609375 28.21875 55.609375 21.1875 
Q 55.609375 10.40625 48.1875 4.484375 
Q 40.765625 -1.421875 27.09375 -1.421875 
Q 22.515625 -1.421875 17.65625 -0.515625 
Q 12.796875 0.390625 7.625 2.203125 
L 7.625 11.71875 
Q 11.71875 9.328125 16.59375 8.109375 
Q 21.484375 6.890625 26.8125 6.890625 
Q 36.078125 6.890625 40.9375 10.546875 
Q 45.796875 14.203125 45.796875 21.1875 
Q 45.796875 27.640625 41.28125 31.265625 
Q 36.765625 34.90625 28.71875 34.90625 
L 20.21875 34.90625 
L 20.21875 43.015625 
L 29.109375 43.015625 
Q 36.375 43.015625 40.234375 45.921875 
Q 44.09375 48.828125 44.09375 54.296875 
Q 44.09375 59.90625 40.109375 62.90625 
Q 36.140625 65.921875 28.71875 65.921875 
Q 24.65625 65.921875 20.015625 65.03125 
Q 15.375 64.15625 9.8125 62.3125 
L 9.8125 71.09375 
Q 15.4375 72.65625 20.34375 73.4375 
Q 25.25 74.21875 29.59375 74.21875 
Q 40.828125 74.21875 47.359375 69.109375 
Q 53.90625 64.015625 53.90625 55.328125 
Q 53.90625 49.265625 50.4375 45.09375 
Q 46.96875 40.921875 40.578125 39.3125 
z
" id="DejaVuSans-33"/>
      </defs>
      <g transform="translate(18.7875 124.218274)scale(0.1 -0.1)">
       <use xlink:href="#DejaVuSans-33"/>
       <use x="63.623047" xlink:href="#DejaVuSans-30"/>
       <use x="127.246094" xlink:href="#DejaVuSans-30"/>
       <use x="190.869141" xlink:href="#DejaVuSans-30"/>
       <use x="254.492188" xlink:href="#DejaVuSans-30"/>
      </g>
     </g>
    </g>
    <g id="ytick_6">
     <g id="line2d_14">
      <g>
       <use style="stroke:#000000;stroke-width:0.8;" x="57.6" xlink:href="#m06161fc9c8" y="81.520787"/>
      </g>
     </g>
     <g id="text_14">
      <!-- 40000 -->
      <g transform="translate(18.7875 85.320006)scale(0.1 -0.1)">
       <use xlink:href="#DejaVuSans-34"/>
       <use x="63.623047" xlink:href="#DejaVuSans-30"/>
       <use x="127.246094" xlink:href="#DejaVuSans-30"/>
       <use x="190.869141" xlink:href="#DejaVuSans-30"/>
       <use x="254.492188" xlink:href="#DejaVuSans-30"/>
      </g>
     </g>
    </g>
    <g id="ytick_7">
     <g id="line2d_15">
      <g>
       <use style="stroke:#000000;stroke-width:0.8;" x="57.6" xlink:href="#m06161fc9c8" y="42.622518"/>
      </g>
     </g>
     <g id="text_15">
      <!-- 50000 -->
      <defs>
       <path d="M 10.796875 72.90625 
L 49.515625 72.90625 
L 49.515625 64.59375 
L 19.828125 64.59375 
L 19.828125 46.734375 
Q 21.96875 47.46875 24.109375 47.828125 
Q 26.265625 48.1875 28.421875 48.1875 
Q 40.625 48.1875 47.75 41.5 
Q 54.890625 34.8125 54.890625 23.390625 
Q 54.890625 11.625 47.5625 5.09375 
Q 40.234375 -1.421875 26.90625 -1.421875 
Q 22.3125 -1.421875 17.546875 -0.640625 
Q 12.796875 0.140625 7.71875 1.703125 
L 7.71875 11.625 
Q 12.109375 9.234375 16.796875 8.0625 
Q 21.484375 6.890625 26.703125 6.890625 
Q 35.15625 6.890625 40.078125 11.328125 
Q 45.015625 15.765625 45.015625 23.390625 
Q 45.015625 31 40.078125 35.4375 
Q 35.15625 39.890625 26.703125 39.890625 
Q 22.75 39.890625 18.8125 39.015625 
Q 14.890625 38.140625 10.796875 36.28125 
z
" id="DejaVuSans-35"/>
      </defs>
      <g transform="translate(18.7875 46.421737)scale(0.1 -0.1)">
       <use xlink:href="#DejaVuSans-35"/>
       <use x="63.623047" xlink:href="#DejaVuSans-30"/>
       <use x="127.246094" xlink:href="#DejaVuSans-30"/>
       <use x="190.869141" xlink:href="#DejaVuSans-30"/>
       <use x="254.492188" xlink:href="#DejaVuSans-30"/>
      </g>
     </g>
    </g>
   </g>
   <g id="line2d_16">
    <path clip-path="url(#p60c6e3c114)" d="M 73.832727 245.523174 
L 74.135779 212.416858 
L 74.222365 214.84022 
L 74.568709 256.869799 
L 74.612002 262.206642 
L 74.655295 260.88799 
L 75.001639 217.905404 
L 75.477863 265.894197 
L 75.521156 264.26047 
L 75.564449 262.887361 
L 75.954086 221.604629 
L 76.213845 256.570283 
L 76.300431 273.817775 
L 76.343724 271.760056 
L 76.690068 225.214389 
L 76.733361 226.548599 
L 77.166292 266.679943 
L 77.209585 264.758368 
L 77.555929 220.02147 
L 77.599222 223.701246 
L 78.075446 266.792747 
L 78.335204 241.116001 
L 78.42179 220.713859 
L 78.465083 222.689891 
L 78.594962 231.0219 
L 78.9846 264.71169 
L 79.071186 257.461053 
L 79.287651 224.588126 
L 79.330944 223.479526 
L 79.41753 223.522314 
L 79.720581 265.493545 
L 79.807168 261.420897 
L 79.937047 251.108966 
L 80.153512 224.300279 
L 80.196805 224.903202 
L 80.456563 247.370842 
L 80.673028 266.112028 
L 81.019373 224.113568 
L 81.062666 225.62671 
L 81.192545 235.51854 
L 81.235838 233.130186 
L 81.322424 244.243421 
L 81.538889 272.152929 
L 81.97182 219.725843 
L 82.015113 216.792913 
L 82.361457 259.359288 
L 82.40475 263.256895 
L 82.448043 261.887676 
L 82.751095 223.83739 
L 82.837681 227.272107 
L 83.097439 251.91027 
L 83.227318 267.154501 
L 83.270611 261.304202 
L 83.357197 258.270137 
L 83.616955 228.470174 
L 83.660249 228.695784 
L 83.833421 236.343183 
L 83.920007 245.721556 
L 84.093179 268.761 
L 84.136472 268.484822 
L 84.309644 253.213362 
L 84.439523 220.756647 
L 84.526109 224.821516 
L 84.612696 230.088342 
L 84.655989 228.240674 
L 84.699282 224.895423 
L 84.95904 259.028653 
L 85.002333 255.625055 
L 85.435263 216.061626 
L 85.478556 213.618815 
L 85.868194 257.064291 
L 86.257831 209.748437 
L 86.344417 217.224684 
L 86.690762 257.30935 
L 86.907227 249.323535 
L 87.080399 226.482472 
L 87.123692 227.307115 
L 87.166985 226.416345 
L 87.599916 269.896829 
L 87.94626 223.650678 
L 87.989553 225.700617 
L 88.162725 238.984375 
L 88.37919 267.072815 
L 88.422483 264.894512 
L 88.552363 257.251002 
L 88.595656 257.30546 
L 88.768828 229.084766 
L 88.855414 235.775268 
L 89.288344 264.139886 
L 89.634689 204.835586 
L 89.894447 160.896102 
L 90.024326 153.015313 
L 90.413964 68.096503 
L 90.630429 129.334047 
L 90.93348 232.305543 
L 91.193238 254.341412 
L 91.366411 221.35568 
L 91.409704 224.96544 
L 91.669462 255.671733 
L 91.842634 273.848893 
L 91.92922 269.577863 
L 92.275564 224.467542 
L 92.318858 225.957345 
L 92.708495 263.015726 
L 92.968253 243.298193 
L 93.141425 230.271163 
L 93.228011 223.327822 
L 93.271305 225.84843 
L 93.704235 263.536962 
L 93.747528 264.384945 
L 93.877407 239.661205 
L 93.963993 216.42727 
L 94.007286 221.192308 
L 94.050579 221.624078 
L 94.093872 221.312892 
L 94.440217 258.760255 
L 94.48351 256.259096 
L 94.526803 256.224088 
L 94.613389 261.206956 
L 94.829854 222.592645 
L 94.91644 215.762109 
L 94.959733 218.866191 
L 95.219492 248.53779 
L 95.392664 254.847089 
L 95.435957 254.917106 
L 95.47925 251.820804 
L 95.695715 218.496658 
L 95.782301 214.276195 
L 96.215232 252.221456 
L 96.345111 245.958835 
L 96.561576 209.363344 
L 96.778041 225.062685 
L 97.037799 251.552406 
L 97.081093 248.10213 
L 97.254265 230.625138 
L 97.427437 207.562354 
L 97.514023 212.027876 
L 97.557316 210.258004 
L 97.730488 213.801637 
L 97.946953 234.900057 
L 98.076833 230.072782 
L 98.250005 198.327905 
L 98.336591 192.181979 
L 98.379884 194.216358 
L 98.423177 197.958372 
L 98.46647 197.308771 
L 98.509763 195.391086 
L 98.769521 228.913614 
L 98.812814 225.389431 
L 99.159159 187.331365 
L 99.245745 177.353959 
L 99.289038 180.92093 
L 99.332331 180.601965 
L 99.592089 211.70891 
L 99.721968 211.0243 
L 99.765261 208.079701 
L 99.981727 179.003246 
L 100.068313 173.012912 
L 100.111606 174.782784 
L 100.284778 188.700584 
L 100.414657 203.548053 
L 100.45795 202.112707 
L 100.501243 202.828435 
L 100.587829 216.244448 
L 100.631122 211.494969 
L 100.804294 185.744316 
L 100.934174 175.202885 
L 101.45369 232.616729 
L 101.713448 195.181036 
L 101.800034 202.7273 
L 101.973207 209.378903 
L 102.319551 255.819546 
L 102.362844 253.831844 
L 102.579309 217.909294 
L 102.709188 216.613981 
L 102.882361 234.262126 
L 103.098826 260.261728 
L 103.142119 258.985865 
L 103.185412 261.724303 
L 103.228705 258.550204 
L 103.401877 231.827094 
L 103.488463 223.565102 
L 103.531756 225.117143 
L 103.748221 233.892592 
L 103.964687 264.641673 
L 104.00798 263.673106 
L 104.051273 265.84363 
L 104.267738 235.942531 
L 104.397617 222.728789 
L 104.44091 224.533669 
L 104.614082 241.835619 
L 104.873841 267.072815 
L 104.917134 265.318503 
L 105.176892 234.266016 
L 105.263478 230.706824 
L 105.350064 225.117143 
L 105.393357 226.828667 
L 105.782995 270.429736 
L 105.956167 238.478698 
L 106.129339 227.816683 
L 106.345804 243.858328 
L 106.605562 266.699392 
L 106.951907 224.537559 
L 106.9952 224.658143 
L 107.125079 231.982687 
L 107.471423 264.237131 
L 107.514716 263.58753 
L 107.731182 235.483531 
L 107.904354 225.615041 
L 107.99094 227.034827 
L 108.293991 265.641359 
L 108.337284 270.33638 
L 108.380577 265.135681 
L 108.683629 222.184213 
L 108.770215 226.813107 
L 108.943387 239.315011 
L 109.203145 267.971365 
L 109.54949 222.316468 
L 109.765955 233.93149 
L 110.069006 271.849522 
L 110.285471 238.2103 
L 110.501937 223.83739 
L 110.934867 264.015411 
L 111.151332 238.459249 
L 111.367797 222.864933 
L 111.584263 245.453157 
L 111.800728 273.02036 
L 112.017193 239.066062 
L 112.147072 226.540819 
L 112.233658 223.012747 
L 112.276951 223.946305 
L 112.363537 229.932748 
L 112.623296 270.266363 
L 112.839761 241.699475 
L 113.099519 221.281774 
L 113.142812 220.589384 
L 113.489157 265.349622 
L 113.792208 222.016951 
L 113.96538 216.936837 
L 114.051966 220.449351 
L 114.355018 257.177096 
L 114.398311 250.490483 
L 114.571483 235.74026 
L 114.744655 214.194509 
L 114.787948 214.964695 
L 114.831241 211.961748 
L 115.177585 252.093092 
L 115.220878 254.216937 
L 115.350758 240.991526 
L 115.394051 241.271594 
L 115.52393 229.423181 
L 115.653809 216.629541 
L 115.697102 219.445775 
L 115.913567 246.767919 
L 116.086739 271.479989 
L 116.346498 234.180439 
L 116.389791 233.239101 
L 116.51967 222.4954 
L 116.562963 226.692523 
L 116.909307 265.38074 
L 116.995893 263.548632 
L 117.298945 230.158358 
L 117.385531 221.289553 
L 117.428824 224.156356 
L 117.645289 250.315441 
L 117.775168 266.166485 
L 117.861754 260.954117 
L 117.905047 260.238389 
L 118.078219 237.708512 
L 118.208099 224.767058 
L 118.251392 225.292185 
L 118.337978 229.185902 
L 118.381271 226.579718 
L 118.684322 193.613435 
L 119.203839 53.568 
L 119.247132 59.118783 
L 119.680062 227.999505 
L 119.809941 219.753072 
L 119.896527 216.843481 
L 120.026406 227.41603 
L 120.199579 255.909012 
L 120.372751 276.676797 
L 120.459337 270.11077 
L 120.50263 273.572716 
L 120.545923 272.149039 
L 120.762388 240.874831 
L 120.892267 233.254661 
L 121.152026 254.251946 
L 121.195319 261.549261 
L 121.238612 261.187507 
L 121.281905 254.411429 
L 121.368491 257.348248 
L 121.671542 225.937896 
L 121.758128 228.55186 
L 121.844714 232.157729 
L 121.974593 245.114743 
L 122.147766 261.226405 
L 122.191059 263.447496 
L 122.49411 222.522628 
L 122.537403 225.906778 
L 122.580696 225.8601 
L 122.623989 223.215018 
L 122.667282 226.151837 
L 122.753868 233.558067 
L 122.92704 262.24554 
L 122.970333 260.588474 
L 123.230092 240.334145 
L 123.403264 221.861358 
L 123.446557 219.628597 
L 123.48985 222.880492 
L 123.706315 236.572683 
L 123.879487 254.956004 
L 123.92278 256.321334 
L 124.269125 215.28755 
L 124.48559 228.590758 
L 124.658762 250.171517 
L 124.788641 250.070382 
L 124.831934 249.350764 
L 125.178279 207.935778 
L 125.221572 209.23109 
L 125.308158 215.334228 
L 125.48133 246.647334 
L 125.567916 242.652482 
L 125.654502 246.355597 
L 126.000847 208.468684 
L 126.04414 207.017779 
L 126.130726 214.136162 
L 126.174019 211.720579 
L 126.217312 211.778927 
L 126.347191 239.171087 
L 126.47707 234.977854 
L 126.563656 229.465969 
L 126.650242 221.246765 
L 126.866708 191.275649 
L 126.910001 193.986859 
L 127.03988 205.559094 
L 127.213052 224.774838 
L 127.256345 217.026303 
L 127.299638 222.740459 
L 127.342931 228.10064 
L 127.386224 227.404361 
L 127.732568 179.753982 
L 128.078913 212.039545 
L 128.165499 208.655396 
L 128.208792 208.655396 
L 128.381964 200.494539 
L 128.555136 175.393486 
L 128.598429 176.89496 
L 128.685015 167.104265 
L 128.728309 170.702355 
L 128.858188 190.458786 
L 128.944774 208.616497 
L 128.988067 202.322758 
L 129.03136 202.731189 
L 129.074653 204.660544 
L 129.117946 203.050155 
L 129.550876 170.877398 
L 129.853928 213.992238 
L 129.897221 216.162761 
L 129.940514 212.81751 
L 130.330151 184.044461 
L 130.373444 186.242213 
L 130.806375 237.875775 
L 130.849668 238.315325 
L 131.196012 208.78376 
L 131.239305 211.428842 
L 131.325891 216.450609 
L 131.672236 256.706427 
L 131.802115 246.861275 
L 132.061873 222.024731 
L 132.235045 229.135334 
L 132.494803 260.565135 
L 132.538096 260.257838 
L 132.58139 259.814398 
L 132.754562 239.213875 
L 132.971027 217.508642 
L 133.317371 257.923942 
L 133.403957 259.973881 
L 133.836888 229.959977 
L 133.880181 230.415087 
L 134.053353 252.602659 
L 134.226525 270.192456 
L 134.702749 224.922651 
L 135.178972 260.716838 
L 135.525317 227.283776 
L 135.56861 226.400786 
L 135.655196 233.635864 
L 135.914954 259.405966 
L 135.958247 260.487338 
L 136.00154 259.145348 
L 136.174712 245.231437 
L 136.347884 224.486991 
L 136.477764 231.951569 
L 136.521057 231.512018 
L 136.56435 227.88281 
L 136.780815 263.486395 
L 136.824108 263.560301 
L 136.867401 262.69287 
L 136.910694 263.482505 
L 137.300331 223.37839 
L 137.343624 224.362516 
L 137.689969 258.861391 
L 137.733262 258.375162 
L 137.863141 247.254147 
L 138.079606 224.763169 
L 138.166192 229.076987 
L 138.209485 227.964496 
L 138.252778 228.979741 
L 138.55583 260.989126 
L 138.599123 261.685405 
L 138.642416 260.712948 
L 138.772295 245.919937 
L 138.945467 216.096634 
L 138.98876 219.150148 
L 139.161932 239.816798 
L 139.248518 254.014666 
L 139.291812 245.441488 
L 139.378398 255.411114 
L 139.421691 261.673735 
L 139.464984 259.386517 
L 139.854621 218.43831 
L 139.897914 218.566674 
L 140.330845 267.41512 
L 140.504017 243.811651 
L 140.720482 213.673272 
L 140.763775 219.224055 
L 141.066826 258.768035 
L 141.110119 257.947281 
L 141.153412 254.100243 
L 141.196706 255.998478 
L 141.239999 257.624426 
L 141.283292 255.360546 
L 141.54305 223.467856 
L 141.586343 223.84128 
L 141.716222 232.713975 
L 141.97598 257.655544 
L 142.062566 259.402077 
L 142.149152 255.49669 
L 142.452204 216.610092 
L 142.495497 214.62628 
L 142.53879 216.796803 
L 142.841841 254.084683 
L 143.101599 229.812164 
L 143.274772 211.417173 
L 143.361358 214.334543 
L 143.707702 251.801355 
L 143.794288 246.7368 
L 143.837581 247.993214 
L 143.880874 249.490798 
L 144.140633 216.337804 
L 144.227219 217.123549 
L 144.53027 259.153128 
L 144.660149 267.578492 
L 144.9632 227.801123 
L 145.006493 225.323304 
L 145.049787 226.560269 
L 145.136373 228.057852 
L 145.352838 256.371901 
L 145.439424 260.724618 
L 145.482717 260.635152 
L 145.699182 252.610439 
L 145.872354 228.866936 
L 145.95894 222.584866 
L 146.348578 269.037178 
L 146.391871 265.944765 
L 146.738215 219.955343 
L 146.781508 221.285663 
L 146.868094 231.282518 
L 146.954681 241.940644 
L 146.997974 235.701362 
L 147.171146 222.223112 
L 147.344318 182.360166 
L 147.777248 70.842721 
L 147.863834 73.981811 
L 148.296765 217.601997 
L 148.383351 209.795115 
L 148.426644 210.180208 
L 148.51323 215.509271 
L 148.556523 214.941356 
L 148.859574 265.485766 
L 148.902868 263.007946 
L 148.946161 266.660493 
L 148.989454 270.297481 
L 149.032747 266.357087 
L 149.249212 245.989954 
L 149.292505 247.281376 
L 149.335798 246.192225 
L 149.422384 231.053019 
L 149.465677 238.824893 
L 149.638849 259.192026 
L 149.768728 265.84363 
L 150.244952 224.984889 
L 150.288245 225.218278 
L 150.634589 264.252691 
L 150.677882 258.561874 
L 150.894348 235.97365 
L 151.06752 222.308688 
L 151.110813 222.114197 
L 151.154106 222.444832 
L 151.370571 249.035688 
L 151.543743 257.628315 
L 151.630329 250.988381 
L 151.933381 216.571193 
L 152.06326 230.310062 
L 152.366311 257.651654 
L 152.409604 257.499951 
L 152.842535 214.867449 
L 152.885828 214.980254 
L 153.188879 247.518656 
L 153.275465 251.68466 
L 153.405344 237.517911 
L 153.621809 214.921907 
L 153.665102 215.812677 
L 153.708396 213.568247 
L 153.751689 216.271677 
L 153.838275 215.555948 
L 154.098033 247.740376 
L 154.227912 240.598654 
L 154.314498 230.205036 
L 154.48767 206.959431 
L 154.530963 207.585693 
L 154.617549 209.141624 
L 154.790722 227.365463 
L 154.877308 236.63881 
L 154.963894 242.850863 
L 155.396824 191.800776 
L 155.440117 195.258832 
L 155.526703 208.857667 
L 155.569996 203.104613 
L 155.873048 232.37556 
L 155.916341 229.065317 
L 156.219392 186.592298 
L 156.392564 196.20406 
L 156.435857 189.120685 
L 156.47915 190.913896 
L 156.695616 217.629226 
L 157.04196 176.268698 
L 157.128546 169.733788 
L 157.171839 171.324728 
L 157.388304 196.266297 
L 157.561477 208.77598 
L 157.60477 210.277453 
L 157.648063 207.990235 
L 157.951114 170.60511 
L 157.994407 169.978848 
L 158.254165 197.522711 
L 158.470631 218.465539 
L 158.557217 211.242131 
L 158.860268 189.089567 
L 159.293198 235.97365 
L 159.336491 240.135764 
L 159.379784 236.144802 
L 159.682836 209.285548 
L 159.726129 210.538072 
L 160.159059 254.080793 
L 160.375524 243.165939 
L 160.548697 220.24319 
L 160.59199 223.514534 
L 160.851748 246.542309 
L 161.068213 264.330487 
L 161.154799 258.923628 
L 161.414558 223.755703 
L 161.457851 224.214703 
L 161.717609 249.195171 
L 161.760902 249.720298 
L 161.890781 267.613501 
L 161.934074 264.980088 
L 162.02066 261.829328 
L 162.150539 238.074156 
L 162.323712 221.491824 
L 162.670056 261.409227 
L 162.799935 263.463056 
L 162.843228 263.295793 
L 162.973107 242.757508 
L 163.146279 227.007599 
L 163.449331 253.637353 
L 163.492624 253.275599 
L 163.665796 269.453389 
L 163.709089 266.123697 
L 164.01214 224.926541 
L 164.098726 238.996045 
L 164.142019 231.430332 
L 164.185312 232.410568 
L 164.488364 261.743752 
L 164.531657 261.455905 
L 164.878001 227.606632 
L 165.00788 229.497088 
L 165.051173 231.554806 
L 165.354225 267.030027 
L 165.484104 255.539478 
L 165.743862 229.018639 
L 165.787155 229.734367 
L 165.830448 234.697786 
L 165.873741 228.09286 
L 165.917034 228.699673 
L 166.00362 237.657945 
L 166.220086 263.929835 
L 166.263379 263.918165 
L 166.436551 239.637866 
L 166.56643 222.273679 
L 166.609723 222.557637 
L 166.696309 228.9953 
L 166.739602 226.249082 
L 166.869481 237.844656 
L 167.085946 264.567767 
L 167.12924 264.209902 
L 167.475584 226.657514 
L 167.518877 228.816368 
L 167.56217 221.262324 
L 167.605463 222.818255 
L 167.908514 266.874434 
L 167.951807 258.075646 
L 167.9951 256.803672 
L 168.038393 260.950228 
L 168.081687 259.028653 
L 168.428031 221.935264 
L 168.731082 257.9784 
L 168.774375 256.986494 
L 168.817668 256.025707 
L 168.860961 259.705483 
L 168.904254 256.434139 
L 169.034134 244.165625 
L 169.12072 233.744779 
L 169.164013 235.401845 
L 169.207306 238.101385 
L 169.250599 233.888702 
L 169.293892 222.437052 
L 169.337185 223.650678 
L 169.683529 263.758683 
L 169.726822 261.273083 
L 169.813408 257.927832 
L 169.986581 225.957345 
L 170.073167 228.279572 
L 170.11646 228.038403 
L 170.203046 225.580032 
L 170.289632 235.086769 
L 170.462804 255.068809 
L 170.54939 259.495432 
L 170.592683 256.368012 
L 171.025614 212.529663 
L 171.371958 251.793575 
L 171.415251 250.420466 
L 171.458544 249.778645 
L 171.891474 209.472259 
L 172.064647 237.210614 
L 172.237819 262.264989 
L 172.281112 259.896085 
L 172.324405 259.215365 
L 172.367698 260.569025 
L 172.410991 258.845831 
L 172.757335 216.905718 
L 173.017094 257.616646 
L 173.146973 265.855299 
L 173.233559 263.268564 
L 173.450024 224.747609 
L 173.623196 224.802067 
L 173.839662 249.148493 
L 173.926248 255.376106 
L 174.012834 269.122754 
L 174.056127 268.936042 
L 174.142713 260.187822 
L 174.315885 226.206294 
L 174.359178 228.886385 
L 174.402471 231.488679 
L 174.445764 227.703878 
L 174.53235 232.352221 
L 174.835402 263.840369 
L 174.921988 260.915219 
L 174.965281 261.078592 
L 175.831142 116.501508 
L 176.047607 60.7564 
L 176.0909 69.74579 
L 176.653709 244.916361 
L 176.697003 243.107592 
L 176.870175 236.370412 
L 176.913468 235.853065 
L 176.956761 236.85664 
L 177.043347 226.498031 
L 177.08664 231.107476 
L 177.259812 261.152499 
L 177.389691 275.891052 
L 177.432984 274.070613 
L 177.51957 277.719271 
L 177.909208 226.478582 
L 177.995794 233.359686 
L 178.298845 268.041382 
L 178.342138 268.158077 
L 178.775069 223.215018 
L 178.818362 225.039346 
L 178.904948 226.054591 
L 179.164706 260.740177 
L 179.207999 262.319447 
L 179.251292 259.946652 
L 179.597637 222.822145 
L 179.64093 222.4954 
L 179.987274 260.946338 
L 180.030567 263.782022 
L 180.333618 230.963553 
L 180.376911 232.861788 
L 180.420204 232.916246 
L 180.50679 220.24708 
L 180.550084 222.736569 
L 180.63667 224.673703 
L 180.809842 257.348248 
L 180.896428 250.012035 
L 180.939721 249.910899 
L 180.983014 251.68855 
L 181.112893 240.835933 
L 181.329358 214.848 
L 181.502531 224.704821 
L 181.805582 252.307032 
L 182.06534 229.602113 
L 182.238512 211.988977 
L 182.498271 237.510131 
L 182.62815 247.207469 
L 182.671443 249.140713 
L 182.714736 247.814282 
L 183.017787 202.365546 
L 183.06108 204.656654 
L 183.494011 238.607062 
L 183.537304 237.051132 
L 183.926941 196.406331 
L 184.05682 196.546365 
L 184.403165 231.519798 
L 184.749509 187.167992 
L 184.836095 191.221192 
L 184.879388 192.115852 
L 185.182439 217.154667 
L 185.269025 216.470058 
L 185.528784 193.310029 
L 185.658663 171.27027 
L 186.005007 212.090113 
L 186.0483 218.613352 
L 186.091593 214.101153 
L 186.351352 191.310658 
L 186.394645 189.536897 
L 186.481231 177.894645 
L 186.61111 190.073693 
L 186.654403 188.101551 
L 186.740989 201.031335 
L 186.827575 221.659087 
L 186.914161 221.001706 
L 187.087333 229.380393 
L 187.130626 227.972276 
L 187.347092 193.609546 
L 187.390385 198.767456 
L 187.780022 246.359487 
L 187.866608 250.57217 
L 187.909901 249.304086 
L 188.126366 229.535986 
L 188.299539 215.435364 
L 188.386125 224.992668 
L 188.645883 258.561874 
L 188.775762 266.925002 
L 188.819055 263.066293 
L 189.078813 219.846427 
L 189.1654 223.744034 
L 189.511744 262.529497 
L 189.555037 265.337952 
L 189.59833 264.458851 
L 189.858088 244.772438 
L 189.944674 230.026104 
L 189.987967 233.029051 
L 190.16114 242.656372 
L 190.377605 266.757739 
L 190.420898 264.159335 
L 190.853828 231.313637 
L 190.897121 231.371984 
L 190.983707 236.304285 
L 191.243466 268.150297 
L 191.373345 267.212849 
L 191.633103 229.395952 
L 191.719689 236.253717 
L 191.762982 236.393751 
L 191.892861 239.929603 
L 192.02274 263.712005 
L 192.066034 263.564191 
L 192.15262 263.988182 
L 192.195913 266.154816 
L 192.239206 264.952859 
L 192.498964 229.660461 
L 192.542257 232.550602 
L 192.58555 235.05954 
L 192.628843 232.80733 
L 192.672136 232.282204 
L 192.758722 239.571739 
L 192.975187 269.457279 
L 193.018481 267.41123 
L 193.105067 263.221886 
L 193.408118 227.062056 
L 193.494704 234.281575 
L 193.711169 253.291159 
L 193.797755 268.636525 
L 193.841048 266.430994 
L 193.884341 262.755107 
L 193.927634 266.030341 
L 193.970928 265.719155 
L 194.273979 219.033454 
L 194.663616 268.737661 
L 194.793495 262.436141 
L 195.13984 224.770948 
L 195.226426 230.368409 
L 195.313012 235.425184 
L 195.57277 265.057885 
L 195.659356 266.384316 
L 195.832528 240.933179 
L 195.962408 224.086339 
L 196.438631 262.124955 
L 196.525217 265.528554 
L 196.56851 262.607294 
L 196.914855 227.579403 
L 197.13132 248.607807 
L 197.304492 264.065979 
L 197.391078 265.971994 
L 197.780715 226.498031 
L 197.824009 227.987835 
L 198.170353 263.007946 
L 198.213646 261.452015 
L 198.430111 245.818801 
L 198.603283 218.823403 
L 198.646576 218.986776 
L 198.689869 218.912869 
L 198.819749 235.05954 
L 199.036214 257.274341 
L 199.252679 248.53779 
L 199.425851 216.295016 
L 199.469144 211.961748 
L 199.512437 213.708281 
L 199.772196 246.164996 
L 199.945368 258.285696 
L 200.11854 249.44023 
L 200.291712 225.817312 
L 200.378298 222.514849 
L 200.724643 268.803788 
L 200.854522 262.945709 
L 201.200866 233.620304 
L 201.244159 232.997932 
L 201.633797 268.414805 
L 201.763676 259.009204 
L 201.806969 262.424472 
L 201.850262 258.445179 
L 202.023434 233.305228 
L 202.066727 230.177808 
L 202.11002 232.877347 
L 202.326485 252.213677 
L 202.54295 272.927004 
L 202.716123 257.916163 
L 202.889295 230.741832 
L 202.932588 230.555121 
L 203.062467 234.487736 
L 203.10576 233.503609 
L 203.192346 229.434851 
L 203.53869 162.568727 
L 203.798449 71.698483 
L 203.885035 60.172926 
L 203.928328 63.105855 
L 204.014914 93.259793 
L 204.361258 231.91267 
L 204.404551 237.76297 
L 204.447844 229.481529 
L 204.577724 212.245706 
L 204.621017 212.623019 
L 205.053947 277.019102 
L 205.09724 276.416179 
L 205.183826 273.825554 
L 205.227119 275.552637 
L 205.270412 274.692986 
L 205.530171 233.93149 
L 205.573464 235.273481 
L 205.919808 268.037492 
L 205.963101 267.710747 
L 206.006394 269.387262 
L 206.396031 230.924654 
L 206.569204 240.660891 
L 206.828962 272.452446 
L 206.872255 271.425531 
L 207.218599 226.723641 
L 207.305185 229.539876 
L 207.738116 266.886103 
L 207.781409 265.765833 
L 207.824702 266.788858 
L 208.041167 226.210184 
L 208.08446 226.400786 
L 208.171046 224.253601 
L 208.560684 267.496806 
L 208.64727 263.074073 
L 208.733856 246.445063 
L 208.907028 226.463023 
L 208.950321 227.178751 
L 208.993614 230.485104 
L 209.036907 229.205351 
L 209.0802 228.205665 
L 209.426545 261.646507 
L 209.469838 258.88084 
L 209.556424 254.61759 
L 209.772889 223.117772 
L 209.859475 217.613667 
L 209.902768 218.543335 
L 210.07594 237.54514 
L 210.292406 256.239647 
L 210.63875 216.668439 
L 210.682043 219.224055 
L 210.725336 219.177377 
L 210.768629 212.350731 
L 210.811922 214.027247 
L 211.07168 246.223343 
L 211.158266 256.239647 
L 211.201559 251.980287 
L 211.63449 202.583376 
L 211.980834 235.028422 
L 212.110713 238.186961 
L 212.543644 189.735278 
L 212.846695 223.642898 
L 212.889988 224.397525 
L 212.976574 228.758021 
L 213.236333 179.178288 
L 213.496091 195.0799 
L 213.799142 222.067519 
L 213.842435 221.526833 
L 214.0589 186.837357 
L 214.232073 182.290149 
L 214.318659 192.073064 
L 214.578417 233.134076 
L 214.968054 202.595045 
L 215.011347 200.03165 
L 215.097934 200.961318 
L 215.530864 258.169001 
L 215.574157 257.776129 
L 215.747329 228.209555 
L 215.833915 226.198515 
L 215.963794 220.285978 
L 216.396725 265.793062 
L 216.440018 264.447182 
L 216.656483 228.256233 
L 216.699776 228.843597 
L 216.959534 246.845715 
L 217.176 276.268366 
L 217.262586 272.942564 
L 217.479051 243.002567 
L 217.565637 232.955144 
L 217.60893 224.868194 
L 217.652223 225.828981 
L 217.868688 252.571541 
L 217.998568 268.761 
L 218.085154 272.856988 
L 218.128447 276.704026 
L 218.344912 240.44695 
L 218.431498 237.179496 
L 218.518084 230.35285 
L 218.561377 234.787252 
L 218.994308 279.54749 
L 219.210773 243.687176 
L 219.254066 244.95526 
L 219.297359 242.773067 
L 219.383945 233.596965 
L 219.427238 236.374302 
L 219.730289 268.356458 
L 219.773582 267.061146 
L 219.860169 273.526038 
L 220.119927 239.073841 
L 220.16322 234.954515 
L 220.206513 234.962295 
L 220.293099 234.938956 
L 220.466271 251.599084 
L 220.682736 275.529299 
L 220.726029 275.93773 
L 220.942495 240.999306 
L 221.029081 232.842339 
L 221.072374 235.125667 
L 221.245546 245.776013 
L 221.288839 246.336148 
L 221.462011 275.179214 
L 221.59189 274.479045 
L 221.808356 239.276112 
L 221.894942 231.877662 
L 221.938235 227.326564 
L 221.981528 229.44652 
L 222.414458 274.59574 
L 222.760803 226.992039 
L 222.890682 234.744464 
L 223.020561 245.157531 
L 223.280319 278.85899 
L 223.669956 228.629656 
L 223.756543 236.300395 
L 224.14618 280.65609 
L 224.405938 239.404477 
L 224.492524 235.483531 
L 224.535817 237.502351 
L 224.622403 240.991526 
L 224.665697 239.746782 
L 224.70899 238.350334 
L 224.795576 253.800726 
L 224.968748 271.196031 
L 225.012041 270.733142 
L 225.358385 229.722698 
L 225.401678 229.430961 
L 225.488264 230.037774 
L 225.834609 267.85856 
L 226.094367 239.023274 
L 226.224246 221.386799 
L 226.267539 221.627968 
L 226.354125 224.992668 
L 226.70047 263.59142 
L 226.743763 256.360232 
L 226.873642 246.238903 
L 227.176693 222.814365 
L 227.263279 227.163192 
L 227.566331 271.269938 
L 227.609624 262.891251 
L 227.69621 259.273712 
L 227.869382 238.089715 
L 227.912675 230.240045 
L 227.955968 232.235526 
L 228.345605 264.147665 
L 228.432191 278.104364 
L 228.475484 273.284868 
L 228.951708 232.157729 
L 228.995001 236.728276 
L 229.254759 275.852154 
L 229.298052 272.273513 
L 229.427931 260.051678 
L 229.514518 252.408168 
L 229.68769 238.342554 
L 229.730983 237.233953 
L 230.163913 277.369187 
L 230.337085 259.269822 
L 230.423672 246.270021 
L 230.726723 198.853032 
L 231.029774 166.925333 
L 231.419412 58.675343 
L 231.67917 161.852999 
L 231.852342 249.992585 
L 231.895635 241.291043 
L 231.938928 239.692324 
L 232.025514 242.858643 
L 232.371859 231.46145 
L 232.501738 250.657746 
L 232.718203 287.190999 
L 233.237719 236.498776 
L 233.324306 238.517596 
L 233.410892 249.502467 
L 233.584064 271.196031 
L 233.627357 266.621595 
L 233.67065 267.263417 
L 233.713943 266.95612 
L 234.060287 237.424555 
L 234.10358 237.444004 
L 234.190166 244.251201 
L 234.406632 269.733457 
L 234.493218 263.898716 
L 234.579804 266.913332 
L 234.709683 251.163423 
L 234.882855 224.73205 
L 234.926148 229.769376 
L 235.315786 270.5581 
L 235.445665 265.684147 
L 235.748716 225.564473 
L 235.921888 234.180439 
L 236.138353 267.889679 
L 236.268233 262.191082 
L 236.701163 222.93884 
L 236.744456 226.385226 
L 236.787749 227.299336 
L 237.0908 261.79821 
L 237.134094 260.055567 
L 237.393852 228.085081 
L 237.437145 228.625767 
L 237.567024 223.767373 
L 237.610317 225.568363 
L 237.826782 253.687921 
L 237.870075 267.660179 
L 237.913368 260.121694 
L 237.956661 250.393238 
L 238.043247 254.594251 
L 238.173127 235.234582 
L 238.389592 207.235609 
L 238.519471 216.384482 
L 238.735936 246.242792 
L 238.822522 240.030739 
L 238.865815 240.66867 
L 238.909108 240.275798 
L 238.995694 230.162248 
L 239.255453 202.093258 
L 239.298746 202.556147 
L 239.385332 208.659286 
L 239.601797 237.335089 
L 239.64509 232.37556 
L 239.688383 233.701991 
L 239.731676 235.853065 
L 240.121314 190.863328 
L 240.164607 191.174514 
L 240.381072 213.848315 
L 240.424365 223.751814 
L 240.510951 222.242561 
L 240.64083 219.920334 
L 241.030468 181.803921 
L 241.290226 218.111565 
L 241.376812 217.09632 
L 241.463398 223.051645 
L 241.506691 221.849688 
L 241.766449 181.313803 
L 241.853035 187.770915 
L 242.285966 236.992784 
L 242.372552 231.25529 
L 242.502431 219.585809 
L 242.589017 206.663804 
L 242.63231 208.495913 
L 242.718896 215.159186 
L 242.762189 213.49434 
L 242.805482 211.386054 
L 242.848775 212.564672 
L 243.19512 262.381684 
L 243.541464 222.608205 
L 243.584757 224.980999 
L 243.671343 229.263698 
L 243.887809 267.018357 
L 244.017688 261.763201 
L 244.060981 261.856557 
L 244.147567 263.070183 
L 244.364032 232.243306 
L 244.407325 232.745093 
L 244.450618 232.663407 
L 244.493911 232.900686 
L 244.883549 274.035605 
L 244.926842 272.670276 
L 245.056721 263.439717 
L 245.229893 234.071524 
L 245.316479 235.841395 
L 245.489651 253.824065 
L 245.706116 271.102676 
L 245.879289 264.404394 
L 246.095754 242.897541 
L 246.139047 243.247626 
L 246.18234 244.150066 
L 246.268926 236.985004 
L 246.312219 240.824264 
L 246.61527 275.988298 
L 246.961615 231.072468 
L 247.004908 233.386915 
L 247.481131 275.167545 
L 247.524424 275.070299 
L 247.827476 236.156471 
L 247.870769 238.362003 
L 247.914062 243.628829 
L 248.000648 242.236271 
L 248.087234 251.303457 
L 248.260406 275.155875 
L 248.303699 274.202868 
L 248.693337 239.637866 
L 248.73663 239.571739 
L 248.779923 238.645961 
L 248.823216 240.01518 
L 249.082974 262.412802 
L 249.256146 274.840799 
L 249.559197 233.558067 
L 249.775663 239.77401 
L 249.992128 274.272884 
L 250.035421 276.213908 
L 250.078714 274.125071 
L 250.251886 254.753733 
L 250.468351 238.821003 
L 250.511644 236.592132 
L 250.554938 237.405106 
L 250.684817 252.882727 
L 250.72811 264.097097 
L 250.814696 261.156388 
L 250.901282 277.478102 
L 250.944575 272.35909 
L 251.334212 232.733424 
L 251.507384 245.923827 
L 251.593971 264.155445 
L 251.637264 263.416378 
L 251.680557 264.171004 
L 251.810436 270.297481 
L 252.026901 248.837307 
L 252.15678 236.681598 
L 252.200073 237.580148 
L 252.243366 235.401845 
L 252.286659 236.090344 
L 252.589711 265.458537 
L 252.633004 264.785597 
L 252.71959 268.714322 
L 252.849469 248.638926 
L 253.065934 221.561841 
L 253.109227 222.553747 
L 253.455572 263.027395 
L 253.498865 268.30978 
L 253.542158 263.743123 
L 253.888502 220.643842 
L 253.975088 225.517795 
L 254.364725 267.267306 
L 254.408019 266.403765 
L 254.754363 230.601799 
L 254.970828 246.483962 
L 255.273879 275.762688 
L 255.317172 274.860248 
L 255.620224 236.245937 
L 255.70681 242.629143 
L 255.750103 242.387974 
L 255.836689 253.116116 
L 256.096447 281.488513 
L 256.13974 285.183849 
L 256.183033 280.473268 
L 256.399499 240.217451 
L 256.442792 239.945163 
L 256.486085 240.287467 
L 256.572671 237.432335 
L 256.70255 252.462625 
L 257.005601 283.192257 
L 257.351946 235.335718 
L 257.525118 241.835619 
L 257.611704 256.920367 
L 257.654997 253.975768 
L 257.69829 253.520658 
L 257.871462 226.552489 
L 258.001341 187.358594 
L 258.347686 87.736239 
L 258.477565 76.848614 
L 258.520858 80.143297 
L 258.953788 219.636377 
L 258.997081 218.407192 
L 259.12696 211.529978 
L 259.213547 227.587183 
L 259.386719 258.41406 
L 259.646477 279.030143 
L 259.733063 277.233043 
L 259.992821 243.659947 
L 260.036114 245.705996 
L 260.382459 280.449929 
L 260.469045 272.184047 
L 260.901975 234.977854 
L 260.945268 236.354853 
L 261.118441 257.896714 
L 261.334906 274.451817 
L 261.551371 244.838565 
L 261.724543 233.795346 
L 261.811129 241.205467 
L 261.897715 254.777072 
L 261.941008 250.937813 
L 262.200767 270.530871 
L 262.287353 263.027395 
L 262.590404 227.66109 
L 262.633697 229.637122 
L 262.936748 266.341528 
L 263.066628 268.469263 
L 263.196507 258.495747 
L 263.456265 233.480271 
L 263.499558 234.262126 
L 263.542851 233.025161 
L 263.802609 267.084484 
L 263.932488 263.249115 
L 264.062368 251.412372 
L 264.278833 221.542392 
L 264.365419 227.353793 
L 264.538591 239.062172 
L 264.711763 259.199806 
L 264.798349 255.866224 
L 265.23128 210.487504 
L 265.491038 247.662579 
L 265.577624 253.746268 
L 266.053848 207.698498 
L 266.097141 207.963007 
L 266.183727 224.475321 
L 266.22702 219.255174 
L 266.486778 244.772438 
L 266.530071 242.566906 
L 266.919709 197.950592 
L 266.963002 198.993066 
L 267.179467 223.755703 
L 267.309346 228.703563 
L 267.352639 227.466598 
L 267.395932 227.64553 
L 267.525811 211.996757 
L 267.698983 187.331365 
L 267.872156 202.365546 
L 267.915449 192.703216 
L 267.958742 195.597247 
L 268.131914 219.889216 
L 268.175207 220.993926 
L 268.2185 219.721953 
L 268.261793 220.142054 
L 268.391672 206.496542 
L 268.564844 182.527429 
L 268.608137 185.258087 
L 268.65143 186.510612 
L 269.084361 232.546712 
L 269.21424 222.191993 
L 269.473998 204.240442 
L 269.517291 204.341578 
L 269.690463 218.66003 
L 269.950222 250.754991 
L 270.166687 236.806072 
L 270.339859 220.927799 
L 270.599617 243.978913 
L 270.816083 268.881584 
L 270.859376 269.103305 
L 271.162427 231.628713 
L 271.249013 234.690007 
L 271.595357 269.88127 
L 271.681944 275.754908 
L 271.725237 273.829444 
L 271.941702 244.025591 
L 271.984995 245.184759 
L 272.114874 233.869253 
L 272.288046 249.311866 
L 272.504511 280.551065 
L 272.547804 276.991873 
L 272.937442 238.167512 
L 273.240493 267.345103 
L 273.327079 274.187308 
L 273.370372 272.285183 
L 273.413665 271.841743 
L 273.456958 273.9228 
L 273.500251 273.059259 
L 273.803303 236.599912 
L 273.846596 243.488795 
L 273.889889 247.853181 
L 273.933182 243.36432 
L 273.976475 242.162364 
L 274.19294 274.83302 
L 274.236233 273.222631 
L 274.279526 273.603834 
L 274.366112 269.566194 
L 274.669164 236.895538 
L 274.712457 242.069008 
L 275.145387 278.061576 
L 275.18868 274.646308 
L 275.491732 236.1837 
L 275.578318 241.839508 
L 275.621611 242.041779 
L 275.664904 239.668985 
L 276.011248 278.652829 
L 276.054541 273.739978 
L 276.357592 236.455988 
L 276.574058 249.086256 
L 276.617351 245.62042 
L 276.660644 249.502467 
L 276.833816 276.62623 
L 277.006988 262.731768 
L 277.223453 235.775268 
L 277.699677 274.261215 
L 277.74297 272.818089 
L 277.916142 256.799782 
L 278.089314 237.455674 
L 278.132607 241.699475 
L 278.1759 243.018126 
L 278.219193 238.88713 
L 278.262486 242.983117 
L 278.349072 247.121893 
L 278.565538 281.690784 
L 278.608831 279.839227 
L 278.868589 248.207155 
L 278.955175 244.457362 
L 278.998468 254.135251 
L 279.041761 253.271709 
L 279.128347 234.227117 
L 279.17164 234.250456 
L 279.474692 274.300113 
L 279.517985 273.098157 
L 279.73445 236.463768 
L 279.821036 229.423181 
L 279.864329 234.674447 
L 279.907622 232.702305 
L 279.950915 226.630285 
L 279.994208 231.228061 
L 280.29726 261.253634 
L 280.340553 264.291589 
L 280.383846 262.01604 
L 280.686897 225.615041 
L 280.73019 228.229004 
L 280.773483 231.290298 
L 280.816776 228.186216 
L 280.860069 228.971961 
L 281.206413 265.653028 
L 281.293 258.169001 
L 281.422879 244.72576 
L 281.509465 234.62388 
L 281.552758 235.50298 
L 281.596051 240.443061 
L 281.639344 235.28126 
L 281.769223 246.281691 
L 282.028981 279.438575 
L 282.072274 282.861622 
L 282.115567 278.86677 
L 282.375326 241.827839 
L 282.461912 246.386716 
L 282.505205 239.007714 
L 282.548498 244.527379 
L 282.894842 279.337439 
L 282.938135 279.384117 
L 283.371066 237.75908 
L 283.414359 238.054707 
L 283.674117 273.012581 
L 283.803996 279.139058 
L 284.020461 254.302514 
L 284.107047 236.105904 
L 284.150341 243.325422 
L 284.193634 245.966615 
L 284.236927 241.730593 
L 284.28022 244.04893 
L 284.366806 249.164052 
L 284.453392 257.161536 
L 284.71315 207.227829 
L 285.146081 78.427883 
L 285.27596 80.396136 
L 285.362546 108.430118 
L 285.70889 226.711972 
L 285.752183 226.147947 
L 285.925355 215.260322 
L 285.968648 215.548169 
L 286.358286 281.134539 
L 286.401579 283.942994 
L 286.444872 283.561791 
L 286.531458 277.571458 
L 286.791216 248.681714 
L 286.834509 248.08657 
L 287.224147 280.500497 
L 287.310733 269.243338 
L 287.527198 246.390606 
L 287.570491 250.910585 
L 287.613784 249.525806 
L 287.70037 237.918563 
L 287.743663 242.835304 
L 287.786956 243.671617 
L 288.046715 275.463171 
L 288.090008 273.961698 
L 288.219887 265.201808 
L 288.393059 240.715348 
L 288.436352 243.574371 
L 288.566231 233.596965 
L 288.609524 237.070581 
L 288.999162 274.502384 
L 289.25892 240.707569 
L 289.302213 245.986064 
L 289.345506 242.874202 
L 289.388799 234.234897 
L 289.432092 236.000878 
L 289.778436 270.044643 
L 289.821729 270.982091 
L 289.865022 270.464744 
L 290.038195 250.276543 
L 290.211367 230.298392 
L 290.25466 227.143743 
L 290.297953 228.625767 
L 290.730883 266.380426 
L 290.774176 265.964214 
L 291.120521 220.177063 
L 291.163814 224.875974 
L 291.466865 259.468204 
L 291.510158 259.409856 
L 291.769916 239.190536 
L 291.856503 223.561212 
L 291.899796 223.852949 
L 291.943089 219.79586 
L 291.986382 221.406248 
L 292.072968 226.346328 
L 292.376019 254.668157 
L 292.462605 251.392923 
L 292.592484 239.435595 
L 292.80895 205.368492 
L 292.852243 207.527346 
L 292.982122 216.687888 
L 293.24188 243.426558 
L 293.285173 243.057024 
L 293.501638 214.326763 
L 293.718104 197.417686 
L 293.761397 197.592728 
L 294.151034 231.784306 
L 294.324206 212.813621 
L 294.583964 184.468452 
L 294.627257 185.172511 
L 294.843723 218.873971 
L 294.887016 217.940412 
L 295.016895 222.223112 
L 295.060188 220.966698 
L 295.406532 184.351758 
L 295.882756 235.526319 
L 295.926049 234.728905 
L 296.2291 195.243273 
L 296.315686 203.341892 
L 296.748617 252.279804 
L 296.79191 250.268763 
L 297.138254 221.402358 
L 297.181547 222.324247 
L 297.398012 249.965357 
L 297.614478 273.93447 
L 297.78765 256.62863 
L 297.960822 233.873143 
L 298.004115 234.546083 
L 298.22058 253.769607 
L 298.480338 279.625286 
L 298.523632 278.664499 
L 298.826683 233.250771 
L 298.913269 238.840452 
L 299.302906 277.785398 
L 299.389492 276.85184 
L 299.476079 264.7078 
L 299.692544 236.070895 
L 299.822423 241.205467 
L 299.952302 254.672047 
L 300.168767 278.065466 
L 300.21206 277.699822 
L 300.255353 277.271941 
L 300.558405 235.230693 
L 300.644991 239.260553 
L 300.731577 244.029481 
L 300.904749 265.742494 
L 301.077921 278.026567 
L 301.2078 267.62906 
L 301.424266 236.090344 
L 301.510852 238.762655 
L 301.554145 238.614842 
L 301.900489 272.627488 
L 301.943782 272.884216 
L 302.20354 250.478814 
L 302.290126 238.233639 
L 302.333419 240.474179 
L 302.420006 243.092033 
L 302.593178 262.9107 
L 302.76635 277.415865 
L 302.852936 269.383372 
L 303.026108 255.127157 
L 303.069401 255.7223 
L 303.19928 232.243306 
L 303.242573 235.024532 
L 303.632211 277.435314 
L 303.675504 277.727051 
L 304.065141 232.348331 
L 304.108434 232.566161 
L 304.238313 244.873573 
L 304.3249 264.104877 
L 304.411486 264.05042 
L 304.498072 275.887163 
L 304.541365 274.906926 
L 304.714537 261.218626 
L 304.974295 233.729219 
L 305.017588 234.946735 
L 305.19076 257.422155 
L 305.32064 278.516686 
L 305.407226 276.155561 
L 305.75357 230.232265 
L 305.926742 240.22134 
L 306.143207 267.788543 
L 306.273087 264.668902 
L 306.446259 252.602659 
L 306.576138 229.493198 
L 306.662724 232.099382 
L 306.706017 230.858527 
L 306.74931 232.219967 
L 307.009068 259.277602 
L 307.095654 266.699392 
L 307.138947 264.92952 
L 307.528585 223.996873 
L 307.615171 228.890275 
L 307.961515 268.045272 
L 308.004808 267.41123 
L 308.091394 263.552522 
L 308.134688 266.9639 
L 308.177981 264.346046 
L 308.351153 230.893536 
L 308.394446 228.442945 
L 308.437739 232.006026 
L 308.74079 275.128646 
L 308.784083 275.789917 
L 308.827376 274.272884 
L 308.870669 277.446983 
L 308.913962 275.645993 
L 309.043841 266.178155 
L 309.217014 237.335089 
L 309.260307 236.039777 
L 309.433479 252.81271 
L 309.606651 275.72768 
L 309.73653 274.622969 
L 309.779823 275.614875 
L 309.909702 263.727564 
L 310.039582 235.73637 
L 310.082875 238.490367 
L 310.169461 240.67645 
L 310.602391 280.44604 
L 310.645684 277.991559 
L 310.905442 239.11663 
L 311.381666 199.191447 
L 311.857889 58.671453 
L 311.944476 82.403286 
L 312.334113 246.872944 
L 312.507285 235.911412 
L 312.593871 222.573196 
L 312.637164 228.466284 
L 312.72375 234.791142 
L 313.199974 289.64937 
L 313.243267 287.389381 
L 313.329853 277.128017 
L 313.503025 242.827524 
L 313.546318 242.528008 
L 313.632904 242.664152 
L 314.022542 275.7199 
L 314.065835 275.661553 
L 314.412179 240.345815 
L 314.152421 275.813256 
L 314.455472 240.804814 
L 314.84511 268.399246 
L 314.931696 264.155445 
L 314.974989 261.603718 
L 315.018282 265.544113 
L 315.061575 264.26825 
L 315.27804 232.111051 
L 315.321333 231.158044 
L 315.754263 275.081968 
L 315.797557 270.600888 
L 316.057315 235.234582 
L 316.100608 234.802812 
L 316.230487 229.197571 
L 316.620124 265.83196 
L 316.663417 266.489341 
L 316.793297 254.742064 
L 317.009762 226.848116 
L 317.096348 224.020212 
L 317.442692 265.205698 
L 317.485985 264.49386 
L 317.529278 264.322707 
L 317.615864 260.261728 
L 317.789037 231.111366 
L 317.918916 222.04029 
L 318.005502 225.202719 
L 318.308553 263.280234 
L 318.351846 261.876006 
L 318.438432 262.92626 
L 318.481725 253.131676 
L 318.611604 231.449781 
L 318.784777 214.739085 
L 318.957949 226.665294 
L 319.131121 250.163738 
L 319.174414 252.999422 
L 319.217707 250.77833 
L 319.304293 246.375046 
L 319.390879 231.068578 
L 319.607344 203.921476 
L 319.650638 204.209324 
L 319.82381 221.305113 
L 319.996982 233.250771 
L 320.040275 236.673818 
L 320.083568 233.141856 
L 320.25674 218.940098 
L 320.473205 188.11711 
L 320.516498 189.070118 
L 320.949429 230.380079 
L 321.036015 225.972905 
L 321.339066 182.220133 
L 321.425652 189.369634 
L 321.598825 204.080959 
L 321.771997 218.601683 
L 321.81529 218.621132 
L 321.901876 223.172229 
L 322.118341 190.556031 
L 322.204927 188.253254 
L 322.24822 189.727498 
L 322.334806 194.426409 
L 322.507979 222.798806 
L 322.724444 240.217451 
L 322.81103 231.780416 
L 323.027495 201.264725 
L 323.070788 205.438509 
L 323.590305 257.881154 
L 323.936649 223.681797 
L 323.979942 226.735311 
L 324.109821 233.989838 
L 324.369579 266.022562 
L 324.456166 279.975371 
L 324.499459 275.894942 
L 324.715924 234.184329 
L 324.759217 233.227432 
L 324.932389 240.863162 
L 324.975682 241.785051 
L 325.23544 278.368872 
L 325.322026 274.475155 
L 325.754957 232.58561 
L 326.187887 282.791605 
L 326.447646 238.622622 
L 326.490939 236.755505 
L 326.534232 239.217765 
L 326.707404 250.677195 
L 327.010455 284.993247 
L 327.097041 268.08417 
L 327.400093 233.025161 
L 327.443386 232.819 
L 327.876316 282.429851 
L 327.919609 280.831133 
L 328.136074 244.064489 
L 328.22266 235.903633 
L 328.265954 238.700418 
L 328.35254 239.933493 
L 328.655591 271.845633 
L 328.698884 268.780449 
L 328.742177 272.907555 
L 328.78547 277.147466 
L 329.045228 238.400901 
L 329.088521 235.359057 
L 329.131814 236.269276 
L 329.608038 281.290132 
L 329.651331 280.955607 
L 329.824503 247.289156 
L 330.040968 234.678337 
L 330.084261 235.456303 
L 330.473899 278.816202 
L 330.517192 275.327028 
L 330.733657 241.79672 
L 330.77695 240.812594 
L 330.820243 241.820059 
L 330.863536 242.197372 
L 330.906829 238.362003 
L 330.950122 240.777586 
L 331.33976 276.272255 
L 331.686104 234.61221 
L 331.859276 243.465456 
L 332.162328 277.435314 
L 332.248914 268.683203 
L 332.595258 233.099067 
L 332.638551 234.320473 
L 332.681844 231.679281 
L 332.725137 233.795346 
L 333.028188 276.886848 
L 333.461119 224.603686 
L 333.504412 226.054591 
L 333.807463 255.166055 
L 333.937342 266.166485 
L 334.240394 225.677278 
L 334.283687 223.860729 
L 334.803203 275.05474 
L 335.062962 241.621678 
L 335.149548 235.203464 
L 335.192841 236.996674 
L 335.366013 251.548516 
L 335.625771 286.864254 
L 335.928823 245.558183 
L 335.972116 245.091404 
L 336.058702 248.930663 
L 336.101995 246.814597 
L 336.188581 241.886186 
L 336.491632 279.574718 
L 336.534925 274.14841 
L 336.88127 234.301024 
L 336.967856 241.536102 
L 337.357493 282.087547 
L 337.920303 183.85386 
L 338.223354 148.35919 
L 338.483112 64.945743 
L 338.656284 114.054807 
L 339.089215 258.437399 
L 339.132508 251.373474 
L 339.175801 249.401332 
L 339.219094 253.48565 
L 339.262387 253.217252 
L 339.348973 242.874202 
L 339.392266 234.911727 
L 339.478852 238.65763 
L 339.608731 246.756249 
L 339.911783 295.488 
L 340.041662 276.034976 
L 340.084955 276.264476 
L 340.388006 233.246881 
L 340.431299 233.49194 
L 340.777644 279.267422 
L 340.994109 261.436456 
L 341.29716 231.496459 
L 341.340453 233.355796 
L 341.643504 277.629805 
L 341.816677 261.12138 
L 341.946556 240.641442 
L 342.119728 229.749927 
L 342.509365 272.79864 
L 342.552658 266.314299 
L 342.595951 265.575232 
L 342.985589 228.065632 
L 343.028882 229.185902 
L 343.375226 267.520145 
L 343.894743 230.321731 
L 343.938036 229.559325 
L 344.024622 234.577202 
L 344.241087 260.884101 
L 344.674018 220.340435 
L 344.760604 221.312892 
L 344.803897 221.694095 
L 344.84719 223.697356 
L 345.063655 261.837108 
L 345.150241 247.009088 
L 345.193534 247.549774 
L 345.236827 247.65091 
L 345.626465 214.089484 
L 345.713051 217.979311 
L 345.929516 247.044097 
L 346.016102 240.166883 
L 346.059395 242.387974 
L 346.319153 208.274193 
L 346.405739 199.199227 
L 346.449032 199.728243 
L 346.795377 239.357799 
L 346.881963 232.632288 
L 347.011842 223.596221 
L 347.228307 186.693433 
L 347.314893 189.758617 
L 347.444773 199.829379 
L 347.661238 228.598538 
L 347.704531 221.989722 
L 347.964289 202.361656 
L 348.180754 181.348811 
L 348.26734 183.63214 
L 348.310633 185.149172 
L 348.527099 224.183584 
L 348.570392 219.714173 
L 348.656978 216.683998 
L 348.873443 189.898651 
L 348.960029 193.714571 
L 349.003322 193.426724 
L 349.046615 189.645812 
L 349.089908 189.937549 
L 349.479546 239.388917 
L 349.869183 207.577914 
L 349.912476 212.809731 
L 350.345407 261.856557 
L 350.691751 226.568048 
L 350.778337 233.137966 
L 350.951509 243.340982 
L 351.167974 271.433311 
L 351.211267 271.347735 
L 351.514319 234.573312 
L 351.557612 235.401845 
L 351.644198 239.357799 
L 351.687491 236.323734 
L 351.730784 240.248569 
L 352.033835 278.263847 
L 352.077128 278.127703 
L 352.38018 240.513077 
L 352.423473 241.193797 
L 352.466766 241.213246 
L 352.510059 237.572368 
L 352.553352 239.820688 
L 352.942989 278.392211 
L 352.986282 278.131593 
L 353.289334 230.702934 
L 353.592385 260.071127 
L 353.765557 275.210333 
L 353.80885 275.762688 
L 354.068608 235.557438 
L 354.241781 236.40153 
L 354.414953 254.368641 
L 354.501539 271.184362 
L 354.544832 268.333119 
L 354.631418 275.218112 
L 354.674711 273.880012 
L 355.064348 233.787567 
L 355.497279 277.835966 
L 355.540572 275.735459 
L 355.930209 234.565532 
L 355.973502 238.782104 
L 356.233261 266.322078 
L 356.276554 266.022562 
L 356.36314 271.826183 
L 356.406433 271.67059 
L 356.666191 245.791572 
L 356.79607 238.638181 
L 356.839363 241.610009 
L 356.882656 242.123466 
L 357.012535 253.182243 
L 357.229001 278.298855 
L 357.488759 240.213561 
L 357.532052 233.285779 
L 357.618638 235.658574 
L 357.661931 235.187904 
L 357.705224 232.161619 
L 357.748517 235.460192 
L 358.094862 270.515312 
L 358.138155 272.417437 
L 358.181448 269.550635 
L 358.35462 246.845715 
L 358.484499 235.635235 
L 358.700964 248.226604 
L 358.78755 270.246914 
L 358.874136 268.644305 
L 359.004016 271.402192 
L 359.307067 234.534414 
L 359.35036 229.088656 
L 359.393653 229.858842 
L 359.826583 269.134423 
L 360.086342 235.409625 
L 360.172928 225.595592 
L 360.216221 229.341495 
L 360.475979 248.265502 
L 360.649151 264.71558 
L 360.90891 241.660576 
L 361.082082 220.387113 
L 361.125375 221.791341 
L 361.168668 222.997187 
L 361.515012 265.462427 
L 361.558305 265.229037 
L 361.601598 267.072815 
L 361.77477 250.673305 
L 361.947943 233.795346 
L 362.077822 242.119576 
L 362.380873 279.520261 
L 362.597338 260.751846 
L 362.77051 233.05239 
L 362.857097 238.054707 
L 362.986976 247.942647 
L 363.203441 271.184362 
L 363.246734 272.207386 
L 363.290027 268.438144 
L 363.376613 269.795694 
L 363.463199 260.89188 
L 363.679664 236.732166 
L 363.722957 236.771064 
L 363.852837 246.51119 
L 363.982716 267.158391 
L 364.026009 264.816715 
L 364.069302 265.127902 
L 364.155888 273.654402 
L 364.199181 271.857302 
L 364.32906 258.476298 
L 365.151628 115.575729 
L 365.3248 59.328834 
L 365.368093 60.857535 
L 365.627851 168.963603 
L 365.844317 248.078791 
L 365.88761 249.136824 
L 365.930903 247.514766 
L 366.147368 241.8045 
L 366.233954 238.326995 
L 366.32054 233.877033 
L 366.450419 251.995846 
L 366.666885 286.035721 
L 366.753471 287.190999 
L 366.796764 285.253866 
L 367.186401 237.864105 
L 367.229694 236.85664 
L 367.31628 246.316699 
L 367.489452 263.82481 
L 367.576039 273.813885 
L 367.619332 272.701394 
L 368.008969 231.053019 
L 368.052262 235.308489 
L 368.528485 268.154187 
L 368.788244 231.838764 
L 368.87483 235.362947 
L 369.221174 258.340154 
L 369.30776 269.994075 
L 369.351053 269.387262 
L 369.437639 262.599514 
L 369.697398 228.890275 
L 369.740691 230.407307 
L 369.827277 229.967757 
L 369.87057 232.939585 
L 370.130328 265.516884 
L 370.173621 266.889993 
L 370.216914 265.684147 
L 370.649845 218.640581 
L 370.736431 229.310376 
L 370.823017 246.005513 
L 370.86631 242.049559 
L 370.909603 242.107906 
L 371.082775 263.778132 
L 371.126068 261.957693 
L 371.515706 220.336546 
L 371.558999 222.600425 
L 371.775464 244.301769 
L 371.905343 256.523605 
L 371.948636 254.197488 
L 372.035222 248.397756 
L 372.338273 214.389 
L 372.381567 210.709224 
L 372.42486 213.233722 
L 372.511446 228.485733 
L 372.554739 220.173173 
L 372.85779 243.578261 
L 372.901083 241.438856 
L 373.204134 199.514303 
L 373.334014 215.29922 
L 373.4206 214.350102 
L 373.637065 235.97365 
L 373.766944 221.939154 
L 374.113288 185.958256 
L 374.156581 186.533951 
L 374.329754 205.006738 
L 374.502926 222.316468 
L 374.546219 221.791341 
L 374.935856 181.282684 
L 374.979149 183.527114 
L 375.195614 202.668952 
L 375.325494 216.232778 
L 375.368787 215.937152 
L 375.41208 217.99876 
L 375.455373 215.598737 
L 375.541959 209.779556 
L 375.758424 183.881089 
L 375.801717 184.250622 
L 375.888303 191.804666 
L 376.104768 220.783876 
L 376.321234 234.312693 
L 376.364527 233.698101 
L 376.580992 207.943557 
L 376.624285 208.453125 
L 376.754164 219.410767 
L 377.013922 251.404593 
L 377.057215 251.01172 
L 377.100508 249.576374 
L 377.187095 255.026021 
L 377.490146 222.826035 
L 377.576732 225.61893 
L 377.749904 244.379565 
L 378.009662 269.854041 
L 378.139542 260.607923 
L 378.3993 228.816368 
L 378.442593 231.037459 
L 378.529179 248.899544 
L 378.572472 245.083624 
L 378.659058 252.026965 
L 378.875523 272.705284 
L 378.918816 269.317245 
L 379.265161 231.733738 
L 379.308454 232.352221 
L 379.611505 267.975255 
L 379.741384 277.318619 
L 380.087729 238.642071 
L 380.131022 235.74804 
L 380.174315 236.798293 
L 380.520659 275.957179 
L 380.607245 272.34353 
L 380.910296 232.282204 
L 380.996882 237.52569 
L 381.213348 257.056511 
L 381.343227 264.521089 
L 381.473106 271.569455 
L 381.516399 271.254379 
L 381.862743 232.262755 
L 382.165795 271.133794 
L 382.209088 269.678999 
L 382.295674 272.989242 
L 382.512139 247.238588 
L 382.685311 232.803441 
L 382.728604 232.780102 
L 382.81519 241.427187 
L 382.858483 234.923396 
L 382.901776 237.580148 
L 383.118242 270.55032 
L 383.291414 264.077648 
L 383.464586 235.993099 
L 383.551172 230.512333 
L 383.594465 231.862103 
L 383.897517 263.007946 
L 383.984103 269.686779 
L 384.027396 267.524035 
L 384.070689 267.356772 
L 384.460326 230.699044 
L 384.503619 232.920135 
L 384.893257 270.351939 
L 385.023136 268.014153 
L 385.196308 233.49972 
L 385.239601 235.814167 
L 385.282894 235.436853 
L 385.326187 235.759709 
L 385.36948 240.026849 
L 385.412773 233.604745 
L 385.456066 234.258236 
L 385.715824 268.811568 
L 385.759117 268.636525 
L 385.845704 272.448556 
L 386.148755 228.707453 
L 386.278634 232.441687 
L 386.581685 270.33638 
L 386.624978 264.630004 
L 387.014616 218.648361 
L 387.057909 223.487305 
L 387.36096 249.059027 
L 387.447546 258.277917 
L 387.490839 257.962841 
L 387.620718 251.194542 
L 387.880477 224.490881 
L 387.92377 227.622191 
L 388.270114 255.259411 
L 388.3567 270.429736 
L 388.399993 269.002169 
L 388.746338 234.083194 
L 388.789631 237.249513 
L 388.832924 237.350648 
L 388.876217 235.308489 
L 389.265854 275.101418 
L 389.309147 269.468948 
L 389.568905 239.497833 
L 389.612198 237.689063 
L 389.655492 239.665095 
L 389.742078 239.404477 
L 389.828664 247.892079 
L 390.088422 278.575033 
L 390.218301 264.863393 
L 390.434766 230.702934 
L 390.91099 277.038551 
L 390.954283 275.996078 
L 391.170748 251.665211 
L 391.34392 232.181068 
L 391.646972 194.014088 
L 391.776851 176.805494 
L 391.950023 128.233226 
L 392.166488 54.598804 
L 392.209781 58.305809 
L 392.33966 102.801538 
L 392.729298 249.335205 
L 392.90247 233.242991 
L 392.989056 234.861159 
L 393.3354 261.136939 
L 393.508573 292.302232 
L 393.89821 240.983746 
L 393.941503 245.873259 
L 393.984796 245.655428 
L 394.028089 236.6427 
L 394.071382 238.128614 
L 394.33114 265.135681 
L 394.417726 268.181416 
L 394.46102 267.539594 
L 394.590899 253.629573 
L 394.850657 229.574884 
L 394.89395 228.306801 
L 395.240294 274.276774 
L 395.283587 271.833963 
L 395.716518 227.696098 
L 395.759811 229.574884 
L 396.106155 267.166171 
L 396.192741 262.288328 
L 396.279327 255.827326 
L 396.409207 236.40931 
L 396.4525 236.41709 
L 396.495793 236.841081 
L 396.539086 235.390175 
L 396.625672 225.019897 
L 396.668965 225.253287 
L 396.842137 250.976712 
L 396.928723 258.853611 
L 396.972016 258.270137 
L 397.058602 259.759941 
L 397.231774 237.292301 
L 397.318361 225.906778 
L 397.361654 229.753816 
L 397.404947 230.107791 
L 397.491533 223.432848 
L 397.837877 258.970306 
L 397.924463 254.866538 
L 398.011049 247.009088 
L 398.184221 223.856839 
L 398.227514 227.373242 
L 398.270808 222.822145 
L 398.314101 215.579287 
L 398.357394 222.600425 
L 398.487273 231.333086 
L 398.487273 231.333086 
" style="fill:none;stroke:#1f77b4;stroke-linecap:square;stroke-width:1.5;"/>
   </g>
   <g id="patch_3">
    <path d="M 57.6 307.584 
L 57.6 41.472 
" style="fill:none;stroke:#000000;stroke-linecap:square;stroke-linejoin:miter;stroke-width:0.8;"/>
   </g>
   <g id="patch_4">
    <path d="M 414.72 307.584 
L 414.72 41.472 
" style="fill:none;stroke:#000000;stroke-linecap:square;stroke-linejoin:miter;stroke-width:0.8;"/>
   </g>
   <g id="patch_5">
    <path d="M 57.6 307.584 
L 414.72 307.584 
" style="fill:none;stroke:#000000;stroke-linecap:square;stroke-linejoin:miter;stroke-width:0.8;"/>
   </g>
   <g id="patch_6">
    <path d="M 57.6 41.472 
L 414.72 41.472 
" style="fill:none;stroke:#000000;stroke-linecap:square;stroke-linejoin:miter;stroke-width:0.8;"/>
   </g>
  </g>
 </g>
 <defs>
  <clipPath id="p60c6e3c114">
   <rect height="266.112" width="357.12" x="57.6" y="41.472"/>
  </clipPath>
 </defs>
</svg>
