<?xml version="1.0" encoding="utf-8" standalone="no"?>
<!DOCTYPE svg PUBLIC "-//W3C//DTD SVG 1.1//EN"
  "http://www.w3.org/Graphics/SVG/1.1/DTD/svg11.dtd">
<!-- Created with matplotlib (http://matplotlib.org/) -->
<svg height="345.6pt" version="1.1" viewBox="0 0 460.8 345.6" width="460.8pt" xmlns="http://www.w3.org/2000/svg" xmlns:xlink="http://www.w3.org/1999/xlink">
 <defs>
  <style type="text/css">
*{stroke-linecap:butt;stroke-linejoin:round;}
  </style>
 </defs>
 <g id="figure_1">
  <g id="patch_1">
   <path d="M 0 345.6 
L 460.8 345.6 
L 460.8 0 
L 0 0 
z
" style="fill:#ffffff;"/>
  </g>
  <g id="axes_1">
   <g id="patch_2">
    <path d="M 57.6 307.584 
L 414.72 307.584 
L 414.72 41.472 
L 57.6 41.472 
z
" style="fill:#ffffff;"/>
   </g>
   <g id="matplotlib.axis_1">
    <g id="xtick_1">
     <g id="line2d_1">
      <defs>
       <path d="M 0 0 
L 0 3.5 
" id="m657f8e937a" style="stroke:#000000;stroke-width:0.8;"/>
      </defs>
      <g>
       <use style="stroke:#000000;stroke-width:0.8;" x="73.832727" xlink:href="#m657f8e937a" y="307.584"/>
      </g>
     </g>
     <g id="text_1">
      <!-- 0 -->
      <defs>
       <path d="M 31.78125 66.40625 
Q 24.171875 66.40625 20.328125 58.90625 
Q 16.5 51.421875 16.5 36.375 
Q 16.5 21.390625 20.328125 13.890625 
Q 24.171875 6.390625 31.78125 6.390625 
Q 39.453125 6.390625 43.28125 13.890625 
Q 47.125 21.390625 47.125 36.375 
Q 47.125 51.421875 43.28125 58.90625 
Q 39.453125 66.40625 31.78125 66.40625 
z
M 31.78125 74.21875 
Q 44.046875 74.21875 50.515625 64.515625 
Q 56.984375 54.828125 56.984375 36.375 
Q 56.984375 17.96875 50.515625 8.265625 
Q 44.046875 -1.421875 31.78125 -1.421875 
Q 19.53125 -1.421875 13.0625 8.265625 
Q 6.59375 17.96875 6.59375 36.375 
Q 6.59375 54.828125 13.0625 64.515625 
Q 19.53125 74.21875 31.78125 74.21875 
z
" id="DejaVuSans-30"/>
      </defs>
      <g transform="translate(70.651477 322.182437)scale(0.1 -0.1)">
       <use xlink:href="#DejaVuSans-30"/>
      </g>
     </g>
    </g>
    <g id="xtick_2">
     <g id="line2d_2">
      <g>
       <use style="stroke:#000000;stroke-width:0.8;" x="117.125772" xlink:href="#m657f8e937a" y="307.584"/>
      </g>
     </g>
     <g id="text_2">
      <!-- 2 -->
      <defs>
       <path d="M 19.1875 8.296875 
L 53.609375 8.296875 
L 53.609375 0 
L 7.328125 0 
L 7.328125 8.296875 
Q 12.9375 14.109375 22.625 23.890625 
Q 32.328125 33.6875 34.8125 36.53125 
Q 39.546875 41.84375 41.421875 45.53125 
Q 43.3125 49.21875 43.3125 52.78125 
Q 43.3125 58.59375 39.234375 62.25 
Q 35.15625 65.921875 28.609375 65.921875 
Q 23.96875 65.921875 18.8125 64.3125 
Q 13.671875 62.703125 7.8125 59.421875 
L 7.8125 69.390625 
Q 13.765625 71.78125 18.9375 73 
Q 24.125 74.21875 28.421875 74.21875 
Q 39.75 74.21875 46.484375 68.546875 
Q 53.21875 62.890625 53.21875 53.421875 
Q 53.21875 48.921875 51.53125 44.890625 
Q 49.859375 40.875 45.40625 35.40625 
Q 44.1875 33.984375 37.640625 27.21875 
Q 31.109375 20.453125 19.1875 8.296875 
z
" id="DejaVuSans-32"/>
      </defs>
      <g transform="translate(113.944522 322.182437)scale(0.1 -0.1)">
       <use xlink:href="#DejaVuSans-32"/>
      </g>
     </g>
    </g>
    <g id="xtick_3">
     <g id="line2d_3">
      <g>
       <use style="stroke:#000000;stroke-width:0.8;" x="160.418818" xlink:href="#m657f8e937a" y="307.584"/>
      </g>
     </g>
     <g id="text_3">
      <!-- 4 -->
      <defs>
       <path d="M 37.796875 64.3125 
L 12.890625 25.390625 
L 37.796875 25.390625 
z
M 35.203125 72.90625 
L 47.609375 72.90625 
L 47.609375 25.390625 
L 58.015625 25.390625 
L 58.015625 17.1875 
L 47.609375 17.1875 
L 47.609375 0 
L 37.796875 0 
L 37.796875 17.1875 
L 4.890625 17.1875 
L 4.890625 26.703125 
z
" id="DejaVuSans-34"/>
      </defs>
      <g transform="translate(157.237568 322.182437)scale(0.1 -0.1)">
       <use xlink:href="#DejaVuSans-34"/>
      </g>
     </g>
    </g>
    <g id="xtick_4">
     <g id="line2d_4">
      <g>
       <use style="stroke:#000000;stroke-width:0.8;" x="203.711863" xlink:href="#m657f8e937a" y="307.584"/>
      </g>
     </g>
     <g id="text_4">
      <!-- 6 -->
      <defs>
       <path d="M 33.015625 40.375 
Q 26.375 40.375 22.484375 35.828125 
Q 18.609375 31.296875 18.609375 23.390625 
Q 18.609375 15.53125 22.484375 10.953125 
Q 26.375 6.390625 33.015625 6.390625 
Q 39.65625 6.390625 43.53125 10.953125 
Q 47.40625 15.53125 47.40625 23.390625 
Q 47.40625 31.296875 43.53125 35.828125 
Q 39.65625 40.375 33.015625 40.375 
z
M 52.59375 71.296875 
L 52.59375 62.3125 
Q 48.875 64.0625 45.09375 64.984375 
Q 41.3125 65.921875 37.59375 65.921875 
Q 27.828125 65.921875 22.671875 59.328125 
Q 17.53125 52.734375 16.796875 39.40625 
Q 19.671875 43.65625 24.015625 45.921875 
Q 28.375 48.1875 33.59375 48.1875 
Q 44.578125 48.1875 50.953125 41.515625 
Q 57.328125 34.859375 57.328125 23.390625 
Q 57.328125 12.15625 50.6875 5.359375 
Q 44.046875 -1.421875 33.015625 -1.421875 
Q 20.359375 -1.421875 13.671875 8.265625 
Q 6.984375 17.96875 6.984375 36.375 
Q 6.984375 53.65625 15.1875 63.9375 
Q 23.390625 74.21875 37.203125 74.21875 
Q 40.921875 74.21875 44.703125 73.484375 
Q 48.484375 72.75 52.59375 71.296875 
z
" id="DejaVuSans-36"/>
      </defs>
      <g transform="translate(200.530613 322.182437)scale(0.1 -0.1)">
       <use xlink:href="#DejaVuSans-36"/>
      </g>
     </g>
    </g>
    <g id="xtick_5">
     <g id="line2d_5">
      <g>
       <use style="stroke:#000000;stroke-width:0.8;" x="247.004908" xlink:href="#m657f8e937a" y="307.584"/>
      </g>
     </g>
     <g id="text_5">
      <!-- 8 -->
      <defs>
       <path d="M 31.78125 34.625 
Q 24.75 34.625 20.71875 30.859375 
Q 16.703125 27.09375 16.703125 20.515625 
Q 16.703125 13.921875 20.71875 10.15625 
Q 24.75 6.390625 31.78125 6.390625 
Q 38.8125 6.390625 42.859375 10.171875 
Q 46.921875 13.96875 46.921875 20.515625 
Q 46.921875 27.09375 42.890625 30.859375 
Q 38.875 34.625 31.78125 34.625 
z
M 21.921875 38.8125 
Q 15.578125 40.375 12.03125 44.71875 
Q 8.5 49.078125 8.5 55.328125 
Q 8.5 64.0625 14.71875 69.140625 
Q 20.953125 74.21875 31.78125 74.21875 
Q 42.671875 74.21875 48.875 69.140625 
Q 55.078125 64.0625 55.078125 55.328125 
Q 55.078125 49.078125 51.53125 44.71875 
Q 48 40.375 41.703125 38.8125 
Q 48.828125 37.15625 52.796875 32.3125 
Q 56.78125 27.484375 56.78125 20.515625 
Q 56.78125 9.90625 50.3125 4.234375 
Q 43.84375 -1.421875 31.78125 -1.421875 
Q 19.734375 -1.421875 13.25 4.234375 
Q 6.78125 9.90625 6.78125 20.515625 
Q 6.78125 27.484375 10.78125 32.3125 
Q 14.796875 37.15625 21.921875 38.8125 
z
M 18.3125 54.390625 
Q 18.3125 48.734375 21.84375 45.5625 
Q 25.390625 42.390625 31.78125 42.390625 
Q 38.140625 42.390625 41.71875 45.5625 
Q 45.3125 48.734375 45.3125 54.390625 
Q 45.3125 60.0625 41.71875 63.234375 
Q 38.140625 66.40625 31.78125 66.40625 
Q 25.390625 66.40625 21.84375 63.234375 
Q 18.3125 60.0625 18.3125 54.390625 
z
" id="DejaVuSans-38"/>
      </defs>
      <g transform="translate(243.823658 322.182437)scale(0.1 -0.1)">
       <use xlink:href="#DejaVuSans-38"/>
      </g>
     </g>
    </g>
    <g id="xtick_6">
     <g id="line2d_6">
      <g>
       <use style="stroke:#000000;stroke-width:0.8;" x="290.297953" xlink:href="#m657f8e937a" y="307.584"/>
      </g>
     </g>
     <g id="text_6">
      <!-- 10 -->
      <defs>
       <path d="M 12.40625 8.296875 
L 28.515625 8.296875 
L 28.515625 63.921875 
L 10.984375 60.40625 
L 10.984375 69.390625 
L 28.421875 72.90625 
L 38.28125 72.90625 
L 38.28125 8.296875 
L 54.390625 8.296875 
L 54.390625 0 
L 12.40625 0 
z
" id="DejaVuSans-31"/>
      </defs>
      <g transform="translate(283.935453 322.182437)scale(0.1 -0.1)">
       <use xlink:href="#DejaVuSans-31"/>
       <use x="63.623047" xlink:href="#DejaVuSans-30"/>
      </g>
     </g>
    </g>
    <g id="xtick_7">
     <g id="line2d_7">
      <g>
       <use style="stroke:#000000;stroke-width:0.8;" x="333.590998" xlink:href="#m657f8e937a" y="307.584"/>
      </g>
     </g>
     <g id="text_7">
      <!-- 12 -->
      <g transform="translate(327.228498 322.182437)scale(0.1 -0.1)">
       <use xlink:href="#DejaVuSans-31"/>
       <use x="63.623047" xlink:href="#DejaVuSans-32"/>
      </g>
     </g>
    </g>
    <g id="xtick_8">
     <g id="line2d_8">
      <g>
       <use style="stroke:#000000;stroke-width:0.8;" x="376.884043" xlink:href="#m657f8e937a" y="307.584"/>
      </g>
     </g>
     <g id="text_8">
      <!-- 14 -->
      <g transform="translate(370.521543 322.182437)scale(0.1 -0.1)">
       <use xlink:href="#DejaVuSans-31"/>
       <use x="63.623047" xlink:href="#DejaVuSans-34"/>
      </g>
     </g>
    </g>
   </g>
   <g id="matplotlib.axis_2">
    <g id="ytick_1">
     <g id="line2d_9">
      <defs>
       <path d="M 0 0 
L -3.5 0 
" id="m0d47e1a6ad" style="stroke:#000000;stroke-width:0.8;"/>
      </defs>
      <g>
       <use style="stroke:#000000;stroke-width:0.8;" x="57.6" xlink:href="#m0d47e1a6ad" y="282.243773"/>
      </g>
     </g>
     <g id="text_9">
      <!-- −40000 -->
      <defs>
       <path d="M 10.59375 35.5 
L 73.1875 35.5 
L 73.1875 27.203125 
L 10.59375 27.203125 
z
" id="DejaVuSans-2212"/>
      </defs>
      <g transform="translate(10.407812 286.042992)scale(0.1 -0.1)">
       <use xlink:href="#DejaVuSans-2212"/>
       <use x="83.789062" xlink:href="#DejaVuSans-34"/>
       <use x="147.412109" xlink:href="#DejaVuSans-30"/>
       <use x="211.035156" xlink:href="#DejaVuSans-30"/>
       <use x="274.658203" xlink:href="#DejaVuSans-30"/>
       <use x="338.28125" xlink:href="#DejaVuSans-30"/>
      </g>
     </g>
    </g>
    <g id="ytick_2">
     <g id="line2d_10">
      <g>
       <use style="stroke:#000000;stroke-width:0.8;" x="57.6" xlink:href="#m0d47e1a6ad" y="236.683593"/>
      </g>
     </g>
     <g id="text_10">
      <!-- −30000 -->
      <defs>
       <path d="M 40.578125 39.3125 
Q 47.65625 37.796875 51.625 33 
Q 55.609375 28.21875 55.609375 21.1875 
Q 55.609375 10.40625 48.1875 4.484375 
Q 40.765625 -1.421875 27.09375 -1.421875 
Q 22.515625 -1.421875 17.65625 -0.515625 
Q 12.796875 0.390625 7.625 2.203125 
L 7.625 11.71875 
Q 11.71875 9.328125 16.59375 8.109375 
Q 21.484375 6.890625 26.8125 6.890625 
Q 36.078125 6.890625 40.9375 10.546875 
Q 45.796875 14.203125 45.796875 21.1875 
Q 45.796875 27.640625 41.28125 31.265625 
Q 36.765625 34.90625 28.71875 34.90625 
L 20.21875 34.90625 
L 20.21875 43.015625 
L 29.109375 43.015625 
Q 36.375 43.015625 40.234375 45.921875 
Q 44.09375 48.828125 44.09375 54.296875 
Q 44.09375 59.90625 40.109375 62.90625 
Q 36.140625 65.921875 28.71875 65.921875 
Q 24.65625 65.921875 20.015625 65.03125 
Q 15.375 64.15625 9.8125 62.3125 
L 9.8125 71.09375 
Q 15.4375 72.65625 20.34375 73.4375 
Q 25.25 74.21875 29.59375 74.21875 
Q 40.828125 74.21875 47.359375 69.109375 
Q 53.90625 64.015625 53.90625 55.328125 
Q 53.90625 49.265625 50.4375 45.09375 
Q 46.96875 40.921875 40.578125 39.3125 
z
" id="DejaVuSans-33"/>
      </defs>
      <g transform="translate(10.407812 240.482812)scale(0.1 -0.1)">
       <use xlink:href="#DejaVuSans-2212"/>
       <use x="83.789062" xlink:href="#DejaVuSans-33"/>
       <use x="147.412109" xlink:href="#DejaVuSans-30"/>
       <use x="211.035156" xlink:href="#DejaVuSans-30"/>
       <use x="274.658203" xlink:href="#DejaVuSans-30"/>
       <use x="338.28125" xlink:href="#DejaVuSans-30"/>
      </g>
     </g>
    </g>
    <g id="ytick_3">
     <g id="line2d_11">
      <g>
       <use style="stroke:#000000;stroke-width:0.8;" x="57.6" xlink:href="#m0d47e1a6ad" y="191.123413"/>
      </g>
     </g>
     <g id="text_11">
      <!-- −20000 -->
      <g transform="translate(10.407812 194.922632)scale(0.1 -0.1)">
       <use xlink:href="#DejaVuSans-2212"/>
       <use x="83.789062" xlink:href="#DejaVuSans-32"/>
       <use x="147.412109" xlink:href="#DejaVuSans-30"/>
       <use x="211.035156" xlink:href="#DejaVuSans-30"/>
       <use x="274.658203" xlink:href="#DejaVuSans-30"/>
       <use x="338.28125" xlink:href="#DejaVuSans-30"/>
      </g>
     </g>
    </g>
    <g id="ytick_4">
     <g id="line2d_12">
      <g>
       <use style="stroke:#000000;stroke-width:0.8;" x="57.6" xlink:href="#m0d47e1a6ad" y="145.563233"/>
      </g>
     </g>
     <g id="text_12">
      <!-- −10000 -->
      <g transform="translate(10.407812 149.362452)scale(0.1 -0.1)">
       <use xlink:href="#DejaVuSans-2212"/>
       <use x="83.789062" xlink:href="#DejaVuSans-31"/>
       <use x="147.412109" xlink:href="#DejaVuSans-30"/>
       <use x="211.035156" xlink:href="#DejaVuSans-30"/>
       <use x="274.658203" xlink:href="#DejaVuSans-30"/>
       <use x="338.28125" xlink:href="#DejaVuSans-30"/>
      </g>
     </g>
    </g>
    <g id="ytick_5">
     <g id="line2d_13">
      <g>
       <use style="stroke:#000000;stroke-width:0.8;" x="57.6" xlink:href="#m0d47e1a6ad" y="100.003053"/>
      </g>
     </g>
     <g id="text_13">
      <!-- 0 -->
      <g transform="translate(44.2375 103.802271)scale(0.1 -0.1)">
       <use xlink:href="#DejaVuSans-30"/>
      </g>
     </g>
    </g>
    <g id="ytick_6">
     <g id="line2d_14">
      <g>
       <use style="stroke:#000000;stroke-width:0.8;" x="57.6" xlink:href="#m0d47e1a6ad" y="54.442873"/>
      </g>
     </g>
     <g id="text_14">
      <!-- 10000 -->
      <g transform="translate(18.7875 58.242091)scale(0.1 -0.1)">
       <use xlink:href="#DejaVuSans-31"/>
       <use x="63.623047" xlink:href="#DejaVuSans-30"/>
       <use x="127.246094" xlink:href="#DejaVuSans-30"/>
       <use x="190.869141" xlink:href="#DejaVuSans-30"/>
       <use x="254.492188" xlink:href="#DejaVuSans-30"/>
      </g>
     </g>
    </g>
   </g>
   <g id="line2d_15">
    <path clip-path="url(#p7a98b9b08d)" d="M 73.832727 98.185084 
L 73.962606 80.803876 
L 74.049192 73.39579 
L 74.092486 75.596347 
L 74.135779 81.592067 
L 74.179072 71.236238 
L 74.222365 73.181658 
L 74.482123 103.966671 
L 74.568709 107.010091 
L 74.612002 105.379037 
L 75.044933 65.322526 
L 75.088226 68.894445 
L 75.43457 103.192148 
L 75.521156 98.207864 
L 75.780914 75.181749 
L 75.824207 78.047485 
L 75.8675 76.051949 
L 75.910793 68.15637 
L 75.954086 69.500395 
L 76.257138 103.697866 
L 76.343724 101.606654 
L 76.776654 68.589191 
L 76.819947 70.766968 
L 77.166292 111.825802 
L 77.209585 109.233428 
L 77.512636 76.184073 
L 77.555929 81.810756 
L 77.599222 81.218473 
L 77.642515 75.81048 
L 77.685808 78.8539 
L 77.945567 112.322408 
L 77.98886 112.049047 
L 78.032153 111.857694 
L 78.075446 115.015015 
L 78.118739 113.939795 
L 78.465083 81.423494 
L 78.508376 81.733303 
L 78.854721 115.479729 
L 78.898014 115.780426 
L 78.9846 111.497769 
L 79.330944 72.156553 
L 79.374237 72.657715 
L 79.720581 103.775318 
L 79.763874 103.807211 
L 79.850461 98.089408 
L 80.196805 65.504767 
L 80.283391 70.197466 
L 80.586442 103.779874 
L 80.673028 100.426645 
L 80.932787 77.090721 
L 80.97608 79.409734 
L 81.019373 76.215965 
L 81.105959 64.456883 
L 81.149252 68.981009 
L 81.40901 99.023392 
L 81.495596 98.795591 
L 81.538889 102.044032 
L 81.582182 98.977831 
L 81.928527 67.081149 
L 82.015113 74.594023 
L 82.188285 101.219392 
L 82.534629 167.609687 
L 82.837681 223.539364 
L 83.054146 292.599485 
L 83.140732 279.045331 
L 83.703542 98.271649 
L 83.746835 100.823019 
L 83.790128 99.592894 
L 83.833421 98.112188 
L 83.876714 98.677134 
L 83.9633 102.873227 
L 84.049886 109.283544 
L 84.093179 106.395029 
L 84.223058 89.387414 
L 84.526109 57.887105 
L 84.699282 75.938048 
L 84.915747 105.675178 
L 85.045626 102.062256 
L 85.39197 66.570875 
L 85.435263 69.750976 
L 85.824901 104.176248 
L 86.041366 87.542226 
L 86.257831 67.73266 
L 86.38771 78.001925 
L 86.560883 104.74575 
L 86.604176 104.604514 
L 86.647469 105.524829 
L 86.690762 104.435941 
L 86.820641 100.891359 
L 87.123692 73.669151 
L 87.556623 109.771038 
L 87.729795 98.599682 
L 87.94626 74.717036 
L 88.206018 100.098612 
L 88.37919 113.73933 
L 88.422483 113.579869 
L 88.595656 100.267185 
L 88.812121 77.295742 
L 88.855414 78.717219 
L 88.985293 90.521862 
L 89.245051 117.443372 
L 89.288344 116.463829 
L 89.37493 112.563877 
L 89.591396 100.18062 
L 89.677982 83.469146 
L 89.721275 86.020516 
L 89.894447 101.497309 
L 90.154205 127.621517 
L 90.197498 126.482512 
L 90.543843 91.838551 
L 90.630429 94.804519 
L 90.760308 115.051463 
L 90.93348 131.995294 
L 91.020066 136.054706 
L 91.063359 133.772141 
L 91.236531 118.687165 
L 91.279824 121.835374 
L 91.323118 118.678053 
L 91.409704 105.037335 
L 91.452997 108.427013 
L 91.582876 118.500369 
L 91.885927 149.330942 
L 91.92922 148.770552 
L 92.232271 115.356716 
L 92.275564 116.914874 
L 92.49203 136.956798 
L 92.708495 161.112805 
L 92.795081 156.123965 
L 93.141425 127.05657 
L 93.184718 128.300363 
L 93.228011 128.906314 
L 93.357891 142.146102 
L 93.531063 159.326846 
L 93.574356 158.529543 
L 93.747528 149.043913 
L 94.050579 114.249604 
L 94.093872 115.552625 
L 94.267045 133.14341 
L 94.396924 142.815837 
L 94.440217 141.257679 
L 94.743268 113.279172 
L 94.91644 90.289505 
L 95.046319 97.506238 
L 95.262785 117.110783 
L 95.306078 116.910318 
L 95.47925 103.848215 
L 95.695715 76.32531 
L 95.739008 76.676123 
L 95.782301 75.619127 
L 95.825594 76.197741 
L 96.128646 106.882523 
L 96.215232 103.151144 
L 96.47499 82.512382 
L 96.648162 66.862461 
L 96.864627 89.742783 
L 96.951213 99.419765 
L 97.037799 99.009724 
L 97.081093 101.301401 
L 97.124386 101.25584 
L 97.47073 66.994585 
L 97.514023 67.500303 
L 97.643902 77.058829 
L 97.860367 100.435757 
L 97.90366 100.326413 
L 97.990246 96.759051 
L 98.379884 66.32485 
L 98.509763 78.872124 
L 98.682935 98.021068 
L 98.726228 97.396893 
L 98.942693 87.788251 
L 98.985986 88.849803 
L 99.115866 66.197282 
L 99.245745 67.222386 
L 99.289038 67.372735 
L 99.635382 100.125948 
L 99.678675 98.977831 
L 99.938433 75.696579 
L 100.068313 65.363531 
L 100.501243 104.681966 
L 100.587829 99.515442 
L 100.761001 84.088765 
L 100.89088 64.579896 
L 100.934174 65.081057 
L 101.107346 79.232049 
L 101.323811 100.476761 
L 101.45369 99.533666 
L 101.626862 78.439302 
L 101.800034 67.500303 
L 101.843327 67.892121 
L 102.189672 100.823019 
L 102.276258 100.212512 
L 102.44943 93.045896 
L 102.622602 69.067573 
L 102.709188 70.999325 
L 102.882361 85.400898 
L 103.055533 102.622646 
L 103.142119 101.11916 
L 103.315291 92.007124 
L 103.488463 67.418295 
L 103.531756 67.532195 
L 103.661635 76.881144 
L 103.921394 102.417625 
L 104.00798 100.868579 
L 104.181152 92.244037 
L 104.354324 67.450187 
L 104.397617 67.099373 
L 104.484203 71.040329 
L 104.787255 101.260396 
L 104.960427 94.207681 
L 105.00372 97.050636 
L 105.263478 63.16753 
L 105.609822 101.766114 
L 105.696408 99.788803 
L 105.739702 101.392521 
L 105.782995 100.071276 
L 105.826288 98.403773 
L 105.869581 99.898147 
L 106.042753 65.855581 
L 106.086046 63.554791 
L 106.129339 64.397655 
L 106.215925 70.425267 
L 106.562269 102.681874 
L 106.605562 103.980339 
L 106.778735 85.122981 
L 106.951907 71.249906 
L 106.9952 71.181566 
L 107.038493 71.778404 
L 107.211665 91.706427 
L 107.384837 110.85537 
L 107.514716 106.272016 
L 107.601302 106.764066 
L 107.774475 84.617263 
L 107.861061 78.776448 
L 107.904354 80.393834 
L 108.250698 115.256484 
L 108.380577 111.639005 
L 108.42387 112.131055 
L 108.770215 70.525499 
L 109.073266 98.818371 
L 109.116559 99.01428 
L 109.203145 97.647474 
L 109.592783 63.495563 
L 109.636076 64.443215 
L 109.765955 82.749295 
L 109.98242 100.517766 
L 110.198885 92.790759 
L 110.372057 66.529871 
L 110.501937 63.527455 
L 110.848281 98.863931 
L 110.934867 94.731623 
L 111.021453 96.786387 
L 111.194625 67.012809 
L 111.324504 61.203886 
L 111.41109 72.174778 
L 111.887314 137.50352 
L 111.930607 133.011286 
L 112.017193 141.877297 
L 112.233658 189.464905 
L 112.580003 295.488 
L 112.623296 292.412688 
L 113.099519 108.736822 
L 113.229398 112.654997 
L 113.315984 116.85109 
L 113.662329 84.858732 
L 113.878794 58.807421 
L 113.922087 58.438383 
L 114.008673 62.356559 
L 114.181845 82.489602 
L 114.311724 100.959699 
L 114.355018 100.490429 
L 114.441604 107.793726 
L 114.787948 67.158602 
L 114.831241 68.703092 
L 115.134292 100.782015 
L 115.307465 110.026175 
L 115.480637 76.867476 
L 115.653809 70.525499 
L 115.783688 81.49639 
L 116.130032 110.582009 
L 116.173325 106.823294 
L 116.346498 79.159153 
L 116.476377 73.596255 
L 116.51967 74.083749 
L 116.606256 77.942696 
L 116.736135 94.831855 
L 116.909307 107.916739 
L 116.9526 107.547701 
L 116.995893 111.866806 
L 117.039186 108.900839 
L 117.255652 80.662639 
L 117.342238 77.7559 
L 117.385531 78.566871 
L 117.472117 83.51015 
L 117.775168 110.531893 
L 117.818461 110.887263 
L 117.861754 116.012783 
L 117.905047 111.620781 
L 118.078219 88.781463 
L 118.208099 79.241161 
L 118.251392 81.013452 
L 118.424564 93.97988 
L 118.641029 121.352436 
L 118.684322 121.470892 
L 118.727615 125.348064 
L 119.030666 89.478534 
L 119.117252 86.43967 
L 119.160546 86.558126 
L 119.593476 130.833509 
L 119.766648 104.855095 
L 119.93982 91.013912 
L 119.983113 92.353381 
L 120.459337 138.560516 
L 120.632509 115.598185 
L 120.805681 103.889219 
L 120.848974 103.843659 
L 120.93556 110.941935 
L 121.281905 152.233126 
L 121.325198 152.087333 
L 121.49837 126.970006 
L 121.671542 117.438816 
L 121.758128 120.076751 
L 122.147766 159.313178 
L 122.191059 158.38375 
L 122.407524 131.03853 
L 122.537403 122.710129 
L 122.580696 123.616777 
L 122.92704 159.080821 
L 123.013627 166.087977 
L 123.05692 161.33605 
L 123.273385 125.954014 
L 123.403264 118.84207 
L 123.446557 120.655365 
L 123.879487 146.975481 
L 124.312418 94.663282 
L 124.355711 96.704378 
L 124.702055 123.070055 
L 124.745348 126.186371 
L 124.961814 90.585646 
L 125.134986 76.448322 
L 125.178279 75.619127 
L 125.221572 76.74902 
L 125.351451 91.255381 
L 125.567916 112.668666 
L 125.611209 111.944259 
L 125.827674 81.619403 
L 126.04414 67.586867 
L 126.087433 67.067481 
L 126.260605 93.059564 
L 126.433777 103.169368 
L 126.47707 102.736546 
L 126.650242 78.840232 
L 126.823415 70.247582 
L 126.866708 68.794212 
L 126.910001 69.536843 
L 127.256345 96.558586 
L 127.299638 104.085128 
L 127.342931 103.597634 
L 127.602689 72.470919 
L 127.732568 65.167622 
L 127.775862 67.463855 
L 127.905741 77.746788 
L 128.165499 107.237892 
L 128.208792 104.422273 
L 128.381964 82.831304 
L 128.598429 64.470551 
L 128.641722 65.445539 
L 128.814895 82.758407 
L 129.03136 107.055651 
L 129.204532 85.259661 
L 129.46429 65.609556 
L 129.507583 65.267854 
L 129.594169 71.231682 
L 129.897221 105.738962 
L 129.940514 97.323997 
L 130.113686 82.922424 
L 130.330151 65.31797 
L 130.416737 73.450463 
L 130.719789 108.522689 
L 130.763082 107.761834 
L 130.979547 85.760823 
L 131.152719 67.864784 
L 131.196012 68.065249 
L 131.239305 68.13359 
L 131.325891 74.420894 
L 131.585649 110.376988 
L 131.628943 109.648026 
L 131.845408 83.41903 
L 132.105166 65.368087 
L 132.321631 92.585738 
L 132.45151 109.903163 
L 132.494803 107.702606 
L 132.58139 92.840875 
L 132.624683 93.478718 
L 132.711269 87.018284 
L 132.927734 66.25651 
L 133.01432 72.092769 
L 133.317371 109.420225 
L 133.360664 99.096288 
L 133.750302 67.035589 
L 133.793595 67.081149 
L 133.836888 68.097141 
L 134.183232 110.030731 
L 134.226525 99.451657 
L 134.529577 73.965293 
L 134.702749 64.534335 
L 134.746042 65.951257 
L 135.049093 107.420133 
L 135.092386 97.961839 
L 135.265558 88.817911 
L 135.482024 65.067389 
L 135.741782 92.403497 
L 135.914954 112.213064 
L 136.088126 99.793359 
L 136.391177 74.648695 
L 136.521057 83.159337 
L 136.780815 119.124543 
L 137.040573 91.287273 
L 137.213745 80.44395 
L 137.257038 78.676215 
L 137.300331 79.273054 
L 137.603383 115.256484 
L 137.646676 107.880291 
L 138.079606 63.964833 
L 138.122899 64.397655 
L 138.166192 64.525223 
L 138.296071 79.992904 
L 138.469244 104.376713 
L 138.642416 90.517306 
L 138.98876 61.541032 
L 139.032053 62.16065 
L 139.248518 89.833903 
L 139.335105 102.344729 
L 139.508277 88.617447 
L 139.681449 74.183981 
L 139.811328 60.379247 
L 139.854621 61.700492 
L 139.897914 62.538799 
L 140.330845 97.743151 
L 140.590603 71.195234 
L 140.633896 73.25911 
L 140.807068 112.563877 
L 141.326585 254.980444 
L 141.499757 264.821443 
L 142.322325 78.972356 
L 142.495497 68.429731 
L 142.53879 69.605183 
L 142.582083 69.386495 
L 142.668669 75.528007 
L 142.755255 92.398941 
L 142.798548 85.460126 
L 142.885134 88.057056 
L 142.928427 86.858824 
L 143.188186 67.486635 
L 143.231479 63.340659 
L 143.274772 63.746144 
L 143.447944 80.061245 
L 143.621116 104.795866 
L 143.707702 99.410653 
L 143.750995 100.107724 
L 143.837581 93.752079 
L 144.140633 66.274734 
L 144.183926 64.671016 
L 144.357098 81.701411 
L 144.486977 105.456489 
L 144.573563 101.319625 
L 144.746735 91.597082 
L 145.006493 70.379706 
L 145.049787 69.67808 
L 145.222959 85.610475 
L 145.352838 108.399677 
L 145.439424 101.916463 
L 145.482717 103.183036 
L 145.52601 101.223948 
L 145.612596 95.232785 
L 145.872354 75.910712 
L 145.915647 73.263666 
L 145.95894 73.901508 
L 146.348578 110.449885 
L 146.478457 101.378853 
L 146.694922 79.209269 
L 146.781508 80.243485 
L 146.868094 85.040972 
L 147.041267 115.274708 
L 147.08456 106.777734 
L 147.127853 106.31302 
L 147.214439 110.654906 
L 147.257732 109.953279 
L 147.560783 85.719819 
L 147.647369 84.922516 
L 147.733955 89.487646 
L 147.820541 98.535898 
L 147.907127 119.748718 
L 147.993714 116.595953 
L 148.037007 118.103995 
L 148.0803 117.429704 
L 148.123593 116.509389 
L 148.51323 89.469422 
L 148.556523 89.938692 
L 148.946161 128.263915 
L 148.989454 129.00199 
L 149.335798 99.797915 
L 149.379091 99.980155 
L 149.552263 118.905854 
L 149.638849 135.175394 
L 149.682142 131.334671 
L 149.725435 131.913286 
L 149.855315 141.995753 
L 149.898608 139.284923 
L 150.201659 113.388516 
L 150.244952 114.513853 
L 150.331538 120.331888 
L 150.677882 151.800304 
L 150.721175 151.139682 
L 151.110813 123.762569 
L 151.154106 125.698877 
L 151.283985 142.770277 
L 151.327278 157.21741 
L 151.413864 156.110297 
L 151.457157 159.431634 
L 151.543743 158.297186 
L 151.716915 146.077946 
L 151.976674 124.650993 
L 152.149846 143.936617 
L 152.193139 152.169342 
L 152.236432 144.392219 
L 152.366311 152.25135 
L 152.409604 151.517831 
L 152.539483 138.191478 
L 152.842535 107.133104 
L 152.885828 107.511253 
L 153.188879 128.195575 
L 153.49193 99.866255 
L 153.708396 82.822192 
L 153.838275 94.134784 
L 153.924861 110.130964 
L 153.968154 104.978107 
L 154.011447 105.456489 
L 154.05474 108.919063 
L 154.141326 107.529477 
L 154.227912 99.542778 
L 154.48767 74.174869 
L 154.574256 72.771616 
L 154.660843 77.441534 
L 154.747429 92.462726 
L 154.920601 103.474621 
L 155.05048 98.148636 
L 155.396824 66.25651 
L 155.440117 66.744004 
L 155.829755 100.709118 
L 155.873048 100.084944 
L 156.002927 87.268865 
L 156.262685 65.299746 
L 156.305978 66.812344 
L 156.738909 100.69545 
L 156.868788 90.786111 
L 157.128546 66.274734 
L 157.171839 66.903465 
L 157.258425 75.988165 
L 157.431597 96.298893 
L 157.47489 99.374205 
L 157.518184 98.9915 
L 157.994407 67.468411 
L 158.080993 72.170222 
L 158.340751 100.267185 
L 158.384044 98.490338 
L 158.427337 98.608794 
L 158.470631 100.440313 
L 158.513924 99.146404 
L 158.860268 68.461623 
L 158.903561 67.623316 
L 159.03344 83.555711 
L 159.206612 97.98462 
L 159.336491 104.322041 
L 159.769422 67.696212 
L 159.856008 77.104389 
L 160.02918 94.722511 
L 160.159059 102.996239 
L 160.202352 102.636314 
L 160.59199 66.343074 
L 160.635283 66.320294 
L 161.02492 104.750306 
L 161.068213 104.823203 
L 161.457851 68.930893 
L 161.501144 69.204254 
L 161.804195 101.078156 
L 161.890781 101.305957 
L 161.934074 101.005259 
L 162.107246 83.678723 
L 162.323712 67.24061 
L 162.410298 75.423218 
L 162.58347 92.198477 
L 162.713349 102.522413 
L 162.756642 101.082712 
L 162.799935 100.845799 
L 163.0164 78.840232 
L 163.146279 68.416063 
L 163.189572 69.236146 
L 163.232865 68.611971 
L 163.57921 105.151236 
L 163.665796 100.057608 
L 164.01214 73.701044 
L 164.055433 76.553111 
L 164.098726 77.295742 
L 164.358485 107.465693 
L 164.445071 115.101579 
L 164.488364 111.848582 
L 164.878001 75.477891 
L 164.921294 77.327634 
L 164.964587 79.373286 
L 165.224346 110.071735 
L 165.354225 114.887446 
L 165.397518 114.194932 
L 165.57069 93.264585 
L 165.787155 71.254462 
L 165.830448 71.937865 
L 165.917034 89.086716 
L 166.00362 87.013728 
L 166.133499 95.979972 
L 166.220086 99.100844 
L 166.263379 101.492753 
L 166.306672 100.139616 
L 166.653016 67.541307 
L 166.696309 67.445631 
L 166.782895 80.726423 
L 166.826188 75.063293 
L 167.042653 103.242264 
L 167.12924 99.788803 
L 167.475584 65.040053 
L 167.518877 65.700676 
L 167.56217 66.744004 
L 167.735342 84.731163 
L 167.908514 99.205632 
L 167.951807 100.572438 
L 167.9951 98.932271 
L 168.298152 64.812252 
L 168.341445 64.78036 
L 168.428031 69.67808 
L 168.514617 86.690251 
L 168.55791 82.198017 
L 168.731082 103.843659 
L 169.077427 150.119134 
L 169.250599 183.273277 
L 169.596943 291.446812 
L 169.640236 290.212131 
L 169.856701 207.001018 
L 170.11646 89.966028 
L 170.159753 92.854543 
L 170.203046 99.775135 
L 170.289632 98.854819 
L 170.376218 100.563326 
L 170.462804 97.387781 
L 170.506097 97.551798 
L 170.592683 95.738503 
L 170.939028 53.568 
L 171.025614 63.755256 
L 171.415251 97.715814 
L 171.458544 97.460677 
L 171.804888 71.618943 
L 171.848181 71.764736 
L 171.934768 82.147901 
L 171.978061 75.673799 
L 172.281112 105.328921 
L 172.324405 104.504281 
L 172.54087 80.557851 
L 172.670749 71.090445 
L 172.714042 73.669151 
L 172.930508 91.61075 
L 173.146973 108.604697 
L 173.233559 104.18536 
L 173.493317 75.505227 
L 173.579903 78.80834 
L 173.666489 86.549014 
L 173.709782 81.633071 
L 173.969541 110.71869 
L 174.012834 109.470341 
L 174.142713 103.665974 
L 174.402471 77.487095 
L 174.618936 90.221165 
L 174.792109 115.976335 
L 175.181746 90.55831 
L 175.268332 82.885976 
L 175.354918 91.706427 
L 175.398211 85.583139 
L 175.701262 118.586933 
L 175.744556 118.181447 
L 175.787849 117.438816 
L 176.134193 85.915728 
L 176.177486 91.492294 
L 176.220779 93.697407 
L 176.264072 89.665331 
L 176.52383 125.448296 
L 176.610416 125.361732 
L 176.653709 124.833234 
L 176.956761 96.722603 
L 177.000054 99.442545 
L 177.08664 106.627386 
L 177.129933 101.287733 
L 177.173226 102.677318 
L 177.389691 136.546756 
L 177.476277 136.159494 
L 177.51957 135.685669 
L 177.865915 106.973643 
L 177.909208 114.892002 
L 177.995794 114.026359 
L 178.125673 131.995294 
L 178.298845 145.563116 
L 178.342138 146.16451 
L 178.558603 133.621792 
L 178.688483 120.27266 
L 178.731776 123.393532 
L 178.775069 131.097758 
L 178.818362 123.890138 
L 178.904948 131.498688 
L 179.121413 159.695883 
L 179.164706 158.953252 
L 179.337878 151.709184 
L 179.554343 127.630629 
L 179.597637 132.018074 
L 179.64093 133.92249 
L 179.684223 125.726213 
L 179.727516 131.325559 
L 179.987274 157.531775 
L 180.030567 158.442978 
L 180.07386 157.340422 
L 180.290325 136.100266 
L 180.420204 121.202087 
L 180.463497 122.860478 
L 180.50679 122.978934 
L 180.550084 116.258808 
L 180.593377 118.272568 
L 180.809842 148.724992 
L 180.853135 147.30807 
L 181.286065 99.524554 
L 181.329358 103.388057 
L 181.372651 102.495077 
L 181.415944 95.446917 
L 181.459237 97.497126 
L 181.762289 118.896742 
L 181.805582 118.75095 
L 181.978754 96.358121 
L 182.151926 83.314242 
L 182.195219 87.91582 
L 182.238512 85.697039 
L 182.281805 79.145485 
L 182.325098 81.049901 
L 182.498271 99.027948 
L 182.584857 111.502325 
L 182.62815 109.338216 
L 183.017787 71.031217 
L 183.06108 78.557759 
L 183.104373 78.234281 
L 183.147666 70.82164 
L 183.190959 73.91062 
L 183.450718 99.542778 
L 183.494011 98.07574 
L 183.667183 91.228045 
L 183.840355 72.079101 
L 183.883648 73.527915 
L 183.926941 77.382306 
L 183.970234 67.108486 
L 184.013527 67.454743 
L 184.273285 100.772903 
L 184.316578 98.955051 
L 184.836095 63.714252 
L 185.009267 85.642367 
L 185.182439 99.706794 
L 185.225732 100.012048 
L 185.269025 99.12818 
L 185.701956 65.286078 
L 185.875128 82.243577 
L 186.0483 106.595494 
L 186.091593 105.793634 
L 186.308059 83.318798 
L 186.437938 72.498255 
L 186.481231 76.712571 
L 186.524524 76.051949 
L 186.567817 67.723548 
L 186.61111 68.056137 
L 186.957454 101.788895 
L 187.000747 101.993915 
L 187.130626 91.218933 
L 187.303799 72.25223 
L 187.347092 75.532563 
L 187.390385 74.908388 
L 187.433678 68.598303 
L 187.476971 71.482263 
L 187.780022 102.189824 
L 187.866608 101.615766 
L 188.03978 88.325861 
L 188.126366 78.120381 
L 188.169659 79.947344 
L 188.212953 83.04088 
L 188.299539 69.842096 
L 188.342832 74.789932 
L 188.472711 90.016144 
L 188.645883 105.342589 
L 188.905641 87.036508 
L 189.122106 68.065249 
L 189.1654 68.812436 
L 189.59833 109.064855 
L 189.771502 86.599131 
L 189.858088 73.942513 
L 189.901381 77.414198 
L 189.944674 76.81736 
L 189.987967 68.443399 
L 190.03126 68.953673 
L 190.377605 103.852771 
L 190.420898 103.419949 
L 190.464191 103.465509 
L 190.637363 82.266357 
L 190.723949 70.566503 
L 190.767242 77.122613 
L 190.810535 76.502995 
L 190.897121 69.309042 
L 190.940414 71.628055 
L 191.243466 106.69117 
L 191.286759 106.203676 
L 191.546517 81.478166 
L 191.58981 77.82424 
L 191.633103 82.002108 
L 191.676396 80.038465 
L 191.762982 72.024429 
L 192.109327 112.340632 
L 192.15262 110.654906 
L 192.239206 104.959883 
L 192.58555 76.480215 
L 192.975187 111.743794 
L 193.018481 110.759694 
L 193.105067 107.780058 
L 193.451411 70.953765 
L 193.537997 76.543999 
L 193.797755 100.891359 
L 193.884341 98.772811 
L 194.057514 89.524094 
L 194.317272 63.832709 
L 194.360565 64.648236 
L 194.706909 101.05082 
L 194.750202 99.378761 
L 194.836788 93.893315 
L 195.183133 64.074178 
L 195.226426 66.980917 
L 195.57277 98.763699 
L 195.659356 96.699822 
L 196.048994 59.63206 
L 196.092287 63.882825 
L 196.525217 109.19698 
L 196.741682 127.43472 
L 197.391078 288.608413 
L 197.650836 193.651886 
L 197.867302 106.581825 
L 197.953888 105.925759 
L 198.083767 119.84895 
L 198.12706 119.589257 
L 198.516697 72.133773 
L 198.603283 54.807237 
L 198.646576 57.545404 
L 198.689869 57.445171 
L 198.863042 76.343534 
L 199.079507 96.854727 
L 199.209386 91.469514 
L 199.469144 65.390867 
L 199.55573 70.101789 
L 199.685609 82.92698 
L 199.902075 103.22404 
L 199.945368 102.508745 
L 199.988661 102.950679 
L 200.335005 66.639216 
L 200.421591 70.84442 
L 200.767936 103.611302 
L 200.811229 102.727434 
L 200.854522 101.975691 
L 201.200866 68.602859 
L 201.244159 69.34549 
L 201.330745 76.261526 
L 201.54721 104.873319 
L 201.590503 103.383501 
L 201.633797 103.160256 
L 201.720383 107.069319 
L 202.066727 75.445998 
L 202.11002 75.801368 
L 202.239899 85.510242 
L 202.499657 113.967131 
L 202.54295 113.101487 
L 202.889295 77.555435 
L 203.019174 82.758407 
L 203.322225 116.231472 
L 203.408811 114.632309 
L 203.452104 113.935239 
L 203.755156 82.512382 
L 203.841742 83.829072 
L 203.928328 90.284949 
L 204.188086 124.309292 
L 204.317965 121.46178 
L 204.534431 100.713674 
L 204.621017 89.086716 
L 204.66431 89.369189 
L 204.837482 103.009907 
L 205.053947 129.343691 
L 205.140533 132.223095 
L 205.183826 130.086322 
L 205.400291 117.958202 
L 205.530171 102.317393 
L 205.573464 103.383501 
L 205.919808 141.827181 
L 206.049687 140.173346 
L 206.396031 117.552717 
L 206.439325 117.616501 
L 206.65579 138.856657 
L 206.785669 157.317642 
L 206.828962 156.306206 
L 207.08872 144.159862 
L 207.175306 122.82403 
L 207.218599 123.96759 
L 207.305185 123.589441 
L 207.738116 159.203833 
L 207.781409 157.326754 
L 208.127753 118.345464 
L 208.171046 118.860294 
L 208.214339 119.40246 
L 208.517391 144.200866 
L 208.560684 141.01621 
L 208.820442 120.254436 
L 208.993614 94.239573 
L 209.036907 93.405821 
L 209.166786 99.292197 
L 209.469838 121.138303 
L 209.64301 100.827575 
L 209.816182 73.486911 
L 209.859475 76.389094 
L 210.249112 106.24468 
L 210.292406 105.675178 
L 210.552164 87.738135 
L 210.725336 69.450279 
L 210.811922 72.452695 
L 211.158266 100.709118 
L 211.201559 99.957375 
L 211.374732 87.642459 
L 211.547904 65.623224 
L 211.63449 64.912485 
L 212.024127 99.287641 
L 212.06742 99.027948 
L 212.500351 67.062925 
L 212.933281 97.806935 
L 212.976574 97.027856 
L 213.366212 64.078734 
L 213.452798 70.8672 
L 213.712556 98.330877 
L 213.885728 93.897871 
L 213.929021 97.319441 
L 213.972314 93.383041 
L 214.145487 67.463855 
L 214.232073 66.939913 
L 214.361952 77.815128 
L 214.535124 100.239848 
L 214.578417 99.770579 
L 214.62171 99.911815 
L 214.708296 96.13032 
L 214.794882 96.312561 
L 214.838175 91.833995 
L 215.011347 68.621083 
L 215.05464 68.552743 
L 215.097934 69.031125 
L 215.271106 85.122981 
L 215.444278 100.768347 
L 215.487571 101.483641 
L 215.61745 97.027856 
L 215.660743 98.03018 
L 215.833915 69.473059 
L 215.877208 67.185938 
L 215.920501 68.334054 
L 215.963794 68.949117 
L 216.310139 101.574762 
L 216.396725 98.622462 
L 216.440018 93.688295 
L 216.483311 96.0392 
L 216.526604 97.396893 
L 216.699776 71.436703 
L 216.786362 67.924013 
L 216.829655 68.85344 
L 217.176 100.636222 
L 217.262586 97.601914 
L 217.60893 70.14735 
L 217.652223 70.953765 
L 217.695516 70.858088 
L 217.782102 75.778588 
L 218.041861 102.025807 
L 218.085154 101.861791 
L 218.17174 98.312653 
L 218.215033 98.362769 
L 218.474791 67.650652 
L 218.518084 69.113133 
L 218.561377 69.386495 
L 218.691256 83.724283 
L 218.864428 99.460769 
L 218.951015 101.032596 
L 218.994308 100.645334 
L 219.16748 82.34381 
L 219.340652 67.226942 
L 219.427238 71.17701 
L 219.816875 105.228688 
L 219.946755 110.632126 
L 220.119927 80.453062 
L 220.206513 72.908296 
L 220.249806 72.953857 
L 220.336392 82.589835 
L 220.639443 112.367968 
L 220.682736 111.730126 
L 220.812616 107.975967 
L 220.985788 86.157197 
L 221.15896 77.942696 
L 221.418718 103.57941 
L 221.505304 101.902795 
L 221.59189 98.535898 
L 221.635183 101.333293 
L 221.678476 98.841151 
L 221.894942 68.188262 
L 221.938235 64.365763 
L 221.981528 65.304302 
L 222.111407 74.726148 
L 222.371165 100.782015 
L 222.414458 99.324089 
L 222.58763 78.99058 
L 222.674216 72.202114 
L 222.717509 74.434562 
L 222.890682 63.390775 
L 223.237026 101.315069 
L 223.410198 91.847663 
L 223.58337 71.69184 
L 223.669956 64.115182 
L 223.71325 65.304302 
L 223.799836 69.099465 
L 223.929715 83.628607 
L 224.102887 95.998196 
L 224.14618 96.19866 
L 224.232766 99.720462 
L 224.449231 67.737216 
L 224.492524 68.215598 
L 224.622403 89.911356 
L 225.358385 261.787135 
L 225.401678 262.675558 
L 225.748023 168.981048 
L 225.877902 143.895613 
L 225.921195 146.460651 
L 226.13766 96.663374 
L 226.267539 73.464131 
L 226.310832 73.600811 
L 226.484004 83.624051 
L 226.787056 99.451657 
L 227.1334 65.641448 
L 227.263279 76.93126 
L 227.523037 102.905119 
L 227.566331 103.023575 
L 227.609624 102.599866 
L 227.652917 106.308464 
L 227.69621 100.617998 
L 227.912675 72.38891 
L 227.999261 66.042377 
L 228.042554 68.370502 
L 228.172433 78.858456 
L 228.432191 103.465509 
L 228.475484 103.128364 
L 228.518778 107.447469 
L 228.562071 103.506513 
L 228.778536 74.639583 
L 228.865122 68.534519 
L 228.908415 70.971989 
L 229.038294 80.525959 
L 229.384638 112.454533 
L 229.557811 86.895272 
L 229.730983 73.664595 
L 229.774276 75.537119 
L 230.250499 116.258808 
L 230.423672 88.412426 
L 230.596844 77.409642 
L 230.68343 81.172913 
L 231.073067 117.083447 
L 231.11636 115.680193 
L 231.246239 94.075556 
L 231.289532 94.175788 
L 231.462705 83.838184 
L 231.505998 84.330234 
L 231.635877 92.508286 
L 231.938928 123.329748 
L 231.982221 122.454992 
L 232.198686 93.692851 
L 232.285272 88.444318 
L 232.371859 90.234833 
L 232.458445 94.421813 
L 232.545031 104.18536 
L 232.718203 126.660197 
L 232.761496 127.247923 
L 232.804789 133.92249 
L 232.848082 131.876837 
L 233.064547 101.58843 
L 233.194426 100.950587 
L 233.324306 108.75049 
L 233.67065 151.449491 
L 233.843822 126.865218 
L 234.016994 113.771222 
L 234.10358 113.019479 
L 234.190166 122.669125 
L 234.536511 160.77566 
L 234.709683 139.881761 
L 234.926148 122.382096 
L 234.969441 123.284187 
L 235.359079 163.345254 
L 235.402372 161.837212 
L 235.575544 141.631272 
L 235.792009 128.801525 
L 235.835302 129.653501 
L 236.008474 139.758749 
L 236.22494 158.80746 
L 236.268233 155.991841 
L 236.484698 123.49832 
L 236.65787 109.638914 
L 236.701163 109.005627 
L 236.744456 109.146864 
L 237.0908 132.273211 
L 237.263973 114.377172 
L 237.567024 82.667287 
L 237.610317 83.004432 
L 237.696903 89.341853 
L 237.956661 116.71441 
L 237.999954 114.732542 
L 238.21642 82.890532 
L 238.389592 69.577847 
L 238.476178 74.908388 
L 238.822522 107.420133 
L 238.995694 87.282533 
L 239.255453 68.912669 
L 239.298746 68.170038 
L 239.515211 90.079928 
L 239.688383 105.342589 
L 239.861555 87.788251 
L 240.164607 61.641264 
L 240.510951 106.513485 
L 240.554244 106.126224 
L 240.727416 88.562774 
L 240.987175 67.942237 
L 241.030468 68.001465 
L 241.160347 80.384722 
L 241.376812 107.192332 
L 241.420105 105.242356 
L 241.593277 90.139157 
L 241.896328 64.28831 
L 242.242673 107.852955 
L 242.285966 106.31302 
L 242.502431 83.669611 
L 242.675603 66.229174 
L 242.718896 66.361299 
L 242.848775 76.876588 
L 243.108534 110.513669 
L 243.281706 92.157472 
L 243.584757 67.632428 
L 243.671343 70.015225 
L 243.887809 99.770579 
L 243.974395 109.611577 
L 244.147567 93.446826 
L 244.450618 68.329498 
L 244.493911 68.666644 
L 244.840256 103.306049 
L 244.883549 93.492386 
L 244.970135 98.768255 
L 245.100014 87.168633 
L 245.316479 69.008345 
L 245.61953 98.185084 
L 245.706116 109.707254 
L 245.965875 81.724191 
L 246.095754 71.523267 
L 246.18234 71.664504 
L 246.225633 72.142885 
L 246.442098 94.613166 
L 246.528684 110.290424 
L 246.571977 108.304 
L 246.701856 96.10754 
L 246.788443 91.783879 
L 247.048201 68.347722 
L 247.091494 68.402395 
L 247.394545 108.180988 
L 247.524424 99.720462 
L 247.74089 80.699087 
L 247.914062 64.26553 
L 247.957355 65.7189 
L 248.17382 94.49471 
L 248.260406 108.171876 
L 248.303699 101.579318 
L 248.563457 83.587603 
L 248.779923 65.422759 
L 248.823216 66.374967 
L 248.996388 87.815587 
L 249.126267 108.718598 
L 249.16956 102.463185 
L 249.645784 76.120289 
L 249.689077 76.30253 
L 249.818956 93.123348 
L 249.992128 117.015107 
L 250.078714 106.508929 
L 250.122007 107.985079 
L 250.208593 104.923435 
L 250.468351 78.134049 
L 250.511644 79.673983 
L 250.771403 107.365461 
L 250.857989 118.377356 
L 250.901282 112.691446 
L 250.944575 111.930591 
L 250.987868 112.085495 
L 251.290919 74.389002 
L 251.377505 74.89472 
L 251.420798 75.113409 
L 251.593971 89.820235 
L 251.680557 106.928083 
L 251.72385 97.975507 
L 252.026901 81.824424 
L 252.200073 62.680036 
L 252.243366 63.09919 
L 252.373245 73.623591 
L 252.546418 107.010091 
L 252.589711 97.998288 
L 252.633004 96.813723 
L 252.676297 99.729574 
L 252.71959 97.820603 
L 253.109227 64.835033 
L 253.15252 66.220062 
L 253.412278 102.836779 
L 253.455572 95.720279 
L 253.672037 88.07528 
L 253.931795 66.921689 
L 253.975088 66.716668 
L 254.061674 69.249814 
L 254.14826 79.992904 
L 254.494605 159.185609 
L 254.884242 232.218578 
L 255.100707 291.95253 
L 255.750103 98.517674 
L 255.879982 96.339897 
L 256.009861 110.586565 
L 256.096447 99.952819 
L 256.13974 100.062164 
L 256.226326 92.280485 
L 256.529378 60.77562 
L 256.572671 62.812161 
L 256.70255 72.484587 
L 256.832429 105.711626 
L 256.962308 102.886895 
L 257.048894 100.973367 
L 257.351946 72.607599 
L 257.395239 73.783052 
L 257.481825 73.19077 
L 257.611704 82.981652 
L 257.69829 103.205816 
L 257.741583 96.836503 
L 257.828169 100.221624 
L 257.914755 99.305865 
L 258.2611 72.042653 
L 258.304393 72.325126 
L 258.390979 77.505319 
L 258.477565 85.492018 
L 258.564151 105.219576 
L 258.607444 100.139616 
L 258.69403 104.618182 
L 258.737323 104.353933 
L 258.780616 103.146588 
L 259.12696 71.892304 
L 259.170253 72.115549 
L 259.343426 90.663099 
L 259.430012 106.868855 
L 259.473305 102.490521 
L 259.603184 111.156068 
L 259.733063 99.255749 
L 259.992821 73.318338 
L 260.036114 73.91062 
L 260.209287 94.221349 
L 260.295873 110.572897 
L 260.339166 104.759418 
L 260.425752 115.675637 
L 260.469045 113.479637 
L 260.512338 112.30874 
L 260.901975 77.373194 
L 260.945268 80.343718 
L 261.24832 115.885214 
L 261.334906 116.691629 
L 261.464785 108.162764 
L 261.724543 86.940832 
L 261.767836 87.305313 
L 261.854422 92.061796 
L 261.941008 110.454441 
L 261.984301 121.265872 
L 262.070888 119.721381 
L 262.200767 124.660105 
L 262.24406 124.546204 
L 262.633697 95.296569 
L 262.67699 96.809167 
L 263.023335 135.179951 
L 263.066628 134.368979 
L 263.412972 108.23566 
L 263.456265 109.443005 
L 263.499558 109.912275 
L 263.586144 115.766758 
L 263.889195 147.809232 
L 264.019075 140.187014 
L 264.062368 142.328343 
L 264.322126 122.96071 
L 264.495298 134.318863 
L 264.581884 153.7275 
L 264.66847 153.271898 
L 264.755056 158.925916 
L 264.798349 158.85302 
L 264.971522 145.622344 
L 265.144694 127.352712 
L 265.187987 127.917658 
L 265.274573 129.990646 
L 265.577624 159.449858 
L 265.620917 158.78468 
L 265.750796 151.590727 
L 266.097141 117.985539 
L 266.140434 119.684933 
L 266.22702 128.755965 
L 266.270313 135.189063 
L 266.356899 134.050058 
L 266.400192 137.289387 
L 266.443485 136.082042 
L 266.963002 93.455938 
L 267.049588 97.761375 
L 267.136174 112.563877 
L 267.22276 111.484101 
L 267.309346 117.024219 
L 267.352639 115.028683 
L 267.482518 105.830083 
L 267.785569 72.821732 
L 267.828863 73.892396 
L 267.958742 91.524186 
L 268.175207 105.647842 
L 268.2185 106.540821 
L 268.305086 102.121484 
L 268.608137 72.552927 
L 268.694723 70.653068 
L 268.78131 79.41429 
L 268.954482 99.602006 
L 269.041068 103.274156 
L 269.084361 102.107816 
L 269.170947 97.565466 
L 269.387412 74.575799 
L 269.473998 67.072037 
L 269.517291 67.267946 
L 269.64717 76.033725 
L 269.863636 98.850263 
L 269.950222 104.158024 
L 269.993515 103.060024 
L 270.383152 68.734984 
L 270.426445 69.122245 
L 270.513031 80.635303 
L 270.686203 97.210096 
L 270.77279 104.472389 
L 270.816083 103.711534 
L 270.945962 93.597174 
L 271.249013 67.564087 
L 271.292306 67.349954 
L 271.335599 69.559623 
L 271.552064 96.267001 
L 271.681944 99.843475 
L 271.725237 99.592894 
L 272.114874 68.33861 
L 272.158167 68.826104 
L 272.20146 71.901416 
L 272.288046 88.467098 
L 272.374632 88.202849 
L 272.547804 101.296845 
L 272.634391 96.312561 
L 272.76427 87.783695 
L 272.980735 66.479755 
L 273.067321 73.682819 
L 273.153907 87.264309 
L 273.1972 82.257245 
L 273.413665 105.005443 
L 273.456958 102.782106 
L 273.803303 69.646188 
L 273.889889 71.500487 
L 274.236233 103.228596 
L 274.279526 102.139708 
L 274.366112 98.021068 
L 274.712457 68.097141 
L 274.75575 68.375059 
L 275.015508 98.576902 
L 275.102094 103.593078 
L 275.145387 103.123808 
L 275.18868 102.267276 
L 275.578318 67.782776 
L 275.621611 67.983241 
L 275.838076 94.868303 
L 275.967955 101.264952 
L 276.011248 99.228412 
L 276.097834 96.626926 
L 276.227713 82.084117 
L 276.400885 70.35237 
L 276.444178 69.600627 
L 276.487472 70.990213 
L 276.660644 86.166309 
L 276.833816 99.310421 
L 276.920402 99.852587 
L 277.093574 86.562682 
L 277.266746 71.095001 
L 277.310039 71.259018 
L 277.353332 68.857996 
L 277.569798 92.61763 
L 277.74297 101.005259 
L 277.786263 100.745566 
L 278.132607 67.860228 
L 278.1759 66.370411 
L 278.219193 67.395515 
L 278.435659 96.385457 
L 278.565538 102.235384 
L 278.608831 101.305957 
L 278.652124 101.606654 
L 278.782003 88.312193 
L 278.998468 67.427407 
L 279.041761 68.80788 
L 279.388106 103.019019 
L 279.431399 103.319717 
L 279.474692 103.091916 
L 279.647864 87.291645 
L 279.821036 71.678172 
L 279.864329 72.133773 
L 279.907622 71.026661 
L 280.29726 101.474529 
L 280.340553 100.349193 
L 280.557018 81.605735 
L 280.73019 70.388818 
L 280.773483 70.653068 
L 280.989948 91.173373 
L 281.16312 100.353749 
L 281.293 96.891175 
L 281.552758 76.284306 
L 281.639344 70.202022 
L 281.985688 112.864574 
L 282.028981 112.272292 
L 282.202153 101.538314 
L 282.505205 79.159153 
L 282.764963 110.618457 
L 282.894842 115.593629 
L 282.938135 114.459181 
L 283.327773 76.206853 
L 283.414359 84.202665 
L 283.457652 85.687927 
L 283.500945 79.778772 
L 283.544238 84.193553 
L 283.760703 107.192332 
L 283.890582 97.902611 
L 284.193634 65.869249 
L 284.236927 72.972081 
L 284.28022 80.052133 
L 284.323513 71.117781 
L 284.410099 80.46673 
L 284.626564 101.693218 
L 284.669857 100.531434 
L 284.799736 91.45129 
L 285.059494 62.903281 
L 285.146081 72.657715 
L 285.189374 69.705416 
L 285.492425 101.693218 
L 285.579011 98.071184 
L 285.882062 67.509415 
L 285.925355 67.810112 
L 286.011941 74.931168 
L 286.055235 70.511831 
L 286.2717 95.305681 
L 286.921095 196.886658 
L 287.224147 291.843186 
L 287.26744 293.364896 
L 287.397319 250.734235 
L 287.743663 115.456949 
L 287.830249 109.032963 
L 287.873542 111.803022 
L 287.960129 118.623381 
L 288.003422 115.971779 
L 288.219887 101.497309 
L 288.479645 62.242658 
L 288.522938 63.937497 
L 288.566231 69.819316 
L 288.609524 59.960093 
L 288.652817 64.388543 
L 288.955869 100.376529 
L 288.999162 102.189824 
L 289.042455 101.451749 
L 289.345506 70.994769 
L 289.432092 74.903832 
L 289.475385 69.286262 
L 289.518678 74.808156 
L 289.778436 104.431385 
L 289.908316 99.697682 
L 290.341246 68.347722 
L 290.68759 107.775502 
L 290.730883 108.509021 
L 291.077228 74.320662 
L 291.207107 75.450554 
L 291.336986 92.307821 
L 291.553451 108.545469 
L 291.596744 108.12176 
L 291.726623 98.394661 
L 291.943089 74.912944 
L 292.029675 85.728931 
L 292.072968 79.942788 
L 292.462605 111.538773 
L 292.549191 104.60907 
L 292.765657 85.537578 
L 292.80895 87.815587 
L 292.852243 92.836319 
L 292.895536 80.758315 
L 292.938829 81.555619 
L 293.198587 113.67099 
L 293.328466 116.951322 
L 293.371759 115.552625 
L 293.631517 90.453522 
L 293.67481 91.738319 
L 293.718104 94.294245 
L 293.761397 84.489694 
L 293.80469 86.025072 
L 294.107741 123.220403 
L 294.194327 124.400412 
L 294.324206 115.292932 
L 294.454085 96.431017 
L 294.497378 96.48569 
L 294.540671 101.401633 
L 294.583964 99.889035 
L 294.627257 92.221257 
L 294.67055 94.973092 
L 294.973602 133.102406 
L 295.016895 132.920166 
L 295.060188 132.573908 
L 295.493118 103.497401 
L 295.536411 104.855095 
L 295.882756 144.132526 
L 295.926049 143.622252 
L 296.358979 115.206368 
L 296.705324 158.196953 
L 296.748617 158.657111 
L 296.835203 154.26511 
L 297.22484 124.204503 
L 297.268133 125.320728 
L 297.527891 162.648183 
L 297.657771 160.119593 
L 297.830943 145.872925 
L 298.047408 122.177075 
L 298.090701 122.450436 
L 298.263873 138.150474 
L 298.393752 148.119042 
L 298.610218 135.58088 
L 298.956562 97.925391 
L 299.259613 125.115707 
L 299.346199 122.737465 
L 299.562665 98.882155 
L 299.77913 78.443858 
L 299.822423 79.263942 
L 300.125474 108.632034 
L 300.168767 108.130872 
L 300.255353 106.126224 
L 300.688284 71.154229 
L 301.034628 102.235384 
L 301.121214 102.877783 
L 301.294386 85.742599 
L 301.467559 72.329682 
L 301.510852 65.058277 
L 301.554145 65.841913 
L 301.900489 104.422273 
L 301.987075 102.358397 
L 302.246833 79.532747 
L 302.290126 80.389278 
L 302.376713 66.639216 
L 302.420006 70.311366 
L 302.549885 80.311826 
L 302.76635 104.098796 
L 302.809643 102.855003 
L 303.155987 77.245626 
L 303.242573 64.848701 
L 303.285866 67.627872 
L 303.632211 102.68643 
L 303.675504 101.848123 
L 303.76209 95.446917 
L 304.108434 66.566319 
L 304.498072 103.757094 
L 304.584658 99.889035 
L 304.801123 78.225169 
L 304.844416 80.671751 
L 304.931002 65.901141 
L 305.017588 70.675848 
L 305.19076 88.120841 
L 305.32064 101.05082 
L 305.363933 100.563326 
L 305.450519 99.916371 
L 305.623691 82.790299 
L 305.840156 66.461531 
L 306.056621 86.927164 
L 306.186501 102.631758 
L 306.229794 101.734222 
L 306.31638 101.857235 
L 306.402966 97.296661 
L 306.662724 65.058277 
L 306.706017 67.245166 
L 306.792603 73.997185 
L 307.095654 101.802563 
L 307.138947 99.661234 
L 307.182241 98.367325 
L 307.268827 103.488289 
L 307.528585 66.447863 
L 307.615171 69.905881 
L 307.788343 90.890899 
L 307.918222 102.495077 
L 308.004808 101.597542 
L 308.177981 91.916004 
L 308.394446 69.286262 
L 308.524325 74.744372 
L 308.784083 103.419949 
L 308.913962 101.661326 
L 309.260307 66.425083 
L 309.476772 82.175237 
L 309.693237 105.233244 
L 310.039582 81.273145 
L 310.126168 62.980733 
L 310.169461 64.256418 
L 310.559098 103.820879 
L 310.645684 101.788895 
L 310.992029 66.534427 
L 311.035322 68.826104 
L 311.165201 77.883468 
L 311.424959 103.046356 
L 311.511545 98.750031 
L 311.857889 64.789472 
L 311.901182 65.882917 
L 312.247527 98.59057 
L 312.29082 99.000612 
L 312.334113 98.627018 
L 312.463992 95.214561 
L 312.680457 67.327174 
L 312.767043 68.174594 
L 312.810336 67.582311 
L 313.156681 102.130596 
L 313.199974 101.219392 
L 313.243267 100.686338 
L 313.459732 81.642183 
L 313.546318 66.661996 
L 313.589611 67.459299 
L 313.676197 69.117689 
L 314.022542 102.554306 
L 314.065835 101.123716 
L 314.368886 73.017641 
L 314.498765 65.062833 
L 314.628644 76.562223 
L 314.84511 101.556538 
L 314.888403 101.971135 
L 314.974989 97.765931 
L 315.27804 69.16325 
L 315.321333 70.334146 
L 315.494505 84.234557 
L 315.754263 109.479453 
L 315.797557 109.15142 
L 315.927436 103.183036 
L 316.014022 98.759143 
L 316.143901 78.147717 
L 316.187194 77.678447 
L 316.27378 79.90634 
L 316.576831 115.616409 
L 316.620124 114.787214 
L 316.70671 111.224408 
L 317.053055 78.124937 
L 317.442692 105.356257 
L 317.529278 104.782198 
L 317.615864 99.205632 
L 317.918916 66.607324 
L 318.005502 67.84656 
L 318.395139 102.909675 
L 318.611604 84.093321 
L 318.741484 65.099282 
L 318.784777 64.958045 
L 318.871363 68.621083 
L 319.044535 89.537762 
L 319.174414 99.191964 
L 319.217707 98.262537 
L 319.304293 95.811399 
L 319.477465 82.667287 
L 319.607344 66.379523 
L 319.650638 65.504767 
L 319.693931 66.292958 
L 319.82381 76.639675 
L 320.040275 101.264952 
L 320.083568 100.891359 
L 320.213447 91.341945 
L 320.25674 91.861331 
L 320.300033 95.774951 
L 320.343326 83.409918 
L 320.386619 83.46459 
L 320.776257 184.066024 
L 321.122601 273.145288 
L 321.165894 277.004235 
L 321.685411 134.646896 
L 321.771997 136.14127 
L 321.901876 123.056387 
L 322.24822 67.942237 
L 322.291513 65.677896 
L 322.334806 67.222386 
L 322.681151 92.763423 
L 322.724444 93.610842 
L 322.767737 93.53339 
L 322.81103 92.444502 
L 322.854323 94.740735 
L 323.114081 72.065433 
L 323.200667 75.459667 
L 323.547012 104.937103 
L 323.590305 103.524737 
L 324.023235 70.038005 
L 324.2397 91.720095 
L 324.412873 105.009999 
L 324.499459 99.624786 
L 324.80251 71.263574 
L 324.586045 100.517766 
L 324.889096 74.703368 
L 325.23544 112.030823 
L 325.278733 109.1742 
L 325.365319 101.551982 
L 325.408613 102.608978 
L 325.451906 104.2537 
L 325.625078 79.036141 
L 325.754957 74.534795 
L 325.928129 89.838459 
L 326.187887 117.188235 
L 326.534232 80.835768 
L 326.620818 81.970216 
L 326.750697 90.526418 
L 326.967162 110.869038 
L 327.140334 116.78275 
L 327.183627 113.575313 
L 327.3568 81.47361 
L 327.443386 80.038465 
L 327.486679 80.216149 
L 327.876316 120.892278 
L 327.919609 120.933282 
L 328.006195 121.192975 
L 328.092781 105.556721 
L 328.265954 90.084484 
L 328.35254 94.143896 
L 328.698884 129.307243 
L 328.78547 126.696645 
L 329.131814 100.617998 
L 329.175107 101.082712 
L 329.218401 101.652214 
L 329.608038 141.941081 
L 329.694624 141.499147 
L 329.737917 142.916069 
L 329.911089 116.718966 
L 329.997675 113.488749 
L 330.040968 114.468293 
L 330.084261 115.543513 
L 330.560485 153.677384 
L 330.603778 152.470039 
L 330.820243 122.477772 
L 330.863536 122.049507 
L 331.080001 137.845221 
L 331.296467 163.094673 
L 331.469639 156.032845 
L 331.686104 126.49618 
L 331.729397 124.728445 
L 331.815983 125.32984 
L 331.989155 142.670044 
L 332.119035 153.171666 
L 332.162328 153.130661 
L 332.205621 153.294678 
L 332.3355 145.162186 
L 332.508672 122.732909 
L 332.681844 108.226548 
L 332.984895 133.070514 
L 333.158068 130.728721 
L 333.504412 82.448598 
L 333.547705 84.38035 
L 333.937342 111.361088 
L 334.023929 115.575405 
L 334.240394 80.557851 
L 334.370273 71.582495 
L 334.413566 72.069989 
L 334.75991 108.126316 
L 334.846496 106.158116 
L 334.889789 104.663742 
L 335.062962 79.409734 
L 335.279427 69.135914 
L 335.625771 99.706794 
L 335.712357 107.69805 
L 335.75565 105.889311 
L 335.972116 70.293142 
L 336.058702 72.507367 
L 336.145288 68.812436 
L 336.275167 80.945112 
L 336.491632 103.069136 
L 336.534925 101.852679 
L 336.578218 104.668298 
L 336.621511 101.510977 
L 336.837976 71.792072 
L 336.967856 64.830477 
L 337.011149 65.573107 
L 337.184321 88.59011 
L 337.3142 100.586106 
L 337.400786 99.374205 
L 337.444079 105.533941 
L 337.487372 99.998379 
L 337.660544 73.77394 
L 337.703837 73.810388 
L 337.833716 67.914901 
L 337.87701 68.926337 
L 338.30994 105.912091 
L 338.612991 70.397931 
L 338.699577 66.766784 
L 338.74287 68.324942 
L 339.175801 109.716366 
L 339.348973 80.216149 
L 339.522145 67.249722 
L 339.565438 67.960461 
L 339.652024 73.723824 
L 339.998369 107.985079 
L 340.041662 105.82097 
L 340.214834 82.990764 
L 340.388006 67.996909 
L 340.431299 68.589191 
L 340.517885 75.054181 
L 340.907523 111.506881 
L 341.123988 77.090721 
L 341.29716 70.334146 
L 341.340453 71.35925 
L 341.730091 112.932915 
L 341.946556 84.954408 
L 342.119728 65.942145 
L 342.206314 68.621083 
L 342.595951 113.38396 
L 342.985589 69.527731 
L 343.028882 70.334146 
L 343.072175 71.240794 
L 343.461812 111.689122 
L 343.634985 86.34855 
L 343.85145 70.575615 
L 343.894743 69.167806 
L 343.938036 70.115457 
L 344.327673 109.497677 
L 344.544138 80.881328 
L 344.717311 67.204162 
L 344.760604 67.896677 
L 344.803897 68.147258 
L 345.150241 111.648118 
L 345.193534 109.994283 
L 345.366706 83.719727 
L 345.583172 70.548279 
L 345.626465 69.577847 
L 345.669758 69.728196 
L 346.016102 106.859743 
L 346.059395 105.830083 
L 346.27586 80.325494 
L 346.449032 64.292866 
L 346.492326 66.470643 
L 346.881963 109.515901 
L 346.925256 106.395029 
L 347.098428 84.416798 
L 347.358186 70.675848 
L 347.401479 71.204346 
L 347.574652 91.105032 
L 347.747824 106.499817 
L 347.920996 89.332741 
L 348.180754 69.20881 
L 348.224047 69.126801 
L 348.310633 73.391234 
L 348.613685 103.907443 
L 348.700271 99.091732 
L 348.743564 101.383409 
L 348.786857 99.000612 
L 349.089908 73.318338 
L 349.219787 85.182209 
L 349.436253 123.243183 
L 349.479546 122.701017 
L 349.652718 101.606654 
L 349.869183 81.674075 
L 349.912476 81.783419 
L 349.999062 82.553387 
L 350.345407 121.429888 
L 350.3887 113.142491 
L 350.735044 80.79932 
L 350.82163 74.985841 
L 350.864923 76.7718 
L 351.124681 103.73887 
L 351.167974 111.447653 
L 351.211267 110.103627 
L 351.471026 77.37775 
L 351.600905 68.406951 
L 351.644198 69.719084 
L 351.687491 69.350046 
L 351.730784 69.463947 
L 351.990542 97.647474 
L 352.033835 106.15356 
L 352.077128 97.109864 
L 352.293594 84.681047 
L 352.466766 65.937589 
L 352.553352 68.261158 
L 352.639938 71.823964 
L 352.899696 106.399585 
L 352.986282 92.781647 
L 353.029575 92.904659 
L 353.419213 62.333779 
L 354.025315 126.723981 
L 354.111901 133.503336 
L 354.328367 188.649378 
L 354.631418 291.697393 
L 354.674711 289.738305 
L 354.718004 292.736165 
L 354.847883 239.658555 
L 355.194228 103.820879 
L 355.237521 105.79819 
L 355.453986 118.659829 
L 355.497279 114.72343 
L 355.670451 95.492478 
L 355.973502 58.22425 
L 356.016795 58.925877 
L 356.146675 73.632703 
L 356.319847 102.326505 
L 356.36314 101.916463 
L 356.536312 93.747523 
L 356.622898 87.724467 
L 356.79607 69.377382 
L 356.839363 70.060785 
L 356.882656 69.16325 
L 356.969242 80.238929 
L 357.185708 111.971595 
L 357.229001 102.290057 
L 357.532052 80.320938 
L 357.661931 70.557391 
L 357.705224 71.117781 
L 357.835103 78.635211 
L 357.964982 94.950312 
L 358.051569 110.003395 
L 358.094862 104.007675 
L 358.181448 104.408605 
L 358.268034 97.715814 
L 358.527792 72.174778 
L 358.614378 73.714712 
L 358.830843 99.989267 
L 358.917429 115.693862 
L 358.960723 106.581825 
L 359.393653 76.639675 
L 359.436946 77.277518 
L 359.480239 77.42331 
L 359.653411 95.497034 
L 359.78329 117.529937 
L 359.826583 109.675362 
L 360.302807 80.238929 
L 360.3461 80.8221 
L 360.649151 121.671357 
L 360.692444 114.850998 
L 360.822323 110.331428 
L 361.125375 84.225445 
L 361.211961 85.200433 
L 361.601598 123.616777 
L 361.644891 122.300088 
L 362.034529 92.408053 
L 362.077822 94.080112 
L 362.294287 129.371028 
L 362.33758 134.865585 
L 362.380873 127.430164 
L 362.467459 131.53058 
L 362.510752 130.168331 
L 362.857097 101.852679 
L 362.986976 108.61381 
L 363.203441 146.606444 
L 363.33332 143.535688 
L 363.376613 143.216766 
L 363.722957 115.570849 
L 363.766251 118.331796 
L 363.852837 125.138487 
L 363.982716 140.013886 
L 364.069302 156.575011 
L 364.112595 151.030337 
L 364.242474 154.442795 
L 364.285767 152.679616 
L 364.415646 137.10259 
L 364.588818 125.307059 
L 364.632111 124.045043 
L 364.675404 125.516636 
L 364.848577 145.526667 
L 364.935163 165.800948 
L 364.978456 160.898672 
L 365.021749 159.992025 
L 365.065042 162.598067 
L 365.108335 162.38849 
L 365.497972 122.290976 
L 365.541265 122.91515 
L 365.714438 140.925089 
L 365.757731 152.046329 
L 365.801024 143.68148 
L 365.844317 143.790825 
L 365.88761 146.77046 
L 365.930903 145.071066 
L 366.060782 133.845037 
L 366.363833 102.349285 
L 366.407126 101.857235 
L 366.537005 109.269876 
L 366.623592 126.459732 
L 366.666885 119.735049 
L 366.753471 122.755689 
L 366.796764 121.511896 
L 366.840057 119.84895 
L 367.143108 83.952084 
L 367.229694 80.781096 
L 367.272987 81.487278 
L 367.402866 90.193829 
L 367.489452 107.29712 
L 367.532745 102.358397 
L 367.619332 107.178664 
L 367.662625 105.784522 
L 367.792504 95.706611 
L 368.052262 68.36139 
L 368.138848 71.436703 
L 368.268727 85.059196 
L 368.355313 101.492753 
L 368.398606 97.67481 
L 368.528485 101.984803 
L 368.571779 101.137384 
L 368.961416 66.242842 
L 369.004709 67.062925 
L 369.134588 80.102249 
L 369.351053 106.618274 
L 369.524226 92.726975 
L 369.783984 68.917225 
L 369.827277 69.058461 
L 369.913863 74.935724 
L 370.000449 84.444134 
L 370.087035 100.321857 
L 370.130328 93.583506 
L 370.173621 93.815863 
L 370.3035 96.941291 
L 370.346793 96.749939 
L 370.649845 67.84656 
L 370.736431 68.798768 
L 371.082775 101.438081 
L 371.126068 98.818371 
L 371.515706 67.035589 
L 371.558999 67.381847 
L 371.688878 76.735352 
L 371.905343 100.854911 
L 371.948636 103.665974 
L 371.991929 101.688662 
L 372.42486 67.318062 
L 372.468153 68.215598 
L 372.598032 88.913588 
L 372.771204 102.062256 
L 372.814497 103.57941 
L 372.85779 103.091916 
L 373.29072 68.238378 
L 373.334014 70.32959 
L 373.637065 105.019111 
L 373.680358 103.17848 
L 373.896823 90.212053 
L 374.113288 68.17915 
L 374.156581 66.288402 
L 374.199874 67.819224 
L 374.329754 92.408053 
L 374.502926 101.757002 
L 374.676098 95.492478 
L 374.979149 69.258926 
L 375.022442 68.73954 
L 375.109028 73.568919 
L 375.325494 100.294521 
L 375.368787 102.253608 
L 375.41208 100.991591 
L 375.671838 82.92698 
L 375.84501 65.336195 
L 375.931596 70.038005 
L 376.277941 102.918787 
L 376.321234 101.993915 
L 376.667578 67.924013 
L 376.754164 69.072129 
L 376.84075 76.243302 
L 377.013922 92.385273 
L 377.100508 99.961931 
L 377.187095 99.73413 
L 377.273681 94.020884 
L 377.620025 67.058369 
L 377.663318 68.229266 
L 377.966369 102.431293 
L 378.009662 100.299077 
L 378.182835 88.102616 
L 378.442593 64.379431 
L 378.485886 64.775804 
L 378.529179 65.308858 
L 378.918816 99.989267 
L 378.962109 99.237524 
L 379.351747 69.605183 
L 379.39504 70.571059 
L 379.654798 102.212604 
L 379.698091 103.57941 
L 379.741384 102.212604 
L 379.82797 97.565466 
L 380.131022 66.160834 
L 380.217608 65.892029 
L 380.304194 79.418846 
L 380.477366 95.59271 
L 380.563952 101.870903 
L 380.607245 100.690894 
L 380.650538 99.693126 
L 381.083469 69.236146 
L 381.126762 70.334146 
L 381.38652 101.21028 
L 381.429813 103.998563 
L 381.473106 101.497309 
L 381.559692 99.05984 
L 381.906036 73.140653 
L 381.949329 73.145209 
L 382.295674 113.110599 
L 382.338967 111.848582 
L 382.81519 73.573475 
L 382.858483 79.851668 
L 383.031656 102.668206 
L 383.118242 111.156068 
L 383.161535 111.096839 
L 383.204828 110.850814 
L 383.248121 112.39986 
L 383.291414 111.224408 
L 383.681051 75.842372 
L 383.897517 93.952544 
L 384.027396 103.684198 
L 384.113982 101.474529 
L 384.460326 65.623224 
L 384.503619 65.24963 
L 384.546912 66.425083 
L 384.80667 94.330693 
L 384.93655 99.374205 
L 385.023136 93.346593 
L 385.153015 78.398298 
L 385.36948 63.481895 
L 385.412773 63.395331 
L 385.499359 80.225261 
L 385.585945 79.664871 
L 385.802411 103.889219 
L 385.845704 103.101028 
L 386.192048 66.347631 
L 386.235341 65.258742 
L 386.278634 67.272502 
L 386.36522 85.719819 
L 386.408513 81.104573 
L 386.798151 124.842346 
L 387.144495 180.676346 
L 387.404253 273.710234 
L 387.534132 295.169079 
L 387.620718 267.860307 
L 388.010356 104.558954 
L 388.053649 108.805162 
L 388.096942 107.734498 
L 388.140235 103.524737 
L 388.183528 108.65937 
L 388.226821 113.096931 
L 388.270114 110.080847 
L 388.399993 104.627294 
L 388.443286 103.843659 
L 388.832924 55.727553 
L 388.876217 58.925877 
L 389.092682 88.87714 
L 389.309147 101.975691 
L 389.439026 95.023208 
L 389.698785 67.559531 
L 389.785371 84.854176 
L 389.828664 78.329958 
L 389.91525 87.96138 
L 390.045129 104.841427 
L 390.088422 104.499725 
L 390.131715 104.23092 
L 390.175008 104.363045 
L 390.304887 91.187041 
L 390.521352 69.637076 
L 390.564645 70.265806 
L 390.91099 102.071368 
L 390.997576 105.301584 
L 391.040869 103.934779 
L 391.257334 83.806291 
L 391.387213 71.587051 
L 391.430506 73.79672 
L 391.690265 102.135152 
L 391.863437 110.381545 
L 391.90673 108.545469 
L 392.253074 77.746788 
L 392.296367 78.908572 
L 392.382953 87.031952 
L 392.426246 80.503178 
L 392.469539 85.628699 
L 392.686005 113.160715 
L 392.815884 108.039751 
L 393.118935 82.384814 
L 393.162228 87.883928 
L 393.205521 94.635946 
L 393.248814 87.054732 
L 393.292107 88.480766 
L 393.551866 117.971871 
L 393.638452 112.832682 
L 393.984796 88.403314 
L 394.071382 93.401265 
L 394.114675 88.813355 
L 394.157968 92.1028 
L 394.46102 129.899526 
L 394.504313 128.423376 
L 394.807364 93.9571 
L 394.850657 92.426278 
L 395.197001 127.853874 
L 395.370173 132.924722 
L 395.629932 109.060299 
L 395.716518 104.74575 
L 395.803104 113.579869 
L 395.846397 108.354116 
L 396.149448 145.713464 
L 396.236034 143.594916 
L 396.495793 125.320728 
L 396.582379 117.010551 
L 396.625672 123.024494 
L 396.668965 122.760245 
L 396.712258 118.491257 
L 396.755551 123.31608 
L 397.015309 159.490863 
L 397.101895 155.868828 
L 397.404947 127.703525 
L 397.44824 130.719609 
L 397.491533 137.644756 
L 397.534826 128.724073 
L 397.578119 130.286787 
L 397.88117 162.078681 
L 397.924463 161.96478 
L 398.054342 152.192122 
L 398.270808 124.090603 
L 398.314101 127.357268 
L 398.357394 132.031742 
L 398.400687 122.500552 
L 398.44398 125.767217 
L 398.487273 130.97019 
L 398.487273 130.97019 
" style="fill:none;stroke:#1f77b4;stroke-linecap:square;stroke-width:1.5;"/>
   </g>
   <g id="patch_3">
    <path d="M 57.6 307.584 
L 57.6 41.472 
" style="fill:none;stroke:#000000;stroke-linecap:square;stroke-linejoin:miter;stroke-width:0.8;"/>
   </g>
   <g id="patch_4">
    <path d="M 414.72 307.584 
L 414.72 41.472 
" style="fill:none;stroke:#000000;stroke-linecap:square;stroke-linejoin:miter;stroke-width:0.8;"/>
   </g>
   <g id="patch_5">
    <path d="M 57.6 307.584 
L 414.72 307.584 
" style="fill:none;stroke:#000000;stroke-linecap:square;stroke-linejoin:miter;stroke-width:0.8;"/>
   </g>
   <g id="patch_6">
    <path d="M 57.6 41.472 
L 414.72 41.472 
" style="fill:none;stroke:#000000;stroke-linecap:square;stroke-linejoin:miter;stroke-width:0.8;"/>
   </g>
  </g>
 </g>
 <defs>
  <clipPath id="p7a98b9b08d">
   <rect height="266.112" width="357.12" x="57.6" y="41.472"/>
  </clipPath>
 </defs>
</svg>
