<?xml version="1.0" encoding="utf-8" standalone="no"?>
<!DOCTYPE svg PUBLIC "-//W3C//DTD SVG 1.1//EN"
  "http://www.w3.org/Graphics/SVG/1.1/DTD/svg11.dtd">
<!-- Created with matplotlib (http://matplotlib.org/) -->
<svg height="345.6pt" version="1.1" viewBox="0 0 460.8 345.6" width="460.8pt" xmlns="http://www.w3.org/2000/svg" xmlns:xlink="http://www.w3.org/1999/xlink">
 <defs>
  <style type="text/css">
*{stroke-linecap:butt;stroke-linejoin:round;}
  </style>
 </defs>
 <g id="figure_1">
  <g id="patch_1">
   <path d="M 0 345.6 
L 460.8 345.6 
L 460.8 0 
L 0 0 
z
" style="fill:#ffffff;"/>
  </g>
  <g id="axes_1">
   <g id="patch_2">
    <path d="M 57.6 307.584 
L 414.72 307.584 
L 414.72 41.472 
L 57.6 41.472 
z
" style="fill:#ffffff;"/>
   </g>
   <g id="matplotlib.axis_1">
    <g id="xtick_1">
     <g id="line2d_1">
      <defs>
       <path d="M 0 0 
L 0 3.5 
" id="m6a3ec1f3e3" style="stroke:#000000;stroke-width:0.8;"/>
      </defs>
      <g>
       <use style="stroke:#000000;stroke-width:0.8;" x="73.832727" xlink:href="#m6a3ec1f3e3" y="307.584"/>
      </g>
     </g>
     <g id="text_1">
      <!-- 0 -->
      <defs>
       <path d="M 31.78125 66.40625 
Q 24.171875 66.40625 20.328125 58.90625 
Q 16.5 51.421875 16.5 36.375 
Q 16.5 21.390625 20.328125 13.890625 
Q 24.171875 6.390625 31.78125 6.390625 
Q 39.453125 6.390625 43.28125 13.890625 
Q 47.125 21.390625 47.125 36.375 
Q 47.125 51.421875 43.28125 58.90625 
Q 39.453125 66.40625 31.78125 66.40625 
z
M 31.78125 74.21875 
Q 44.046875 74.21875 50.515625 64.515625 
Q 56.984375 54.828125 56.984375 36.375 
Q 56.984375 17.96875 50.515625 8.265625 
Q 44.046875 -1.421875 31.78125 -1.421875 
Q 19.53125 -1.421875 13.0625 8.265625 
Q 6.59375 17.96875 6.59375 36.375 
Q 6.59375 54.828125 13.0625 64.515625 
Q 19.53125 74.21875 31.78125 74.21875 
z
" id="DejaVuSans-30"/>
      </defs>
      <g transform="translate(70.651477 322.182437)scale(0.1 -0.1)">
       <use xlink:href="#DejaVuSans-30"/>
      </g>
     </g>
    </g>
    <g id="xtick_2">
     <g id="line2d_2">
      <g>
       <use style="stroke:#000000;stroke-width:0.8;" x="117.125772" xlink:href="#m6a3ec1f3e3" y="307.584"/>
      </g>
     </g>
     <g id="text_2">
      <!-- 2 -->
      <defs>
       <path d="M 19.1875 8.296875 
L 53.609375 8.296875 
L 53.609375 0 
L 7.328125 0 
L 7.328125 8.296875 
Q 12.9375 14.109375 22.625 23.890625 
Q 32.328125 33.6875 34.8125 36.53125 
Q 39.546875 41.84375 41.421875 45.53125 
Q 43.3125 49.21875 43.3125 52.78125 
Q 43.3125 58.59375 39.234375 62.25 
Q 35.15625 65.921875 28.609375 65.921875 
Q 23.96875 65.921875 18.8125 64.3125 
Q 13.671875 62.703125 7.8125 59.421875 
L 7.8125 69.390625 
Q 13.765625 71.78125 18.9375 73 
Q 24.125 74.21875 28.421875 74.21875 
Q 39.75 74.21875 46.484375 68.546875 
Q 53.21875 62.890625 53.21875 53.421875 
Q 53.21875 48.921875 51.53125 44.890625 
Q 49.859375 40.875 45.40625 35.40625 
Q 44.1875 33.984375 37.640625 27.21875 
Q 31.109375 20.453125 19.1875 8.296875 
z
" id="DejaVuSans-32"/>
      </defs>
      <g transform="translate(113.944522 322.182437)scale(0.1 -0.1)">
       <use xlink:href="#DejaVuSans-32"/>
      </g>
     </g>
    </g>
    <g id="xtick_3">
     <g id="line2d_3">
      <g>
       <use style="stroke:#000000;stroke-width:0.8;" x="160.418818" xlink:href="#m6a3ec1f3e3" y="307.584"/>
      </g>
     </g>
     <g id="text_3">
      <!-- 4 -->
      <defs>
       <path d="M 37.796875 64.3125 
L 12.890625 25.390625 
L 37.796875 25.390625 
z
M 35.203125 72.90625 
L 47.609375 72.90625 
L 47.609375 25.390625 
L 58.015625 25.390625 
L 58.015625 17.1875 
L 47.609375 17.1875 
L 47.609375 0 
L 37.796875 0 
L 37.796875 17.1875 
L 4.890625 17.1875 
L 4.890625 26.703125 
z
" id="DejaVuSans-34"/>
      </defs>
      <g transform="translate(157.237568 322.182437)scale(0.1 -0.1)">
       <use xlink:href="#DejaVuSans-34"/>
      </g>
     </g>
    </g>
    <g id="xtick_4">
     <g id="line2d_4">
      <g>
       <use style="stroke:#000000;stroke-width:0.8;" x="203.711863" xlink:href="#m6a3ec1f3e3" y="307.584"/>
      </g>
     </g>
     <g id="text_4">
      <!-- 6 -->
      <defs>
       <path d="M 33.015625 40.375 
Q 26.375 40.375 22.484375 35.828125 
Q 18.609375 31.296875 18.609375 23.390625 
Q 18.609375 15.53125 22.484375 10.953125 
Q 26.375 6.390625 33.015625 6.390625 
Q 39.65625 6.390625 43.53125 10.953125 
Q 47.40625 15.53125 47.40625 23.390625 
Q 47.40625 31.296875 43.53125 35.828125 
Q 39.65625 40.375 33.015625 40.375 
z
M 52.59375 71.296875 
L 52.59375 62.3125 
Q 48.875 64.0625 45.09375 64.984375 
Q 41.3125 65.921875 37.59375 65.921875 
Q 27.828125 65.921875 22.671875 59.328125 
Q 17.53125 52.734375 16.796875 39.40625 
Q 19.671875 43.65625 24.015625 45.921875 
Q 28.375 48.1875 33.59375 48.1875 
Q 44.578125 48.1875 50.953125 41.515625 
Q 57.328125 34.859375 57.328125 23.390625 
Q 57.328125 12.15625 50.6875 5.359375 
Q 44.046875 -1.421875 33.015625 -1.421875 
Q 20.359375 -1.421875 13.671875 8.265625 
Q 6.984375 17.96875 6.984375 36.375 
Q 6.984375 53.65625 15.1875 63.9375 
Q 23.390625 74.21875 37.203125 74.21875 
Q 40.921875 74.21875 44.703125 73.484375 
Q 48.484375 72.75 52.59375 71.296875 
z
" id="DejaVuSans-36"/>
      </defs>
      <g transform="translate(200.530613 322.182437)scale(0.1 -0.1)">
       <use xlink:href="#DejaVuSans-36"/>
      </g>
     </g>
    </g>
    <g id="xtick_5">
     <g id="line2d_5">
      <g>
       <use style="stroke:#000000;stroke-width:0.8;" x="247.004908" xlink:href="#m6a3ec1f3e3" y="307.584"/>
      </g>
     </g>
     <g id="text_5">
      <!-- 8 -->
      <defs>
       <path d="M 31.78125 34.625 
Q 24.75 34.625 20.71875 30.859375 
Q 16.703125 27.09375 16.703125 20.515625 
Q 16.703125 13.921875 20.71875 10.15625 
Q 24.75 6.390625 31.78125 6.390625 
Q 38.8125 6.390625 42.859375 10.171875 
Q 46.921875 13.96875 46.921875 20.515625 
Q 46.921875 27.09375 42.890625 30.859375 
Q 38.875 34.625 31.78125 34.625 
z
M 21.921875 38.8125 
Q 15.578125 40.375 12.03125 44.71875 
Q 8.5 49.078125 8.5 55.328125 
Q 8.5 64.0625 14.71875 69.140625 
Q 20.953125 74.21875 31.78125 74.21875 
Q 42.671875 74.21875 48.875 69.140625 
Q 55.078125 64.0625 55.078125 55.328125 
Q 55.078125 49.078125 51.53125 44.71875 
Q 48 40.375 41.703125 38.8125 
Q 48.828125 37.15625 52.796875 32.3125 
Q 56.78125 27.484375 56.78125 20.515625 
Q 56.78125 9.90625 50.3125 4.234375 
Q 43.84375 -1.421875 31.78125 -1.421875 
Q 19.734375 -1.421875 13.25 4.234375 
Q 6.78125 9.90625 6.78125 20.515625 
Q 6.78125 27.484375 10.78125 32.3125 
Q 14.796875 37.15625 21.921875 38.8125 
z
M 18.3125 54.390625 
Q 18.3125 48.734375 21.84375 45.5625 
Q 25.390625 42.390625 31.78125 42.390625 
Q 38.140625 42.390625 41.71875 45.5625 
Q 45.3125 48.734375 45.3125 54.390625 
Q 45.3125 60.0625 41.71875 63.234375 
Q 38.140625 66.40625 31.78125 66.40625 
Q 25.390625 66.40625 21.84375 63.234375 
Q 18.3125 60.0625 18.3125 54.390625 
z
" id="DejaVuSans-38"/>
      </defs>
      <g transform="translate(243.823658 322.182437)scale(0.1 -0.1)">
       <use xlink:href="#DejaVuSans-38"/>
      </g>
     </g>
    </g>
    <g id="xtick_6">
     <g id="line2d_6">
      <g>
       <use style="stroke:#000000;stroke-width:0.8;" x="290.297953" xlink:href="#m6a3ec1f3e3" y="307.584"/>
      </g>
     </g>
     <g id="text_6">
      <!-- 10 -->
      <defs>
       <path d="M 12.40625 8.296875 
L 28.515625 8.296875 
L 28.515625 63.921875 
L 10.984375 60.40625 
L 10.984375 69.390625 
L 28.421875 72.90625 
L 38.28125 72.90625 
L 38.28125 8.296875 
L 54.390625 8.296875 
L 54.390625 0 
L 12.40625 0 
z
" id="DejaVuSans-31"/>
      </defs>
      <g transform="translate(283.935453 322.182437)scale(0.1 -0.1)">
       <use xlink:href="#DejaVuSans-31"/>
       <use x="63.623047" xlink:href="#DejaVuSans-30"/>
      </g>
     </g>
    </g>
    <g id="xtick_7">
     <g id="line2d_7">
      <g>
       <use style="stroke:#000000;stroke-width:0.8;" x="333.590998" xlink:href="#m6a3ec1f3e3" y="307.584"/>
      </g>
     </g>
     <g id="text_7">
      <!-- 12 -->
      <g transform="translate(327.228498 322.182437)scale(0.1 -0.1)">
       <use xlink:href="#DejaVuSans-31"/>
       <use x="63.623047" xlink:href="#DejaVuSans-32"/>
      </g>
     </g>
    </g>
    <g id="xtick_8">
     <g id="line2d_8">
      <g>
       <use style="stroke:#000000;stroke-width:0.8;" x="376.884043" xlink:href="#m6a3ec1f3e3" y="307.584"/>
      </g>
     </g>
     <g id="text_8">
      <!-- 14 -->
      <g transform="translate(370.521543 322.182437)scale(0.1 -0.1)">
       <use xlink:href="#DejaVuSans-31"/>
       <use x="63.623047" xlink:href="#DejaVuSans-34"/>
      </g>
     </g>
    </g>
   </g>
   <g id="matplotlib.axis_2">
    <g id="ytick_1">
     <g id="line2d_9">
      <defs>
       <path d="M 0 0 
L -3.5 0 
" id="m853a51b701" style="stroke:#000000;stroke-width:0.8;"/>
      </defs>
      <g>
       <use style="stroke:#000000;stroke-width:0.8;" x="57.6" xlink:href="#m853a51b701" y="283.53602"/>
      </g>
     </g>
     <g id="text_9">
      <!-- −40000 -->
      <defs>
       <path d="M 10.59375 35.5 
L 73.1875 35.5 
L 73.1875 27.203125 
L 10.59375 27.203125 
z
" id="DejaVuSans-2212"/>
      </defs>
      <g transform="translate(10.407812 287.335239)scale(0.1 -0.1)">
       <use xlink:href="#DejaVuSans-2212"/>
       <use x="83.789062" xlink:href="#DejaVuSans-34"/>
       <use x="147.412109" xlink:href="#DejaVuSans-30"/>
       <use x="211.035156" xlink:href="#DejaVuSans-30"/>
       <use x="274.658203" xlink:href="#DejaVuSans-30"/>
       <use x="338.28125" xlink:href="#DejaVuSans-30"/>
      </g>
     </g>
    </g>
    <g id="ytick_2">
     <g id="line2d_10">
      <g>
       <use style="stroke:#000000;stroke-width:0.8;" x="57.6" xlink:href="#m853a51b701" y="238.230104"/>
      </g>
     </g>
     <g id="text_10">
      <!-- −30000 -->
      <defs>
       <path d="M 40.578125 39.3125 
Q 47.65625 37.796875 51.625 33 
Q 55.609375 28.21875 55.609375 21.1875 
Q 55.609375 10.40625 48.1875 4.484375 
Q 40.765625 -1.421875 27.09375 -1.421875 
Q 22.515625 -1.421875 17.65625 -0.515625 
Q 12.796875 0.390625 7.625 2.203125 
L 7.625 11.71875 
Q 11.71875 9.328125 16.59375 8.109375 
Q 21.484375 6.890625 26.8125 6.890625 
Q 36.078125 6.890625 40.9375 10.546875 
Q 45.796875 14.203125 45.796875 21.1875 
Q 45.796875 27.640625 41.28125 31.265625 
Q 36.765625 34.90625 28.71875 34.90625 
L 20.21875 34.90625 
L 20.21875 43.015625 
L 29.109375 43.015625 
Q 36.375 43.015625 40.234375 45.921875 
Q 44.09375 48.828125 44.09375 54.296875 
Q 44.09375 59.90625 40.109375 62.90625 
Q 36.140625 65.921875 28.71875 65.921875 
Q 24.65625 65.921875 20.015625 65.03125 
Q 15.375 64.15625 9.8125 62.3125 
L 9.8125 71.09375 
Q 15.4375 72.65625 20.34375 73.4375 
Q 25.25 74.21875 29.59375 74.21875 
Q 40.828125 74.21875 47.359375 69.109375 
Q 53.90625 64.015625 53.90625 55.328125 
Q 53.90625 49.265625 50.4375 45.09375 
Q 46.96875 40.921875 40.578125 39.3125 
z
" id="DejaVuSans-33"/>
      </defs>
      <g transform="translate(10.407812 242.029323)scale(0.1 -0.1)">
       <use xlink:href="#DejaVuSans-2212"/>
       <use x="83.789062" xlink:href="#DejaVuSans-33"/>
       <use x="147.412109" xlink:href="#DejaVuSans-30"/>
       <use x="211.035156" xlink:href="#DejaVuSans-30"/>
       <use x="274.658203" xlink:href="#DejaVuSans-30"/>
       <use x="338.28125" xlink:href="#DejaVuSans-30"/>
      </g>
     </g>
    </g>
    <g id="ytick_3">
     <g id="line2d_11">
      <g>
       <use style="stroke:#000000;stroke-width:0.8;" x="57.6" xlink:href="#m853a51b701" y="192.924188"/>
      </g>
     </g>
     <g id="text_11">
      <!-- −20000 -->
      <g transform="translate(10.407812 196.723407)scale(0.1 -0.1)">
       <use xlink:href="#DejaVuSans-2212"/>
       <use x="83.789062" xlink:href="#DejaVuSans-32"/>
       <use x="147.412109" xlink:href="#DejaVuSans-30"/>
       <use x="211.035156" xlink:href="#DejaVuSans-30"/>
       <use x="274.658203" xlink:href="#DejaVuSans-30"/>
       <use x="338.28125" xlink:href="#DejaVuSans-30"/>
      </g>
     </g>
    </g>
    <g id="ytick_4">
     <g id="line2d_12">
      <g>
       <use style="stroke:#000000;stroke-width:0.8;" x="57.6" xlink:href="#m853a51b701" y="147.618272"/>
      </g>
     </g>
     <g id="text_12">
      <!-- −10000 -->
      <g transform="translate(10.407812 151.417491)scale(0.1 -0.1)">
       <use xlink:href="#DejaVuSans-2212"/>
       <use x="83.789062" xlink:href="#DejaVuSans-31"/>
       <use x="147.412109" xlink:href="#DejaVuSans-30"/>
       <use x="211.035156" xlink:href="#DejaVuSans-30"/>
       <use x="274.658203" xlink:href="#DejaVuSans-30"/>
       <use x="338.28125" xlink:href="#DejaVuSans-30"/>
      </g>
     </g>
    </g>
    <g id="ytick_5">
     <g id="line2d_13">
      <g>
       <use style="stroke:#000000;stroke-width:0.8;" x="57.6" xlink:href="#m853a51b701" y="102.312356"/>
      </g>
     </g>
     <g id="text_13">
      <!-- 0 -->
      <g transform="translate(44.2375 106.111575)scale(0.1 -0.1)">
       <use xlink:href="#DejaVuSans-30"/>
      </g>
     </g>
    </g>
    <g id="ytick_6">
     <g id="line2d_14">
      <g>
       <use style="stroke:#000000;stroke-width:0.8;" x="57.6" xlink:href="#m853a51b701" y="57.00644"/>
      </g>
     </g>
     <g id="text_14">
      <!-- 10000 -->
      <g transform="translate(18.7875 60.805659)scale(0.1 -0.1)">
       <use xlink:href="#DejaVuSans-31"/>
       <use x="63.623047" xlink:href="#DejaVuSans-30"/>
       <use x="127.246094" xlink:href="#DejaVuSans-30"/>
       <use x="190.869141" xlink:href="#DejaVuSans-30"/>
       <use x="254.492188" xlink:href="#DejaVuSans-30"/>
      </g>
     </g>
    </g>
   </g>
   <g id="line2d_15">
    <path clip-path="url(#p1e22b1df6c)" d="M 73.832727 96.132908 
L 74.049192 75.183453 
L 74.179072 64.636235 
L 74.222365 66.389574 
L 74.568709 100.341828 
L 74.655295 109.973865 
L 74.828467 90.714321 
L 75.088226 69.506621 
L 75.131519 71.151226 
L 75.521156 121.372834 
L 75.694328 97.804696 
L 75.910793 79.084292 
L 75.954086 79.632494 
L 75.99738 79.288169 
L 76.127259 91.815254 
L 76.387017 120.779326 
L 76.646775 87.34356 
L 76.819947 75.450757 
L 76.906533 79.338005 
L 77.209585 107.183021 
L 77.252878 103.182509 
L 77.42605 86.944868 
L 77.685808 63.567016 
L 77.772394 70.353842 
L 77.945567 90.070977 
L 78.075446 105.370784 
L 78.118739 102.335288 
L 78.291911 84.321656 
L 78.508376 59.367157 
L 78.551669 59.928951 
L 78.681548 76.193774 
L 78.941307 110.322721 
L 79.114479 86.120301 
L 79.41753 58.669446 
L 79.460823 59.919889 
L 80.110219 116.697263 
L 80.240098 137.338639 
L 80.499856 231.402782 
L 80.673028 295.488 
L 80.759614 294.532045 
L 80.802908 290.368431 
L 81.279131 116.964568 
L 81.322424 118.726968 
L 81.495596 132.8307 
L 81.538889 126.940931 
L 81.712061 96.499886 
L 82.015113 56.426803 
L 82.058406 57.690838 
L 82.231578 80.941834 
L 82.40475 100.455093 
L 82.577922 86.7274 
L 82.837681 70.942819 
L 82.924267 75.106432 
L 83.097439 92.340803 
L 83.227318 110.454108 
L 83.270611 102.589001 
L 83.443783 95.76593 
L 83.746835 66.996674 
L 84.093179 108.809503 
L 84.136472 103.404508 
L 84.223058 103.925526 
L 84.352937 92.744026 
L 84.569402 71.79457 
L 84.742575 84.5799 
L 84.95904 115.007353 
L 85.002333 105.86915 
L 85.262091 87.021888 
L 85.39197 77.398912 
L 85.435263 77.484993 
L 85.521849 79.736697 
L 85.824901 117.943176 
L 85.868194 112.433977 
L 85.911487 112.370548 
L 85.95478 110.766719 
L 86.257831 81.8253 
L 86.344417 79.174904 
L 86.474296 93.980877 
L 86.690762 122.528135 
L 86.993813 91.670275 
L 87.037106 89.436694 
L 87.080399 92.032723 
L 87.210278 87.533845 
L 87.253571 89.033471 
L 87.51333 131.466992 
L 87.599916 119.388435 
L 87.643209 121.454385 
L 87.686502 120.185819 
L 88.032846 93.319411 
L 88.076139 93.831368 
L 88.249311 111.269615 
L 88.37919 133.474044 
L 88.422483 127.149338 
L 88.465777 125.998568 
L 88.50907 127.23995 
L 88.552363 127.366807 
L 88.768828 112.551772 
L 88.898707 102.4259 
L 88.942 102.484798 
L 89.158465 133.972409 
L 89.245051 148.153161 
L 89.288344 143.214816 
L 89.331637 143.541019 
L 89.37493 146.340924 
L 89.418224 146.082681 
L 89.764568 116.294041 
L 89.807861 115.578207 
L 90.110912 162.025832 
L 90.240791 160.009719 
L 90.327377 153.648769 
L 90.673722 128.757698 
L 90.717015 132.740088 
L 90.976773 168.151192 
L 91.020066 160.770859 
L 91.279824 146.150639 
L 91.409704 132.962087 
L 91.49629 125.85812 
L 91.539583 125.917017 
L 91.712755 137.968391 
L 91.799341 154.477867 
L 91.885927 149.820419 
L 92.405444 99.476485 
L 92.49203 102.629777 
L 92.665202 126.234159 
L 92.751788 119.483577 
L 92.795081 122.274422 
L 92.838374 122.269891 
L 92.92496 116.692733 
L 93.228011 78.078501 
L 93.271305 80.443469 
L 93.531063 112.755649 
L 93.574356 105.701518 
L 93.617649 105.805721 
L 93.704235 107.830896 
L 93.834114 95.471442 
L 94.050579 70.159026 
L 94.093872 71.667713 
L 94.267045 86.822542 
L 94.396924 105.619967 
L 94.48351 100.799417 
L 94.526803 101.723658 
L 94.570096 101.107498 
L 94.959733 70.834085 
L 95.003026 71.595224 
L 95.176199 86.890501 
L 95.262785 103.164386 
L 95.306078 99.204649 
L 95.435957 101.252477 
L 95.782301 65.886679 
L 95.868887 68.876869 
L 96.042059 87.375275 
L 96.128646 100.581949 
L 96.171939 93.69545 
L 96.301818 103.744302 
L 96.345111 101.755372 
L 96.734748 66.829042 
L 96.90792 90.09363 
L 96.951213 101.066722 
L 97.037799 96.848742 
L 97.124386 100.568357 
L 97.167679 99.829871 
L 97.340851 83.719087 
L 97.557316 67.612834 
L 97.643902 72.958932 
L 97.730488 80.98714 
L 97.817074 101.96378 
L 97.860367 96.581437 
L 97.946953 105.687926 
L 97.990246 103.766955 
L 98.120126 95.571115 
L 98.379884 68.736421 
L 98.423177 69.352581 
L 98.46647 69.991395 
L 98.596349 82.948887 
L 98.682935 100.43244 
L 98.726228 93.826837 
L 98.856107 101.107498 
L 98.8994 99.222772 
L 99.245745 68.179158 
L 99.418917 79.677799 
L 99.678675 108.93636 
L 99.765261 106.145516 
L 100.111606 70.213394 
L 100.154899 70.059353 
L 100.241485 74.109702 
L 100.544536 103.137203 
L 100.587829 102.403247 
L 100.631122 103.504181 
L 100.761001 91.724643 
L 100.934174 71.608816 
L 100.977467 71.848937 
L 101.150639 81.191017 
L 101.367104 102.598062 
L 101.410397 105.189561 
L 101.45369 103.603854 
L 101.496983 102.416839 
L 101.886621 69.819232 
L 101.929914 71.282613 
L 102.276258 102.253737 
L 102.319551 102.666021 
L 102.362844 101.841454 
L 102.665895 71.074206 
L 102.752481 68.614095 
L 102.795774 68.953889 
L 103.098826 100.636316 
L 103.142119 99.866116 
L 103.185412 98.05841 
L 103.228705 100.328236 
L 103.271998 100.341828 
L 103.618342 70.353842 
L 103.704928 75.052065 
L 103.791515 91.828846 
L 103.834808 99.204649 
L 103.921394 98.552244 
L 104.00798 102.801939 
L 104.051273 102.135942 
L 104.094566 101.537904 
L 104.224445 89.848978 
L 104.44091 66.774675 
L 104.484203 66.104147 
L 104.614082 77.530299 
L 104.787255 96.187275 
L 104.873841 104.478258 
L 104.917134 102.946918 
L 105.047013 91.634031 
L 105.306771 72.514934 
L 105.393357 75.115494 
L 105.782995 110.553781 
L 105.826288 108.700769 
L 106.086046 85.418059 
L 106.172632 77.634503 
L 106.215925 80.316613 
L 106.302511 84.20386 
L 106.562269 115.82739 
L 106.648855 118.033788 
L 106.865321 92.993208 
L 107.038493 81.041508 
L 107.081786 80.443469 
L 107.42813 105.053643 
L 107.471423 101.995494 
L 107.947647 67.182428 
L 107.99094 71.17841 
L 108.293991 97.537392 
L 108.380577 100.124359 
L 108.42387 99.639586 
L 108.813508 65.941046 
L 108.856801 68.722829 
L 109.159852 101.827862 
L 109.203145 103.449814 
L 109.246438 102.344349 
L 109.462903 81.358649 
L 109.636076 66.027127 
L 109.679369 66.262718 
L 110.069006 106.662003 
L 110.155592 102.693205 
L 110.372057 83.864066 
L 110.54523 119.089416 
L 110.848281 217.878966 
L 111.108039 276.921636 
L 111.151332 275.634948 
L 111.237918 256.96891 
L 111.670849 127.122155 
L 111.800728 123.271152 
L 111.930607 104.867889 
L 112.233658 64.228482 
L 112.320244 61.831799 
L 112.53671 86.827073 
L 112.623296 92.979616 
L 112.666589 92.399701 
L 112.839761 87.515723 
L 113.056226 68.410218 
L 113.142812 70.304005 
L 113.402571 100.518521 
L 113.489157 108.456117 
L 113.53245 108.066486 
L 113.96538 72.306527 
L 114.008673 72.311057 
L 114.398311 107.704039 
L 114.441604 105.248458 
L 114.874534 76.062387 
L 114.96112 96.75813 
L 115.047706 88.621187 
L 115.220878 115.659758 
L 115.264171 114.554294 
L 115.480637 92.811984 
L 115.653809 78.99368 
L 115.697102 79.138659 
L 115.740395 79.818248 
L 115.826981 95.929032 
L 115.913567 93.632022 
L 116.130032 114.798946 
L 116.173325 114.586008 
L 116.303205 104.464666 
L 116.51967 80.715305 
L 116.562963 80.153512 
L 116.606256 81.05963 
L 116.866014 115.419637 
L 116.9526 122.519074 
L 116.995893 121.612955 
L 117.385531 83.723618 
L 117.472117 86.509932 
L 117.558703 103.427161 
L 117.645289 103.381855 
L 117.861754 127.552561 
L 118.294685 91.715581 
L 118.337978 95.086341 
L 118.51115 115.261066 
L 118.684322 135.43579 
L 118.727615 133.659798 
L 119.160546 102.521042 
L 119.203839 106.140985 
L 119.377011 123.452376 
L 119.550183 144.397301 
L 119.593476 144.025792 
L 119.766648 135.43126 
L 119.983113 114.844251 
L 120.199579 133.238453 
L 120.372751 151.750451 
L 120.50263 153.807339 
L 120.632509 145.493704 
L 120.892267 125.382408 
L 121.108733 146.127987 
L 121.325198 166.311772 
L 121.368491 167.757031 
L 121.714835 125.917017 
L 121.758128 124.526126 
L 121.844714 135.671381 
L 121.888007 130.923321 
L 121.974593 140.374135 
L 122.104473 155.229945 
L 122.147766 154.450683 
L 122.191059 153.521912 
L 122.623989 106.41282 
L 122.667282 113.476013 
L 122.710575 115.161393 
L 122.753868 109.638602 
L 122.797161 111.659246 
L 123.013627 130.628833 
L 123.05692 133.188617 
L 123.100213 130.61071 
L 123.403264 91.271583 
L 123.48985 84.611614 
L 123.576436 94.991199 
L 123.619729 89.626979 
L 123.92278 113.53038 
L 123.966074 111.287737 
L 124.312418 74.517456 
L 124.355711 79.954166 
L 124.399004 84.792837 
L 124.442297 74.848189 
L 124.48559 78.078501 
L 124.745348 108.863871 
L 124.788641 108.116323 
L 124.961814 89.984895 
L 125.178279 71.278083 
L 125.221572 76.08051 
L 125.264865 76.121285 
L 125.308158 70.548657 
L 125.351451 73.815214 
L 125.611209 103.862097 
L 125.654502 103.608384 
L 125.741088 94.796384 
L 126.000847 70.847676 
L 126.04414 67.43161 
L 126.130726 75.31937 
L 126.174019 71.812692 
L 126.47707 101.886759 
L 126.520363 99.417587 
L 126.606949 95.412544 
L 126.910001 67.408957 
L 127.342931 105.855558 
L 127.429517 100.577419 
L 127.689275 71.645061 
L 127.775862 72.138895 
L 127.819155 79.347066 
L 127.862448 79.315352 
L 127.905741 73.330441 
L 127.949034 73.502603 
L 128.165499 102.815531 
L 128.208792 102.471206 
L 128.425257 88.997226 
L 128.598429 70.530535 
L 128.685015 74.743985 
L 128.728309 64.867295 
L 128.771602 69.19401 
L 128.988067 103.327488 
L 129.03136 103.322957 
L 129.117946 103.359202 
L 129.334411 83.365701 
L 129.46429 74.327171 
L 129.507583 77.901808 
L 129.550876 79.550943 
L 129.594169 71.821754 
L 129.637462 73.384808 
L 129.940514 106.131924 
L 130.0271 101.909412 
L 130.286858 71.513673 
L 130.330151 74.567292 
L 130.373444 80.760611 
L 130.416737 79.356127 
L 130.46003 70.48976 
L 130.503323 74.834597 
L 130.763082 106.068496 
L 130.806375 105.828374 
L 130.849668 105.384376 
L 130.979547 94.171162 
L 131.325891 69.216663 
L 131.672236 107.341592 
L 131.715529 105.87368 
L 131.888701 88.041272 
L 132.061873 69.796579 
L 132.105166 72.70975 
L 132.148459 71.817223 
L 132.191752 67.540345 
L 132.538096 107.70857 
L 132.624683 103.064713 
L 132.754562 88.326699 
L 132.884441 72.972524 
L 132.927734 75.287656 
L 132.971027 80.402694 
L 133.01432 71.649591 
L 133.100906 76.207366 
L 133.187492 83.596761 
L 133.403957 105.5656 
L 133.880181 64.713255 
L 133.923474 66.883409 
L 134.226525 101.284191 
L 134.313111 103.028469 
L 134.44299 92.975086 
L 134.616163 71.853468 
L 134.659456 73.738194 
L 134.746042 65.447211 
L 134.789335 67.934506 
L 135.135679 102.937857 
L 135.178972 104.084096 
L 135.222265 103.313896 
L 135.395437 85.34557 
L 135.482024 76.918669 
L 135.525317 81.132119 
L 135.56861 79.37878 
L 135.611903 69.977803 
L 135.655196 72.25216 
L 136.00154 112.84173 
L 136.088126 106.811513 
L 136.304591 84.140432 
L 136.347884 84.475696 
L 136.391177 89.549959 
L 136.434471 85.558507 
L 136.477764 79.152251 
L 136.521057 83.537863 
L 136.824108 117.163914 
L 136.867401 116.742569 
L 137.040573 104.555278 
L 137.343624 70.476168 
L 137.386918 72.297466 
L 137.646676 102.403247 
L 137.689969 104.120341 
L 137.733262 102.4259 
L 138.036313 70.03217 
L 138.079606 74.961454 
L 138.122899 75.958184 
L 138.166192 69.021848 
L 138.252778 71.151226 
L 138.339365 75.681818 
L 138.599123 99.263547 
L 138.815588 87.42058 
L 139.032053 62.207838 
L 139.075346 62.470613 
L 139.421691 99.426648 
L 139.464984 101.320436 
L 139.508277 100.296522 
L 139.768035 75.047535 
L 139.811328 77.743237 
L 139.897914 56.073417 
L 139.941207 57.577574 
L 140.200965 97.560044 
L 140.244259 96.749069 
L 140.287552 97.016374 
L 140.633896 120.312676 
L 141.239999 289.806638 
L 141.326585 279.766847 
L 141.759515 111.92655 
L 141.97598 123.683436 
L 142.019273 122.510012 
L 142.408911 72.573832 
L 142.495497 54.079957 
L 142.53879 55.588644 
L 142.885134 96.232581 
L 143.015013 91.076768 
L 143.361358 70.593963 
L 143.404651 72.234037 
L 143.794288 103.830383 
L 143.837581 103.381855 
L 144.183926 64.667949 
L 144.270512 70.553188 
L 144.616856 105.656212 
L 144.660149 105.959761 
L 144.790028 97.927022 
L 145.09308 69.162296 
L 145.136373 71.536326 
L 145.482717 111.070269 
L 145.569303 107.844487 
L 145.785768 79.433147 
L 145.829061 85.644589 
L 145.872354 83.533333 
L 145.915647 72.33371 
L 145.95894 72.578362 
L 146.348578 112.873444 
L 146.391871 112.782832 
L 146.651629 89.133144 
L 146.694922 90.954442 
L 146.781508 78.051317 
L 146.824801 83.062151 
L 146.997974 95.811236 
L 147.214439 116.765222 
L 147.257732 116.869426 
L 147.301025 115.759431 
L 147.647369 80.112736 
L 147.690662 81.200078 
L 147.950421 113.412585 
L 148.0803 127.751907 
L 148.123593 126.279465 
L 148.426644 102.706797 
L 148.51323 89.042532 
L 148.556523 91.39844 
L 148.989454 129.935652 
L 149.032747 128.168721 
L 149.379091 101.193579 
L 149.422384 103.309365 
L 149.638849 128.639903 
L 149.855315 148.705893 
L 149.941901 140.460216 
L 150.244952 112.669568 
L 150.288245 114.341356 
L 150.50471 139.617526 
L 150.634589 156.611775 
L 150.677882 156.41696 
L 150.721175 157.277772 
L 150.764468 157.178099 
L 151.06752 122.043362 
L 151.154106 125.880773 
L 151.543743 165.595939 
L 151.630329 163.978517 
L 151.846795 139.214304 
L 151.976674 122.097729 
L 152.019967 121.477038 
L 152.106553 126.723463 
L 152.366311 149.168013 
L 152.409604 148.311732 
L 152.539483 139.449894 
L 152.885828 100.6635 
L 152.972414 104.695726 
L 153.102293 117.005344 
L 153.232172 125.391469 
L 153.362051 115.714125 
L 153.578516 98.357429 
L 153.751689 76.669487 
L 153.838275 81.204609 
L 153.968154 98.633795 
L 154.098033 111.595817 
L 154.141326 111.355696 
L 154.184619 111.219778 
L 154.271205 104.328748 
L 154.574256 71.110451 
L 154.660843 73.751786 
L 155.007187 103.245937 
L 155.05048 103.173447 
L 155.180359 91.760887 
L 155.396824 63.698403 
L 155.48341 66.271779 
L 155.699876 88.48527 
L 155.873048 101.247946 
L 155.959634 96.087602 
L 156.305978 66.557206 
L 156.349271 68.65487 
L 156.435857 73.026891 
L 156.522443 82.989662 
L 156.738909 101.882229 
L 156.825495 100.328236 
L 156.998667 85.100918 
L 157.128546 67.821241 
L 157.215132 66.412227 
L 157.258425 67.952628 
L 157.60477 102.561818 
L 157.648063 104.396707 
L 157.691356 102.666021 
L 158.0377 65.420028 
L 158.080993 67.069163 
L 158.427337 99.200119 
L 158.470631 98.13543 
L 158.513924 98.316653 
L 158.643803 89.989426 
L 158.687096 91.760887 
L 158.946854 65.506109 
L 159.163319 87.855517 
L 159.336491 102.000024 
L 159.423078 99.571627 
L 159.59625 84.801899 
L 159.726129 68.097607 
L 159.812715 69.524744 
L 159.985887 84.860796 
L 160.159059 101.415578 
L 160.202352 101.121089 
L 160.245645 101.850515 
L 160.418818 95.267565 
L 160.59199 67.771405 
L 160.635283 65.97276 
L 160.678576 66.407697 
L 160.981627 103.857567 
L 161.068213 104.917725 
L 161.111506 104.156586 
L 161.327971 75.586675 
L 161.501144 64.636235 
L 161.934074 103.857567 
L 162.02066 98.638325 
L 162.367005 64.400645 
L 162.58347 86.301524 
L 162.799935 104.72744 
L 162.843228 103.717118 
L 163.232865 66.770144 
L 163.319452 70.471637 
L 163.665796 103.354671 
L 163.709089 102.000024 
L 164.098726 67.916384 
L 164.142019 68.88593 
L 164.271899 76.61512 
L 164.488364 106.729962 
L 164.531657 103.984423 
L 164.748122 87.7196 
L 164.921294 67.060102 
L 164.964587 64.722317 
L 165.00788 65.945576 
L 165.354225 104.532625 
L 165.397518 104.405768 
L 165.57069 95.244912 
L 165.700569 71.690366 
L 165.743862 71.024369 
L 165.873741 66.045249 
L 166.00362 79.152251 
L 166.220086 101.347619 
L 166.263379 101.823331 
L 166.306672 101.374803 
L 166.479844 84.217452 
L 166.653016 67.436141 
L 166.739602 72.379016 
L 167.085946 114.404784 
L 167.12924 113.960786 
L 167.518877 75.958184 
L 167.56217 78.141929 
L 167.735342 93.3919 
L 167.951807 115.052659 
L 167.9951 115.165923 
L 168.038393 114.151071 
L 168.471324 76.184713 
L 168.514617 77.208627 
L 168.644496 91.135666 
L 168.817668 105.126132 
L 168.904254 101.130151 
L 169.077427 80.316613 
L 169.250599 65.891209 
L 169.293892 65.682802 
L 169.337185 66.81998 
L 169.683529 98.189797 
L 169.726822 98.040287 
L 169.770115 95.398952 
L 169.813408 95.448789 
L 169.856701 98.280409 
L 170.029874 74.63072 
L 170.159753 63.399384 
L 170.203046 65.275049 
L 170.332925 77.054587 
L 170.54939 100.192318 
L 170.592683 100.369011 
L 170.722562 97.120577 
L 170.895734 65.81872 
L 171.025614 61.804616 
L 171.1122 68.337729 
L 171.458544 101.578679 
L 171.501837 102.96051 
L 171.588423 113.702542 
L 171.631716 109.643132 
L 171.804888 127.860641 
L 171.978061 171.549136 
L 172.324405 283.785482 
L 172.410991 292.003975 
L 172.627456 193.391118 
L 172.887215 113.113565 
L 173.060387 130.393242 
L 173.10368 128.812065 
L 173.623196 59.657115 
L 173.666489 61.83633 
L 173.839662 79.356127 
L 174.012834 95.312871 
L 174.056127 95.036505 
L 174.142713 100.201379 
L 174.315885 77.61638 
L 174.445764 69.896252 
L 174.489057 70.788779 
L 174.878695 104.872419 
L 174.965281 104.659482 
L 175.008574 102.280921 
L 175.181746 74.426844 
L 175.311625 68.582381 
L 175.354918 69.633478 
L 175.571383 92.367987 
L 175.744556 104.990215 
L 175.787849 103.558548 
L 175.831142 105.986945 
L 175.874435 102.946918 
L 176.0909 76.968506 
L 176.177486 70.362903 
L 176.220779 71.608816 
L 176.437244 93.514226 
L 176.610416 110.816556 
L 176.653709 110.232109 
L 176.697003 113.566625 
L 176.740296 109.575173 
L 176.913468 76.284386 
L 177.043347 78.984619 
L 177.129933 78.341275 
L 177.562863 116.248735 
L 177.952501 75.921939 
L 178.168966 100.482276 
L 178.385431 119.325007 
L 178.428724 121.513282 
L 178.731776 85.331978 
L 178.818362 83.565047 
L 178.861655 84.910633 
L 179.294585 127.892355 
L 179.467757 101.746311 
L 179.64093 90.514975 
L 179.727516 95.281157 
L 180.117153 135.675912 
L 180.160446 134.74714 
L 180.376911 105.293764 
L 180.550084 99.630525 
L 180.679963 112.565364 
L 180.983014 145.375908 
L 181.026307 144.075629 
L 181.156186 128.177783 
L 181.199479 128.725984 
L 181.372651 114.404784 
L 181.459237 119.098477 
L 181.63241 141.506783 
L 181.718996 153.449423 
L 181.762289 153.082445 
L 181.805582 152.108367 
L 181.848875 159.724292 
L 181.892168 158.066095 
L 182.06534 135.141302 
L 182.238512 125.409591 
L 182.281805 125.681427 
L 182.411684 135.195669 
L 182.714736 170.103877 
L 183.147666 118.142522 
L 183.190959 120.444063 
L 183.580597 157.418221 
L 183.797062 118.81305 
L 184.013527 98.253225 
L 184.403165 131.557604 
L 184.446458 129.645694 
L 184.662923 95.720624 
L 184.879388 78.413764 
L 185.269025 114.808007 
L 185.312318 114.114826 
L 185.528784 83.139171 
L 185.745249 65.981821 
L 186.005007 102.493859 
L 186.0483 101.646638 
L 186.091593 102.815531 
L 186.134886 108.546729 
L 186.178179 107.210205 
L 186.394645 78.513437 
L 186.567817 69.819232 
L 186.61111 69.076215 
L 187.000747 108.383628 
L 187.04404 103.96177 
L 187.217212 81.168364 
L 187.433678 69.162296 
L 187.476971 69.742212 
L 187.866608 111.441777 
L 187.909901 100.59101 
L 188.212953 68.976542 
L 188.299539 66.906062 
L 188.342832 68.174627 
L 188.732469 106.702778 
L 188.905641 86.659441 
L 188.992227 81.046038 
L 189.1654 70.136374 
L 189.251986 72.650852 
L 189.381865 88.222495 
L 189.555037 109.181012 
L 189.59833 107.676856 
L 189.814795 83.093865 
L 190.03126 64.124278 
L 190.204433 81.52175 
L 190.464191 107.015389 
L 190.637363 90.143466 
L 190.853828 70.113721 
L 190.897121 70.716289 
L 191.113587 90.256731 
L 191.330052 109.833417 
L 191.546517 85.037489 
L 191.762982 69.107929 
L 191.892861 78.907599 
L 192.15262 113.91095 
L 192.195913 102.711327 
L 192.628843 66.724838 
L 192.845308 91.774479 
L 193.018481 109.067747 
L 193.191653 92.182232 
L 193.451411 70.784248 
L 193.494704 71.114981 
L 193.711169 86.446503 
L 193.884341 112.293528 
L 194.187393 74.186722 
L 194.273979 73.593215 
L 194.360565 69.34352 
L 194.403858 71.699428 
L 194.750202 110.413333 
L 194.923375 91.960233 
L 195.226426 64.011014 
L 195.269719 65.469864 
L 195.616063 110.449578 
L 195.789235 93.998999 
L 196.092287 68.627686 
L 196.265459 81.009793 
L 196.438631 106.344862 
L 196.481924 104.469197 
L 196.655096 90.945381 
L 196.958148 62.787754 
L 197.001441 64.758561 
L 197.304492 110.599087 
L 197.391078 99.970319 
L 197.434371 99.458362 
L 197.824009 69.198541 
L 198.040474 93.795123 
L 198.170353 110.263823 
L 198.213646 103.744302 
L 198.256939 103.218753 
L 198.300232 104.260789 
L 198.516697 88.983635 
L 198.689869 76.914139 
L 198.906335 100.296522 
L 199.036214 117.580729 
L 199.079507 113.951725 
L 199.166093 110.952473 
L 199.512437 76.69667 
L 199.55573 77.838379 
L 199.815489 110.091661 
L 199.858782 119.080355 
L 199.902075 117.331546 
L 200.075247 99.403995 
L 200.378298 63.807137 
L 200.421591 64.554685 
L 200.638056 91.239869 
L 200.767936 107.441265 
L 200.984401 88.72086 
L 201.287452 65.338477 
L 201.503917 84.693164 
L 201.590503 105.710579 
L 201.67709 100.631786 
L 201.720383 101.20264 
L 201.893555 82.717826 
L 202.066727 67.748752 
L 202.196606 66.058841 
L 202.283192 72.682566 
L 202.456364 103.105489 
L 202.54295 100.12889 
L 202.586243 100.35995 
L 202.716123 90.773218 
L 202.932588 72.061875 
L 203.149053 115.718656 
L 203.581984 243.526645 
L 203.755156 264.77512 
L 203.841742 259.764285 
L 204.534431 101.035008 
L 204.707603 72.877381 
L 204.750896 74.70774 
L 204.880775 77.838379 
L 204.967361 86.559768 
L 205.053947 103.717118 
L 205.09724 95.244912 
L 205.486878 66.951368 
L 205.530171 66.887939 
L 205.573464 65.275049 
L 205.616757 66.20382 
L 205.876515 109.022441 
L 205.919808 100.291991 
L 205.963101 100.523051 
L 206.006394 103.173447 
L 206.049687 101.628516 
L 206.439325 67.771405 
L 206.482618 67.907322 
L 206.742376 109.55252 
L 206.872255 104.745563 
L 207.08872 89.146736 
L 207.305185 70.331189 
L 207.348478 72.94081 
L 207.608237 112.588017 
L 207.65153 105.461396 
L 207.738116 109.058686 
L 207.781409 107.903385 
L 207.911288 97.569106 
L 208.127753 76.832588 
L 208.171046 75.106432 
L 208.214339 75.46888 
L 208.387512 94.379569 
L 208.474098 112.062468 
L 208.517391 106.340331 
L 208.603977 109.303338 
L 208.64727 108.913707 
L 208.733856 105.592783 
L 208.863735 91.239869 
L 209.036907 78.037725 
L 209.0802 79.247393 
L 209.339959 118.477786 
L 209.469838 111.487083 
L 209.513131 111.831408 
L 209.556424 108.057425 
L 209.599717 110.136967 
L 209.64301 111.559573 
L 209.902768 79.922451 
L 209.946061 82.020115 
L 210.119233 103.513242 
L 210.205819 122.904174 
L 210.249112 116.7471 
L 210.335699 119.216272 
L 210.378992 117.947707 
L 210.465578 114.749109 
L 210.725336 90.877422 
L 210.811922 93.736225 
L 210.941801 105.778538 
L 211.028387 125.654243 
L 211.114973 121.866668 
L 211.244853 128.834718 
L 211.374732 119.782596 
L 211.591197 100.563827 
L 211.63449 99.222772 
L 211.677783 100.455093 
L 211.807662 116.371061 
L 211.894248 140.152136 
L 211.937541 135.118649 
L 211.980834 135.626075 
L 212.06742 139.18259 
L 212.110713 137.315986 
L 212.283886 129.387451 
L 212.500351 111.256023 
L 212.586937 119.442802 
L 212.760109 154.708927 
L 212.933281 153.993094 
L 213.366212 124.17727 
L 213.409505 126.62379 
L 213.62597 161.183142 
L 213.712556 159.420742 
L 213.799142 164.667167 
L 213.842435 162.950073 
L 214.18878 131.118137 
L 214.275366 130.855362 
L 214.405245 141.085438 
L 214.491831 158.3334 
L 214.535124 154.971701 
L 214.62171 158.265441 
L 214.665003 157.504302 
L 214.838175 140.786419 
L 215.097934 113.249483 
L 215.18452 116.52057 
L 215.271106 126.487872 
L 215.314399 135.902441 
L 215.400985 133.59637 
L 215.444278 134.271428 
L 215.574157 130.68773 
L 215.963794 87.928007 
L 216.007087 89.210164 
L 216.353432 116.280449 
L 216.396725 114.305111 
L 216.829655 76.15753 
L 216.872948 76.701201 
L 216.959534 82.160564 
L 217.132707 100.400725 
L 217.219293 106.095679 
L 217.262586 104.641359 
L 217.522344 81.4402 
L 217.652223 67.66267 
L 217.695516 68.867808 
L 217.825395 79.319883 
L 217.998568 98.180736 
L 218.17174 104.641359 
L 218.344912 82.115258 
L 218.518084 67.685323 
L 218.561377 67.345529 
L 218.691256 80.869345 
L 218.864428 98.149021 
L 218.951015 101.053131 
L 218.994308 99.775504 
L 219.124187 90.94085 
L 219.427238 69.696906 
L 219.470531 70.149965 
L 219.557117 79.895268 
L 219.730289 100.559296 
L 219.860169 105.470457 
L 220.076634 83.2026 
L 220.249806 67.051041 
L 220.293099 67.952628 
L 220.682736 106.358453 
L 220.726029 104.691196 
L 221.115667 66.489247 
L 221.202253 69.130582 
L 221.548597 100.840193 
L 221.59189 103.916465 
L 221.635183 101.687413 
L 222.024821 65.827781 
L 222.068114 66.856225 
L 222.457751 102.244676 
L 222.890682 66.104147 
L 222.933975 66.647818 
L 223.237026 101.238885 
L 223.323612 100.690683 
L 223.410198 93.940102 
L 223.756543 64.509379 
L 223.799836 64.82652 
L 224.14618 100.781295 
L 224.232766 97.922492 
L 224.622403 62.669959 
L 224.925455 97.695962 
L 225.055334 100.332767 
L 225.228506 86.541646 
L 225.401678 64.513909 
L 225.444971 64.627174 
L 225.488264 65.193498 
L 225.70473 85.775976 
L 225.791316 96.767191 
L 225.834609 96.459111 
L 226.13766 79.591718 
L 226.310832 65.20709 
L 226.354125 64.504848 
L 226.570591 86.437442 
L 226.743763 98.887508 
L 226.787056 99.494607 
L 226.960228 82.088074 
L 227.1334 67.304754 
L 227.219986 65.728108 
L 227.436451 86.360422 
L 227.609624 102.299043 
L 227.652917 101.220763 
L 228.085847 67.041979 
L 228.518778 100.05187 
L 228.605364 94.270835 
L 228.821829 66.140392 
L 228.951708 67.114469 
L 229.254759 108.827626 
L 229.298052 107.332531 
L 229.601104 88.023149 
L 229.730983 75.790552 
L 229.774276 76.501855 
L 229.817569 77.77042 
L 230.034034 102.434961 
L 230.12062 113.095443 
L 230.163913 113.045607 
L 230.380378 100.423378 
L 230.596844 82.5955 
L 230.640137 79.609841 
L 230.68343 80.638285 
L 230.770016 92.979616 
L 230.813309 87.828334 
L 230.986481 106.3358 
L 231.073067 104.310626 
L 231.202946 92.571863 
L 231.462705 64.754031 
L 231.549291 66.987612 
L 231.852342 100.178726 
L 231.895635 100.28293 
L 232.068807 89.228287 
L 232.371859 61.546372 
L 232.761496 100.563827 
L 232.804789 100.776765 
L 233.237719 62.361878 
L 233.281012 67.291162 
L 233.454185 81.44473 
L 233.627357 100.364481 
L 233.67065 100.332767 
L 233.757236 96.332254 
L 233.930408 81.168364 
L 233.973701 81.249915 
L 234.146873 112.832669 
L 234.623097 252.642195 
L 234.752976 268.544572 
L 234.796269 264.634671 
L 234.882855 250.363308 
L 235.2292 139.227895 
L 235.792009 64.13334 
L 235.835302 63.879626 
L 235.921888 72.084528 
L 235.965181 63.920402 
L 236.008474 66.158514 
L 236.22494 86.369483 
L 236.268233 87.529315 
L 236.311526 86.808951 
L 236.441405 79.446739 
L 236.65787 60.812416 
L 236.701163 62.112696 
L 236.874335 83.275089 
L 237.134094 106.299556 
L 237.177387 105.692456 
L 237.393852 77.602788 
L 237.523731 67.381774 
L 237.999954 107.355184 
L 238.086541 99.163874 
L 238.389592 70.57131 
L 238.476178 80.076491 
L 238.519471 72.678035 
L 238.562764 78.76262 
L 238.822522 109.507215 
L 238.865815 109.149298 
L 239.125574 84.013576 
L 239.255453 74.454027 
L 239.558504 106.63935 
L 239.64509 110.789372 
L 239.688383 110.590026 
L 239.774969 109.031502 
L 240.121314 76.16206 
L 240.294486 88.95192 
L 240.597537 119.089416 
L 240.64083 117.12767 
L 240.987175 82.464113 
L 241.073761 91.919458 
L 241.117054 88.893023 
L 241.20364 99.381342 
L 241.333519 116.230613 
L 241.376812 116.144531 
L 241.463398 118.446072 
L 241.593277 111.623001 
L 241.853035 89.649632 
L 241.896328 96.536131 
L 241.939622 97.197597 
L 241.982915 92.85729 
L 242.026208 97.274617 
L 242.242673 126.01216 
L 242.329259 129.903938 
L 242.675603 101.546965 
L 242.718896 104.659482 
L 242.762189 107.115062 
L 242.805482 99.730198 
L 242.848775 104.849766 
L 243.151827 142.354004 
L 243.238413 141.108091 
L 243.368292 132.345927 
L 243.541464 114.205438 
L 243.584757 118.74056 
L 243.62805 118.369052 
L 243.671343 112.008101 
L 243.714636 117.159384 
L 244.060981 151.705145 
L 244.537204 120.666062 
L 244.710376 149.000382 
L 244.840256 163.471091 
L 244.883549 162.759788 
L 245.273186 126.338362 
L 245.316479 129.700061 
L 245.359772 130.202957 
L 245.403065 124.784369 
L 245.446358 127.933131 
L 245.706116 155.818922 
L 245.792703 152.638447 
L 245.922582 142.621309 
L 246.139047 113.022954 
L 246.18234 117.802728 
L 246.225633 114.803476 
L 246.268926 107.400489 
L 246.312219 109.769989 
L 246.61527 131.571196 
L 246.658563 127.937661 
L 247.091494 80.307552 
L 247.134787 80.348327 
L 247.437838 117.7393 
L 247.481131 114.785354 
L 247.61101 99.879707 
L 247.827476 79.043517 
L 247.870769 79.809187 
L 247.914062 79.22021 
L 247.957355 72.782239 
L 248.000648 75.686348 
L 248.303699 102.009085 
L 248.433578 96.359438 
L 248.693337 74.277334 
L 248.73663 75.038474 
L 248.779923 73.072197 
L 248.823216 65.682802 
L 248.866509 67.970751 
L 249.082974 98.262286 
L 249.126267 97.347107 
L 249.212853 98.638325 
L 249.386025 89.006288 
L 249.559197 71.48649 
L 249.602491 75.496063 
L 249.645784 71.155757 
L 249.689077 61.247353 
L 249.73237 64.722317 
L 250.035421 101.633046 
L 250.078714 101.374803 
L 250.295179 86.931277 
L 250.554938 63.480934 
L 250.72811 81.67579 
L 250.857989 106.902124 
L 250.944575 104.867889 
L 251.420798 65.315824 
L 251.810436 103.812261 
L 251.853729 102.666021 
L 252.286659 61.129557 
L 252.329952 66.792797 
L 252.633004 106.045843 
L 252.676297 103.168917 
L 253.15252 66.081494 
L 253.498865 104.904133 
L 253.585451 102.018147 
L 253.845209 75.681818 
L 253.888502 79.664208 
L 253.931795 76.442957 
L 253.975088 66.081494 
L 254.018381 66.711246 
L 254.321432 102.629777 
L 254.408019 106.054904 
L 254.451312 105.909925 
L 254.840949 67.807649 
L 254.884242 67.884669 
L 255.230586 103.943648 
L 255.317172 100.686153 
L 255.447052 88.648371 
L 255.576931 73.643051 
L 255.620224 78.871354 
L 255.663517 77.815726 
L 255.750103 70.281352 
L 255.793396 72.17514 
L 256.096447 107.414081 
L 256.183033 103.377324 
L 256.572671 66.670471 
L 256.615964 67.943567 
L 256.962308 104.636829 
L 257.005601 105.189561 
L 257.048894 103.708057 
L 257.26536 77.009281 
L 257.308653 82.196808 
L 257.351946 80.692652 
L 257.438532 65.791536 
L 257.481825 68.80438 
L 257.871462 108.610157 
L 257.914755 106.150046 
L 258.304393 68.016057 
L 258.390979 78.372989 
L 258.737323 112.144019 
L 258.867202 103.03753 
L 259.170253 77.507646 
L 259.603184 115.773023 
L 259.646477 113.965317 
L 260.036114 74.730393 
L 260.079407 78.345805 
L 260.425752 104.840705 
L 260.469045 104.600584 
L 260.598924 93.609369 
L 260.858682 66.389574 
L 261.118441 86.106709 
L 261.291613 101.741781 
L 261.334906 103.087366 
L 261.421492 96.291479 
L 261.724543 63.014283 
L 261.767836 63.648566 
L 261.811129 63.698403 
L 261.984301 82.967009 
L 262.114181 102.403247 
L 262.157474 102.389655 
L 262.200767 102.049861 
L 262.330646 93.799653 
L 262.590404 58.882384 
L 262.633697 60.925681 
L 262.806869 83.764393 
L 263.023335 104.473727 
L 263.109921 99.471954 
L 263.2398 93.296758 
L 263.283093 93.595777 
L 263.67273 176.845398 
L 264.062368 271.154192 
L 264.148954 262.111132 
L 264.23554 232.875224 
L 264.495298 129.772551 
L 264.581884 116.534162 
L 264.66847 119.093946 
L 264.798349 115.265596 
L 265.23128 57.428064 
L 265.404452 72.773178 
L 265.620917 88.344821 
L 265.707503 92.553741 
L 265.967262 67.694385 
L 266.010555 67.726099 
L 266.140434 73.004238 
L 266.486778 105.864619 
L 266.530071 105.583722 
L 266.963002 69.968742 
L 267.092881 81.539873 
L 267.352639 104.49185 
L 267.65569 86.410259 
L 267.742276 71.522735 
L 267.785569 73.280604 
L 268.2185 107.509224 
L 268.305086 105.48858 
L 268.65143 74.150478 
L 268.738016 76.741976 
L 269.084361 116.248735 
L 269.127654 112.837199 
L 269.517291 76.325162 
L 269.560584 78.277847 
L 269.77705 103.359202 
L 269.950222 118.033788 
L 270.20998 102.697735 
L 270.296566 85.132632 
L 270.339859 86.206382 
L 270.426445 87.692416 
L 270.469738 88.530575 
L 270.599617 102.566348 
L 270.77279 122.174749 
L 270.816083 120.965081 
L 271.075841 106.766207 
L 271.162427 91.828846 
L 271.20572 92.576394 
L 271.249013 92.417823 
L 271.335599 96.277887 
L 271.63865 132.128458 
L 271.725237 129.138268 
L 271.941702 117.413097 
L 272.071581 101.873168 
L 272.114874 100.196849 
L 272.158167 101.456353 
L 272.547804 144.519626 
L 272.591097 143.70412 
L 272.894149 115.759431 
L 272.980735 116.271388 
L 273.153907 129.410103 
L 273.456958 157.196222 
L 273.500251 156.439613 
L 273.673424 141.040132 
L 273.846596 126.066527 
L 273.889889 126.179792 
L 274.063061 145.08142 
L 274.279526 162.931951 
L 274.366112 158.211074 
L 274.495991 151.519391 
L 274.582578 127.561622 
L 274.625871 129.885816 
L 274.75575 122.419401 
L 274.799043 124.113842 
L 274.972215 147.949284 
L 275.015508 158.029851 
L 275.102094 152.638447 
L 275.361852 135.567177 
L 275.535025 104.432952 
L 275.621611 101.687413 
L 276.011248 128.014681 
L 276.054541 125.432244 
L 276.444178 81.317874 
L 276.660644 95.027444 
L 276.877109 110.585495 
L 277.093574 98.303062 
L 277.266746 72.94534 
L 277.483212 82.260237 
L 277.74297 108.437995 
L 277.786263 108.003058 
L 278.1759 67.04651 
L 278.219193 69.184949 
L 278.565538 100.82207 
L 278.652124 97.804696 
L 278.695417 93.795123 
L 278.73871 97.895308 
L 278.782003 102.063453 
L 278.955175 72.324649 
L 279.085054 67.386304 
L 279.258226 84.394145 
L 279.431399 102.208431 
L 279.474692 101.401986 
L 279.647864 93.500634 
L 279.821036 69.832824 
L 279.907622 66.951368 
L 279.950915 68.165566 
L 280.124087 87.175929 
L 280.29726 100.088115 
L 280.340553 100.0564 
L 280.383846 100.790356 
L 280.513725 96.250704 
L 280.686897 72.338241 
L 280.773483 65.673741 
L 280.816776 67.794058 
L 281.206413 103.304835 
L 281.379586 96.228051 
L 281.552758 70.625677 
L 281.596051 67.929975 
L 281.639344 68.410218 
L 281.855809 89.803672 
L 282.028981 106.521555 
L 282.072274 106.077557 
L 282.461912 65.750761 
L 282.505205 69.026379 
L 282.851549 106.630289 
L 282.894842 107.808243 
L 282.938135 107.192082 
L 283.111307 97.800166 
L 283.197894 75.355615 
L 283.241187 76.38859 
L 283.28448 77.76589 
L 283.371066 72.007508 
L 283.414359 74.358885 
L 283.760703 106.498902 
L 283.847289 103.943648 
L 283.890582 105.651681 
L 283.933875 106.467188 
L 284.107047 79.016333 
L 284.28022 70.784248 
L 284.453392 93.106473 
L 284.626564 108.220527 
L 284.799736 99.847993 
L 285.016201 67.499569 
L 285.059494 66.20382 
L 285.102788 66.625165 
L 285.146081 67.019326 
L 285.535718 106.172699 
L 285.579011 105.556539 
L 285.622304 107.55906 
L 285.968648 70.453515 
L 286.098528 80.076491 
L 286.444872 112.393201 
L 286.488165 115.002822 
L 286.791216 78.146459 
L 286.877802 82.799377 
L 287.26744 118.867417 
L 287.354026 119.57872 
L 287.397319 114.889557 
L 287.570491 86.985644 
L 287.70037 79.954166 
L 287.786956 88.621187 
L 288.003422 113.675359 
L 288.090008 109.47097 
L 288.133301 104.763685 
L 288.176594 106.145516 
L 288.219887 109.017911 
L 288.393059 81.847953 
L 288.479645 76.809935 
L 288.566231 69.556458 
L 288.609524 72.496812 
L 288.782696 91.412032 
L 288.999162 105.982414 
L 289.042455 108.460648 
L 289.129041 90.904605 
L 289.388799 68.256178 
L 289.432092 68.772665 
L 289.908316 106.077557 
L 289.951609 103.168917 
L 290.168074 72.166079 
L 290.25466 67.141652 
L 290.297953 67.721568 
L 290.384539 73.656643 
L 290.774176 105.293764 
L 290.947349 82.445991 
L 291.077228 71.867059 
L 291.120521 72.428853 
L 291.207107 88.394658 
L 291.769916 232.277186 
L 292.029675 258.214823 
L 292.376019 172.332928 
L 292.635777 119.12113 
L 292.765657 94.275366 
L 292.852243 77.543891 
L 292.895536 78.237071 
L 293.198587 102.616185 
L 293.24188 99.911422 
L 293.285173 98.099185 
L 293.328466 101.098437 
L 293.371759 100.097176 
L 293.544931 76.261733 
L 293.718104 66.534553 
L 293.80469 74.734924 
L 294.151034 107.400489 
L 294.194327 112.361487 
L 294.23762 108.732483 
L 294.410792 82.319134 
L 294.583964 72.981585 
L 294.627257 73.040483 
L 294.757137 84.847204 
L 294.973602 104.278912 
L 295.060188 113.929072 
L 295.103481 110.105253 
L 295.319946 79.99041 
L 295.449825 75.577614 
L 295.493118 76.243611 
L 295.579704 83.909372 
L 295.926049 115.632574 
L 296.315686 71.232777 
L 296.358979 74.775699 
L 296.662031 112.157611 
L 296.748617 109.507215 
L 296.79191 114.024214 
L 296.835203 109.312399 
L 296.921789 97.931553 
L 296.965082 99.789096 
L 297.138254 81.811708 
L 297.22484 83.469905 
L 297.657771 127.072318 
L 297.830943 99.816279 
L 298.047408 83.986392 
L 298.090701 84.548185 
L 298.480338 129.237941 
L 298.523632 128.503985 
L 298.740097 99.163874 
L 298.913269 90.723382 
L 298.999855 97.886247 
L 299.389492 138.049942 
L 299.605958 109.280685 
L 299.77913 100.613663 
L 299.865716 108.995258 
L 300.21206 149.226911 
L 300.255353 148.642465 
L 300.428526 131.231401 
L 300.601698 115.691472 
L 300.644991 115.791145 
L 300.818163 130.45667 
L 301.077921 166.284589 
L 301.121214 165.872305 
L 301.337679 133.868206 
L 301.380972 130.139529 
L 301.424266 132.613232 
L 301.467559 133.125189 
L 301.554145 129.804265 
L 301.943782 174.18594 
L 302.116954 151.623594 
L 302.376713 131.761481 
L 302.463299 136.840274 
L 302.723057 160.689308 
L 302.76635 166.058059 
L 302.809643 164.6128 
L 303.026108 133.175025 
L 303.285866 111.015902 
L 303.415746 122.432992 
L 303.632211 140.482869 
L 303.675504 138.167737 
L 303.891969 109.951213 
L 304.108434 89.536367 
L 304.151727 88.050333 
L 304.3249 102.054391 
L 304.541365 123.56564 
L 304.844416 83.04856 
L 304.931002 75.804144 
L 304.974295 75.899286 
L 305.147467 87.203112 
L 305.363933 117.295302 
L 305.407226 116.398244 
L 305.623691 85.685364 
L 305.840156 70.847676 
L 305.883449 71.993916 
L 306.186501 110.331782 
L 306.229794 117.639626 
L 306.273087 106.603105 
L 306.706017 73.602276 
L 306.74931 73.615868 
L 306.879189 88.072986 
L 307.095654 111.786102 
L 307.138947 105.629028 
L 307.225534 103.177978 
L 307.355413 84.403206 
L 307.528585 69.130582 
L 307.961515 111.867653 
L 308.004808 102.181248 
L 308.437739 71.359633 
L 308.610911 88.245148 
L 308.827376 113.593808 
L 309.043841 88.906615 
L 309.260307 72.755055 
L 309.476772 85.843935 
L 309.649944 113.765971 
L 309.693237 112.574425 
L 309.909702 91.901336 
L 310.169461 69.357112 
L 310.342633 89.876161 
L 310.515805 117.866156 
L 310.688977 102.765694 
L 310.992029 75.419043 
L 311.078615 75.668226 
L 311.381666 116.466203 
L 311.424959 107.613427 
L 311.554838 103.381855 
L 311.857889 70.562249 
L 311.901182 70.942819 
L 311.987769 80.438939 
L 312.247527 113.494135 
L 312.420699 102.539165 
L 312.767043 73.199053 
L 312.810336 76.646834 
L 313.113388 115.922532 
L 313.156681 109.4755 
L 313.28656 103.128142 
L 313.589611 75.101902 
L 313.632904 75.92647 
L 313.762783 90.931789 
L 313.935956 119.651209 
L 314.022542 111.681899 
L 314.065835 111.799694 
L 314.109128 113.07279 
L 314.498765 85.676303 
L 314.542058 89.196572 
L 314.71523 106.961022 
L 314.84511 128.839249 
L 314.888403 121.277692 
L 315.364626 83.909372 
L 315.407919 87.203112 
L 315.667677 124.290535 
L 315.84085 107.260041 
L 316.100608 78.060378 
L 316.187194 70.689106 
L 316.230487 72.265752 
L 316.446952 96.653926 
L 316.533538 112.465691 
L 316.576831 105.819313 
L 316.620124 105.656212 
L 316.663417 106.032251 
L 317.096348 73.217176 
L 317.139641 76.737445 
L 317.399399 106.390168 
L 317.529278 106.25425 
L 317.962209 71.880651 
L 318.048795 76.211897 
L 318.178674 95.543931 
L 318.26526 111.323982 
L 318.308553 105.307356 
L 318.438432 101.918474 
L 318.568311 88.005027 
L 318.698191 77.253933 
L 318.741484 77.620911 
L 318.82807 88.426372 
L 319.044535 153.780156 
L 319.261 217.851782 
L 319.607344 266.152419 
L 319.650638 267.738126 
L 319.910396 219.365 
L 320.516498 86.582421 
L 320.603085 88.94739 
L 320.689671 92.889005 
L 320.81955 110.209456 
L 320.862843 101.420109 
L 320.906136 101.116559 
L 320.949429 102.679613 
L 320.992722 102.208431 
L 321.165894 88.757105 
L 321.382359 69.710498 
L 321.555532 90.243139 
L 321.685411 118.468725 
L 321.771997 113.163402 
L 321.81529 113.707073 
L 322.24822 77.149729 
L 322.291513 77.543891 
L 322.551272 116.144531 
L 322.637858 108.206935 
L 322.681151 109.149298 
L 322.724444 108.424403 
L 322.897616 92.997739 
L 323.070788 79.125067 
L 323.200667 85.168876 
L 323.373839 110.834678 
L 323.417132 116.837712 
L 323.460426 111.61847 
L 323.547012 115.338086 
L 323.590305 112.99124 
L 323.893356 85.81222 
L 323.979942 82.414277 
L 324.023235 84.262758 
L 324.369579 118.908192 
L 324.412873 120.661531 
L 324.456166 118.464194 
L 324.845803 85.060142 
L 324.889096 86.840665 
L 325.018975 99.299792 
L 325.105561 120.598103 
L 325.192147 117.857095 
L 325.322026 125.85812 
L 325.365319 123.624538 
L 325.711664 87.470417 
L 325.79825 96.717354 
L 326.144594 127.353215 
L 326.187887 126.524117 
L 326.577525 98.334776 
L 326.620818 99.358689 
L 326.750697 113.385401 
L 326.837283 132.567926 
L 326.880576 128.15513 
L 327.010455 132.966618 
L 327.053748 132.74915 
L 327.400093 110.970596 
L 327.443386 111.355696 
L 327.529972 115.324494 
L 327.616558 123.941679 
L 327.78973 144.16171 
L 327.876316 149.702623 
L 327.919609 149.036626 
L 328.265954 116.176245 
L 328.309247 116.774283 
L 328.698884 164.562964 
L 328.742177 164.354557 
L 328.828763 157.658342 
L 329.175107 133.859144 
L 329.261694 141.153397 
L 329.564745 169.673471 
L 329.608038 169.5149 
L 329.694624 165.201777 
L 329.824503 150.078662 
L 330.040968 134.67012 
L 330.084261 134.846813 
L 330.430606 165.30145 
L 330.473899 165.641245 
L 330.690364 133.868206 
L 330.863536 111.401002 
L 330.906829 111.835939 
L 331.036708 120.140513 
L 331.123294 138.869979 
L 331.166588 134.026776 
L 331.209881 132.540742 
L 331.253174 133.940695 
L 331.296467 137.157415 
L 331.33976 136.772315 
L 331.642811 98.887508 
L 331.729397 87.601804 
L 331.815983 89.56355 
L 331.902569 97.193067 
L 331.989155 119.293292 
L 332.032448 114.595069 
L 332.119035 117.725708 
L 332.162328 116.887548 
L 332.248914 113.281197 
L 332.638551 79.922451 
L 332.681844 80.230532 
L 333.028188 108.800442 
L 333.071482 108.030242 
L 333.201361 98.407265 
L 333.461119 74.041743 
L 333.504412 74.200314 
L 333.634291 91.103951 
L 333.677584 102.208431 
L 333.76417 96.68564 
L 333.894049 109.176481 
L 333.937342 108.025711 
L 334.283687 71.169348 
L 334.370273 73.575093 
L 334.456859 79.967757 
L 334.716617 109.946682 
L 334.75991 110.69876 
L 334.976376 94.864342 
L 335.192841 75.138147 
L 335.236134 75.210636 
L 335.32272 81.168364 
L 335.539185 105.506702 
L 335.625771 108.931829 
L 335.669064 108.274894 
L 335.798943 97.206658 
L 336.101995 68.247117 
L 336.145288 71.201063 
L 336.361753 101.315905 
L 336.448339 109.212726 
L 336.491632 109.199134 
L 336.664804 98.257756 
L 336.88127 79.936043 
L 336.967856 73.063136 
L 337.011149 75.831327 
L 337.3142 106.426412 
L 337.357493 107.09694 
L 337.400786 106.313147 
L 337.617251 87.87364 
L 337.790423 73.244359 
L 337.87701 75.428105 
L 338.180061 114.024214 
L 338.223354 116.651958 
L 338.266647 115.478534 
L 338.656284 73.661174 
L 338.699577 76.325162 
L 339.045922 109.810764 
L 339.132508 106.915716 
L 339.565438 74.204845 
L 339.608731 77.602788 
L 339.781904 96.699232 
L 339.955076 112.927811 
L 340.084955 103.970832 
L 340.344713 72.125303 
L 340.388006 73.430114 
L 340.734351 107.916977 
L 340.86423 111.749857 
L 341.037402 94.411283 
L 341.167281 80.565795 
L 341.210574 80.783264 
L 341.29716 76.936792 
L 341.686798 120.357981 
L 341.773384 119.193619 
L 342.119728 85.259488 
L 342.163021 86.070464 
L 342.552658 121.504221 
L 342.595951 121.481568 
L 342.725831 108.881993 
L 342.942296 90.256731 
L 343.028882 84.743001 
L 343.245347 102.457614 
L 343.418519 112.2301 
L 343.505105 106.25878 
L 343.85145 67.848425 
L 343.894743 70.825023 
L 343.981329 87.18952 
L 344.067915 86.818012 
L 344.241087 105.058174 
L 344.28438 106.621228 
L 344.327673 106.145516 
L 344.674018 66.330677 
L 344.760604 70.770656 
L 344.84719 89.305307 
L 344.890483 83.918433 
L 345.150241 107.885263 
L 345.236827 103.504181 
L 345.366706 91.384848 
L 345.539879 66.955898 
L 345.583172 68.283362 
L 345.972809 105.058174 
L 346.059395 103.848506 
L 346.232567 91.126604 
L 346.27586 91.24893 
L 346.449032 117.503709 
L 346.708791 205.533104 
L 346.968549 278.756525 
L 347.055135 286.503837 
L 347.098428 285.597719 
L 347.574652 143.636161 
L 347.661238 147.487164 
L 347.747824 145.294358 
L 347.877703 118.450602 
L 348.180754 73.407461 
L 348.26734 82.396154 
L 348.310633 75.269534 
L 348.353926 78.626702 
L 348.613685 104.446544 
L 348.656978 104.097688 
L 348.916736 82.581909 
L 349.046615 77.987889 
L 349.306373 103.096427 
L 349.479546 111.133697 
L 349.566132 106.304086 
L 349.696011 90.320159 
L 349.869183 77.53483 
L 349.912476 77.494054 
L 349.999062 87.846456 
L 350.042355 82.776724 
L 350.128941 90.637301 
L 350.302113 109.389419 
L 350.518579 101.977371 
L 350.778337 77.901808 
L 351.124681 114.744578 
L 351.211267 118.033788 
L 351.38444 102.090636 
L 351.600905 81.304282 
L 352.033835 119.81431 
L 352.077128 119.293292 
L 352.250301 104.555278 
L 352.466766 86.165607 
L 352.81311 123.900904 
L 352.899696 120.416879 
L 352.942989 119.868678 
L 352.986282 121.155366 
L 353.029575 119.34766 
L 353.332627 90.111752 
L 353.419213 102.865367 
L 353.462506 97.238372 
L 353.505799 99.077793 
L 353.722264 125.201184 
L 353.80885 127.017951 
L 353.852143 126.274934 
L 354.198488 99.893299 
L 354.544832 132.98474 
L 354.631418 138.57096 
L 354.674711 138.561899 
L 354.761297 134.090205 
L 355.064348 109.113053 
L 355.107642 114.885027 
L 355.194228 111.845 
L 355.280814 125.40053 
L 355.497279 154.495989 
L 355.540572 155.692065 
L 355.583865 154.169787 
L 355.670451 147.020513 
L 355.886916 125.201184 
L 355.930209 124.199923 
L 356.319847 168.074172 
L 356.36314 168.608782 
L 356.579605 155.583331 
L 356.752777 137.519862 
L 356.79607 138.548307 
L 356.882656 137.234435 
L 357.099122 165.170063 
L 357.272294 172.776926 
L 357.315587 169.945307 
L 357.618638 135.979461 
L 357.661931 138.928876 
L 357.705224 138.530184 
L 357.748517 131.118137 
L 357.79181 133.179556 
L 358.094862 158.587113 
L 358.138155 157.381976 
L 358.614378 103.264059 
L 358.960723 132.123928 
L 359.35036 84.724878 
L 359.436946 91.883213 
L 359.480239 85.087326 
L 359.523532 88.630248 
L 359.739997 108.564852 
L 359.826583 111.704551 
L 359.869876 110.223048 
L 359.999756 102.589001 
L 360.216221 75.129085 
L 360.259514 80.049308 
L 360.302807 79.233801 
L 360.3461 74.762108 
L 360.389393 77.711523 
L 360.605858 107.86714 
L 360.692444 107.445795 
L 360.77903 99.811749 
L 361.038789 73.208115 
L 361.082082 73.742724 
L 361.125375 75.795082 
L 361.168668 69.062623 
L 361.211961 71.685836 
L 361.515012 107.015389 
L 361.731477 93.763409 
L 361.90465 76.184713 
L 361.947943 79.560004 
L 362.034529 68.419279 
L 362.077822 70.557719 
L 362.380873 104.156586 
L 362.424166 104.582461 
L 362.467459 104.152055 
L 362.640631 86.899562 
L 362.77051 74.1686 
L 362.857097 80.14445 
L 362.90039 72.981585 
L 362.943683 75.043004 
L 363.33332 108.641872 
L 363.636371 72.238568 
L 363.679664 76.121285 
L 363.722957 74.965984 
L 363.766251 67.023857 
L 363.809544 69.257439 
L 364.112595 108.193343 
L 364.155888 107.047103 
L 364.242474 99.970319 
L 364.502232 77.507646 
L 364.545525 80.90559 
L 364.588818 77.489524 
L 364.632111 69.03544 
L 364.675404 71.096859 
L 365.021749 102.448553 
L 365.108335 95.702502 
L 365.151628 97.487555 
L 365.194921 100.600071 
L 365.454679 71.432123 
L 365.497972 72.569301 
L 365.801024 106.920247 
L 365.88761 106.109271 
L 365.930903 105.443274 
L 366.32054 69.366173 
L 366.407126 76.565283 
L 366.753471 106.41282 
L 366.796764 106.213474 
L 366.926643 98.538652 
L 367.186401 66.770144 
L 367.229694 68.020587 
L 367.532745 105.33454 
L 367.662625 105.266581 
L 367.705918 106.122863 
L 367.749211 104.963031 
L 368.052262 69.792049 
L 368.095555 73.013299 
L 368.441899 107.264572 
L 368.485192 106.779798 
L 368.615072 94.837159 
L 368.788244 80.90559 
L 368.831537 86.333238 
L 368.87483 81.331465 
L 368.961416 67.621895 
L 369.004709 73.47995 
L 369.351053 111.23337 
L 369.394346 110.92982 
L 369.654105 85.563038 
L 369.697398 89.812733 
L 369.783984 74.449497 
L 369.827277 79.002741 
L 370.173621 113.403523 
L 370.216914 113.978908 
L 370.260207 113.389932 
L 370.433379 99.988442 
L 370.649845 80.203348 
L 370.693138 81.553464 
L 370.86631 103.472467 
L 370.996189 118.35546 
L 371.082775 115.705064 
L 371.255947 101.551496 
L 371.515706 77.84291 
L 371.558999 78.087562 
L 371.905343 103.463405 
L 371.991929 101.66023 
L 372.338273 64.536562 
L 372.42486 71.581632 
L 372.771204 101.96378 
L 372.814497 100.672561 
L 372.901083 95.824828 
L 373.030962 85.526793 
L 373.247427 64.305502 
L 373.593772 100.486807 
L 373.680358 97.705023 
L 373.810237 90.206894 
L 373.940116 73.720071 
L 373.983409 75.672756 
L 374.026702 73.312318 
L 374.069995 64.7495 
L 374.113288 66.240065 
L 375.238907 284.542091 
L 375.282201 272.984551 
L 375.888303 89.993957 
L 376.018182 80.167103 
L 376.061475 85.685364 
L 376.234648 98.878447 
L 376.277941 101.397456 
L 376.580992 68.899522 
L 376.667578 53.568 
L 376.710871 55.833296 
L 377.143801 104.750093 
L 377.187095 104.437483 
L 377.446853 88.381066 
L 377.533439 73.729133 
L 377.576732 74.5537 
L 377.620025 74.730393 
L 377.706611 79.369719 
L 377.923076 107.083348 
L 377.966369 107.414081 
L 378.052955 106.168169 
L 378.3993 72.537587 
L 378.442593 74.377007 
L 378.572472 88.539637 
L 378.745644 112.832669 
L 378.788937 112.343365 
L 379.091989 92.232069 
L 379.135282 94.343324 
L 379.265161 76.963975 
L 379.741384 116.778814 
L 379.784677 115.573677 
L 380.087729 78.114745 
L 380.174315 79.877145 
L 380.347487 99.616933 
L 380.477366 120.65247 
L 380.520659 120.330798 
L 380.563952 120.163166 
L 380.650538 115.111556 
L 380.953589 85.109979 
L 380.996882 85.73067 
L 381.083469 88.557759 
L 381.38652 123.991516 
L 381.429813 123.098989 
L 381.732864 105.982414 
L 381.81945 91.611378 
L 381.862743 91.987417 
L 381.949329 96.110255 
L 382.209088 129.215288 
L 382.252381 128.15966 
L 382.338967 127.208236 
L 382.771897 100.880968 
L 382.81519 105.579192 
L 383.161535 144.560402 
L 383.204828 144.886604 
L 383.248121 143.722242 
L 383.507879 115.147801 
L 383.594465 116.493387 
L 383.681051 118.899131 
L 383.854223 139.508792 
L 384.027396 160.385758 
L 384.287154 143.291836 
L 384.37374 124.594085 
L 384.417033 127.502724 
L 384.633498 142.571472 
L 384.849964 168.450211 
L 384.893257 168.767353 
L 384.979843 166.107895 
L 385.153015 151.705145 
L 385.326187 131.308421 
L 385.542652 152.448162 
L 385.715824 165.052268 
L 386.018876 145.670397 
L 386.192048 119.152844 
L 386.408513 127.575214 
L 386.538392 145.665866 
L 386.581685 144.184363 
L 386.841444 126.904686 
L 386.971323 97.020904 
L 387.057909 97.129638 
L 387.101202 93.120065 
L 387.144495 93.808715 
L 387.447546 122.972133 
L 387.490839 122.179279 
L 387.577425 114.386662 
L 387.837184 85.966261 
L 387.967063 79.949635 
L 388.010356 81.639546 
L 388.270114 110.92529 
L 388.3567 110.866392 
L 388.486579 97.283678 
L 388.573165 99.526321 
L 388.746338 71.79457 
L 388.789631 68.559728 
L 388.832924 70.793309 
L 389.179268 111.206186 
L 389.222561 110.988718 
L 389.698785 70.113721 
L 390.045129 105.080827 
L 390.131715 101.977371 
L 390.521352 70.154496 
L 390.564645 70.888452 
L 390.694525 82.912642 
L 390.91099 107.762937 
L 391.257334 75.749777 
L 391.34392 70.03217 
L 391.387213 70.063884 
L 391.430506 70.80237 
L 391.603679 93.38737 
L 391.776851 106.662003 
L 391.863437 104.301565 
L 392.209781 70.698167 
L 392.253074 70.249638 
L 392.296367 71.350572 
L 392.642712 104.808991 
L 392.686005 105.325479 
L 392.729298 104.5734 
L 393.118935 69.289153 
L 393.162228 72.537587 
L 393.508573 110.322721 
L 393.551866 108.197874 
L 393.768331 86.514462 
L 393.941503 69.2665 
L 393.984796 68.867808 
L 394.114675 79.868084 
L 394.374433 103.395446 
L 394.417726 105.085357 
L 394.46102 103.200631 
L 394.547606 103.372794 
L 394.590899 97.492086 
L 394.764071 77.815726 
L 394.850657 72.379016 
L 394.89395 73.348563 
L 395.240294 107.09694 
L 395.283587 104.904133 
L 395.45676 99.51726 
L 395.629932 75.133616 
L 395.716518 72.288405 
L 395.803104 81.635015 
L 396.149448 110.218517 
L 396.192741 109.076808 
L 396.32262 96.404744 
L 396.495793 73.778969 
L 396.582379 68.111199 
L 396.625672 70.521474 
L 396.972016 112.465691 
L 397.058602 107.196613 
L 397.44824 70.439923 
L 397.837877 104.682135 
L 397.88117 103.73071 
L 397.924463 103.091897 
L 398.011049 103.309365 
L 398.184221 76.193774 
L 398.270808 69.461315 
L 398.314101 70.960941 
L 398.487273 83.787046 
L 398.487273 83.787046 
" style="fill:none;stroke:#1f77b4;stroke-linecap:square;stroke-width:1.5;"/>
   </g>
   <g id="patch_3">
    <path d="M 57.6 307.584 
L 57.6 41.472 
" style="fill:none;stroke:#000000;stroke-linecap:square;stroke-linejoin:miter;stroke-width:0.8;"/>
   </g>
   <g id="patch_4">
    <path d="M 414.72 307.584 
L 414.72 41.472 
" style="fill:none;stroke:#000000;stroke-linecap:square;stroke-linejoin:miter;stroke-width:0.8;"/>
   </g>
   <g id="patch_5">
    <path d="M 57.6 307.584 
L 414.72 307.584 
" style="fill:none;stroke:#000000;stroke-linecap:square;stroke-linejoin:miter;stroke-width:0.8;"/>
   </g>
   <g id="patch_6">
    <path d="M 57.6 41.472 
L 414.72 41.472 
" style="fill:none;stroke:#000000;stroke-linecap:square;stroke-linejoin:miter;stroke-width:0.8;"/>
   </g>
  </g>
 </g>
 <defs>
  <clipPath id="p1e22b1df6c">
   <rect height="266.112" width="357.12" x="57.6" y="41.472"/>
  </clipPath>
 </defs>
</svg>
