<?xml version="1.0" encoding="utf-8" standalone="no"?>
<!DOCTYPE svg PUBLIC "-//W3C//DTD SVG 1.1//EN"
  "http://www.w3.org/Graphics/SVG/1.1/DTD/svg11.dtd">
<!-- Created with matplotlib (http://matplotlib.org/) -->
<svg height="345.6pt" version="1.1" viewBox="0 0 460.8 345.6" width="460.8pt" xmlns="http://www.w3.org/2000/svg" xmlns:xlink="http://www.w3.org/1999/xlink">
 <defs>
  <style type="text/css">
*{stroke-linecap:butt;stroke-linejoin:round;}
  </style>
 </defs>
 <g id="figure_1">
  <g id="patch_1">
   <path d="M 0 345.6 
L 460.8 345.6 
L 460.8 0 
L 0 0 
z
" style="fill:#ffffff;"/>
  </g>
  <g id="axes_1">
   <g id="patch_2">
    <path d="M 57.6 307.584 
L 414.72 307.584 
L 414.72 41.472 
L 57.6 41.472 
z
" style="fill:#ffffff;"/>
   </g>
   <g id="matplotlib.axis_1">
    <g id="xtick_1">
     <g id="line2d_1">
      <defs>
       <path d="M 0 0 
L 0 3.5 
" id="mb481be8601" style="stroke:#000000;stroke-width:0.8;"/>
      </defs>
      <g>
       <use style="stroke:#000000;stroke-width:0.8;" x="73.832727" xlink:href="#mb481be8601" y="307.584"/>
      </g>
     </g>
     <g id="text_1">
      <!-- 0 -->
      <defs>
       <path d="M 31.78125 66.40625 
Q 24.171875 66.40625 20.328125 58.90625 
Q 16.5 51.421875 16.5 36.375 
Q 16.5 21.390625 20.328125 13.890625 
Q 24.171875 6.390625 31.78125 6.390625 
Q 39.453125 6.390625 43.28125 13.890625 
Q 47.125 21.390625 47.125 36.375 
Q 47.125 51.421875 43.28125 58.90625 
Q 39.453125 66.40625 31.78125 66.40625 
z
M 31.78125 74.21875 
Q 44.046875 74.21875 50.515625 64.515625 
Q 56.984375 54.828125 56.984375 36.375 
Q 56.984375 17.96875 50.515625 8.265625 
Q 44.046875 -1.421875 31.78125 -1.421875 
Q 19.53125 -1.421875 13.0625 8.265625 
Q 6.59375 17.96875 6.59375 36.375 
Q 6.59375 54.828125 13.0625 64.515625 
Q 19.53125 74.21875 31.78125 74.21875 
z
" id="DejaVuSans-30"/>
      </defs>
      <g transform="translate(70.651477 322.182437)scale(0.1 -0.1)">
       <use xlink:href="#DejaVuSans-30"/>
      </g>
     </g>
    </g>
    <g id="xtick_2">
     <g id="line2d_2">
      <g>
       <use style="stroke:#000000;stroke-width:0.8;" x="117.125772" xlink:href="#mb481be8601" y="307.584"/>
      </g>
     </g>
     <g id="text_2">
      <!-- 2 -->
      <defs>
       <path d="M 19.1875 8.296875 
L 53.609375 8.296875 
L 53.609375 0 
L 7.328125 0 
L 7.328125 8.296875 
Q 12.9375 14.109375 22.625 23.890625 
Q 32.328125 33.6875 34.8125 36.53125 
Q 39.546875 41.84375 41.421875 45.53125 
Q 43.3125 49.21875 43.3125 52.78125 
Q 43.3125 58.59375 39.234375 62.25 
Q 35.15625 65.921875 28.609375 65.921875 
Q 23.96875 65.921875 18.8125 64.3125 
Q 13.671875 62.703125 7.8125 59.421875 
L 7.8125 69.390625 
Q 13.765625 71.78125 18.9375 73 
Q 24.125 74.21875 28.421875 74.21875 
Q 39.75 74.21875 46.484375 68.546875 
Q 53.21875 62.890625 53.21875 53.421875 
Q 53.21875 48.921875 51.53125 44.890625 
Q 49.859375 40.875 45.40625 35.40625 
Q 44.1875 33.984375 37.640625 27.21875 
Q 31.109375 20.453125 19.1875 8.296875 
z
" id="DejaVuSans-32"/>
      </defs>
      <g transform="translate(113.944522 322.182437)scale(0.1 -0.1)">
       <use xlink:href="#DejaVuSans-32"/>
      </g>
     </g>
    </g>
    <g id="xtick_3">
     <g id="line2d_3">
      <g>
       <use style="stroke:#000000;stroke-width:0.8;" x="160.418818" xlink:href="#mb481be8601" y="307.584"/>
      </g>
     </g>
     <g id="text_3">
      <!-- 4 -->
      <defs>
       <path d="M 37.796875 64.3125 
L 12.890625 25.390625 
L 37.796875 25.390625 
z
M 35.203125 72.90625 
L 47.609375 72.90625 
L 47.609375 25.390625 
L 58.015625 25.390625 
L 58.015625 17.1875 
L 47.609375 17.1875 
L 47.609375 0 
L 37.796875 0 
L 37.796875 17.1875 
L 4.890625 17.1875 
L 4.890625 26.703125 
z
" id="DejaVuSans-34"/>
      </defs>
      <g transform="translate(157.237568 322.182437)scale(0.1 -0.1)">
       <use xlink:href="#DejaVuSans-34"/>
      </g>
     </g>
    </g>
    <g id="xtick_4">
     <g id="line2d_4">
      <g>
       <use style="stroke:#000000;stroke-width:0.8;" x="203.711863" xlink:href="#mb481be8601" y="307.584"/>
      </g>
     </g>
     <g id="text_4">
      <!-- 6 -->
      <defs>
       <path d="M 33.015625 40.375 
Q 26.375 40.375 22.484375 35.828125 
Q 18.609375 31.296875 18.609375 23.390625 
Q 18.609375 15.53125 22.484375 10.953125 
Q 26.375 6.390625 33.015625 6.390625 
Q 39.65625 6.390625 43.53125 10.953125 
Q 47.40625 15.53125 47.40625 23.390625 
Q 47.40625 31.296875 43.53125 35.828125 
Q 39.65625 40.375 33.015625 40.375 
z
M 52.59375 71.296875 
L 52.59375 62.3125 
Q 48.875 64.0625 45.09375 64.984375 
Q 41.3125 65.921875 37.59375 65.921875 
Q 27.828125 65.921875 22.671875 59.328125 
Q 17.53125 52.734375 16.796875 39.40625 
Q 19.671875 43.65625 24.015625 45.921875 
Q 28.375 48.1875 33.59375 48.1875 
Q 44.578125 48.1875 50.953125 41.515625 
Q 57.328125 34.859375 57.328125 23.390625 
Q 57.328125 12.15625 50.6875 5.359375 
Q 44.046875 -1.421875 33.015625 -1.421875 
Q 20.359375 -1.421875 13.671875 8.265625 
Q 6.984375 17.96875 6.984375 36.375 
Q 6.984375 53.65625 15.1875 63.9375 
Q 23.390625 74.21875 37.203125 74.21875 
Q 40.921875 74.21875 44.703125 73.484375 
Q 48.484375 72.75 52.59375 71.296875 
z
" id="DejaVuSans-36"/>
      </defs>
      <g transform="translate(200.530613 322.182437)scale(0.1 -0.1)">
       <use xlink:href="#DejaVuSans-36"/>
      </g>
     </g>
    </g>
    <g id="xtick_5">
     <g id="line2d_5">
      <g>
       <use style="stroke:#000000;stroke-width:0.8;" x="247.004908" xlink:href="#mb481be8601" y="307.584"/>
      </g>
     </g>
     <g id="text_5">
      <!-- 8 -->
      <defs>
       <path d="M 31.78125 34.625 
Q 24.75 34.625 20.71875 30.859375 
Q 16.703125 27.09375 16.703125 20.515625 
Q 16.703125 13.921875 20.71875 10.15625 
Q 24.75 6.390625 31.78125 6.390625 
Q 38.8125 6.390625 42.859375 10.171875 
Q 46.921875 13.96875 46.921875 20.515625 
Q 46.921875 27.09375 42.890625 30.859375 
Q 38.875 34.625 31.78125 34.625 
z
M 21.921875 38.8125 
Q 15.578125 40.375 12.03125 44.71875 
Q 8.5 49.078125 8.5 55.328125 
Q 8.5 64.0625 14.71875 69.140625 
Q 20.953125 74.21875 31.78125 74.21875 
Q 42.671875 74.21875 48.875 69.140625 
Q 55.078125 64.0625 55.078125 55.328125 
Q 55.078125 49.078125 51.53125 44.71875 
Q 48 40.375 41.703125 38.8125 
Q 48.828125 37.15625 52.796875 32.3125 
Q 56.78125 27.484375 56.78125 20.515625 
Q 56.78125 9.90625 50.3125 4.234375 
Q 43.84375 -1.421875 31.78125 -1.421875 
Q 19.734375 -1.421875 13.25 4.234375 
Q 6.78125 9.90625 6.78125 20.515625 
Q 6.78125 27.484375 10.78125 32.3125 
Q 14.796875 37.15625 21.921875 38.8125 
z
M 18.3125 54.390625 
Q 18.3125 48.734375 21.84375 45.5625 
Q 25.390625 42.390625 31.78125 42.390625 
Q 38.140625 42.390625 41.71875 45.5625 
Q 45.3125 48.734375 45.3125 54.390625 
Q 45.3125 60.0625 41.71875 63.234375 
Q 38.140625 66.40625 31.78125 66.40625 
Q 25.390625 66.40625 21.84375 63.234375 
Q 18.3125 60.0625 18.3125 54.390625 
z
" id="DejaVuSans-38"/>
      </defs>
      <g transform="translate(243.823658 322.182437)scale(0.1 -0.1)">
       <use xlink:href="#DejaVuSans-38"/>
      </g>
     </g>
    </g>
    <g id="xtick_6">
     <g id="line2d_6">
      <g>
       <use style="stroke:#000000;stroke-width:0.8;" x="290.297953" xlink:href="#mb481be8601" y="307.584"/>
      </g>
     </g>
     <g id="text_6">
      <!-- 10 -->
      <defs>
       <path d="M 12.40625 8.296875 
L 28.515625 8.296875 
L 28.515625 63.921875 
L 10.984375 60.40625 
L 10.984375 69.390625 
L 28.421875 72.90625 
L 38.28125 72.90625 
L 38.28125 8.296875 
L 54.390625 8.296875 
L 54.390625 0 
L 12.40625 0 
z
" id="DejaVuSans-31"/>
      </defs>
      <g transform="translate(283.935453 322.182437)scale(0.1 -0.1)">
       <use xlink:href="#DejaVuSans-31"/>
       <use x="63.623047" xlink:href="#DejaVuSans-30"/>
      </g>
     </g>
    </g>
    <g id="xtick_7">
     <g id="line2d_7">
      <g>
       <use style="stroke:#000000;stroke-width:0.8;" x="333.590998" xlink:href="#mb481be8601" y="307.584"/>
      </g>
     </g>
     <g id="text_7">
      <!-- 12 -->
      <g transform="translate(327.228498 322.182437)scale(0.1 -0.1)">
       <use xlink:href="#DejaVuSans-31"/>
       <use x="63.623047" xlink:href="#DejaVuSans-32"/>
      </g>
     </g>
    </g>
    <g id="xtick_8">
     <g id="line2d_8">
      <g>
       <use style="stroke:#000000;stroke-width:0.8;" x="376.884043" xlink:href="#mb481be8601" y="307.584"/>
      </g>
     </g>
     <g id="text_8">
      <!-- 14 -->
      <g transform="translate(370.521543 322.182437)scale(0.1 -0.1)">
       <use xlink:href="#DejaVuSans-31"/>
       <use x="63.623047" xlink:href="#DejaVuSans-34"/>
      </g>
     </g>
    </g>
   </g>
   <g id="matplotlib.axis_2">
    <g id="ytick_1">
     <g id="line2d_9">
      <defs>
       <path d="M 0 0 
L -3.5 0 
" id="m9f319f1bdd" style="stroke:#000000;stroke-width:0.8;"/>
      </defs>
      <g>
       <use style="stroke:#000000;stroke-width:0.8;" x="57.6" xlink:href="#m9f319f1bdd" y="279.432534"/>
      </g>
     </g>
     <g id="text_9">
      <!-- −40000 -->
      <defs>
       <path d="M 10.59375 35.5 
L 73.1875 35.5 
L 73.1875 27.203125 
L 10.59375 27.203125 
z
" id="DejaVuSans-2212"/>
      </defs>
      <g transform="translate(10.407812 283.231753)scale(0.1 -0.1)">
       <use xlink:href="#DejaVuSans-2212"/>
       <use x="83.789062" xlink:href="#DejaVuSans-34"/>
       <use x="147.412109" xlink:href="#DejaVuSans-30"/>
       <use x="211.035156" xlink:href="#DejaVuSans-30"/>
       <use x="274.658203" xlink:href="#DejaVuSans-30"/>
       <use x="338.28125" xlink:href="#DejaVuSans-30"/>
      </g>
     </g>
    </g>
    <g id="ytick_2">
     <g id="line2d_10">
      <g>
       <use style="stroke:#000000;stroke-width:0.8;" x="57.6" xlink:href="#m9f319f1bdd" y="234.323453"/>
      </g>
     </g>
     <g id="text_10">
      <!-- −30000 -->
      <defs>
       <path d="M 40.578125 39.3125 
Q 47.65625 37.796875 51.625 33 
Q 55.609375 28.21875 55.609375 21.1875 
Q 55.609375 10.40625 48.1875 4.484375 
Q 40.765625 -1.421875 27.09375 -1.421875 
Q 22.515625 -1.421875 17.65625 -0.515625 
Q 12.796875 0.390625 7.625 2.203125 
L 7.625 11.71875 
Q 11.71875 9.328125 16.59375 8.109375 
Q 21.484375 6.890625 26.8125 6.890625 
Q 36.078125 6.890625 40.9375 10.546875 
Q 45.796875 14.203125 45.796875 21.1875 
Q 45.796875 27.640625 41.28125 31.265625 
Q 36.765625 34.90625 28.71875 34.90625 
L 20.21875 34.90625 
L 20.21875 43.015625 
L 29.109375 43.015625 
Q 36.375 43.015625 40.234375 45.921875 
Q 44.09375 48.828125 44.09375 54.296875 
Q 44.09375 59.90625 40.109375 62.90625 
Q 36.140625 65.921875 28.71875 65.921875 
Q 24.65625 65.921875 20.015625 65.03125 
Q 15.375 64.15625 9.8125 62.3125 
L 9.8125 71.09375 
Q 15.4375 72.65625 20.34375 73.4375 
Q 25.25 74.21875 29.59375 74.21875 
Q 40.828125 74.21875 47.359375 69.109375 
Q 53.90625 64.015625 53.90625 55.328125 
Q 53.90625 49.265625 50.4375 45.09375 
Q 46.96875 40.921875 40.578125 39.3125 
z
" id="DejaVuSans-33"/>
      </defs>
      <g transform="translate(10.407812 238.122672)scale(0.1 -0.1)">
       <use xlink:href="#DejaVuSans-2212"/>
       <use x="83.789062" xlink:href="#DejaVuSans-33"/>
       <use x="147.412109" xlink:href="#DejaVuSans-30"/>
       <use x="211.035156" xlink:href="#DejaVuSans-30"/>
       <use x="274.658203" xlink:href="#DejaVuSans-30"/>
       <use x="338.28125" xlink:href="#DejaVuSans-30"/>
      </g>
     </g>
    </g>
    <g id="ytick_3">
     <g id="line2d_11">
      <g>
       <use style="stroke:#000000;stroke-width:0.8;" x="57.6" xlink:href="#m9f319f1bdd" y="189.214373"/>
      </g>
     </g>
     <g id="text_11">
      <!-- −20000 -->
      <g transform="translate(10.407812 193.013591)scale(0.1 -0.1)">
       <use xlink:href="#DejaVuSans-2212"/>
       <use x="83.789062" xlink:href="#DejaVuSans-32"/>
       <use x="147.412109" xlink:href="#DejaVuSans-30"/>
       <use x="211.035156" xlink:href="#DejaVuSans-30"/>
       <use x="274.658203" xlink:href="#DejaVuSans-30"/>
       <use x="338.28125" xlink:href="#DejaVuSans-30"/>
      </g>
     </g>
    </g>
    <g id="ytick_4">
     <g id="line2d_12">
      <g>
       <use style="stroke:#000000;stroke-width:0.8;" x="57.6" xlink:href="#m9f319f1bdd" y="144.105292"/>
      </g>
     </g>
     <g id="text_12">
      <!-- −10000 -->
      <g transform="translate(10.407812 147.904511)scale(0.1 -0.1)">
       <use xlink:href="#DejaVuSans-2212"/>
       <use x="83.789062" xlink:href="#DejaVuSans-31"/>
       <use x="147.412109" xlink:href="#DejaVuSans-30"/>
       <use x="211.035156" xlink:href="#DejaVuSans-30"/>
       <use x="274.658203" xlink:href="#DejaVuSans-30"/>
       <use x="338.28125" xlink:href="#DejaVuSans-30"/>
      </g>
     </g>
    </g>
    <g id="ytick_5">
     <g id="line2d_13">
      <g>
       <use style="stroke:#000000;stroke-width:0.8;" x="57.6" xlink:href="#m9f319f1bdd" y="98.996211"/>
      </g>
     </g>
     <g id="text_13">
      <!-- 0 -->
      <g transform="translate(44.2375 102.79543)scale(0.1 -0.1)">
       <use xlink:href="#DejaVuSans-30"/>
      </g>
     </g>
    </g>
    <g id="ytick_6">
     <g id="line2d_14">
      <g>
       <use style="stroke:#000000;stroke-width:0.8;" x="57.6" xlink:href="#m9f319f1bdd" y="53.887131"/>
      </g>
     </g>
     <g id="text_14">
      <!-- 10000 -->
      <g transform="translate(18.7875 57.686349)scale(0.1 -0.1)">
       <use xlink:href="#DejaVuSans-31"/>
       <use x="63.623047" xlink:href="#DejaVuSans-30"/>
       <use x="127.246094" xlink:href="#DejaVuSans-30"/>
       <use x="190.869141" xlink:href="#DejaVuSans-30"/>
       <use x="254.492188" xlink:href="#DejaVuSans-30"/>
      </g>
     </g>
    </g>
   </g>
   <g id="line2d_15">
    <path clip-path="url(#p6dd7daaf0e)" d="M 73.832727 120.08134 
L 73.87602 118.962634 
L 74.005899 132.946449 
L 74.222365 160.91859 
L 74.265658 163.029695 
L 74.308951 162.325994 
L 74.43883 156.466324 
L 74.741881 131.349588 
L 74.828467 136.198814 
L 75.131519 163.345459 
L 75.218105 162.01023 
L 75.391277 144.259807 
L 75.607742 122.611959 
L 75.824207 145.491285 
L 75.99738 144.539483 
L 76.127259 139.906781 
L 76.516896 96.796032 
L 76.560189 98.645504 
L 76.819947 122.968321 
L 76.86324 122.399946 
L 76.906533 122.201466 
L 76.99312 116.021522 
L 77.382757 75.134652 
L 77.469343 86.790838 
L 77.642515 101.036286 
L 77.685808 101.956511 
L 77.815687 107.486884 
L 77.98886 89.898854 
L 78.205325 69.108078 
L 78.248618 69.892976 
L 78.724841 104.870558 
L 79.027893 64.529507 
L 79.157772 68.431442 
L 79.374237 100.752098 
L 79.460823 104.951754 
L 79.504116 103.363914 
L 79.633995 94.287967 
L 79.937047 69.360689 
L 79.98034 66.523328 
L 80.023633 70.384665 
L 80.240098 99.358228 
L 80.369977 102.782007 
L 80.499856 92.727193 
L 80.802908 66.622568 
L 80.889494 72.590499 
L 81.062666 87.499051 
L 81.235838 102.813583 
L 81.279131 102.367004 
L 81.495596 80.561274 
L 81.668768 69.135144 
L 81.712061 70.736516 
L 82.058406 104.590881 
L 82.144992 104.342781 
L 82.534629 68.647966 
L 82.577922 69.369711 
L 82.837681 100.210789 
L 82.924267 105.434421 
L 82.96756 104.414956 
L 83.054146 97.887672 
L 83.270611 75.098564 
L 83.313904 75.242913 
L 83.40049 72.053701 
L 83.443783 72.450661 
L 83.660249 97.68017 
L 83.790128 105.623879 
L 83.920007 99.592795 
L 84.006593 91.360388 
L 84.223058 68.476551 
L 84.266351 64.737008 
L 84.309644 64.94451 
L 84.526109 93.291056 
L 84.699282 106.733563 
L 84.785868 100.472422 
L 85.088919 69.933574 
L 85.175505 75.161717 
L 85.39197 97.486201 
L 85.521849 106.259917 
L 85.565143 106.147145 
L 85.608436 105.92611 
L 85.95478 71.029725 
L 86.041366 72.134898 
L 86.257831 94.576665 
L 86.474296 104.626968 
L 86.604176 90.313857 
L 86.863934 71.187607 
L 87.253571 99.155237 
L 87.340157 100.734055 
L 87.729795 65.819626 
L 87.773088 73.122787 
L 88.119432 104.568327 
L 88.162725 105.208876 
L 88.292604 96.593041 
L 88.552363 70.898909 
L 88.595656 71.205651 
L 88.855414 98.410937 
L 88.985293 107.171121 
L 89.028586 107.094435 
L 89.115172 100.540086 
L 89.418224 74.873019 
L 89.461517 76.699937 
L 89.548103 94.969114 
L 89.591396 88.468896 
L 89.634689 90.557446 
L 89.851154 115.241135 
L 89.894447 116.283155 
L 89.981033 107.450797 
L 90.284084 81.233399 
L 90.327377 81.855905 
L 90.413964 90.12891 
L 90.457257 84.720331 
L 90.50055 87.79226 
L 90.717015 109.755871 
L 90.760308 110.626476 
L 90.803601 109.994949 
L 91.149945 64.971576 
L 91.193238 69.473462 
L 91.236531 77.836685 
L 91.279824 70.01026 
L 91.323118 71.706361 
L 91.539583 98.496644 
L 91.582876 97.860606 
L 91.626169 98.009466 
L 91.799341 86.060071 
L 92.015806 65.594081 
L 92.102392 71.670274 
L 92.145685 66.654144 
L 92.188978 71.273314 
L 92.405444 102.064773 
L 92.448737 101.121993 
L 92.578616 90.340923 
L 92.881667 68.909598 
L 92.968253 77.683315 
L 93.011546 72.040169 
L 93.054839 72.310823 
L 93.357891 101.018242 
L 93.531063 91.834033 
L 93.747528 67.033061 
L 94.093872 150.88182 
L 94.396924 215.478023 
L 94.699975 265.467907 
L 94.743268 258.701545 
L 95.565836 71.543969 
L 95.695715 82.52803 
L 95.782301 99.953668 
L 95.868887 97.621528 
L 95.998766 88.360634 
L 96.215232 64.10097 
L 96.301818 64.186678 
L 96.388404 70.104989 
L 96.431697 61.831984 
L 96.47499 65.530928 
L 96.778041 107.252317 
L 96.864627 102.831627 
L 97.037799 83.948966 
L 97.167679 70.777114 
L 97.210972 73.758825 
L 97.254265 72.788979 
L 97.297558 66.942842 
L 97.340851 71.859732 
L 97.643902 110.107722 
L 97.730488 101.848249 
L 98.03354 73.050612 
L 98.076833 77.390106 
L 98.120126 76.542055 
L 98.163419 71.873265 
L 98.206712 76.298466 
L 98.509763 107.184653 
L 98.553056 107.094435 
L 98.856107 79.884638 
L 98.8994 75.021879 
L 98.942693 80.04703 
L 98.985986 79.69518 
L 99.02928 74.737692 
L 99.072573 78.260711 
L 99.332331 110.14832 
L 99.418917 108.488306 
L 99.548796 101.194167 
L 99.765261 78.328374 
L 99.808554 83.096404 
L 99.851847 76.808198 
L 99.981727 89.497383 
L 100.198192 110.229516 
L 100.328071 116.183915 
L 100.587829 82.798684 
L 100.717708 83.592604 
L 100.847587 92.321211 
L 101.064053 120.288841 
L 101.107346 117.64996 
L 101.237225 114.726892 
L 101.583569 83.515919 
L 101.973207 125.701931 
L 102.0165 121.606026 
L 102.276258 101.248298 
L 102.319551 97.865117 
L 102.362844 101.419713 
L 102.406137 99.881493 
L 102.44943 92.3167 
L 102.492723 95.726947 
L 102.839068 138.174592 
L 103.185412 111.38882 
L 103.228705 115.232113 
L 103.271998 113.283401 
L 103.315291 107.838735 
L 103.358584 112.706005 
L 103.661635 149.952573 
L 103.704928 152.433572 
L 103.748221 151.337422 
L 103.834808 147.372333 
L 104.051273 125.783127 
L 104.094566 130.077512 
L 104.137859 127.546892 
L 104.181152 119.58514 
L 104.224445 121.52483 
L 104.397617 151.450194 
L 104.527496 165.510695 
L 104.700668 153.76429 
L 105.00372 123.938166 
L 105.047013 128.471629 
L 105.306771 162.483875 
L 105.43665 163.873235 
L 105.523236 154.255979 
L 105.912874 113.878841 
L 106.172632 138.039265 
L 106.259218 136.338652 
L 106.345804 131.692417 
L 106.605562 105.105125 
L 106.648855 105.524639 
L 106.778735 86.605891 
L 106.822028 91.811479 
L 107.125079 117.722135 
L 107.168372 117.036477 
L 107.341544 98.803386 
L 107.601302 73.325777 
L 107.644596 73.93475 
L 107.947647 101.388136 
L 108.034233 103.29174 
L 108.077526 102.736898 
L 108.337284 80.489099 
L 108.380577 82.361126 
L 108.467163 67.795404 
L 108.510456 68.575791 
L 108.813508 98.82143 
L 108.856801 101.478355 
L 108.900094 99.940135 
L 109.029973 93.90454 
L 109.116559 86.817903 
L 109.333024 64.303961 
L 109.376317 64.470865 
L 109.506196 82.446833 
L 109.722662 103.855603 
L 109.939127 89.772548 
L 110.155592 62.544707 
L 110.198885 64.128036 
L 110.588523 102.028685 
L 110.631816 101.185146 
L 110.718402 97.405005 
L 111.064746 62.350738 
L 111.108039 65.846692 
L 111.454383 101.636236 
L 111.497677 101.55504 
L 111.714142 85.374413 
L 111.930607 65.278317 
L 112.147072 86.727685 
L 112.320244 101.744498 
L 112.363537 102.037707 
L 112.493417 90.42663 
L 112.796468 63.595749 
L 113.142812 105.465997 
L 113.229398 101.072373 
L 113.619036 68.160788 
L 113.705622 70.438796 
L 114.051966 102.939889 
L 114.138552 101.419713 
L 114.52819 66.378979 
L 114.917827 104.171367 
L 114.96112 103.783429 
L 115.134292 90.652175 
L 115.350758 65.562505 
L 115.394051 66.73083 
L 115.437344 67.6285 
L 115.783688 107.626722 
L 115.826981 106.305026 
L 116.000153 86.001429 
L 116.216618 63.762652 
L 116.303205 63.541618 
L 116.649549 104.374358 
L 116.779428 95.560043 
L 117.082479 65.364025 
L 117.125772 67.118768 
L 117.298945 85.60898 
L 117.428824 102.339938 
L 117.472117 101.261831 
L 117.601996 98.113217 
L 117.94834 64.055861 
L 117.991633 66.446643 
L 118.164805 84.544406 
L 118.381271 105.290072 
L 118.467857 99.809319 
L 118.770908 69.175742 
L 118.814201 69.766671 
L 119.030666 87.517094 
L 119.247132 113.603676 
L 119.290425 113.405196 
L 119.420304 101.10846 
L 119.636769 70.014771 
L 119.680062 70.700429 
L 120.112993 111.330178 
L 120.156286 109.616033 
L 120.199579 108.614611 
L 120.632509 70.452329 
L 120.719095 75.896995 
L 120.93556 101.821184 
L 120.978853 101.198678 
L 121.455077 60.776431 
L 121.49837 64.028796 
L 121.801421 97.508756 
L 121.844714 97.03511 
L 122.147766 75.969169 
L 122.234352 60.546375 
L 122.277645 60.605017 
L 122.537403 82.721999 
L 122.710575 100.01231 
L 122.970333 83.854237 
L 123.100213 61.556818 
L 123.143506 59.594573 
L 123.186799 59.919359 
L 123.316678 76.857818 
L 123.533143 99.272521 
L 123.576436 97.571908 
L 123.663022 95.181127 
L 123.706315 96.04271 
L 123.836194 107.071881 
L 123.879487 100.251388 
L 123.966074 109.575435 
L 124.182539 179.038908 
L 124.528883 279.036718 
L 124.572176 280.958365 
L 124.615469 278.260842 
L 124.702055 248.024225 
L 124.961814 141.016464 
L 125.091693 120.53243 
L 125.134986 124.032895 
L 125.221572 129.509137 
L 125.264865 127.082269 
L 125.394744 108.75896 
L 125.784381 55.151329 
L 125.827674 57.763145 
L 126.000847 79.122294 
L 126.217312 90.77397 
L 126.433777 80.119205 
L 126.520363 65.14299 
L 126.563656 67.281161 
L 126.606949 67.484151 
L 126.650242 65.73843 
L 126.693535 67.407466 
L 127.03988 97.391472 
L 127.126466 92.262569 
L 127.47281 63.05444 
L 127.559396 66.721808 
L 127.905741 101.194167 
L 127.992327 95.325476 
L 128.381964 66.766917 
L 128.728309 102.371514 
L 128.771602 101.708411 
L 128.988067 90.42663 
L 129.161239 70.168142 
L 129.247825 68.945686 
L 129.377704 79.474145 
L 129.507583 102.434667 
L 129.550876 102.276785 
L 129.680755 108.51086 
L 129.724049 107.356068 
L 130.0271 71.074834 
L 130.070393 71.54848 
L 130.46003 111.501592 
L 130.546616 107.757539 
L 130.892961 78.513322 
L 130.936254 80.340239 
L 131.109426 91.504737 
L 131.369184 116.522233 
L 131.45577 111.916596 
L 131.499063 113.838243 
L 131.542356 116.734246 
L 131.715529 87.923076 
L 131.802115 84.458698 
L 131.845408 85.076693 
L 132.235045 126.78906 
L 132.278338 123.369792 
L 132.494803 102.579016 
L 132.538096 102.736898 
L 132.624683 95.94347 
L 132.711269 97.671148 
L 133.057613 138.124972 
L 133.144199 136.03191 
L 133.317371 118.89046 
L 133.44725 111.564745 
L 133.57713 113.955526 
L 133.966767 150.421707 
L 134.01006 148.139188 
L 134.313111 119.9821 
L 134.356404 120.004654 
L 134.44299 124.898989 
L 134.789335 159.024009 
L 134.832628 156.714424 
L 134.919214 152.401996 
L 134.962507 156.773066 
L 135.0058 150.142031 
L 135.178972 124.659911 
L 135.265558 118.19578 
L 135.308851 120.302374 
L 135.56861 145.748406 
L 135.611903 146.21303 
L 135.655196 148.30158 
L 135.698489 147.011461 
L 135.871661 133.266724 
L 136.044833 102.669234 
L 136.131419 97.296743 
L 136.174712 98.293654 
L 136.434471 125.426766 
L 136.56435 118.998722 
L 136.780815 90.417608 
L 136.953987 77.087875 
L 136.99728 77.160049 
L 137.386918 105.366757 
L 137.56009 98.203435 
L 137.776555 65.273806 
L 137.863141 60.023109 
L 138.079606 86.614913 
L 138.209485 101.875315 
L 138.252778 98.356806 
L 138.425951 92.749748 
L 138.642416 63.031885 
L 138.685709 59.220168 
L 138.729002 60.180991 
L 139.075346 100.260409 
L 139.161932 95.023245 
L 139.248518 95.090909 
L 139.335105 79.104251 
L 139.508277 57.415805 
L 139.55157 58.03831 
L 139.724742 74.187361 
L 139.9845 99.998777 
L 140.157672 94.116553 
L 140.330845 65.386579 
L 140.417431 59.82914 
L 140.460724 59.905826 
L 140.677189 85.067671 
L 140.850361 98.862028 
L 140.98024 96.990001 
L 141.153412 67.601435 
L 141.196706 67.980351 
L 141.283292 64.263363 
L 141.326585 64.394179 
L 141.716222 96.430649 
L 141.759515 95.997601 
L 141.802808 98.487623 
L 142.149152 63.595749 
L 142.192446 64.84527 
L 142.625376 99.380782 
L 142.668669 99.263499 
L 142.97172 62.977754 
L 143.015013 63.888958 
L 143.188186 75.608297 
L 143.404651 101.911402 
L 143.447944 101.699389 
L 143.707702 75.811288 
L 143.880874 64.470865 
L 143.924167 63.744609 
L 144.09734 82.23031 
L 144.270512 98.140283 
L 144.313805 98.613928 
L 144.357098 98.406426 
L 144.400391 102.060262 
L 144.443684 97.405005 
L 144.616856 71.521414 
L 144.703442 67.804426 
L 144.790028 62.725143 
L 145.266252 103.801472 
L 145.482717 68.490084 
L 145.655889 61.159858 
L 146.08882 104.004463 
L 146.132113 102.4482 
L 146.305285 77.187115 
L 146.478457 63.298029 
L 146.52175 63.731076 
L 146.997974 107.784604 
L 147.214439 72.604032 
L 147.344318 63.289007 
L 147.387611 66.536861 
L 147.474197 70.592167 
L 147.733955 97.87865 
L 147.777248 96.832119 
L 147.820541 103.395491 
L 147.863834 101.721944 
L 148.0803 70.172653 
L 148.210179 65.648212 
L 148.253472 65.815115 
L 148.469937 89.943963 
L 148.599816 105.226919 
L 148.643109 103.34136 
L 148.686402 106.584703 
L 148.729695 102.804562 
L 148.902868 79.334307 
L 149.119333 74.03399 
L 149.552263 119.449812 
L 149.725435 90.715328 
L 149.898608 76.388684 
L 149.985194 77.525433 
L 150.158366 94.635307 
L 150.331538 106.611768 
L 150.418124 115.439615 
L 150.677882 73.393441 
L 150.764468 67.082681 
L 150.807762 69.401287 
L 150.980934 78.265222 
L 151.240692 101.55504 
L 151.283985 100.251388 
L 151.50045 73.677628 
L 151.673622 61.561329 
L 151.716915 62.612371 
L 152.106553 103.29174 
L 152.149846 102.082816 
L 152.366311 70.452329 
L 152.49619 63.424334 
L 152.539483 64.303961 
L 152.582776 64.082927 
L 152.972414 100.630304 
L 153.015707 97.310276 
L 153.188879 79.140338 
L 153.405344 63.099549 
L 153.448637 63.013842 
L 153.578516 83.561028 
L 154.011447 179.706522 
L 154.271205 225.460663 
L 154.48767 276.817351 
L 154.530963 271.557633 
L 154.704136 230.643696 
L 154.963894 114.650206 
L 155.223652 92.542246 
L 155.266945 92.790346 
L 155.310238 92.140775 
L 155.526703 107.419221 
L 155.569996 103.657123 
L 155.829755 64.727987 
L 155.873048 65.129457 
L 155.959634 61.804918 
L 156.002927 62.215411 
L 156.219392 83.66929 
L 156.392564 112.169207 
L 156.435857 109.918264 
L 156.60903 88.238839 
L 156.825495 67.32627 
L 156.868788 65.873757 
L 157.301718 103.878158 
L 157.388304 91.982893 
L 157.431597 94.3015 
L 157.47489 94.238347 
L 157.734649 69.184764 
L 157.777942 71.237227 
L 158.080993 104.306694 
L 158.124286 114.190094 
L 158.167579 113.716448 
L 158.340751 91.955828 
L 158.60051 70.488416 
L 158.643803 72.450661 
L 158.990147 118.191269 
L 159.206612 93.354209 
L 159.423078 76.07292 
L 159.466371 77.092386 
L 159.726129 103.485709 
L 159.856008 116.837997 
L 160.02918 99.083062 
L 160.072473 97.716257 
L 160.288938 78.387016 
L 160.332231 78.630605 
L 160.462111 87.886989 
L 160.678576 117.776266 
L 160.721869 117.095118 
L 160.808455 106.891444 
L 160.851748 109.25516 
L 160.895041 109.724295 
L 161.02492 92.700128 
L 161.154799 84.156468 
L 161.198092 85.378924 
L 161.371265 101.667813 
L 161.58773 129.915119 
L 161.760902 111.600832 
L 162.02066 93.742147 
L 162.063953 94.662373 
L 162.193832 107.658299 
L 162.410298 136.514578 
L 162.58347 127.289771 
L 162.843228 105.393823 
L 162.886521 106.476441 
L 163.059693 117.929636 
L 163.276159 150.317956 
L 163.319452 140.064662 
L 163.709089 121.457167 
L 163.752382 117.84844 
L 163.795675 118.173225 
L 164.142019 161.586205 
L 164.228606 155.293488 
L 164.271899 155.131095 
L 164.661536 125.950031 
L 164.791415 137.723501 
L 165.00788 165.546782 
L 165.267639 137.263388 
L 165.484104 116.810931 
L 165.657276 123.108159 
L 165.787155 140.393959 
L 165.873741 150.218716 
L 166.133499 111.528658 
L 166.349965 92.158819 
L 166.393258 92.479093 
L 166.653016 113.026279 
L 166.739602 119.9821 
L 167.042653 85.6586 
L 167.259119 75.089542 
L 167.302412 76.794666 
L 167.475584 97.901205 
L 167.56217 110.748271 
L 167.605463 108.826624 
L 167.778635 92.722682 
L 168.081687 66.685721 
L 168.12498 68.47204 
L 168.341445 94.960092 
L 168.428031 108.307869 
L 168.514617 96.88625 
L 168.55791 97.427559 
L 168.731082 79.992899 
L 168.947547 67.348824 
L 168.99084 65.977508 
L 169.207306 92.8129 
L 169.293892 102.569994 
L 169.337185 95.614174 
L 169.423771 97.919248 
L 169.640236 76.641295 
L 169.770115 64.096459 
L 169.813408 65.152012 
L 169.899994 66.63159 
L 170.029874 82.392703 
L 170.159753 105.605836 
L 170.203046 97.445603 
L 170.419511 82.248354 
L 170.506097 69.987705 
L 170.54939 71.282336 
L 170.592683 75.346664 
L 170.635976 70.880865 
L 170.679269 65.923377 
L 170.722562 66.586481 
L 170.939028 95.059332 
L 171.025614 104.969798 
L 171.198786 94.030845 
L 171.54513 65.923377 
L 171.588423 67.055615 
L 171.891474 103.454132 
L 171.978061 97.030599 
L 172.021354 98.586863 
L 172.410991 66.275228 
L 172.454284 67.890133 
L 172.627456 84.959409 
L 172.714042 107.085413 
L 172.757335 97.892183 
L 172.843921 97.97789 
L 172.930508 93.8053 
L 173.276852 61.619971 
L 173.320145 63.970154 
L 173.579903 103.350382 
L 173.666489 97.567397 
L 173.709782 97.97789 
L 174.012834 71.79658 
L 174.186006 63.541618 
L 174.359178 85.649578 
L 174.445764 101.744498 
L 174.489057 96.872718 
L 174.575643 99.326652 
L 175.008574 62.314651 
L 175.051867 63.086016 
L 175.311625 100.774653 
L 175.354918 96.277278 
L 175.571383 87.79677 
L 175.831142 63.221343 
L 175.917728 67.596924 
L 176.047607 78.747889 
L 176.177486 99.010888 
L 176.264072 98.018488 
L 176.350658 93.178284 
L 176.697003 60.289253 
L 176.740296 59.296853 
L 176.870175 72.139409 
L 177.000054 101.645258 
L 177.043347 93.421873 
L 177.08664 94.021824 
L 177.173226 98.961268 
L 177.216519 98.631972 
L 177.562863 67.890133 
L 177.606156 67.055615 
L 177.64945 67.52926 
L 177.779329 81.689001 
L 177.865915 96.353963 
L 177.952501 95.474336 
L 178.039087 103.427067 
L 178.08238 101.460311 
L 178.342138 75.233891 
L 178.428724 68.381822 
L 178.472017 69.333624 
L 178.64519 85.279684 
L 178.818362 106.111057 
L 178.904948 112.029369 
L 179.294585 73.970837 
L 179.337878 73.700183 
L 179.51105 92.420451 
L 179.597637 111.018925 
L 179.64093 103.553372 
L 179.727516 110.012993 
L 179.814102 108.46124 
L 179.987274 90.155975 
L 180.203739 71.128965 
L 180.247032 71.837178 
L 180.333618 76.722491 
L 180.463497 101.451289 
L 180.593377 101.090417 
L 180.679963 95.99309 
L 180.939721 67.980351 
L 181.026307 61.489155 
L 181.0696 62.797318 
L 181.199479 75.829331 
L 181.286065 94.035356 
L 181.372651 89.754505 
L 181.502531 95.826187 
L 181.589117 90.345434 
L 181.892168 61.41698 
L 181.978754 63.920534 
L 182.281805 95.163083 
L 182.325098 94.581176 
L 182.411684 95.600641 
L 182.801322 59.919359 
L 182.844615 61.610949 
L 183.234252 98.564308 
L 183.277545 101.568573 
L 183.320838 99.655948 
L 183.364131 98.929692 
L 183.710476 152.27118 
L 184.143406 287.314235 
L 184.186699 285.816613 
L 184.446458 173.382229 
L 184.662923 113.012747 
L 184.749509 123.293106 
L 184.792802 117.794309 
L 184.836095 117.483056 
L 184.879388 118.2454 
L 185.182439 77.227713 
L 185.355612 55.029534 
L 185.398905 55.561821 
L 185.442198 55.345298 
L 185.572077 75.062477 
L 185.788542 95.167594 
L 185.831835 94.89694 
L 186.178179 69.297536 
L 186.221472 69.108078 
L 186.308059 67.768339 
L 186.394645 80.822907 
L 186.437938 92.285124 
L 186.524524 90.119888 
L 186.697696 97.409516 
L 186.870868 83.6738 
L 187.04404 64.055861 
L 187.087333 65.034728 
L 187.476971 109.575435 
L 187.563557 107.26585 
L 187.996487 68.32318 
L 188.03978 69.969662 
L 188.386125 102.709833 
L 188.429418 103.314294 
L 188.472711 102.412113 
L 188.559297 99.507088 
L 188.819055 74.651984 
L 188.862348 74.850464 
L 188.948934 83.759508 
L 189.122106 103.661634 
L 189.208693 110.667074 
L 189.251986 110.418974 
L 189.338572 107.319981 
L 189.468451 95.217214 
L 189.728209 72.74387 
L 190.117847 114.266779 
L 190.16114 112.250403 
L 190.59407 82.460366 
L 190.680656 94.594709 
L 190.853828 116.919193 
L 190.940414 120.270798 
L 190.983707 120.08134 
L 191.416638 89.528959 
L 191.459931 90.787503 
L 191.892861 128.259616 
L 192.109327 107.162099 
L 192.282499 99.213879 
L 192.325792 100.228833 
L 192.715429 140.876626 
L 192.802015 137.854317 
L 193.018481 120.568518 
L 193.191653 111.352732 
L 193.537997 153.16885 
L 193.624583 148.54968 
L 193.841048 132.445739 
L 194.014221 125.927476 
L 194.100807 132.793079 
L 194.187393 144.354536 
L 194.230686 138.905359 
L 194.447151 167.202285 
L 194.490444 164.919766 
L 194.793495 128.13331 
L 194.923375 123.798328 
L 195.183133 148.675986 
L 195.226426 149.068435 
L 195.269719 148.545169 
L 195.313012 147.530215 
L 195.57277 115.976413 
L 195.789235 101.433246 
L 196.005701 121.944345 
L 196.092287 126.725907 
L 196.13558 126.694331 
L 196.265459 118.764154 
L 196.56851 77.385595 
L 196.655096 80.674047 
L 196.871562 102.772985 
L 196.914855 107.112479 
L 197.001441 106.81927 
L 197.044734 107.572591 
L 197.088027 106.841824 
L 197.477664 69.229873 
L 197.520957 69.423842 
L 197.607543 85.126313 
L 197.650836 80.597361 
L 197.910595 103.88718 
L 197.953888 101.473844 
L 198.300232 62.729654 
L 198.733162 103.111303 
L 198.776456 101.816673 
L 198.819749 101.031775 
L 199.209386 62.792807 
L 199.252679 65.526417 
L 199.469144 92.420451 
L 199.55573 98.266588 
L 199.599023 101.072373 
L 199.642316 99.335673 
L 199.772196 86.70062 
L 200.031954 68.476551 
L 200.075247 68.395355 
L 200.508177 100.56264 
L 200.55147 101.789607 
L 200.941108 64.926467 
L 201.200866 94.937538 
L 201.374038 102.840649 
L 201.590503 82.460366 
L 201.763676 68.47204 
L 201.806969 69.685475 
L 201.893555 77.647227 
L 201.936848 73.406974 
L 202.196606 103.057172 
L 202.283192 99.028932 
L 202.67283 67.470619 
L 203.019174 102.714343 
L 203.062467 102.633147 
L 203.192346 95.34352 
L 203.53869 64.921956 
L 203.711863 80.09665 
L 203.928328 102.042218 
L 204.014914 107.374112 
L 204.317965 67.980351 
L 204.361258 68.792315 
L 204.447844 79.036587 
L 204.491137 71.783047 
L 204.534431 73.632519 
L 204.794189 102.980487 
L 204.837482 102.651191 
L 205.010654 86.565293 
L 205.227119 63.248409 
L 205.530171 98.072619 
L 205.66005 103.769896 
L 205.746636 98.117728 
L 206.09298 65.395601 
L 206.179566 72.861154 
L 206.222859 69.157698 
L 206.309445 83.132492 
L 206.482618 107.473351 
L 206.525911 107.342535 
L 206.612497 99.277032 
L 206.828962 73.285179 
L 206.958841 67.330781 
L 207.045427 73.609965 
L 207.08872 69.856889 
L 207.175306 81.016876 
L 207.391772 108.434175 
L 207.435065 108.601079 
L 207.781409 76.379662 
L 207.824702 76.442815 
L 207.911288 85.284195 
L 207.954581 80.502632 
L 208.08446 97.066687 
L 208.214339 114.76749 
L 208.257632 114.041234 
L 208.344219 108.271782 
L 208.64727 80.687579 
L 208.690563 82.216777 
L 208.733856 84.941366 
L 208.777149 78.526854 
L 208.820442 82.374659 
L 209.0802 108.402599 
L 209.123493 108.880755 
L 209.339959 88.24335 
L 209.513131 69.775693 
L 209.556424 71.70185 
L 209.599717 70.330534 
L 209.64301 61.696656 
L 209.686303 67.899155 
L 209.859475 94.328565 
L 210.032647 97.562886 
L 210.162526 89.497383 
L 210.378992 63.370203 
L 210.422285 65.066305 
L 210.465578 66.676699 
L 210.508871 63.4514 
L 210.725336 97.179459 
L 210.811922 95.862274 
L 210.898508 93.579755 
L 211.07168 80.263554 
L 211.244853 66.604524 
L 211.288146 71.016192 
L 211.331439 70.483905 
L 211.374732 66.212075 
L 211.418025 69.581724 
L 211.721076 96.002112 
L 211.807662 91.797946 
L 212.110713 71.061302 
L 212.543644 165.790371 
L 212.846695 218.067285 
L 212.976574 238.731755 
L 213.106453 255.273255 
L 213.149747 257.740721 
L 213.929021 65.923377 
L 213.972314 68.386333 
L 214.232073 93.412851 
L 214.275366 93.119642 
L 214.318659 92.163329 
L 214.665003 56.581287 
L 214.708296 62.003398 
L 214.751589 64.34907 
L 214.794882 57.758634 
L 214.838175 61.223011 
L 215.097934 100.301008 
L 215.227813 102.908313 
L 215.530864 75.391773 
L 215.574157 78.540387 
L 215.660743 70.055369 
L 215.704036 73.082188 
L 216.007087 104.076638 
L 216.093674 101.036286 
L 216.18026 96.967447 
L 216.396725 75.265468 
L 216.440018 79.79893 
L 216.483311 79.189958 
L 216.526604 69.708029 
L 216.569897 70.759071 
L 216.872948 107.522971 
L 216.916241 108.357489 
L 216.959534 107.531993 
L 217.262586 75.039922 
L 217.305879 81.675468 
L 217.349172 81.332639 
L 217.392465 76.587164 
L 217.435758 81.544652 
L 217.738809 111.343711 
L 217.782102 110.951262 
L 217.998568 94.856342 
L 218.085154 82.293463 
L 218.128447 82.618248 
L 218.17174 85.843547 
L 218.215033 77.836685 
L 218.258326 79.803441 
L 218.561377 116.147828 
L 218.691256 113.833732 
L 219.080894 75.829331 
L 219.124187 77.439726 
L 219.470531 126.34248 
L 219.513824 125.480897 
L 219.946755 86.542738 
L 219.990048 87.19682 
L 220.336392 128.782881 
L 220.379685 128.485161 
L 220.812616 96.967447 
L 220.855909 98.744744 
L 221.15896 134.182438 
L 221.202253 134.615485 
L 221.288839 139.911291 
L 221.332132 138.697857 
L 221.678476 108.524393 
L 221.851649 124.25393 
L 222.068114 150.191651 
L 222.197993 146.835535 
L 222.284579 136.916048 
L 222.371165 123.148757 
L 222.414458 128.110756 
L 222.457751 132.657751 
L 222.544337 120.266287 
L 222.58763 123.75773 
L 222.890682 160.634403 
L 223.020561 159.411947 
L 223.410198 125.837258 
L 223.453491 128.250594 
L 223.756543 156.39415 
L 223.799836 156.100941 
L 223.843129 156.308442 
L 223.886422 155.618273 
L 223.973008 147.60239 
L 224.276059 109.616033 
L 224.622403 136.099574 
L 224.665697 135.504134 
L 224.882162 111.032458 
L 225.14192 84.923322 
L 225.271799 93.318122 
L 225.531557 117.740178 
L 225.618144 112.358665 
L 225.748023 98.032021 
L 225.964488 71.841689 
L 226.051074 71.534947 
L 226.224246 94.928516 
L 226.354125 104.667567 
L 226.397418 104.640501 
L 226.527297 98.72219 
L 226.830349 65.706854 
L 227.046814 83.204666 
L 227.219986 101.320473 
L 227.263279 100.373182 
L 227.436451 90.101844 
L 227.69621 63.496509 
L 227.739503 66.866157 
L 228.12914 101.216722 
L 228.172433 99.493555 
L 228.562071 59.107395 
L 228.605364 60.880182 
L 228.778536 79.758332 
L 228.995001 99.683013 
L 229.12488 88.662865 
L 229.427931 61.768831 
L 229.514518 66.428599 
L 229.817569 102.971465 
L 229.947448 97.021577 
L 230.293792 64.84527 
L 230.337085 67.488662 
L 230.466965 78.080274 
L 230.770016 101.839227 
L 231.073067 75.206826 
L 231.159653 64.294939 
L 231.202946 66.852624 
L 231.592584 99.660459 
L 231.635877 98.591373 
L 231.722463 92.474582 
L 231.982221 64.060372 
L 232.155393 75.698515 
L 232.415152 101.478355 
L 232.458445 98.875561 
L 232.761496 81.255954 
L 232.891375 67.461597 
L 232.934668 67.939753 
L 233.281012 104.184899 
L 233.324306 103.102282 
L 233.367599 102.443689 
L 233.627357 76.623251 
L 233.713943 62.887536 
L 233.757236 65.264785 
L 234.146873 100.964111 
L 234.276753 97.472668 
L 234.449925 83.953477 
L 234.66639 64.985108 
L 234.969441 100.2153 
L 235.012734 101.338517 
L 235.09932 101.072373 
L 235.359079 78.820063 
L 235.445665 67.732251 
L 235.488958 67.82698 
L 235.532251 66.897733 
L 235.705423 88.527538 
L 235.921888 107.531993 
L 236.008474 99.222901 
L 236.268233 72.419085 
L 236.311526 74.399373 
L 236.441405 80.588339 
L 236.65787 105.795294 
L 236.744456 111.406863 
L 236.787749 110.301691 
L 236.831042 110.748271 
L 237.047507 92.533224 
L 237.177387 76.054877 
L 237.22068 76.939015 
L 237.307266 83.727931 
L 237.567024 109.449129 
L 237.610317 109.079235 
L 237.696903 107.626722 
L 238.129834 66.807515 
L 238.173127 69.527593 
L 238.476178 101.758031 
L 238.562764 97.959846 
L 238.952401 60.054686 
L 239.342039 100.332584 
L 239.385332 99.105617 
L 239.64509 75.964659 
L 239.731676 64.308472 
L 239.774969 64.565594 
L 239.948141 70.610211 
L 240.251193 102.579016 
L 240.294486 99.922091 
L 240.554244 68.341224 
L 240.64083 69.518571 
L 240.684123 69.947107 
L 240.770709 75.82031 
L 240.857295 87.64791 
L 241.333519 196.893082 
L 241.376812 191.105587 
L 241.723156 275.148315 
L 241.766449 274.467168 
L 241.982915 218.040219 
L 242.285966 103.706743 
L 242.545724 88.834279 
L 242.589017 89.524448 
L 242.718896 101.478355 
L 242.762189 101.379115 
L 242.848775 97.707236 
L 243.065241 79.081696 
L 243.19512 56.468514 
L 243.238413 56.554221 
L 243.281706 56.085087 
L 243.411585 68.300626 
L 243.671343 106.494484 
L 243.714636 105.72763 
L 243.801222 98.67257 
L 244.104274 67.930731 
L 244.234153 75.797755 
L 244.537204 102.858693 
L 244.62379 101.478355 
L 244.796963 81.152203 
L 244.970135 68.32318 
L 245.013428 69.207318 
L 245.1866 88.54107 
L 245.359772 106.201275 
L 245.61953 98.564308 
L 245.792703 76.934504 
L 245.879289 74.882041 
L 245.965875 81.490521 
L 246.225633 111.248982 
L 246.312219 107.51395 
L 246.485391 96.940381 
L 246.571977 80.083118 
L 246.61527 81.391281 
L 246.74515 76.537544 
L 246.875029 86.912632 
L 247.134787 113.360087 
L 247.17808 112.773668 
L 247.351252 104.369847 
L 247.524424 82.022808 
L 247.567717 77.999078 
L 247.61101 78.332885 
L 247.784183 100.125082 
L 247.957355 119.973078 
L 248.000648 121.006076 
L 248.043941 120.685801 
L 248.217113 110.64452 
L 248.390285 88.635799 
L 248.433578 87.828347 
L 248.476871 88.017805 
L 248.520164 88.495961 
L 248.60675 93.399318 
L 248.866509 126.107913 
L 249.082974 113.157096 
L 249.256146 92.952738 
L 249.342732 94.991669 
L 249.429318 102.087327 
L 249.73237 135.7793 
L 249.775663 134.88614 
L 249.818956 134.051622 
L 249.862249 135.030489 
L 249.905542 134.407984 
L 250.078714 106.034372 
L 250.208593 101.997109 
L 250.338472 117.735667 
L 250.598231 151.445683 
L 250.641524 151.202094 
L 250.684817 150.029258 
L 250.72811 152.12232 
L 251.031161 119.043831 
L 251.074454 118.069475 
L 251.16104 126.604113 
L 251.464091 160.42239 
L 251.507384 158.658625 
L 251.680557 143.772629 
L 251.897022 127.1364 
L 251.940315 126.378567 
L 252.070194 136.320609 
L 252.243366 157.580518 
L 252.329952 156.619695 
L 252.503125 150.227738 
L 252.676297 120.726399 
L 252.806176 115.187004 
L 252.849469 117.564253 
L 253.15252 138.034754 
L 253.195813 135.896583 
L 253.282399 130.411319 
L 253.325692 131.178173 
L 253.672037 88.34259 
L 253.71533 89.826679 
L 253.975088 116.287666 
L 254.061674 114.56901 
L 254.14826 110.184407 
L 254.191553 110.387398 
L 254.408019 79.708712 
L 254.537898 70.547058 
L 254.884242 105.87649 
L 254.927535 104.329249 
L 255.100707 87.94112 
L 255.317172 65.751963 
L 255.576931 84.657178 
L 255.793396 104.572838 
L 255.923275 98.009466 
L 256.13974 64.890379 
L 256.183033 63.528085 
L 256.226326 65.580548 
L 256.442792 88.459874 
L 256.615964 101.334006 
L 256.659257 101.460311 
L 256.745843 101.789607 
L 256.789136 95.699881 
L 256.962308 68.079591 
L 257.092187 63.627325 
L 257.611704 103.395491 
L 257.914755 66.108324 
L 257.958048 66.347403 
L 258.001341 66.148923 
L 258.477565 102.79554 
L 258.69403 72.432618 
L 258.823909 63.925045 
L 258.867202 65.535439 
L 259.300133 102.989509 
L 259.343426 103.422556 
L 259.559891 71.494349 
L 259.646477 63.85287 
L 259.68977 64.263363 
L 260.079407 101.433246 
L 260.1227 100.156659 
L 260.165994 103.115814 
L 260.209287 100.964111 
L 260.425752 70.75456 
L 260.469045 69.338135 
L 260.512338 69.631344 
L 260.728803 82.072428 
L 260.901975 105.308116 
L 260.945268 104.333759 
L 260.988561 102.9444 
L 261.031854 106.566659 
L 261.075147 101.568573 
L 261.24832 74.818888 
L 261.421492 64.064883 
L 261.464785 66.757895 
L 261.724543 98.059086 
L 261.897715 106.42231 
L 262.24406 66.974419 
L 262.287353 65.93691 
L 262.330646 66.43311 
L 262.67699 103.345871 
L 262.763576 104.83447 
L 262.980041 74.593343 
L 263.196507 68.390844 
L 263.629437 110.184407 
L 263.845902 76.677382 
L 264.019075 68.688564 
L 264.062368 69.288515 
L 264.452005 103.260163 
L 264.495298 102.804562 
L 264.755056 68.232962 
L 264.884935 65.932399 
L 265.014815 75.256446 
L 265.317866 105.57877 
L 265.361159 104.193921 
L 265.534331 84.697777 
L 265.750796 68.106657 
L 265.794089 69.121611 
L 266.183727 117.573275 
L 266.573364 78.788487 
L 266.65995 83.439233 
L 267.049588 117.631916 
L 267.092881 114.492324 
L 267.266053 90.940873 
L 267.482518 71.467283 
L 267.525811 72.567945 
L 267.785569 100.291986 
L 267.828863 100.156659 
L 267.915449 111.582789 
L 268.088621 83.367059 
L 268.348379 62.693567 
L 268.521551 80.069585 
L 268.738016 103.625547 
L 268.78131 103.485709 
L 268.997775 76.293955 
L 269.170947 63.356671 
L 269.21424 62.341716 
L 269.257533 63.415312 
L 269.603877 106.733563 
L 269.64717 105.276539 
L 269.863636 73.98437 
L 270.036808 63.293518 
L 270.123394 65.770006 
L 270.513031 111.14072 
L 270.556324 105.425399 
L 270.599617 106.688453 
L 270.945962 159.7232 
L 271.378892 295.488 
L 271.422185 283.173221 
L 271.941702 114.550966 
L 272.028288 119.278398 
L 272.071581 122.544295 
L 272.114874 120.554985 
L 272.158167 120.545963 
L 272.20146 120.392592 
L 272.417925 84.039184 
L 272.634391 56.964714 
L 272.677684 57.023356 
L 272.980735 93.579755 
L 273.067321 101.933956 
L 273.240493 86.876545 
L 273.500251 62.468022 
L 273.586838 68.909598 
L 273.889889 107.139544 
L 273.933182 104.98333 
L 274.106354 88.374167 
L 274.366112 68.115679 
L 274.409405 69.238895 
L 274.582578 85.951809 
L 274.799043 106.877912 
L 275.102094 75.342153 
L 275.275266 65.977508 
L 275.405145 78.811042 
L 275.621611 112.918018 
L 275.664904 112.18725 
L 275.881369 87.386278 
L 276.011248 73.58741 
L 276.054541 76.505968 
L 276.097834 77.953969 
L 276.141127 75.044433 
L 276.18442 76.127051 
L 276.400885 104.93371 
L 276.487472 118.119095 
L 276.530765 107.91091 
L 276.963695 78.60354 
L 277.006988 81.030408 
L 277.353332 119.273887 
L 277.396625 110.103211 
L 277.526505 106.652366 
L 277.829556 79.677136 
L 277.872849 80.155292 
L 278.219193 127.325858 
L 278.435659 109.219073 
L 278.695417 89.095912 
L 278.73871 89.971028 
L 279.085054 135.323698 
L 279.431399 102.678256 
L 279.474692 102.533907 
L 279.561278 99.209368 
L 279.604571 101.789607 
L 279.907622 147.029504 
L 279.950915 144.963508 
L 280.037501 138.179103 
L 280.080794 141.575817 
L 280.124087 142.324627 
L 280.427139 114.429172 
L 280.470432 118.114584 
L 280.643604 141.431467 
L 280.816776 161.865881 
L 280.946655 151.806556 
L 281.249707 125.814704 
L 281.336293 127.479229 
L 281.552758 151.048723 
L 281.639344 168.16762 
L 281.682637 159.285642 
L 281.72593 161.685445 
L 281.769223 161.035874 
L 282.15886 122.345815 
L 282.202153 125.408722 
L 282.418619 140.326295 
L 282.505205 155.000279 
L 282.548498 147.719673 
L 282.635084 144.011707 
L 283.024721 97.28321 
L 283.068014 96.881739 
L 283.241187 112.521058 
L 283.371066 130.073001 
L 283.414359 123.01343 
L 283.587531 110.306202 
L 283.890582 77.489346 
L 283.933875 77.493856 
L 284.150341 99.331162 
L 284.236927 112.98117 
L 284.28022 108.564991 
L 284.323513 108.298848 
L 284.453392 97.188481 
L 284.71315 69.586235 
L 284.756443 72.576967 
L 284.799736 72.355932 
L 284.929615 84.183533 
L 285.102788 107.11699 
L 285.146081 100.625793 
L 285.232667 101.167102 
L 285.579011 67.795404 
L 285.665597 71.228205 
L 285.925355 101.442267 
L 286.011941 100.102528 
L 286.055235 99.737144 
L 286.2717 86.759262 
L 286.444872 66.103814 
L 286.531458 67.8766 
L 286.791216 108.447708 
L 286.877802 104.148812 
L 286.964388 100.756609 
L 287.310733 62.973243 
L 287.354026 63.325094 
L 287.483905 74.755735 
L 287.657077 105.921599 
L 287.786956 101.446778 
L 287.873542 97.215547 
L 288.176594 69.311069 
L 288.26318 71.882287 
L 288.349766 77.796087 
L 288.522938 102.290318 
L 288.652817 100.585195 
L 288.69611 99.277032 
L 289.042455 66.640612 
L 289.085748 65.891801 
L 289.302213 89.479339 
L 289.388799 106.742584 
L 289.432092 102.633147 
L 289.518678 101.631726 
L 289.69185 86.592358 
L 289.908316 69.924553 
L 290.124781 82.113026 
L 290.211367 105.244963 
L 290.297953 98.789853 
L 290.384539 103.29174 
L 290.427832 101.180635 
L 290.817469 66.690232 
L 290.990642 83.61967 
L 291.077228 103.178967 
L 291.120521 95.140529 
L 291.207107 99.236433 
L 291.2504 98.090663 
L 291.466865 85.969853 
L 291.68333 68.417909 
L 291.726623 69.437375 
L 291.943089 106.268939 
L 292.029675 100.968622 
L 292.072968 102.024175 
L 292.116261 101.198678 
L 292.24614 94.684927 
L 292.505898 68.291604 
L 292.722363 82.347594 
L 292.80895 102.732387 
L 292.895536 102.267764 
L 292.938829 106.733563 
L 292.982122 103.007552 
L 293.371759 67.867579 
L 293.415052 68.666009 
L 293.588224 87.318614 
L 293.67481 100.305519 
L 293.718104 95.014223 
L 293.847983 104.658545 
L 293.891276 102.556462 
L 294.23762 69.56368 
L 294.280913 69.71254 
L 294.367499 77.218691 
L 294.454085 89.001183 
L 294.497378 100.440846 
L 294.583964 98.347784 
L 294.627257 102.213633 
L 294.713844 100.382204 
L 294.843723 90.810057 
L 295.103481 69.491506 
L 295.146774 69.969662 
L 295.276653 77.647227 
L 295.363239 99.092084 
L 295.449825 98.054575 
L 295.493118 100.657369 
L 295.579704 99.290564 
L 295.79617 80.701112 
L 295.969342 67.596924 
L 296.012635 66.157944 
L 296.055928 67.57437 
L 296.445565 110.031036 
L 296.835203 70.799669 
L 296.921789 76.708958 
L 297.311426 116.436526 
L 297.398012 108.398088 
L 297.701064 76.32102 
L 297.78765 80.877037 
L 297.960822 115.033633 
L 298.090701 112.403774 
L 298.307166 103.151902 
L 298.566925 72.157452 
L 298.610218 72.964905 
L 298.740097 81.513076 
L 298.826683 96.484779 
L 298.869976 93.940627 
L 299.043148 97.761366 
L 299.21632 85.618002 
L 299.389492 67.77736 
L 299.432785 68.048015 
L 299.519372 70.876354 
L 299.605958 83.556517 
L 299.77913 98.690613 
L 299.822423 101.275364 
L 299.909009 100.030353 
L 300.298646 62.472533 
L 300.341939 64.123525 
L 300.471819 84.188044 
L 300.644991 94.94656 
L 300.77487 98.068108 
L 300.948042 77.850218 
L 301.121214 61.358338 
L 301.164507 59.693813 
L 301.510852 112.426329 
L 301.813903 158.640582 
L 301.900489 165.709175 
L 302.333419 289.443383 
L 302.420006 276.442946 
L 302.982815 103.923267 
L 303.026108 103.021085 
L 303.112694 108.127433 
L 303.155987 101.947489 
L 303.19928 102.736898 
L 303.285866 111.303112 
L 303.32916 109.444618 
L 303.415746 104.094681 
L 303.76209 53.568 
L 303.891969 75.202315 
L 304.065141 98.510177 
L 304.19502 104.081149 
L 304.238313 102.953422 
L 304.584658 61.719211 
L 304.627951 64.317494 
L 305.017588 103.909734 
L 305.060881 103.855603 
L 305.147467 97.910226 
L 305.493812 68.160788 
L 305.537105 69.446396 
L 305.883449 104.721698 
L 305.926742 104.162345 
L 306.056621 93.218882 
L 306.359673 73.43855 
L 306.446259 79.591429 
L 306.662724 104.058594 
L 306.792603 110.531747 
L 306.835896 109.855111 
L 307.182241 76.136073 
L 307.225534 76.158628 
L 307.31212 82.622759 
L 307.528585 106.508017 
L 307.615171 112.376709 
L 307.658464 111.997792 
L 307.701757 110.937729 
L 308.091394 78.269733 
L 308.134688 79.158382 
L 308.437739 113.396174 
L 308.524325 113.012747 
L 308.567618 113.702916 
L 308.957255 85.157889 
L 309.000548 87.273505 
L 309.260307 118.746111 
L 309.346893 124.709531 
L 309.390186 122.147335 
L 309.476772 120.771508 
L 309.779823 89.772548 
L 309.866409 92.091155 
L 310.082875 121.583472 
L 310.212754 134.574887 
L 310.256047 133.668195 
L 310.645684 103.350382 
L 310.688977 103.517285 
L 310.775563 119.499432 
L 311.078615 146.921243 
L 311.208494 143.799694 
L 311.511545 118.971656 
L 311.554838 119.558074 
L 311.944476 159.010476 
L 312.031062 154.711581 
L 312.377406 127.149933 
L 312.420699 126.974007 
L 312.767043 164.576937 
L 312.810336 162.303439 
L 313.28656 118.949102 
L 313.416439 122.183423 
L 313.676197 142.193811 
L 313.71949 142.414845 
L 314.109128 93.678995 
L 314.195714 101.536996 
L 314.412179 120.627159 
L 314.2823 101.081395 
L 314.498765 118.615294 
L 314.542058 118.552142 
L 314.628644 113.536012 
L 314.974989 72.419085 
L 315.018282 72.861154 
L 315.234747 95.284878 
L 315.364626 106.093014 
L 315.407919 105.921599 
L 315.494505 100.743077 
L 315.84085 68.260028 
L 315.884143 68.702097 
L 316.057315 81.179268 
L 316.27378 100.66188 
L 316.750004 65.070816 
L 317.009762 99.448446 
L 317.053055 100.806229 
L 317.096348 98.884583 
L 317.139641 99.570241 
L 317.356106 84.296306 
L 317.572571 66.090281 
L 317.659157 79.753821 
L 317.702451 70.713962 
L 317.745744 71.54848 
L 317.962209 102.344449 
L 318.005502 102.231676 
L 318.438432 67.506706 
L 318.525018 75.233891 
L 318.568311 69.933574 
L 318.611604 73.664095 
L 318.871363 103.88718 
L 318.914656 102.998531 
L 319.304293 63.75363 
L 319.347586 69.423842 
L 319.390879 72.879197 
L 319.434172 69.085524 
L 319.477465 70.668853 
L 319.737224 99.092084 
L 319.780517 101.221233 
L 319.82381 100.084484 
L 320.126861 66.920288 
L 320.170154 67.998395 
L 320.213447 74.665517 
L 320.25674 73.564855 
L 320.300033 70.488416 
L 320.603085 98.483112 
L 320.776257 90.909297 
L 321.036015 65.066305 
L 321.122601 75.008346 
L 321.165894 71.165052 
L 321.25248 81.260465 
L 321.468945 101.961022 
L 321.598825 92.704638 
L 321.858583 70.01026 
L 321.901876 70.163631 
L 321.988462 69.834335 
L 322.24822 98.839473 
L 322.334806 100.359649 
L 322.378099 99.953668 
L 322.724444 67.073659 
L 322.767737 72.175496 
L 322.81103 73.479148 
L 322.854323 66.956375 
L 322.897616 70.046347 
L 323.157374 100.373182 
L 323.24396 99.953668 
L 323.417132 79.117783 
L 323.503719 71.025214 
L 323.547012 73.68665 
L 323.590305 70.971083 
L 323.676891 76.307488 
L 323.720184 71.904841 
L 323.763477 75.139162 
L 324.066528 102.308362 
L 324.153114 98.618439 
L 324.456166 66.365446 
L 324.586045 67.687142 
L 324.672631 75.630851 
L 324.889096 100.138615 
L 324.975682 103.368425 
L 325.322026 62.513131 
L 325.365319 68.232962 
L 325.79825 101.839227 
L 325.841543 102.168524 
L 326.058008 76.068409 
L 326.144594 68.679542 
L 326.187887 69.491506 
L 326.23118 73.776868 
L 326.274473 63.541618 
L 326.317766 67.547304 
L 326.664111 104.13528 
L 326.707404 103.724787 
L 327.010455 72.671696 
L 327.053748 74.859486 
L 327.097041 72.84311 
L 327.140334 60.460668 
L 327.183627 62.770252 
L 327.529972 107.360579 
L 327.573265 106.841824 
L 327.876316 69.856889 
L 327.919609 74.706115 
L 327.962902 74.291112 
L 328.006195 65.395601 
L 328.049488 69.852378 
L 328.35254 107.969551 
L 328.482419 101.726455 
L 328.742177 78.427614 
L 328.828763 85.879635 
L 328.872056 77.196136 
L 328.915349 78.459191 
L 329.261694 116.689137 
L 329.304987 114.938904 
L 329.608038 83.376081 
L 329.651331 87.69302 
L 329.694624 85.541316 
L 329.737917 77.322442 
L 329.78121 81.63487 
L 330.084261 113.720959 
L 330.170848 107.577102 
L 330.473899 74.534701 
L 330.517192 78.129894 
L 330.560485 76.510478 
L 330.603778 67.669099 
L 330.647071 70.30798 
L 330.993415 103.368425 
L 331.166588 83.042273 
L 331.253174 70.30798 
L 331.296467 70.3576 
L 331.33976 75.206826 
L 331.383053 75.188782 
L 331.426346 62.251498 
L 331.469639 63.961132 
L 331.815983 103.526307 
L 331.902569 100.774653 
L 332.075741 80.498121 
L 332.292207 61.056107 
L 332.3355 63.113081 
L 332.551965 89.971028 
L 332.638551 95.632218 
L 332.725137 100.341606 
L 333.158068 68.859978 
L 333.244654 87.09758 
L 333.980635 257.127238 
L 334.023929 255.760433 
L 334.110515 266.009216 
L 334.413566 184.591836 
L 334.673324 118.182247 
L 334.889789 69.491506 
L 334.933082 70.249338 
L 335.149548 95.140529 
L 335.192841 95.451781 
L 335.366013 91.775391 
L 335.582478 70.375643 
L 335.625771 73.903174 
L 335.669064 72.996481 
L 335.75565 60.081751 
L 335.798943 65.400112 
L 336.101995 106.72003 
L 336.145288 106.183232 
L 336.405046 84.720331 
L 336.578218 65.860225 
L 336.621511 67.073659 
L 337.011149 106.688453 
L 337.054442 105.073548 
L 337.444079 66.803004 
L 337.487372 69.044926 
L 337.920303 108.10939 
L 338.30994 70.127544 
L 338.396526 76.578142 
L 338.569698 98.442514 
L 338.656284 114.911839 
L 338.699577 113.265357 
L 338.829457 106.706497 
L 339.132508 83.276841 
L 339.219094 74.191872 
L 339.262387 77.430704 
L 339.565438 116.865062 
L 339.608731 117.478546 
L 339.695317 110.599411 
L 339.911783 93.385786 
L 339.955076 96.074287 
L 340.041662 78.472723 
L 340.084955 82.185201 
L 340.214834 93.178284 
L 340.474592 123.090115 
L 340.517885 122.372881 
L 340.647764 110.252071 
L 340.907523 84.56696 
L 340.994109 89.380099 
L 341.29716 128.07918 
L 341.340453 130.11811 
L 341.383746 129.351256 
L 341.556918 111.695561 
L 341.730091 94.951071 
L 341.773384 95.348031 
L 342.033142 120.938412 
L 342.249607 145.942376 
L 342.379486 130.469961 
L 342.639245 104.563816 
L 342.812417 126.68982 
L 343.028882 155.785177 
L 343.072175 154.959681 
L 343.461812 122.296195 
L 343.548398 123.825393 
L 343.721571 144.341003 
L 343.938036 161.626803 
L 343.981329 162.65529 
L 344.154501 150.28638 
L 344.327673 126.24324 
L 344.414259 130.61431 
L 344.674018 162.790617 
L 344.760604 161.022341 
L 344.803897 160.941145 
L 344.84719 161.144136 
L 345.150241 118.457413 
L 345.193534 112.678939 
L 345.28012 115.380973 
L 345.539879 139.275253 
L 345.583172 138.043775 
L 345.713051 135.603374 
L 345.972809 110.089678 
L 346.102688 89.677819 
L 346.232567 99.434913 
L 346.405739 113.22927 
L 346.449032 115.823042 
L 346.492326 114.929883 
L 346.535619 114.22167 
L 346.578912 114.433683 
L 346.925256 74.773779 
L 347.011842 77.295376 
L 347.358186 107.527482 
L 347.444773 106.138123 
L 347.791117 69.062969 
L 348.007582 81.192801 
L 348.224047 107.162099 
L 348.310633 105.145723 
L 348.656978 66.775939 
L 348.960029 94.306011 
L 349.133201 105.199854 
L 349.39296 83.561028 
L 349.522839 63.65439 
L 349.739304 82.383681 
L 349.955769 104.09017 
L 349.999062 103.751852 
L 350.085648 99.083062 
L 350.431993 70.889887 
L 350.475286 71.760492 
L 350.864923 106.733563 
L 350.951509 101.252809 
L 351.211267 71.521414 
L 351.297854 68.941175 
L 351.427733 80.038009 
L 351.687491 104.446532 
L 351.730784 103.300762 
L 351.860663 96.060754 
L 352.163714 66.369957 
L 352.207007 68.584813 
L 352.553352 108.619122 
L 352.596645 107.26585 
L 352.856403 84.377502 
L 352.942989 67.254095 
L 352.986282 68.061548 
L 353.159454 80.953723 
L 353.419213 104.545772 
L 353.505799 100.255899 
L 353.592385 95.907383 
L 353.678971 96.137439 
L 353.852143 68.020949 
L 353.938729 72.292779 
L 354.241781 110.74376 
L 354.285074 110.676096 
L 354.761297 67.249584 
L 354.847883 72.99197 
L 355.150935 108.470262 
L 355.194228 105.52915 
L 355.627158 66.144412 
L 355.670451 69.676453 
L 355.973502 103.661634 
L 356.016795 102.89478 
L 356.060088 102.759453 
L 356.103382 100.842317 
L 356.36314 71.638698 
L 356.449726 67.77736 
L 356.493019 70.339556 
L 356.882656 104.184899 
L 356.969242 100.688946 
L 357.35888 65.864735 
L 357.402173 66.347403 
L 357.532052 80.723667 
L 357.748517 104.861536 
L 357.79181 103.530818 
L 357.878396 92.591866 
L 357.921689 94.405251 
L 357.964982 96.791521 
L 358.138155 72.152941 
L 358.268034 70.510971 
L 358.397913 83.412168 
L 358.614378 101.848249 
L 358.744257 94.206771 
L 358.78755 98.356806 
L 358.830843 97.120817 
L 359.004016 68.990795 
L 359.090602 67.213497 
L 359.263774 86.881056 
L 359.480239 106.142634 
L 359.566825 105.100614 
L 359.91317 77.529944 
L 359.956463 77.385595 
L 360.043049 83.908368 
L 360.3461 112.83231 
L 360.432686 108.668742 
L 360.77903 78.269733 
L 360.865617 78.941858 
L 360.952203 85.437566 
L 361.168668 107.184653 
L 361.211961 107.004217 
L 361.298547 102.637658 
L 361.428426 88.396721 
L 361.515012 68.165299 
L 361.558305 69.753138 
L 361.601598 69.91102 
L 361.688184 66.514306 
L 361.861357 80.579318 
L 361.991236 100.201768 
L 362.034529 99.76872 
L 362.077822 100.517531 
L 362.121115 99.949157 
L 362.294287 90.494293 
L 362.467459 64.412223 
L 362.510752 62.643947 
L 362.554045 63.55064 
L 362.683924 75.301555 
L 362.943683 102.285807 
L 363.116855 93.083555 
L 363.290027 68.941175 
L 363.419906 64.290428 
L 363.463199 65.702343 
L 363.852837 103.720276 
L 364.112595 76.695426 
L 364.155888 77.205158 
L 364.285767 94.391718 
L 364.978456 256.955823 
L 365.021749 257.483599 
L 365.108335 232.10072 
L 365.368093 164.473186 
L 365.627851 116.801909 
L 365.671145 115.538855 
L 366.017489 59.508866 
L 366.060782 61.159858 
L 366.32054 89.488361 
L 366.407126 86.443498 
L 366.493712 83.164068 
L 366.537005 86.033005 
L 366.580298 82.270908 
L 366.753471 64.281407 
L 366.840057 60.663658 
L 366.88335 62.242476 
L 367.272987 104.08566 
L 367.359573 100.143126 
L 367.402866 100.937046 
L 367.619332 70.858311 
L 367.705918 67.07817 
L 367.749211 67.92622 
L 368.225434 106.12459 
L 368.268727 103.517285 
L 368.441899 74.701604 
L 368.528485 71.147009 
L 368.571779 71.386087 
L 368.658365 75.788733 
L 368.831537 95.704392 
L 369.004709 107.342535 
L 369.091295 107.856779 
L 369.134588 105.515617 
L 369.351053 75.540633 
L 369.437639 70.104989 
L 369.480932 72.549901 
L 369.827277 111.433929 
L 369.87057 116.080164 
L 369.957156 115.795977 
L 370.260207 76.781133 
L 370.346793 77.999078 
L 370.563259 102.989509 
L 370.736431 114.862219 
L 370.779724 114.108897 
L 370.823017 116.824464 
L 371.169361 79.681647 
L 371.255947 87.94112 
L 371.688878 126.130467 
L 371.905343 89.587601 
L 371.948636 90.043203 
L 372.035222 87.74715 
L 372.078515 89.095912 
L 372.42486 128.300214 
L 372.468153 128.507716 
L 372.511446 132.680306 
L 372.554739 131.836766 
L 372.727911 100.955089 
L 372.771204 98.338763 
L 372.85779 99.592795 
L 373.074255 116.711691 
L 373.29072 137.556597 
L 373.334014 137.317519 
L 373.377307 141.873536 
L 373.4206 139.473733 
L 373.593772 116.698158 
L 373.766944 112.561656 
L 373.940116 128.525759 
L 374.156581 151.666718 
L 374.243167 161.180223 
L 374.28646 157.070786 
L 374.502926 125.476386 
L 374.589512 120.965478 
L 374.632805 121.885703 
L 374.805977 138.864761 
L 375.065735 164.179977 
L 375.109028 167.310547 
L 375.455373 127.244662 
L 375.541959 130.469961 
L 375.715131 143.587682 
L 375.974889 164.288239 
L 376.191354 123.193866 
L 376.364527 108.772493 
L 376.40782 109.976905 
L 376.797457 140.55184 
L 376.84075 137.831763 
L 377.057215 96.534399 
L 377.230388 85.672133 
L 377.273681 84.697777 
L 377.663318 116.540277 
L 377.706611 114.749446 
L 377.923076 80.092139 
L 378.052955 69.112589 
L 378.096248 69.735095 
L 378.182835 77.529944 
L 378.442593 105.533661 
L 378.485886 102.962443 
L 378.529179 107.098946 
L 378.572472 105.357736 
L 378.745644 79.135827 
L 378.918816 70.483905 
L 379.005402 70.722983 
L 379.39504 105.871979 
L 379.568212 86.926165 
L 379.784677 68.760738 
L 379.82797 69.473462 
L 380.044436 88.933519 
L 380.260901 107.527482 
L 380.693831 63.992709 
L 380.737124 67.37589 
L 381.083469 106.494484 
L 381.126762 107.225252 
L 381.299934 84.106848 
L 381.559692 67.060126 
L 381.602985 68.616389 
L 381.81945 99.669481 
L 381.949329 107.951508 
L 381.992623 107.279382 
L 382.252381 74.773779 
L 382.38226 68.887044 
L 382.425553 70.100478 
L 382.771897 102.105371 
L 382.81519 109.160431 
L 382.858483 108.190586 
L 383.074949 79.077185 
L 383.248121 71.165052 
L 383.291414 71.557501 
L 383.421293 80.737199 
L 383.681051 116.432015 
L 383.724344 115.078742 
L 383.94081 79.785398 
L 384.113982 70.691407 
L 384.157275 71.056791 
L 384.243861 79.221534 
L 384.546912 112.367687 
L 384.590205 110.585878 
L 384.80667 81.355194 
L 384.979843 71.133476 
L 385.066429 74.444483 
L 385.412773 116.292177 
L 385.585945 93.169262 
L 385.845704 69.581724 
L 385.975583 77.426193 
L 386.235341 110.94224 
L 386.278634 108.564991 
L 386.495099 85.234575 
L 386.668271 71.715383 
L 386.711564 70.037325 
L 386.754857 70.610211 
L 387.057909 99.980733 
L 387.101202 107.026772 
L 387.144495 106.729052 
L 387.490839 69.338135 
L 387.534132 67.393933 
L 387.577425 67.804426 
L 387.664011 73.519746 
L 387.967063 102.4482 
L 388.010356 102.060262 
L 388.140235 98.478601 
L 388.443286 65.034728 
L 388.486579 64.858803 
L 388.832924 108.398088 
L 388.876217 108.298848 
L 389.092682 83.033252 
L 389.309147 68.715629 
L 389.35244 69.099056 
L 389.439026 78.2562 
L 389.698785 117.374795 
L 389.742078 110.621965 
L 389.828664 105.871979 
L 390.175008 74.300134 
L 390.34818 91.757348 
L 390.564645 119.445302 
L 390.737818 99.786764 
L 390.781111 99.272521 
L 390.867697 89.064336 
L 390.997576 74.453504 
L 391.040869 77.074342 
L 391.257334 89.912386 
L 391.430506 113.793134 
L 391.603679 96.051732 
L 391.733558 76.907438 
L 391.90673 62.174813 
L 391.950023 63.50553 
L 392.296367 107.049326 
L 392.469539 89.745483 
L 392.556126 81.355194 
L 392.729298 67.858557 
L 392.815884 65.152012 
L 393.032349 91.653597 
L 393.162228 104.279629 
L 393.508573 68.27356 
L 393.551866 68.661498 
L 393.638452 65.553483 
L 393.681745 66.866157 
L 393.941503 96.335919 
L 394.028089 105.353225 
L 394.201261 90.810057 
L 394.33114 81.964166 
L 394.374433 84.688755 
L 394.547606 115.06521 
L 395.153708 266.293403 
L 395.197001 265.873888 
L 395.240294 261.353959 
L 395.629932 140.19999 
L 395.673225 141.007442 
L 395.716518 140.772875 
L 396.062862 79.758332 
L 396.236034 66.203054 
L 396.279327 67.77736 
L 396.4525 78.608051 
L 396.582379 95.329987 
L 396.668965 83.231731 
L 396.712258 85.243596 
L 396.798844 82.947544 
L 397.015309 65.422666 
L 397.058602 65.684299 
L 397.44824 109.665653 
L 397.534826 102.962443 
L 397.578119 102.727876 
L 397.924463 68.138233 
L 398.011049 70.637276 
L 398.227514 97.242612 
L 398.314101 106.909488 
L 398.357394 103.178967 
L 398.400687 104.216476 
L 398.44398 102.64668 
L 398.487273 97.644083 
L 398.487273 97.644083 
" style="fill:none;stroke:#1f77b4;stroke-linecap:square;stroke-width:1.5;"/>
   </g>
   <g id="patch_3">
    <path d="M 57.6 307.584 
L 57.6 41.472 
" style="fill:none;stroke:#000000;stroke-linecap:square;stroke-linejoin:miter;stroke-width:0.8;"/>
   </g>
   <g id="patch_4">
    <path d="M 414.72 307.584 
L 414.72 41.472 
" style="fill:none;stroke:#000000;stroke-linecap:square;stroke-linejoin:miter;stroke-width:0.8;"/>
   </g>
   <g id="patch_5">
    <path d="M 57.6 307.584 
L 414.72 307.584 
" style="fill:none;stroke:#000000;stroke-linecap:square;stroke-linejoin:miter;stroke-width:0.8;"/>
   </g>
   <g id="patch_6">
    <path d="M 57.6 41.472 
L 414.72 41.472 
" style="fill:none;stroke:#000000;stroke-linecap:square;stroke-linejoin:miter;stroke-width:0.8;"/>
   </g>
  </g>
 </g>
 <defs>
  <clipPath id="p6dd7daaf0e">
   <rect height="266.112" width="357.12" x="57.6" y="41.472"/>
  </clipPath>
 </defs>
</svg>
