<?xml version="1.0" encoding="utf-8" standalone="no"?>
<!DOCTYPE svg PUBLIC "-//W3C//DTD SVG 1.1//EN"
  "http://www.w3.org/Graphics/SVG/1.1/DTD/svg11.dtd">
<!-- Created with matplotlib (http://matplotlib.org/) -->
<svg height="345.6pt" version="1.1" viewBox="0 0 460.8 345.6" width="460.8pt" xmlns="http://www.w3.org/2000/svg" xmlns:xlink="http://www.w3.org/1999/xlink">
 <defs>
  <style type="text/css">
*{stroke-linecap:butt;stroke-linejoin:round;}
  </style>
 </defs>
 <g id="figure_1">
  <g id="patch_1">
   <path d="M 0 345.6 
L 460.8 345.6 
L 460.8 0 
L 0 0 
z
" style="fill:#ffffff;"/>
  </g>
  <g id="axes_1">
   <g id="patch_2">
    <path d="M 57.6 307.584 
L 414.72 307.584 
L 414.72 41.472 
L 57.6 41.472 
z
" style="fill:#ffffff;"/>
   </g>
   <g id="matplotlib.axis_1">
    <g id="xtick_1">
     <g id="line2d_1">
      <defs>
       <path d="M 0 0 
L 0 3.5 
" id="m256ec48e14" style="stroke:#000000;stroke-width:0.8;"/>
      </defs>
      <g>
       <use style="stroke:#000000;stroke-width:0.8;" x="73.832727" xlink:href="#m256ec48e14" y="307.584"/>
      </g>
     </g>
     <g id="text_1">
      <!-- 0 -->
      <defs>
       <path d="M 31.78125 66.40625 
Q 24.171875 66.40625 20.328125 58.90625 
Q 16.5 51.421875 16.5 36.375 
Q 16.5 21.390625 20.328125 13.890625 
Q 24.171875 6.390625 31.78125 6.390625 
Q 39.453125 6.390625 43.28125 13.890625 
Q 47.125 21.390625 47.125 36.375 
Q 47.125 51.421875 43.28125 58.90625 
Q 39.453125 66.40625 31.78125 66.40625 
z
M 31.78125 74.21875 
Q 44.046875 74.21875 50.515625 64.515625 
Q 56.984375 54.828125 56.984375 36.375 
Q 56.984375 17.96875 50.515625 8.265625 
Q 44.046875 -1.421875 31.78125 -1.421875 
Q 19.53125 -1.421875 13.0625 8.265625 
Q 6.59375 17.96875 6.59375 36.375 
Q 6.59375 54.828125 13.0625 64.515625 
Q 19.53125 74.21875 31.78125 74.21875 
z
" id="DejaVuSans-30"/>
      </defs>
      <g transform="translate(70.651477 322.182437)scale(0.1 -0.1)">
       <use xlink:href="#DejaVuSans-30"/>
      </g>
     </g>
    </g>
    <g id="xtick_2">
     <g id="line2d_2">
      <g>
       <use style="stroke:#000000;stroke-width:0.8;" x="117.125772" xlink:href="#m256ec48e14" y="307.584"/>
      </g>
     </g>
     <g id="text_2">
      <!-- 2 -->
      <defs>
       <path d="M 19.1875 8.296875 
L 53.609375 8.296875 
L 53.609375 0 
L 7.328125 0 
L 7.328125 8.296875 
Q 12.9375 14.109375 22.625 23.890625 
Q 32.328125 33.6875 34.8125 36.53125 
Q 39.546875 41.84375 41.421875 45.53125 
Q 43.3125 49.21875 43.3125 52.78125 
Q 43.3125 58.59375 39.234375 62.25 
Q 35.15625 65.921875 28.609375 65.921875 
Q 23.96875 65.921875 18.8125 64.3125 
Q 13.671875 62.703125 7.8125 59.421875 
L 7.8125 69.390625 
Q 13.765625 71.78125 18.9375 73 
Q 24.125 74.21875 28.421875 74.21875 
Q 39.75 74.21875 46.484375 68.546875 
Q 53.21875 62.890625 53.21875 53.421875 
Q 53.21875 48.921875 51.53125 44.890625 
Q 49.859375 40.875 45.40625 35.40625 
Q 44.1875 33.984375 37.640625 27.21875 
Q 31.109375 20.453125 19.1875 8.296875 
z
" id="DejaVuSans-32"/>
      </defs>
      <g transform="translate(113.944522 322.182437)scale(0.1 -0.1)">
       <use xlink:href="#DejaVuSans-32"/>
      </g>
     </g>
    </g>
    <g id="xtick_3">
     <g id="line2d_3">
      <g>
       <use style="stroke:#000000;stroke-width:0.8;" x="160.418818" xlink:href="#m256ec48e14" y="307.584"/>
      </g>
     </g>
     <g id="text_3">
      <!-- 4 -->
      <defs>
       <path d="M 37.796875 64.3125 
L 12.890625 25.390625 
L 37.796875 25.390625 
z
M 35.203125 72.90625 
L 47.609375 72.90625 
L 47.609375 25.390625 
L 58.015625 25.390625 
L 58.015625 17.1875 
L 47.609375 17.1875 
L 47.609375 0 
L 37.796875 0 
L 37.796875 17.1875 
L 4.890625 17.1875 
L 4.890625 26.703125 
z
" id="DejaVuSans-34"/>
      </defs>
      <g transform="translate(157.237568 322.182437)scale(0.1 -0.1)">
       <use xlink:href="#DejaVuSans-34"/>
      </g>
     </g>
    </g>
    <g id="xtick_4">
     <g id="line2d_4">
      <g>
       <use style="stroke:#000000;stroke-width:0.8;" x="203.711863" xlink:href="#m256ec48e14" y="307.584"/>
      </g>
     </g>
     <g id="text_4">
      <!-- 6 -->
      <defs>
       <path d="M 33.015625 40.375 
Q 26.375 40.375 22.484375 35.828125 
Q 18.609375 31.296875 18.609375 23.390625 
Q 18.609375 15.53125 22.484375 10.953125 
Q 26.375 6.390625 33.015625 6.390625 
Q 39.65625 6.390625 43.53125 10.953125 
Q 47.40625 15.53125 47.40625 23.390625 
Q 47.40625 31.296875 43.53125 35.828125 
Q 39.65625 40.375 33.015625 40.375 
z
M 52.59375 71.296875 
L 52.59375 62.3125 
Q 48.875 64.0625 45.09375 64.984375 
Q 41.3125 65.921875 37.59375 65.921875 
Q 27.828125 65.921875 22.671875 59.328125 
Q 17.53125 52.734375 16.796875 39.40625 
Q 19.671875 43.65625 24.015625 45.921875 
Q 28.375 48.1875 33.59375 48.1875 
Q 44.578125 48.1875 50.953125 41.515625 
Q 57.328125 34.859375 57.328125 23.390625 
Q 57.328125 12.15625 50.6875 5.359375 
Q 44.046875 -1.421875 33.015625 -1.421875 
Q 20.359375 -1.421875 13.671875 8.265625 
Q 6.984375 17.96875 6.984375 36.375 
Q 6.984375 53.65625 15.1875 63.9375 
Q 23.390625 74.21875 37.203125 74.21875 
Q 40.921875 74.21875 44.703125 73.484375 
Q 48.484375 72.75 52.59375 71.296875 
z
" id="DejaVuSans-36"/>
      </defs>
      <g transform="translate(200.530613 322.182437)scale(0.1 -0.1)">
       <use xlink:href="#DejaVuSans-36"/>
      </g>
     </g>
    </g>
    <g id="xtick_5">
     <g id="line2d_5">
      <g>
       <use style="stroke:#000000;stroke-width:0.8;" x="247.004908" xlink:href="#m256ec48e14" y="307.584"/>
      </g>
     </g>
     <g id="text_5">
      <!-- 8 -->
      <defs>
       <path d="M 31.78125 34.625 
Q 24.75 34.625 20.71875 30.859375 
Q 16.703125 27.09375 16.703125 20.515625 
Q 16.703125 13.921875 20.71875 10.15625 
Q 24.75 6.390625 31.78125 6.390625 
Q 38.8125 6.390625 42.859375 10.171875 
Q 46.921875 13.96875 46.921875 20.515625 
Q 46.921875 27.09375 42.890625 30.859375 
Q 38.875 34.625 31.78125 34.625 
z
M 21.921875 38.8125 
Q 15.578125 40.375 12.03125 44.71875 
Q 8.5 49.078125 8.5 55.328125 
Q 8.5 64.0625 14.71875 69.140625 
Q 20.953125 74.21875 31.78125 74.21875 
Q 42.671875 74.21875 48.875 69.140625 
Q 55.078125 64.0625 55.078125 55.328125 
Q 55.078125 49.078125 51.53125 44.71875 
Q 48 40.375 41.703125 38.8125 
Q 48.828125 37.15625 52.796875 32.3125 
Q 56.78125 27.484375 56.78125 20.515625 
Q 56.78125 9.90625 50.3125 4.234375 
Q 43.84375 -1.421875 31.78125 -1.421875 
Q 19.734375 -1.421875 13.25 4.234375 
Q 6.78125 9.90625 6.78125 20.515625 
Q 6.78125 27.484375 10.78125 32.3125 
Q 14.796875 37.15625 21.921875 38.8125 
z
M 18.3125 54.390625 
Q 18.3125 48.734375 21.84375 45.5625 
Q 25.390625 42.390625 31.78125 42.390625 
Q 38.140625 42.390625 41.71875 45.5625 
Q 45.3125 48.734375 45.3125 54.390625 
Q 45.3125 60.0625 41.71875 63.234375 
Q 38.140625 66.40625 31.78125 66.40625 
Q 25.390625 66.40625 21.84375 63.234375 
Q 18.3125 60.0625 18.3125 54.390625 
z
" id="DejaVuSans-38"/>
      </defs>
      <g transform="translate(243.823658 322.182437)scale(0.1 -0.1)">
       <use xlink:href="#DejaVuSans-38"/>
      </g>
     </g>
    </g>
    <g id="xtick_6">
     <g id="line2d_6">
      <g>
       <use style="stroke:#000000;stroke-width:0.8;" x="290.297953" xlink:href="#m256ec48e14" y="307.584"/>
      </g>
     </g>
     <g id="text_6">
      <!-- 10 -->
      <defs>
       <path d="M 12.40625 8.296875 
L 28.515625 8.296875 
L 28.515625 63.921875 
L 10.984375 60.40625 
L 10.984375 69.390625 
L 28.421875 72.90625 
L 38.28125 72.90625 
L 38.28125 8.296875 
L 54.390625 8.296875 
L 54.390625 0 
L 12.40625 0 
z
" id="DejaVuSans-31"/>
      </defs>
      <g transform="translate(283.935453 322.182437)scale(0.1 -0.1)">
       <use xlink:href="#DejaVuSans-31"/>
       <use x="63.623047" xlink:href="#DejaVuSans-30"/>
      </g>
     </g>
    </g>
    <g id="xtick_7">
     <g id="line2d_7">
      <g>
       <use style="stroke:#000000;stroke-width:0.8;" x="333.590998" xlink:href="#m256ec48e14" y="307.584"/>
      </g>
     </g>
     <g id="text_7">
      <!-- 12 -->
      <g transform="translate(327.228498 322.182437)scale(0.1 -0.1)">
       <use xlink:href="#DejaVuSans-31"/>
       <use x="63.623047" xlink:href="#DejaVuSans-32"/>
      </g>
     </g>
    </g>
    <g id="xtick_8">
     <g id="line2d_8">
      <g>
       <use style="stroke:#000000;stroke-width:0.8;" x="376.884043" xlink:href="#m256ec48e14" y="307.584"/>
      </g>
     </g>
     <g id="text_8">
      <!-- 14 -->
      <g transform="translate(370.521543 322.182437)scale(0.1 -0.1)">
       <use xlink:href="#DejaVuSans-31"/>
       <use x="63.623047" xlink:href="#DejaVuSans-34"/>
      </g>
     </g>
    </g>
   </g>
   <g id="matplotlib.axis_2">
    <g id="ytick_1">
     <g id="line2d_9">
      <defs>
       <path d="M 0 0 
L -3.5 0 
" id="m2ce38bd53a" style="stroke:#000000;stroke-width:0.8;"/>
      </defs>
      <g>
       <use style="stroke:#000000;stroke-width:0.8;" x="57.6" xlink:href="#m2ce38bd53a" y="271.759988"/>
      </g>
     </g>
     <g id="text_9">
      <!-- −40000 -->
      <defs>
       <path d="M 10.59375 35.5 
L 73.1875 35.5 
L 73.1875 27.203125 
L 10.59375 27.203125 
z
" id="DejaVuSans-2212"/>
      </defs>
      <g transform="translate(10.407812 275.559207)scale(0.1 -0.1)">
       <use xlink:href="#DejaVuSans-2212"/>
       <use x="83.789062" xlink:href="#DejaVuSans-34"/>
       <use x="147.412109" xlink:href="#DejaVuSans-30"/>
       <use x="211.035156" xlink:href="#DejaVuSans-30"/>
       <use x="274.658203" xlink:href="#DejaVuSans-30"/>
       <use x="338.28125" xlink:href="#DejaVuSans-30"/>
      </g>
     </g>
    </g>
    <g id="ytick_2">
     <g id="line2d_10">
      <g>
       <use style="stroke:#000000;stroke-width:0.8;" x="57.6" xlink:href="#m2ce38bd53a" y="228.101575"/>
      </g>
     </g>
     <g id="text_10">
      <!-- −30000 -->
      <defs>
       <path d="M 40.578125 39.3125 
Q 47.65625 37.796875 51.625 33 
Q 55.609375 28.21875 55.609375 21.1875 
Q 55.609375 10.40625 48.1875 4.484375 
Q 40.765625 -1.421875 27.09375 -1.421875 
Q 22.515625 -1.421875 17.65625 -0.515625 
Q 12.796875 0.390625 7.625 2.203125 
L 7.625 11.71875 
Q 11.71875 9.328125 16.59375 8.109375 
Q 21.484375 6.890625 26.8125 6.890625 
Q 36.078125 6.890625 40.9375 10.546875 
Q 45.796875 14.203125 45.796875 21.1875 
Q 45.796875 27.640625 41.28125 31.265625 
Q 36.765625 34.90625 28.71875 34.90625 
L 20.21875 34.90625 
L 20.21875 43.015625 
L 29.109375 43.015625 
Q 36.375 43.015625 40.234375 45.921875 
Q 44.09375 48.828125 44.09375 54.296875 
Q 44.09375 59.90625 40.109375 62.90625 
Q 36.140625 65.921875 28.71875 65.921875 
Q 24.65625 65.921875 20.015625 65.03125 
Q 15.375 64.15625 9.8125 62.3125 
L 9.8125 71.09375 
Q 15.4375 72.65625 20.34375 73.4375 
Q 25.25 74.21875 29.59375 74.21875 
Q 40.828125 74.21875 47.359375 69.109375 
Q 53.90625 64.015625 53.90625 55.328125 
Q 53.90625 49.265625 50.4375 45.09375 
Q 46.96875 40.921875 40.578125 39.3125 
z
" id="DejaVuSans-33"/>
      </defs>
      <g transform="translate(10.407812 231.900794)scale(0.1 -0.1)">
       <use xlink:href="#DejaVuSans-2212"/>
       <use x="83.789062" xlink:href="#DejaVuSans-33"/>
       <use x="147.412109" xlink:href="#DejaVuSans-30"/>
       <use x="211.035156" xlink:href="#DejaVuSans-30"/>
       <use x="274.658203" xlink:href="#DejaVuSans-30"/>
       <use x="338.28125" xlink:href="#DejaVuSans-30"/>
      </g>
     </g>
    </g>
    <g id="ytick_3">
     <g id="line2d_11">
      <g>
       <use style="stroke:#000000;stroke-width:0.8;" x="57.6" xlink:href="#m2ce38bd53a" y="184.443162"/>
      </g>
     </g>
     <g id="text_11">
      <!-- −20000 -->
      <g transform="translate(10.407812 188.24238)scale(0.1 -0.1)">
       <use xlink:href="#DejaVuSans-2212"/>
       <use x="83.789062" xlink:href="#DejaVuSans-32"/>
       <use x="147.412109" xlink:href="#DejaVuSans-30"/>
       <use x="211.035156" xlink:href="#DejaVuSans-30"/>
       <use x="274.658203" xlink:href="#DejaVuSans-30"/>
       <use x="338.28125" xlink:href="#DejaVuSans-30"/>
      </g>
     </g>
    </g>
    <g id="ytick_4">
     <g id="line2d_12">
      <g>
       <use style="stroke:#000000;stroke-width:0.8;" x="57.6" xlink:href="#m2ce38bd53a" y="140.784748"/>
      </g>
     </g>
     <g id="text_12">
      <!-- −10000 -->
      <g transform="translate(10.407812 144.583967)scale(0.1 -0.1)">
       <use xlink:href="#DejaVuSans-2212"/>
       <use x="83.789062" xlink:href="#DejaVuSans-31"/>
       <use x="147.412109" xlink:href="#DejaVuSans-30"/>
       <use x="211.035156" xlink:href="#DejaVuSans-30"/>
       <use x="274.658203" xlink:href="#DejaVuSans-30"/>
       <use x="338.28125" xlink:href="#DejaVuSans-30"/>
      </g>
     </g>
    </g>
    <g id="ytick_5">
     <g id="line2d_13">
      <g>
       <use style="stroke:#000000;stroke-width:0.8;" x="57.6" xlink:href="#m2ce38bd53a" y="97.126335"/>
      </g>
     </g>
     <g id="text_13">
      <!-- 0 -->
      <g transform="translate(44.2375 100.925554)scale(0.1 -0.1)">
       <use xlink:href="#DejaVuSans-30"/>
      </g>
     </g>
    </g>
    <g id="ytick_6">
     <g id="line2d_14">
      <g>
       <use style="stroke:#000000;stroke-width:0.8;" x="57.6" xlink:href="#m2ce38bd53a" y="53.467922"/>
      </g>
     </g>
     <g id="text_14">
      <!-- 10000 -->
      <g transform="translate(18.7875 57.26714)scale(0.1 -0.1)">
       <use xlink:href="#DejaVuSans-31"/>
       <use x="63.623047" xlink:href="#DejaVuSans-30"/>
       <use x="127.246094" xlink:href="#DejaVuSans-30"/>
       <use x="190.869141" xlink:href="#DejaVuSans-30"/>
       <use x="254.492188" xlink:href="#DejaVuSans-30"/>
      </g>
     </g>
    </g>
   </g>
   <g id="line2d_15">
    <path clip-path="url(#p29895cd525)" d="M 73.832727 100.430941 
L 73.87602 91.52899 
L 73.962606 92.506939 
L 74.092486 95.1832 
L 74.43883 130.769172 
L 74.482123 126.778793 
L 74.612002 118.527353 
L 74.655295 120.160178 
L 74.87176 97.88129 
L 74.915053 99.592699 
L 75.261398 141.321411 
L 75.304691 141.277752 
L 75.347984 140.937217 
L 75.607742 118.540451 
L 75.737621 112.445736 
L 75.910793 130.764806 
L 76.127259 155.890223 
L 76.257138 147.368101 
L 76.560189 116.143604 
L 76.646775 120.190739 
L 76.949827 152.214185 
L 76.99312 152.799208 
L 77.079706 147.682442 
L 77.42605 108.900673 
L 77.469343 109.328526 
L 77.902274 132.9128 
L 78.335204 86.298712 
L 78.378497 86.661077 
L 78.551669 100.391648 
L 78.681548 111.24513 
L 78.768134 107.106312 
L 78.9846 89.376631 
L 79.157772 68.385665 
L 79.244358 69.896247 
L 79.41753 90.895943 
L 79.504116 98.42702 
L 79.547409 97.658632 
L 79.720581 91.066211 
L 80.023633 61.749587 
L 80.110219 64.814407 
L 80.41327 95.611052 
L 80.543149 92.629182 
L 80.932787 57.837793 
L 80.97608 58.80701 
L 81.279131 95.545564 
L 81.322424 95.139541 
L 81.538889 86.70037 
L 81.712061 61.66227 
L 81.755355 60.758541 
L 81.798648 61.858733 
L 81.885234 68.302715 
L 82.015113 82.600845 
L 82.144992 92.803816 
L 82.40475 87.416368 
L 82.491336 68.128081 
L 82.534629 69.210809 
L 82.664508 62.696974 
L 82.707802 65.246626 
L 83.097439 95.846807 
L 83.184025 90.620895 
L 83.227318 91.91755 
L 83.487076 62.46995 
L 83.573662 64.115873 
L 83.920007 95.606686 
L 83.9633 93.943301 
L 84.136472 86.250688 
L 84.309644 62.945827 
L 84.352937 61.317368 
L 84.39623 62.063927 
L 84.482816 68.809152 
L 84.742575 98.095216 
L 84.829161 96.501684 
L 85.002333 84.229304 
L 85.175505 60.946272 
L 85.218798 58.793912 
L 85.262091 60.291396 
L 85.39197 75.820693 
L 85.608436 98.658409 
L 85.651729 98.640946 
L 85.868194 85.259642 
L 86.084659 56.445089 
L 86.127952 54.318925 
L 86.171245 56.960259 
L 86.517589 99.649455 
L 86.690762 94.24891 
L 86.863934 68.09752 
L 86.95052 62.081391 
L 86.993813 62.173073 
L 87.166985 78.160784 
L 87.38345 95.1832 
L 87.599916 80.099218 
L 87.859674 63.858288 
L 87.902967 64.41275 
L 88.206018 96.497318 
L 88.249311 95.515004 
L 88.335897 94.083008 
L 88.37919 96.113124 
L 88.682242 60.968101 
L 88.768828 63.303826 
L 89.071879 97.667363 
L 89.158465 94.253275 
L 89.201758 92.690304 
L 89.245051 96.462391 
L 89.288344 92.733963 
L 89.461517 66.761573 
L 89.548103 59.274155 
L 89.591396 60.169152 
L 89.93774 98.330971 
L 90.024326 95.414589 
L 90.413964 62.033366 
L 90.457257 63.639996 
L 90.846894 97.964241 
L 90.890187 97.575681 
L 90.976773 95.628515 
L 91.149945 67.39462 
L 91.236531 61.129637 
L 91.279824 61.518197 
L 91.539583 86.800784 
L 91.669462 96.252831 
L 91.756048 95.052224 
L 91.799341 97.200218 
L 91.842634 94.855761 
L 92.015806 73.659602 
L 92.145685 65.875307 
L 92.188978 66.979865 
L 92.665202 107.800481 
L 93.011546 74.497843 
L 93.054839 76.344594 
L 93.401184 108.673649 
L 93.444477 108.595064 
L 93.48777 107.289678 
L 93.531063 110.25845 
L 93.574356 105.678682 
L 93.747528 78.614832 
L 93.877407 72.742775 
L 93.9207 75.161451 
L 94.267045 100.858793 
L 94.396924 98.265484 
L 94.699975 59.086423 
L 95.046319 90.537944 
L 95.262785 101.037793 
L 95.435957 73.969577 
L 95.609129 57.890183 
L 95.652422 60.269566 
L 95.998766 91.978672 
L 96.042059 92.664109 
L 96.085352 96.676317 
L 96.128646 94.611274 
L 96.345111 61.963513 
L 96.431697 57.35755 
L 96.47499 57.898915 
L 96.648162 76.148131 
L 96.821334 94.379885 
L 96.864627 94.327495 
L 96.90792 94.113568 
L 96.951213 100.758379 
L 96.994506 99.627626 
L 97.037799 90.839187 
L 97.124386 94.95181 
L 97.210972 100.627404 
L 97.427437 144.796621 
L 97.860367 278.683877 
L 97.990246 256.378793 
L 98.336591 126.770062 
L 98.423177 119.252083 
L 98.509763 125.442846 
L 98.553056 123.932265 
L 98.596349 123.242462 
L 98.726228 111.563836 
L 98.8994 74.903867 
L 98.942693 75.702816 
L 99.072573 61.470173 
L 99.115866 62.242927 
L 99.245745 71.210365 
L 99.548796 101.22989 
L 99.721968 78.169516 
L 99.938433 66.98423 
L 100.068313 79.584049 
L 100.328071 97.540754 
L 100.414657 102.945665 
L 100.587829 76.811739 
L 100.674415 67.460107 
L 100.717708 67.713326 
L 100.761001 66.015014 
L 100.804294 66.28133 
L 100.934174 77.794054 
L 101.150639 100.889354 
L 101.237225 106.355388 
L 101.280518 106.158925 
L 101.496983 76.868495 
L 101.626862 68.376934 
L 101.670155 70.219319 
L 101.843327 84.809961 
L 102.103086 112.716418 
L 102.536016 72.162118 
L 102.709188 86.757126 
L 102.968947 117.331113 
L 103.358584 73.799309 
L 103.401877 74.205332 
L 103.488463 83.775256 
L 103.834808 119.396156 
L 103.878101 116.890163 
L 104.094566 84.224938 
L 104.224445 79.212952 
L 104.267738 79.789243 
L 104.354324 85.111204 
L 104.700668 127.110597 
L 104.743961 113.087515 
L 105.047013 89.049193 
L 105.090306 86.193932 
L 105.133599 86.927394 
L 105.263478 99.068798 
L 105.523236 128.791446 
L 105.566529 129.751931 
L 105.826288 101.269182 
L 105.869581 101.251719 
L 105.99946 97.562583 
L 106.345804 140.64034 
L 106.389097 148.101562 
L 106.43239 145.228839 
L 106.605562 121.539784 
L 106.822028 109.917914 
L 107.038493 130.865221 
L 107.254958 156.488344 
L 107.298251 156.117247 
L 107.514716 130.502856 
L 107.687889 120.474518 
L 107.731182 119.858935 
L 107.774475 121.042078 
L 108.120819 162.321108 
L 108.164112 161.273306 
L 108.337284 142.609334 
L 108.597043 119.531497 
L 108.640336 123.399632 
L 108.98668 152.301502 
L 109.159852 131.240683 
L 109.506196 100.007454 
L 109.679369 117.601795 
L 109.852541 133.864554 
L 110.069006 101.465645 
L 110.285471 77.340006 
L 110.328764 77.702371 
L 110.501937 91.188455 
L 110.718402 114.694145 
L 110.761695 106.805069 
L 111.151332 63.286363 
L 111.194625 64.762017 
L 111.54097 104.910294 
L 111.584263 103.958541 
L 111.757435 86.31181 
L 112.017193 64.556823 
L 112.060486 65.098187 
L 112.363537 93.803594 
L 112.40683 103.390981 
L 112.450124 103.107202 
L 112.666589 79.121269 
L 112.839761 61.719026 
L 112.883054 62.273488 
L 112.96964 67.071547 
L 113.229398 98.915994 
L 113.272691 108.149748 
L 113.315984 96.811658 
L 113.705622 62.49178 
L 113.792208 64.709627 
L 113.96538 80.941825 
L 114.138552 106.198217 
L 114.311724 88.534023 
L 114.571483 64.364726 
L 114.614776 64.404018 
L 114.658069 65.373235 
L 114.917827 93.829789 
L 115.004413 104.534832 
L 115.220878 84.866717 
L 115.480637 64.731456 
L 115.52393 64.927919 
L 115.740395 90.402603 
L 115.870274 105.364342 
L 116.043446 91.227747 
L 116.346498 62.199268 
L 116.389791 63.915044 
L 116.736135 100.164625 
L 116.822721 94.785908 
L 117.082479 71.227828 
L 117.212358 64.700895 
L 117.255652 65.604625 
L 117.558703 102.836519 
L 117.601996 101.688303 
L 117.775168 89.236924 
L 117.94834 72.284362 
L 117.991633 74.305746 
L 118.121512 67.765716 
L 118.424564 103.443371 
L 118.51115 97.510193 
L 118.554443 98.86797 
L 118.727615 82.52226 
L 118.900787 64.438945 
L 118.94408 66.272598 
L 119.160546 84.49562 
L 119.290425 104.648344 
L 119.333718 97.846363 
L 119.463597 93.882179 
L 119.766648 65.757429 
L 119.809941 66.215842 
L 119.896527 70.184392 
L 120.026406 85.233447 
L 120.156286 102.151082 
L 120.199579 96.449294 
L 120.286165 93.882179 
L 120.675802 65.13748 
L 120.805681 72.284362 
L 121.022146 99.496651 
L 121.06544 92.921694 
L 121.108733 92.738328 
L 121.152026 93.393205 
L 121.238612 89.254387 
L 121.455077 63.260168 
L 121.714835 77.217763 
L 121.888007 100.033649 
L 121.9313 93.528546 
L 122.017887 92.956621 
L 122.364231 65.857843 
L 122.450817 63.932507 
L 122.623989 83.788354 
L 122.710575 101.570425 
L 122.753868 92.952255 
L 122.840454 99.736772 
L 122.883747 97.222047 
L 123.273385 67.626009 
L 123.359971 74.659379 
L 123.576436 110.275913 
L 123.706315 106.534387 
L 123.836194 99.955064 
L 124.139246 75.013013 
L 124.269125 84.517449 
L 124.442297 112.087737 
L 124.528883 109.909182 
L 124.572176 110.550961 
L 124.702055 98.020996 
L 125.005107 68.69564 
L 125.221572 89.149607 
L 125.308158 103.194518 
L 125.351451 97.008121 
L 125.438037 95.93849 
L 125.524623 87.691416 
L 125.784381 66.813963 
L 125.870968 63.7928 
L 125.914261 65.163675 
L 126.174019 99.69748 
L 126.217312 95.117712 
L 126.303898 94.048081 
L 126.433777 85.215984 
L 126.736828 61.055418 
L 126.780121 62.063927 
L 126.953294 88.403048 
L 126.996587 98.392093 
L 127.03988 89.625484 
L 127.126466 96.440562 
L 127.169759 95.890466 
L 127.386224 73.044018 
L 127.559396 60.378712 
L 127.602689 61.251881 
L 128.46855 163.993225 
L 128.641722 229.284382 
L 128.858188 283.460107 
L 128.901481 281.897136 
L 129.377704 99.483553 
L 129.420997 100.915549 
L 129.507583 104.86227 
L 129.594169 113.148637 
L 129.767342 94.034983 
L 129.853928 86.399127 
L 130.113686 53.607293 
L 130.200272 53.716439 
L 130.243565 53.568 
L 130.373444 65.06326 
L 130.546616 91.328162 
L 130.589909 91.507161 
L 130.763082 87.586636 
L 131.02284 65.102553 
L 131.109426 69.691052 
L 131.45577 100.251941 
L 131.499063 99.889577 
L 131.845408 68.521007 
L 131.975287 71.751729 
L 132.278338 103.09847 
L 132.321631 102.618227 
L 132.364924 103.041714 
L 132.45151 94.694225 
L 132.711269 68.708738 
L 132.754562 69.900612 
L 132.841148 70.35466 
L 132.927734 80.614387 
L 133.01432 104.124443 
L 133.057613 101.526767 
L 133.144199 104.639612 
L 133.187492 104.360198 
L 133.230785 103.648566 
L 133.620423 73.690163 
L 133.793595 85.739885 
L 133.966767 104.338369 
L 134.096646 110.64701 
L 134.44299 75.327353 
L 134.57287 76.982007 
L 134.832628 107.940188 
L 134.919214 114.305585 
L 134.962507 113.803513 
L 135.178972 95.811881 
L 135.352144 82.308334 
L 135.395437 83.604988 
L 135.828368 123.12895 
L 136.218005 88.944412 
L 136.261298 88.926949 
L 136.607643 128.276277 
L 136.650936 127.573376 
L 136.694229 127.289597 
L 136.780815 120.749566 
L 136.99728 103.006787 
L 137.040573 103.303664 
L 137.127159 101.190597 
L 137.516797 145.0804 
L 137.56009 142.321188 
L 137.949727 113.288344 
L 137.99302 114.576267 
L 138.339365 153.235792 
L 138.382658 151.594235 
L 138.425951 152.738086 
L 138.469244 151.56804 
L 138.815588 121.889051 
L 138.858881 123.62229 
L 138.945467 132.410729 
L 139.032053 151.677186 
L 139.075346 148.883048 
L 139.248518 160.077065 
L 139.291812 158.531557 
L 139.638156 119.051254 
L 139.768035 119.304473 
L 139.854621 132.716338 
L 140.071086 145.045473 
L 140.114379 144.521573 
L 140.200965 138.012103 
L 140.54731 98.086484 
L 140.590603 97.789607 
L 140.633896 99.941967 
L 140.850361 120.858712 
L 140.893654 121.168687 
L 140.936947 120.994054 
L 141.110119 108.472821 
L 141.369878 78.230638 
L 141.413171 76.877227 
L 141.456464 78.352881 
L 141.499757 81.016044 
L 141.672929 99.579602 
L 141.802808 104.766221 
L 141.846101 105.07183 
L 142.105859 79.208586 
L 142.235739 66.525817 
L 142.279032 67.953447 
L 142.322325 68.918298 
L 142.668669 99.391871 
L 142.755255 95.584857 
L 142.928427 82.303968 
L 143.101599 63.268899 
L 143.144893 63.303826 
L 143.231479 68.726201 
L 143.447944 94.646201 
L 143.491237 98.160703 
L 143.53453 96.951365 
L 143.664409 93.109425 
L 143.794288 79.239147 
L 143.96746 60.610102 
L 144.010753 61.099076 
L 144.09734 73.196823 
L 144.270512 91.502795 
L 144.443684 98.902896 
L 144.486977 98.287313 
L 144.833321 64.543725 
L 144.876614 64.185726 
L 144.919907 65.953892 
L 145.179666 92.423988 
L 145.309545 98.42702 
L 145.352838 97.318096 
L 145.699182 63.190314 
L 145.742475 63.871386 
L 145.829061 77.968687 
L 146.045527 95.619784 
L 146.132113 98.095216 
L 146.175406 97.414145 
L 146.348578 86.014933 
L 146.565043 63.102997 
L 146.608336 63.155388 
L 146.694922 80.3699 
L 146.954681 98.034094 
L 147.041267 100.374185 
L 147.214439 85.971274 
L 147.430904 68.110617 
L 147.474197 67.44701 
L 147.51749 68.983786 
L 147.604076 82.749283 
L 147.647369 78.977197 
L 147.863834 101.884766 
L 147.907127 101.627181 
L 148.0803 85.04135 
L 148.253472 69.276297 
L 148.296765 69.822027 
L 148.340058 70.097075 
L 148.383351 69.416004 
L 148.643109 98.30041 
L 148.686402 99.448627 
L 148.729695 97.833265 
L 148.902868 93.048303 
L 149.205919 63.268899 
L 149.552263 101.823644 
L 149.638849 98.488141 
L 149.768728 89.577459 
L 150.028487 62.801754 
L 150.07178 63.749142 
L 150.374831 99.540309 
L 150.418124 100.478965 
L 150.461417 100.356722 
L 150.721175 80.588192 
L 150.894348 65.78799 
L 151.110813 80.055559 
L 151.327278 102.570203 
L 151.413864 97.968606 
L 151.803502 67.346595 
L 152.06326 92.476378 
L 152.193139 100.13843 
L 152.409604 84.70518 
L 152.626069 65.181138 
L 152.669362 66.770304 
L 152.929121 100.304331 
L 153.015707 102.945665 
L 153.059 101.950254 
L 153.102293 101.38706 
L 153.49193 74.065625 
L 153.535223 75.733376 
L 153.751689 97.169657 
L 153.881568 113.249051 
L 153.924861 112.808101 
L 153.968154 111.84325 
L 154.357791 76.63274 
L 154.704136 105.054367 
L 154.747429 103.810102 
L 154.790722 104.24232 
L 154.834015 104.818611 
L 155.05048 79.841633 
L 155.223652 65.002138 
L 155.310238 73.746919 
L 155.353531 69.621199 
L 155.440117 77.248323 
L 155.656583 99.80226 
L 155.699876 98.946555 
L 155.916341 78.780734 
L 156.089513 63.644362 
L 156.176099 72.738409 
L 156.219392 69.664857 
L 156.47915 97.387949 
L 156.565737 92.607353 
L 156.955374 62.875974 
L 157.04196 71.799753 
L 157.085253 66.442866 
L 157.215132 85.927616 
L 157.345011 99.404968 
L 157.388304 98.719531 
L 157.561477 89.494508 
L 157.734649 68.975054 
L 157.777942 69.75654 
L 157.864528 86.482078 
L 158.124286 159.099117 
L 158.470631 227.271729 
L 158.643803 244.564827 
L 158.687096 254.073629 
L 158.730389 253.40129 
L 158.903561 200.928243 
L 158.990147 180.142472 
L 159.293198 109.188819 
L 159.509664 65.207333 
L 159.552957 69.760906 
L 159.59625 73.044018 
L 159.639543 65.700673 
L 159.682836 67.612912 
L 159.942594 90.481188 
L 159.985887 88.306999 
L 160.288938 62.64895 
L 160.375524 62.810486 
L 160.462111 67.65657 
L 160.505404 62.841047 
L 160.548697 68.944493 
L 160.808455 102.382472 
L 160.851748 103.626737 
L 160.895041 103.421542 
L 161.241385 67.337864 
L 161.284678 74.253356 
L 161.327971 73.930284 
L 161.371265 69.450931 
L 161.414558 74.135479 
L 161.674316 101.216792 
L 161.717609 101.173134 
L 161.760902 100.863159 
L 162.107246 73.305969 
L 162.150539 76.322765 
L 162.193832 73.519895 
L 162.237125 68.857176 
L 162.280418 74.873306 
L 162.540177 103.618005 
L 162.58347 103.753346 
L 162.626763 104.26415 
L 162.670056 104.124443 
L 162.843228 82.434943 
L 162.929814 74.938793 
L 162.973107 75.523816 
L 163.0164 81.518116 
L 163.059693 72.633629 
L 163.146279 80.52707 
L 163.406038 109.603574 
L 163.492624 106.176388 
L 163.925554 75.427768 
L 164.271899 109.42894 
L 164.358485 109.394013 
L 164.791415 80.644948 
L 164.964587 99.169213 
L 165.137759 117.654185 
L 165.181053 118.400744 
L 165.310932 110.411254 
L 165.527397 89.245655 
L 165.57069 94.606909 
L 165.613983 93.960764 
L 165.657276 85.351325 
L 165.700569 91.105504 
L 166.00362 122.875731 
L 166.046913 123.748899 
L 166.090206 123.434559 
L 166.263379 109.804402 
L 166.393258 97.684827 
L 166.479844 101.317207 
L 166.523137 95.362199 
L 166.56643 99.501017 
L 166.869481 136.903179 
L 166.912774 136.56701 
L 167.12924 120.068495 
L 167.215826 109.961573 
L 167.259119 112.201249 
L 167.302412 116.217823 
L 167.388998 102.945665 
L 167.432291 109.752012 
L 167.735342 151.013579 
L 167.778635 149.590314 
L 168.081687 124.818531 
L 168.12498 127.040744 
L 168.168273 129.673346 
L 168.211566 123.02417 
L 168.254859 124.683189 
L 168.471324 147.826514 
L 168.601203 158.701825 
L 168.644496 158.321997 
L 168.731082 151.563675 
L 169.077427 122.648707 
L 169.164013 129.799956 
L 169.467064 153.868839 
L 169.510357 152.126868 
L 169.726822 126.55177 
L 169.943287 103.971638 
L 169.986581 105.713609 
L 170.289632 133.851456 
L 170.54939 111.371739 
L 170.809148 79.073245 
L 170.895734 87.464392 
L 171.242079 110.171133 
L 171.371958 97.815802 
L 171.675009 66.460329 
L 171.761595 75.357914 
L 172.021354 102.081229 
L 172.10794 100.780208 
L 172.237819 88.241512 
L 172.54087 60.963735 
L 172.584163 64.866797 
L 172.973801 99.470456 
L 173.190266 78.584271 
L 173.363438 60.068738 
L 173.450024 66.586939 
L 173.796368 102.644422 
L 173.839662 99.902674 
L 174.229299 61.343563 
L 174.315885 64.098409 
L 174.618936 97.31373 
L 174.705522 94.646201 
L 174.878695 84.163816 
L 175.138453 62.264756 
L 175.354918 86.045494 
L 175.484797 101.504938 
L 175.52809 100.644867 
L 175.657969 89.883068 
L 176.004314 62.055196 
L 176.393951 101.098915 
L 176.437244 100.186454 
L 176.52383 94.340592 
L 176.697003 75.680986 
L 176.740296 80.522704 
L 176.826882 63.024412 
L 176.870175 66.22894 
L 177.346398 99.322017 
L 177.606156 79.348293 
L 177.692743 65.613356 
L 177.736036 68.333275 
L 177.909208 86.189566 
L 178.08238 101.242987 
L 178.125673 102.330082 
L 178.168966 101.902229 
L 178.342138 85.364422 
L 178.558603 61.051052 
L 178.601896 64.054751 
L 178.948241 101.609718 
L 178.991534 100.915549 
L 179.121413 90.82609 
L 179.424464 65.290284 
L 179.467757 66.949304 
L 179.597637 79.287171 
L 179.857395 101.82801 
L 179.943981 95.807515 
L 180.07386 86.966686 
L 180.290325 61.465807 
L 180.420204 72.262533 
L 180.679963 101.238622 
L 180.766549 96.575903 
L 180.983014 83.701037 
L 181.026307 84.181279 
L 181.112893 64.251214 
L 181.156186 64.796944 
L 181.329358 81.103361 
L 181.545824 100.797672 
L 181.589117 99.920137 
L 181.978754 64.875529 
L 182.06534 66.119794 
L 182.411684 99.688748 
L 182.541564 95.052224 
L 182.758029 76.274741 
L 182.844615 64.513164 
L 182.887908 70.669001 
L 183.234252 104.661441 
L 183.277545 107.647677 
L 183.364131 106.547485 
L 183.450718 104.451881 
L 183.753769 75.659157 
L 183.797062 75.820693 
L 184.100113 112.297298 
L 184.186699 110.398157 
L 184.316578 103.111567 
L 184.662923 77.667444 
L 184.792802 88.049415 
L 184.965974 106.154559 
L 185.009267 104.788051 
L 185.442198 62.290951 
L 185.528784 67.800643 
L 185.701956 79.575317 
L 185.918421 98.588556 
L 185.961714 97.999167 
L 186.221472 64.133336 
L 186.264765 66.608768 
L 186.308059 67.490668 
L 186.394645 64.526262 
L 186.740989 96.580269 
L 186.827575 93.882179 
L 187.217212 60.583907 
L 187.260506 63.312558 
L 187.476971 91.773478 
L 187.60685 100.273771 
L 187.780022 89.511972 
L 187.823315 90.345847 
L 187.996487 104.26415 
L 188.169659 141.024534 
L 188.645883 274.990375 
L 188.732469 270.253437 
L 189.122106 127.8004 
L 189.1654 125.866332 
L 189.295279 131.323634 
L 189.338572 130.878318 
L 189.425158 122.020026 
L 189.728209 67.639107 
L 189.858088 59.099521 
L 190.074553 83.190233 
L 190.247726 92.109647 
L 190.291019 92.795084 
L 190.464191 85.237813 
L 190.550777 69.62993 
L 190.59407 70.507464 
L 190.637363 68.416226 
L 190.680656 68.835347 
L 190.767242 72.197045 
L 190.897121 85.656934 
L 191.070293 104.561027 
L 191.15688 98.208728 
L 191.416638 69.835125 
L 191.459931 70.088344 
L 191.546517 67.647838 
L 191.58981 68.82225 
L 191.892861 102.273326 
L 191.979447 101.56606 
L 192.02274 100.60994 
L 192.325792 71.987485 
L 192.369085 69.210809 
L 192.412378 70.254246 
L 192.802015 105.272659 
L 192.845308 104.731295 
L 193.234946 70.398318 
L 193.278239 70.590415 
L 193.408118 84.019743 
L 193.711169 109.961573 
L 193.797755 104.373296 
L 194.1441 72.393508 
L 194.187393 75.541279 
L 194.533737 116.318237 
L 194.57703 114.388536 
L 194.966668 76.01279 
L 195.053254 80.850142 
L 195.442891 116.872699 
L 195.529477 110.044523 
L 195.616063 111.336813 
L 195.789235 89.992214 
L 195.875822 86.054225 
L 195.919115 87.206807 
L 196.222166 123.089657 
L 196.265459 125.54326 
L 196.308752 124.949506 
L 196.698389 95.095883 
L 196.741682 96.689415 
L 197.174613 137.021057 
L 197.261199 133.065605 
L 197.304492 136.497156 
L 197.520957 111.707909 
L 197.56425 111.939299 
L 197.607543 112.262371 
L 197.650836 113.50227 
L 197.997181 152.384453 
L 198.083767 151.244968 
L 198.256939 129.140713 
L 198.386818 119.819642 
L 198.430111 119.841471 
L 198.516697 123.264291 
L 198.689869 148.319854 
L 198.776456 157.248 
L 198.819749 156.876903 
L 198.906335 154.593568 
L 199.079507 137.06035 
L 199.252679 123.683412 
L 199.339265 121.644564 
L 199.382558 122.116075 
L 199.685609 150.769091 
L 199.902075 136.209011 
L 200.075247 109.524988 
L 200.161833 102.749203 
L 200.205126 103.439006 
L 200.55147 124.980067 
L 200.638056 123.971557 
L 200.767936 112.729516 
L 200.941108 82.880259 
L 201.027694 79.138733 
L 201.070987 80.107949 
L 201.460624 109.280501 
L 201.503917 108.049334 
L 201.67709 84.914741 
L 201.893555 68.438056 
L 201.936848 69.066737 
L 202.066727 81.085898 
L 202.283192 98.221825 
L 202.326485 97.833265 
L 202.499657 91.511527 
L 202.586243 71.310779 
L 202.629537 72.144655 
L 202.67283 75.589304 
L 202.716123 73.93465 
L 202.802709 69.394175 
L 203.019174 90.782432 
L 203.149053 101.718864 
L 203.192346 100.640501 
L 203.625277 66.508354 
L 203.66857 65.99755 
L 203.885035 89.935458 
L 204.058207 101.199329 
L 204.188086 96.43183 
L 204.361258 72.314923 
L 204.534431 65.159309 
L 205.010654 103.050446 
L 205.09724 88.909486 
L 205.356998 62.867242 
L 205.486878 76.396984 
L 205.876515 101.487474 
L 205.963101 85.949445 
L 206.179566 66.045575 
L 206.222859 65.491113 
L 206.266152 65.980087 
L 206.396031 77.414225 
L 206.612497 100.671062 
L 206.699083 97.532022 
L 206.742376 100.640501 
L 206.785669 96.283392 
L 206.958841 72.991628 
L 207.08872 64.504433 
L 207.175306 68.826615 
L 207.305185 86.272517 
L 207.478358 103.081007 
L 207.521651 103.129031 
L 207.65153 96.265928 
L 207.824702 74.978086 
L 207.954581 64.840602 
L 207.997874 65.307747 
L 208.430805 104.857904 
L 208.474098 104.600319 
L 208.64727 77.549566 
L 208.777149 67.451375 
L 208.820442 67.909789 
L 208.907028 73.746919 
L 209.296665 103.797005 
L 209.339959 102.915105 
L 209.556424 71.254023 
L 209.686303 67.145767 
L 209.729596 68.259056 
L 209.902768 87.499319 
L 209.989354 103.783907 
L 210.032647 103.508859 
L 210.07594 102.526545 
L 210.119233 102.640057 
L 210.162526 105.508414 
L 210.552164 65.202967 
L 210.595457 65.809819 
L 210.811922 92.41089 
L 210.855215 97.88129 
L 210.941801 96.43183 
L 210.985094 97.344291 
L 211.028387 102.00701 
L 211.07168 98.894165 
L 211.288146 73.039652 
L 211.461318 66.089233 
L 211.894248 103.063543 
L 211.937541 100.867525 
L 212.154006 71.869607 
L 212.240593 65.866575 
L 212.283886 66.342452 
L 212.370472 69.669223 
L 212.500351 83.439086 
L 212.63023 103.622371 
L 212.716816 103.281835 
L 212.760109 104.875367 
L 212.933281 77.078056 
L 213.149747 64.744554 
L 213.279626 77.243958 
L 213.582677 112.471931 
L 213.62597 111.157813 
L 213.799142 87.91844 
L 213.972314 75.90801 
L 214.015607 75.85562 
L 214.18878 91.301967 
L 214.448538 114.663584 
L 214.491831 113.148637 
L 214.665003 92.847474 
L 214.838175 76.99947 
L 214.881468 77.51464 
L 215.011347 92.070355 
L 215.271106 114.183341 
L 215.314399 116.671871 
L 215.704036 66.944938 
L 215.747329 67.010425 
L 215.833915 70.965878 
L 216.18026 102.238399 
L 216.223553 100.596843 
L 216.396725 79.313366 
L 216.61319 62.225463 
L 216.656483 63.028778 
L 216.829655 80.898167 
L 217.002828 103.443371 
L 217.046121 107.01463 
L 217.219293 85.700592 
L 217.479051 61.601148 
L 217.522344 62.70134 
L 217.911981 99.776065 
L 217.998568 88.442341 
L 218.041861 89.68224 
L 218.128447 82.657601 
L 218.301619 63.936873 
L 218.344912 65.124382 
L 218.474791 93.794862 
L 219.037601 218.911143 
L 219.16748 237.016287 
L 219.297359 261.041512 
L 219.340652 255.998965 
L 220.119927 75.921108 
L 220.16322 77.654347 
L 220.336392 102.766666 
L 220.422978 99.038237 
L 220.466271 103.971638 
L 220.509564 100.478965 
L 220.682736 78.745807 
L 220.899202 62.273488 
L 220.942495 62.945827 
L 221.332132 110.926423 
L 221.375425 108.459723 
L 221.635183 73.677065 
L 221.721769 68.376934 
L 221.765062 70.756317 
L 222.111407 97.401047 
L 222.197993 114.423462 
L 222.241286 101.627181 
L 222.414458 86.717833 
L 222.630923 66.888182 
L 222.674216 67.045352 
L 223.020561 114.423462 
L 223.107147 104.26415 
L 223.496784 71.839046 
L 223.58337 75.75084 
L 223.929715 113.253417 
L 224.189473 87.398904 
L 224.362645 76.615276 
L 224.492524 81.9547 
L 224.795576 120.417763 
L 225.055334 91.563917 
L 225.271799 79.972608 
L 225.444971 99.780431 
L 225.618144 122.264513 
L 225.661437 122.199026 
L 225.834609 106.08034 
L 226.094367 84.268596 
L 226.13766 84.761936 
L 226.267539 96.580269 
L 226.484004 128.184594 
L 226.613884 115.039046 
L 226.657177 116.35753 
L 226.70047 116.113043 
L 226.960228 92.816914 
L 227.1334 108.708576 
L 227.349865 136.732912 
L 227.393158 130.72988 
L 227.436451 130.847757 
L 227.479744 130.306393 
L 227.826089 104.272881 
L 227.869382 104.338369 
L 228.215726 149.730021 
L 228.302312 142.391042 
L 228.475484 132.44129 
L 228.69195 113.476075 
L 228.778536 121.854124 
L 229.081587 164.054347 
L 229.12488 157.89851 
L 229.254759 146.333397 
L 229.557811 121.784271 
L 229.601104 124.683189 
L 229.947448 161.124867 
L 230.12062 144.779157 
L 230.207206 136.457864 
L 230.423672 110.913326 
L 230.466965 109.992133 
L 230.640137 125.1547 
L 230.770016 140.889193 
L 230.986481 115.514923 
L 231.159653 99.859016 
L 231.332825 87.281027 
L 231.635877 117.649819 
L 231.67917 109.097136 
L 231.809049 106.564948 
L 232.155393 72.581239 
L 232.198686 73.581017 
L 232.501738 105.403634 
L 232.545031 97.863826 
L 232.631617 98.894165 
L 232.804789 83.316843 
L 232.934668 68.734933 
L 232.977961 69.219541 
L 233.064547 67.805009 
L 233.237719 84.997692 
L 233.367599 103.452103 
L 233.410892 96.196075 
L 233.454185 95.763856 
L 233.497478 98.073387 
L 233.540771 95.410223 
L 233.843822 63.356216 
L 233.887115 65.028334 
L 233.973701 70.865463 
L 234.233459 100.099137 
L 234.276753 95.611052 
L 234.320046 96.667586 
L 234.363339 95.973417 
L 234.709683 61.66227 
L 234.752976 62.758096 
L 235.09932 103.705322 
L 235.142613 96.759268 
L 235.359079 83.875671 
L 235.532251 69.193346 
L 235.575544 66.988596 
L 235.66213 67.503766 
L 235.748716 73.284139 
L 235.921888 105.338147 
L 235.965181 95.366565 
L 236.051767 97.990436 
L 236.09506 97.780875 
L 236.268233 78.208808 
L 236.441405 67.765716 
L 236.484698 66.665524 
L 236.527991 66.800865 
L 236.787749 102.225302 
L 236.917628 100.583745 
L 237.004214 93.938935 
L 237.307266 67.44701 
L 237.350559 66.276964 
L 237.393852 66.731012 
L 237.567024 85.19852 
L 237.65361 100.561916 
L 237.696903 94.637469 
L 237.783489 98.854872 
L 237.826782 98.523068 
L 238.173127 67.953447 
L 238.303006 71.817217 
L 238.389592 79.680097 
L 238.519471 101.614084 
L 238.562764 96.178611 
L 238.64935 97.191487 
L 238.779229 87.796196 
L 239.038988 65.691941 
L 239.082281 65.779258 
L 239.168867 72.764604 
L 239.385332 102.194741 
L 239.471918 95.969051 
L 239.515211 96.0651 
L 239.558504 95.087151 
L 239.948141 65.7356 
L 239.991434 66.765938 
L 240.2079 103.369152 
L 240.337779 99.003311 
L 240.424365 95.523735 
L 240.814002 66.421037 
L 240.943881 76.864129 
L 241.20364 101.945888 
L 241.246933 101.352133 
L 241.463398 76.658935 
L 241.593277 64.059117 
L 241.63657 65.085089 
L 241.853035 77.942492 
L 241.939622 97.872558 
L 242.026208 95.519369 
L 242.112794 99.243432 
L 242.545724 69.699784 
L 242.589017 70.040319 
L 242.805482 97.54512 
L 242.978655 95.672174 
L 243.151827 82.408748 
L 243.324999 68.298349 
L 243.411585 68.826615 
L 243.454878 68.809152 
L 243.801222 97.204584 
L 243.844516 96.667586 
L 244.104274 76.357692 
L 244.234153 68.014569 
L 244.277446 69.232639 
L 244.364032 75.021744 
L 244.450618 87.416368 
L 244.62379 107.394458 
L 244.667083 107.617116 
L 244.840256 99.474822 
L 245.100014 76.663301 
L 245.1866 79.963877 
L 245.532944 107.813579 
L 245.576237 107.023361 
L 246.009168 75.266231 
L 246.052461 78.405271 
L 246.398805 101.640279 
L 246.485391 97.248243 
L 246.831736 60.452932 
L 246.918322 65.368869 
L 247.264666 96.759268 
L 247.307959 96.392538 
L 247.697597 61.928586 
L 247.74089 63.810264 
L 247.870769 76.772447 
L 247.957355 89.68224 
L 248.000648 87.215539 
L 248.130527 97.095438 
L 248.17382 95.859905 
L 248.260406 88.162927 
L 248.563457 58.710961 
L 248.996388 99.549041 
L 249.256146 90.695115 
L 249.342732 102.395569 
L 249.515904 131.995974 
L 250.035421 276.457298 
L 250.078714 273.549647 
L 250.554938 129.350274 
L 250.641524 133.720481 
L 250.771403 125.22892 
L 251.16104 63.281997 
L 251.204333 62.382634 
L 251.290919 68.630153 
L 251.464091 84.312255 
L 251.593971 94.117934 
L 251.637264 92.402159 
L 252.070194 66.848889 
L 252.459831 101.085817 
L 252.503125 99.758601 
L 252.806176 66.54328 
L 252.936055 70.180026 
L 253.022641 79.060148 
L 253.195813 96.50605 
L 253.282399 103.6442 
L 253.325692 102.600764 
L 253.412278 100.238844 
L 253.758623 69.171517 
L 253.801916 69.267565 
L 254.14826 104.325271 
L 254.191553 104.674539 
L 254.234846 106.735216 
L 254.278139 104.395125 
L 254.581191 71.162341 
L 254.624484 71.23656 
L 254.754363 87.735074 
L 255.014121 107.857237 
L 255.057414 109.490062 
L 255.100707 107.831042 
L 255.490345 78.610466 
L 255.533638 78.767636 
L 255.879982 112.476297 
L 255.966568 110.188596 
L 256.399499 83.430355 
L 256.745843 116.920724 
L 256.832429 114.536974 
L 256.875722 113.869001 
L 257.005601 97.060511 
L 257.048894 91.952477 
L 257.092187 92.227525 
L 257.13548 96.479854 
L 257.178773 93.947666 
L 257.222066 91.05748 
L 257.26536 91.965575 
L 257.611704 126.05843 
L 257.69829 126.931598 
L 257.871462 109.044746 
L 258.044634 99.859016 
L 258.13122 104.709465 
L 258.434272 136.23084 
L 258.564151 140.181926 
L 258.910495 113.506636 
L 258.953788 113.681269 
L 258.997081 116.182896 
L 259.083667 131.437146 
L 259.12696 126.564867 
L 259.343426 150.830213 
L 259.473305 146.774347 
L 259.776356 121.151224 
L 259.819649 121.976368 
L 259.862942 125.058652 
L 260.079407 154.270496 
L 260.209287 158.749849 
L 260.25258 158.134266 
L 260.469045 138.566565 
L 260.642217 125.394822 
L 260.68551 126.364038 
L 260.728803 125.717894 
L 260.815389 137.684665 
L 260.858682 132.982654 
L 261.161734 149.131901 
L 261.291613 131.004928 
L 261.551371 103.129031 
L 261.594664 103.936711 
L 261.68125 114.733437 
L 261.724543 108.966161 
L 261.941008 123.543705 
L 261.984301 123.120218 
L 262.027594 122.382391 
L 262.417232 77.361835 
L 262.806869 106.093437 
L 262.850162 105.447293 
L 263.023335 91.092406 
L 263.283093 68.503543 
L 263.629437 101.483109 
L 263.716023 100.636135 
L 263.802609 92.310476 
L 264.105661 63.190314 
L 264.148954 66.434134 
L 264.23554 79.090708 
L 264.278833 74.53277 
L 264.365419 82.216651 
L 264.581884 102.723008 
L 264.625177 102.495984 
L 264.971522 62.93273 
L 265.014815 64.067848 
L 265.101401 77.951224 
L 265.187987 77.40986 
L 265.361159 98.998945 
L 265.404452 98.79375 
L 265.534331 92.227525 
L 265.66421 77.540835 
L 265.837382 62.251658 
L 266.22702 101.579157 
L 266.270313 100.858793 
L 266.486778 80.954923 
L 266.703243 64.831871 
L 266.919709 79.990072 
L 267.092881 99.007677 
L 267.22276 95.72893 
L 267.352639 82.020188 
L 267.569104 63.801532 
L 267.958742 96.645756 
L 268.088621 94.327495 
L 268.175207 89.808849 
L 268.434965 66.032477 
L 268.521551 73.729455 
L 268.564844 68.468616 
L 268.608137 71.852144 
L 268.824603 100.273771 
L 268.867896 99.867747 
L 269.084361 83.82328 
L 269.300826 68.455519 
L 269.387412 76.178692 
L 269.430705 72.297459 
L 269.517291 81.007313 
L 269.733757 99.487919 
L 269.863636 92.467646 
L 270.123394 66.106696 
L 270.166687 66.145989 
L 270.383152 85.805372 
L 270.599617 98.915994 
L 270.729497 95.344736 
L 270.859376 81.059703 
L 270.989255 67.99274 
L 271.032548 67.997106 
L 271.119134 76.597813 
L 271.162427 73.895357 
L 271.249013 82.39565 
L 271.465478 100.13843 
L 271.508771 99.348212 
L 271.681944 82.369455 
L 271.855116 69.132224 
L 271.941702 75.165817 
L 271.984995 65.984453 
L 272.028288 70.756317 
L 272.288046 98.020996 
L 272.331339 98.007899 
L 272.417925 95.432053 
L 272.850856 63.509021 
L 272.980735 82.683796 
L 273.153907 102.640057 
L 273.1972 102.186009 
L 273.327079 90.965797 
L 273.586838 66.041209 
L 273.673424 71.533437 
L 273.716717 64.788212 
L 273.76001 68.804786 
L 274.019768 98.09085 
L 274.063061 97.309364 
L 274.236233 87.097661 
L 274.452698 66.093599 
L 274.495991 71.114316 
L 274.539285 69.939905 
L 274.582578 63.430436 
L 274.625871 65.99755 
L 274.842336 97.876924 
L 274.972215 99.876479 
L 275.058801 92.751426 
L 275.318559 69.088566 
L 275.361852 74.432356 
L 275.405145 72.917409 
L 275.448438 67.905423 
L 275.491732 73.192457 
L 275.75149 105.364342 
L 275.838076 103.417176 
L 276.141127 80.391729 
L 276.227713 85.09374 
L 276.271006 76.619642 
L 276.314299 80.457217 
L 276.617351 109.839329 
L 276.660644 113.432416 
L 276.703937 111.236398 
L 277.136867 76.322765 
L 277.223453 83.098551 
L 277.439919 105.648121 
L 277.483212 104.844806 
L 277.613091 101.592255 
L 277.872849 70.756317 
L 277.916142 72.38041 
L 277.959435 71.092487 
L 278.002728 64.168263 
L 278.046021 65.984453 
L 278.305779 97.671729 
L 278.349072 97.091072 
L 278.392366 97.235145 
L 278.435659 97.174023 
L 278.868589 60.081835 
L 278.911882 64.321067 
L 279.17164 96.641391 
L 279.258226 98.619117 
L 279.301519 97.916216 
L 279.431399 80.972386 
L 279.561278 70.756317 
L 279.604571 70.821805 
L 279.647864 75.357914 
L 279.691157 71.581461 
L 279.73445 62.304049 
L 279.777743 64.705261 
L 280.124087 99.322017 
L 280.210673 96.48422 
L 280.427139 70.306636 
L 280.470432 71.769193 
L 280.989948 206.05374 
L 281.249707 247.778086 
L 281.379586 259.701199 
L 281.639344 190.026737 
L 282.202153 75.41467 
L 282.28874 66.084867 
L 282.375326 68.442421 
L 282.678377 88.027586 
L 282.764963 84.155084 
L 283.1546 61.195125 
L 283.327773 81.308556 
L 283.500945 103.054812 
L 283.544238 101.906595 
L 283.630824 98.287313 
L 283.890582 76.929617 
L 283.933875 77.182836 
L 284.020461 66.381744 
L 284.063754 68.018935 
L 284.453392 103.347323 
L 284.496685 103.622371 
L 284.886322 64.482603 
L 284.929615 66.368647 
L 285.27596 106.988435 
L 285.362546 103.168323 
L 285.579011 79.636439 
L 285.665597 81.945969 
L 285.70889 67.700228 
L 285.795476 73.88226 
L 286.141821 108.638723 
L 286.185114 108.54704 
L 286.228407 107.857237 
L 286.401579 89.99658 
L 286.574751 70.773781 
L 286.618044 71.280218 
L 286.791216 91.507161 
L 287.007682 113.048222 
L 287.094268 111.812689 
L 287.483905 79.728121 
L 287.527198 80.893801 
L 287.873542 118.697621 
L 288.090008 107.503604 
L 288.306473 87.315954 
L 288.349766 87.735074 
L 288.739403 125.739723 
L 288.825989 123.299218 
L 289.172334 94.039349 
L 289.215627 95.711466 
L 289.345506 108.464089 
L 289.561971 140.819339 
L 289.648557 138.173639 
L 289.821729 127.237207 
L 290.038195 108.926868 
L 290.557711 150.873872 
L 290.904056 120.919834 
L 290.947349 123.307949 
L 291.033935 131.572487 
L 291.336986 157.693316 
L 291.466865 151.415236 
L 291.769916 120.505079 
L 291.856503 125.547626 
L 292.116261 156.532002 
L 292.202847 154.047838 
L 292.419312 134.969112 
L 292.635777 108.311284 
L 292.67907 109.568647 
L 292.80895 117.117186 
L 293.068708 135.004038 
L 293.155294 128.464008 
L 293.501638 85.106838 
L 293.67481 92.768889 
L 293.891276 112.677126 
L 293.934569 112.524321 
L 294.021155 108.180309 
L 294.324206 70.760683 
L 294.367499 71.105585 
L 294.454085 73.908455 
L 294.757137 103.260006 
L 294.80043 102.958763 
L 295.103481 82.923917 
L 295.23336 65.146211 
L 295.363239 72.27563 
L 295.579704 101.631547 
L 295.622997 100.911183 
L 295.79617 90.830456 
L 296.055928 67.962179 
L 296.358979 93.279693 
L 296.488858 100.265039 
L 296.532151 99.020774 
L 296.575444 98.732629 
L 296.618738 97.606242 
L 296.921789 62.631487 
L 297.008375 64.273043 
L 297.354719 100.671062 
L 297.484598 96.986292 
L 297.78765 64.382189 
L 297.874236 65.202967 
L 298.263873 100.177722 
L 298.307166 99.505383 
L 298.480338 85.159228 
L 298.523632 88.756681 
L 298.653511 69.677955 
L 298.826683 75.061037 
L 299.086441 103.735883 
L 299.173027 101.522401 
L 299.519372 67.307303 
L 299.562665 72.052972 
L 299.822423 91.965575 
L 299.909009 102.330082 
L 299.952302 101.264817 
L 300.082181 94.454104 
L 300.471819 70.791244 
L 300.558405 75.034842 
L 300.861456 103.858126 
L 300.948042 98.261118 
L 301.294386 70.132002 
L 301.380972 73.323432 
L 301.684024 99.343846 
L 301.727317 99.081896 
L 301.77061 99.313285 
L 301.987075 84.840521 
L 302.160247 66.07177 
L 302.20354 66.72228 
L 302.333419 79.745585 
L 302.549885 98.623483 
L 302.593178 99.841552 
L 302.636471 98.776287 
L 303.026108 65.604625 
L 303.069401 68.612689 
L 303.372453 100.989769 
L 303.415746 103.377884 
L 303.459039 101.500572 
L 303.588918 90.572871 
L 303.632211 91.60321 
L 303.675504 91.939379 
L 303.76209 71.7299 
L 303.805383 72.969799 
L 303.935262 68.189203 
L 304.108434 85.242179 
L 304.281607 101.570425 
L 304.368193 98.457581 
L 304.541365 87.818025 
L 304.714537 65.766161 
L 304.75783 65.552234 
L 304.801123 66.687353 
L 305.104174 103.390981 
L 305.19076 100.020552 
L 305.363933 89.11468 
L 305.537105 66.115428 
L 305.623691 66.853255 
L 305.666984 67.770082 
L 305.970035 99.033872 
L 306.013328 101.234256 
L 306.056621 100.666696 
L 306.143207 95.248687 
L 306.359673 73.070213 
L 306.402966 73.353993 
L 306.532845 71.607656 
L 306.619431 76.89469 
L 306.879189 110.5204 
L 306.922482 107.988212 
L 307.138947 98.601653 
L 307.31212 77.270153 
L 307.355413 77.060592 
L 307.485292 86.59559 
L 307.571878 97.248243 
L 307.74505 111.061765 
L 307.788343 110.812912 
L 307.831636 109.71272 
L 308.221274 76.19179 
L 308.264567 76.925251 
L 308.610911 101.95462 
L 308.654204 101.011598 
L 308.827376 91.494064 
L 309.000548 66.054306 
L 309.043841 63.041876 
L 309.087135 64.098409 
L 309.217014 77.305079 
L 309.476772 99.151749 
L 309.520065 98.632214 
L 309.73653 76.772447 
L 309.909702 61.024857 
L 310.039582 66.82706 
L 310.29934 101.1775 
L 310.385926 95.894832 
L 310.559098 87.097661 
L 310.73227 64.652871 
L 310.818856 61.400319 
L 310.948735 75.64606 
L 311.208494 99.693114 
L 311.251787 98.732629 
L 311.29508 99.387505 
L 311.338373 101.421987 
L 311.424959 112.82993 
L 311.468252 109.463867 
L 311.554838 120.0423 
L 311.814596 187.014306 
L 312.117648 277.230052 
L 312.204234 281.971355 
L 312.29082 240.596277 
L 312.637164 106.368485 
L 312.680457 105.364342 
L 312.810336 115.755044 
L 312.896922 113.951951 
L 313.113388 95.571759 
L 313.28656 66.547646 
L 313.416439 54.493558 
L 313.459732 55.096044 
L 313.806076 95.873003 
L 313.892663 91.908819 
L 313.935956 93.973862 
L 313.979249 92.100916 
L 314.152421 73.188091 
L 314.239007 68.839713 
L 314.2823 69.804564 
L 314.455472 84.259865 
L 314.671937 102.002644 
L 314.758523 101.688303 
L 314.801816 103.53942 
L 315.148161 68.171739 
L 315.191454 70.559854 
L 315.537798 104.181199 
L 315.581091 103.246909 
L 315.624384 104.665807 
L 315.667677 108.717308 
L 315.71097 103.037348 
L 315.884143 76.300936 
L 316.057315 73.877894 
L 316.143901 81.133922 
L 316.360366 106.83563 
L 316.533538 108.38987 
L 316.83659 74.956257 
L 316.879883 76.912154 
L 317.356106 113.541562 
L 317.399399 112.746979 
L 317.572571 85.940713 
L 317.659157 78.667222 
L 317.702451 79.156196 
L 317.875623 89.721532 
L 318.135381 116.938187 
L 318.221967 117.924867 
L 318.308553 104.722563 
L 318.568311 84.565473 
L 318.611604 84.770668 
L 318.82807 111.84325 
L 318.957949 121.509223 
L 319.044535 118.933376 
L 319.087828 122.063685 
L 319.131121 118.313427 
L 319.304293 99.191042 
L 319.434172 92.64228 
L 319.477465 94.423543 
L 319.693931 118.693255 
L 319.867103 133.724847 
L 319.953689 134.515064 
L 319.996982 130.188515 
L 320.170154 106.809435 
L 320.300033 103.59181 
L 320.343326 105.215903 
L 320.429912 111.563836 
L 320.603085 138.474882 
L 320.689671 148.232538 
L 320.732964 146.656469 
L 320.776257 145.774569 
L 320.81955 148.594902 
L 321.165894 116.580188 
L 321.295773 126.080259 
L 321.685411 161.360623 
L 321.858583 139.134124 
L 322.075048 125.626211 
L 322.204927 141.62702 
L 322.421392 166.652022 
L 322.551272 162.438985 
L 322.767737 132.153144 
L 322.897616 125.346797 
L 322.940909 125.678601 
L 323.114081 141.819117 
L 323.200667 153.349304 
L 323.287253 151.926039 
L 323.373839 152.519794 
L 323.417132 148.149587 
L 323.633598 113.55466 
L 323.763477 102.871446 
L 323.850063 105.290122 
L 324.023235 121.304028 
L 324.153114 128.948616 
L 324.196407 128.91369 
L 324.2397 131.450244 
L 324.672631 82.382553 
L 324.80251 93.249132 
L 325.062268 111.847616 
L 325.105561 115.6328 
L 325.148854 111.590031 
L 325.365319 77.772224 
L 325.538492 70.066514 
L 325.625078 76.370789 
L 325.971422 106.490729 
L 326.144594 81.889213 
L 326.23118 79.728121 
L 326.447646 70.909122 
L 326.534232 79.108172 
L 326.750697 104.093882 
L 326.79399 106.62607 
L 326.837283 106.429607 
L 327.010455 83.639915 
L 327.183627 67.643472 
L 327.22692 67.674033 
L 327.313507 70.987707 
L 327.659851 105.552073 
L 327.703144 104.652709 
L 327.919609 78.156418 
L 328.136074 67.106474 
L 328.179367 70.393953 
L 328.525712 111.19274 
L 328.569005 108.979258 
L 328.742177 81.548677 
L 328.915349 69.088566 
L 328.958642 70.437611 
L 329.001935 71.201633 
L 329.175107 89.302411 
L 329.391573 114.013073 
L 329.434866 109.861158 
L 329.608038 83.556964 
L 329.78121 69.498955 
L 329.824503 70.922219 
L 329.954382 78.6061 
L 330.257434 114.484584 
L 330.430606 90.411335 
L 330.690364 69.280663 
L 330.733657 70.721391 
L 331.123294 112.550516 
L 331.209881 104.024028 
L 331.556225 72.799531 
L 331.642811 79.051416 
L 331.945862 111.218935 
L 331.989155 110.581522 
L 332.205621 85.53469 
L 332.378793 70.974609 
L 332.422086 72.795165 
L 332.551965 82.88899 
L 332.855016 112.393346 
L 332.898309 103.076641 
L 333.287947 69.477126 
L 333.33124 71.660046 
L 333.677584 109.32416 
L 333.76417 98.14324 
L 334.153808 68.237227 
L 334.197101 71.092487 
L 334.543445 110.716863 
L 334.976376 68.582128 
L 335.019669 70.162563 
L 335.409306 111.371739 
L 335.495892 101.758157 
L 335.582478 94.593811 
L 335.798943 70.223685 
L 335.885529 67.909789 
L 335.928823 69.512053 
L 336.275167 110.096914 
L 336.31846 102.225302 
L 336.708097 68.211032 
L 336.75139 68.931396 
L 336.967856 85.796641 
L 337.097735 112.594175 
L 337.141028 110.07945 
L 337.270907 100.657965 
L 337.400786 87.68705 
L 337.530665 75.318622 
L 337.617251 79.422512 
L 337.703837 85.927616 
L 337.963596 122.430415 
L 338.006889 119.928788 
L 338.180061 101.085817 
L 338.483112 80.077389 
L 338.569698 88.608243 
L 338.829457 120.138349 
L 338.87275 117.497015 
L 339.089215 96.261562 
L 339.348973 71.847778 
L 339.392266 72.498288 
L 339.695317 112.528687 
L 339.73861 101.360865 
L 339.998369 78.496954 
L 340.171541 65.901502 
L 340.214834 65.770527 
L 340.258127 66.979865 
L 340.561178 105.01944 
L 340.604471 98.03846 
L 340.820937 85.521593 
L 341.080695 65.041431 
L 341.167281 71.402462 
L 341.340453 90.804261 
L 341.427039 102.640057 
L 341.470332 95.218126 
L 341.686798 81.727677 
L 341.85997 68.224129 
L 341.903263 66.66989 
L 341.946556 67.3204 
L 342.076435 77.383664 
L 342.85571 209.14039 
L 343.115468 295.488 
L 343.158761 289.432578 
L 343.591691 107.852871 
L 343.721571 99.535943 
L 343.808157 100.989769 
L 343.85145 100.007454 
L 343.981329 110.289011 
L 344.241087 81.264897 
L 344.500845 58.763351 
L 344.674018 73.794943 
L 344.84719 100.182088 
L 344.933776 95.567394 
L 344.977069 97.401047 
L 345.020362 97.309364 
L 345.366706 65.779258 
L 345.453292 71.978753 
L 345.713051 108.202138 
L 345.84293 101.461279 
L 345.929516 94.733518 
L 346.189274 67.778814 
L 346.232567 68.464251 
L 346.319153 73.834235 
L 346.578912 109.372184 
L 346.622205 102.771032 
L 346.752084 99.531578 
L 347.098428 69.250102 
L 347.185014 75.558743 
L 347.401479 109.153892 
L 347.444773 108.905039 
L 347.488066 101.600986 
L 347.574652 103.840663 
L 348.007582 75.62423 
L 348.094168 80.230193 
L 348.180754 89.0099 
L 348.26734 113.332002 
L 348.353926 107.678237 
L 348.440513 110.158035 
L 348.83015 77.615054 
L 348.916736 83.343038 
L 349.133201 116.191628 
L 349.26308 111.751567 
L 349.306373 112.943442 
L 349.349667 111.367373 
L 349.436253 106.909849 
L 349.696011 82.098773 
L 349.739304 83.417257 
L 349.999062 123.783826 
L 350.172234 120.382836 
L 350.605165 92.065989 
L 350.778337 111.773397 
L 350.864923 131.882462 
L 350.908216 127.35945 
L 350.994802 130.201613 
L 351.038095 129.581663 
L 351.211267 113.903927 
L 351.38444 102.282058 
L 351.471026 104.504271 
L 351.644198 127.940107 
L 351.730784 144.019501 
L 351.774077 138.496711 
L 351.860663 141.670678 
L 351.903956 141.461118 
L 352.207007 117.898672 
L 352.293594 118.077672 
L 352.38018 123.264291 
L 352.726524 159.27375 
L 352.769817 156.706636 
L 353.029575 131.362927 
L 353.116161 128.114741 
L 353.159454 128.507666 
L 353.202748 127.961936 
L 353.332627 140.500633 
L 353.419213 162.993447 
L 353.505799 157.413902 
L 353.549092 160.858551 
L 353.592385 160.046504 
L 353.765557 142.87565 
L 353.982022 120.58803 
L 354.025315 120.719006 
L 354.198488 128.57752 
L 354.285074 145.652325 
L 354.328367 140.046585 
L 354.414953 143.172528 
L 354.458246 141.827848 
L 354.544832 136.798399 
L 354.934469 94.545787 
L 355.150935 122.722927 
L 355.237521 116.187262 
L 355.280814 116.07375 
L 355.410693 111.694812 
L 355.540572 95.087151 
L 355.713744 75.013013 
L 355.757037 75.082866 
L 355.80033 75.244402 
L 355.930209 84.259865 
L 356.016795 105.141684 
L 356.060088 99.994357 
L 356.189968 104.482442 
L 356.233261 104.29471 
L 356.666191 65.342674 
L 357.055829 101.976449 
L 357.185708 91.332528 
L 357.532052 65.648283 
L 357.661931 86.058591 
L 357.705224 96.396903 
L 357.79181 94.109203 
L 357.835103 97.767778 
L 357.921689 96.938268 
L 357.964982 96.322684 
L 358.397913 64.382189 
L 358.78755 103.631103 
L 358.830843 101.644645 
L 359.090602 72.384776 
L 359.177188 65.818551 
L 359.220481 66.499622 
L 359.393653 87.084564 
L 359.566825 97.623705 
L 359.610118 98.640946 
L 359.78329 87.390173 
L 360.043049 63.404241 
L 360.086342 63.47846 
L 360.172928 71.262755 
L 360.432686 97.828899 
L 360.475979 98.24802 
L 360.519272 98.095216 
L 360.562565 97.182755 
L 360.90891 63.801532 
L 360.952203 66.194013 
L 361.082082 74.978086 
L 361.255254 94.253275 
L 361.34184 100.435307 
L 361.385133 99.937601 
L 361.515012 88.817803 
L 361.731477 68.74803 
L 361.818063 69.870052 
L 361.861357 70.001027 
L 362.207701 98.640946 
L 362.250994 98.291679 
L 362.424166 84.303523 
L 362.683924 65.185504 
L 362.77051 72.096631 
L 362.986976 100.278136 
L 363.073562 102.330082 
L 363.246734 89.459582 
L 363.506492 63.041876 
L 363.593078 72.044241 
L 363.939423 101.871669 
L 364.026009 98.422654 
L 364.372353 64.892992 
L 364.415646 65.124382 
L 364.502232 71.092487 
L 364.718698 98.208728 
L 364.761991 99.776065 
L 364.805284 99.601431 
L 364.89187 93.847252 
L 365.281507 64.238116 
L 365.3248 65.857843 
L 365.627851 99.470456 
L 365.671145 99.365676 
L 365.714438 99.003311 
L 365.844317 89.856873 
L 366.104075 67.224352 
L 366.233954 74.999915 
L 366.407126 93.47179 
L 366.537005 98.549263 
L 366.580298 98.544897 
L 366.753471 81.378409 
L 366.926643 67.503766 
L 366.969936 66.639329 
L 367.013229 67.102108 
L 367.099815 79.575317 
L 367.31628 99.461724 
L 367.359573 99.173579 
L 367.576039 88.320097 
L 367.87909 64.386555 
L 367.922383 67.403351 
L 368.138848 96.100026 
L 368.225434 99.339481 
L 368.268727 99.073164 
L 368.355313 95.912295 
L 368.615072 66.643695 
L 368.658365 68.171739 
L 368.701658 68.778591 
L 368.744951 67.516863 
L 368.788244 68.586494 
L 369.004709 94.702957 
L 369.134588 102.849617 
L 369.177881 101.448182 
L 369.351053 87.075832 
L 369.524226 71.096853 
L 369.567519 72.175216 
L 369.913863 106.495094 
L 370.000449 106.172022 
L 370.130328 101.697035 
L 370.216914 94.799006 
L 370.390086 76.353326 
L 370.433379 75.807596 
L 370.519966 81.985261 
L 370.693138 97.80707 
L 370.86631 109.228111 
L 370.909603 109.677793 
L 370.952896 108.075529 
L 371.29924 70.40705 
L 371.385826 79.758682 
L 371.42912 86.355468 
L 371.472413 76.803008 
L 371.732171 100.409112 
L 371.775464 100.151527 
L 372.165101 62.334609 
L 372.208394 63.190314 
L 372.468153 95.759491 
L 372.554739 100.038015 
L 372.598032 99.134286 
L 372.684618 92.646646 
L 373.030962 63.102997 
L 373.074255 64.015458 
L 373.247427 80.090486 
L 373.4206 94.157227 
L 373.940116 67.014791 
L 374.113288 79.164928 
L 374.979149 257.343644 
L 375.109028 287.358803 
L 375.238907 248.262694 
L 375.628545 100.928647 
L 375.671838 102.277692 
L 375.715131 112.925979 
L 375.758424 104.120077 
L 375.801717 102.168546 
L 375.84501 103.120299 
L 375.974889 105.534609 
L 376.018182 106.927313 
L 376.061475 105.910072 
L 376.494406 60.474761 
L 376.927336 103.473932 
L 377.100508 90.411335 
L 377.360267 66.661158 
L 377.620025 93.436863 
L 377.793197 102.015741 
L 377.83649 101.173134 
L 378.226128 67.001694 
L 378.485886 94.270739 
L 378.615765 107.442482 
L 378.659058 105.525878 
L 378.745644 97.942411 
L 379.048695 73.930284 
L 379.091989 74.113649 
L 379.178575 83.670476 
L 379.221868 78.924806 
L 379.524919 107.197995 
L 379.568212 106.001754 
L 379.914556 73.681431 
L 379.957849 74.030698 
L 380.044436 86.451517 
L 380.087729 80.754094 
L 380.434073 108.638723 
L 380.780417 77.182836 
L 380.82371 80.784655 
L 381.213348 115.615337 
L 380.910296 79.269708 
L 381.256641 114.144049 
L 381.473106 95.921027 
L 381.646278 82.190456 
L 381.81945 94.493397 
L 382.079209 121.478662 
L 382.122502 120.732103 
L 382.512139 87.381441 
L 382.728604 106.433973 
L 382.94507 129.22803 
L 382.988363 129.097055 
L 383.161535 118.431305 
L 383.334707 99.356944 
L 383.378 100.356722 
L 383.464586 115.803068 
L 383.551172 115.209314 
L 383.81093 145.52135 
L 383.897517 144.106818 
L 384.200568 116.960016 
L 384.243861 116.549627 
L 384.287154 122.543927 
L 384.330447 121.819198 
L 384.37374 117.977257 
L 384.633498 156.588758 
L 384.720084 153.785888 
L 384.80667 151.664089 
L 384.893257 146.473104 
L 385.066429 125.744089 
L 385.109722 128.634276 
L 385.153015 134.790112 
L 385.196308 126.809354 
L 385.326187 139.614367 
L 385.499359 160.029041 
L 385.542652 158.824069 
L 386.062169 117.497015 
L 386.105462 120.112154 
L 386.321927 141.321411 
L 386.36522 141.365069 
L 386.451806 140.391487 
L 386.538392 134.279309 
L 386.92803 91.987404 
L 387.057909 107.163068 
L 387.144495 118.400744 
L 387.231081 118.365817 
L 387.317667 115.165655 
L 387.793891 74.960623 
L 387.837184 80.570729 
L 388.053649 101.762522 
L 388.140235 105.233366 
L 388.183528 104.124443 
L 388.270114 96.139319 
L 388.486579 70.546757 
L 388.529872 72.720946 
L 388.573165 78.457661 
L 388.616458 75.921108 
L 388.659751 68.398763 
L 388.703045 72.000582 
L 388.962803 100.120966 
L 389.006096 98.84614 
L 389.179268 91.777843 
L 389.35244 72.026777 
L 389.395733 72.755873 
L 389.439026 75.480158 
L 389.482319 63.997995 
L 389.525612 64.941017 
L 389.828664 101.256085 
L 389.871957 102.648788 
L 390.34818 64.932285 
L 390.391473 68.232861 
L 390.737818 100.802037 
L 390.997576 77.030031 
L 391.084162 68.582128 
L 391.127455 72.362947 
L 391.170748 72.035509 
L 391.214041 67.067181 
L 391.257334 68.669445 
L 391.603679 100.675428 
L 391.646972 99.295822 
L 392.079902 64.491335 
L 392.123195 67.023523 
L 392.426246 98.946555 
L 392.469539 99.80226 
L 392.599419 92.100916 
L 392.945763 64.8537 
L 392.989056 66.128526 
L 393.292107 101.194963 
L 393.378693 98.296044 
L 393.811624 64.111507 
L 393.854917 67.010425 
L 394.157968 104.534832 
L 394.244554 99.810991 
L 394.374433 91.297601 
L 394.677485 61.278076 
L 394.720778 65.355772 
L 395.023829 103.508859 
L 395.110415 100.374185 
L 395.370173 73.406383 
L 395.413467 75.702816 
L 395.45676 73.633407 
L 395.500053 65.285918 
L 395.586639 68.896469 
L 395.716518 85.980006 
L 395.88969 99.915772 
L 396.149448 80.675509 
L 396.365914 63.535216 
L 396.409207 63.932507 
L 396.798844 100.321795 
L 396.842137 100.66233 
L 396.88543 100.186454 
L 397.101895 74.061259 
L 397.145188 76.986373 
L 397.188481 72.961067 
L 397.231774 64.827505 
L 397.275067 66.329354 
L 397.621412 99.374407 
L 397.664705 98.064655 
L 397.794584 88.85273 
L 398.140928 56.49748 
L 398.400687 98.841775 
L 398.44398 100.850062 
L 398.487273 100.160259 
" style="fill:none;stroke:#1f77b4;stroke-linecap:square;stroke-width:1.5;"/>
   </g>
   <g id="patch_3">
    <path d="M 57.6 307.584 
L 57.6 41.472 
" style="fill:none;stroke:#000000;stroke-linecap:square;stroke-linejoin:miter;stroke-width:0.8;"/>
   </g>
   <g id="patch_4">
    <path d="M 414.72 307.584 
L 414.72 41.472 
" style="fill:none;stroke:#000000;stroke-linecap:square;stroke-linejoin:miter;stroke-width:0.8;"/>
   </g>
   <g id="patch_5">
    <path d="M 57.6 307.584 
L 414.72 307.584 
" style="fill:none;stroke:#000000;stroke-linecap:square;stroke-linejoin:miter;stroke-width:0.8;"/>
   </g>
   <g id="patch_6">
    <path d="M 57.6 41.472 
L 414.72 41.472 
" style="fill:none;stroke:#000000;stroke-linecap:square;stroke-linejoin:miter;stroke-width:0.8;"/>
   </g>
  </g>
 </g>
 <defs>
  <clipPath id="p29895cd525">
   <rect height="266.112" width="357.12" x="57.6" y="41.472"/>
  </clipPath>
 </defs>
</svg>
