<?xml version="1.0" encoding="utf-8" standalone="no"?>
<!DOCTYPE svg PUBLIC "-//W3C//DTD SVG 1.1//EN"
  "http://www.w3.org/Graphics/SVG/1.1/DTD/svg11.dtd">
<!-- Created with matplotlib (http://matplotlib.org/) -->
<svg height="345.6pt" version="1.1" viewBox="0 0 460.8 345.6" width="460.8pt" xmlns="http://www.w3.org/2000/svg" xmlns:xlink="http://www.w3.org/1999/xlink">
 <defs>
  <style type="text/css">
*{stroke-linecap:butt;stroke-linejoin:round;}
  </style>
 </defs>
 <g id="figure_1">
  <g id="patch_1">
   <path d="M 0 345.6 
L 460.8 345.6 
L 460.8 0 
L 0 0 
z
" style="fill:#ffffff;"/>
  </g>
  <g id="axes_1">
   <g id="patch_2">
    <path d="M 57.6 307.584 
L 414.72 307.584 
L 414.72 41.472 
L 57.6 41.472 
z
" style="fill:#ffffff;"/>
   </g>
   <g id="matplotlib.axis_1">
    <g id="xtick_1">
     <g id="line2d_1">
      <defs>
       <path d="M 0 0 
L 0 3.5 
" id="mc20c13655d" style="stroke:#000000;stroke-width:0.8;"/>
      </defs>
      <g>
       <use style="stroke:#000000;stroke-width:0.8;" x="73.832727" xlink:href="#mc20c13655d" y="307.584"/>
      </g>
     </g>
     <g id="text_1">
      <!-- 0 -->
      <defs>
       <path d="M 31.78125 66.40625 
Q 24.171875 66.40625 20.328125 58.90625 
Q 16.5 51.421875 16.5 36.375 
Q 16.5 21.390625 20.328125 13.890625 
Q 24.171875 6.390625 31.78125 6.390625 
Q 39.453125 6.390625 43.28125 13.890625 
Q 47.125 21.390625 47.125 36.375 
Q 47.125 51.421875 43.28125 58.90625 
Q 39.453125 66.40625 31.78125 66.40625 
z
M 31.78125 74.21875 
Q 44.046875 74.21875 50.515625 64.515625 
Q 56.984375 54.828125 56.984375 36.375 
Q 56.984375 17.96875 50.515625 8.265625 
Q 44.046875 -1.421875 31.78125 -1.421875 
Q 19.53125 -1.421875 13.0625 8.265625 
Q 6.59375 17.96875 6.59375 36.375 
Q 6.59375 54.828125 13.0625 64.515625 
Q 19.53125 74.21875 31.78125 74.21875 
z
" id="DejaVuSans-30"/>
      </defs>
      <g transform="translate(70.651477 322.182437)scale(0.1 -0.1)">
       <use xlink:href="#DejaVuSans-30"/>
      </g>
     </g>
    </g>
    <g id="xtick_2">
     <g id="line2d_2">
      <g>
       <use style="stroke:#000000;stroke-width:0.8;" x="117.125772" xlink:href="#mc20c13655d" y="307.584"/>
      </g>
     </g>
     <g id="text_2">
      <!-- 2 -->
      <defs>
       <path d="M 19.1875 8.296875 
L 53.609375 8.296875 
L 53.609375 0 
L 7.328125 0 
L 7.328125 8.296875 
Q 12.9375 14.109375 22.625 23.890625 
Q 32.328125 33.6875 34.8125 36.53125 
Q 39.546875 41.84375 41.421875 45.53125 
Q 43.3125 49.21875 43.3125 52.78125 
Q 43.3125 58.59375 39.234375 62.25 
Q 35.15625 65.921875 28.609375 65.921875 
Q 23.96875 65.921875 18.8125 64.3125 
Q 13.671875 62.703125 7.8125 59.421875 
L 7.8125 69.390625 
Q 13.765625 71.78125 18.9375 73 
Q 24.125 74.21875 28.421875 74.21875 
Q 39.75 74.21875 46.484375 68.546875 
Q 53.21875 62.890625 53.21875 53.421875 
Q 53.21875 48.921875 51.53125 44.890625 
Q 49.859375 40.875 45.40625 35.40625 
Q 44.1875 33.984375 37.640625 27.21875 
Q 31.109375 20.453125 19.1875 8.296875 
z
" id="DejaVuSans-32"/>
      </defs>
      <g transform="translate(113.944522 322.182437)scale(0.1 -0.1)">
       <use xlink:href="#DejaVuSans-32"/>
      </g>
     </g>
    </g>
    <g id="xtick_3">
     <g id="line2d_3">
      <g>
       <use style="stroke:#000000;stroke-width:0.8;" x="160.418818" xlink:href="#mc20c13655d" y="307.584"/>
      </g>
     </g>
     <g id="text_3">
      <!-- 4 -->
      <defs>
       <path d="M 37.796875 64.3125 
L 12.890625 25.390625 
L 37.796875 25.390625 
z
M 35.203125 72.90625 
L 47.609375 72.90625 
L 47.609375 25.390625 
L 58.015625 25.390625 
L 58.015625 17.1875 
L 47.609375 17.1875 
L 47.609375 0 
L 37.796875 0 
L 37.796875 17.1875 
L 4.890625 17.1875 
L 4.890625 26.703125 
z
" id="DejaVuSans-34"/>
      </defs>
      <g transform="translate(157.237568 322.182437)scale(0.1 -0.1)">
       <use xlink:href="#DejaVuSans-34"/>
      </g>
     </g>
    </g>
    <g id="xtick_4">
     <g id="line2d_4">
      <g>
       <use style="stroke:#000000;stroke-width:0.8;" x="203.711863" xlink:href="#mc20c13655d" y="307.584"/>
      </g>
     </g>
     <g id="text_4">
      <!-- 6 -->
      <defs>
       <path d="M 33.015625 40.375 
Q 26.375 40.375 22.484375 35.828125 
Q 18.609375 31.296875 18.609375 23.390625 
Q 18.609375 15.53125 22.484375 10.953125 
Q 26.375 6.390625 33.015625 6.390625 
Q 39.65625 6.390625 43.53125 10.953125 
Q 47.40625 15.53125 47.40625 23.390625 
Q 47.40625 31.296875 43.53125 35.828125 
Q 39.65625 40.375 33.015625 40.375 
z
M 52.59375 71.296875 
L 52.59375 62.3125 
Q 48.875 64.0625 45.09375 64.984375 
Q 41.3125 65.921875 37.59375 65.921875 
Q 27.828125 65.921875 22.671875 59.328125 
Q 17.53125 52.734375 16.796875 39.40625 
Q 19.671875 43.65625 24.015625 45.921875 
Q 28.375 48.1875 33.59375 48.1875 
Q 44.578125 48.1875 50.953125 41.515625 
Q 57.328125 34.859375 57.328125 23.390625 
Q 57.328125 12.15625 50.6875 5.359375 
Q 44.046875 -1.421875 33.015625 -1.421875 
Q 20.359375 -1.421875 13.671875 8.265625 
Q 6.984375 17.96875 6.984375 36.375 
Q 6.984375 53.65625 15.1875 63.9375 
Q 23.390625 74.21875 37.203125 74.21875 
Q 40.921875 74.21875 44.703125 73.484375 
Q 48.484375 72.75 52.59375 71.296875 
z
" id="DejaVuSans-36"/>
      </defs>
      <g transform="translate(200.530613 322.182437)scale(0.1 -0.1)">
       <use xlink:href="#DejaVuSans-36"/>
      </g>
     </g>
    </g>
    <g id="xtick_5">
     <g id="line2d_5">
      <g>
       <use style="stroke:#000000;stroke-width:0.8;" x="247.004908" xlink:href="#mc20c13655d" y="307.584"/>
      </g>
     </g>
     <g id="text_5">
      <!-- 8 -->
      <defs>
       <path d="M 31.78125 34.625 
Q 24.75 34.625 20.71875 30.859375 
Q 16.703125 27.09375 16.703125 20.515625 
Q 16.703125 13.921875 20.71875 10.15625 
Q 24.75 6.390625 31.78125 6.390625 
Q 38.8125 6.390625 42.859375 10.171875 
Q 46.921875 13.96875 46.921875 20.515625 
Q 46.921875 27.09375 42.890625 30.859375 
Q 38.875 34.625 31.78125 34.625 
z
M 21.921875 38.8125 
Q 15.578125 40.375 12.03125 44.71875 
Q 8.5 49.078125 8.5 55.328125 
Q 8.5 64.0625 14.71875 69.140625 
Q 20.953125 74.21875 31.78125 74.21875 
Q 42.671875 74.21875 48.875 69.140625 
Q 55.078125 64.0625 55.078125 55.328125 
Q 55.078125 49.078125 51.53125 44.71875 
Q 48 40.375 41.703125 38.8125 
Q 48.828125 37.15625 52.796875 32.3125 
Q 56.78125 27.484375 56.78125 20.515625 
Q 56.78125 9.90625 50.3125 4.234375 
Q 43.84375 -1.421875 31.78125 -1.421875 
Q 19.734375 -1.421875 13.25 4.234375 
Q 6.78125 9.90625 6.78125 20.515625 
Q 6.78125 27.484375 10.78125 32.3125 
Q 14.796875 37.15625 21.921875 38.8125 
z
M 18.3125 54.390625 
Q 18.3125 48.734375 21.84375 45.5625 
Q 25.390625 42.390625 31.78125 42.390625 
Q 38.140625 42.390625 41.71875 45.5625 
Q 45.3125 48.734375 45.3125 54.390625 
Q 45.3125 60.0625 41.71875 63.234375 
Q 38.140625 66.40625 31.78125 66.40625 
Q 25.390625 66.40625 21.84375 63.234375 
Q 18.3125 60.0625 18.3125 54.390625 
z
" id="DejaVuSans-38"/>
      </defs>
      <g transform="translate(243.823658 322.182437)scale(0.1 -0.1)">
       <use xlink:href="#DejaVuSans-38"/>
      </g>
     </g>
    </g>
    <g id="xtick_6">
     <g id="line2d_6">
      <g>
       <use style="stroke:#000000;stroke-width:0.8;" x="290.297953" xlink:href="#mc20c13655d" y="307.584"/>
      </g>
     </g>
     <g id="text_6">
      <!-- 10 -->
      <defs>
       <path d="M 12.40625 8.296875 
L 28.515625 8.296875 
L 28.515625 63.921875 
L 10.984375 60.40625 
L 10.984375 69.390625 
L 28.421875 72.90625 
L 38.28125 72.90625 
L 38.28125 8.296875 
L 54.390625 8.296875 
L 54.390625 0 
L 12.40625 0 
z
" id="DejaVuSans-31"/>
      </defs>
      <g transform="translate(283.935453 322.182437)scale(0.1 -0.1)">
       <use xlink:href="#DejaVuSans-31"/>
       <use x="63.623047" xlink:href="#DejaVuSans-30"/>
      </g>
     </g>
    </g>
    <g id="xtick_7">
     <g id="line2d_7">
      <g>
       <use style="stroke:#000000;stroke-width:0.8;" x="333.590998" xlink:href="#mc20c13655d" y="307.584"/>
      </g>
     </g>
     <g id="text_7">
      <!-- 12 -->
      <g transform="translate(327.228498 322.182437)scale(0.1 -0.1)">
       <use xlink:href="#DejaVuSans-31"/>
       <use x="63.623047" xlink:href="#DejaVuSans-32"/>
      </g>
     </g>
    </g>
    <g id="xtick_8">
     <g id="line2d_8">
      <g>
       <use style="stroke:#000000;stroke-width:0.8;" x="376.884043" xlink:href="#mc20c13655d" y="307.584"/>
      </g>
     </g>
     <g id="text_8">
      <!-- 14 -->
      <g transform="translate(370.521543 322.182437)scale(0.1 -0.1)">
       <use xlink:href="#DejaVuSans-31"/>
       <use x="63.623047" xlink:href="#DejaVuSans-34"/>
      </g>
     </g>
    </g>
   </g>
   <g id="matplotlib.axis_2">
    <g id="ytick_1">
     <g id="line2d_9">
      <defs>
       <path d="M 0 0 
L -3.5 0 
" id="m5b88bd4b20" style="stroke:#000000;stroke-width:0.8;"/>
      </defs>
      <g>
       <use style="stroke:#000000;stroke-width:0.8;" x="57.6" xlink:href="#m5b88bd4b20" y="288.54035"/>
      </g>
     </g>
     <g id="text_9">
      <!-- −60000 -->
      <defs>
       <path d="M 10.59375 35.5 
L 73.1875 35.5 
L 73.1875 27.203125 
L 10.59375 27.203125 
z
" id="DejaVuSans-2212"/>
      </defs>
      <g transform="translate(10.407812 292.339569)scale(0.1 -0.1)">
       <use xlink:href="#DejaVuSans-2212"/>
       <use x="83.789062" xlink:href="#DejaVuSans-36"/>
       <use x="147.412109" xlink:href="#DejaVuSans-30"/>
       <use x="211.035156" xlink:href="#DejaVuSans-30"/>
       <use x="274.658203" xlink:href="#DejaVuSans-30"/>
       <use x="338.28125" xlink:href="#DejaVuSans-30"/>
      </g>
     </g>
    </g>
    <g id="ytick_2">
     <g id="line2d_10">
      <g>
       <use style="stroke:#000000;stroke-width:0.8;" x="57.6" xlink:href="#m5b88bd4b20" y="246.075149"/>
      </g>
     </g>
     <g id="text_10">
      <!-- −40000 -->
      <g transform="translate(10.407812 249.874368)scale(0.1 -0.1)">
       <use xlink:href="#DejaVuSans-2212"/>
       <use x="83.789062" xlink:href="#DejaVuSans-34"/>
       <use x="147.412109" xlink:href="#DejaVuSans-30"/>
       <use x="211.035156" xlink:href="#DejaVuSans-30"/>
       <use x="274.658203" xlink:href="#DejaVuSans-30"/>
       <use x="338.28125" xlink:href="#DejaVuSans-30"/>
      </g>
     </g>
    </g>
    <g id="ytick_3">
     <g id="line2d_11">
      <g>
       <use style="stroke:#000000;stroke-width:0.8;" x="57.6" xlink:href="#m5b88bd4b20" y="203.609949"/>
      </g>
     </g>
     <g id="text_11">
      <!-- −20000 -->
      <g transform="translate(10.407812 207.409168)scale(0.1 -0.1)">
       <use xlink:href="#DejaVuSans-2212"/>
       <use x="83.789062" xlink:href="#DejaVuSans-32"/>
       <use x="147.412109" xlink:href="#DejaVuSans-30"/>
       <use x="211.035156" xlink:href="#DejaVuSans-30"/>
       <use x="274.658203" xlink:href="#DejaVuSans-30"/>
       <use x="338.28125" xlink:href="#DejaVuSans-30"/>
      </g>
     </g>
    </g>
    <g id="ytick_4">
     <g id="line2d_12">
      <g>
       <use style="stroke:#000000;stroke-width:0.8;" x="57.6" xlink:href="#m5b88bd4b20" y="161.144749"/>
      </g>
     </g>
     <g id="text_12">
      <!-- 0 -->
      <g transform="translate(44.2375 164.943967)scale(0.1 -0.1)">
       <use xlink:href="#DejaVuSans-30"/>
      </g>
     </g>
    </g>
    <g id="ytick_5">
     <g id="line2d_13">
      <g>
       <use style="stroke:#000000;stroke-width:0.8;" x="57.6" xlink:href="#m5b88bd4b20" y="118.679548"/>
      </g>
     </g>
     <g id="text_13">
      <!-- 20000 -->
      <g transform="translate(18.7875 122.478767)scale(0.1 -0.1)">
       <use xlink:href="#DejaVuSans-32"/>
       <use x="63.623047" xlink:href="#DejaVuSans-30"/>
       <use x="127.246094" xlink:href="#DejaVuSans-30"/>
       <use x="190.869141" xlink:href="#DejaVuSans-30"/>
       <use x="254.492188" xlink:href="#DejaVuSans-30"/>
      </g>
     </g>
    </g>
    <g id="ytick_6">
     <g id="line2d_14">
      <g>
       <use style="stroke:#000000;stroke-width:0.8;" x="57.6" xlink:href="#m5b88bd4b20" y="76.214348"/>
      </g>
     </g>
     <g id="text_14">
      <!-- 40000 -->
      <g transform="translate(18.7875 80.013567)scale(0.1 -0.1)">
       <use xlink:href="#DejaVuSans-34"/>
       <use x="63.623047" xlink:href="#DejaVuSans-30"/>
       <use x="127.246094" xlink:href="#DejaVuSans-30"/>
       <use x="190.869141" xlink:href="#DejaVuSans-30"/>
       <use x="254.492188" xlink:href="#DejaVuSans-30"/>
      </g>
     </g>
    </g>
   </g>
   <g id="line2d_15">
    <path clip-path="url(#p954b08425b)" d="M 73.832727 135.181869 
L 74.222365 194.851845 
L 74.308951 188.828156 
L 74.655295 142.09308 
L 74.698588 142.339378 
L 75.088226 202.973314 
L 75.174812 197.384894 
L 75.521156 152.569245 
L 75.564449 153.261428 
L 75.954086 214.118306 
L 75.99738 211.712653 
L 76.257138 168.241027 
L 76.300431 171.33037 
L 76.343724 168.419381 
L 76.43031 156.081117 
L 76.819947 215.15658 
L 76.99312 193.244537 
L 77.252878 156.20002 
L 77.296171 155.688314 
L 77.685808 207.73791 
L 77.729101 205.748415 
L 78.162032 144.371338 
L 78.508376 193.2594 
L 78.594962 191.484355 
L 78.9846 130.236796 
L 79.027893 133.135046 
L 79.244358 170.09251 
L 79.374237 183.483911 
L 79.41753 181.405239 
L 79.590702 158.49314 
L 79.850461 122.869084 
L 80.023633 143.785318 
L 80.283391 179.267116 
L 80.326684 176.676739 
L 80.716321 118.028051 
L 80.759614 121.680058 
L 81.149252 176.615165 
L 81.192545 175.186211 
L 81.582182 117.915518 
L 81.625475 119.858301 
L 82.015113 176.050377 
L 82.058406 173.500342 
L 82.448043 119.599263 
L 82.621215 140.296802 
L 82.837681 173.999308 
L 82.880974 173.194593 
L 83.313904 117.900655 
L 83.357197 120.582333 
L 83.703542 173.608628 
L 83.746835 173.544931 
L 83.790128 172.143579 
L 84.136472 118.682015 
L 84.223058 122.181148 
L 84.569402 176.906051 
L 84.655989 171.795364 
L 85.002333 118.191542 
L 85.045626 120.204392 
L 85.175505 134.194553 
L 85.435263 174.753066 
L 85.478556 174.313551 
L 85.565143 165.659143 
L 85.911487 118.219144 
L 85.998073 128.378943 
L 86.301124 175.037582 
L 86.38771 172.338919 
L 86.517589 153.28903 
L 86.734055 116.588481 
L 86.777348 117.639494 
L 86.907227 134.702012 
L 87.166985 172.992883 
L 87.210278 172.829392 
L 87.253571 171.774132 
L 87.643209 116.847518 
L 87.686502 120.471923 
L 88.032846 173.377193 
L 88.076139 173.130895 
L 88.162725 163.270475 
L 88.465777 117.459017 
L 88.552363 120.380623 
L 88.942 174.311427 
L 89.201758 138.72559 
L 89.37493 117.590659 
L 89.461517 124.860702 
L 89.764568 172.850625 
L 89.851154 168.858896 
L 90.197498 117.329498 
L 90.240791 117.783876 
L 90.327377 126.612391 
L 90.673722 171.578792 
L 90.93348 137.797725 
L 91.063359 116.238143 
L 91.106652 119.085434 
L 91.236531 135.623507 
L 91.49629 180.31813 
L 91.582876 171.653106 
L 91.92922 121.822317 
L 91.972513 121.839303 
L 92.145685 147.900196 
L 92.362151 176.37099 
L 92.405444 176.568453 
L 92.621909 156.887956 
L 92.795081 123.771469 
L 92.838374 122.79477 
L 93.011546 145.568857 
L 93.228011 175.160731 
L 93.357891 162.202476 
L 93.660942 117.887916 
L 93.704235 118.038667 
L 93.877407 143.492308 
L 94.093872 174.583205 
L 94.137165 174.245606 
L 94.353631 144.674964 
L 94.526803 114.359058 
L 94.570096 114.131869 
L 94.959733 168.568009 
L 95.003026 166.410777 
L 95.435957 114.335702 
L 95.47925 117.038612 
L 95.825594 168.117878 
L 95.91218 165.289696 
L 96.301818 112.373809 
L 96.431697 131.075484 
L 96.691455 167.680486 
L 96.734748 168.287739 
L 96.90792 155.743519 
L 97.081093 126.983962 
L 97.124386 127.153822 
L 97.210972 135.910147 
L 97.643902 220.252405 
L 97.687195 218.275649 
L 97.773781 223.322638 
L 97.860367 206.079644 
L 97.90366 207.476749 
L 97.946953 207.024495 
L 98.03354 216.42629 
L 98.250005 246.502268 
L 98.293298 248.625528 
L 98.423177 221.101709 
L 98.8994 75.19765 
L 98.942693 76.121268 
L 99.115866 100.205406 
L 99.289038 111.367384 
L 99.375624 107.3523 
L 99.548796 85.881894 
L 99.721968 76.087296 
L 99.851847 100.479307 
L 100.198192 160.276679 
L 100.241485 157.609864 
L 100.414657 133.485384 
L 100.587829 117.10231 
L 100.631122 117.27854 
L 100.804294 142.621772 
L 100.977467 172.298577 
L 101.02076 173.674449 
L 101.064053 173.052334 
L 101.45369 120.200146 
L 101.540276 125.650554 
L 101.886621 174.759435 
L 101.929914 173.487603 
L 102.362844 121.612114 
L 102.406137 126.495612 
L 102.752481 178.084461 
L 102.795774 176.740437 
L 103.185412 122.663128 
L 103.228705 123.692909 
L 103.401877 152.063909 
L 103.575049 179.831904 
L 103.618342 180.4158 
L 103.748221 173.833694 
L 103.791515 169.253822 
L 104.00798 127.631556 
L 104.094566 125.047549 
L 104.484203 182.687688 
L 104.570789 176.400715 
L 104.614082 177.472962 
L 104.700668 157.125761 
L 104.917134 127.958538 
L 104.960427 129.221878 
L 105.306771 185.876825 
L 105.350064 184.613485 
L 105.393357 184.241915 
L 105.609822 149.620037 
L 105.826288 132.064923 
L 105.956167 153.359098 
L 106.172632 187.902415 
L 106.259218 190.140331 
L 106.302511 188.641309 
L 106.345804 187.583926 
L 106.562269 145.551871 
L 106.605562 140.708714 
L 106.692149 141.51343 
L 107.081786 198.312759 
L 107.168372 196.71819 
L 107.254958 178.2798 
L 107.514716 146.490351 
L 107.558009 147.609309 
L 107.947647 204.529664 
L 108.034233 202.493458 
L 108.164112 175.481344 
L 108.380577 149.685858 
L 108.42387 150.318589 
L 108.640336 190.399369 
L 108.770215 205.304654 
L 108.813508 203.542348 
L 108.856801 202.858658 
L 108.900094 203.304543 
L 108.98668 183.146312 
L 109.246438 145.677143 
L 109.289731 144.564555 
L 109.636076 196.93264 
L 109.679369 196.539837 
L 109.809248 186.813182 
L 110.025713 141.80007 
L 110.155592 133.78264 
L 110.588523 184.9617 
L 110.631816 182.783235 
L 110.848281 134.75297 
L 110.97816 123.155724 
L 111.021453 125.915962 
L 111.454383 177.687411 
L 111.54097 159.508059 
L 111.844021 117.919765 
L 111.887314 119.276528 
L 112.320244 173.275277 
L 112.363537 168.187946 
L 112.623296 120.75007 
L 112.753175 117.146898 
L 113.186105 173.544931 
L 113.229398 168.355683 
L 113.489157 121.100408 
L 113.575743 115.968489 
L 113.619036 116.90697 
L 114.051966 175.264771 
L 114.441604 116.41862 
L 114.484897 118.480305 
L 114.917827 176.296676 
L 115.177585 125.665417 
L 115.307465 113.654135 
L 115.350758 117.185117 
L 115.740395 174.188278 
L 115.783688 175.139499 
L 116.000153 129.786665 
L 116.173325 114.38666 
L 116.216618 115.388839 
L 116.606256 171.016128 
L 116.649549 170.427985 
L 116.909307 123.688662 
L 117.039186 111.651901 
L 117.082479 115.505618 
L 117.472117 172.833639 
L 117.51541 170.544764 
L 117.775168 123.796948 
L 117.905047 111.707106 
L 117.94834 114.594739 
L 118.337978 172.687134 
L 118.381271 170.355794 
L 118.641029 121.979438 
L 118.770908 111.452315 
L 118.857494 121.595128 
L 119.203839 170.999142 
L 119.247132 168.682665 
L 119.50689 120.331788 
L 119.636769 108.110303 
L 119.680062 111.458684 
L 120.069699 174.277455 
L 120.329458 122.348885 
L 120.459337 109.180426 
L 120.50263 110.492601 
L 120.719095 145.343791 
L 120.892267 170.657297 
L 120.93556 171.534203 
L 121.195319 124.064479 
L 121.325198 109.375766 
L 121.368491 110.246303 
L 121.541663 136.012063 
L 121.758128 172.086251 
L 121.801421 172.353782 
L 122.147766 119.161872 
L 122.191059 114.401523 
L 122.234352 114.571384 
L 122.364231 129.383245 
L 122.623989 177.160842 
L 122.667282 175.678807 
L 122.92704 130.646585 
L 123.05692 117.898532 
L 123.100213 118.732973 
L 123.273385 143.296968 
L 123.48985 176.564206 
L 123.533143 175.245662 
L 123.792901 126.039111 
L 123.92278 110.819583 
L 124.009367 113.998103 
L 124.355711 177.935832 
L 124.399004 165.470173 
L 124.788641 109.45008 
L 124.831934 109.556243 
L 125.005107 133.97798 
L 125.221572 173.561917 
L 125.654502 104.62391 
L 125.697795 105.273628 
L 126.087433 168.160343 
L 126.47707 108.135782 
L 126.563656 104.05063 
L 126.780121 142.369104 
L 126.953294 167.765417 
L 127.256345 119.32324 
L 127.386224 104.471036 
L 127.429517 105.186574 
L 127.819155 186.369421 
L 127.905741 179.517661 
L 127.949034 179.084516 
L 128.078913 165.444694 
L 128.122206 160.835096 
L 128.208792 162.864933 
L 128.338671 180.744905 
L 128.641722 276.083527 
L 128.728309 263.24842 
L 128.858188 230.439806 
L 129.204532 98.583236 
L 129.247825 100.534512 
L 129.420997 123.66106 
L 129.507583 131.691229 
L 129.940514 58.181844 
L 129.983807 58.411156 
L 130.070393 66.029413 
L 130.373444 136.638425 
L 130.503323 130.51919 
L 130.589909 123.93496 
L 130.806375 100.239378 
L 130.849668 100.177804 
L 130.979547 115.15528 
L 131.239305 168.512804 
L 131.325891 161.930698 
L 131.499063 137.927244 
L 131.715529 111.441698 
L 131.758822 111.087114 
L 131.888701 129.030784 
L 132.105166 173.226442 
L 132.148459 165.047644 
L 132.364924 141.596237 
L 132.58139 111.203893 
L 132.624683 112.044704 
L 132.841148 151.125428 
L 132.927734 171.631873 
L 133.01432 168.55527 
L 133.144199 156.77967 
L 133.44725 113.809133 
L 133.490543 113.915296 
L 133.707009 154.711614 
L 133.793595 174.629916 
L 133.836888 167.648638 
L 133.923474 168.497942 
L 134.313111 117.29128 
L 134.399697 123.822427 
L 134.659456 176.785025 
L 134.789335 171.462013 
L 135.178972 120.505895 
L 135.265558 129.839746 
L 135.525317 182.63036 
L 135.655196 174.750942 
L 135.828368 151.44604 
L 136.044833 123.937084 
L 136.088126 124.782141 
L 136.304591 168.277123 
L 136.391177 184.914988 
L 136.434471 179.672659 
L 136.521057 178.600413 
L 136.737522 147.222876 
L 136.867401 131.733694 
L 136.910694 132.098895 
L 136.953987 131.810132 
L 137.127159 162.47213 
L 137.257038 193.446247 
L 137.300331 188.953429 
L 137.386918 187.643377 
L 137.603383 155.206334 
L 137.776555 135.379332 
L 137.819848 137.339101 
L 138.079606 197.474071 
L 138.209485 193.038581 
L 138.252778 193.537547 
L 138.642416 142.500746 
L 138.729002 149.320657 
L 138.858881 170.786816 
L 138.945467 196.391208 
L 139.032053 195.318962 
L 139.075346 197.556878 
L 139.118639 196.539837 
L 139.291812 167.508502 
L 139.508277 140.523991 
L 139.55157 141.789454 
L 139.811328 194.200004 
L 139.941207 190.456697 
L 140.027793 182.560293 
L 140.200965 148.864156 
L 140.374138 131.485273 
L 140.417431 132.205058 
L 140.590603 159.361554 
L 140.677189 182.585772 
L 140.720482 178.85945 
L 140.763775 179.560126 
L 140.807068 179.396635 
L 140.936947 165.627294 
L 141.239999 120.811645 
L 141.283292 122.055875 
L 141.456464 146.878908 
L 141.54305 171.396191 
L 141.586343 166.933099 
L 141.672929 171.173249 
L 141.716222 169.818609 
L 142.105859 113.851598 
L 142.149152 115.072473 
L 142.322325 148.129508 
L 142.365618 165.308805 
L 142.452204 162.510348 
L 142.495497 167.880073 
L 142.53879 167.109329 
L 142.668669 153.535328 
L 142.97172 111.246358 
L 143.015013 114.696656 
L 143.361358 165.319421 
L 143.491237 158.217117 
L 143.837581 111.679503 
L 143.924167 120.546237 
L 144.054046 148.802582 
L 144.183926 162.225831 
L 144.227219 165.372503 
L 144.270512 163.629306 
L 144.443684 144.906399 
L 144.703442 109.842884 
L 144.746735 111.021293 
L 145.136373 163.540129 
L 145.179666 162.268297 
L 145.52601 110.936362 
L 145.612596 113.569205 
L 145.785768 149.649762 
L 145.915647 161.58673 
L 146.002234 167.206999 
L 146.045527 164.351215 
L 146.218699 136.547125 
L 146.435164 110.507464 
L 146.478457 112.772982 
L 146.824801 163.739716 
L 146.868094 165.46805 
L 146.911387 163.773688 
L 147.301025 111.135949 
L 147.430904 127.650665 
L 147.647369 162.773633 
L 147.690662 166.731389 
L 147.733955 166.281258 
L 147.907127 143.341557 
L 148.166886 111.698613 
L 148.296765 127.882101 
L 148.51323 162.334118 
L 148.556523 165.74832 
L 148.599816 165.209012 
L 148.686402 158.208623 
L 149.032747 109.513778 
L 149.07604 112.683805 
L 149.422384 167.325902 
L 149.465677 166.364065 
L 149.682142 132.678545 
L 149.855315 113.41633 
L 149.898608 111.053142 
L 149.941901 111.259098 
L 150.331538 165.111342 
L 150.418124 155.550302 
L 150.721175 109.719734 
L 150.807762 110.923623 
L 150.937641 139.738385 
L 151.110813 162.811851 
L 151.197399 164.926618 
L 151.327278 150.327082 
L 151.587036 112.099909 
L 151.673622 116.450469 
L 152.06326 168.005345 
L 152.106553 166.364065 
L 152.49619 114.711519 
L 152.539483 118.898588 
L 152.885828 172.048032 
L 152.929121 171.277289 
L 153.362051 109.329055 
L 153.405344 113.936529 
L 153.751689 165.366133 
L 153.881568 156.696862 
L 154.227912 110.089182 
L 154.271205 115.720067 
L 154.617549 167.580693 
L 154.660843 164.151628 
L 155.05048 106.26519 
L 155.093773 107.5349 
L 155.180359 117.592783 
L 155.396824 154.320934 
L 155.526703 162.402062 
L 155.61329 150.702899 
L 155.916341 104.517747 
L 155.959634 104.277819 
L 156.04622 118.652289 
L 156.262685 153.906899 
L 156.392564 161.219406 
L 156.825495 104.789525 
L 156.868788 110.080689 
L 157.171839 165.043397 
L 157.258425 172.249742 
L 157.301718 169.003277 
L 157.648063 144.375584 
L 157.734649 158.607796 
L 158.0377 246.162547 
L 158.124286 255.986871 
L 158.167579 255.596191 
L 158.210872 255.549479 
L 158.254165 253.734092 
L 158.470631 200.996559 
L 158.773682 139.371061 
L 158.946854 134.527905 
L 159.120026 105.993413 
L 159.423078 53.568 
L 159.856008 123.905235 
L 159.942594 117.405936 
L 160.245645 94.109527 
L 160.288938 94.11165 
L 160.678576 163.552869 
L 160.721869 163.518897 
L 161.111506 111.344028 
L 161.154799 111.955527 
L 161.457851 162.412678 
L 161.544437 166.480845 
L 161.58773 165.642157 
L 161.717609 150.288864 
L 161.977367 112.235798 
L 162.02066 113.167909 
L 162.280418 160.953999 
L 162.410298 171.462013 
L 162.453591 170.468327 
L 162.886521 116.068282 
L 163.189572 167.674117 
L 163.276159 173.642601 
L 163.319452 172.315563 
L 163.709089 117.817848 
L 163.752382 119.730905 
L 164.01214 166.801457 
L 164.142019 175.678807 
L 164.185312 175.154362 
L 164.57495 123.552773 
L 164.791415 151.792132 
L 164.964587 179.233144 
L 165.051173 179.513415 
L 165.224346 156.299813 
L 165.440811 126.646363 
L 165.873741 186.146479 
L 165.917034 185.598678 
L 166.306672 136.891093 
L 166.349965 142.838344 
L 166.696309 192.034279 
L 166.739602 192.29544 
L 166.782895 191.62449 
L 167.12924 139.511196 
L 167.172533 140.432691 
L 167.518877 193.796585 
L 167.605463 197.261745 
L 167.648756 196.837093 
L 167.9951 144.335243 
L 168.038393 145.615568 
L 168.384738 196.949626 
L 168.471324 201.588949 
L 168.514617 198.95186 
L 168.904254 146.305628 
L 169.293892 197.533522 
L 169.337185 198.472003 
L 169.380478 196.826477 
L 169.726822 139.290377 
L 169.943287 153.422795 
L 170.159753 187.341874 
L 170.203046 188.027687 
L 170.289632 177.632206 
L 170.592683 127.540256 
L 170.635976 131.444931 
L 170.765855 137.0652 
L 171.068907 175.816819 
L 171.1122 175.073678 
L 171.458544 115.957872 
L 171.54513 124.340503 
L 171.588423 124.043247 
L 171.718302 146.494598 
L 171.891474 171.179619 
L 171.978061 165.557226 
L 172.324405 114.161594 
L 172.410991 120.983629 
L 172.454284 119.393307 
L 172.627456 153.314509 
L 172.800628 166.725019 
L 172.843921 165.104972 
L 173.190266 116.30821 
L 173.233559 118.752083 
L 173.406731 133.617026 
L 173.666489 167.680486 
L 173.709782 165.928797 
L 174.056127 113.947145 
L 174.489057 168.487325 
L 174.142713 113.552219 
L 174.575643 165.279079 
L 175.008574 114.734875 
L 175.354918 169.01177 
L 175.441504 164.319366 
L 175.874435 116.380401 
L 176.047607 147.79191 
L 176.220779 169.846212 
L 176.264072 169.633886 
L 176.393951 154.964282 
L 176.740296 112.671066 
L 176.870175 136.570481 
L 177.043347 170.519285 
L 177.08664 170.052168 
L 177.303105 147.343902 
L 177.476277 119.871041 
L 177.51957 120.966643 
L 177.562863 120.875343 
L 177.606156 116.074652 
L 177.64945 121.493211 
L 177.995794 169.720939 
L 178.08238 158.928409 
L 178.472017 111.233619 
L 178.818362 169.047866 
L 178.904948 163.869235 
L 179.294585 112.938597 
L 179.337878 115.671232 
L 179.684223 167.635898 
L 179.727516 168.317464 
L 179.857395 152.257126 
L 180.160446 111.760187 
L 180.247032 121.917863 
L 180.550084 167.160288 
L 180.63667 163.907453 
L 181.026307 108.859814 
L 181.0696 111.101977 
L 181.372651 169.606283 
L 181.415944 171.612764 
L 181.459237 170.455587 
L 181.545824 162.951986 
L 181.892168 114.272004 
L 181.935461 117.265801 
L 182.281805 172.21577 
L 182.368391 168.345067 
L 182.758029 119.571661 
L 182.801322 121.276639 
L 183.147666 168.589242 
L 183.190959 170.296343 
L 183.407425 134.975912 
L 183.580597 111.295193 
L 183.62389 110.356712 
L 184.013527 170.793186 
L 184.100113 165.491405 
L 184.489751 110.522327 
L 184.662923 139.341335 
L 184.836095 165.102849 
L 184.879388 164.850181 
L 184.922681 164.905386 
L 185.139146 131.48315 
L 185.312318 107.762089 
L 185.355612 107.779075 
L 185.572077 146.702677 
L 185.745249 163.132463 
L 185.788542 162.251311 
L 185.961714 139.18846 
L 186.221472 106.604912 
L 186.437938 143.704634 
L 186.61111 164.527445 
L 186.654403 163.576225 
L 186.827575 137.419785 
L 187.04404 111.318549 
L 187.130626 122.832988 
L 187.520264 196.057857 
L 187.563557 195.830668 
L 187.736729 189.034112 
L 187.780022 190.352657 
L 187.823315 196.524974 
L 187.866608 187.717691 
L 187.909901 189.507599 
L 188.256246 268.900538 
L 188.342832 264.269708 
L 188.472711 221.4478 
L 188.819055 81.905028 
L 188.948934 89.446848 
L 189.1654 111.140195 
L 189.208693 110.649722 
L 189.295279 101.870042 
L 189.59833 62.460213 
L 189.641623 61.723442 
L 189.771502 86.3936 
L 190.117847 149.588188 
L 190.16114 147.403353 
L 190.291019 133.510863 
L 190.507484 111.913062 
L 190.550777 112.840927 
L 190.723949 141.823426 
L 190.897121 168.92047 
L 190.940414 168.810061 
L 191.113587 150.985293 
L 191.373345 112.082923 
L 191.459931 120.773426 
L 191.806275 171.309138 
L 191.849568 170.069154 
L 192.15262 123.032575 
L 192.195913 116.977037 
L 192.282499 119.1279 
L 192.498964 159.563263 
L 192.672136 175.122513 
L 192.758722 168.423627 
L 193.105067 119.875287 
L 193.14836 121.083422 
L 193.494704 177.205431 
L 193.624583 170.202919 
L 193.927634 120.55473 
L 194.014221 122.998603 
L 194.403858 180.296897 
L 194.447151 178.598289 
L 194.706909 143.25875 
L 194.836788 125.850141 
L 194.880081 126.582666 
L 195.269719 185.360873 
L 195.313012 183.774797 
L 195.659356 131.599929 
L 195.745942 133.931268 
L 196.13558 190.877102 
L 196.178873 189.785746 
L 196.56851 138.808397 
L 196.611803 139.799959 
L 196.958148 200.174858 
L 197.044734 197.518659 
L 197.304492 157.728767 
L 197.434371 147.760061 
L 197.477664 149.165659 
L 197.824009 206.801552 
L 197.867302 206.616829 
L 197.953888 198.807478 
L 198.170353 162.104806 
L 198.256939 150.431122 
L 198.300232 152.437603 
L 198.473404 172.500287 
L 198.689869 208.754951 
L 198.733162 208.379134 
L 198.819749 199.501784 
L 199.166093 147.929922 
L 199.252679 157.565276 
L 199.55573 200.486977 
L 199.642316 197.601467 
L 200.075247 138.201144 
L 200.11854 144.31401 
L 200.291712 177.549399 
L 200.421591 188.762335 
L 200.464884 188.057413 
L 200.508177 186.286614 
L 200.897815 127.196288 
L 200.941108 129.083866 
L 201.287452 182.655839 
L 201.330745 181.116476 
L 201.54721 158.635399 
L 201.720383 123.491199 
L 201.763676 121.958205 
L 201.806969 123.92859 
L 202.153313 176.647013 
L 202.196606 175.050322 
L 202.413071 151.717818 
L 202.586243 118.180926 
L 202.67283 121.522937 
L 203.019174 172.988636 
L 203.10576 170.549011 
L 203.495397 119.057832 
L 203.53869 122.140806 
L 203.885035 173.952597 
L 203.928328 173.75301 
L 204.144793 150.248522 
L 204.317965 119.807343 
L 204.361258 119.730905 
L 204.447844 127.618816 
L 204.577724 154.059773 
L 204.707603 173.84431 
L 204.750896 173.256167 
L 204.794189 173.589519 
L 204.967361 160.467772 
L 205.183826 122.268201 
L 205.227119 120.380623 
L 205.270412 122.907302 
L 205.616757 176.562083 
L 205.66005 175.436755 
L 205.833222 164.045465 
L 206.006394 124.535843 
L 206.09298 119.263788 
L 206.266152 142.216229 
L 206.482618 177.388031 
L 206.569204 173.307125 
L 206.958841 122.00067 
L 207.002134 124.079342 
L 207.348478 176.460167 
L 207.435065 174.54074 
L 207.824702 122.493267 
L 207.867995 124.661115 
L 208.214339 178.394456 
L 208.300925 172.224263 
L 208.64727 120.276583 
L 208.690563 120.909315 
L 208.820442 135.279539 
L 209.123493 176.46229 
L 209.253372 165.807771 
L 209.513131 119.728782 
L 209.599717 123.499692 
L 209.946061 174.103348 
L 209.989354 173.566163 
L 210.119233 166.23667 
L 210.335699 122.002794 
L 210.378992 118.643796 
L 210.422285 118.947422 
L 210.63875 152.371782 
L 210.811922 174.258346 
L 210.855215 173.523698 
L 211.028387 148.600872 
L 211.244853 117.582166 
L 211.288146 117.979216 
L 211.461318 142.76403 
L 211.63449 173.916501 
L 211.677783 173.818831 
L 211.850955 163.448829 
L 212.06742 122.968877 
L 212.154006 116.41225 
L 212.327179 143.708881 
L 212.543644 176.942147 
L 212.716816 165.232368 
L 212.933281 126.814101 
L 213.019867 123.128121 
L 213.149747 139.681057 
L 213.366212 178.723562 
L 213.409505 178.511236 
L 213.452798 177.751109 
L 213.582677 169.627516 
L 213.799142 128.260041 
L 213.885728 124.650499 
L 214.0589 151.736927 
L 214.275366 176.551467 
L 214.361952 170.419492 
L 214.405245 170.967293 
L 214.535124 137.891148 
L 214.708296 116.085268 
L 214.751589 116.71163 
L 214.924761 143.284229 
L 215.141227 174.090608 
L 215.271106 171.62338 
L 215.487571 127.491421 
L 215.574157 119.522826 
L 215.61745 119.921999 
L 215.747329 132.25177 
L 216.007087 173.338974 
L 216.050381 172.256112 
L 216.093674 172.729599 
L 216.266846 136.050282 
L 216.483311 114.77097 
L 216.699776 153.401563 
L 216.872948 167.897059 
L 216.916241 166.886387 
L 216.959534 168.514928 
L 217.089414 141.674798 
L 217.305879 112.059567 
L 217.349172 112.193332 
L 217.565637 152.855885 
L 217.738809 169.069098 
L 217.825395 169.423683 
L 217.868688 163.385131 
L 218.128447 115.469523 
L 218.17174 113.52037 
L 218.215033 115.569316 
L 218.431498 165.935167 
L 218.60467 193.081046 
L 218.691256 199.633426 
L 218.734549 196.62689 
L 218.907722 175.568397 
L 219.037601 180.203474 
L 219.210773 220.721645 
L 219.427238 279.230198 
L 219.513824 278.563494 
L 219.557117 275.917912 
L 219.990048 104.364873 
L 220.033341 101.470869 
L 220.076634 103.054821 
L 220.249806 120.423088 
L 220.293099 120.019669 
L 220.336392 118.601331 
L 220.379685 121.176846 
L 220.552857 82.945426 
L 220.726029 62.405008 
L 220.769322 62.407131 
L 220.812616 64.698129 
L 221.245546 158.815876 
L 221.288839 157.467606 
L 221.548597 118.868862 
L 221.59189 114.95357 
L 221.635183 115.208362 
L 221.721769 125.174944 
L 222.111407 180.70244 
L 222.1547 177.460222 
L 222.414458 127.584844 
L 222.501044 121.359446 
L 222.544337 121.835056 
L 222.717509 150.67105 
L 222.933975 178.354115 
L 222.977268 182.72803 
L 223.020561 178.122679 
L 223.280319 131.251714 
L 223.366905 124.089958 
L 223.410198 126.531707 
L 223.58337 153.95998 
L 223.799836 184.556157 
L 223.843129 188.460832 
L 224.102887 137.094926 
L 224.232766 127.584844 
L 224.276059 128.506339 
L 224.449231 156.238238 
L 224.665697 189.660474 
L 224.70899 190.970526 
L 224.925455 146.607131 
L 225.14192 130.646585 
L 225.358385 174.661765 
L 225.531557 191.376068 
L 225.57485 192.603313 
L 225.791316 151.925897 
L 225.964488 134.876119 
L 226.007781 135.496111 
L 226.440711 199.966778 
L 226.657177 156.877339 
L 226.830349 138.2245 
L 226.873642 141.666305 
L 227.306572 202.654825 
L 227.609624 152.505547 
L 227.69621 147.513763 
L 227.739503 149.080729 
L 228.12914 214.757408 
L 228.172433 205.300407 
L 228.562071 151.870692 
L 228.69195 171.396191 
L 228.995001 220.938217 
L 229.384638 161.225776 
L 229.427931 160.040997 
L 229.557811 177.171459 
L 229.860862 225.282407 
L 230.163913 170.84839 
L 230.293792 161.070778 
L 230.337085 161.714126 
L 230.726723 217.789423 
L 230.770016 207.391819 
L 231.159653 149.785651 
L 231.202946 150.409889 
L 231.549291 206.162451 
L 231.635877 193.966445 
L 231.982221 136.77219 
L 232.025514 135.466385 
L 232.068807 136.347538 
L 232.415152 193.613984 
L 232.458445 193.482342 
L 232.761496 140.06749 
L 232.934668 127.858745 
L 233.281012 192.240235 
L 233.367599 177.207554 
L 233.757236 128.553051 
L 233.800529 130.347206 
L 234.060287 174.916557 
L 234.146873 190.312315 
L 234.190166 180.551689 
L 234.363339 159.550524 
L 234.579804 128.060454 
L 234.623097 127.21115 
L 234.709683 136.663904 
L 235.012734 189.581914 
L 235.09932 178.759657 
L 235.315786 142.980603 
L 235.445665 127.043413 
L 235.488958 127.32793 
L 235.532251 129.253727 
L 235.878595 190.768816 
L 235.921888 180.01875 
L 236.138353 152.497054 
L 236.311526 127.826896 
L 236.354819 128.595516 
L 236.527991 151.06173 
L 236.744456 190.73272 
L 237.134094 133.3134 
L 237.22068 129.132701 
L 237.307266 139.190584 
L 237.437145 163.903207 
L 237.567024 191.669078 
L 237.610317 183.974384 
L 237.826782 161.251255 
L 238.043247 129.198522 
L 238.086541 127.990387 
L 238.21642 143.73436 
L 238.432885 190.392999 
L 238.476178 182.547553 
L 238.562764 179.241637 
L 238.735936 152.373905 
L 238.909108 128.979826 
L 238.952401 128.640104 
L 239.082281 145.806662 
L 239.298746 190.913198 
L 239.342039 183.621923 
L 239.515211 167.835484 
L 239.774969 128.525448 
L 239.818262 130.043579 
L 239.991434 154.622437 
L 240.164607 189.01288 
L 240.554244 136.632055 
L 240.64083 127.886347 
L 240.684123 128.041345 
L 240.814002 145.46057 
L 241.030468 189.023496 
L 241.073761 182.335227 
L 241.160347 178.069598 
L 241.549984 127.11985 
L 241.679863 145.307696 
L 241.853035 187.898168 
L 241.939622 178.324389 
L 241.982915 179.630194 
L 242.112794 164.00937 
L 242.372552 127.079508 
L 242.459138 132.468342 
L 242.63231 163.862865 
L 242.718896 186.142232 
L 242.762189 181.19716 
L 242.848775 180.014504 
L 243.021948 157.679932 
L 243.238413 125.850141 
L 243.281706 125.714252 
L 243.498171 163.300201 
L 243.584757 184.331092 
L 243.62805 179.768206 
L 243.671343 180.180118 
L 243.714636 182.001875 
L 243.757929 179.375403 
L 244.104274 127.051906 
L 244.147567 127.52327 
L 244.320739 154.717984 
L 244.450618 185.42457 
L 244.537204 181.577223 
L 244.580497 182.379816 
L 244.710376 165.773799 
L 244.970135 125.317203 
L 245.013428 125.671787 
L 245.229893 164.850181 
L 245.316479 184.636841 
L 245.359772 179.241637 
L 245.403065 179.237391 
L 245.446358 178.940134 
L 245.835996 127.030673 
L 245.879289 127.7908 
L 246.052461 155.614 
L 246.139047 185.222861 
L 246.225633 181.279967 
L 246.268926 184.106026 
L 246.312219 183.611306 
L 246.528684 151.826104 
L 246.74515 131.591436 
L 246.918322 159.888122 
L 247.004908 190.123345 
L 247.091494 185.341763 
L 247.134787 187.698582 
L 247.17808 187.373723 
L 247.394545 153.613889 
L 247.567717 134.946187 
L 247.654303 139.744754 
L 247.870769 183.624046 
L 248.043941 182.35646 
L 248.260406 146.350216 
L 248.433578 126.94999 
L 248.476871 127.226013 
L 248.60675 146.972331 
L 248.866509 183.108094 
L 248.953095 176.25421 
L 249.299439 125.86925 
L 249.342732 128.482983 
L 249.515904 155.41866 
L 249.602491 179.713001 
L 249.645784 176.131061 
L 249.73237 180.443402 
L 249.775663 180.392444 
L 249.948835 153.501356 
L 250.1653 124.359612 
L 250.208593 124.402077 
L 250.381765 154.374016 
L 250.468351 179.428484 
L 250.511644 175.606616 
L 250.598231 178.0972 
L 250.641524 176.746807 
L 250.814696 152.161579 
L 251.031161 124.295914 
L 251.074454 125.083644 
L 251.247626 158.183144 
L 251.420798 180.209844 
L 251.464091 179.889232 
L 251.550678 172.402617 
L 251.853729 130.814323 
L 251.940315 134.897352 
L 252.373245 213.542903 
L 252.459831 212.111826 
L 252.503125 212.190386 
L 252.633004 205.124177 
L 252.71959 207.761266 
L 252.806176 209.971579 
L 253.022641 279.304512 
L 253.15252 276.597356 
L 253.282399 242.236639 
L 253.672037 91.98839 
L 253.71533 93.139197 
L 253.801916 100.347665 
L 253.888502 123.35531 
L 253.975088 121.790468 
L 254.018381 123.36805 
L 254.191553 107.314081 
L 254.451312 80.195804 
L 254.494605 82.198038 
L 254.581191 96.920723 
L 254.970828 167.812129 
L 255.057414 162.905275 
L 255.317172 127.71861 
L 255.360466 128.580653 
L 255.403759 127.896963 
L 255.533638 151.985348 
L 255.70681 183.091108 
L 255.750103 184.776976 
L 255.793396 183.430829 
L 255.836689 182.316118 
L 256.226326 131.047881 
L 256.269619 134.767833 
L 256.615964 185.696348 
L 256.659257 184.337461 
L 256.70255 183.787537 
L 256.875722 159.852027 
L 257.048894 136.154322 
L 257.092187 134.099006 
L 257.13548 134.115992 
L 257.525118 189.031989 
L 257.568411 188.087138 
L 257.958048 134.317702 
L 258.044634 145.452077 
L 258.347686 192.129826 
L 258.434272 190.161564 
L 258.780616 138.383745 
L 258.867202 142.239585 
L 259.25684 197.735232 
L 259.300133 195.783956 
L 259.68977 143.377652 
L 259.733063 144.483871 
L 260.1227 203.423446 
L 260.165994 199.917943 
L 260.512338 150.121126 
L 260.555631 150.199687 
L 260.642217 158.652385 
L 260.901975 205.31527 
L 260.988561 208.202904 
L 261.031854 206.776073 
L 261.421492 156.117212 
L 261.464785 158.066365 
L 261.854422 217.042035 
L 261.897715 214.58967 
L 262.24406 164.414913 
L 262.287353 164.701553 
L 262.330646 165.535994 
L 262.67699 222.31409 
L 262.720283 221.700468 
L 262.850162 208.504407 
L 263.109921 168.491572 
L 263.153214 169.154029 
L 263.2398 179.26924 
L 263.499558 223.099696 
L 263.542851 224.679402 
L 263.586144 223.830098 
L 263.716023 209.886649 
L 264.019075 166.905497 
L 264.105661 175.540795 
L 264.365419 217.254361 
L 264.408712 219.124953 
L 264.452005 217.137582 
L 264.581884 201.852233 
L 264.884935 154.117101 
L 264.928228 155.618246 
L 265.187987 201.805521 
L 265.23128 203.854467 
L 265.317866 202.790714 
L 265.404452 193.293372 
L 265.750796 143.294845 
L 265.794089 145.301326 
L 266.010555 183.471171 
L 266.140434 194.274318 
L 266.183727 193.255153 
L 266.356899 170.812295 
L 266.573364 136.799793 
L 266.616657 138.247856 
L 266.65995 139.307363 
L 266.963002 188.216657 
L 267.006295 189.318629 
L 267.049588 188.649802 
L 267.179467 174.196771 
L 267.482518 133.740175 
L 267.525811 136.850751 
L 267.785569 184.490336 
L 267.872156 188.983154 
L 267.915449 188.645556 
L 268.002035 180.585661 
L 268.305086 133.604286 
L 268.391672 138.24361 
L 268.65143 184.297119 
L 268.738016 190.930184 
L 268.78131 189.894033 
L 269.170947 132.23266 
L 269.257533 142.409446 
L 269.473998 179.035681 
L 269.560584 189.367464 
L 269.603877 188.428983 
L 269.64717 187.622145 
L 269.820343 164.913879 
L 270.080101 134.445097 
L 270.469738 190.395122 
L 270.556324 186.127369 
L 270.945962 134.791189 
L 271.292306 189.809102 
L 271.422185 186.358805 
L 271.76853 133.383467 
L 271.811823 133.597917 
L 272.114874 185.762169 
L 272.20146 189.093564 
L 272.244753 188.944936 
L 272.331339 177.861518 
L 272.677684 134.16695 
L 273.024028 189.554311 
L 273.067321 189.605269 
L 273.110614 188.959798 
L 273.283786 163.835263 
L 273.500251 135.336867 
L 273.673424 151.325015 
L 273.889889 189.479997 
L 273.933182 188.320697 
L 274.019768 182.536937 
L 274.366112 131.28781 
L 274.409405 137.895395 
L 274.75575 184.861907 
L 274.799043 184.27801 
L 274.842336 183.445692 
L 274.972215 168.476709 
L 275.231973 128.37682 
L 275.448438 156.824258 
L 275.621611 183.01467 
L 275.708197 180.084571 
L 275.838076 165.731334 
L 276.097834 125.291723 
L 276.530765 183.369255 
L 276.574058 181.766193 
L 276.963695 128.39593 
L 277.006988 135.160636 
L 277.439919 184.258901 
L 277.569798 164.835318 
L 277.786263 130.676311 
L 277.829556 133.366481 
L 278.262486 184.999918 
L 277.916142 132.413138 
L 278.305779 184.418145 
L 278.652124 129.880088 
L 278.782003 135.496111 
L 279.085054 185.583815 
L 279.214933 179.969915 
L 279.517985 130.262275 
L 279.561278 135.549193 
L 279.647864 135.118171 
L 279.73445 146.348093 
L 279.950915 184.985056 
L 280.037501 182.887275 
L 280.383846 135.823093 
L 280.513725 137.984572 
L 280.816776 192.293317 
L 280.946655 185.700594 
L 281.249707 136.835888 
L 281.72593 193.216935 
L 281.769223 191.524696 
L 282.202153 133.534219 
L 282.375326 161.402007 
L 282.548498 186.579624 
L 282.635084 184.454241 
L 283.068014 130.544669 
L 283.111307 136.294457 
L 283.414359 186.484077 
L 283.457652 185.002042 
L 283.630824 165.238737 
L 283.803996 131.65938 
L 283.890582 134.973789 
L 283.933875 129.6529 
L 283.977168 135.825216 
L 284.323513 184.178217 
L 284.366806 181.407362 
L 284.799736 127.869361 
L 284.929615 147.481914 
L 285.146081 182.674949 
L 285.189374 183.13145 
L 285.27596 174.935666 
L 285.665597 124.752415 
L 286.055235 180.434909 
L 286.098528 180.084571 
L 286.401579 148.619981 
L 286.531458 153.161634 
L 286.964388 255.768175 
L 287.050975 253.470807 
L 287.224147 237.990119 
L 287.26744 240.104886 
L 287.310733 240.083653 
L 287.397319 220.851164 
L 287.440612 222.348062 
L 287.527198 220.689796 
L 287.70037 195.306223 
L 288.219887 79.261569 
L 288.26318 79.14479 
L 288.69611 131.822871 
L 288.739403 128.092303 
L 289.085748 100.825398 
L 289.25892 132.608477 
L 289.475385 181.057025 
L 289.518678 180.487991 
L 289.605264 174.356016 
L 289.951609 127.378888 
L 290.038195 137.971832 
L 290.384539 185.664499 
L 290.427832 184.893755 
L 290.817469 132.381289 
L 290.860763 132.735873 
L 291.2504 189.968347 
L 291.293693 188.857882 
L 291.68333 135.035364 
L 291.726623 137.020612 
L 292.072968 195.431495 
L 292.116261 195.265881 
L 292.24614 179.596222 
L 292.505898 137.407045 
L 292.549191 138.266965 
L 292.765657 175.063062 
L 292.982122 197.42099 
L 293.068708 189.087194 
L 293.415052 142.029382 
L 293.458345 146.634733 
L 293.80469 200.034723 
L 293.847983 199.862739 
L 293.891276 197.98153 
L 294.280913 145.689882 
L 294.410792 166.51057 
L 294.627257 203.219613 
L 294.713844 202.669688 
L 294.80043 195.416632 
L 294.930309 173.455754 
L 295.146774 149.284562 
L 295.319946 179.904094 
L 295.536411 211.757241 
L 295.579704 211.054442 
L 295.709584 199.338293 
L 295.969342 156.539741 
L 296.012635 159.040941 
L 296.099221 170.198673 
L 296.445565 218.220445 
L 296.532151 208.498037 
L 296.835203 162.864933 
L 296.921789 168.965059 
L 297.268133 223.65599 
L 297.311426 220.929724 
L 297.484598 198.745904 
L 297.701064 164.77162 
L 297.78765 170.17107 
L 298.090701 219.137693 
L 298.133994 219.086735 
L 298.350459 195.329578 
L 298.566925 160.106818 
L 298.653511 164.389433 
L 298.956562 211.296494 
L 299.086441 207.211341 
L 299.432785 149.116824 
L 299.476079 149.679488 
L 299.649251 173.833694 
L 299.822423 200.058078 
L 299.952302 195.229785 
L 300.341939 139.466607 
L 300.385232 142.948754 
L 300.688284 194.769038 
L 300.731577 194.476028 
L 300.818163 187.596665 
L 301.164507 135.748779 
L 301.2078 136.315689 
L 301.424266 172.956788 
L 301.554145 192.344275 
L 301.597438 192.255098 
L 301.77061 173.122402 
L 302.030368 134.85701 
L 302.073661 135.024747 
L 302.20354 152.889857 
L 302.420006 190.639297 
L 302.463299 190.45882 
L 302.506592 189.639242 
L 302.636471 170.117989 
L 302.896229 133.200867 
L 302.939522 133.576684 
L 303.112694 162.612265 
L 303.32916 189.641365 
L 303.372453 188.4396 
L 303.805383 134.865503 
L 303.848676 138.368882 
L 304.151727 190.626557 
L 304.238313 189.817595 
L 304.498072 157.185212 
L 304.627951 134.797559 
L 304.671244 135.33899 
L 304.844416 163.482801 
L 305.017588 191.431273 
L 305.104174 187.437421 
L 305.363933 144.564555 
L 305.537105 131.058498 
L 305.883449 185.753676 
L 306.013328 181.496539 
L 306.359673 129.865226 
L 306.446259 134.302839 
L 306.74931 185.335393 
L 306.835896 183.401104 
L 307.268827 128.814212 
L 307.31212 136.578974 
L 307.615171 185.596554 
L 307.658464 184.125135 
L 307.701757 183.8024 
L 308.134688 132.139237 
L 308.524325 187.845087 
L 308.610911 181.806535 
L 308.827376 141.005971 
L 308.957255 132.663682 
L 309.000548 133.693463 
L 309.390186 188.269739 
L 309.433479 188.169946 
L 309.823116 133.546958 
L 309.866409 134.76571 
L 310.039582 162.404185 
L 310.212754 189.605269 
L 310.29934 187.479886 
L 310.645684 134.118115 
L 310.73227 137.557797 
L 311.078615 192.486533 
L 311.165201 188.193301 
L 311.511545 137.402799 
L 311.598131 138.082242 
L 311.944476 193.760489 
L 312.031062 191.114907 
L 312.247527 153.407933 
L 312.377406 141.137613 
L 312.420699 142.08034 
L 312.463992 143.243887 
L 312.637164 174.767928 
L 312.810336 199.964655 
L 312.896922 196.461276 
L 313.243267 144.715306 
L 313.329853 145.978646 
L 313.71949 204.36405 
L 313.762783 200.913752 
L 314.109128 138.559975 
L 314.195714 141.521923 
L 314.542058 196.000529 
L 314.628644 193.463233 
L 315.018282 138.957025 
L 315.061575 139.67044 
L 315.407919 194.974994 
L 315.451212 194.367742 
L 315.494505 192.560847 
L 315.884143 134.627698 
L 315.927436 136.207403 
L 316.27378 191.218947 
L 316.360366 189.516092 
L 316.750004 130.568025 
L 316.793297 133.946131 
L 317.139641 189.925882 
L 317.312813 181.77044 
L 317.615864 134.918584 
L 317.659157 135.311387 
L 318.092088 199.533633 
L 318.135381 197.99427 
L 318.178674 199.556989 
L 318.395139 169.933265 
L 318.438432 170.377027 
L 318.525018 179.06753 
L 319.044535 286.321886 
L 319.520758 181.292706 
L 319.780517 166.514817 
L 319.910396 148.426765 
L 320.126861 94.317606 
L 320.213447 84.516638 
L 320.25674 84.826634 
L 320.603085 151.530971 
L 320.689671 149.876951 
L 320.732964 152.713627 
L 320.776257 149.363122 
L 320.906136 124.281052 
L 320.949429 124.773648 
L 321.036015 118.304075 
L 321.079308 120.257474 
L 321.209187 140.700221 
L 321.468945 192.263591 
L 321.512238 191.531066 
L 321.642118 182.876658 
L 321.858583 140.912547 
L 321.945169 139.708659 
L 321.988462 141.50069 
L 322.334806 196.036624 
L 322.421392 193.817817 
L 322.464685 193.170223 
L 322.594565 161.274611 
L 322.767737 140.279816 
L 322.81103 140.899808 
L 322.897616 151.327138 
L 323.287253 197.559001 
L 323.330546 196.083336 
L 323.590305 144.488117 
L 323.676891 142.547458 
L 323.763477 151.777269 
L 324.066528 199.650413 
L 324.109821 199.24487 
L 324.153114 201.238611 
L 324.542752 145.779059 
L 324.586045 149.575448 
L 324.889096 202.608114 
L 324.975682 199.295828 
L 325.018975 203.175024 
L 325.062268 198.488989 
L 325.322026 149.976744 
L 325.365319 148.220808 
L 325.408613 150.193317 
L 325.538492 163.91807 
L 325.79825 207.030864 
L 325.884836 207.517091 
L 325.928129 203.206873 
L 326.187887 156.711725 
L 326.274473 152.24014 
L 326.317766 153.851694 
L 326.664111 211.413273 
L 326.707404 210.268836 
L 326.750697 213.368796 
L 327.097041 159.382786 
L 327.140334 160.716194 
L 327.270213 179.568619 
L 327.529972 219.169542 
L 327.616558 224.579608 
L 327.833023 180.277788 
L 327.962902 167.319532 
L 328.006195 168.442737 
L 328.439126 227.936483 
L 328.482419 226.528761 
L 328.698884 183.530622 
L 328.828763 168.463969 
L 328.872056 169.005401 
L 329.001935 189.624379 
L 329.304987 231.813555 
L 329.478159 201.011422 
L 329.694624 171.198728 
L 329.737917 171.504478 
L 329.867796 189.250685 
L 330.170848 226.588212 
L 330.214141 224.084889 
L 330.473899 170.434355 
L 330.560485 163.480678 
L 330.603778 163.578348 
L 330.77695 186.760101 
L 330.950122 211.474848 
L 330.993415 211.672311 
L 331.036708 217.245868 
L 331.080001 214.445288 
L 331.33976 159.883876 
L 331.469639 151.114812 
L 331.642811 178.436922 
L 331.815983 203.419199 
L 331.859276 204.310968 
L 331.902569 208.595707 
L 332.162328 158.299924 
L 332.292207 143.970042 
L 332.3355 144.840578 
L 332.508672 171.326124 
L 332.725137 201.501895 
L 332.76843 202.238667 
L 333.071482 147.445818 
L 333.201361 140.290432 
L 333.590998 201.302309 
L 333.634291 198.758643 
L 333.894049 152.093635 
L 334.023929 141.288364 
L 334.067222 141.40939 
L 334.197101 160.159899 
L 334.456859 202.266269 
L 334.500152 200.550675 
L 334.75991 151.832474 
L 334.889789 140.430567 
L 334.933082 141.447609 
L 335.32272 200.96471 
L 335.409306 188.33556 
L 335.712357 141.90411 
L 335.798943 142.698209 
L 335.928823 163.170682 
L 336.188581 203.408583 
L 336.231874 201.196146 
L 336.534925 146.503091 
L 336.578218 142.430678 
L 336.664804 142.976356 
L 336.75139 154.437714 
L 337.054442 205.731429 
L 337.357493 155.13202 
L 337.487372 143.849016 
L 337.530665 144.798113 
L 337.703837 172.302824 
L 337.87701 204.504185 
L 337.920303 203.468034 
L 338.30994 142.029382 
L 338.396526 144.218463 
L 338.526405 163.642046 
L 338.786163 202.943589 
L 339.175801 142.991219 
L 339.262387 140.727824 
L 339.435559 171.387698 
L 339.608731 201.95415 
L 339.652024 200.807589 
L 340.041662 139.324349 
L 340.084955 138.897574 
L 340.128248 140.547347 
L 340.474592 199.368019 
L 340.517885 197.905093 
L 340.907523 136.058775 
L 340.950816 137.799848 
L 340.994109 138.846615 
L 341.123988 158.522866 
L 341.340453 199.743836 
L 341.556918 167.899182 
L 341.816677 136.30295 
L 341.85997 135.687204 
L 342.033142 166.23667 
L 342.206314 196.049364 
L 342.552658 141.952945 
L 342.682538 134.245511 
L 342.725831 135.678711 
L 343.072175 200.467868 
L 343.158761 188.987401 
L 343.591691 138.077995 
L 343.634985 143.961549 
L 343.938036 199.873355 
L 344.024622 191.189221 
L 344.414259 140.534607 
L 344.457552 141.555895 
L 344.760604 198.745904 
L 344.84719 186.3949 
L 344.977069 176.695848 
L 345.28012 132.215674 
L 345.366706 141.872261 
L 345.626465 195.96868 
L 345.756344 183.821509 
L 346.102688 133.797503 
L 346.189274 136.982393 
L 346.492326 192.758311 
L 346.578912 182.25242 
L 346.622205 181.040038 
L 346.968549 128.251548 
L 347.011842 129.754816 
L 347.098428 138.090735 
L 347.358186 189.773007 
L 347.488066 178.152405 
L 347.83441 125.130356 
L 347.920996 128.616749 
L 348.224047 188.265492 
L 348.26734 181.333048 
L 348.483806 161.624949 
L 348.700271 129.304685 
L 348.786857 134.324072 
L 349.219787 211.780597 
L 349.26308 207.73154 
L 349.436253 190.431218 
L 349.522839 190.794295 
L 349.609425 201.323541 
L 349.82589 261.299267 
L 349.912476 295.488 
L 349.999062 291.825376 
L 350.085648 285.419501 
L 350.25882 219.163172 
L 350.518579 115.085213 
L 350.605165 122.474157 
L 350.778337 147.808896 
L 351.25456 76.342087 
L 351.38444 83.966714 
L 351.81737 160.501744 
L 351.860663 158.172528 
L 352.077128 132.111635 
L 352.163714 125.741855 
L 352.207007 128.204836 
L 352.510059 190.533134 
L 352.683231 186.065795 
L 353.029575 136.457948 
L 353.072868 138.027037 
L 353.159454 146.498844 
L 353.37592 194.981364 
L 353.505799 191.630859 
L 353.635678 175.097034 
L 353.938729 137.689439 
L 353.982022 139.356198 
L 354.241781 198.444401 
L 354.37166 192.367631 
L 354.414953 190.809158 
L 354.761297 142.47739 
L 354.80459 143.078273 
L 354.891176 153.28266 
L 355.064348 197.480441 
L 355.237521 196.019638 
L 355.280814 194.518493 
L 355.627158 146.594391 
L 355.670451 147.227123 
L 355.843623 171.152017 
L 356.016795 200.077188 
L 356.060088 202.107024 
L 356.103382 201.597442 
L 356.189968 192.412219 
L 356.493019 148.738884 
L 356.536312 148.978812 
L 356.666191 169.372725 
L 356.925949 209.09892 
L 357.35888 154.855996 
L 357.445466 162.605895 
L 357.618638 200.924369 
L 357.748517 210.234864 
L 357.835103 212.506752 
L 357.964982 198.276663 
L 358.224741 162.365967 
L 358.268034 162.907398 
L 358.397913 183.694114 
L 358.614378 220.713152 
L 358.657671 220.462607 
L 358.744257 215.309455 
L 358.874136 197.544139 
L 359.090602 171.073456 
L 359.133895 170.126482 
L 359.220481 182.460499 
L 359.480239 227.836689 
L 359.523532 227.172109 
L 359.566825 227.821826 
L 359.739997 204.187819 
L 359.956463 176.632151 
L 360.043049 181.910575 
L 360.389393 232.015265 
L 360.432686 229.996045 
L 360.822323 174.251976 
L 360.90891 179.602591 
L 361.211961 225.282407 
L 361.298547 221.849096 
L 361.428426 201.822508 
L 361.731477 164.022109 
L 361.861357 180.282035 
L 361.947943 207.018125 
L 362.034529 206.95018 
L 362.121115 212.120319 
L 362.164408 210.026784 
L 362.33758 181.902082 
L 362.554045 150.985293 
L 362.597338 151.403575 
L 362.727217 170.943937 
L 362.90039 200.503963 
L 362.943683 204.389529 
L 362.986976 202.512567 
L 363.073562 196.178882 
L 363.419906 144.286408 
L 363.463199 144.573048 
L 363.593078 167.296176 
L 363.766251 193.210565 
L 363.809544 197.537769 
L 363.852837 195.08328 
L 363.939423 188.059536 
L 364.242474 140.479402 
L 364.32906 141.683291 
L 364.675404 195.815805 
L 364.761991 193.272139 
L 365.151628 139.472977 
L 365.238214 147.377874 
L 365.541265 196.796751 
L 365.627851 193.567273 
L 366.060782 141.258639 
L 366.104075 146.462749 
L 366.407126 198.068584 
L 366.450419 196.374222 
L 366.493712 196.062103 
L 366.623592 175.201073 
L 366.840057 140.963506 
L 366.88335 141.22679 
L 366.926643 142.388213 
L 367.272987 198.391319 
L 367.359573 196.960242 
L 367.792504 142.245955 
L 367.835797 148.299369 
L 368.095555 196.864695 
L 368.138848 199.026174 
L 368.225434 197.837148 
L 368.485192 157.14487 
L 368.615072 143.840523 
L 368.658365 144.110177 
L 369.004709 199.597331 
L 369.091295 197.448592 
L 369.264467 171.33674 
L 369.437639 145.067767 
L 369.480932 145.125095 
L 369.524226 146.067823 
L 369.87057 200.69718 
L 369.913863 196.497371 
L 370.087035 181.691879 
L 370.3035 142.5878 
L 370.346793 143.035807 
L 370.433379 153.422795 
L 370.693138 199.096242 
L 370.736431 199.678015 
L 370.909603 183.265215 
L 371.169361 143.651553 
L 371.212654 143.885111 
L 371.255947 145.19304 
L 371.602292 196.845586 
L 371.688878 194.448425 
L 371.86205 167.289807 
L 372.035222 142.048491 
L 372.078515 143.496555 
L 372.165101 152.12336 
L 372.42486 198.18324 
L 372.468153 200.085681 
L 372.641325 182.810837 
L 372.901083 143.311831 
L 372.944376 144.010384 
L 372.987669 146.547679 
L 373.29072 195.987789 
L 373.334014 197.915709 
L 373.377307 196.911407 
L 373.4206 194.921912 
L 373.766944 145.305572 
L 373.85353 148.108276 
L 374.113288 196.15765 
L 374.199874 204.111382 
L 374.243167 202.752495 
L 374.329754 193.178716 
L 374.632805 150.484204 
L 374.676098 151.575559 
L 374.719391 153.049102 
L 375.022442 205.266435 
L 375.065735 205.370475 
L 375.152321 204.46809 
L 375.541959 151.823981 
L 375.585252 152.157332 
L 375.84501 196.454906 
L 375.888303 202.157983 
L 375.974889 199.873355 
L 376.018182 198.949737 
L 376.364527 148.295122 
L 376.451113 149.893937 
L 376.710871 196.202238 
L 376.797457 202.548662 
L 376.84075 202.092162 
L 376.884043 200.686563 
L 377.230388 145.895839 
L 377.273681 146.537063 
L 377.663318 199.822397 
L 377.749904 197.605713 
L 378.096248 142.018766 
L 378.182835 150.783583 
L 378.529179 195.276497 
L 378.659058 187.891799 
L 378.962109 141.90411 
L 379.005402 143.220531 
L 379.39504 197.034556 
L 379.481626 195.015336 
L 379.784677 155.771121 
L 379.82797 156.461181 
L 379.914556 171.077702 
L 380.347487 252.608764 
L 380.39078 253.141702 
L 380.650538 234.569547 
L 380.693831 238.599494 
L 380.996882 281.153872 
L 381.126762 254.836064 
L 381.559692 101.600388 
L 381.602985 101.897645 
L 381.81945 123.08778 
L 381.949329 138.738329 
L 381.992623 138.173542 
L 382.165795 129.383245 
L 382.38226 107.252506 
L 382.425553 108.065715 
L 382.858483 191.021484 
L 382.901776 190.25711 
L 382.94507 190.416355 
L 383.031656 181.330925 
L 383.291414 144.919139 
L 383.681051 204.841783 
L 383.724344 204.068917 
L 383.81093 198.461387 
L 384.157275 146.575282 
L 384.546912 205.376845 
L 384.720084 193.102279 
L 385.023136 151.002279 
L 385.412773 207.680582 
L 385.499359 204.871509 
L 385.585945 196.586548 
L 385.845704 155.233936 
L 385.888997 157.14487 
L 386.36522 212.054498 
L 386.451806 201.404225 
L 386.711564 158.767041 
L 386.971323 187.883306 
L 387.144495 214.77227 
L 387.187788 212.719078 
L 387.274374 210.152057 
L 387.577425 164.981823 
L 387.707304 166.875771 
L 388.010356 221.059243 
L 388.140235 216.286155 
L 388.443286 167.746308 
L 388.529872 176.76167 
L 388.573165 174.829503 
L 388.876217 228.191274 
L 389.006096 221.702591 
L 389.309147 176.252087 
L 389.395733 183.127203 
L 389.439026 180.868054 
L 389.655492 223.6751 
L 389.742078 235.735217 
L 389.785371 235.304195 
L 389.828664 234.953857 
L 390.175008 185.836483 
L 390.218301 192.921802 
L 390.261594 193.726517 
L 390.304887 188.896101 
L 390.34818 194.548219 
L 390.607939 242.032806 
L 390.651232 240.682412 
L 390.737818 235.497411 
L 391.127455 186.110383 
L 391.170748 189.966224 
L 391.473799 239.557085 
L 391.517092 238.71415 
L 391.560386 238.601618 
L 391.776851 202.126134 
L 391.993316 182.789605 
L 392.036609 185.220737 
L 392.33966 232.331631 
L 392.469539 221.243967 
L 392.859177 166.867278 
L 393.032349 198.975216 
L 393.205521 219.831999 
L 393.421986 196.854079 
L 393.595159 167.304669 
L 393.638452 168.187946 
L 393.681745 167.429942 
L 393.725038 159.435868 
L 393.768331 163.253489 
L 394.071382 210.546983 
L 394.244554 195.310469 
L 394.590899 150.679543 
L 394.720778 171.374959 
L 394.937243 206.281354 
L 395.110415 189.38445 
L 395.45676 145.838511 
L 395.803104 203.939398 
L 395.846397 202.491334 
L 395.88969 201.680249 
L 396.32262 147.227123 
L 396.625672 205.686841 
L 396.755551 201.578333 
L 397.188481 149.184768 
L 397.231774 156.27858 
L 397.534826 205.981974 
L 397.621412 204.493569 
L 398.011049 150.114756 
L 398.054342 149.61579 
L 398.400687 209.236932 
L 398.487273 204.325831 
" style="fill:none;stroke:#1f77b4;stroke-linecap:square;stroke-width:1.5;"/>
   </g>
   <g id="patch_3">
    <path d="M 57.6 307.584 
L 57.6 41.472 
" style="fill:none;stroke:#000000;stroke-linecap:square;stroke-linejoin:miter;stroke-width:0.8;"/>
   </g>
   <g id="patch_4">
    <path d="M 414.72 307.584 
L 414.72 41.472 
" style="fill:none;stroke:#000000;stroke-linecap:square;stroke-linejoin:miter;stroke-width:0.8;"/>
   </g>
   <g id="patch_5">
    <path d="M 57.6 307.584 
L 414.72 307.584 
" style="fill:none;stroke:#000000;stroke-linecap:square;stroke-linejoin:miter;stroke-width:0.8;"/>
   </g>
   <g id="patch_6">
    <path d="M 57.6 41.472 
L 414.72 41.472 
" style="fill:none;stroke:#000000;stroke-linecap:square;stroke-linejoin:miter;stroke-width:0.8;"/>
   </g>
  </g>
 </g>
 <defs>
  <clipPath id="p954b08425b">
   <rect height="266.112" width="357.12" x="57.6" y="41.472"/>
  </clipPath>
 </defs>
</svg>
