<?xml version="1.0" encoding="utf-8" standalone="no"?>
<!DOCTYPE svg PUBLIC "-//W3C//DTD SVG 1.1//EN"
  "http://www.w3.org/Graphics/SVG/1.1/DTD/svg11.dtd">
<!-- Created with matplotlib (http://matplotlib.org/) -->
<svg height="345.6pt" version="1.1" viewBox="0 0 460.8 345.6" width="460.8pt" xmlns="http://www.w3.org/2000/svg" xmlns:xlink="http://www.w3.org/1999/xlink">
 <defs>
  <style type="text/css">
*{stroke-linecap:butt;stroke-linejoin:round;}
  </style>
 </defs>
 <g id="figure_1">
  <g id="patch_1">
   <path d="M 0 345.6 
L 460.8 345.6 
L 460.8 0 
L 0 0 
z
" style="fill:#ffffff;"/>
  </g>
  <g id="axes_1">
   <g id="patch_2">
    <path d="M 57.6 307.584 
L 414.72 307.584 
L 414.72 41.472 
L 57.6 41.472 
z
" style="fill:#ffffff;"/>
   </g>
   <g id="matplotlib.axis_1">
    <g id="xtick_1">
     <g id="line2d_1">
      <defs>
       <path d="M 0 0 
L 0 3.5 
" id="m45af4057db" style="stroke:#000000;stroke-width:0.8;"/>
      </defs>
      <g>
       <use style="stroke:#000000;stroke-width:0.8;" x="73.832727" xlink:href="#m45af4057db" y="307.584"/>
      </g>
     </g>
     <g id="text_1">
      <!-- 0 -->
      <defs>
       <path d="M 31.78125 66.40625 
Q 24.171875 66.40625 20.328125 58.90625 
Q 16.5 51.421875 16.5 36.375 
Q 16.5 21.390625 20.328125 13.890625 
Q 24.171875 6.390625 31.78125 6.390625 
Q 39.453125 6.390625 43.28125 13.890625 
Q 47.125 21.390625 47.125 36.375 
Q 47.125 51.421875 43.28125 58.90625 
Q 39.453125 66.40625 31.78125 66.40625 
z
M 31.78125 74.21875 
Q 44.046875 74.21875 50.515625 64.515625 
Q 56.984375 54.828125 56.984375 36.375 
Q 56.984375 17.96875 50.515625 8.265625 
Q 44.046875 -1.421875 31.78125 -1.421875 
Q 19.53125 -1.421875 13.0625 8.265625 
Q 6.59375 17.96875 6.59375 36.375 
Q 6.59375 54.828125 13.0625 64.515625 
Q 19.53125 74.21875 31.78125 74.21875 
z
" id="DejaVuSans-30"/>
      </defs>
      <g transform="translate(70.651477 322.182437)scale(0.1 -0.1)">
       <use xlink:href="#DejaVuSans-30"/>
      </g>
     </g>
    </g>
    <g id="xtick_2">
     <g id="line2d_2">
      <g>
       <use style="stroke:#000000;stroke-width:0.8;" x="117.125772" xlink:href="#m45af4057db" y="307.584"/>
      </g>
     </g>
     <g id="text_2">
      <!-- 2 -->
      <defs>
       <path d="M 19.1875 8.296875 
L 53.609375 8.296875 
L 53.609375 0 
L 7.328125 0 
L 7.328125 8.296875 
Q 12.9375 14.109375 22.625 23.890625 
Q 32.328125 33.6875 34.8125 36.53125 
Q 39.546875 41.84375 41.421875 45.53125 
Q 43.3125 49.21875 43.3125 52.78125 
Q 43.3125 58.59375 39.234375 62.25 
Q 35.15625 65.921875 28.609375 65.921875 
Q 23.96875 65.921875 18.8125 64.3125 
Q 13.671875 62.703125 7.8125 59.421875 
L 7.8125 69.390625 
Q 13.765625 71.78125 18.9375 73 
Q 24.125 74.21875 28.421875 74.21875 
Q 39.75 74.21875 46.484375 68.546875 
Q 53.21875 62.890625 53.21875 53.421875 
Q 53.21875 48.921875 51.53125 44.890625 
Q 49.859375 40.875 45.40625 35.40625 
Q 44.1875 33.984375 37.640625 27.21875 
Q 31.109375 20.453125 19.1875 8.296875 
z
" id="DejaVuSans-32"/>
      </defs>
      <g transform="translate(113.944522 322.182437)scale(0.1 -0.1)">
       <use xlink:href="#DejaVuSans-32"/>
      </g>
     </g>
    </g>
    <g id="xtick_3">
     <g id="line2d_3">
      <g>
       <use style="stroke:#000000;stroke-width:0.8;" x="160.418818" xlink:href="#m45af4057db" y="307.584"/>
      </g>
     </g>
     <g id="text_3">
      <!-- 4 -->
      <defs>
       <path d="M 37.796875 64.3125 
L 12.890625 25.390625 
L 37.796875 25.390625 
z
M 35.203125 72.90625 
L 47.609375 72.90625 
L 47.609375 25.390625 
L 58.015625 25.390625 
L 58.015625 17.1875 
L 47.609375 17.1875 
L 47.609375 0 
L 37.796875 0 
L 37.796875 17.1875 
L 4.890625 17.1875 
L 4.890625 26.703125 
z
" id="DejaVuSans-34"/>
      </defs>
      <g transform="translate(157.237568 322.182437)scale(0.1 -0.1)">
       <use xlink:href="#DejaVuSans-34"/>
      </g>
     </g>
    </g>
    <g id="xtick_4">
     <g id="line2d_4">
      <g>
       <use style="stroke:#000000;stroke-width:0.8;" x="203.711863" xlink:href="#m45af4057db" y="307.584"/>
      </g>
     </g>
     <g id="text_4">
      <!-- 6 -->
      <defs>
       <path d="M 33.015625 40.375 
Q 26.375 40.375 22.484375 35.828125 
Q 18.609375 31.296875 18.609375 23.390625 
Q 18.609375 15.53125 22.484375 10.953125 
Q 26.375 6.390625 33.015625 6.390625 
Q 39.65625 6.390625 43.53125 10.953125 
Q 47.40625 15.53125 47.40625 23.390625 
Q 47.40625 31.296875 43.53125 35.828125 
Q 39.65625 40.375 33.015625 40.375 
z
M 52.59375 71.296875 
L 52.59375 62.3125 
Q 48.875 64.0625 45.09375 64.984375 
Q 41.3125 65.921875 37.59375 65.921875 
Q 27.828125 65.921875 22.671875 59.328125 
Q 17.53125 52.734375 16.796875 39.40625 
Q 19.671875 43.65625 24.015625 45.921875 
Q 28.375 48.1875 33.59375 48.1875 
Q 44.578125 48.1875 50.953125 41.515625 
Q 57.328125 34.859375 57.328125 23.390625 
Q 57.328125 12.15625 50.6875 5.359375 
Q 44.046875 -1.421875 33.015625 -1.421875 
Q 20.359375 -1.421875 13.671875 8.265625 
Q 6.984375 17.96875 6.984375 36.375 
Q 6.984375 53.65625 15.1875 63.9375 
Q 23.390625 74.21875 37.203125 74.21875 
Q 40.921875 74.21875 44.703125 73.484375 
Q 48.484375 72.75 52.59375 71.296875 
z
" id="DejaVuSans-36"/>
      </defs>
      <g transform="translate(200.530613 322.182437)scale(0.1 -0.1)">
       <use xlink:href="#DejaVuSans-36"/>
      </g>
     </g>
    </g>
    <g id="xtick_5">
     <g id="line2d_5">
      <g>
       <use style="stroke:#000000;stroke-width:0.8;" x="247.004908" xlink:href="#m45af4057db" y="307.584"/>
      </g>
     </g>
     <g id="text_5">
      <!-- 8 -->
      <defs>
       <path d="M 31.78125 34.625 
Q 24.75 34.625 20.71875 30.859375 
Q 16.703125 27.09375 16.703125 20.515625 
Q 16.703125 13.921875 20.71875 10.15625 
Q 24.75 6.390625 31.78125 6.390625 
Q 38.8125 6.390625 42.859375 10.171875 
Q 46.921875 13.96875 46.921875 20.515625 
Q 46.921875 27.09375 42.890625 30.859375 
Q 38.875 34.625 31.78125 34.625 
z
M 21.921875 38.8125 
Q 15.578125 40.375 12.03125 44.71875 
Q 8.5 49.078125 8.5 55.328125 
Q 8.5 64.0625 14.71875 69.140625 
Q 20.953125 74.21875 31.78125 74.21875 
Q 42.671875 74.21875 48.875 69.140625 
Q 55.078125 64.0625 55.078125 55.328125 
Q 55.078125 49.078125 51.53125 44.71875 
Q 48 40.375 41.703125 38.8125 
Q 48.828125 37.15625 52.796875 32.3125 
Q 56.78125 27.484375 56.78125 20.515625 
Q 56.78125 9.90625 50.3125 4.234375 
Q 43.84375 -1.421875 31.78125 -1.421875 
Q 19.734375 -1.421875 13.25 4.234375 
Q 6.78125 9.90625 6.78125 20.515625 
Q 6.78125 27.484375 10.78125 32.3125 
Q 14.796875 37.15625 21.921875 38.8125 
z
M 18.3125 54.390625 
Q 18.3125 48.734375 21.84375 45.5625 
Q 25.390625 42.390625 31.78125 42.390625 
Q 38.140625 42.390625 41.71875 45.5625 
Q 45.3125 48.734375 45.3125 54.390625 
Q 45.3125 60.0625 41.71875 63.234375 
Q 38.140625 66.40625 31.78125 66.40625 
Q 25.390625 66.40625 21.84375 63.234375 
Q 18.3125 60.0625 18.3125 54.390625 
z
" id="DejaVuSans-38"/>
      </defs>
      <g transform="translate(243.823658 322.182437)scale(0.1 -0.1)">
       <use xlink:href="#DejaVuSans-38"/>
      </g>
     </g>
    </g>
    <g id="xtick_6">
     <g id="line2d_6">
      <g>
       <use style="stroke:#000000;stroke-width:0.8;" x="290.297953" xlink:href="#m45af4057db" y="307.584"/>
      </g>
     </g>
     <g id="text_6">
      <!-- 10 -->
      <defs>
       <path d="M 12.40625 8.296875 
L 28.515625 8.296875 
L 28.515625 63.921875 
L 10.984375 60.40625 
L 10.984375 69.390625 
L 28.421875 72.90625 
L 38.28125 72.90625 
L 38.28125 8.296875 
L 54.390625 8.296875 
L 54.390625 0 
L 12.40625 0 
z
" id="DejaVuSans-31"/>
      </defs>
      <g transform="translate(283.935453 322.182437)scale(0.1 -0.1)">
       <use xlink:href="#DejaVuSans-31"/>
       <use x="63.623047" xlink:href="#DejaVuSans-30"/>
      </g>
     </g>
    </g>
    <g id="xtick_7">
     <g id="line2d_7">
      <g>
       <use style="stroke:#000000;stroke-width:0.8;" x="333.590998" xlink:href="#m45af4057db" y="307.584"/>
      </g>
     </g>
     <g id="text_7">
      <!-- 12 -->
      <g transform="translate(327.228498 322.182437)scale(0.1 -0.1)">
       <use xlink:href="#DejaVuSans-31"/>
       <use x="63.623047" xlink:href="#DejaVuSans-32"/>
      </g>
     </g>
    </g>
    <g id="xtick_8">
     <g id="line2d_8">
      <g>
       <use style="stroke:#000000;stroke-width:0.8;" x="376.884043" xlink:href="#m45af4057db" y="307.584"/>
      </g>
     </g>
     <g id="text_8">
      <!-- 14 -->
      <g transform="translate(370.521543 322.182437)scale(0.1 -0.1)">
       <use xlink:href="#DejaVuSans-31"/>
       <use x="63.623047" xlink:href="#DejaVuSans-34"/>
      </g>
     </g>
    </g>
   </g>
   <g id="matplotlib.axis_2">
    <g id="ytick_1">
     <g id="line2d_9">
      <defs>
       <path d="M 0 0 
L -3.5 0 
" id="m9b00ee7331" style="stroke:#000000;stroke-width:0.8;"/>
      </defs>
      <g>
       <use style="stroke:#000000;stroke-width:0.8;" x="57.6" xlink:href="#m9b00ee7331" y="285.065069"/>
      </g>
     </g>
     <g id="text_9">
      <!-- −40000 -->
      <defs>
       <path d="M 10.59375 35.5 
L 73.1875 35.5 
L 73.1875 27.203125 
L 10.59375 27.203125 
z
" id="DejaVuSans-2212"/>
      </defs>
      <g transform="translate(10.407812 288.864288)scale(0.1 -0.1)">
       <use xlink:href="#DejaVuSans-2212"/>
       <use x="83.789062" xlink:href="#DejaVuSans-34"/>
       <use x="147.412109" xlink:href="#DejaVuSans-30"/>
       <use x="211.035156" xlink:href="#DejaVuSans-30"/>
       <use x="274.658203" xlink:href="#DejaVuSans-30"/>
       <use x="338.28125" xlink:href="#DejaVuSans-30"/>
      </g>
     </g>
    </g>
    <g id="ytick_2">
     <g id="line2d_10">
      <g>
       <use style="stroke:#000000;stroke-width:0.8;" x="57.6" xlink:href="#m9b00ee7331" y="239.811697"/>
      </g>
     </g>
     <g id="text_10">
      <!-- −30000 -->
      <defs>
       <path d="M 40.578125 39.3125 
Q 47.65625 37.796875 51.625 33 
Q 55.609375 28.21875 55.609375 21.1875 
Q 55.609375 10.40625 48.1875 4.484375 
Q 40.765625 -1.421875 27.09375 -1.421875 
Q 22.515625 -1.421875 17.65625 -0.515625 
Q 12.796875 0.390625 7.625 2.203125 
L 7.625 11.71875 
Q 11.71875 9.328125 16.59375 8.109375 
Q 21.484375 6.890625 26.8125 6.890625 
Q 36.078125 6.890625 40.9375 10.546875 
Q 45.796875 14.203125 45.796875 21.1875 
Q 45.796875 27.640625 41.28125 31.265625 
Q 36.765625 34.90625 28.71875 34.90625 
L 20.21875 34.90625 
L 20.21875 43.015625 
L 29.109375 43.015625 
Q 36.375 43.015625 40.234375 45.921875 
Q 44.09375 48.828125 44.09375 54.296875 
Q 44.09375 59.90625 40.109375 62.90625 
Q 36.140625 65.921875 28.71875 65.921875 
Q 24.65625 65.921875 20.015625 65.03125 
Q 15.375 64.15625 9.8125 62.3125 
L 9.8125 71.09375 
Q 15.4375 72.65625 20.34375 73.4375 
Q 25.25 74.21875 29.59375 74.21875 
Q 40.828125 74.21875 47.359375 69.109375 
Q 53.90625 64.015625 53.90625 55.328125 
Q 53.90625 49.265625 50.4375 45.09375 
Q 46.96875 40.921875 40.578125 39.3125 
z
" id="DejaVuSans-33"/>
      </defs>
      <g transform="translate(10.407812 243.610916)scale(0.1 -0.1)">
       <use xlink:href="#DejaVuSans-2212"/>
       <use x="83.789062" xlink:href="#DejaVuSans-33"/>
       <use x="147.412109" xlink:href="#DejaVuSans-30"/>
       <use x="211.035156" xlink:href="#DejaVuSans-30"/>
       <use x="274.658203" xlink:href="#DejaVuSans-30"/>
       <use x="338.28125" xlink:href="#DejaVuSans-30"/>
      </g>
     </g>
    </g>
    <g id="ytick_3">
     <g id="line2d_11">
      <g>
       <use style="stroke:#000000;stroke-width:0.8;" x="57.6" xlink:href="#m9b00ee7331" y="194.558326"/>
      </g>
     </g>
     <g id="text_11">
      <!-- −20000 -->
      <g transform="translate(10.407812 198.357544)scale(0.1 -0.1)">
       <use xlink:href="#DejaVuSans-2212"/>
       <use x="83.789062" xlink:href="#DejaVuSans-32"/>
       <use x="147.412109" xlink:href="#DejaVuSans-30"/>
       <use x="211.035156" xlink:href="#DejaVuSans-30"/>
       <use x="274.658203" xlink:href="#DejaVuSans-30"/>
       <use x="338.28125" xlink:href="#DejaVuSans-30"/>
      </g>
     </g>
    </g>
    <g id="ytick_4">
     <g id="line2d_12">
      <g>
       <use style="stroke:#000000;stroke-width:0.8;" x="57.6" xlink:href="#m9b00ee7331" y="149.304954"/>
      </g>
     </g>
     <g id="text_12">
      <!-- −10000 -->
      <g transform="translate(10.407812 153.104173)scale(0.1 -0.1)">
       <use xlink:href="#DejaVuSans-2212"/>
       <use x="83.789062" xlink:href="#DejaVuSans-31"/>
       <use x="147.412109" xlink:href="#DejaVuSans-30"/>
       <use x="211.035156" xlink:href="#DejaVuSans-30"/>
       <use x="274.658203" xlink:href="#DejaVuSans-30"/>
       <use x="338.28125" xlink:href="#DejaVuSans-30"/>
      </g>
     </g>
    </g>
    <g id="ytick_5">
     <g id="line2d_13">
      <g>
       <use style="stroke:#000000;stroke-width:0.8;" x="57.6" xlink:href="#m9b00ee7331" y="104.051582"/>
      </g>
     </g>
     <g id="text_13">
      <!-- 0 -->
      <g transform="translate(44.2375 107.850801)scale(0.1 -0.1)">
       <use xlink:href="#DejaVuSans-30"/>
      </g>
     </g>
    </g>
    <g id="ytick_6">
     <g id="line2d_14">
      <g>
       <use style="stroke:#000000;stroke-width:0.8;" x="57.6" xlink:href="#m9b00ee7331" y="58.79821"/>
      </g>
     </g>
     <g id="text_14">
      <!-- 10000 -->
      <g transform="translate(18.7875 62.597429)scale(0.1 -0.1)">
       <use xlink:href="#DejaVuSans-31"/>
       <use x="63.623047" xlink:href="#DejaVuSans-30"/>
       <use x="127.246094" xlink:href="#DejaVuSans-30"/>
       <use x="190.869141" xlink:href="#DejaVuSans-30"/>
       <use x="254.492188" xlink:href="#DejaVuSans-30"/>
      </g>
     </g>
    </g>
   </g>
   <g id="line2d_15">
    <path clip-path="url(#pc47d4ccc5e)" d="M 73.832727 92.666913 
L 74.049192 73.443281 
L 74.135779 69.528864 
L 74.352244 88.245659 
L 74.43883 104.808393 
L 74.482123 100.33736 
L 74.568709 104.749563 
L 74.612002 103.192847 
L 74.958346 73.533788 
L 75.044933 77.045449 
L 75.304691 115.474613 
L 75.347984 106.614002 
L 75.391277 106.469192 
L 75.43457 109.234173 
L 75.477863 108.446764 
L 75.780914 83.353769 
L 75.824207 83.991842 
L 76.040673 99.296532 
L 76.127259 117.443134 
L 76.213845 111.709532 
L 76.257138 113.628275 
L 76.300431 113.008304 
L 76.473603 100.545525 
L 76.733361 76.448105 
L 76.776654 76.525035 
L 76.906533 88.367843 
L 76.99312 106.899099 
L 77.036413 98.907353 
L 77.122999 100.81252 
L 77.166292 99.911978 
L 77.252878 94.802872 
L 77.555929 65.890493 
L 77.599222 67.085182 
L 77.772394 80.81053 
L 77.945567 102.577402 
L 77.98886 105.396687 
L 78.032153 101.934804 
L 78.248618 78.633843 
L 78.42179 66.999201 
L 78.465083 67.831863 
L 78.638255 83.344719 
L 78.724841 101.989108 
L 78.768134 97.011237 
L 78.9846 91.68039 
L 79.287651 69.429307 
L 79.330944 70.999599 
L 79.460823 78.683621 
L 80.153512 191.373568 
L 80.499856 294.637237 
L 80.543149 291.080322 
L 80.802908 183.42255 
L 81.019373 104.717886 
L 81.105959 102.971106 
L 81.149252 103.278829 
L 81.192545 103.129493 
L 81.279131 110.247848 
L 81.322424 99.717389 
L 81.365717 101.925753 
L 81.40901 107.600526 
L 81.452303 107.51907 
L 81.712061 72.800683 
L 81.928527 55.91665 
L 82.015113 67.515089 
L 82.144992 100.47312 
L 82.231578 96.11522 
L 82.361457 104.342283 
L 82.794388 69.298072 
L 82.96756 92.381817 
L 83.140732 102.541199 
L 83.184025 103.658957 
L 83.227318 102.826295 
L 83.616955 74.108505 
L 83.660249 76.194686 
L 83.790128 84.616338 
L 83.876714 104.039086 
L 83.9633 101.631606 
L 84.049886 105.727036 
L 84.093179 103.613704 
L 84.526109 77.158583 
L 84.612696 80.61594 
L 84.699282 98.178774 
L 84.872454 110.971902 
L 84.915747 111.754785 
L 84.95904 111.655228 
L 85.132212 95.042715 
L 85.348677 79.457454 
L 85.435263 83.851556 
L 85.521849 93.752994 
L 85.695022 110.00348 
L 85.824901 116.366104 
L 86.214538 77.12238 
L 86.257831 78.40305 
L 86.604176 120.438907 
L 86.907227 99.219601 
L 87.080399 86.942362 
L 87.166985 92.89318 
L 87.470036 122.932368 
L 87.556623 125.095479 
L 87.599916 123.375851 
L 87.902967 95.273507 
L 87.94626 94.400117 
L 88.076139 104.645481 
L 88.162725 125.181461 
L 88.206018 121.058879 
L 88.249311 122.660848 
L 88.37919 134.671093 
L 88.422483 132.679944 
L 88.768828 107.781539 
L 88.812121 107.831318 
L 88.942 117.986175 
L 89.158465 144.482024 
L 89.245051 148.79467 
L 89.288344 147.817197 
L 89.634689 122.688 
L 89.721275 123.470883 
L 89.807861 136.562684 
L 89.981033 154.754539 
L 90.197498 161.302702 
L 90.327377 151.74519 
L 90.50055 133.711721 
L 90.543843 132.661843 
L 90.587136 133.589537 
L 90.673722 145.056742 
L 90.890187 163.121888 
L 90.976773 168.534191 
L 91.020066 167.642699 
L 91.149945 152.22035 
L 91.409704 128.702173 
L 91.452997 129.285942 
L 91.756048 151.971457 
L 91.799341 151.546075 
L 91.92922 142.74882 
L 92.275564 103.020885 
L 92.318858 103.143069 
L 92.665202 128.199861 
L 92.708495 126.901089 
L 93.184718 83.765575 
L 93.228011 85.783875 
L 93.444477 106.324381 
L 93.531063 111.428961 
L 93.574356 110.664179 
L 93.660942 103.097815 
L 93.963993 75.054301 
L 94.007286 76.64722 
L 94.093872 85.082448 
L 94.137165 94.400117 
L 94.223752 89.562532 
L 94.396924 103.962155 
L 94.440217 105.125166 
L 94.48351 103.56845 
L 94.829854 71.194188 
L 94.91644 73.70575 
L 95.132905 97.540701 
L 95.306078 103.808293 
L 95.349371 102.812719 
L 95.739008 71.456658 
L 95.782301 72.483909 
L 95.868887 85.706945 
L 95.91218 80.484706 
L 96.171939 105.609378 
L 96.215232 104.446366 
L 96.604869 68.86364 
L 96.648162 71.777957 
L 96.734748 88.684616 
L 96.778041 84.077823 
L 96.951213 104.930577 
L 97.037799 102.337559 
L 97.210972 91.454123 
L 97.47073 72.981696 
L 97.514023 74.832559 
L 97.687195 89.064745 
L 97.90366 103.582026 
L 97.946953 102.749364 
L 98.293298 69.193989 
L 98.336591 72.488435 
L 98.379884 75.484208 
L 98.46647 90.68029 
L 98.509763 84.172855 
L 98.596349 96.422943 
L 98.726228 104.740513 
L 98.856107 100.871349 
L 99.202452 72.076629 
L 99.46221 96.404842 
L 99.635382 108.220497 
L 99.678675 105.079913 
L 100.02502 71.791533 
L 100.068313 71.82321 
L 100.154899 87.553282 
L 100.198192 82.439651 
L 100.241485 83.883234 
L 100.45795 106.107165 
L 100.631122 96.232879 
L 100.934174 71.750805 
L 101.150639 93.49505 
L 101.323811 106.048335 
L 101.367104 105.903524 
L 101.496983 99.66761 
L 101.713448 74.284994 
L 101.800034 74.357399 
L 102.059793 98.608681 
L 102.146379 104.912476 
L 102.189672 103.464368 
L 102.276258 101.866924 
L 102.622602 73.782681 
L 102.665895 74.800882 
L 102.752481 87.191255 
L 102.795774 80.493756 
L 102.882361 90.825101 
L 103.01224 104.183896 
L 103.055533 102.260628 
L 103.315291 86.838279 
L 103.488463 74.17186 
L 103.575049 85.141277 
L 103.618342 76.31687 
L 103.661635 77.620167 
L 103.921394 108.469391 
L 104.00798 103.776616 
L 104.354324 70.022126 
L 104.397617 74.361924 
L 104.657375 97.907254 
L 104.830548 105.328807 
L 104.873841 103.677059 
L 105.220185 73.63787 
L 105.263478 79.566062 
L 105.306771 81.362621 
L 105.350064 76.140382 
L 105.393357 77.561338 
L 105.653115 106.709034 
L 105.696408 105.310705 
L 106.086046 72.130933 
L 106.259218 81.059423 
L 106.518976 104.867222 
L 106.562269 104.138643 
L 106.951907 73.678598 
L 107.038493 81.88756 
L 107.081786 77.973143 
L 107.168372 88.132525 
L 107.341544 104.274403 
L 107.384837 104.482569 
L 107.471423 101.27863 
L 107.774475 74.760154 
L 107.817768 77.778554 
L 107.861061 83.82893 
L 107.904354 74.44338 
L 107.947647 75.810032 
L 108.207405 108.066636 
L 108.250698 106.804067 
L 108.380577 100.459544 
L 108.640336 73.732902 
L 108.683629 77.92789 
L 108.726922 84.969315 
L 108.813508 81.534584 
L 109.116559 117.108259 
L 109.159852 116.3118 
L 109.506196 81.213285 
L 109.592783 89.087371 
L 109.636076 83.792727 
L 109.809248 108.2567 
L 109.939127 118.900293 
L 109.98242 117.900193 
L 110.025713 116.936296 
L 110.372057 87.553282 
L 110.41535 92.712167 
L 110.458643 90.797949 
L 110.501937 83.041521 
L 110.54523 84.806403 
L 110.804988 109.297527 
L 110.891574 109.980853 
L 111.237918 72.664923 
L 111.367797 73.692174 
L 111.454383 81.864933 
L 111.670849 102.15202 
L 111.714142 103.604653 
L 111.757435 103.582026 
L 111.887314 98.233078 
L 112.103779 70.895516 
L 112.190365 76.665321 
L 112.233658 73.524737 
L 112.493417 105.012033 
L 112.580003 103.097815 
L 112.666589 100.020586 
L 112.709882 100.183498 
L 112.839761 83.738423 
L 112.926347 74.10398 
L 112.96964 74.325722 
L 113.012933 77.72425 
L 113.056226 70.153361 
L 113.099519 73.687649 
L 113.359277 110.143765 
L 113.402571 109.587149 
L 113.445864 109.623352 
L 113.489157 111.184593 
L 113.53245 109.216071 
L 113.575743 108.749962 
L 113.835501 144.142624 
L 114.095259 212.212745 
L 114.355018 288.419423 
L 114.398311 287.337868 
L 114.484897 269.9832 
L 114.917827 107.38331 
L 115.047706 115.035655 
L 115.090999 113.859067 
L 115.480637 73.198913 
L 115.653809 53.568 
L 116.043446 100.034162 
L 116.086739 98.436718 
L 116.389791 78.964192 
L 116.433084 82.969116 
L 116.476377 81.611514 
L 116.51967 74.067777 
L 116.562963 77.316969 
L 116.9526 110.225221 
L 117.385531 74.049676 
L 117.645289 105.04371 
L 117.775168 111.41086 
L 117.818461 109.098412 
L 118.208099 75.389176 
L 118.251392 76.000096 
L 118.641029 112.270674 
L 118.684322 112.003679 
L 118.94408 88.951611 
L 118.987373 92.042417 
L 119.073959 78.692672 
L 119.160546 86.453625 
L 119.290425 101.165496 
L 119.463597 116.18509 
L 119.50689 117.692028 
L 119.550183 117.601521 
L 119.809941 92.22343 
L 119.853234 96.626583 
L 119.896527 93.074194 
L 119.983113 81.294741 
L 120.026406 86.277137 
L 120.372751 122.226416 
L 120.416044 122.656323 
L 120.50263 115.569645 
L 120.805681 89.657564 
L 120.978853 103.867123 
L 121.195319 122.656323 
L 121.281905 128.960117 
L 121.49837 107.614102 
L 121.541663 108.677556 
L 121.584956 113.474414 
L 121.671542 93.743943 
L 121.714835 97.273706 
L 122.147766 136.132777 
L 122.364231 112.415485 
L 122.407524 115.23477 
L 122.450817 118.366303 
L 122.537403 105.496244 
L 122.580696 112.076084 
L 122.92704 149.677111 
L 122.970333 150.102493 
L 123.186799 132.788553 
L 123.359971 120.895966 
L 123.446557 127.86046 
L 123.792901 162.053908 
L 123.836194 161.035707 
L 123.966074 156.609927 
L 124.269125 131.915162 
L 124.399004 144.061167 
L 124.658762 171.579743 
L 124.702055 169.72888 
L 124.831934 161.510868 
L 125.134986 133.245612 
L 125.524623 166.398232 
L 125.567916 164.55642 
L 126.000847 111.103137 
L 126.04414 113.859067 
L 126.303898 135.689294 
L 126.390484 134.128052 
L 126.520363 124.783231 
L 126.823415 88.164203 
L 126.953294 92.875079 
L 127.169759 114.298025 
L 127.256345 113.162165 
L 127.602689 91.150925 
L 127.732568 79.525334 
L 127.775862 79.407675 
L 128.078913 108.641353 
L 128.122206 106.699984 
L 128.295378 97.097218 
L 128.555136 74.017999 
L 128.685015 78.357797 
L 128.988067 106.016658 
L 129.03136 105.532447 
L 129.334411 84.408173 
L 129.420997 69.773232 
L 129.46429 71.895616 
L 129.594169 81.661293 
L 129.853928 105.202097 
L 129.940514 102.124868 
L 130.243565 76.846334 
L 130.330151 73.524737 
L 130.373444 75.461581 
L 130.719789 108.387935 
L 130.763082 106.862896 
L 131.152719 72.474859 
L 131.196012 72.918342 
L 131.628943 108.320054 
L 132.061873 73.090305 
L 132.105166 75.479683 
L 132.408217 104.645481 
L 132.494803 106.604952 
L 132.754562 89.87478 
L 132.884441 74.393602 
L 132.927734 75.203637 
L 133.100906 91.006114 
L 133.317371 109.320154 
L 133.403957 104.876273 
L 133.620423 88.548856 
L 133.707009 72.298371 
L 133.750302 75.393701 
L 133.923474 86.661791 
L 134.139939 107.758913 
L 134.183232 106.555173 
L 134.313111 99.554476 
L 134.659456 78.253714 
L 134.702749 78.918939 
L 135.049093 111.370132 
L 135.092386 109.283951 
L 135.482024 73.909391 
L 135.56861 78.185834 
L 135.871661 107.695558 
L 136.00154 104.713361 
L 136.347884 72.054002 
L 136.391177 73.167235 
L 136.737522 107.464766 
L 136.824108 106.65473 
L 137.040573 94.119546 
L 137.213745 71.452133 
L 137.300331 79.194984 
L 137.646676 106.138842 
L 137.689969 105.980455 
L 138.079606 72.859512 
L 138.122899 73.610718 
L 138.512537 104.962254 
L 138.772295 89.042118 
L 138.858881 71.705551 
L 138.902174 77.000196 
L 139.075346 82.892185 
L 139.161932 90.888456 
L 139.335105 104.853646 
L 139.378398 104.835545 
L 139.421691 104.09339 
L 139.811328 69.850163 
L 139.897914 76.746777 
L 140.200965 110.578198 
L 140.244259 110.161867 
L 140.374138 102.577402 
L 140.460724 106.161469 
L 140.54731 80.869359 
L 140.590603 84.041621 
L 140.633896 84.249786 
L 140.677189 81.783477 
L 140.720482 83.652442 
L 141.110119 117.678452 
L 141.153412 116.17604 
L 141.239999 109.365407 
L 141.283292 113.664478 
L 141.326585 110.293101 
L 141.499757 85.055296 
L 141.54305 85.57571 
L 141.716222 98.151622 
L 141.97598 119.131085 
L 142.408911 73.624294 
L 142.495497 78.19941 
L 142.625376 88.322589 
L 142.798548 105.464567 
L 142.841841 105.383111 
L 142.97172 95.97946 
L 143.058306 97.803171 
L 143.144893 74.891389 
L 143.188186 75.185536 
L 143.274772 73.235115 
L 143.318065 73.524737 
L 143.664409 105.125166 
L 143.707702 104.482569 
L 143.924167 92.531153 
L 144.054046 72.574416 
L 144.140633 70.832161 
L 144.183926 71.701026 
L 144.53027 105.9171 
L 144.616856 102.011734 
L 144.660149 97.205826 
L 144.703442 99.681186 
L 144.746735 104.274403 
L 144.919907 75.434429 
L 144.9632 71.913717 
L 145.006493 72.520112 
L 145.136373 94.03809 
L 145.699182 219.371829 
L 146.002234 270.250195 
L 146.045527 262.258449 
L 146.781508 80.720023 
L 146.824801 80.982493 
L 146.954681 90.870354 
L 147.041267 102.111292 
L 147.08456 98.721814 
L 147.127853 98.418617 
L 147.171146 98.608681 
L 147.344318 88.892782 
L 147.430904 67.890692 
L 147.474197 68.777658 
L 147.51749 68.646423 
L 147.604076 65.094034 
L 147.647369 65.469637 
L 147.777248 81.919237 
L 147.950421 109.143666 
L 147.993714 111.2751 
L 148.037007 111.243422 
L 148.469937 74.493159 
L 148.859574 109.252274 
L 148.902868 108.243124 
L 149.07604 93.657962 
L 149.162626 81.48933 
L 149.205919 83.910386 
L 149.249212 83.326617 
L 149.335798 79.502707 
L 149.50897 92.205329 
L 149.682142 113.55587 
L 149.725435 113.080709 
L 149.812021 110.098512 
L 149.898608 110.193544 
L 150.07178 86.295238 
L 150.158366 78.041023 
L 150.201659 79.163307 
L 150.634589 116.298224 
L 150.807762 99.53185 
L 151.024227 83.163705 
L 151.154106 89.544431 
L 151.587036 120.230742 
L 151.630329 117.239494 
L 151.846795 84.901435 
L 151.890088 82.08215 
L 152.323018 126.086528 
L 152.409604 122.954995 
L 152.452897 125.57969 
L 152.755949 94.689739 
L 152.799242 94.784771 
L 152.885828 98.187825 
L 153.015707 115.854741 
L 153.145586 130.272465 
L 153.188879 129.838033 
L 153.275465 126.434979 
L 153.318758 129.942115 
L 153.362051 127.833308 
L 153.535223 104.817443 
L 153.578516 104.30608 
L 153.621809 102.301356 
L 153.665102 103.152119 
L 154.141326 143.305436 
L 154.184619 143.115372 
L 154.357791 119.511213 
L 154.48767 113.70068 
L 154.530963 115.053756 
L 154.747429 137.368194 
L 154.877308 156.962904 
L 154.920601 156.922176 
L 154.963894 154.858622 
L 155.007187 158.171169 
L 155.05048 154.790742 
L 155.223652 132.426526 
L 155.353531 126.959918 
L 155.396824 129.245214 
L 155.48341 138.042469 
L 155.873048 172.222341 
L 156.219392 133.290865 
L 156.262685 133.462828 
L 156.652323 167.977574 
L 156.695616 168.163113 
L 156.738909 172.005125 
L 156.782202 167.963998 
L 156.998667 132.096176 
L 157.128546 124.362375 
L 157.171839 126.068427 
L 157.60477 146.622508 
L 157.994407 96.201202 
L 158.0377 97.631208 
L 158.470631 127.774479 
L 158.643803 93.888754 
L 158.860268 82.349144 
L 158.990147 89.227657 
L 159.293198 112.406434 
L 159.336491 115.103535 
L 159.552957 79.145206 
L 159.639543 73.719326 
L 159.682836 76.479782 
L 159.899301 90.820576 
L 160.159059 113.08976 
L 160.202352 111.324878 
L 160.375524 84.376495 
L 160.59199 67.601071 
L 161.02492 111.302252 
L 161.068213 109.87677 
L 161.241385 84.317666 
L 161.414558 73.665022 
L 161.457851 72.574416 
L 161.58773 81.068474 
L 161.890781 113.406533 
L 161.934074 109.550946 
L 162.107246 87.213882 
L 162.280418 70.845737 
L 162.323712 71.465709 
L 162.58347 99.902927 
L 162.756642 109.922024 
L 162.843228 95.744142 
L 162.886521 97.006712 
L 162.973107 87.06002 
L 163.146279 71.388778 
L 163.276159 79.213086 
L 163.622503 113.877169 
L 163.795675 89.00139 
L 164.055433 72.479384 
L 164.488364 113.03093 
L 164.748122 80.249388 
L 164.834708 76.674372 
L 164.878001 73.601668 
L 164.921294 74.972845 
L 165.310932 114.958724 
L 165.354225 113.754984 
L 165.57069 84.715896 
L 165.700569 74.665122 
L 165.743862 74.904965 
L 166.176793 114.329702 
L 166.220086 113.343179 
L 166.393258 93.730367 
L 166.609723 76.511459 
L 166.653016 75.868862 
L 166.826188 91.838776 
L 167.042653 115.37958 
L 167.085946 114.284449 
L 167.302412 84.10045 
L 167.475584 71.682925 
L 167.648756 86.358593 
L 167.908514 115.325276 
L 168.081687 98.472921 
L 168.341445 73.013374 
L 168.384738 73.746478 
L 168.687789 104.944153 
L 168.774375 115.248346 
L 168.947547 93.019889 
L 169.207306 71.3571 
L 169.55365 104.554974 
L 169.596943 110.822566 
L 169.640236 108.270276 
L 169.726822 93.947584 
L 169.770115 96.137847 
L 169.813408 98.196875 
L 170.029874 72.927392 
L 170.11646 73.456857 
L 170.289632 94.594707 
L 170.462804 111.908647 
L 170.506097 111.718583 
L 170.679269 91.95191 
L 170.765855 84.444376 
L 170.895734 74.325722 
L 170.939028 74.334772 
L 171.155493 96.572279 
L 171.371958 117.452185 
L 171.588423 99.196975 
L 171.804888 82.163606 
L 171.891474 87.842904 
L 172.194526 124.651996 
L 172.324405 109.261325 
L 172.367698 110.270475 
L 172.410991 109.510218 
L 172.670749 80.846732 
L 172.714042 83.172756 
L 172.843921 96.775919 
L 173.017094 114.243721 
L 173.060387 117.271171 
L 173.233559 99.138145 
L 173.493317 71.429506 
L 173.579903 72.16261 
L 173.753075 89.150726 
L 173.926248 113.877169 
L 174.09942 93.965685 
L 174.402471 70.646622 
L 174.445764 71.977072 
L 174.792109 110.351931 
L 174.965281 96.549652 
L 175.268332 68.908893 
L 175.311625 70.044753 
L 175.571383 101.473219 
L 175.657969 115.067332 
L 175.701262 107.184195 
L 175.787849 101.8805 
L 175.961021 83.104876 
L 176.004314 84.16833 
L 176.264072 136.843255 
L 176.740296 267.145813 
L 176.826882 272.969922 
L 176.870175 272.730079 
L 177.822622 78.887261 
L 177.909208 75.131232 
L 177.952501 77.158583 
L 177.995794 75.10408 
L 178.039087 76.425478 
L 178.168966 100.486696 
L 178.212259 107.297328 
L 178.298845 91.187128 
L 178.342138 92.680489 
L 178.385431 94.467997 
L 178.428724 92.725743 
L 178.64519 73.275843 
L 178.688483 73.520212 
L 178.731776 72.945494 
L 179.07812 113.727832 
L 179.121413 105.867322 
L 179.467757 80.195084 
L 179.554343 72.538213 
L 179.597637 73.533788 
L 179.684223 80.729074 
L 179.943981 113.573971 
L 179.987274 107.184195 
L 180.247032 90.870354 
L 180.376911 77.108804 
L 180.420204 77.402951 
L 180.463497 78.095327 
L 180.679963 99.699287 
L 180.809842 118.809786 
L 180.896428 106.061911 
L 180.939721 106.9172 
L 181.0696 95.721516 
L 181.286065 79.724449 
L 181.372651 83.96469 
L 181.545824 100.197074 
L 181.63241 122.140434 
L 181.675703 111.474214 
L 181.718996 110.80899 
L 181.762289 112.320453 
L 182.151926 83.267788 
L 182.238512 87.136951 
L 182.498271 121.054353 
L 182.62815 117.768958 
L 183.017787 85.344918 
L 183.06108 86.272612 
L 183.277545 114.139638 
L 183.364131 129.240688 
L 183.407425 123.339649 
L 183.494011 121.126759 
L 183.883648 92.698591 
L 184.05682 106.156943 
L 184.229992 134.223084 
L 184.273285 125.050226 
L 184.316578 125.407728 
L 184.359871 127.104729 
L 184.403165 126.570739 
L 184.576337 116.424933 
L 184.749509 105.075388 
L 184.879388 111.098611 
L 185.095853 150.084391 
L 185.225732 143.459298 
L 185.658663 116.04028 
L 185.831835 138.454275 
L 185.918421 159.347756 
L 186.005007 153.772541 
L 186.091593 155.623404 
L 186.134886 155.075838 
L 186.481231 129.245214 
L 186.524524 129.928539 
L 186.784282 167.597446 
L 186.914161 165.647026 
L 187.04404 159.655479 
L 187.130626 154.392512 
L 187.347092 134.738973 
L 187.390385 134.56701 
L 187.563557 147.948432 
L 187.650143 165.941173 
L 187.693436 156.777365 
L 187.736729 155.166345 
L 187.823315 159.112439 
L 187.953194 146.056841 
L 188.212953 116.456611 
L 188.256246 115.451986 
L 188.429418 126.177035 
L 188.516004 144.472973 
L 188.559297 135.544483 
L 188.645883 135.888409 
L 188.775762 122.611069 
L 189.078813 92.42707 
L 189.1654 95.472622 
L 189.295279 103.16117 
L 189.381865 118.963648 
L 189.425158 111.786463 
L 189.468451 112.424535 
L 189.555037 116.868416 
L 189.987967 74.357399 
L 190.204433 108.437713 
L 190.377605 107.92635 
L 190.420898 108.311004 
L 190.637363 84.693269 
L 190.810535 70.651148 
L 191.027 93.888754 
L 191.070293 101.971006 
L 191.15688 99.377988 
L 191.243466 104.740513 
L 191.286759 103.097815 
L 191.719689 71.262068 
L 191.762982 74.008948 
L 191.936154 103.62728 
L 192.066034 99.559002 
L 192.15262 102.912277 
L 192.195913 101.319358 
L 192.58555 69.524339 
L 192.802015 104.09339 
L 192.975187 104.002883 
L 193.061774 100.2016 
L 193.364825 72.950019 
L 193.451411 73.515686 
L 193.58129 83.534783 
L 193.667876 104.90795 
L 193.711169 102.088665 
L 193.754462 101.437017 
L 193.797755 101.581827 
L 193.884341 102.052462 
L 194.014221 95.183001 
L 194.230686 70.053803 
L 194.273979 72.90024 
L 194.317272 73.846036 
L 194.706909 106.745237 
L 194.750202 104.183896 
L 195.13984 72.103781 
L 195.183133 72.384352 
L 195.313012 90.449498 
L 195.356305 100.762741 
L 195.442891 99.930079 
L 195.57277 104.953204 
L 195.616063 103.767565 
L 195.875822 78.425677 
L 195.919115 77.869061 
L 196.005701 71.040327 
L 196.048994 72.393403 
L 196.438631 104.039086 
L 196.611803 96.223828 
L 196.871562 73.465908 
L 196.914855 74.814458 
L 197.304492 106.211247 
L 197.477664 92.685015 
L 197.737422 71.646722 
L 197.780715 71.547165 
L 197.867302 80.122679 
L 198.040474 100.183498 
L 198.083767 103.446266 
L 198.170353 103.052562 
L 198.213646 103.057087 
L 198.55999 72.135458 
L 198.603283 72.723752 
L 198.906335 99.622356 
L 198.992921 106.274602 
L 199.036214 105.183996 
L 199.209386 88.078221 
L 199.339265 73.013374 
L 199.382558 73.284894 
L 199.425851 75.886963 
L 199.469144 75.067877 
L 199.512437 73.751004 
L 199.599023 82.806203 
L 199.772196 101.794518 
L 199.858782 104.419214 
L 199.902075 103.048037 
L 200.075247 91.291211 
L 200.335005 70.646622 
L 200.421591 76.470731 
L 200.638056 101.907652 
L 200.767936 106.455616 
L 200.811229 105.971404 
L 201.157573 80.928189 
L 201.200866 81.27664 
L 201.330745 98.332635 
L 201.374038 104.487094 
L 201.460624 103.740413 
L 201.67709 115.261922 
L 202.066727 83.90586 
L 202.11002 84.987416 
L 202.456364 117.411457 
L 202.499657 117.547217 
L 202.975881 74.669647 
L 203.019174 76.977569 
L 203.235639 100.559101 
L 203.322225 102.998258 
L 203.365518 102.382812 
L 203.53869 87.403946 
L 203.711863 75.262466 
L 203.798449 70.918143 
L 203.841742 71.090106 
L 204.1015 105.527921 
L 204.231379 102.396388 
L 204.404551 90.417821 
L 204.621017 68.822912 
L 204.66431 68.981298 
L 204.750896 81.521008 
L 204.924068 95.296134 
L 205.010654 99.219601 
L 205.053947 99.025012 
L 205.09724 98.662985 
L 205.530171 74.135657 
L 205.573464 76.620068 
L 206.525911 279.812232 
L 206.612497 278.508935 
L 206.828962 217.407832 
L 207.132013 105.505295 
L 207.305185 87.032868 
L 207.348478 91.001589 
L 207.391772 89.856679 
L 207.435065 82.914812 
L 207.478358 89.992439 
L 207.564944 101.771892 
L 207.608237 100.14277 
L 207.694823 95.468097 
L 208.08446 59.27445 
L 208.127753 60.840217 
L 208.517391 107.396886 
L 208.560684 106.944352 
L 208.993614 71.913717 
L 209.253372 101.274104 
L 209.383252 107.976129 
L 209.816182 74.013473 
L 209.859475 75.529461 
L 209.946061 90.087471 
L 209.989354 85.444475 
L 210.249112 109.519269 
L 210.335699 105.776815 
L 210.465578 96.400316 
L 210.682043 76.923265 
L 211.158266 114.121537 
L 211.201559 112.139439 
L 211.504611 83.512156 
L 211.591197 80.0729 
L 211.894248 116.17604 
L 211.937541 120.004475 
L 211.980834 118.877666 
L 212.154006 106.749762 
L 212.413765 87.259135 
L 212.457058 87.630213 
L 212.543644 98.87115 
L 212.586937 93.608183 
L 212.889988 121.366602 
L 212.933281 119.298522 
L 213.279626 92.250582 
L 213.712556 128.299418 
L 213.755849 127.525585 
L 214.015607 104.084339 
L 214.102194 97.12437 
L 214.145487 97.766968 
L 214.491831 136.571734 
L 214.578417 140.20558 
L 214.62171 139.241683 
L 215.011347 109.763637 
L 215.314399 148.925905 
L 215.487571 154.225075 
L 215.790622 127.92834 
L 215.877208 128.484957 
L 215.963794 136.793476 
L 216.007087 132.191208 
L 216.093674 143.952559 
L 216.266846 163.873094 
L 216.310139 163.940974 
L 216.396725 159.954152 
L 216.656483 138.499528 
L 216.743069 131.666269 
L 217.002828 155.10299 
L 217.176 161.759761 
L 217.219293 162.162516 
L 217.349172 154.564475 
L 217.565637 126.199662 
L 217.60893 126.502859 
L 217.652223 132.213835 
L 217.695516 123.95962 
L 217.738809 122.104232 
L 217.998568 146.803522 
L 218.085154 143.228505 
L 218.431498 100.020586 
L 218.474791 104.36491 
L 218.518084 107.976129 
L 218.561377 99.522799 
L 218.60467 99.771693 
L 218.864428 122.208314 
L 218.907722 121.244417 
L 218.994308 116.628574 
L 219.297359 78.40305 
L 219.383945 93.381916 
L 219.427238 85.824603 
L 219.470531 86.910684 
L 219.686996 108.881196 
L 219.730289 109.691232 
L 219.773582 109.636928 
L 219.860169 104.43279 
L 220.16322 75.687848 
L 220.249806 80.801479 
L 220.293099 74.579141 
L 220.336392 77.244564 
L 220.59615 106.632104 
L 220.682736 104.640955 
L 220.812616 95.848225 
L 221.029081 71.660298 
L 221.072374 76.239939 
L 221.15896 75.823608 
L 221.288839 90.300162 
L 221.462011 103.5594 
L 221.505304 103.405538 
L 221.635183 95.246355 
L 221.894942 71.82321 
L 221.981528 80.557111 
L 222.024821 73.850561 
L 222.068114 76.475257 
L 222.327872 109.00338 
L 222.371165 107.650305 
L 222.847389 68.714304 
L 222.890682 72.02685 
L 223.237026 112.659853 
L 223.410198 94.169325 
L 223.58337 76.12228 
L 223.626663 78.624792 
L 223.669956 78.357797 
L 223.71325 70.682825 
L 223.756543 73.42518 
L 224.016301 104.138643 
L 224.102887 105.767764 
L 224.232766 94.929582 
L 224.449231 78.289917 
L 224.492524 79.398625 
L 224.535817 79.380523 
L 224.57911 73.461382 
L 224.622403 78.149632 
L 224.882162 104.116016 
L 224.968748 108.193345 
L 225.012041 107.930875 
L 225.315092 75.97747 
L 225.401678 79.611315 
L 225.444971 73.058627 
L 225.488264 76.64722 
L 225.791316 108.73186 
L 225.921195 102.043412 
L 226.310832 76.149432 
L 226.397418 82.145504 
L 226.657177 109.347306 
L 226.70047 108.532745 
L 226.787056 103.844496 
L 227.1334 70.465609 
L 227.176693 70.642097 
L 227.523037 110.573672 
L 227.566331 107.58695 
L 227.739503 92.970111 
L 227.869382 81.815155 
L 227.912675 84.340293 
L 227.955968 82.584462 
L 228.042554 72.868563 
L 228.085847 76.78298 
L 228.388898 104.061712 
L 228.432191 105.64558 
L 228.475484 104.926052 
L 228.605364 95.006513 
L 228.735243 79.973342 
L 228.778536 83.792727 
L 228.821829 81.697496 
L 228.865122 71.112732 
L 228.908415 72.3572 
L 229.211466 109.234173 
L 229.298052 108.582524 
L 229.514518 97.721715 
L 229.601104 88.078221 
L 229.644397 92.463273 
L 229.730983 81.498381 
L 229.817569 88.621262 
L 230.163913 114.868217 
L 230.207206 114.519766 
L 230.596844 84.788301 
L 230.640137 85.598337 
L 230.986481 116.664776 
L 231.029774 115.212143 
L 231.332825 87.915309 
L 231.376119 89.548956 
L 231.462705 72.176186 
L 231.505998 75.85076 
L 231.635877 86.725145 
L 231.852342 102.536674 
L 231.895635 105.518871 
L 231.938928 103.36481 
L 232.155393 82.674969 
L 232.198686 85.84723 
L 232.241979 84.969315 
L 232.285272 70.325324 
L 232.371859 75.57924 
L 232.545031 91.734694 
L 232.718203 104.930577 
L 232.804789 102.409964 
L 233.021254 79.122579 
L 233.064547 81.570786 
L 233.10784 78.805805 
L 233.194426 67.039929 
L 233.237719 71.787007 
L 233.540771 100.952806 
L 233.584064 99.255804 
L 233.627357 100.712963 
L 233.67065 102.192748 
L 234.060287 70.21219 
L 234.10358 75.122181 
L 234.320046 132.779502 
L 234.709683 208.773489 
L 234.926148 245.143624 
L 235.056027 269.358703 
L 235.09932 267.593822 
L 235.445665 147.016213 
L 235.618837 102.314932 
L 235.66213 103.305981 
L 235.878595 72.031376 
L 235.921888 79.385049 
L 236.051767 102.518572 
L 236.09506 100.81252 
L 236.484698 70.723553 
L 236.527991 73.841511 
L 236.571284 60.469139 
L 236.65787 65.985525 
L 237.0908 109.704808 
L 237.134094 106.763338 
L 237.480438 73.144609 
L 237.65361 86.014668 
L 237.913368 107.582425 
L 237.956661 107.496443 
L 238.086541 98.635833 
L 238.346299 72.08568 
L 238.389592 74.660597 
L 238.606057 102.975631 
L 238.692643 108.92645 
L 238.735936 106.632104 
L 238.779229 106.256501 
L 238.822522 110.080411 
L 238.865815 108.894772 
L 239.125574 87.702618 
L 239.21216 75.11313 
L 239.255453 78.384949 
L 239.64509 118.529215 
L 239.731676 111.20722 
L 240.078021 77.230988 
L 240.121314 79.425777 
L 240.510951 118.035953 
L 240.554244 117.741806 
L 240.770709 101.921228 
L 240.814002 103.935003 
L 240.900588 84.761149 
L 240.943881 87.109799 
L 241.030468 90.788898 
L 241.333519 123.647371 
L 241.420105 120.94122 
L 241.766449 91.997163 
L 241.809742 93.843501 
L 242.026208 110.166392 
L 242.242673 128.856035 
L 242.285966 128.290367 
L 242.63231 100.369037 
L 242.675603 101.047838 
L 242.805482 112.533143 
L 243.108534 140.640013 
L 243.151827 139.667065 
L 243.498171 109.976328 
L 243.584757 113.044506 
L 243.757929 135.318216 
L 243.931102 151.930729 
L 243.974395 151.324334 
L 244.19086 141.622011 
L 244.234153 142.585908 
L 244.364032 122.796608 
L 244.450618 126.394251 
L 244.796963 163.981702 
L 244.883549 161.533494 
L 245.056721 150.274455 
L 245.100014 153.342634 
L 245.273186 126.593366 
L 245.359772 131.869909 
L 245.576237 159.587599 
L 245.662823 163.262173 
L 245.706116 161.497292 
L 245.965875 141.155901 
L 246.095754 122.82376 
L 246.18234 118.045004 
L 246.225633 118.968173 
L 246.355512 132.186683 
L 246.485391 142.658313 
L 246.528684 141.074445 
L 246.831736 114.660052 
L 246.961615 95.042715 
L 247.048201 92.214379 
L 247.221373 108.089262 
L 247.394545 119.80536 
L 247.437838 118.791685 
L 247.481131 119.208016 
L 247.870769 78.298968 
L 247.914062 78.991344 
L 248.260406 106.460141 
L 248.346992 109.152717 
L 248.73663 62.935448 
L 248.779923 69.691776 
L 248.953095 93.119447 
L 249.126267 104.396587 
L 249.16956 103.622754 
L 249.342732 93.332138 
L 249.386025 95.323286 
L 249.602491 70.479185 
L 249.645784 69.832062 
L 249.818956 87.811226 
L 249.992128 102.631706 
L 250.035421 102.867023 
L 250.078714 102.667908 
L 250.468351 68.822912 
L 250.511644 70.121683 
L 250.814696 102.382812 
L 250.857989 102.314932 
L 250.901282 102.934903 
L 250.944575 102.419015 
L 251.290919 70.976972 
L 251.334212 71.936344 
L 251.464091 80.00502 
L 251.72385 104.464467 
L 251.767143 103.111391 
L 251.853729 98.821372 
L 252.200073 68.908893 
L 252.243366 72.746379 
L 252.546418 103.387437 
L 252.633004 107.17967 
L 252.849469 92.879604 
L 252.979348 70.298172 
L 253.022641 70.452033 
L 253.239106 88.639363 
L 253.282399 89.576108 
L 253.455572 105.125166 
L 253.498865 105.012033 
L 253.542158 105.283553 
L 253.888502 74.321196 
L 253.931795 76.04535 
L 253.975088 76.868961 
L 254.321432 108.514644 
L 254.408019 104.396587 
L 254.451312 100.011535 
L 254.494605 100.305682 
L 254.537898 103.921427 
L 254.71107 78.330645 
L 254.754363 75.294144 
L 254.840949 76.430003 
L 255.057414 100.509323 
L 255.187293 107.215872 
L 255.273879 102.740314 
L 255.620224 72.16261 
L 255.663517 72.212389 
L 255.879982 94.17385 
L 256.053154 105.994031 
L 256.183033 100.703912 
L 256.226326 103.523197 
L 256.312913 82.457753 
L 256.486085 69.27092 
L 256.615964 75.556613 
L 256.962308 104.342283 
L 257.13548 96.137847 
L 257.26536 80.357996 
L 257.351946 77.959567 
L 257.438532 74.714901 
L 257.481825 76.430003 
L 257.828169 113.831915 
L 257.871462 111.266049 
L 258.2611 81.941864 
L 258.304393 83.652442 
L 258.650737 118.090257 
L 258.737323 111.935799 
L 258.780616 112.030831 
L 258.823909 115.872842 
L 258.997081 87.607586 
L 259.12696 80.941765 
L 259.170253 82.810729 
L 259.343426 98.527225 
L 259.473305 110.084936 
L 259.516598 109.46949 
L 259.603184 103.387437 
L 259.68977 103.957629 
L 259.862942 72.180712 
L 259.992821 70.112633 
L 260.165994 84.467002 
L 260.382459 102.554775 
L 260.555631 96.554178 
L 260.68551 75.484208 
L 260.728803 75.64712 
L 260.772096 75.04525 
L 260.858682 69.189464 
L 260.901975 70.61947 
L 261.075147 90.245858 
L 261.205027 101.332934 
L 261.24832 101.237902 
L 261.334906 98.907353 
L 261.378199 99.921029 
L 261.68125 68.049079 
L 261.724543 70.755231 
L 262.070888 100.165397 
L 262.114181 101.052363 
L 262.157474 100.667709 
L 262.200767 100.14277 
L 262.24406 103.052562 
L 262.287353 100.097517 
L 262.417232 82.598038 
L 262.590404 106.460141 
L 263.2398 269.25462 
L 263.283093 268.286198 
L 263.326386 265.236121 
L 263.802609 139.219057 
L 263.975781 131.304242 
L 264.192247 81.041322 
L 264.278833 75.742152 
L 264.365419 76.18111 
L 264.452005 75.90959 
L 264.495298 79.430302 
L 264.711763 94.305085 
L 264.755056 93.657962 
L 264.798349 97.884627 
L 264.841642 96.698989 
L 265.014815 78.851059 
L 265.101401 75.380125 
L 265.187987 70.366052 
L 265.66421 109.967277 
L 265.750796 92.010739 
L 265.837382 83.869658 
L 265.880675 84.648016 
L 266.010555 75.515885 
L 266.053848 76.285193 
L 266.530071 109.306578 
L 266.573364 106.659256 
L 266.789829 76.117755 
L 266.963002 78.140581 
L 267.092881 93.943058 
L 267.266053 110.048733 
L 267.395932 115.375055 
L 267.439225 112.415485 
L 267.612397 85.548558 
L 267.742276 79.982393 
L 267.785569 80.167932 
L 268.002035 104.745038 
L 268.088621 113.628275 
L 268.131914 112.193743 
L 268.175207 110.962851 
L 268.261793 117.714654 
L 268.434965 92.540204 
L 268.608137 79.40315 
L 268.65143 82.027845 
L 268.954482 117.59247 
L 269.084361 123.217464 
L 269.127654 120.547516 
L 269.300826 96.092593 
L 269.473998 85.204632 
L 269.603877 96.830223 
L 269.950222 131.802029 
L 269.993515 129.946641 
L 270.166687 101.156446 
L 270.339859 92.508526 
L 270.513031 110.836142 
L 270.729497 130.648068 
L 270.816083 137.951962 
L 270.859376 134.517231 
L 271.032548 111.415385 
L 271.20572 105.292604 
L 271.292306 108.030433 
L 271.378892 118.936495 
L 271.681944 152.509972 
L 271.725237 149.446319 
L 271.898409 122.570341 
L 272.028288 118.520164 
L 272.071581 118.755482 
L 272.114874 119.307573 
L 272.547804 169.158687 
L 272.591097 153.645832 
L 272.894149 128.846984 
L 272.937442 128.869611 
L 273.413665 170.692777 
L 273.586838 145.359939 
L 273.76001 130.381073 
L 273.803303 130.688796 
L 273.976475 139.911433 
L 274.236233 158.406486 
L 274.279526 155.16182 
L 274.452698 135.797902 
L 274.625871 112.347605 
L 274.669164 110.519368 
L 274.712457 111.238897 
L 275.102094 140.024567 
L 275.145387 138.363768 
L 275.361852 98.53175 
L 275.491732 86.005617 
L 275.535025 86.376695 
L 275.708197 95.771294 
L 275.967955 118.981749 
L 276.011248 115.280023 
L 276.18442 93.734893 
L 276.357592 74.746578 
L 276.790523 110.541995 
L 276.833816 116.77791 
L 277.050281 85.869857 
L 277.223453 75.882438 
L 277.310039 73.022425 
L 277.613091 105.650106 
L 277.699677 112.451687 
L 277.872849 88.462875 
L 278.089314 74.429804 
L 278.132607 70.913617 
L 278.1759 71.28922 
L 278.565538 112.076084 
L 278.73871 91.956435 
L 278.955175 71.777957 
L 278.998468 72.121882 
L 279.085054 77.615642 
L 279.214933 89.657564 
L 279.431399 113.709731 
L 279.604571 91.340989 
L 279.821036 72.266693 
L 279.864329 71.447607 
L 279.907622 72.597043 
L 280.29726 112.026306 
L 280.557018 79.692772 
L 280.643604 73.42518 
L 280.686897 73.452332 
L 280.816776 77.145007 
L 281.119827 116.809587 
L 281.16312 114.795812 
L 281.379586 84.326717 
L 281.552758 71.863938 
L 281.985688 116.035754 
L 282.028981 104.785766 
L 282.461912 74.583666 
L 282.764963 104.002883 
L 282.851549 113.578496 
L 283.068014 92.513052 
L 283.327773 70.357001 
L 283.371066 73.447806 
L 283.71741 114.592172 
L 283.890582 94.90243 
L 284.107047 73.882239 
L 284.193634 74.343823 
L 284.496685 103.147594 
L 284.583271 112.429061 
L 284.756443 97.368739 
L 285.016201 71.791533 
L 285.189374 80.959866 
L 285.449132 111.935799 
L 285.665597 89.707343 
L 285.968648 69.592219 
L 286.098528 88.444774 
L 286.2717 122.036351 
L 286.314993 109.46949 
L 286.791216 81.376197 
L 286.964388 96.875477 
L 287.137561 122.452682 
L 287.180854 113.727832 
L 287.26744 114.592172 
L 287.657077 83.104876 
L 287.743663 87.399421 
L 288.003422 123.199363 
L 288.046715 113.845491 
L 288.219887 99.500172 
L 288.479645 75.303194 
L 288.566231 77.787605 
L 288.782696 96.671837 
L 288.869282 107.51907 
L 288.912575 100.631507 
L 289.042455 94.110496 
L 289.345506 71.691975 
L 289.388799 70.945295 
L 289.735143 106.749762 
L 289.778436 98.436718 
L 289.821729 98.368838 
L 289.865022 98.853049 
L 289.994902 86.476252 
L 290.168074 72.103781 
L 290.211367 72.121882 
L 290.297953 68.098858 
L 290.471125 86.734196 
L 290.557711 111.338454 
L 290.601004 99.703812 
L 290.817469 89.232182 
L 291.033935 75.629019 
L 291.120521 72.171661 
L 291.163814 72.393403 
L 291.293693 89.788799 
L 291.726623 176.874387 
L 291.81321 187.91621 
L 292.24614 295.488 
L 292.895536 107.85847 
L 293.025415 102.930378 
L 293.068708 104.871748 
L 293.155294 116.551643 
L 293.328466 99.66761 
L 293.631517 64.926596 
L 293.847983 80.570687 
L 294.021155 110.836142 
L 294.107741 105.274503 
L 294.151034 106.595901 
L 294.194327 104.90795 
L 294.324206 89.752596 
L 294.540671 72.511061 
L 294.583964 73.398027 
L 294.80043 93.798247 
L 294.887016 111.288676 
L 294.930309 105.527921 
L 295.146774 98.070166 
L 295.406532 73.334673 
L 295.449825 76.534086 
L 295.709584 114.049131 
L 295.882756 110.999054 
L 296.2291 79.670145 
L 296.315686 81.27664 
L 296.575444 114.2935 
L 296.705324 110.623451 
L 296.748617 110.320254 
L 297.094961 81.457653 
L 297.138254 82.009744 
L 297.311426 92.49495 
L 297.441305 118.936495 
L 297.527891 113.08976 
L 297.571185 114.008403 
L 297.614478 113.69163 
L 297.657771 112.88612 
L 298.004115 81.272114 
L 298.047408 82.697595 
L 298.263873 115.927146 
L 298.307166 122.407429 
L 298.350459 116.6512 
L 298.437045 120.828086 
L 298.480338 120.751156 
L 298.826683 88.897307 
L 298.869976 89.281961 
L 298.913269 89.60326 
L 298.999855 95.780345 
L 299.302906 130.892436 
L 299.346199 128.892237 
L 299.692544 100.088466 
L 299.735837 98.39599 
L 299.77913 99.830522 
L 299.952302 121.810085 
L 299.995595 134.671093 
L 300.082181 129.213536 
L 300.168767 138.431648 
L 300.21206 136.798001 
L 300.558405 111.822665 
L 300.601698 112.035356 
L 300.731577 119.280421 
L 300.861456 148.758467 
L 300.991335 146.568204 
L 301.034628 146.731116 
L 301.077921 149.559452 
L 301.121214 147.11577 
L 301.424266 123.719777 
L 301.510852 126.493809 
L 301.900489 161.786913 
L 301.943782 161.099062 
L 302.290126 133.992292 
L 302.376713 132.403899 
L 302.549885 156.071412 
L 302.593178 162.68293 
L 302.636471 157.944902 
L 302.679764 157.600976 
L 302.76635 161.442988 
L 302.809643 160.854694 
L 303.19928 120.262419 
L 303.242573 120.696852 
L 303.459039 144.739968 
L 303.588918 140.680741 
L 303.718797 132.960515 
L 304.065141 93.033465 
L 304.151727 102.871549 
L 304.19502 103.853547 
L 304.281607 120.88239 
L 304.3249 113.039981 
L 304.498072 117.968073 
L 304.541365 117.402406 
L 304.931002 75.954843 
L 305.017588 82.340094 
L 305.32064 106.387735 
L 305.407226 104.817443 
L 305.75357 70.737129 
L 305.840156 73.660497 
L 306.013328 99.771693 
L 306.099914 96.92073 
L 306.229794 105.808492 
L 306.273087 104.944153 
L 306.662724 68.614746 
L 306.706017 72.461283 
L 307.052361 101.332934 
L 307.095654 101.310307 
L 307.138947 100.504797 
L 307.528585 71.556215 
L 307.571878 73.017899 
L 307.918222 102.853447 
L 307.961515 103.088765 
L 308.048101 98.300958 
L 308.351153 70.41583 
L 308.437739 72.710176 
L 308.524325 79.896412 
L 308.610911 98.875676 
L 308.697497 98.586054 
L 308.784083 103.315032 
L 308.827376 102.722212 
L 309.000548 90.055794 
L 309.260307 72.868563 
L 309.346893 79.489131 
L 309.563358 99.427767 
L 309.649944 100.699387 
L 309.909702 89.435822 
L 310.082875 71.135359 
L 310.126168 71.157986 
L 310.515805 104.889849 
L 310.559098 104.197472 
L 310.645684 100.753691 
L 310.73227 93.743943 
L 310.948735 71.547165 
L 311.035322 75.819083 
L 311.338373 104.346808 
L 311.424959 105.727036 
L 311.511545 99.423242 
L 311.857889 71.642197 
L 311.944476 79.860209 
L 312.160941 104.197472 
L 312.204234 107.057485 
L 312.247527 106.283653 
L 312.334113 101.740214 
L 312.72375 71.88204 
L 312.810336 80.231287 
L 312.983509 97.567853 
L 313.070095 105.288079 
L 313.156681 105.075388 
L 313.28656 94.02904 
L 313.546318 68.424682 
L 313.589611 69.574118 
L 313.632904 71.556215 
L 313.892663 100.925654 
L 314.022542 104.278928 
L 314.109128 97.273706 
L 314.455472 72.68755 
L 314.498765 74.551988 
L 314.71523 100.124669 
L 314.801816 103.450792 
L 314.84511 102.079615 
L 314.931696 99.527324 
L 315.104868 82.742849 
L 315.191454 72.3572 
L 315.234747 72.90024 
L 315.321333 74.36645 
L 315.71097 104.826494 
L 315.754263 104.355859 
L 316.100608 70.818585 
L 316.187194 75.923166 
L 316.317073 89.920034 
L 316.403659 89.250284 
L 316.576831 102.839871 
L 316.620124 103.247151 
L 316.750004 91.363616 
L 317.009762 71.429506 
L 317.096348 75.914115 
L 317.312813 102.360185 
L 317.442692 110.370032 
L 317.572571 102.500471 
L 317.918916 80.407775 
L 318.26526 118.542791 
L 318.308553 117.995225 
L 318.438432 109.718384 
L 318.741484 82.783577 
L 318.784777 84.055197 
L 319.001242 105.858271 
L 319.174414 113.528718 
L 319.390879 93.436221 
L 319.607344 75.959368 
L 319.650638 74.855186 
L 319.737224 86.892583 
L 319.780517 78.950616 
L 319.82381 81.466704 
L 319.996982 104.984881 
L 320.083568 105.414788 
L 320.473205 66.3204 
L 320.516498 68.040028 
L 320.732964 98.581529 
L 320.776257 102.975631 
L 320.862843 101.636131 
L 320.949429 103.957629 
L 321.339066 70.741655 
L 321.382359 73.049577 
L 321.425652 81.62509 
L 321.468945 81.570786 
L 321.512238 76.669846 
L 321.555532 81.339994 
L 321.771997 102.794618 
L 321.988462 87.725245 
L 322.161634 72.171661 
L 322.204927 74.787306 
L 322.594565 184.924962 
L 322.940909 246.664137 
L 323.114081 275.956645 
L 323.157374 272.168938 
L 323.373839 205.795817 
L 323.763477 111.311302 
L 323.936649 85.512355 
L 323.979942 89.354366 
L 324.023235 93.30046 
L 324.066528 87.363218 
L 324.109821 87.046444 
L 324.326286 99.545426 
L 324.369579 100.33736 
L 324.629338 74.380026 
L 324.759217 65.365554 
L 324.80251 65.732106 
L 324.975682 90.485701 
L 325.192147 108.894772 
L 325.23544 109.455914 
L 325.278733 108.546321 
L 325.625078 72.868563 
L 325.668371 73.013374 
L 325.754957 84.471528 
L 325.79825 79.294542 
L 326.101301 107.414987 
L 326.187887 101.952905 
L 326.274473 95.24183 
L 326.490939 75.954843 
L 326.534232 75.425379 
L 326.620818 88.376894 
L 326.664111 83.276839 
L 326.79399 100.930179 
L 326.967162 112.451687 
L 327.010455 111.370132 
L 327.3568 78.203936 
L 327.78973 114.402108 
L 327.876316 112.048932 
L 328.006195 101.522998 
L 328.22266 85.824603 
L 328.309247 92.558305 
L 328.35254 86.761348 
L 328.395833 88.738921 
L 328.698884 118.841463 
L 328.872056 106.623053 
L 329.088521 86.127801 
L 329.175107 95.196577 
L 329.218401 89.648513 
L 329.34828 104.96678 
L 329.521452 120.009 
L 329.608038 122.611069 
L 329.867796 95.5043 
L 329.911089 98.033963 
L 329.954382 98.853049 
L 329.997675 103.224525 
L 330.040968 102.387337 
L 330.084261 97.536176 
L 330.127554 99.491122 
L 330.387313 128.317519 
L 330.430606 128.742901 
L 330.690364 109.383509 
L 330.820243 101.839772 
L 330.906829 109.795314 
L 330.950122 103.862597 
L 330.993415 108.496543 
L 331.209881 142.047392 
L 331.253174 141.323338 
L 331.296467 141.065394 
L 331.383053 136.861356 
L 331.469639 130.978418 
L 331.642811 118.737381 
L 331.686104 119.692227 
L 331.729397 126.072952 
L 331.77269 116.71003 
L 331.902569 130.874335 
L 332.162328 153.817794 
L 332.205621 153.360735 
L 332.508672 130.263414 
L 332.551965 133.716247 
L 332.595258 136.481228 
L 332.638551 127.797106 
L 332.681844 131.381173 
L 332.984895 164.185342 
L 333.028188 163.583472 
L 333.158068 156.799992 
L 333.374533 137.671391 
L 333.417826 142.133374 
L 333.461119 141.558656 
L 333.504412 131.716048 
L 333.590998 136.254961 
L 333.850756 165.122087 
L 333.937342 159.519719 
L 334.240394 126.498334 
L 334.283687 129.856134 
L 334.32698 127.493908 
L 334.413566 117.397881 
L 334.456859 122.470784 
L 334.673324 140.160327 
L 334.716617 140.305138 
L 334.846496 132.295291 
L 335.106255 95.77582 
L 335.192841 101.608979 
L 335.236134 93.499575 
L 335.279427 94.250781 
L 335.582478 117.59247 
L 335.669064 112.800138 
L 336.101995 78.493557 
L 336.188581 84.715896 
L 336.448339 109.722909 
L 336.491632 109.455914 
L 336.578218 101.88955 
L 336.794683 77.574914 
L 336.88127 85.43995 
L 336.924563 72.877614 
L 337.011149 75.914115 
L 337.097735 82.919337 
L 337.3142 109.306578 
L 337.357493 107.38331 
L 337.573958 85.494254 
L 337.660544 76.253515 
L 337.703837 78.765077 
L 337.74713 78.362322 
L 337.790423 71.601469 
L 337.833716 74.325722 
L 338.093475 102.056988 
L 338.223354 107.763438 
L 338.526405 74.176385 
L 338.569698 80.032172 
L 338.612991 81.444077 
L 338.699577 71.633146 
L 338.74287 75.325821 
L 338.87275 94.377491 
L 339.002629 108.007806 
L 339.219094 97.300858 
L 339.522145 71.311847 
L 339.608731 79.118054 
L 339.955076 107.767963 
L 339.998369 105.948778 
L 340.171541 85.951313 
L 340.258127 77.59754 
L 340.30142 81.702021 
L 340.388006 71.773431 
L 340.431299 73.008849 
L 340.734351 105.247351 
L 340.820937 107.672931 
L 340.950816 98.242129 
L 341.080695 79.842108 
L 341.123988 81.045847 
L 341.167281 82.525633 
L 341.253867 67.890692 
L 341.29716 72.144509 
L 341.643504 111.161966 
L 341.686798 108.740911 
L 342.119728 68.750506 
L 342.466072 108.980754 
L 342.509365 107.989705 
L 342.682538 93.639861 
L 342.812417 83.806303 
L 342.85571 86.399321 
L 342.985589 72.82331 
L 343.028882 76.936841 
L 343.375226 108.740911 
L 343.418519 106.175045 
L 343.85145 69.80491 
L 344.197794 105.260927 
L 344.241087 103.903325 
L 344.327673 100.984483 
L 344.717311 70.628521 
L 345.063655 103.007309 
L 345.106948 102.518572 
L 345.150241 101.989108 
L 345.409999 85.403747 
L 345.453292 86.340492 
L 345.539879 68.908893 
L 345.583172 72.248592 
L 345.713051 82.507531 
L 345.929516 102.966581 
L 345.972809 104.459942 
L 346.016102 103.586552 
L 346.405739 67.315974 
L 346.449032 70.565166 
L 346.795377 103.174746 
L 346.83867 102.975631 
L 347.011842 95.060817 
L 347.2716 66.655275 
L 347.314893 70.728079 
L 347.617945 101.518473 
L 347.661238 101.310307 
L 347.704531 101.912177 
L 347.747824 101.649707 
L 348.050875 78.099853 
L 348.137461 64.926596 
L 348.180754 66.741257 
L 348.570392 106.337957 
L 349.003322 68.66905 
L 349.046615 70.366052 
L 349.39296 107.39236 
L 349.436253 107.24755 
L 349.566132 102.622655 
L 349.869183 78.502608 
L 349.955769 85.869857 
L 350.302113 115.927146 
L 350.345407 111.664279 
L 350.561872 97.626683 
L 350.605165 99.151721 
L 350.691751 81.733699 
L 350.735044 82.471329 
L 350.778337 82.878609 
L 350.951509 100.165397 
L 351.081388 112.641751 
L 351.124681 111.790988 
L 351.341147 94.716891 
L 351.557612 68.945096 
L 351.644198 70.682825 
L 352.033835 100.645083 
L 352.207007 89.27291 
L 352.423473 63.193392 
L 352.81311 100.572677 
L 352.856403 99.142671 
L 353.072868 91.368141 
L 353.289334 65.161914 
L 353.332627 67.094233 
L 353.37592 68.456359 
L 353.765557 103.63633 
L 353.80885 104.767665 
L 354.111901 74.438855 
L 354.155195 78.045549 
L 354.37166 135.969865 
L 354.718004 242.102597 
L 354.891176 272.019601 
L 354.934469 262.525444 
L 354.977762 262.683831 
L 355.021055 262.308228 
L 355.973502 67.370278 
L 356.016795 70.587793 
L 356.319847 93.802773 
L 356.36314 91.983587 
L 356.622898 78.611216 
L 356.752777 63.50564 
L 356.79607 63.342728 
L 357.229001 108.034958 
L 357.272294 105.903524 
L 357.618638 72.302896 
L 357.661931 72.420555 
L 357.79181 80.357996 
L 358.094862 106.727136 
L 358.138155 104.220099 
L 358.527792 73.479484 
L 358.571085 74.398127 
L 358.960723 110.035157 
L 359.004016 106.790491 
L 359.263774 78.149632 
L 359.393653 79.353371 
L 359.523532 85.697894 
L 359.78329 110.360982 
L 359.869876 107.976129 
L 360.259514 78.638368 
L 360.432686 97.142472 
L 360.605858 115.117111 
L 360.649151 116.058381 
L 360.692444 115.678253 
L 360.90891 107.808691 
L 361.082082 84.399122 
L 361.125375 84.638965 
L 361.298547 101.667809 
L 361.515012 119.683176 
L 361.558305 119.637923 
L 361.644891 115.737082 
L 361.77477 108.876671 
L 361.90465 92.191753 
L 361.947943 91.41792 
L 361.991236 91.915707 
L 362.207701 117.176139 
L 362.380873 128.566413 
L 362.424166 130.263414 
L 362.467459 128.607141 
L 362.727217 99.314633 
L 362.77051 99.776218 
L 362.813804 98.269281 
L 362.857097 99.59973 
L 363.246734 139.282411 
L 363.33332 141.300712 
L 363.636371 112.88612 
L 363.679664 113.311501 
L 363.852837 125.145258 
L 364.069302 151.48272 
L 364.112595 152.301806 
L 364.155888 151.537024 
L 364.242474 147.011687 
L 364.285767 151.156896 
L 364.32906 149.351287 
L 364.415646 126.140832 
L 364.458939 127.31742 
L 364.502232 126.462131 
L 364.545525 127.303844 
L 364.718698 136.657716 
L 364.935163 161.836692 
L 364.978456 161.429412 
L 365.108335 152.921778 
L 365.151628 158.9269 
L 365.194921 155.388086 
L 365.368093 131.697946 
L 365.584558 139.531305 
L 365.844317 158.524145 
L 365.88761 160.00393 
L 365.930903 158.125915 
L 366.32054 112.569346 
L 366.623592 135.589736 
L 366.666885 134.901885 
L 366.710178 135.390621 
L 366.796764 130.543985 
L 366.926643 120.552041 
L 367.099815 92.051467 
L 367.186401 89.53538 
L 367.229694 90.209655 
L 367.359573 101.943854 
L 367.532745 114.859167 
L 367.576039 115.451986 
L 367.619332 114.619324 
L 368.008969 73.131033 
L 368.095555 77.339596 
L 368.441899 107.99423 
L 368.528485 102.704111 
L 368.615072 102.975631 
L 368.744951 73.737428 
L 368.788244 74.045151 
L 368.87483 71.157986 
L 368.918123 71.796058 
L 369.091295 88.213981 
L 369.221174 101.464169 
L 369.264467 101.160971 
L 369.351053 98.255705 
L 369.394346 93.422644 
L 369.437639 96.911679 
L 369.480932 100.753691 
L 369.697398 70.732604 
L 369.740691 69.307123 
L 369.783984 69.329749 
L 369.913863 81.606989 
L 370.130328 103.993832 
L 370.173621 104.37396 
L 370.216914 103.36481 
L 370.649845 67.709679 
L 370.693138 69.632947 
L 370.996189 102.138444 
L 371.039482 100.921128 
L 371.082775 101.314833 
L 371.169361 103.880699 
L 371.472413 72.108306 
L 371.515706 72.406979 
L 371.645585 82.303891 
L 371.905343 102.871549 
L 371.991929 98.468395 
L 372.078515 99.029537 
L 372.251687 74.597242 
L 372.338273 72.723752 
L 372.42486 76.511459 
L 372.901083 108.193345 
L 373.074255 77.063551 
L 373.117548 77.407476 
L 373.247427 71.262068 
L 373.334014 76.701524 
L 373.507186 104.627379 
L 373.593772 103.989307 
L 373.637065 104.319656 
L 373.723651 109.781738 
L 373.766944 107.410462 
L 373.940116 78.660995 
L 374.069995 72.787107 
L 374.113288 73.045051 
L 374.589512 109.306578 
L 374.979149 69.578643 
L 375.195614 97.282757 
L 375.368787 106.378685 
L 375.41208 105.808492 
L 375.455373 108.686607 
L 375.801717 71.542639 
L 375.84501 73.411604 
L 376.321234 107.428563 
L 376.667578 66.614547 
L 376.754164 75.067877 
L 377.187095 111.673329 
L 377.360267 79.127104 
L 377.533439 69.3388 
L 377.576732 69.913518 
L 378.009662 107.799641 
L 378.052955 106.089063 
L 378.226128 82.168131 
L 378.3993 68.895317 
L 378.442593 69.216616 
L 378.875523 105.672732 
L 378.918816 105.369535 
L 379.135282 77.000196 
L 379.265161 69.20304 
L 379.308454 70.737129 
L 379.741384 105.871847 
L 379.871263 90.096522 
L 380.131022 69.47456 
L 380.347487 86.833754 
L 380.520659 103.401013 
L 380.607245 110.641552 
L 380.953589 70.596844 
L 380.996882 69.171363 
L 381.040176 70.198614 
L 381.473106 113.877169 
L 381.81945 76.91874 
L 381.862743 77.244564 
L 382.035916 95.418318 
L 382.252381 112.546719 
L 382.338967 119.05868 
L 382.512139 95.327811 
L 382.728604 81.208759 
L 382.771897 81.851357 
L 383.161535 115.746133 
L 383.204828 113.15764 
L 383.378 88.557907 
L 383.594465 71.655773 
L 383.767637 83.638866 
L 384.027396 104.713361 
L 384.070689 104.627379 
L 384.243861 79.502707 
L 384.417033 69.832062 
L 384.503619 70.035702 
L 384.893257 107.632203 
L 384.93655 104.577601 
L 385.109722 83.145604 
L 385.326187 68.564967 
L 385.499359 80.87841 
L 385.759117 110.428862 
L 385.802411 106.604952 
L 385.975583 84.860707 
L 386.148755 68.967722 
L 386.192048 70.61042 
L 386.321927 111.13934 
L 386.624978 203.800144 
L 386.668271 201.537475 
L 387.057909 258.420963 
L 387.101202 258.009158 
L 387.317667 210.687707 
L 387.880477 69.990449 
L 387.92377 67.72778 
L 387.967063 70.117158 
L 388.313407 99.690236 
L 388.3567 97.160573 
L 388.529872 71.329948 
L 388.659751 64.188966 
L 388.703045 61.926298 
L 388.789631 62.853992 
L 388.832924 62.573421 
L 389.179268 111.361081 
L 389.222561 111.094086 
L 389.439026 86.467201 
L 389.655492 67.469836 
L 390.045129 113.999353 
L 390.088422 113.669003 
L 390.261594 91.01064 
L 390.478059 72.339099 
L 390.564645 76.022723 
L 390.867697 108.098313 
L 390.91099 118.452284 
L 390.954283 109.53737 
L 391.34392 77.145007 
L 391.430506 80.688346 
L 391.776851 118.778109 
L 391.820144 109.256799 
L 392.036609 92.608084 
L 392.209781 78.072701 
L 392.253074 78.511659 
L 392.469539 101.581827 
L 392.642712 120.918593 
L 392.772591 106.822168 
L 392.859177 99.916503 
L 393.075642 81.145405 
L 393.118935 81.471229 
L 393.508573 127.65682 
L 393.551866 118.628773 
L 393.941503 88.942561 
L 393.984796 89.680191 
L 394.374433 136.580785 
L 394.417726 124.941618 
L 394.720778 101.455118 
L 394.807364 99.101943 
L 394.850657 100.450493 
L 395.023829 116.832214 
L 395.197001 143.613159 
L 395.240294 142.943409 
L 395.413467 129.602715 
L 395.673225 108.79069 
L 395.759811 114.868217 
L 396.019569 151.672785 
L 396.062862 159.153167 
L 396.106155 149.075241 
L 396.149448 148.545777 
L 396.192741 148.667961 
L 396.539086 121.959421 
L 396.582379 122.615595 
L 396.928723 162.958976 
L 397.058602 157.456166 
L 397.404947 124.145159 
L 397.44824 126.054851 
L 397.794584 165.058732 
L 397.837877 154.808843 
L 398.097635 128.883187 
L 398.314101 111.9539 
L 398.400687 121.61097 
L 398.487273 131.557661 
L 398.487273 131.557661 
" style="fill:none;stroke:#1f77b4;stroke-linecap:square;stroke-width:1.5;"/>
   </g>
   <g id="patch_3">
    <path d="M 57.6 307.584 
L 57.6 41.472 
" style="fill:none;stroke:#000000;stroke-linecap:square;stroke-linejoin:miter;stroke-width:0.8;"/>
   </g>
   <g id="patch_4">
    <path d="M 414.72 307.584 
L 414.72 41.472 
" style="fill:none;stroke:#000000;stroke-linecap:square;stroke-linejoin:miter;stroke-width:0.8;"/>
   </g>
   <g id="patch_5">
    <path d="M 57.6 307.584 
L 414.72 307.584 
" style="fill:none;stroke:#000000;stroke-linecap:square;stroke-linejoin:miter;stroke-width:0.8;"/>
   </g>
   <g id="patch_6">
    <path d="M 57.6 41.472 
L 414.72 41.472 
" style="fill:none;stroke:#000000;stroke-linecap:square;stroke-linejoin:miter;stroke-width:0.8;"/>
   </g>
  </g>
 </g>
 <defs>
  <clipPath id="pc47d4ccc5e">
   <rect height="266.112" width="357.12" x="57.6" y="41.472"/>
  </clipPath>
 </defs>
</svg>
