<?xml version="1.0" encoding="utf-8" standalone="no"?>
<!DOCTYPE svg PUBLIC "-//W3C//DTD SVG 1.1//EN"
  "http://www.w3.org/Graphics/SVG/1.1/DTD/svg11.dtd">
<!-- Created with matplotlib (http://matplotlib.org/) -->
<svg height="345.6pt" version="1.1" viewBox="0 0 460.8 345.6" width="460.8pt" xmlns="http://www.w3.org/2000/svg" xmlns:xlink="http://www.w3.org/1999/xlink">
 <defs>
  <style type="text/css">
*{stroke-linecap:butt;stroke-linejoin:round;}
  </style>
 </defs>
 <g id="figure_1">
  <g id="patch_1">
   <path d="M 0 345.6 
L 460.8 345.6 
L 460.8 0 
L 0 0 
z
" style="fill:#ffffff;"/>
  </g>
  <g id="axes_1">
   <g id="patch_2">
    <path d="M 57.6 307.584 
L 414.72 307.584 
L 414.72 41.472 
L 57.6 41.472 
z
" style="fill:#ffffff;"/>
   </g>
   <g id="matplotlib.axis_1">
    <g id="xtick_1">
     <g id="line2d_1">
      <defs>
       <path d="M 0 0 
L 0 3.5 
" id="m3936830b46" style="stroke:#000000;stroke-width:0.8;"/>
      </defs>
      <g>
       <use style="stroke:#000000;stroke-width:0.8;" x="73.832727" xlink:href="#m3936830b46" y="307.584"/>
      </g>
     </g>
     <g id="text_1">
      <!-- 0 -->
      <defs>
       <path d="M 31.78125 66.40625 
Q 24.171875 66.40625 20.328125 58.90625 
Q 16.5 51.421875 16.5 36.375 
Q 16.5 21.390625 20.328125 13.890625 
Q 24.171875 6.390625 31.78125 6.390625 
Q 39.453125 6.390625 43.28125 13.890625 
Q 47.125 21.390625 47.125 36.375 
Q 47.125 51.421875 43.28125 58.90625 
Q 39.453125 66.40625 31.78125 66.40625 
z
M 31.78125 74.21875 
Q 44.046875 74.21875 50.515625 64.515625 
Q 56.984375 54.828125 56.984375 36.375 
Q 56.984375 17.96875 50.515625 8.265625 
Q 44.046875 -1.421875 31.78125 -1.421875 
Q 19.53125 -1.421875 13.0625 8.265625 
Q 6.59375 17.96875 6.59375 36.375 
Q 6.59375 54.828125 13.0625 64.515625 
Q 19.53125 74.21875 31.78125 74.21875 
z
" id="DejaVuSans-30"/>
      </defs>
      <g transform="translate(70.651477 322.182437)scale(0.1 -0.1)">
       <use xlink:href="#DejaVuSans-30"/>
      </g>
     </g>
    </g>
    <g id="xtick_2">
     <g id="line2d_2">
      <g>
       <use style="stroke:#000000;stroke-width:0.8;" x="117.125772" xlink:href="#m3936830b46" y="307.584"/>
      </g>
     </g>
     <g id="text_2">
      <!-- 2 -->
      <defs>
       <path d="M 19.1875 8.296875 
L 53.609375 8.296875 
L 53.609375 0 
L 7.328125 0 
L 7.328125 8.296875 
Q 12.9375 14.109375 22.625 23.890625 
Q 32.328125 33.6875 34.8125 36.53125 
Q 39.546875 41.84375 41.421875 45.53125 
Q 43.3125 49.21875 43.3125 52.78125 
Q 43.3125 58.59375 39.234375 62.25 
Q 35.15625 65.921875 28.609375 65.921875 
Q 23.96875 65.921875 18.8125 64.3125 
Q 13.671875 62.703125 7.8125 59.421875 
L 7.8125 69.390625 
Q 13.765625 71.78125 18.9375 73 
Q 24.125 74.21875 28.421875 74.21875 
Q 39.75 74.21875 46.484375 68.546875 
Q 53.21875 62.890625 53.21875 53.421875 
Q 53.21875 48.921875 51.53125 44.890625 
Q 49.859375 40.875 45.40625 35.40625 
Q 44.1875 33.984375 37.640625 27.21875 
Q 31.109375 20.453125 19.1875 8.296875 
z
" id="DejaVuSans-32"/>
      </defs>
      <g transform="translate(113.944522 322.182437)scale(0.1 -0.1)">
       <use xlink:href="#DejaVuSans-32"/>
      </g>
     </g>
    </g>
    <g id="xtick_3">
     <g id="line2d_3">
      <g>
       <use style="stroke:#000000;stroke-width:0.8;" x="160.418818" xlink:href="#m3936830b46" y="307.584"/>
      </g>
     </g>
     <g id="text_3">
      <!-- 4 -->
      <defs>
       <path d="M 37.796875 64.3125 
L 12.890625 25.390625 
L 37.796875 25.390625 
z
M 35.203125 72.90625 
L 47.609375 72.90625 
L 47.609375 25.390625 
L 58.015625 25.390625 
L 58.015625 17.1875 
L 47.609375 17.1875 
L 47.609375 0 
L 37.796875 0 
L 37.796875 17.1875 
L 4.890625 17.1875 
L 4.890625 26.703125 
z
" id="DejaVuSans-34"/>
      </defs>
      <g transform="translate(157.237568 322.182437)scale(0.1 -0.1)">
       <use xlink:href="#DejaVuSans-34"/>
      </g>
     </g>
    </g>
    <g id="xtick_4">
     <g id="line2d_4">
      <g>
       <use style="stroke:#000000;stroke-width:0.8;" x="203.711863" xlink:href="#m3936830b46" y="307.584"/>
      </g>
     </g>
     <g id="text_4">
      <!-- 6 -->
      <defs>
       <path d="M 33.015625 40.375 
Q 26.375 40.375 22.484375 35.828125 
Q 18.609375 31.296875 18.609375 23.390625 
Q 18.609375 15.53125 22.484375 10.953125 
Q 26.375 6.390625 33.015625 6.390625 
Q 39.65625 6.390625 43.53125 10.953125 
Q 47.40625 15.53125 47.40625 23.390625 
Q 47.40625 31.296875 43.53125 35.828125 
Q 39.65625 40.375 33.015625 40.375 
z
M 52.59375 71.296875 
L 52.59375 62.3125 
Q 48.875 64.0625 45.09375 64.984375 
Q 41.3125 65.921875 37.59375 65.921875 
Q 27.828125 65.921875 22.671875 59.328125 
Q 17.53125 52.734375 16.796875 39.40625 
Q 19.671875 43.65625 24.015625 45.921875 
Q 28.375 48.1875 33.59375 48.1875 
Q 44.578125 48.1875 50.953125 41.515625 
Q 57.328125 34.859375 57.328125 23.390625 
Q 57.328125 12.15625 50.6875 5.359375 
Q 44.046875 -1.421875 33.015625 -1.421875 
Q 20.359375 -1.421875 13.671875 8.265625 
Q 6.984375 17.96875 6.984375 36.375 
Q 6.984375 53.65625 15.1875 63.9375 
Q 23.390625 74.21875 37.203125 74.21875 
Q 40.921875 74.21875 44.703125 73.484375 
Q 48.484375 72.75 52.59375 71.296875 
z
" id="DejaVuSans-36"/>
      </defs>
      <g transform="translate(200.530613 322.182437)scale(0.1 -0.1)">
       <use xlink:href="#DejaVuSans-36"/>
      </g>
     </g>
    </g>
    <g id="xtick_5">
     <g id="line2d_5">
      <g>
       <use style="stroke:#000000;stroke-width:0.8;" x="247.004908" xlink:href="#m3936830b46" y="307.584"/>
      </g>
     </g>
     <g id="text_5">
      <!-- 8 -->
      <defs>
       <path d="M 31.78125 34.625 
Q 24.75 34.625 20.71875 30.859375 
Q 16.703125 27.09375 16.703125 20.515625 
Q 16.703125 13.921875 20.71875 10.15625 
Q 24.75 6.390625 31.78125 6.390625 
Q 38.8125 6.390625 42.859375 10.171875 
Q 46.921875 13.96875 46.921875 20.515625 
Q 46.921875 27.09375 42.890625 30.859375 
Q 38.875 34.625 31.78125 34.625 
z
M 21.921875 38.8125 
Q 15.578125 40.375 12.03125 44.71875 
Q 8.5 49.078125 8.5 55.328125 
Q 8.5 64.0625 14.71875 69.140625 
Q 20.953125 74.21875 31.78125 74.21875 
Q 42.671875 74.21875 48.875 69.140625 
Q 55.078125 64.0625 55.078125 55.328125 
Q 55.078125 49.078125 51.53125 44.71875 
Q 48 40.375 41.703125 38.8125 
Q 48.828125 37.15625 52.796875 32.3125 
Q 56.78125 27.484375 56.78125 20.515625 
Q 56.78125 9.90625 50.3125 4.234375 
Q 43.84375 -1.421875 31.78125 -1.421875 
Q 19.734375 -1.421875 13.25 4.234375 
Q 6.78125 9.90625 6.78125 20.515625 
Q 6.78125 27.484375 10.78125 32.3125 
Q 14.796875 37.15625 21.921875 38.8125 
z
M 18.3125 54.390625 
Q 18.3125 48.734375 21.84375 45.5625 
Q 25.390625 42.390625 31.78125 42.390625 
Q 38.140625 42.390625 41.71875 45.5625 
Q 45.3125 48.734375 45.3125 54.390625 
Q 45.3125 60.0625 41.71875 63.234375 
Q 38.140625 66.40625 31.78125 66.40625 
Q 25.390625 66.40625 21.84375 63.234375 
Q 18.3125 60.0625 18.3125 54.390625 
z
" id="DejaVuSans-38"/>
      </defs>
      <g transform="translate(243.823658 322.182437)scale(0.1 -0.1)">
       <use xlink:href="#DejaVuSans-38"/>
      </g>
     </g>
    </g>
    <g id="xtick_6">
     <g id="line2d_6">
      <g>
       <use style="stroke:#000000;stroke-width:0.8;" x="290.297953" xlink:href="#m3936830b46" y="307.584"/>
      </g>
     </g>
     <g id="text_6">
      <!-- 10 -->
      <defs>
       <path d="M 12.40625 8.296875 
L 28.515625 8.296875 
L 28.515625 63.921875 
L 10.984375 60.40625 
L 10.984375 69.390625 
L 28.421875 72.90625 
L 38.28125 72.90625 
L 38.28125 8.296875 
L 54.390625 8.296875 
L 54.390625 0 
L 12.40625 0 
z
" id="DejaVuSans-31"/>
      </defs>
      <g transform="translate(283.935453 322.182437)scale(0.1 -0.1)">
       <use xlink:href="#DejaVuSans-31"/>
       <use x="63.623047" xlink:href="#DejaVuSans-30"/>
      </g>
     </g>
    </g>
    <g id="xtick_7">
     <g id="line2d_7">
      <g>
       <use style="stroke:#000000;stroke-width:0.8;" x="333.590998" xlink:href="#m3936830b46" y="307.584"/>
      </g>
     </g>
     <g id="text_7">
      <!-- 12 -->
      <g transform="translate(327.228498 322.182437)scale(0.1 -0.1)">
       <use xlink:href="#DejaVuSans-31"/>
       <use x="63.623047" xlink:href="#DejaVuSans-32"/>
      </g>
     </g>
    </g>
    <g id="xtick_8">
     <g id="line2d_8">
      <g>
       <use style="stroke:#000000;stroke-width:0.8;" x="376.884043" xlink:href="#m3936830b46" y="307.584"/>
      </g>
     </g>
     <g id="text_8">
      <!-- 14 -->
      <g transform="translate(370.521543 322.182437)scale(0.1 -0.1)">
       <use xlink:href="#DejaVuSans-31"/>
       <use x="63.623047" xlink:href="#DejaVuSans-34"/>
      </g>
     </g>
    </g>
   </g>
   <g id="matplotlib.axis_2">
    <g id="ytick_1">
     <g id="line2d_9">
      <defs>
       <path d="M 0 0 
L -3.5 0 
" id="m8dd336d7d5" style="stroke:#000000;stroke-width:0.8;"/>
      </defs>
      <g>
       <use style="stroke:#000000;stroke-width:0.8;" x="57.6" xlink:href="#m8dd336d7d5" y="275.598806"/>
      </g>
     </g>
     <g id="text_9">
      <!-- −10000 -->
      <defs>
       <path d="M 10.59375 35.5 
L 73.1875 35.5 
L 73.1875 27.203125 
L 10.59375 27.203125 
z
" id="DejaVuSans-2212"/>
      </defs>
      <g transform="translate(10.407812 279.398024)scale(0.1 -0.1)">
       <use xlink:href="#DejaVuSans-2212"/>
       <use x="83.789062" xlink:href="#DejaVuSans-31"/>
       <use x="147.412109" xlink:href="#DejaVuSans-30"/>
       <use x="211.035156" xlink:href="#DejaVuSans-30"/>
       <use x="274.658203" xlink:href="#DejaVuSans-30"/>
       <use x="338.28125" xlink:href="#DejaVuSans-30"/>
      </g>
     </g>
    </g>
    <g id="ytick_2">
     <g id="line2d_10">
      <g>
       <use style="stroke:#000000;stroke-width:0.8;" x="57.6" xlink:href="#m8dd336d7d5" y="236.329903"/>
      </g>
     </g>
     <g id="text_10">
      <!-- 0 -->
      <g transform="translate(44.2375 240.129122)scale(0.1 -0.1)">
       <use xlink:href="#DejaVuSans-30"/>
      </g>
     </g>
    </g>
    <g id="ytick_3">
     <g id="line2d_11">
      <g>
       <use style="stroke:#000000;stroke-width:0.8;" x="57.6" xlink:href="#m8dd336d7d5" y="197.061001"/>
      </g>
     </g>
     <g id="text_11">
      <!-- 10000 -->
      <g transform="translate(18.7875 200.86022)scale(0.1 -0.1)">
       <use xlink:href="#DejaVuSans-31"/>
       <use x="63.623047" xlink:href="#DejaVuSans-30"/>
       <use x="127.246094" xlink:href="#DejaVuSans-30"/>
       <use x="190.869141" xlink:href="#DejaVuSans-30"/>
       <use x="254.492188" xlink:href="#DejaVuSans-30"/>
      </g>
     </g>
    </g>
    <g id="ytick_4">
     <g id="line2d_12">
      <g>
       <use style="stroke:#000000;stroke-width:0.8;" x="57.6" xlink:href="#m8dd336d7d5" y="157.792099"/>
      </g>
     </g>
     <g id="text_12">
      <!-- 20000 -->
      <g transform="translate(18.7875 161.591317)scale(0.1 -0.1)">
       <use xlink:href="#DejaVuSans-32"/>
       <use x="63.623047" xlink:href="#DejaVuSans-30"/>
       <use x="127.246094" xlink:href="#DejaVuSans-30"/>
       <use x="190.869141" xlink:href="#DejaVuSans-30"/>
       <use x="254.492188" xlink:href="#DejaVuSans-30"/>
      </g>
     </g>
    </g>
    <g id="ytick_5">
     <g id="line2d_13">
      <g>
       <use style="stroke:#000000;stroke-width:0.8;" x="57.6" xlink:href="#m8dd336d7d5" y="118.523196"/>
      </g>
     </g>
     <g id="text_13">
      <!-- 30000 -->
      <defs>
       <path d="M 40.578125 39.3125 
Q 47.65625 37.796875 51.625 33 
Q 55.609375 28.21875 55.609375 21.1875 
Q 55.609375 10.40625 48.1875 4.484375 
Q 40.765625 -1.421875 27.09375 -1.421875 
Q 22.515625 -1.421875 17.65625 -0.515625 
Q 12.796875 0.390625 7.625 2.203125 
L 7.625 11.71875 
Q 11.71875 9.328125 16.59375 8.109375 
Q 21.484375 6.890625 26.8125 6.890625 
Q 36.078125 6.890625 40.9375 10.546875 
Q 45.796875 14.203125 45.796875 21.1875 
Q 45.796875 27.640625 41.28125 31.265625 
Q 36.765625 34.90625 28.71875 34.90625 
L 20.21875 34.90625 
L 20.21875 43.015625 
L 29.109375 43.015625 
Q 36.375 43.015625 40.234375 45.921875 
Q 44.09375 48.828125 44.09375 54.296875 
Q 44.09375 59.90625 40.109375 62.90625 
Q 36.140625 65.921875 28.71875 65.921875 
Q 24.65625 65.921875 20.015625 65.03125 
Q 15.375 64.15625 9.8125 62.3125 
L 9.8125 71.09375 
Q 15.4375 72.65625 20.34375 73.4375 
Q 25.25 74.21875 29.59375 74.21875 
Q 40.828125 74.21875 47.359375 69.109375 
Q 53.90625 64.015625 53.90625 55.328125 
Q 53.90625 49.265625 50.4375 45.09375 
Q 46.96875 40.921875 40.578125 39.3125 
z
" id="DejaVuSans-33"/>
      </defs>
      <g transform="translate(18.7875 122.322415)scale(0.1 -0.1)">
       <use xlink:href="#DejaVuSans-33"/>
       <use x="63.623047" xlink:href="#DejaVuSans-30"/>
       <use x="127.246094" xlink:href="#DejaVuSans-30"/>
       <use x="190.869141" xlink:href="#DejaVuSans-30"/>
       <use x="254.492188" xlink:href="#DejaVuSans-30"/>
      </g>
     </g>
    </g>
    <g id="ytick_6">
     <g id="line2d_14">
      <g>
       <use style="stroke:#000000;stroke-width:0.8;" x="57.6" xlink:href="#m8dd336d7d5" y="79.254294"/>
      </g>
     </g>
     <g id="text_14">
      <!-- 40000 -->
      <g transform="translate(18.7875 83.053513)scale(0.1 -0.1)">
       <use xlink:href="#DejaVuSans-34"/>
       <use x="63.623047" xlink:href="#DejaVuSans-30"/>
       <use x="127.246094" xlink:href="#DejaVuSans-30"/>
       <use x="190.869141" xlink:href="#DejaVuSans-30"/>
       <use x="254.492188" xlink:href="#DejaVuSans-30"/>
      </g>
     </g>
    </g>
   </g>
   <g id="line2d_15">
    <path clip-path="url(#p9716b23cda)" d="M 73.832727 240.778565 
L 73.919313 246.649266 
L 74.179072 283.970431 
L 74.265658 274.011837 
L 74.568709 237.990473 
L 74.741881 248.867959 
L 74.785174 244.595503 
L 74.828467 249.688679 
L 75.001639 273.403169 
L 75.044933 281.520051 
L 75.088226 281.052751 
L 75.43457 230.223084 
L 75.521156 233.678748 
L 75.694328 250.929576 
L 75.8675 273.878323 
L 75.910793 273.006553 
L 76.43031 228.051514 
L 76.516896 238.422431 
L 76.776654 264.229954 
L 76.819947 265.918517 
L 76.86324 264.57552 
L 76.906533 263.134351 
L 77.209585 223.798692 
L 77.252878 223.00546 
L 77.296171 225.196665 
L 77.642515 275.244881 
L 77.729101 276.199115 
L 78.075446 239.415934 
L 78.118739 237.884447 
L 78.205325 246.892733 
L 78.42179 276.187334 
L 78.508376 282.167988 
L 78.551669 278.720179 
L 78.638255 264.795426 
L 78.681548 266.707821 
L 78.724841 269.217104 
L 78.941307 231.762425 
L 78.9846 236.427571 
L 79.244358 270.387318 
L 79.287651 272.645279 
L 79.374237 286.53469 
L 79.41753 284.865762 
L 79.763874 234.236366 
L 79.937047 245.624348 
L 79.98034 246.146624 
L 80.283391 277.337913 
L 80.41327 243.166114 
L 80.846201 139.606165 
L 81.105959 114.623289 
L 81.192545 95.774216 
L 81.235838 96.461422 
L 81.495596 158.121453 
L 81.798648 259.062166 
L 82.015113 284.744028 
L 82.058406 281.571101 
L 82.318164 246.295846 
L 82.361457 248.227876 
L 82.880974 290.265236 
L 82.96756 281.253023 
L 83.184025 236.808479 
L 83.227318 242.266857 
L 83.270611 243.692318 
L 83.313904 241.960559 
L 83.40049 240.951348 
L 83.703542 291.050614 
L 83.746835 282.54497 
L 83.9633 244.941069 
L 84.049886 239.478765 
L 84.136472 226.759567 
L 84.179765 227.486042 
L 84.526109 279.823635 
L 84.569402 276.713538 
L 84.699282 263.864753 
L 84.785868 253.297491 
L 84.872454 234.452345 
L 84.915747 236.411863 
L 84.95904 238.186818 
L 85.002333 235.987759 
L 85.045626 235.092428 
L 85.218798 253.497763 
L 85.435263 275.244881 
L 85.608436 262.3529 
L 85.911487 224.265992 
L 85.95478 226.178387 
L 86.127952 262.451072 
L 86.214538 258.210031 
L 86.344417 267.320416 
L 86.734055 220.362663 
L 87.080399 263.252158 
L 87.253571 256.564664 
L 87.643209 212.351807 
L 88.032846 257.20082 
L 88.076139 253.497763 
L 88.206018 249.040742 
L 88.37919 211.692089 
L 88.465777 206.359372 
L 88.50907 209.599057 
L 88.812121 248.47527 
L 88.855414 250.654694 
L 89.288344 196.035578 
L 89.331637 198.788328 
L 89.418224 200.590771 
L 89.764568 237.432855 
L 90.154205 186.206572 
L 90.197498 186.320451 
L 90.240791 185.727491 
L 90.673722 227.847316 
L 90.760308 220.260564 
L 90.976773 170.934895 
L 91.452997 223.496321 
L 91.539583 215.995961 
L 91.799341 187.643813 
L 91.842634 189.159593 
L 91.972513 183.112182 
L 92.145685 211.990533 
L 92.318858 239.447349 
L 92.362151 238.41065 
L 92.405444 238.029742 
L 92.49203 241.245865 
L 92.708495 207.396071 
L 92.751788 206.916991 
L 92.838374 211.884507 
L 93.228011 261.261225 
L 93.314598 263.256085 
L 93.357891 259.478417 
L 93.574356 221.336532 
L 93.834114 244.014323 
L 94.050579 272.405739 
L 94.093872 270.461929 
L 94.180458 270.768226 
L 94.223752 266.790286 
L 94.440217 229.740077 
L 94.656682 245.824619 
L 95.046319 278.0369 
L 95.089612 276.415094 
L 95.306078 233.140764 
L 95.349371 232.645976 
L 95.392664 232.869808 
L 95.868887 276.933444 
L 95.91218 280.165274 
L 96.258525 230.969193 
L 96.301818 234.028241 
L 96.691455 288.309645 
L 96.734748 283.978285 
L 96.951213 242.781279 
L 96.994506 241.834899 
L 97.081093 231.287271 
L 97.167679 231.978404 
L 97.210972 233.274278 
L 97.514023 277.475354 
L 97.643902 269.480206 
L 97.817074 239.761501 
L 97.990246 229.535878 
L 98.076833 238.999684 
L 98.46647 278.873327 
L 98.509763 278.115438 
L 98.682935 241.336184 
L 98.726228 242.109781 
L 98.769521 241.08879 
L 98.856107 229.182458 
L 98.8994 235.924929 
L 99.02928 244.783993 
L 99.202452 268.247162 
L 99.332331 271.698899 
L 99.375624 270.190973 
L 99.678675 231.31476 
L 99.721968 228.691597 
L 99.765261 231.530739 
L 100.154899 272.586376 
L 100.198192 273.693759 
L 100.45795 239.239224 
L 100.544536 224.187454 
L 100.587829 226.57893 
L 100.847587 262.659198 
L 101.064053 275.095659 
L 101.367104 229.135336 
L 101.496983 231.483616 
L 101.886621 275.315565 
L 101.929914 272.193687 
L 102.103086 252.170474 
L 102.232965 235.685389 
L 102.319551 224.870733 
L 102.362844 227.737363 
L 102.752481 278.005485 
L 102.795774 276.737099 
L 103.098826 227.953342 
L 103.142119 225.141688 
L 103.185412 226.716371 
L 103.44517 262.553172 
L 103.488463 261.618572 
L 103.618342 273.485634 
L 103.661635 270.493344 
L 103.878101 232.940492 
L 104.051273 221.980542 
L 104.094566 222.086568 
L 104.484203 272.598157 
L 104.527496 272.048392 
L 104.743961 223.614128 
L 104.787255 225.027808 
L 104.873841 222.094421 
L 105.306771 262.663125 
L 105.350064 268.867611 
L 105.393357 261.477204 
L 105.609822 230.564724 
L 105.696408 223.539517 
L 105.739702 223.991109 
L 106.086046 268.785146 
L 106.172632 282.277941 
L 106.215925 289.813644 
L 106.43239 243.14648 
L 106.562269 232.759855 
L 106.605562 234.232439 
L 106.778735 242.003755 
L 106.951907 268.392457 
L 107.081786 279.03433 
L 107.298251 244.764359 
L 107.471423 238.017961 
L 107.514716 234.373807 
L 107.558009 234.998183 
L 107.601302 236.938067 
L 107.904354 281.877398 
L 107.947647 282.411456 
L 108.207405 233.003323 
L 108.250698 231.342248 
L 108.293991 223.857595 
L 108.337284 225.577573 
L 108.597043 246.154478 
L 108.640336 243.331044 
L 109.333024 64.410144 
L 109.376317 64.75571 
L 109.592783 162.554912 
L 109.809248 235.167039 
L 109.98242 220.123123 
L 110.025713 221.713513 
L 110.112299 229.233508 
L 110.41535 280.051394 
L 110.54523 295.488 
L 110.631816 288.792652 
L 110.934867 237.864813 
L 110.97816 238.618776 
L 111.367797 279.725463 
L 111.584263 250.034245 
L 111.844021 232.068723 
L 111.930607 236.545378 
L 112.190365 278.582738 
L 112.233658 278.013338 
L 112.40683 253.898305 
L 112.623296 231.727083 
L 112.753175 233.026884 
L 112.796468 235.697169 
L 112.96964 257.577802 
L 113.012933 260.059596 
L 113.099519 271.25516 
L 113.402571 235.650047 
L 113.489157 228.153613 
L 113.619036 229.111774 
L 113.705622 234.189243 
L 113.922087 268.718389 
L 113.96538 268.518118 
L 114.311724 221.316897 
L 114.355018 222.408573 
L 114.744655 258.744088 
L 114.787948 268.015476 
L 114.831241 267.257586 
L 115.134292 227.09728 
L 115.307465 219.565504 
L 115.394051 225.715014 
L 115.653809 262.612075 
L 116.043446 209.583349 
L 116.086739 208.652676 
L 116.259912 218.791907 
L 116.51967 258.535963 
L 116.562963 251.302631 
L 116.649549 245.471199 
L 116.9526 196.856298 
L 117.385531 247.159762 
L 117.428824 238.528457 
L 117.861754 179.90784 
L 117.905047 180.006012 
L 118.164805 221.733148 
L 118.251392 233.60021 
L 118.294685 228.436349 
L 118.381271 219.824679 
L 118.641029 182.346438 
L 118.770908 177.34358 
L 118.900787 192.454254 
L 119.117252 225.781771 
L 119.50689 174.983519 
L 119.809941 202.373579 
L 119.983113 229.488756 
L 120.069699 225.137761 
L 120.416044 194.382357 
L 120.805681 246.676754 
L 120.93556 242.023389 
L 121.152026 225.785698 
L 121.195319 227.014815 
L 121.325198 215.874227 
L 121.628249 264.44986 
L 121.758128 261.394739 
L 122.104473 226.739933 
L 122.147766 227.611702 
L 122.450817 256.246586 
L 122.537403 272.790574 
L 122.580696 268.639851 
L 122.667282 271.133427 
L 123.100213 229.543732 
L 123.403264 282.976928 
L 123.48985 268.973637 
L 123.576436 270.925302 
L 123.879487 227.607775 
L 123.92278 231.715303 
L 124.225832 272.162272 
L 124.269125 270.992059 
L 124.312418 267.453931 
L 124.355711 272.503911 
L 124.399004 278.398174 
L 124.442297 272.65706 
L 124.745348 229.225654 
L 125.0484 275.087805 
L 125.178279 269.468425 
L 125.221572 270.870325 
L 125.264865 270.065313 
L 125.308158 268.796927 
L 125.394744 249.072157 
L 125.567916 229.85003 
L 125.611209 228.424569 
L 125.654502 229.948202 
L 125.784381 242.828402 
L 125.914261 269.158201 
L 125.957554 268.690901 
L 126.000847 264.92894 
L 126.04414 268.726243 
L 126.087433 271.141281 
L 126.433777 229.198166 
L 126.563656 232.253286 
L 126.606949 233.038665 
L 126.823415 271.325844 
L 126.953294 268.050818 
L 126.996587 267.104437 
L 127.169759 246.256577 
L 127.342931 232.339678 
L 127.386224 231.652472 
L 127.429517 231.727083 
L 127.47281 234.511248 
L 127.645982 273.210752 
L 127.689275 267.940865 
L 127.775862 263.373892 
L 127.819155 266.472208 
L 127.862448 265.160627 
L 127.992327 249.885024 
L 128.208792 224.411287 
L 128.685015 273.375681 
L 128.814895 257.876245 
L 129.074653 228.899722 
L 129.161239 237.028385 
L 129.204532 234.715447 
L 129.247825 235.571509 
L 129.334411 255.284498 
L 129.46429 272.951577 
L 129.507583 273.442438 
L 129.897221 228.997894 
L 129.940514 230.20345 
L 130.416737 273.485634 
L 130.46003 268.781219 
L 130.763082 223.029021 
L 130.806375 228.644474 
L 131.196012 260.18133 
L 131.282598 257.675974 
L 131.325891 257.534606 
L 131.672236 220.829963 
L 131.715529 224.548728 
L 131.931994 249.268502 
L 131.975287 259.812202 
L 132.061873 257.067306 
L 132.105166 260.330552 
L 132.148459 258.771576 
L 132.278338 247.234373 
L 132.45151 227.179744 
L 132.494803 224.41914 
L 132.538096 224.752926 
L 132.754562 242.734157 
L 132.927734 266.059885 
L 133.01432 270.807495 
L 133.057613 267.37932 
L 133.403957 230.607919 
L 133.44725 234.8254 
L 133.836888 276.422948 
L 133.880181 275.421591 
L 134.226525 235.512605 
L 134.269818 236.105566 
L 134.356404 242.687034 
L 134.44299 235.437994 
L 134.702749 278.622006 
L 134.746042 276.650708 
L 134.962507 240.715735 
L 135.092386 235.693242 
L 135.135679 234.452345 
L 135.308851 250.831404 
L 135.482024 265.922443 
L 135.611903 271.643922 
L 135.655196 268.96971 
L 135.741782 257.306846 
L 136.131419 159.005003 
L 136.261298 154.822865 
L 136.434471 125.720681 
L 136.650936 77.443493 
L 136.694229 82.167542 
L 136.910694 153.754751 
L 137.127159 242.101927 
L 137.170452 239.871454 
L 137.257038 244.210667 
L 137.430211 261.669621 
L 137.689969 233.219301 
L 137.733262 233.875092 
L 138.166192 288.101519 
L 138.55583 229.637978 
L 138.642416 236.631769 
L 138.98876 272.307567 
L 139.248518 251.828834 
L 139.464984 224.925709 
L 139.508277 228.027953 
L 139.724742 263.087229 
L 139.897914 271.600727 
L 139.941207 270.230242 
L 140.244259 232.025527 
L 140.287552 231.695668 
L 140.374138 227.167964 
L 140.460724 239.270639 
L 140.633896 259.710103 
L 140.807068 272.912308 
L 140.893654 258.854041 
L 141.153412 221.682098 
L 141.196706 220.437274 
L 141.326585 237.664541 
L 141.499757 257.727023 
L 141.586343 264.697254 
L 141.932687 229.86181 
L 142.105859 221.418996 
L 142.149152 222.970118 
L 142.495497 262.663125 
L 142.53879 260.204891 
L 142.97172 208.397428 
L 143.015013 215.901716 
L 143.274772 250.540814 
L 143.318065 254.781856 
L 143.361358 252.912656 
L 143.491237 246.390091 
L 143.707702 212.190804 
L 143.794288 208.585919 
L 143.837581 208.872582 
L 144.183926 245.730374 
L 144.227219 246.205528 
L 144.400391 222.13369 
L 144.53027 200.044933 
L 144.573563 200.991313 
L 144.616856 199.77005 
L 144.660149 200.567209 
L 144.790028 210.246994 
L 145.006493 231.44042 
L 145.09308 233.941849 
L 145.136373 231.892013 
L 145.52601 176.161586 
L 145.872354 218.972544 
L 146.002234 217.217224 
L 146.045527 216.372942 
L 146.348578 181.4354 
L 146.781508 221.599633 
L 146.824801 218.73693 
L 147.171146 179.911767 
L 147.214439 181.38435 
L 147.344318 195.128466 
L 147.604076 234.845034 
L 147.733955 240.837469 
L 147.820541 232.064796 
L 147.950421 209.229929 
L 147.993714 211.209082 
L 148.0803 207.828029 
L 148.123593 209.807182 
L 148.166886 212.748423 
L 148.426644 252.712385 
L 148.469937 256.584298 
L 148.51323 253.234661 
L 148.643109 249.653337 
L 148.946161 223.955767 
L 148.989454 227.175817 
L 149.422384 277.306498 
L 149.465677 275.060317 
L 149.768728 229.524098 
L 149.898608 236.957701 
L 150.244952 278.245025 
L 150.288245 281.457221 
L 150.634589 228.51096 
L 150.677882 230.655042 
L 150.807762 241.662116 
L 151.024227 269.821845 
L 151.154106 276.894175 
L 151.587036 232.127626 
L 151.673622 243.766929 
L 151.716915 242.639911 
L 151.976674 273.752663 
L 152.106553 266.193399 
L 152.193139 255.865677 
L 152.409604 233.60021 
L 152.452897 231.597496 
L 152.842535 271.475066 
L 152.885828 270.116362 
L 152.929121 270.438367 
L 152.972414 271.380821 
L 153.232172 229.85003 
L 153.362051 236.368667 
L 153.665102 270.941009 
L 153.708396 272.429301 
L 153.881568 258.995409 
L 154.098033 232.865881 
L 154.184619 237.821617 
L 154.227912 243.122919 
L 154.271205 241.371526 
L 154.314498 234.911791 
L 154.357791 242.796987 
L 154.574256 276.823491 
L 154.617549 280.416595 
L 154.660843 277.561746 
L 154.920601 225.69538 
L 154.963894 226.9834 
L 155.007187 226.370805 
L 155.05048 227.808047 
L 155.223652 245.616494 
L 155.48341 270.866398 
L 155.656583 252.068375 
L 155.829755 230.827825 
L 155.873048 229.724369 
L 156.305978 274.102156 
L 156.47915 260.314844 
L 156.695616 228.346031 
L 156.738909 232.257213 
L 157.258425 269.268154 
L 157.60477 220.268417 
L 158.080993 265.21953 
L 158.210872 255.304132 
L 158.384044 214.562646 
L 158.470631 218.846883 
L 158.687096 235.807122 
L 158.903561 263.613432 
L 158.946854 264.33598 
L 159.076733 246.716023 
L 159.293198 214.821821 
L 159.336491 221.886296 
L 159.552957 249.280283 
L 159.639543 256.348685 
L 159.726129 270.583662 
L 159.769422 270.24595 
L 159.985887 255.284498 
L 160.202352 233.945776 
L 160.59199 278.170414 
L 160.635283 275.818207 
L 160.851748 256.010972 
L 160.981627 231.624984 
L 161.02492 234.110706 
L 161.544437 276.057747 
L 161.58773 270.615077 
L 161.890781 230.812118 
L 161.934074 235.167039 
L 161.977367 237.617419 
L 162.02066 232.55173 
L 162.063953 233.274278 
L 162.280418 276.513266 
L 162.323712 266.990558 
L 163.0164 92.605216 
L 163.059693 93.418082 
L 163.146279 87.87724 
L 163.189572 91.380026 
L 163.57921 197.433551 
L 163.882261 234.974621 
L 164.055433 267.544249 
L 164.142019 271.624288 
L 164.185312 268.600583 
L 164.271899 265.325556 
L 164.488364 242.785206 
L 164.531657 250.886381 
L 164.57495 249.857535 
L 164.618243 242.938355 
L 164.661536 244.587649 
L 164.964587 275.778938 
L 165.137759 263.177547 
L 165.354225 233.207521 
L 165.397518 235.701096 
L 165.440811 231.306906 
L 165.484104 237.071581 
L 165.787155 277.357548 
L 165.830448 276.371898 
L 166.306672 224.069647 
L 166.696309 276.709611 
L 166.739602 270.147777 
L 166.99936 229.881445 
L 167.042653 226.468977 
L 167.085946 231.636765 
L 167.12924 234.118559 
L 167.172533 229.084286 
L 167.215826 232.394655 
L 167.605463 269.079663 
L 167.908514 227.328966 
L 167.951807 232.433923 
L 167.9951 234.338465 
L 168.081687 221.811685 
L 168.12498 226.531807 
L 168.384738 265.09387 
L 168.428031 266.5586 
L 168.774375 220.72001 
L 168.817668 224.128551 
L 168.860961 222.318254 
L 168.904254 214.978896 
L 168.947547 217.311469 
L 169.250599 263.2875 
L 169.293892 262.702393 
L 169.596943 216.235501 
L 169.683529 223.311757 
L 169.726822 222.408573 
L 169.813408 212.885864 
L 170.11646 256.199463 
L 170.159753 254.173188 
L 170.376218 223.374588 
L 170.592683 206.881649 
L 170.635976 208.087204 
L 171.025614 244.332401 
L 171.458544 187.832304 
L 171.501837 190.039216 
L 171.804888 219.463405 
L 171.891474 223.912572 
L 171.934768 221.183383 
L 172.064647 212.823034 
L 172.194526 181.074126 
L 172.237819 187.074414 
L 172.281112 184.506228 
L 172.324405 174.571196 
L 172.367698 177.905126 
L 172.670749 210.568999 
L 172.757335 215.057434 
L 173.017094 183.630532 
L 173.190266 173.620888 
L 173.233559 171.8263 
L 173.579903 223.311757 
L 173.753075 220.323394 
L 173.882955 188.69622 
L 173.969541 195.756769 
L 174.012834 194.374503 
L 174.056127 188.507729 
L 174.09942 191.983027 
L 174.445764 248.451709 
L 174.921988 209.438054 
L 174.965281 212.316465 
L 175.225039 252.633847 
L 175.398211 261.657841 
L 175.571383 240.362315 
L 175.744556 227.603848 
L 175.787849 229.704735 
L 176.004314 253.309272 
L 176.047607 252.999048 
L 176.220779 274.027545 
L 176.264072 266.900239 
L 176.480537 239.278493 
L 176.567123 240.256289 
L 176.697003 228.404934 
L 176.740296 230.988828 
L 177.08664 272.25259 
L 177.51957 223.382441 
L 177.562863 227.988684 
L 177.909208 273.379608 
L 177.952501 272.12693 
L 178.212259 241.190889 
L 178.298845 242.474982 
L 178.385431 215.469758 
L 178.428724 226.095923 
L 178.64519 264.320272 
L 178.818362 278.449223 
L 178.861655 271.514335 
L 179.294585 227.065864 
L 179.381171 237.000897 
L 179.684223 277.39289 
L 180.07386 225.785698 
L 180.117153 226.677102 
L 180.420204 264.316345 
L 180.463497 263.680189 
L 180.50679 262.219386 
L 180.593377 266.91202 
L 180.63667 264.084659 
L 180.939721 226.347244 
L 181.026307 230.376233 
L 181.415944 272.759159 
L 181.762289 230.333037 
L 181.805582 230.804264 
L 181.848875 227.489969 
L 181.892168 229.370949 
L 182.108633 267.548176 
L 182.195219 266.232668 
L 182.238512 266.436866 
L 182.281805 268.117575 
L 182.325098 267.622787 
L 182.584857 232.143334 
L 182.62815 221.442558 
L 182.671443 225.306618 
L 182.801322 239.412007 
L 182.974494 262.941934 
L 183.017787 262.160483 
L 183.06108 260.373747 
L 183.147666 271.65963 
L 183.190959 269.609793 
L 183.450718 231.342248 
L 183.494011 224.128551 
L 183.537304 226.555369 
L 183.970234 261.917015 
L 184.013527 260.039962 
L 184.403165 215.010311 
L 184.489751 222.165105 
L 184.576337 231.742791 
L 184.836095 260.051742 
L 184.879388 259.199607 
L 185.139146 230.391941 
L 185.182439 216.333673 
L 185.269025 221.925565 
L 185.312318 218.823322 
L 185.355612 222.141544 
L 185.701956 277.828775 
L 185.745249 274.12179 
L 185.918421 250.693963 
L 185.961714 251.008114 
L 186.0483 234.691885 
L 186.091593 222.353596 
L 186.134886 227.419285 
L 186.567817 272.82199 
L 186.61111 272.527473 
L 186.827575 255.649699 
L 186.957454 234.680105 
L 187.04404 235.371237 
L 187.476971 280.440157 
L 187.823315 228.428495 
L 187.953194 237.860886 
L 188.083073 253.874744 
L 188.256246 268.628071 
L 188.299539 268.510264 
L 188.342832 269.55089 
L 188.429418 261.975919 
L 188.559297 244.116422 
L 188.819055 163.615172 
L 188.948934 158.997149 
L 189.208693 122.088308 
L 189.381865 74.87138 
L 189.425158 80.321903 
L 189.511744 90.622136 
L 189.641623 138.17285 
L 189.901381 239.757574 
L 190.117847 259.937863 
L 190.291019 247.850895 
L 190.420898 227.86695 
L 190.464191 229.418072 
L 190.723949 277.793433 
L 190.767242 276.097016 
L 190.810535 278.084022 
L 190.897121 284.217825 
L 190.940414 279.411311 
L 191.243466 233.659113 
L 191.373345 228.644474 
L 191.546517 253.906159 
L 191.719689 276.258019 
L 191.762982 272.496058 
L 192.239206 224.564435 
L 192.282499 226.794909 
L 192.628843 274.860046 
L 192.672136 273.560245 
L 192.845308 249.225306 
L 193.018481 224.458409 
L 193.061774 219.573358 
L 193.105067 223.967548 
L 193.494704 266.291571 
L 193.537997 264.976063 
L 193.970928 217.103344 
L 194.360565 262.961568 
L 194.403858 261.889527 
L 194.706909 218.729077 
L 194.793495 219.706872 
L 194.880081 225.224153 
L 195.269719 264.013975 
L 195.313012 258.520255 
L 195.57277 213.549508 
L 195.616063 213.773341 
L 195.745942 223.87723 
L 196.005701 252.076228 
L 196.048994 253.32498 
L 196.092287 252.877314 
L 196.56851 202.086916 
L 196.611803 203.767625 
L 196.784975 233.089714 
L 196.914855 246.963417 
L 196.958148 242.522104 
L 197.391078 190.706788 
L 197.477664 192.09298 
L 197.824009 230.497967 
L 197.867302 227.541018 
L 198.12706 187.675229 
L 198.256939 177.037283 
L 198.300232 181.156591 
L 198.603283 207.937982 
L 198.646576 207.812322 
L 198.733162 204.73364 
L 198.819749 212.265415 
L 198.863042 206.473252 
L 199.036214 170.141664 
L 199.079507 170.200567 
L 199.1228 167.813018 
L 199.166093 169.485873 
L 199.512437 220.72001 
L 199.902075 175.600041 
L 200.378298 237.428928 
L 200.464884 237.130484 
L 200.638056 212.87801 
L 200.724643 202.730926 
L 200.767936 204.128899 
L 201.11428 240.142409 
L 201.200866 259.160338 
L 201.244159 258.693038 
L 201.330745 253.462421 
L 201.374038 253.878671 
L 201.417331 256.552883 
L 201.460624 252.154766 
L 201.633797 224.599777 
L 201.720383 218.678027 
L 201.763676 221.517169 
L 202.11002 269.401668 
L 202.153313 271.019547 
L 202.499657 226.728152 
L 202.586243 229.425926 
L 202.629537 230.336964 
L 202.975881 279.819708 
L 203.062467 271.278722 
L 203.149053 262.109433 
L 203.322225 231.927355 
L 203.365518 231.758498 
L 203.408811 232.858028 
L 203.495397 227.014815 
L 203.841742 271.694972 
L 203.885035 271.227672 
L 204.274672 228.7505 
L 204.361258 230.878875 
L 204.404551 232.677391 
L 204.750896 271.113792 
L 204.837482 269.935725 
L 204.924068 252.488552 
L 205.053947 231.44042 
L 205.09724 231.526812 
L 205.356998 246.087721 
L 205.573464 276.151992 
L 205.789929 255.692894 
L 205.919808 235.944563 
L 205.963101 236.52967 
L 206.09298 227.403577 
L 206.525911 277.094446 
L 206.569204 275.551178 
L 206.785669 236.109493 
L 206.872255 222.710943 
L 206.915548 227.148329 
L 207.391772 275.959575 
L 207.435065 273.921519 
L 207.694823 227.258282 
L 207.911288 237.801982 
L 208.171046 268.895099 
L 208.214339 273.304997 
L 208.257632 272.916235 
L 208.64727 226.81847 
L 208.863735 253.745157 
L 208.993614 271.71068 
L 209.0802 266.264083 
L 209.123493 268.647705 
L 209.166786 268.478849 
L 209.469838 219.757922 
L 209.556424 231.550373 
L 209.859475 261.492911 
L 209.989354 268.796927 
L 210.032647 268.372823 
L 210.292406 217.138686 
L 210.335699 216.03523 
L 210.552164 235.701096 
L 210.725336 263.012618 
L 210.768629 262.725955 
L 211.158266 215.344097 
L 211.201559 215.371585 
L 211.331439 225.059224 
L 211.721076 274.176767 
L 211.894248 243.370313 
L 211.937541 240.943495 
L 212.024127 221.532876 
L 212.06742 223.731935 
L 212.327179 254.876101 
L 212.543644 278.241098 
L 212.586937 276.756734 
L 212.846695 226.252998 
L 212.889988 226.614272 
L 212.976574 232.481046 
L 213.322919 273.418877 
L 213.409505 278.178268 
L 213.452798 274.938583 
L 213.712556 228.255712 
L 213.755849 226.893081 
L 214.0589 262.557098 
L 214.275366 281.060605 
L 214.448538 252.955852 
L 214.578417 235.143478 
L 214.62171 235.194527 
L 214.665003 239.007538 
L 214.708296 236.223373 
L 214.881468 232.547803 
L 214.924761 232.71666 
L 215.097934 210.470826 
L 215.271106 160.783884 
L 215.61745 53.568 
L 215.704036 65.733506 
L 216.093674 223.567005 
L 216.136967 230.093497 
L 216.18026 229.759711 
L 216.353432 207.235069 
L 216.872948 289.212829 
L 216.916241 278.032973 
L 217.219293 234.032168 
L 217.262586 235.335895 
L 217.435758 250.650767 
L 217.565637 270.937082 
L 217.60893 270.285218 
L 217.695516 271.769583 
L 217.738809 269.582305 
L 218.041861 231.923428 
L 218.128447 229.052871 
L 218.17174 230.73358 
L 218.344912 248.455636 
L 218.561377 277.475354 
L 218.60467 281.351195 
L 218.821135 242.710595 
L 218.994308 226.512173 
L 219.037601 228.145759 
L 219.254066 246.500044 
L 219.427238 266.158057 
L 219.470531 264.748303 
L 219.730289 228.055441 
L 219.860169 219.687238 
L 219.903462 221.171602 
L 220.293099 269.425229 
L 220.639443 217.346811 
L 220.899202 235.167039 
L 221.115667 268.066525 
L 221.15896 266.86097 
L 221.245546 241.316549 
L 221.288839 244.085007 
L 221.332132 243.142553 
L 221.548597 209.394858 
L 221.678476 218.717296 
L 221.765062 231.460055 
L 222.024821 260.071377 
L 222.284579 218.37173 
L 222.414458 202.970466 
L 222.457751 203.39457 
L 222.847389 247.47784 
L 222.890682 245.168828 
L 223.193733 205.079206 
L 223.280319 195.66645 
L 223.323612 196.565708 
L 223.410198 205.295185 
L 223.453491 202.059427 
L 223.496784 202.640607 
L 223.756543 240.876737 
L 224.016301 190.808887 
L 224.189473 185.173799 
L 224.232766 183.925048 
L 224.276059 184.411983 
L 224.57911 225.05137 
L 224.665697 213.243211 
L 224.968748 169.658656 
L 225.055334 163.791882 
L 225.098627 167.871921 
L 225.358385 204.706151 
L 225.444971 214.134615 
L 225.618144 194.028937 
L 225.748023 180.960246 
L 225.834609 171.586759 
L 225.877902 172.273965 
L 226.051074 187.741986 
L 226.310832 217.72772 
L 226.354125 214.664745 
L 226.397418 216.467188 
L 226.440711 218.359949 
L 226.484004 218.187166 
L 226.830349 190.698934 
L 227.176693 251.879884 
L 227.263279 244.246009 
L 227.393158 236.129127 
L 227.523037 217.421422 
L 227.566331 218.344241 
L 227.609624 223.221439 
L 227.652917 221.344385 
L 227.69621 217.189736 
L 227.739503 218.273557 
L 228.042554 269.723673 
L 228.12914 260.145988 
L 228.475484 223.476687 
L 228.69195 242.816621 
L 228.908415 273.253947 
L 229.081587 258.83048 
L 229.341345 223.810472 
L 229.427931 223.625909 
L 229.601104 253.069732 
L 229.730983 282.48214 
L 229.774276 276.945224 
L 230.077327 232.960127 
L 230.12062 229.952129 
L 230.163913 230.922071 
L 230.207206 232.08443 
L 230.250499 230.525455 
L 230.293792 231.271564 
L 230.466965 251.125921 
L 230.553551 266.232668 
L 230.596844 265.258799 
L 230.640137 261.58323 
L 230.68343 264.583374 
L 230.726723 264.04539 
L 230.856602 254.695464 
L 231.029774 232.944419 
L 231.11636 227.525311 
L 231.159653 230.572577 
L 231.419412 259.992839 
L 231.462705 270.151704 
L 231.549291 268.353188 
L 231.635877 258.877602 
L 231.982221 224.894294 
L 232.328566 271.820633 
L 232.371859 263.947218 
L 232.588324 256.093437 
L 232.718203 226.62998 
L 232.761496 229.469121 
L 232.848082 234.091071 
L 232.891375 230.034594 
L 232.977961 231.821329 
L 233.064547 246.963417 
L 233.194426 266.205179 
L 233.237719 260.778217 
L 233.281012 264.51269 
L 233.324306 265.965639 
L 233.627357 221.387581 
L 233.713943 223.751569 
L 233.930408 246.060233 
L 234.146873 271.239453 
L 234.190166 266.044177 
L 234.536511 220.523665 
L 234.579804 226.131265 
L 234.796269 246.704243 
L 235.012734 273.552391 
L 235.315786 224.996393 
L 235.402372 225.129908 
L 235.445665 222.624552 
L 235.488958 224.70973 
L 235.835302 265.824271 
L 236.008474 257.526752 
L 236.181647 230.929924 
L 236.311526 225.883871 
L 236.354819 227.493896 
L 236.441405 232.775563 
L 236.701163 263.051887 
L 236.744456 267.383247 
L 236.787749 264.406664 
L 236.874335 258.975775 
L 237.047507 226.779202 
L 237.0908 227.702021 
L 237.177387 223.11934 
L 237.22068 225.373375 
L 237.263973 225.302691 
L 237.307266 225.711087 
L 237.567024 263.130424 
L 237.610317 265.04282 
L 237.783489 227.823754 
L 237.913368 217.570644 
L 237.956661 217.912283 
L 237.999954 216.997318 
L 238.129834 230.584358 
L 238.173127 227.674532 
L 238.21642 226.296194 
L 238.476178 253.988624 
L 238.606057 245.96206 
L 238.822522 209.815036 
L 239.038988 232.001966 
L 239.342039 259.301706 
L 239.385332 257.664193 
L 239.688383 225.75821 
L 239.731676 229.052871 
L 239.774969 234.570152 
L 239.818262 231.601423 
L 239.861555 230.234865 
L 240.121314 268.690901 
L 240.164607 271.290502 
L 240.554244 224.411287 
L 240.770709 242.125489 
L 241.030468 267.076949 
L 241.073761 268.019403 
L 241.117054 267.289001 
L 241.20364 255.743944 
L 241.420105 223.567005 
L 241.463398 225.479401 
L 241.506691 226.865593 
L 241.766449 270.104582 
L 241.896328 265.828198 
L 242.069501 249.775071 
L 243.065241 61.869446 
L 243.238413 116.461074 
L 243.584757 248.710883 
L 243.671343 258.386741 
L 243.714636 256.867035 
L 243.887809 242.5653 
L 244.060981 231.079146 
L 244.537204 281.253023 
L 244.883549 226.86952 
L 244.926842 225.942774 
L 245.143307 245.325904 
L 245.316479 264.033609 
L 245.403065 264.964282 
L 245.489651 258.237519 
L 245.749409 225.585427 
L 245.835996 227.976903 
L 246.095754 253.431006 
L 246.225633 269.342765 
L 246.268926 268.02333 
L 246.658563 215.799616 
L 246.701856 218.634831 
L 247.048201 260.951 
L 247.091494 260.079231 
L 247.351252 228.082929 
L 247.481131 216.074499 
L 247.524424 217.566717 
L 247.567717 217.782696 
L 247.957355 263.197182 
L 248.000648 259.344902 
L 248.346992 211.64104 
L 248.476871 217.107271 
L 248.563457 233.121129 
L 248.73663 248.149338 
L 248.866509 256.572518 
L 249.256146 203.936481 
L 249.689077 248.785494 
L 249.775663 244.461988 
L 250.078714 198.53308 
L 250.1653 202.243991 
L 250.554938 238.210379 
L 250.598231 236.741722 
L 250.987868 181.396131 
L 251.031161 184.156735 
L 251.290919 218.2068 
L 251.377505 228.039733 
L 251.420798 223.755496 
L 251.810436 174.139238 
L 251.983608 183.873999 
L 252.243366 214.876797 
L 252.286659 216.808827 
L 252.329952 214.21708 
L 252.676297 164.396623 
L 252.762883 168.578761 
L 253.195813 210.824246 
L 253.239106 209.053219 
L 253.585451 172.804095 
L 253.628744 177.712708 
L 253.975088 227.466407 
L 254.018381 227.945488 
L 254.14826 223.449199 
L 254.408019 199.942834 
L 254.494605 200.865653 
L 254.537898 202.522801 
L 254.797656 250.843185 
L 254.840949 252.252938 
L 255.230586 214.641184 
L 255.273879 213.808683 
L 255.403759 225.34196 
L 255.620224 256.289782 
L 255.663517 257.028037 
L 255.750103 263.130424 
L 255.793396 261.394739 
L 256.13974 215.406927 
L 256.183033 219.416282 
L 256.572671 266.951289 
L 256.875722 239.10571 
L 256.962308 230.325183 
L 257.048894 223.841888 
L 257.092187 224.097135 
L 257.481825 271.604654 
L 257.525118 268.950076 
L 257.784876 225.122054 
L 257.828169 223.625909 
L 257.871462 224.725438 
L 257.958048 231.259783 
L 258.13122 254.5109 
L 258.347686 271.372967 
L 258.434272 260.998123 
L 258.737323 224.607631 
L 258.780616 223.625909 
L 258.823909 224.619412 
L 259.040374 254.836832 
L 259.213547 267.273294 
L 259.25684 265.843906 
L 259.473305 237.684176 
L 259.559891 224.022525 
L 259.603184 226.736006 
L 259.646477 226.025239 
L 259.68977 228.691597 
L 259.906235 256.941645 
L 259.949528 258.398522 
L 260.036114 267.387173 
L 260.079407 265.792856 
L 260.512338 215.296974 
L 260.555631 218.540586 
L 260.642217 241.575724 
L 260.728803 239.549449 
L 260.945268 262.443219 
L 260.988561 263.51526 
L 261.031854 261.756013 
L 261.334906 219.01574 
L 261.378199 222.526379 
L 261.421492 227.717728 
L 261.464785 227.46248 
L 261.508078 223.77513 
L 261.767836 261.449715 
L 261.811129 263.837265 
L 261.854422 263.695897 
L 262.200767 219.000032 
L 262.24406 220.044585 
L 262.590404 267.79557 
L 262.633697 267.673836 
L 262.67699 268.510264 
L 262.763576 255.908873 
L 263.066628 215.803543 
L 263.109921 218.713369 
L 263.196507 233.757285 
L 263.2398 228.817258 
L 263.542851 266.955216 
L 263.586144 263.051887 
L 263.889195 221.356166 
L 263.932488 224.00289 
L 263.975781 224.839318 
L 264.192247 244.764359 
L 264.365419 270.151704 
L 264.538591 251.396876 
L 264.798349 222.196521 
L 264.841642 221.713513 
L 265.144694 264.39881 
L 265.187987 270.591516 
L 265.274573 268.396384 
L 265.66421 217.417495 
L 265.750796 224.163893 
L 265.794089 224.662608 
L 265.967262 256.20339 
L 266.053848 251.98591 
L 266.22702 245.801058 
L 266.270313 248.090435 
L 266.313606 245.514395 
L 266.530071 211.248351 
L 266.746536 231.734937 
L 266.919709 252.889095 
L 267.006295 258.194323 
L 267.049588 255.708602 
L 267.092881 253.509543 
L 267.309346 211.911995 
L 267.569104 225.22808 
L 267.872156 265.859613 
L 268.045328 247.6035 
L 268.261793 223.645543 
L 268.434965 234.994256 
L 268.65143 269.66477 
L 268.694723 269.122859 
L 268.78131 266.448647 
L 269.084361 226.068434 
L 269.127654 226.304048 
L 269.21424 239.078222 
L 269.257533 231.283345 
L 269.300826 233.855458 
L 269.517291 265.101723 
L 269.560584 267.760228 
L 269.603877 265.616146 
L 269.733757 250.870673 
L 269.950222 228.404934 
L 269.993515 227.018742 
L 270.080101 245.973841 
L 270.123394 236.034882 
L 270.166687 234.169609 
L 270.339859 260.66041 
L 270.426445 268.419946 
L 270.469738 264.198539 
L 271.20572 113.213536 
L 271.249013 113.578737 
L 271.378892 81.562801 
L 271.422185 82.253933 
L 271.941702 224.144258 
L 272.20146 266.672479 
L 272.244753 263.852972 
L 272.547804 228.133979 
L 273.024028 270.689688 
L 273.1972 260.452285 
L 273.413665 224.847172 
L 273.846596 276.540755 
L 273.889889 271.997343 
L 274.279526 220.272344 
L 274.366112 231.695668 
L 274.409405 225.817113 
L 274.452698 227.33682 
L 274.669164 254.5109 
L 274.799043 261.288713 
L 274.885629 257.141917 
L 275.231973 221.07343 
L 275.275266 224.379872 
L 275.664904 265.820344 
L 275.967955 217.001245 
L 276.054541 221.254067 
L 276.097834 218.2068 
L 276.141127 222.738431 
L 276.487472 259.847544 
L 276.574058 256.439003 
L 276.920402 212.135828 
L 276.963695 210.510095 
L 277.223453 245.60864 
L 277.353332 257.954783 
L 277.439919 251.231947 
L 277.74297 212.917279 
L 277.786263 213.957905 
L 277.829556 210.596487 
L 277.872849 214.935701 
L 278.219193 251.742443 
L 278.262486 248.514539 
L 278.565538 205.232355 
L 278.652124 206.473252 
L 278.73871 199.161382 
L 278.868589 222.915142 
L 279.041761 240.213093 
L 279.085054 238.226087 
L 279.388106 194.759339 
L 279.517985 184.94604 
L 279.604571 189.206716 
L 279.950915 224.968905 
L 279.994208 222.809115 
L 280.383846 170.385131 
L 280.557018 189.607259 
L 280.816776 212.033729 
L 280.989948 193.369219 
L 281.119827 173.931113 
L 281.16312 175.128814 
L 281.206413 173.734768 
L 281.249707 168.013289 
L 281.293 173.880063 
L 281.509465 197.355013 
L 281.552758 198.203221 
L 281.639344 213.129331 
L 281.682637 210.050649 
L 281.985688 181.01915 
L 282.028981 187.388566 
L 282.072274 185.731418 
L 282.115567 180.292675 
L 282.15886 182.67237 
L 282.505205 232.71666 
L 282.548498 235.296626 
L 282.591791 234.259927 
L 282.72167 227.191525 
L 282.851549 207.855517 
L 282.938135 217.511741 
L 283.024721 206.045221 
L 283.068014 209.626545 
L 283.111307 212.46176 
L 283.371066 253.144343 
L 283.414359 254.640488 
L 283.630824 238.351747 
L 283.71741 226.190168 
L 283.760703 229.449487 
L 283.803996 227.572433 
L 283.890582 217.229004 
L 284.236927 264.053244 
L 284.453392 245.428003 
L 284.539978 231.389371 
L 284.583271 232.594926 
L 284.626564 236.309764 
L 284.71315 223.425637 
L 284.756443 229.178531 
L 285.102788 272.331128 
L 285.535718 225.679672 
L 285.579011 229.708662 
L 285.968648 270.595443 
L 286.055235 265.529754 
L 286.401579 221.226579 
L 286.444872 224.701877 
L 286.791216 270.626858 
L 286.877802 274.801142 
L 286.921095 271.891317 
L 287.137561 236.898798 
L 287.180854 243.601999 
L 287.224147 238.599141 
L 287.310733 224.953198 
L 287.354026 227.686313 
L 287.743663 273.018334 
L 287.786956 271.25516 
L 288.176594 218.952909 
L 288.479645 263.260012 
L 288.522938 262.030895 
L 288.609524 268.447434 
L 288.652817 267.120145 
L 288.999162 224.207088 
L 289.085748 229.598709 
L 289.388799 263.762654 
L 289.432092 265.474778 
L 289.475385 264.925013 
L 289.648557 243.252506 
L 289.865022 223.739788 
L 289.951609 226.021312 
L 290.297953 261.701036 
L 290.341246 261.166979 
L 290.384539 260.903878 
L 290.427832 259.867179 
L 290.774176 226.150899 
L 290.860763 230.816045 
L 291.207107 268.522045 
L 291.2504 265.682903 
L 291.596744 220.786767 
L 291.640037 223.7123 
L 291.899796 257.60529 
L 291.943089 256.800277 
L 292.072968 269.531256 
L 292.116261 267.461784 
L 292.159554 266.629284 
L 292.462605 216.871657 
L 292.505898 223.441345 
L 292.765657 253.666619 
L 292.895536 268.223601 
L 292.938829 266.476135 
L 293.328466 222.860165 
L 293.761397 266.582161 
L 293.977862 252.900875 
L 294.194327 227.855169 
L 294.23762 225.93492 
L 294.67055 274.632286 
L 294.713844 267.976207 
L 295.060188 222.946557 
L 295.103481 220.641472 
L 295.493118 270.642565 
L 295.536411 270.473709 
L 295.926049 225.550085 
L 295.969342 225.87209 
L 296.2291 260.424797 
L 296.358979 274.133571 
L 296.402272 272.193687 
L 296.921789 227.780559 
L 297.181547 268.180405 
L 297.311426 265.140992 
L 297.484598 239.451276 
L 297.614478 217.766988 
L 297.657771 221.658537 
L 297.874236 240.15419 
L 298.090701 260.951 
L 298.350459 235.991686 
L 298.480338 220.299833 
L 298.999855 257.884099 
L 299.21632 229.791126 
L 299.346199 211.075567 
L 299.519372 228.986114 
L 299.865716 268.396384 
L 299.909009 265.91459 
L 300.082181 244.568014 
L 300.21206 222.055153 
L 300.255353 223.708373 
L 300.515112 256.44293 
L 300.558405 252.56709 
L 300.601698 256.969134 
L 300.731577 272.778794 
L 300.904749 253.556666 
L 301.077921 224.82361 
L 301.121214 225.907432 
L 301.294386 243.0326 
L 301.510852 269.008979 
L 301.554145 270.395171 
L 301.597438 269.539109 
L 301.987075 224.654754 
L 302.20354 248.565589 
L 302.376713 268.738024 
L 302.420006 270.658273 
L 302.679764 198.906135 
L 302.982815 138.007921 
L 303.155987 118.330274 
L 303.19928 120.313353 
L 303.242573 118.856477 
L 303.372453 86.820907 
L 303.415746 87.94007 
L 304.151727 263.036179 
L 304.19502 262.368608 
L 304.238313 261.909162 
L 304.541365 228.530595 
L 304.584658 231.79384 
L 304.844416 269.868968 
L 304.931002 268.404238 
L 305.060881 270.866398 
L 305.147467 268.372823 
L 305.234054 253.057951 
L 305.363933 221.898077 
L 305.407226 222.919068 
L 305.450519 221.878442 
L 305.840156 269.49984 
L 305.926742 267.049461 
L 306.31638 228.770135 
L 306.359673 229.626197 
L 306.706017 266.048104 
L 306.74931 265.73788 
L 306.879189 259.53732 
L 306.965775 239.125344 
L 307.095654 225.047443 
L 307.138947 225.432278 
L 307.182241 228.997894 
L 307.225534 227.568506 
L 307.268827 225.832821 
L 307.615171 270.666127 
L 307.658464 265.741806 
L 308.091394 218.159677 
L 308.264567 240.723589 
L 308.481032 263.660555 
L 308.524325 264.834695 
L 308.913962 220.280198 
L 308.957255 218.175385 
L 309.043841 219.212084 
L 309.346893 255.708602 
L 309.390186 252.292207 
L 309.779823 205.452261 
L 309.823116 210.482607 
L 310.126168 253.364248 
L 310.169461 258.759796 
L 310.212754 257.401092 
L 310.602391 200.810676 
L 310.688977 205.3266 
L 311.078615 243.118992 
L 311.468252 189.783969 
L 311.554838 196.059139 
L 311.771303 220.374444 
L 311.814596 218.049725 
L 311.857889 220.484396 
L 311.901182 221.642829 
L 311.987769 216.624263 
L 312.031062 218.823322 
L 312.074355 217.43713 
L 312.29082 176.086975 
L 312.334113 175.003154 
L 312.420699 182.542783 
L 312.72375 215.450123 
L 312.767043 215.073142 
L 312.810336 218.658392 
L 312.853629 213.950051 
L 313.156681 166.049844 
L 313.199974 165.782815 
L 313.243267 164.015715 
L 313.416439 182.13046 
L 313.632904 213.946124 
L 313.676197 214.425205 
L 313.979249 175.745336 
L 314.022542 176.083049 
L 314.109128 170.122029 
L 314.498765 235.288773 
L 314.542058 230.32911 
L 314.84511 196.01987 
L 314.888403 196.565708 
L 315.148161 219.863948 
L 315.407919 253.768718 
L 315.451212 252.724165 
L 315.494505 255.920654 
L 315.581091 233.077933 
L 315.667677 218.014382 
L 315.71097 219.738287 
L 315.970729 228.428495 
L 316.230487 270.564028 
L 316.317073 267.811278 
L 316.403659 247.524963 
L 316.620124 222.593137 
L 316.663417 220.193807 
L 316.70671 221.234432 
L 317.139641 278.586664 
L 317.182934 275.205612 
L 317.442692 227.996537 
L 317.529278 225.550085 
L 317.572571 226.590711 
L 318.005502 267.823058 
L 318.048795 267.414662 
L 318.351846 230.529382 
L 318.395139 231.13805 
L 318.481725 228.990041 
L 318.654898 251.263362 
L 318.741484 265.1567 
L 318.784777 262.792712 
L 318.82807 261.057026 
L 318.957949 268.690901 
L 319.217707 225.385155 
L 319.304293 225.817113 
L 319.564051 256.953426 
L 319.737224 269.95536 
L 319.780517 272.052319 
L 319.910396 247.76843 
L 320.170154 224.262065 
L 320.25674 230.384087 
L 320.559791 278.963646 
L 320.603085 272.861258 
L 320.646378 270.560101 
L 320.949429 223.331392 
L 320.992722 220.464762 
L 321.425652 275.319492 
L 321.512238 269.056102 
L 321.81529 219.278841 
L 321.858583 220.398005 
L 322.161634 262.639563 
L 322.204927 260.581873 
L 322.334806 269.947506 
L 322.378099 266.833482 
L 322.637858 231.035951 
L 322.767737 222.789481 
L 323.200667 275.2331 
L 323.24396 271.930585 
L 323.460426 232.127626 
L 323.547012 228.958626 
L 323.590305 231.035951 
L 323.676891 239.482691 
L 323.720184 235.818903 
L 323.763477 231.310833 
L 324.023235 272.162272 
L 324.066528 273.253947 
L 324.412873 223.087925 
L 324.456166 224.187454 
L 324.499459 224.674388 
L 324.629338 238.05723 
L 324.932389 271.235526 
L 324.975682 268.910807 
L 325.278733 224.682242 
L 325.322026 223.641616 
L 325.79825 278.889035 
L 325.971422 245.176682 
L 326.144594 229.355242 
L 326.187887 224.627266 
L 326.23118 225.876017 
L 326.577525 265.427655 
L 326.664111 274.125717 
L 326.967162 223.457052 
L 327.097041 228.020099 
L 327.529972 279.320993 
L 327.746437 234.805765 
L 327.919609 227.619556 
L 328.092781 245.098144 
L 328.395833 272.319348 
L 328.742177 221.383654 
L 329.218401 277.121934 
L 329.261694 274.883607 
L 329.564745 225.145615 
L 329.608038 225.974189 
L 329.694624 225.962408 
L 330.040968 267.724886 
L 330.084261 273.599514 
L 330.34402 233.72587 
L 330.387313 233.37245 
L 330.473899 227.831608 
L 330.517192 227.894438 
L 330.690364 243.331044 
L 330.950122 270.858544 
L 331.209881 240.052091 
L 331.33976 230.250572 
L 331.383053 230.674677 
L 331.469639 233.816189 
L 331.815983 274.361331 
L 331.859276 268.879392 
L 332.205621 222.89158 
L 332.292207 233.580575 
L 332.681844 271.816706 
L 332.725137 262.941934 
L 333.114775 223.351026 
L 333.547705 277.934801 
L 333.894049 226.9834 
L 333.937342 226.798836 
L 333.980635 224.548728 
L 334.023929 226.229437 
L 334.370273 271.639996 
L 334.673324 234.283489 
L 334.75991 230.372306 
L 334.803203 225.102419 
L 334.889789 226.512173 
L 335.236134 270.603297 
L 335.279427 259.223169 
L 335.625771 217.90443 
L 335.712357 221.195164 
L 335.75565 218.646612 
L 336.101995 259.859325 
L 336.578218 213.753707 
L 336.967856 269.668697 
L 337.054442 263.974706 
L 337.270907 231.409005 
L 337.3142 231.95877 
L 337.357493 231.954843 
L 337.444079 224.332749 
L 337.487372 224.654754 
L 337.833716 272.311494 
L 337.87701 270.167412 
L 337.920303 270.069239 
L 338.050182 258.213958 
L 338.223354 223.830107 
L 338.266647 224.050013 
L 338.656284 274.00791 
L 338.699577 269.943579 
L 338.959336 243.327117 
L 339.132508 227.262209 
L 339.348973 242.592788 
L 339.522145 269.951433 
L 339.652024 264.375249 
L 339.825197 237.790202 
L 340.128248 169.811805 
L 340.171541 170.746405 
L 340.214834 169.458385 
L 340.30142 160.862422 
L 340.388006 147.385335 
L 340.691057 75.648904 
L 340.734351 68.992825 
L 340.777644 72.24429 
L 340.950816 125.261235 
L 341.253867 247.340399 
L 341.340453 254.098577 
L 341.383746 253.890452 
L 341.686798 231.676034 
L 341.85997 236.989116 
L 342.033142 269.472352 
L 342.119728 284.296363 
L 342.163021 276.466144 
L 342.379486 256.564664 
L 342.595951 228.012245 
L 342.639245 222.169032 
L 342.682538 222.565648 
L 342.985589 275.531544 
L 343.072175 272.507838 
L 343.115468 271.266941 
L 343.418519 232.736294 
L 343.461812 235.445848 
L 343.505105 232.704879 
L 343.548398 224.47019 
L 343.591691 226.209802 
L 343.764864 258.386741 
L 343.808157 266.586088 
L 343.894743 262.682759 
L 343.981329 265.706464 
L 344.154501 242.796987 
L 344.370966 218.72515 
L 344.457552 229.916787 
L 344.84719 267.66991 
L 345.193534 219.400575 
L 345.28012 224.430921 
L 345.539879 262.525683 
L 345.583172 257.208674 
L 345.626465 260.043889 
L 345.669758 260.856755 
L 345.756344 255.924581 
L 345.972809 217.327177 
L 346.016102 219.322037 
L 346.145981 231.609276 
L 346.189274 224.772561 
L 346.232567 226.256925 
L 346.362446 251.023822 
L 346.405739 250.603645 
L 346.449032 250.670402 
L 346.535619 259.282072 
L 346.578912 258.033321 
L 346.925256 210.152748 
L 346.968549 209.536226 
L 347.2716 255.728236 
L 347.314893 251.585367 
L 347.617945 220.021023 
L 347.791117 203.304252 
L 347.83441 201.812033 
L 347.920996 211.091275 
L 348.050875 235.249504 
L 348.094168 249.566946 
L 348.137461 243.071869 
L 348.180754 239.384519 
L 348.224047 241.186962 
L 348.26734 241.768142 
L 348.39722 229.096067 
L 348.613685 196.125896 
L 348.656978 196.479316 
L 348.786857 205.746777 
L 348.83015 203.39457 
L 348.873443 206.2612 
L 348.960029 233.749432 
L 349.003322 229.775419 
L 349.046615 229.704735 
L 349.089908 233.686601 
L 349.133201 227.996537 
L 349.522839 180.363359 
L 349.566132 180.253406 
L 349.955769 218.909713 
L 349.999062 215.776055 
L 350.25882 181.455034 
L 350.431993 166.74883 
L 350.475286 171.378634 
L 350.691751 208.511308 
L 350.778337 204.121045 
L 350.864923 211.106983 
L 350.908216 208.381721 
L 351.25456 169.913904 
L 351.297854 170.286959 
L 351.730784 219.365233 
L 351.774077 219.31811 
L 351.990542 190.859936 
L 352.120421 196.974105 
L 352.207007 193.007945 
L 352.293594 207.046578 
L 352.38018 237.12263 
L 352.466766 232.826612 
L 352.596645 249.680825 
L 352.639938 243.279994 
L 352.856403 213.816537 
L 352.942989 213.859733 
L 353.116161 221.898077 
L 353.419213 268.832269 
L 353.635678 240.417291 
L 353.80885 221.78027 
L 353.982022 227.662752 
L 354.285074 264.445933 
L 354.414953 260.687899 
L 354.674711 224.324895 
L 354.761297 226.681029 
L 355.150935 271.537896 
L 355.324107 257.986198 
L 355.540572 221.505388 
L 355.670451 227.415358 
L 356.060088 274.616578 
L 356.406433 220.712156 
L 356.449726 223.853668 
L 356.579605 237.939424 
L 356.882656 271.859901 
L 356.925949 271.592873 
L 357.272294 229.661539 
L 357.315587 228.97826 
L 357.661931 265.423728 
L 357.79181 272.044465 
L 357.835103 268.046891 
L 358.224741 223.374588 
L 358.657671 274.46343 
L 358.78755 254.506973 
L 359.004016 225.75821 
L 359.393653 265.537608 
L 359.480239 269.920018 
L 359.523532 267.057315 
L 359.696704 248.090435 
L 359.826583 227.969049 
L 359.869876 231.098781 
L 359.91317 233.721943 
L 359.956463 230.73358 
L 360.043049 231.805621 
L 360.259514 263.472064 
L 360.3461 271.789217 
L 360.389393 269.19747 
L 360.605858 242.247222 
L 360.822323 226.81847 
L 360.865617 232.944419 
L 361.211961 273.328558 
L 361.255254 272.621718 
L 361.515012 228.479545 
L 361.558305 228.856526 
L 361.601598 228.632694 
L 361.77477 233.835823 
L 361.991236 271.074523 
L 362.034529 269.389887 
L 362.077822 268.639851 
L 362.121115 268.738024 
L 362.467459 226.256925 
L 362.554045 226.928423 
L 362.943683 271.592873 
L 362.986976 269.90431 
L 363.33332 229.626197 
L 363.376613 229.885372 
L 363.766251 267.402881 
L 363.809544 266.998411 
L 363.852837 268.027257 
L 363.939423 256.387954 
L 364.199181 230.725726 
L 364.242474 226.873447 
L 364.285767 228.836892 
L 364.372353 242.392517 
L 364.588818 273.697686 
L 364.632111 271.683191 
L 364.848577 251.145555 
L 365.021749 230.706092 
L 365.065042 231.471835 
L 365.238214 250.603645 
L 365.281507 247.332545 
L 365.3248 242.090147 
L 365.368093 250.238444 
L 365.541265 269.916091 
L 365.627851 265.258799 
L 365.671145 262.710247 
L 365.88761 228.534521 
L 365.930903 229.751857 
L 366.190661 248.00797 
L 366.363833 273.246094 
L 366.407126 276.611439 
L 366.796764 225.585427 
L 366.840057 227.635264 
L 366.926643 237.915862 
L 367.229694 273.583806 
L 367.446159 251.361534 
L 367.532745 227.505676 
L 367.619332 229.920714 
L 367.749211 233.659113 
L 368.008969 264.418444 
L 368.138848 272.032685 
L 368.182141 270.780007 
L 368.398606 237.150119 
L 368.485192 237.684176 
L 368.528485 237.546735 
L 368.615072 233.937922 
L 368.701658 247.116566 
L 368.744951 242.90694 
L 368.788244 244.929288 
L 369.004709 272.519619 
L 369.048002 271.663557 
L 369.437639 224.82361 
L 369.480932 226.476831 
L 369.740691 265.427655 
L 369.87057 269.295642 
L 369.913863 268.965783 
L 370.216914 232.834466 
L 370.3035 233.093641 
L 370.346793 231.950916 
L 370.693138 271.569312 
L 371.082775 223.339246 
L 371.126068 224.764707 
L 371.602292 267.222244 
L 371.645585 266.919874 
L 371.732171 261.940577 
L 371.948636 225.895651 
L 372.035222 228.797623 
L 372.208394 236.140908 
L 372.381567 264.673692 
L 372.42486 262.796639 
L 372.468153 264.496982 
L 372.85779 219.180669 
L 372.901083 221.132333 
L 373.160841 249.272429 
L 373.29072 257.083013 
L 373.4206 250.8746 
L 373.507186 243.719806 
L 373.680358 215.053507 
L 373.766944 215.799616 
L 373.940116 236.345106 
L 374.199874 263.032252 
L 374.243167 265.195969 
L 374.28646 263.99434 
L 374.502926 232.579218 
L 374.632805 233.678748 
L 374.676098 234.028241 
L 375.022442 272.869112 
L 375.065735 269.162128 
L 375.41208 235.151331 
L 375.455373 232.704879 
L 375.888303 268.690901 
L 376.104768 260.852828 
L 376.277941 230.156327 
L 376.321234 230.674677 
L 376.40782 237.57815 
L 376.451113 228.047587 
L 376.494406 235.386945 
L 376.667578 262.187971 
L 376.754164 268.95793 
L 376.797457 267.677763 
L 376.927336 255.198106 
L 377.879783 79.363742 
L 378.009662 104.700038 
L 378.226128 200.217716 
L 378.442593 252.398233 
L 378.572472 263.016545 
L 378.702351 250.63506 
L 378.875523 230.219157 
L 378.918816 231.271564 
L 379.178575 273.81942 
L 379.39504 282.340771 
L 379.568212 261.736378 
L 379.784677 226.759567 
L 379.914556 233.871165 
L 380.217608 271.746022 
L 380.434073 256.863108 
L 380.607245 230.501893 
L 380.693831 242.08622 
L 380.737124 236.674965 
L 380.780417 236.042736 
L 381.083469 269.60194 
L 381.126762 269.649062 
L 381.299934 249.936073 
L 381.473106 227.945488 
L 381.559692 236.313691 
L 381.602985 230.686457 
L 381.646278 232.924785 
L 381.81945 271.738168 
L 381.992623 271.643922 
L 382.035916 270.033897 
L 382.252381 234.526956 
L 382.338967 232.795197 
L 382.38226 235.445848 
L 382.468846 224.752926 
L 382.512139 231.436493 
L 382.771897 260.094938 
L 382.81519 258.66555 
L 382.858483 256.446857 
L 382.901776 258.979701 
L 382.94507 258.622354 
L 383.204828 219.84824 
L 383.334707 226.005604 
L 383.378 226.406147 
L 383.681051 264.379176 
L 383.724344 262.670978 
L 384.027396 219.164961 
L 384.113982 228.338177 
L 384.157275 221.242286 
L 384.200568 220.551154 
L 384.460326 250.297347 
L 384.590205 258.857968 
L 384.849964 218.693735 
L 384.893257 219.20423 
L 384.93655 223.464906 
L 384.979843 220.920281 
L 385.023136 206.716719 
L 385.066429 209.025731 
L 385.36948 243.252506 
L 385.456066 248.76586 
L 385.802411 205.954903 
L 385.888997 193.219998 
L 385.975583 198.411346 
L 386.321927 239.038953 
L 386.754857 182.059775 
L 387.144495 220.056365 
L 387.620718 172.914048 
L 387.967063 216.105914 
L 388.053649 208.903997 
L 388.183528 191.794536 
L 388.3567 175.317305 
L 388.443286 175.670725 
L 388.486579 169.301309 
L 388.529872 174.253118 
L 388.789631 212.689519 
L 388.91951 227.446773 
L 388.962803 226.28834 
L 389.309147 191.971246 
L 389.568905 226.190168 
L 389.785371 254.585511 
L 390.045129 219.475186 
L 390.131715 225.00032 
L 390.218301 217.166174 
L 390.651232 266.181618 
L 390.694525 262.926226 
L 390.824404 248.329975 
L 390.997576 231.648545 
L 391.040869 224.929636 
L 391.084162 224.933563 
L 391.473799 270.713249 
L 391.90673 225.310545 
L 391.950023 229.645831 
L 392.296367 275.076025 
L 392.33966 276.485778 
L 392.382953 274.891461 
L 392.772591 226.571076 
L 392.815884 229.402364 
L 393.162228 275.437298 
L 393.292107 257.145844 
L 393.3354 259.321341 
L 393.378693 258.528109 
L 393.638452 227.670606 
L 393.725038 235.818903 
L 394.028089 271.24338 
L 394.071382 272.916235 
L 394.114675 272.492131 
L 394.46102 222.408573 
L 394.504313 226.441489 
L 394.937243 273.344266 
L 394.980536 271.514335 
L 395.110415 257.746658 
L 395.32688 229.614416 
L 395.413467 233.666967 
L 395.803104 270.285218 
L 395.846397 268.380677 
L 396.019569 248.887594 
L 396.236034 221.748855 
L 396.582379 270.450148 
L 396.668965 267.705252 
L 396.842137 256.226951 
L 397.058602 223.853668 
L 397.101895 228.770135 
L 397.318361 254.412728 
L 397.491533 265.63578 
L 397.534826 266.86097 
L 397.578119 265.180261 
L 397.924463 224.890367 
L 397.967756 226.897008 
L 398.097635 239.235297 
L 398.270808 269.798284 
L 398.357394 267.226171 
L 398.400687 266.161984 
L 398.44398 268.039037 
L 398.487273 264.744376 
L 398.487273 264.744376 
" style="fill:none;stroke:#1f77b4;stroke-linecap:square;stroke-width:1.5;"/>
   </g>
   <g id="patch_3">
    <path d="M 57.6 307.584 
L 57.6 41.472 
" style="fill:none;stroke:#000000;stroke-linecap:square;stroke-linejoin:miter;stroke-width:0.8;"/>
   </g>
   <g id="patch_4">
    <path d="M 414.72 307.584 
L 414.72 41.472 
" style="fill:none;stroke:#000000;stroke-linecap:square;stroke-linejoin:miter;stroke-width:0.8;"/>
   </g>
   <g id="patch_5">
    <path d="M 57.6 307.584 
L 414.72 307.584 
" style="fill:none;stroke:#000000;stroke-linecap:square;stroke-linejoin:miter;stroke-width:0.8;"/>
   </g>
   <g id="patch_6">
    <path d="M 57.6 41.472 
L 414.72 41.472 
" style="fill:none;stroke:#000000;stroke-linecap:square;stroke-linejoin:miter;stroke-width:0.8;"/>
   </g>
  </g>
 </g>
 <defs>
  <clipPath id="p9716b23cda">
   <rect height="266.112" width="357.12" x="57.6" y="41.472"/>
  </clipPath>
 </defs>
</svg>
