<?xml version="1.0" encoding="utf-8" standalone="no"?>
<!DOCTYPE svg PUBLIC "-//W3C//DTD SVG 1.1//EN"
  "http://www.w3.org/Graphics/SVG/1.1/DTD/svg11.dtd">
<!-- Created with matplotlib (http://matplotlib.org/) -->
<svg height="345.6pt" version="1.1" viewBox="0 0 460.8 345.6" width="460.8pt" xmlns="http://www.w3.org/2000/svg" xmlns:xlink="http://www.w3.org/1999/xlink">
 <defs>
  <style type="text/css">
*{stroke-linecap:butt;stroke-linejoin:round;}
  </style>
 </defs>
 <g id="figure_1">
  <g id="patch_1">
   <path d="M 0 345.6 
L 460.8 345.6 
L 460.8 0 
L 0 0 
z
" style="fill:#ffffff;"/>
  </g>
  <g id="axes_1">
   <g id="patch_2">
    <path d="M 57.6 307.584 
L 414.72 307.584 
L 414.72 41.472 
L 57.6 41.472 
z
" style="fill:#ffffff;"/>
   </g>
   <g id="matplotlib.axis_1">
    <g id="xtick_1">
     <g id="line2d_1">
      <defs>
       <path d="M 0 0 
L 0 3.5 
" id="mef68d3fdc7" style="stroke:#000000;stroke-width:0.8;"/>
      </defs>
      <g>
       <use style="stroke:#000000;stroke-width:0.8;" x="73.832727" xlink:href="#mef68d3fdc7" y="307.584"/>
      </g>
     </g>
     <g id="text_1">
      <!-- 0 -->
      <defs>
       <path d="M 31.78125 66.40625 
Q 24.171875 66.40625 20.328125 58.90625 
Q 16.5 51.421875 16.5 36.375 
Q 16.5 21.390625 20.328125 13.890625 
Q 24.171875 6.390625 31.78125 6.390625 
Q 39.453125 6.390625 43.28125 13.890625 
Q 47.125 21.390625 47.125 36.375 
Q 47.125 51.421875 43.28125 58.90625 
Q 39.453125 66.40625 31.78125 66.40625 
z
M 31.78125 74.21875 
Q 44.046875 74.21875 50.515625 64.515625 
Q 56.984375 54.828125 56.984375 36.375 
Q 56.984375 17.96875 50.515625 8.265625 
Q 44.046875 -1.421875 31.78125 -1.421875 
Q 19.53125 -1.421875 13.0625 8.265625 
Q 6.59375 17.96875 6.59375 36.375 
Q 6.59375 54.828125 13.0625 64.515625 
Q 19.53125 74.21875 31.78125 74.21875 
z
" id="DejaVuSans-30"/>
      </defs>
      <g transform="translate(70.651477 322.182437)scale(0.1 -0.1)">
       <use xlink:href="#DejaVuSans-30"/>
      </g>
     </g>
    </g>
    <g id="xtick_2">
     <g id="line2d_2">
      <g>
       <use style="stroke:#000000;stroke-width:0.8;" x="117.125772" xlink:href="#mef68d3fdc7" y="307.584"/>
      </g>
     </g>
     <g id="text_2">
      <!-- 2 -->
      <defs>
       <path d="M 19.1875 8.296875 
L 53.609375 8.296875 
L 53.609375 0 
L 7.328125 0 
L 7.328125 8.296875 
Q 12.9375 14.109375 22.625 23.890625 
Q 32.328125 33.6875 34.8125 36.53125 
Q 39.546875 41.84375 41.421875 45.53125 
Q 43.3125 49.21875 43.3125 52.78125 
Q 43.3125 58.59375 39.234375 62.25 
Q 35.15625 65.921875 28.609375 65.921875 
Q 23.96875 65.921875 18.8125 64.3125 
Q 13.671875 62.703125 7.8125 59.421875 
L 7.8125 69.390625 
Q 13.765625 71.78125 18.9375 73 
Q 24.125 74.21875 28.421875 74.21875 
Q 39.75 74.21875 46.484375 68.546875 
Q 53.21875 62.890625 53.21875 53.421875 
Q 53.21875 48.921875 51.53125 44.890625 
Q 49.859375 40.875 45.40625 35.40625 
Q 44.1875 33.984375 37.640625 27.21875 
Q 31.109375 20.453125 19.1875 8.296875 
z
" id="DejaVuSans-32"/>
      </defs>
      <g transform="translate(113.944522 322.182437)scale(0.1 -0.1)">
       <use xlink:href="#DejaVuSans-32"/>
      </g>
     </g>
    </g>
    <g id="xtick_3">
     <g id="line2d_3">
      <g>
       <use style="stroke:#000000;stroke-width:0.8;" x="160.418818" xlink:href="#mef68d3fdc7" y="307.584"/>
      </g>
     </g>
     <g id="text_3">
      <!-- 4 -->
      <defs>
       <path d="M 37.796875 64.3125 
L 12.890625 25.390625 
L 37.796875 25.390625 
z
M 35.203125 72.90625 
L 47.609375 72.90625 
L 47.609375 25.390625 
L 58.015625 25.390625 
L 58.015625 17.1875 
L 47.609375 17.1875 
L 47.609375 0 
L 37.796875 0 
L 37.796875 17.1875 
L 4.890625 17.1875 
L 4.890625 26.703125 
z
" id="DejaVuSans-34"/>
      </defs>
      <g transform="translate(157.237568 322.182437)scale(0.1 -0.1)">
       <use xlink:href="#DejaVuSans-34"/>
      </g>
     </g>
    </g>
    <g id="xtick_4">
     <g id="line2d_4">
      <g>
       <use style="stroke:#000000;stroke-width:0.8;" x="203.711863" xlink:href="#mef68d3fdc7" y="307.584"/>
      </g>
     </g>
     <g id="text_4">
      <!-- 6 -->
      <defs>
       <path d="M 33.015625 40.375 
Q 26.375 40.375 22.484375 35.828125 
Q 18.609375 31.296875 18.609375 23.390625 
Q 18.609375 15.53125 22.484375 10.953125 
Q 26.375 6.390625 33.015625 6.390625 
Q 39.65625 6.390625 43.53125 10.953125 
Q 47.40625 15.53125 47.40625 23.390625 
Q 47.40625 31.296875 43.53125 35.828125 
Q 39.65625 40.375 33.015625 40.375 
z
M 52.59375 71.296875 
L 52.59375 62.3125 
Q 48.875 64.0625 45.09375 64.984375 
Q 41.3125 65.921875 37.59375 65.921875 
Q 27.828125 65.921875 22.671875 59.328125 
Q 17.53125 52.734375 16.796875 39.40625 
Q 19.671875 43.65625 24.015625 45.921875 
Q 28.375 48.1875 33.59375 48.1875 
Q 44.578125 48.1875 50.953125 41.515625 
Q 57.328125 34.859375 57.328125 23.390625 
Q 57.328125 12.15625 50.6875 5.359375 
Q 44.046875 -1.421875 33.015625 -1.421875 
Q 20.359375 -1.421875 13.671875 8.265625 
Q 6.984375 17.96875 6.984375 36.375 
Q 6.984375 53.65625 15.1875 63.9375 
Q 23.390625 74.21875 37.203125 74.21875 
Q 40.921875 74.21875 44.703125 73.484375 
Q 48.484375 72.75 52.59375 71.296875 
z
" id="DejaVuSans-36"/>
      </defs>
      <g transform="translate(200.530613 322.182437)scale(0.1 -0.1)">
       <use xlink:href="#DejaVuSans-36"/>
      </g>
     </g>
    </g>
    <g id="xtick_5">
     <g id="line2d_5">
      <g>
       <use style="stroke:#000000;stroke-width:0.8;" x="247.004908" xlink:href="#mef68d3fdc7" y="307.584"/>
      </g>
     </g>
     <g id="text_5">
      <!-- 8 -->
      <defs>
       <path d="M 31.78125 34.625 
Q 24.75 34.625 20.71875 30.859375 
Q 16.703125 27.09375 16.703125 20.515625 
Q 16.703125 13.921875 20.71875 10.15625 
Q 24.75 6.390625 31.78125 6.390625 
Q 38.8125 6.390625 42.859375 10.171875 
Q 46.921875 13.96875 46.921875 20.515625 
Q 46.921875 27.09375 42.890625 30.859375 
Q 38.875 34.625 31.78125 34.625 
z
M 21.921875 38.8125 
Q 15.578125 40.375 12.03125 44.71875 
Q 8.5 49.078125 8.5 55.328125 
Q 8.5 64.0625 14.71875 69.140625 
Q 20.953125 74.21875 31.78125 74.21875 
Q 42.671875 74.21875 48.875 69.140625 
Q 55.078125 64.0625 55.078125 55.328125 
Q 55.078125 49.078125 51.53125 44.71875 
Q 48 40.375 41.703125 38.8125 
Q 48.828125 37.15625 52.796875 32.3125 
Q 56.78125 27.484375 56.78125 20.515625 
Q 56.78125 9.90625 50.3125 4.234375 
Q 43.84375 -1.421875 31.78125 -1.421875 
Q 19.734375 -1.421875 13.25 4.234375 
Q 6.78125 9.90625 6.78125 20.515625 
Q 6.78125 27.484375 10.78125 32.3125 
Q 14.796875 37.15625 21.921875 38.8125 
z
M 18.3125 54.390625 
Q 18.3125 48.734375 21.84375 45.5625 
Q 25.390625 42.390625 31.78125 42.390625 
Q 38.140625 42.390625 41.71875 45.5625 
Q 45.3125 48.734375 45.3125 54.390625 
Q 45.3125 60.0625 41.71875 63.234375 
Q 38.140625 66.40625 31.78125 66.40625 
Q 25.390625 66.40625 21.84375 63.234375 
Q 18.3125 60.0625 18.3125 54.390625 
z
" id="DejaVuSans-38"/>
      </defs>
      <g transform="translate(243.823658 322.182437)scale(0.1 -0.1)">
       <use xlink:href="#DejaVuSans-38"/>
      </g>
     </g>
    </g>
    <g id="xtick_6">
     <g id="line2d_6">
      <g>
       <use style="stroke:#000000;stroke-width:0.8;" x="290.297953" xlink:href="#mef68d3fdc7" y="307.584"/>
      </g>
     </g>
     <g id="text_6">
      <!-- 10 -->
      <defs>
       <path d="M 12.40625 8.296875 
L 28.515625 8.296875 
L 28.515625 63.921875 
L 10.984375 60.40625 
L 10.984375 69.390625 
L 28.421875 72.90625 
L 38.28125 72.90625 
L 38.28125 8.296875 
L 54.390625 8.296875 
L 54.390625 0 
L 12.40625 0 
z
" id="DejaVuSans-31"/>
      </defs>
      <g transform="translate(283.935453 322.182437)scale(0.1 -0.1)">
       <use xlink:href="#DejaVuSans-31"/>
       <use x="63.623047" xlink:href="#DejaVuSans-30"/>
      </g>
     </g>
    </g>
    <g id="xtick_7">
     <g id="line2d_7">
      <g>
       <use style="stroke:#000000;stroke-width:0.8;" x="333.590998" xlink:href="#mef68d3fdc7" y="307.584"/>
      </g>
     </g>
     <g id="text_7">
      <!-- 12 -->
      <g transform="translate(327.228498 322.182437)scale(0.1 -0.1)">
       <use xlink:href="#DejaVuSans-31"/>
       <use x="63.623047" xlink:href="#DejaVuSans-32"/>
      </g>
     </g>
    </g>
    <g id="xtick_8">
     <g id="line2d_8">
      <g>
       <use style="stroke:#000000;stroke-width:0.8;" x="376.884043" xlink:href="#mef68d3fdc7" y="307.584"/>
      </g>
     </g>
     <g id="text_8">
      <!-- 14 -->
      <g transform="translate(370.521543 322.182437)scale(0.1 -0.1)">
       <use xlink:href="#DejaVuSans-31"/>
       <use x="63.623047" xlink:href="#DejaVuSans-34"/>
      </g>
     </g>
    </g>
   </g>
   <g id="matplotlib.axis_2">
    <g id="ytick_1">
     <g id="line2d_9">
      <defs>
       <path d="M 0 0 
L -3.5 0 
" id="ma54004e834" style="stroke:#000000;stroke-width:0.8;"/>
      </defs>
      <g>
       <use style="stroke:#000000;stroke-width:0.8;" x="57.6" xlink:href="#ma54004e834" y="284.740982"/>
      </g>
     </g>
     <g id="text_9">
      <!-- −10000 -->
      <defs>
       <path d="M 10.59375 35.5 
L 73.1875 35.5 
L 73.1875 27.203125 
L 10.59375 27.203125 
z
" id="DejaVuSans-2212"/>
      </defs>
      <g transform="translate(10.407812 288.5402)scale(0.1 -0.1)">
       <use xlink:href="#DejaVuSans-2212"/>
       <use x="83.789062" xlink:href="#DejaVuSans-31"/>
       <use x="147.412109" xlink:href="#DejaVuSans-30"/>
       <use x="211.035156" xlink:href="#DejaVuSans-30"/>
       <use x="274.658203" xlink:href="#DejaVuSans-30"/>
       <use x="338.28125" xlink:href="#DejaVuSans-30"/>
      </g>
     </g>
    </g>
    <g id="ytick_2">
     <g id="line2d_10">
      <g>
       <use style="stroke:#000000;stroke-width:0.8;" x="57.6" xlink:href="#ma54004e834" y="245.106006"/>
      </g>
     </g>
     <g id="text_10">
      <!-- 0 -->
      <g transform="translate(44.2375 248.905225)scale(0.1 -0.1)">
       <use xlink:href="#DejaVuSans-30"/>
      </g>
     </g>
    </g>
    <g id="ytick_3">
     <g id="line2d_11">
      <g>
       <use style="stroke:#000000;stroke-width:0.8;" x="57.6" xlink:href="#ma54004e834" y="205.471031"/>
      </g>
     </g>
     <g id="text_11">
      <!-- 10000 -->
      <g transform="translate(18.7875 209.270249)scale(0.1 -0.1)">
       <use xlink:href="#DejaVuSans-31"/>
       <use x="63.623047" xlink:href="#DejaVuSans-30"/>
       <use x="127.246094" xlink:href="#DejaVuSans-30"/>
       <use x="190.869141" xlink:href="#DejaVuSans-30"/>
       <use x="254.492188" xlink:href="#DejaVuSans-30"/>
      </g>
     </g>
    </g>
    <g id="ytick_4">
     <g id="line2d_12">
      <g>
       <use style="stroke:#000000;stroke-width:0.8;" x="57.6" xlink:href="#ma54004e834" y="165.836055"/>
      </g>
     </g>
     <g id="text_12">
      <!-- 20000 -->
      <g transform="translate(18.7875 169.635274)scale(0.1 -0.1)">
       <use xlink:href="#DejaVuSans-32"/>
       <use x="63.623047" xlink:href="#DejaVuSans-30"/>
       <use x="127.246094" xlink:href="#DejaVuSans-30"/>
       <use x="190.869141" xlink:href="#DejaVuSans-30"/>
       <use x="254.492188" xlink:href="#DejaVuSans-30"/>
      </g>
     </g>
    </g>
    <g id="ytick_5">
     <g id="line2d_13">
      <g>
       <use style="stroke:#000000;stroke-width:0.8;" x="57.6" xlink:href="#ma54004e834" y="126.20108"/>
      </g>
     </g>
     <g id="text_13">
      <!-- 30000 -->
      <defs>
       <path d="M 40.578125 39.3125 
Q 47.65625 37.796875 51.625 33 
Q 55.609375 28.21875 55.609375 21.1875 
Q 55.609375 10.40625 48.1875 4.484375 
Q 40.765625 -1.421875 27.09375 -1.421875 
Q 22.515625 -1.421875 17.65625 -0.515625 
Q 12.796875 0.390625 7.625 2.203125 
L 7.625 11.71875 
Q 11.71875 9.328125 16.59375 8.109375 
Q 21.484375 6.890625 26.8125 6.890625 
Q 36.078125 6.890625 40.9375 10.546875 
Q 45.796875 14.203125 45.796875 21.1875 
Q 45.796875 27.640625 41.28125 31.265625 
Q 36.765625 34.90625 28.71875 34.90625 
L 20.21875 34.90625 
L 20.21875 43.015625 
L 29.109375 43.015625 
Q 36.375 43.015625 40.234375 45.921875 
Q 44.09375 48.828125 44.09375 54.296875 
Q 44.09375 59.90625 40.109375 62.90625 
Q 36.140625 65.921875 28.71875 65.921875 
Q 24.65625 65.921875 20.015625 65.03125 
Q 15.375 64.15625 9.8125 62.3125 
L 9.8125 71.09375 
Q 15.4375 72.65625 20.34375 73.4375 
Q 25.25 74.21875 29.59375 74.21875 
Q 40.828125 74.21875 47.359375 69.109375 
Q 53.90625 64.015625 53.90625 55.328125 
Q 53.90625 49.265625 50.4375 45.09375 
Q 46.96875 40.921875 40.578125 39.3125 
z
" id="DejaVuSans-33"/>
      </defs>
      <g transform="translate(18.7875 130.000298)scale(0.1 -0.1)">
       <use xlink:href="#DejaVuSans-33"/>
       <use x="63.623047" xlink:href="#DejaVuSans-30"/>
       <use x="127.246094" xlink:href="#DejaVuSans-30"/>
       <use x="190.869141" xlink:href="#DejaVuSans-30"/>
       <use x="254.492188" xlink:href="#DejaVuSans-30"/>
      </g>
     </g>
    </g>
    <g id="ytick_6">
     <g id="line2d_14">
      <g>
       <use style="stroke:#000000;stroke-width:0.8;" x="57.6" xlink:href="#ma54004e834" y="86.566104"/>
      </g>
     </g>
     <g id="text_14">
      <!-- 40000 -->
      <g transform="translate(18.7875 90.365323)scale(0.1 -0.1)">
       <use xlink:href="#DejaVuSans-34"/>
       <use x="63.623047" xlink:href="#DejaVuSans-30"/>
       <use x="127.246094" xlink:href="#DejaVuSans-30"/>
       <use x="190.869141" xlink:href="#DejaVuSans-30"/>
       <use x="254.492188" xlink:href="#DejaVuSans-30"/>
      </g>
     </g>
    </g>
    <g id="ytick_7">
     <g id="line2d_15">
      <g>
       <use style="stroke:#000000;stroke-width:0.8;" x="57.6" xlink:href="#ma54004e834" y="46.931129"/>
      </g>
     </g>
     <g id="text_15">
      <!-- 50000 -->
      <defs>
       <path d="M 10.796875 72.90625 
L 49.515625 72.90625 
L 49.515625 64.59375 
L 19.828125 64.59375 
L 19.828125 46.734375 
Q 21.96875 47.46875 24.109375 47.828125 
Q 26.265625 48.1875 28.421875 48.1875 
Q 40.625 48.1875 47.75 41.5 
Q 54.890625 34.8125 54.890625 23.390625 
Q 54.890625 11.625 47.5625 5.09375 
Q 40.234375 -1.421875 26.90625 -1.421875 
Q 22.3125 -1.421875 17.546875 -0.640625 
Q 12.796875 0.140625 7.71875 1.703125 
L 7.71875 11.625 
Q 12.109375 9.234375 16.796875 8.0625 
Q 21.484375 6.890625 26.703125 6.890625 
Q 35.15625 6.890625 40.078125 11.328125 
Q 45.015625 15.765625 45.015625 23.390625 
Q 45.015625 31 40.078125 35.4375 
Q 35.15625 39.890625 26.703125 39.890625 
Q 22.75 39.890625 18.8125 39.015625 
Q 14.890625 38.140625 10.796875 36.28125 
z
" id="DejaVuSans-35"/>
      </defs>
      <g transform="translate(18.7875 50.730347)scale(0.1 -0.1)">
       <use xlink:href="#DejaVuSans-35"/>
       <use x="63.623047" xlink:href="#DejaVuSans-30"/>
       <use x="127.246094" xlink:href="#DejaVuSans-30"/>
       <use x="190.869141" xlink:href="#DejaVuSans-30"/>
       <use x="254.492188" xlink:href="#DejaVuSans-30"/>
      </g>
     </g>
    </g>
   </g>
   <g id="line2d_16">
    <path clip-path="url(#pcd6f506fb1)" d="M 73.832727 268.68683 
L 73.962606 282.440166 
L 74.092486 260.688492 
L 74.135779 261.611986 
L 74.179072 259.967135 
L 74.43883 235.904741 
L 74.525416 242.920132 
L 74.785174 274.89763 
L 74.828467 271.615854 
L 74.958346 255.849061 
L 75.218105 230.359808 
L 75.304691 235.07637 
L 75.521156 263.827582 
L 75.564449 259.824449 
L 75.607742 258.988151 
L 75.694328 272.353065 
L 75.737621 263.038846 
L 75.99738 229.991203 
L 76.040673 227.628958 
L 76.127259 228.207629 
L 76.257138 232.143382 
L 76.516896 270.414914 
L 76.560189 268.992019 
L 76.776654 236.392252 
L 76.99312 226.86004 
L 77.036413 227.589323 
L 77.382757 262.947685 
L 77.42605 258.135999 
L 77.642515 230.597618 
L 77.729101 218.837921 
L 77.772394 221.219983 
L 77.85898 216.222012 
L 77.945567 216.979041 
L 78.205325 257.549401 
L 78.248618 254.909712 
L 78.42179 234.573006 
L 78.551669 216.455859 
L 78.638255 202.73423 
L 78.724841 204.708052 
L 78.811427 216.983004 
L 79.027893 236.388288 
L 79.071186 241.893586 
L 79.114479 241.683521 
L 79.590702 199.614958 
L 79.633995 203.273266 
L 79.677288 205.572095 
L 79.720581 200.740591 
L 79.763874 202.979967 
L 79.893754 213.792388 
L 79.98034 231.100982 
L 80.023633 224.529503 
L 80.369977 186.674138 
L 80.41327 187.688794 
L 80.499856 192.662983 
L 80.543149 192.548042 
L 80.586442 193.340741 
L 80.673028 207.308106 
L 80.846201 234.077569 
L 81.062666 210.102372 
L 81.235838 187.550071 
L 81.279131 191.454116 
L 81.452303 212.714317 
L 81.668768 251.195915 
L 81.755355 242.484147 
L 81.798648 243.443314 
L 81.928527 237.323673 
L 82.058406 216.923552 
L 82.101699 216.943369 
L 82.188285 215.484802 
L 82.534629 270.70425 
L 82.664508 256.368279 
L 82.707802 258.191488 
L 82.880974 241.778645 
L 82.96756 233.130293 
L 83.010853 233.748599 
L 83.054146 232.579367 
L 83.40049 272.923808 
L 83.487076 262.416576 
L 83.530369 263.260801 
L 83.660249 256.942986 
L 83.833421 238.108446 
L 83.9633 242.412804 
L 84.266351 287.481735 
L 84.439523 269.598434 
L 84.612696 240.161538 
L 84.872454 249.035809 
L 84.915747 248.449211 
L 85.132212 279.760842 
L 85.262091 270.034419 
L 85.305384 269.967039 
L 85.39197 260.557696 
L 85.565143 243.035073 
L 85.608436 236.578536 
L 85.651729 238.885291 
L 85.781608 251.707206 
L 85.95478 282.039853 
L 85.998073 272.72167 
L 86.084659 273.383574 
L 86.257831 263.5541 
L 86.38771 237.926125 
L 86.431003 239.919764 
L 86.560883 248.199511 
L 86.604176 246.622039 
L 86.647469 247.601023 
L 86.820641 277.279692 
L 86.95052 274.826287 
L 86.993813 272.860392 
L 87.253571 240.197209 
L 87.38345 234.969356 
L 87.643209 276.867489 
L 87.686502 275.095805 
L 87.729795 267.969437 
L 87.773088 270.438695 
L 87.816381 272.650327 
L 88.206018 233.697073 
L 88.292604 239.131028 
L 88.552363 277.743421 
L 88.638949 274.338777 
L 88.768828 265.852929 
L 88.942 239.253897 
L 89.028586 243.241175 
L 89.158465 239.174627 
L 89.288344 255.876805 
L 89.418224 271.025293 
L 89.461517 269.439894 
L 89.50481 271.259139 
L 89.548103 270.743885 
L 89.764568 243.229285 
L 89.851154 231.854047 
L 89.894447 235.821508 
L 89.93774 236.701404 
L 89.981033 235.262655 
L 90.024326 236.511156 
L 90.154205 249.662041 
L 90.284084 267.743517 
L 90.327377 264.544975 
L 90.50055 262.036081 
L 90.717015 235.310217 
L 90.760308 235.591625 
L 90.803601 232.615038 
L 90.846894 233.685183 
L 91.020066 250.43096 
L 91.106652 263.768129 
L 91.149945 256.051199 
L 91.193238 256.45944 
L 91.279824 262.947685 
L 91.323118 259.340902 
L 91.452997 242.365242 
L 91.669462 223.756621 
L 91.712755 223.39198 
L 91.92922 253.597794 
L 92.102392 264.66388 
L 92.145685 264.802602 
L 92.232271 263.38367 
L 92.405444 239.09932 
L 92.448737 242.761592 
L 92.49203 244.913771 
L 92.535323 242.424695 
L 92.578616 234.18062 
L 92.665202 237.767585 
L 92.92496 271.58811 
L 92.968253 274.679638 
L 93.011546 274.39823 
L 93.098132 267.458145 
L 93.271305 240.62923 
L 93.314598 241.893586 
L 93.357891 243.18965 
L 93.444477 237.926125 
L 93.704235 275.349469 
L 93.790821 270.030455 
L 93.834114 273.094239 
L 93.877407 272.674108 
L 94.007286 263.522392 
L 94.267045 234.775145 
L 94.48351 258.857356 
L 94.656682 275.226601 
L 94.743268 272.658254 
L 94.829854 265.658717 
L 95.089612 233.399811 
L 95.132905 232.500097 
L 95.176199 232.6626 
L 95.219492 235.290399 
L 95.652422 167.284708 
L 95.955473 79.299026 
L 95.998766 80.587163 
L 96.128646 131.549814 
L 96.47499 278.203187 
L 96.518283 277.691896 
L 96.648162 261.77449 
L 96.778041 249.2974 
L 96.951213 261.901322 
L 97.081093 278.072392 
L 97.254265 291.948597 
L 97.297558 291.980305 
L 97.47073 274.869886 
L 97.687195 245.948244 
L 97.773781 250.36358 
L 97.990246 267.854495 
L 98.03354 265.940126 
L 98.120126 275.539717 
L 98.163419 274.901594 
L 98.553056 232.408936 
L 98.639642 236.661769 
L 98.856107 270.034419 
L 98.985986 267.699919 
L 99.115866 266.514833 
L 99.375624 236.023646 
L 99.418917 238.259059 
L 99.46221 236.776711 
L 99.505503 230.260721 
L 99.548796 233.487008 
L 99.808554 263.986121 
L 99.89514 263.233057 
L 99.938433 266.292877 
L 99.981727 266.332512 
L 100.154899 233.514752 
L 100.284778 235.215093 
L 100.371364 227.918294 
L 100.414657 232.349484 
L 100.45795 232.880593 
L 100.674415 259.919573 
L 100.717708 260.236653 
L 100.761001 259.788778 
L 100.89088 249.340998 
L 101.150639 224.014249 
L 101.193932 221.061443 
L 101.237225 222.987703 
L 101.540276 262.357124 
L 101.929914 222.531901 
L 102.0165 228.603979 
L 102.059793 229.535401 
L 102.103086 224.509686 
L 102.146379 225.540195 
L 102.406137 251.758732 
L 102.44943 253.788042 
L 102.882361 207.54988 
L 102.968947 215.389678 
L 103.358584 245.012859 
L 103.44517 237.093791 
L 103.834808 202.226903 
L 104.224445 235.845289 
L 104.267738 232.369302 
L 104.614082 190.300739 
L 104.657375 191.913882 
L 105.047013 227.149375 
L 105.479943 179.575514 
L 105.566529 185.750643 
L 105.956167 223.063009 
L 106.129339 207.185238 
L 106.259218 189.694323 
L 106.518976 207.264508 
L 106.648855 218.172053 
L 106.692149 219.297687 
L 106.822028 238.366073 
L 106.865321 236.083099 
L 106.908614 233.915066 
L 107.038493 213.681411 
L 107.081786 214.569234 
L 107.125079 215.179613 
L 107.211665 209.151133 
L 107.254958 209.995358 
L 107.341544 217.418989 
L 107.514716 238.504796 
L 107.687889 255.694485 
L 107.817768 250.105953 
L 107.947647 223.15417 
L 108.034233 224.640481 
L 108.250698 244.184488 
L 108.42387 258.112218 
L 108.553749 270.71614 
L 108.597043 269.515201 
L 108.856801 233.043096 
L 108.900094 237.375199 
L 108.943387 238.445343 
L 108.98668 237.129462 
L 109.029973 234.129094 
L 109.073266 238.001432 
L 109.246438 261.187892 
L 109.41961 270.926206 
L 109.462903 267.081613 
L 109.765955 238.334365 
L 109.895834 239.487743 
L 110.155592 271.259139 
L 110.198885 270.29601 
L 110.242178 270.882607 
L 110.285471 274.334814 
L 110.328764 269.800572 
L 110.588523 238.385891 
L 110.631816 234.144948 
L 110.675109 234.541298 
L 110.97816 264.814492 
L 111.021453 265.460543 
L 111.108039 274.794579 
L 111.151332 271.425606 
L 111.367797 248.330306 
L 111.497677 234.026043 
L 111.54097 237.105681 
L 111.9739 271.382008 
L 112.017193 274.354631 
L 112.40683 233.705 
L 112.450124 234.03397 
L 112.839761 271.722869 
L 112.883054 273.078385 
L 113.142812 245.139691 
L 113.315984 232.226616 
L 113.359277 235.769982 
L 113.402571 246.80436 
L 113.489157 244.113145 
L 113.662329 268.999946 
L 113.705622 267.584977 
L 113.792208 265.757805 
L 113.922087 249.721494 
L 114.051966 231.477515 
L 114.095259 231.564712 
L 114.181845 230.399443 
L 114.268431 247.537607 
L 114.355018 247.501935 
L 114.52819 274.358595 
L 114.614776 268.139867 
L 115.004413 230.696706 
L 115.047706 231.089092 
L 115.264171 257.069818 
L 115.394051 270.133506 
L 115.437344 269.527091 
L 115.697102 235.39345 
L 115.870274 221.834325 
L 116.216618 257.386898 
L 116.389791 267.256007 
L 116.736135 219.876357 
L 116.779428 222.353543 
L 116.866014 242.654578 
L 116.9526 242.060053 
L 117.169065 263.811728 
L 117.558703 229.20643 
L 117.601996 229.773211 
L 118.034926 275.393067 
L 118.078219 275.04428 
L 118.424564 234.469955 
L 118.467857 235.55199 
L 118.770908 270.327718 
L 118.900787 270.506075 
L 118.94408 271.770431 
L 119.073959 257.68416 
L 119.247132 239.570977 
L 119.333718 239.174627 
L 119.420304 256.982621 
L 119.50689 253.788042 
L 119.766648 272.876246 
L 120.199579 233.681219 
L 120.242872 239.927691 
L 120.286165 241.683521 
L 120.545923 204.438534 
L 120.848974 124.930773 
L 121.06544 72.006191 
L 121.238612 124.431373 
L 121.541663 261.156184 
L 121.584956 260.886666 
L 121.628249 260.569587 
L 121.801421 232.167163 
L 121.844714 236.459631 
L 121.974593 249.222093 
L 122.017887 249.174531 
L 122.06118 244.46986 
L 122.364231 287.121057 
L 122.537403 270.474367 
L 122.753868 242.761592 
L 122.840454 247.501935 
L 122.883747 237.537702 
L 122.92704 240.672829 
L 123.143506 269.745083 
L 123.186799 270.605162 
L 123.230092 270.010638 
L 123.359971 262.444321 
L 123.619729 237.513921 
L 123.706315 245.551894 
L 123.749608 243.459168 
L 123.792901 241.754864 
L 124.139246 275.186966 
L 124.269125 257.390862 
L 124.442297 235.353815 
L 124.48559 233.86354 
L 124.572176 246.812287 
L 124.658762 245.409208 
L 125.005107 268.809698 
L 125.308158 224.92189 
L 125.351451 226.277406 
L 125.567916 245.111946 
L 125.827674 266.078848 
L 125.957554 254.86215 
L 126.174019 223.336491 
L 126.217312 226.079231 
L 126.303898 235.373633 
L 126.347191 232.777542 
L 126.390484 232.702235 
L 126.47707 245.3775 
L 126.650242 260.866849 
L 126.693535 260.858922 
L 126.736828 263.411414 
L 126.780121 260.157383 
L 127.03988 222.948068 
L 127.126466 234.874232 
L 127.169759 226.114902 
L 127.213052 224.632554 
L 127.256345 225.326166 
L 127.342931 239.341094 
L 127.516103 255.488383 
L 127.645982 247.050096 
L 127.862448 220.589787 
L 127.949034 224.810912 
L 127.992327 224.561211 
L 128.03562 214.573198 
L 128.078913 214.680212 
L 128.295378 241.885659 
L 128.425257 247.811088 
L 128.555136 231.663799 
L 128.728309 209.020337 
L 128.771602 206.713582 
L 128.814895 209.071863 
L 128.858188 209.349308 
L 128.901481 203.804375 
L 128.944774 208.93314 
L 129.161239 230.684815 
L 129.204532 236.087062 
L 129.291118 235.441012 
L 129.680755 196.578919 
L 129.724049 195.671278 
L 129.767342 191.917846 
L 129.810635 193.122749 
L 129.940514 213.847877 
L 130.113686 229.059781 
L 130.286858 214.482037 
L 130.503323 188.671741 
L 130.546616 194.902359 
L 130.589909 193.538916 
L 130.633202 186.769262 
L 130.676496 190.752577 
L 130.936254 226.412165 
L 131.02284 220.153802 
L 131.066133 221.08126 
L 131.45577 185.564359 
L 131.975287 242.178958 
L 132.01858 242.012491 
L 132.191752 214.818934 
L 132.235045 215.869261 
L 132.278338 217.347646 
L 132.364924 209.97554 
L 132.711269 253.593831 
L 132.754562 254.874041 
L 133.057613 224.236205 
L 133.144199 231.628127 
L 133.187492 226.297223 
L 133.230785 227.280171 
L 133.533837 263.284582 
L 133.620423 269.118851 
L 133.663716 268.044743 
L 133.923474 235.15564 
L 133.966767 240.387457 
L 134.053353 239.424327 
L 134.139939 244.675961 
L 134.183232 244.664071 
L 134.313111 262.59097 
L 134.44299 274.267434 
L 134.486284 273.173509 
L 134.616163 266.110556 
L 134.919214 234.374831 
L 135.135679 255.785645 
L 135.265558 275.286053 
L 135.308851 274.750981 
L 135.785075 229.832663 
L 135.828368 234.458065 
L 136.174712 279.324857 
L 136.218005 278.6035 
L 136.477764 243.67716 
L 136.56435 247.347359 
L 136.607643 231.540931 
L 136.650936 232.079966 
L 136.867401 261.568388 
L 137.040573 275.908322 
L 137.083866 274.80647 
L 137.473504 232.58333 
L 137.516797 232.4129 
L 137.949727 275.789417 
L 137.99302 277.259875 
L 138.166192 251.322747 
L 138.339365 233.316577 
L 138.469244 243.082635 
L 138.772295 270.006674 
L 138.945467 259.447917 
L 139.205225 236.788601 
L 139.248518 234.390685 
L 139.291812 235.698639 
L 139.335105 238.005395 
L 139.594863 274.104931 
L 139.941207 238.148081 
L 139.9845 238.833766 
L 140.027793 237.684352 
L 140.071086 231.842156 
L 140.114379 232.813213 
L 140.330845 255.856988 
L 140.374138 253.344131 
L 140.460724 264.303201 
L 140.54731 260.747944 
L 140.936947 216.665924 
L 140.98024 218.243396 
L 141.283292 255.841134 
L 141.326585 255.444784 
L 141.413171 259.035713 
L 141.456464 257.287811 
L 141.586343 246.015624 
L 141.759515 230.581764 
L 141.802808 229.943641 
L 142.322325 273.086312 
L 142.408911 262.35316 
L 142.625376 232.753761 
L 142.668669 233.554387 
L 142.755255 241.453638 
L 143.058306 271.425606 
L 143.144893 274.235726 
L 143.491237 237.0819 
L 143.577823 240.399348 
L 143.924167 273.827486 
L 144.010753 278.215078 
L 144.357098 238.159971 
L 144.833321 279.63401 
L 144.876614 278.417216 
L 145.872354 87.436087 
L 145.915647 89.398018 
L 146.608336 270.981695 
L 146.651629 268.916712 
L 146.911387 240.581668 
L 146.954681 241.338696 
L 147.301025 284.271302 
L 147.344318 283.807573 
L 147.733955 243.736612 
L 147.777248 234.465992 
L 147.863834 238.968525 
L 147.907127 238.75846 
L 148.296765 278.425143 
L 148.340058 275.000681 
L 148.643109 239.57494 
L 148.686402 239.420364 
L 148.772988 237.993505 
L 148.902868 254.081341 
L 149.07604 273.898829 
L 149.205919 266.229461 
L 149.50897 231.790631 
L 149.552263 232.456498 
L 149.638849 230.205232 
L 149.941901 270.14936 
L 149.985194 269.566726 
L 150.028487 271.421643 
L 150.07178 270.006674 
L 150.374831 235.096188 
L 150.418124 237.395016 
L 150.461417 234.941611 
L 150.50471 231.1208 
L 150.548003 232.682418 
L 150.851055 272.658254 
L 150.894348 270.331681 
L 151.024227 254.362749 
L 151.283985 226.06734 
L 151.370571 223.87949 
L 151.803502 259.701581 
L 151.976674 240.692646 
L 152.193139 224.937744 
L 152.279725 222.389215 
L 152.409604 237.042265 
L 152.626069 261.822052 
L 152.755949 242.274082 
L 153.015707 213.491163 
L 153.059 214.244227 
L 153.448637 247.272052 
L 153.578516 238.802058 
L 153.924861 199.167083 
L 153.968154 202.385443 
L 154.227912 225.89691 
L 154.314498 232.297959 
L 154.357791 231.251595 
L 154.48767 225.294458 
L 154.790722 184.549704 
L 154.834015 192.884939 
L 155.007187 214.268008 
L 155.093773 216.761048 
L 155.180359 223.590154 
L 155.223652 221.901704 
L 155.656583 185.267097 
L 155.699876 185.370148 
L 155.743169 187.443057 
L 156.04622 224.529503 
L 156.089513 226.095085 
L 156.132806 225.623429 
L 156.305978 214.164957 
L 156.435857 195.675241 
L 156.47915 196.590809 
L 156.522443 197.335947 
L 156.695616 215.663159 
L 156.868788 245.892755 
L 156.912081 245.171399 
L 156.998667 247.577242 
L 157.04196 247.394921 
L 157.258425 215.706758 
L 157.388304 221.679749 
L 157.561477 247.910175 
L 157.60477 254.707574 
L 157.691356 253.181627 
L 157.821235 265.286149 
L 157.864528 262.460175 
L 158.080993 238.778277 
L 158.210872 229.594853 
L 158.254165 226.586559 
L 158.384044 251.505068 
L 158.60051 274.148529 
L 158.687096 276.316562 
L 158.773682 257.640562 
L 158.816975 264.089172 
L 158.860268 266.304768 
L 159.03344 227.434747 
L 159.076733 227.407003 
L 159.509664 278.385508 
L 159.59625 270.196922 
L 159.812715 239.071576 
L 159.985887 241.485346 
L 160.202352 261.005571 
L 160.332231 278.211114 
L 160.375524 277.576955 
L 160.418818 276.360161 
L 160.678576 242.167067 
L 160.851748 235.904741 
L 161.241385 277.335181 
L 161.284678 278.516303 
L 161.58773 241.346623 
L 161.631023 241.346623 
L 161.717609 236.808419 
L 161.760902 239.32524 
L 161.890781 255.547835 
L 162.063953 271.782321 
L 162.150539 275.460447 
L 162.193832 273.839376 
L 162.540177 236.523047 
L 162.58347 238.152044 
L 162.799935 264.291311 
L 162.973107 285.155162 
L 163.0164 281.155993 
L 163.362745 230.387553 
L 163.406038 231.850083 
L 163.795675 275.54368 
L 163.882261 269.130741 
L 164.055433 249.226057 
L 164.142019 236.67366 
L 164.185312 238.651445 
L 164.271899 240.783807 
L 164.358485 238.742606 
L 164.531657 252.967598 
L 164.748122 267.267897 
L 164.834708 264.430033 
L 165.00788 226.971018 
L 165.181053 228.928986 
L 165.397518 252.365147 
L 165.527397 261.017462 
L 165.57069 261.092768 
L 165.657276 257.807029 
L 165.700569 261.14033 
L 165.743862 256.633834 
L 165.830448 232.555586 
L 165.873741 233.427555 
L 165.917034 234.687948 
L 166.00362 222.008719 
L 166.046913 222.67855 
L 166.393258 266.91911 
L 166.479844 262.531518 
L 166.782895 233.756526 
L 166.826188 232.036368 
L 166.869481 232.908337 
L 167.302412 284.013675 
L 167.388998 280.073958 
L 167.432291 278.500449 
L 167.692049 238.643518 
L 167.735342 239.48378 
L 167.9951 266.788314 
L 168.038393 265.745914 
L 168.254859 275.337578 
L 168.298152 273.966208 
L 168.471324 244.339064 
L 168.514617 245.516223 
L 168.601203 240.803624 
L 169.034134 285.757614 
L 169.077427 282.079488 
L 169.164013 273.450954 
L 169.337185 242.761592 
L 169.423771 239.376765 
L 169.467064 240.328005 
L 169.510357 241.073142 
L 169.640236 252.971562 
L 169.683529 251.425798 
L 169.899994 217.843083 
L 170.029874 187.569889 
L 170.332925 80.872535 
L 170.419511 68.744232 
L 170.462804 69.691508 
L 170.54939 101.720532 
L 170.895734 248.235182 
L 171.155493 222.58739 
L 171.198786 223.467286 
L 171.631716 288.64304 
L 171.718302 287.473808 
L 172.064647 244.291502 
L 172.10794 244.743341 
L 172.54087 287.925647 
L 172.584163 283.676777 
L 172.757335 248.068715 
L 172.800628 247.604986 
L 172.843921 245.361646 
L 172.930508 232.757724 
L 172.973801 236.903543 
L 173.406731 281.354168 
L 173.450024 274.215909 
L 173.666489 240.435019 
L 173.753075 231.865937 
L 173.796368 232.999498 
L 173.969541 250.926397 
L 174.142713 269.142632 
L 174.186006 268.334078 
L 174.229299 267.477963 
L 174.272592 269.852098 
L 174.315885 268.492618 
L 174.575643 235.032772 
L 174.662229 228.921059 
L 174.705522 232.944009 
L 175.051867 268.231027 
L 175.138453 273.736325 
L 175.441504 228.116469 
L 175.484797 229.012219 
L 175.744556 246.265324 
L 175.917728 263.47483 
L 176.004314 271.160052 
L 176.047607 268.05267 
L 176.307365 226.035632 
L 176.437244 231.465624 
L 176.480537 232.416863 
L 176.870175 267.775225 
L 177.08664 237.565447 
L 177.303105 215.786028 
L 177.389691 222.987703 
L 177.692743 252.214534 
L 177.736036 252.373074 
L 177.995794 211.81064 
L 178.039087 212.096012 
L 178.125673 207.870923 
L 178.168966 208.223674 
L 178.255552 216.852209 
L 178.472017 240.760026 
L 178.51531 244.624436 
L 178.558603 241.616141 
L 178.991534 194.553571 
L 179.034827 197.236859 
L 179.424464 232.111674 
L 179.467757 229.781138 
L 179.684223 194.541681 
L 179.814102 191.331248 
L 179.943981 195.992321 
L 180.290325 227.759754 
L 180.463497 207.573661 
L 180.593377 187.807699 
L 180.63667 190.249213 
L 180.896428 208.437703 
L 181.156186 245.750069 
L 181.242772 225.147809 
L 181.286065 226.503325 
L 181.459237 207.688602 
L 181.502531 209.844745 
L 182.022047 261.909249 
L 182.325098 225.167626 
L 182.368391 225.623429 
L 182.411684 223.847782 
L 182.454978 226.614303 
L 182.844615 281.615759 
L 182.887908 277.790983 
L 183.06108 249.301363 
L 183.277545 235.056553 
L 183.320838 236.419996 
L 183.710476 280.525797 
L 183.753769 283.807573 
L 183.797062 278.674843 
L 184.143406 239.352984 
L 184.576337 281.556306 
L 184.61963 280.795315 
L 184.879388 238.659372 
L 184.922681 239.765188 
L 184.965974 238.873401 
L 185.009267 239.198408 
L 185.139146 243.098489 
L 185.442198 280.910256 
L 185.485491 278.99985 
L 185.745249 247.648585 
L 185.918421 238.920963 
L 186.264765 276.871452 
L 186.308059 286.24116 
L 186.351352 279.273332 
L 186.697696 239.999034 
L 186.740989 235.936449 
L 186.784282 238.841693 
L 187.000747 267.002343 
L 187.130626 281.465146 
L 187.173919 279.110828 
L 187.476971 247.042169 
L 187.520264 246.233616 
L 187.60685 240.36764 
L 187.650143 241.59236 
L 187.693436 241.386258 
L 187.736729 243.554292 
L 187.996487 282.051743 
L 188.03978 282.507546 
L 188.429418 231.525077 
L 188.516004 235.924559 
L 188.905641 282.638341 
L 189.078813 262.472065 
L 189.381865 236.087062 
L 189.425158 237.688315 
L 189.728209 274.521098 
L 189.771502 274.390303 
L 189.944674 249.182458 
L 190.16114 228.132323 
L 190.291019 231.485442 
L 190.377605 240.260625 
L 190.59407 270.692359 
L 190.767242 257.133234 
L 190.983707 228.449402 
L 191.070293 231.445807 
L 191.113587 230.339991 
L 191.286759 244.509495 
L 191.459931 271.83781 
L 191.719689 253.486816 
L 191.892861 238.996269 
L 191.936154 239.368838 
L 192.066034 251.108718 
L 192.325792 284.410024 
L 192.672136 242.900314 
L 192.758722 245.218961 
L 192.931894 251.441652 
L 193.105067 268.548107 
L 193.191653 282.812735 
L 193.234946 275.94003 
L 193.408118 268.100232 
L 193.58129 245.500369 
L 193.624583 244.993041 
L 193.754462 251.72306 
L 194.057514 283.66885 
L 194.100807 280.783424 
L 194.230686 270.569491 
L 194.447151 244.485714 
L 194.706909 212.381383 
L 194.836788 204.129381 
L 194.880081 201.243955 
L 195.313012 63.389547 
L 195.356305 64.281334 
L 195.616063 175.818118 
L 195.832528 259.868048 
L 196.005701 244.31132 
L 196.092287 236.44774 
L 196.13558 237.549593 
L 196.178873 238.084665 
L 196.265459 233.399811 
L 196.611803 293.113865 
L 196.698389 292.245859 
L 196.741682 295.313606 
L 197.088027 238.960598 
L 197.174613 241.933221 
L 197.391078 269.923441 
L 197.477664 277.303473 
L 197.56425 277.244021 
L 197.607543 279.729134 
L 197.650836 276.66535 
L 197.694129 274.865922 
L 197.910595 235.670895 
L 197.953888 239.582867 
L 198.213646 258.778086 
L 198.343525 284.489294 
L 198.386818 277.874217 
L 198.646576 256.399987 
L 198.863042 234.850451 
L 199.036214 250.304128 
L 199.166093 273.320158 
L 199.252679 267.466072 
L 199.295972 269.340807 
L 199.339265 269.309099 
L 199.425851 266.990453 
L 199.685609 230.629326 
L 199.728903 232.682418 
L 199.945368 254.247808 
L 200.031954 275.69033 
L 200.11854 272.035985 
L 200.335005 247.176928 
L 200.55147 228.477147 
L 200.638056 233.597986 
L 200.984401 264.283384 
L 201.027694 266.77246 
L 201.374038 226.297223 
L 201.460624 230.823537 
L 201.893555 261.302834 
L 201.936848 256.990548 
L 202.326485 210.328292 
L 202.369778 215.532364 
L 202.586243 247.898285 
L 202.629537 249.424231 
L 202.67283 244.743341 
L 202.759416 246.225689 
L 202.846002 241.334733 
L 202.975881 223.261184 
L 203.149053 210.328292 
L 203.192346 209.836818 
L 203.235639 210.546284 
L 203.495397 239.705735 
L 203.66857 236.867871 
L 203.971621 201.176576 
L 204.014914 199.543615 
L 204.058207 200.157957 
L 204.144793 201.798845 
L 204.231379 207.256581 
L 204.317965 227.739936 
L 204.404551 225.841421 
L 204.447844 227.311879 
L 204.66431 212.769806 
L 204.837482 191.279722 
L 204.924068 190.288848 
L 205.140533 217.13758 
L 205.183826 225.770078 
L 205.227119 218.98457 
L 205.356998 224.263949 
L 205.400291 223.277038 
L 205.573464 204.830921 
L 205.66005 190.641599 
L 205.703343 193.301106 
L 205.919808 213.170119 
L 206.179566 246.110748 
L 206.222859 246.392156 
L 206.65579 218.013513 
L 206.742376 224.949634 
L 207.08872 264.081245 
L 207.261892 251.588301 
L 207.435065 237.676425 
L 207.521651 233.102549 
L 207.954581 274.271398 
L 208.08446 267.695955 
L 208.257632 247.719928 
L 208.300925 249.828508 
L 208.387512 246.507097 
L 208.430805 243.181723 
L 208.474098 244.029911 
L 208.777149 281.659357 
L 208.820442 279.939199 
L 209.123493 243.922897 
L 209.210079 251.370309 
L 209.253372 249.931559 
L 209.296665 248.528481 
L 209.383252 254.893858 
L 209.469838 275.30587 
L 209.513131 269.566726 
L 209.556424 268.722501 
L 209.64301 282.919749 
L 209.686303 278.322092 
L 209.989354 243.653379 
L 210.07594 234.715692 
L 210.119233 238.734679 
L 210.378992 273.347903 
L 210.422285 272.777159 
L 210.465578 273.003078 
L 210.508871 273.177472 
L 210.552164 279.622119 
L 210.595457 279.431871 
L 210.898508 242.266155 
L 211.028387 247.157111 
L 211.201559 271.029257 
L 211.244853 262.424503 
L 211.374732 278.492523 
L 211.461318 272.848502 
L 211.547904 266.820022 
L 211.764369 239.590794 
L 211.807662 239.816713 
L 212.06742 271.798175 
L 212.110713 268.349932 
L 212.154006 273.185399 
L 212.240593 284.005748 
L 212.283886 282.62645 
L 212.370472 272.685999 
L 212.543644 242.821045 
L 212.63023 244.489677 
L 212.673523 243.776247 
L 212.846695 260.771725 
L 213.06316 281.905094 
L 213.236333 275.393067 
L 213.539384 236.602317 
L 213.669263 249.935523 
L 213.755849 266.899292 
L 213.842435 265.290112 
L 213.972314 280.105666 
L 214.015607 276.99432 
L 214.361952 235.484611 
L 214.448538 238.695044 
L 214.794882 275.567461 
L 214.881468 273.082348 
L 215.011347 258.290575 
L 215.227813 230.768048 
L 215.271106 229.951568 
L 215.400985 238.326438 
L 215.61745 263.593735 
L 215.704036 267.691992 
L 215.747329 265.690425 
L 216.136967 227.799389 
L 216.18026 230.050655 
L 216.569897 274.909521 
L 216.61319 274.124748 
L 216.916241 238.302657 
L 216.959534 239.123101 
L 217.132707 251.596228 
L 217.305879 279.253514 
L 217.349172 281.437401 
L 217.392465 280.077922 
L 217.435758 279.205952 
L 217.479051 280.83495 
L 217.911981 239.610612 
L 217.955275 247.668402 
L 218.128447 270.367353 
L 218.344912 285.983533 
L 218.388205 285.801212 
L 218.474791 267.561196 
L 218.647963 246.958936 
L 218.734549 241.227719 
L 218.777842 244.275648 
L 219.037601 276.138205 
L 219.210773 286.772269 
L 219.254066 283.672814 
L 219.513824 253.078576 
L 219.557117 254.814588 
L 219.60041 254.29537 
L 219.686996 240.074341 
L 219.773582 240.351786 
L 220.033341 207.466646 
L 220.509564 64.241699 
L 220.552857 68.704597 
L 220.985788 251.901417 
L 221.029081 247.890358 
L 221.202253 228.156104 
L 221.245546 228.445439 
L 221.808356 294.386148 
L 221.851649 294.52487 
L 221.938235 280.252315 
L 222.1547 250.791638 
L 222.241286 252.373074 
L 222.327872 261.057097 
L 222.371165 251.413907 
L 222.414458 254.70361 
L 222.58763 278.940398 
L 222.630923 279.970907 
L 222.977268 243.879298 
L 223.020561 243.950641 
L 223.107147 246.233616 
L 223.323612 270.973768 
L 223.496784 283.97404 
L 223.626663 272.305503 
L 223.756543 244.644253 
L 223.843129 246.158309 
L 223.929715 248.532445 
L 223.973008 247.220527 
L 224.189473 266.166045 
L 224.232766 266.249279 
L 224.362645 279.760842 
L 224.405938 277.584882 
L 224.752283 237.759658 
L 224.795576 239.614575 
L 224.838869 239.880129 
L 225.098627 270.751812 
L 225.14192 269.063362 
L 225.185213 269.546909 
L 225.228506 270.331681 
L 225.358385 261.290943 
L 225.618144 232.329667 
L 225.877902 250.664806 
L 226.007781 268.409385 
L 226.527297 225.135918 
L 226.960228 271.449387 
L 227.090107 246.507097 
L 227.306572 224.343219 
L 227.349865 221.648041 
L 227.393158 224.806948 
L 227.479744 238.651445 
L 227.523037 230.304319 
L 227.739503 254.572815 
L 227.782796 260.569587 
L 227.826089 260.157383 
L 228.259019 208.219711 
L 228.518778 233.269015 
L 228.648657 243.015256 
L 228.69195 248.770254 
L 228.735243 247.775416 
L 229.038294 197.633209 
L 229.081587 196.567028 
L 229.298052 213.027433 
L 229.384638 228.829898 
L 229.427931 223.998395 
L 229.471225 222.868798 
L 229.557811 231.477515 
L 229.904155 193.859959 
L 229.947448 193.241654 
L 229.990741 193.784653 
L 230.250499 224.699934 
L 230.293792 230.577801 
L 230.337085 227.763717 
L 230.423672 221.219983 
L 230.466965 223.035265 
L 230.510258 222.286164 
L 230.813309 191.608693 
L 231.246239 240.680756 
L 231.332825 236.550791 
L 231.419412 233.395847 
L 231.592584 213.843914 
L 231.635877 215.056744 
L 231.722463 221.259618 
L 232.068807 257.664343 
L 232.155393 264.973032 
L 232.198686 263.546173 
L 232.285272 255.42893 
L 232.501738 232.535768 
L 232.545031 232.912301 
L 232.891375 274.58055 
L 232.934668 275.963811 
L 233.324306 245.460734 
L 233.410892 241.160339 
L 233.497478 253.902984 
L 233.584064 253.780115 
L 233.67065 263.550137 
L 233.757236 278.643135 
L 233.800529 276.213511 
L 233.843822 275.710147 
L 233.887115 279.879747 
L 233.930408 279.091011 
L 234.233459 239.499634 
L 234.276753 244.755231 
L 234.493218 264.164479 
L 234.579804 267.573087 
L 234.752976 283.066399 
L 234.796269 280.494089 
L 234.839562 279.808404 
L 235.056027 245.952208 
L 235.142613 253.930728 
L 235.185906 255.238682 
L 235.2292 254.727391 
L 235.272493 247.834869 
L 235.315786 249.015991 
L 235.488958 278.773931 
L 235.532251 277.862326 
L 235.575544 278.896799 
L 235.618837 277.95745 
L 235.792009 258.686925 
L 235.965181 238.687117 
L 236.008474 243.407642 
L 236.311526 275.527826 
L 236.398112 281.377949 
L 236.441405 281.231299 
L 236.787749 244.430225 
L 236.831042 244.763158 
L 236.874335 253.415473 
L 236.917628 253.066686 
L 236.960921 247.117476 
L 237.047507 249.919669 
L 237.22068 270.79541 
L 237.350559 284.727104 
L 237.393852 280.050177 
L 237.65361 244.584801 
L 237.696903 243.530511 
L 237.999954 267.691992 
L 238.129834 286.007314 
L 238.173127 283.387442 
L 238.346299 265.060229 
L 238.562764 246.166236 
L 238.606057 246.760761 
L 238.692643 241.731083 
L 238.735936 245.635128 
L 238.995694 281.893203 
L 239.038988 281.274898 
L 239.558504 240.197209 
L 239.64509 256.487184 
L 239.818262 275.381177 
L 239.861555 275.008608 
L 239.904848 275.091842 
L 239.948141 276.241256 
L 240.294486 233.887321 
L 240.424365 237.438615 
L 240.727416 262.868415 
L 240.814002 268.785917 
L 240.987175 245.964098 
L 241.073761 232.714126 
L 241.117054 233.205599 
L 241.160347 236.392252 
L 241.20364 236.202004 
L 241.290226 227.696338 
L 241.593277 267.030088 
L 241.63657 268.199319 
L 241.679863 267.25997 
L 241.939622 234.450138 
L 242.026208 238.913036 
L 242.069501 240.910639 
L 242.112794 236.392252 
L 242.156087 238.790168 
L 242.329259 264.02972 
L 242.502431 280.652629 
L 242.545724 278.912653 
L 242.718896 261.576315 
L 242.935362 246.213798 
L 242.978655 244.378699 
L 243.19512 267.525525 
L 243.411585 284.172214 
L 243.454878 281.120321 
L 243.584757 261.869614 
L 243.671343 248.580006 
L 243.714636 249.539173 
L 243.757929 248.770254 
L 243.844516 239.788969 
L 243.887809 245.872938 
L 244.234153 286.740561 
L 244.450618 262.785182 
L 244.580497 246.697345 
L 244.62379 255.119777 
L 244.667083 249.408377 
L 244.710376 244.442115 
L 244.753669 247.125403 
L 244.970135 282.134977 
L 245.013428 278.234895 
L 245.1866 251.267258 
L 245.706116 98.62504 
L 245.749409 102.156516 
L 245.792703 101.011066 
L 245.835996 94.732886 
L 245.879289 97.443918 
L 246.052461 137.273105 
L 246.355512 220.458991 
L 246.398805 213.043287 
L 246.442098 218.623892 
L 246.74515 278.258676 
L 246.918322 274.719273 
L 247.134787 256.082907 
L 247.221373 265.159317 
L 247.264666 258.139963 
L 247.307959 258.278685 
L 247.697597 284.05331 
L 248.17382 238.477051 
L 248.346992 262.246146 
L 248.520164 282.812735 
L 248.563457 282.884078 
L 248.866509 245.008895 
L 248.909802 246.602221 
L 248.996388 231.251595 
L 249.039681 233.368103 
L 249.386025 273.201253 
L 249.429318 276.887306 
L 249.472611 273.997916 
L 249.818956 232.611075 
L 249.862249 233.324504 
L 250.251886 274.56866 
L 250.338472 269.796609 
L 250.381765 268.013035 
L 250.684817 227.617068 
L 250.814696 232.876629 
L 250.944575 251.441652 
L 251.074454 267.862422 
L 251.117747 265.46847 
L 251.16104 265.068156 
L 251.204333 266.423672 
L 251.420798 232.793396 
L 251.464091 238.429489 
L 251.507384 240.641121 
L 251.637264 227.117667 
L 251.897022 261.754672 
L 251.983608 256.118579 
L 252.070194 256.292973 
L 252.113487 254.101159 
L 252.416538 214.838752 
L 252.459831 219.269942 
L 252.849469 264.513267 
L 253.109227 226.923456 
L 253.282399 204.426644 
L 253.498865 223.269111 
L 253.71533 245.040603 
L 254.061674 213.356404 
L 254.14826 197.395399 
L 254.191553 202.57569 
L 254.451312 218.758651 
L 254.537898 230.704633 
L 254.624484 229.166795 
L 254.667777 227.403039 
L 255.014121 183.907617 
L 255.057414 185.473198 
L 255.187293 190.566293 
L 255.447052 221.033699 
L 255.490345 220.367831 
L 255.879982 183.281384 
L 255.923275 188.104961 
L 256.312913 237.375199 
L 256.399499 228.960694 
L 256.70255 195.564263 
L 256.745843 198.703353 
L 257.222066 256.031382 
L 257.351946 247.819015 
L 257.611704 221.699566 
L 257.654997 222.627025 
L 258.044634 275.70222 
L 258.13122 273.082348 
L 258.2611 256.463403 
L 258.520858 227.82317 
L 258.650737 249.404414 
L 258.867202 278.056538 
L 258.910495 274.846105 
L 258.953788 276.146132 
L 258.997081 277.481831 
L 259.300133 243.637525 
L 259.386719 239.788969 
L 259.430012 242.135359 
L 259.819649 283.874952 
L 260.165994 237.307819 
L 260.25258 241.037471 
L 260.598924 276.966576 
L 260.642217 280.636775 
L 260.68551 280.589213 
L 261.031854 237.565447 
L 261.464785 277.354999 
L 261.551371 279.986761 
L 261.594664 278.639172 
L 261.637957 277.561101 
L 261.984301 235.706566 
L 262.287353 275.722038 
L 262.330646 277.430305 
L 262.417232 276.570226 
L 262.633697 258.290575 
L 262.763576 243.613744 
L 262.806869 244.200342 
L 262.850162 243.471058 
L 263.109921 262.804999 
L 263.2398 279.356565 
L 263.283093 276.697058 
L 263.67273 239.364875 
L 264.105661 278.722405 
L 264.192247 270.482294 
L 264.452005 235.306253 
L 264.495298 235.726384 
L 264.755056 258.702779 
L 264.971522 275.821125 
L 265.014815 275.912286 
L 265.447745 237.299892 
L 265.794089 275.036353 
L 265.837382 275.500082 
L 265.880675 274.608295 
L 266.097141 247.763526 
L 266.22702 231.536967 
L 266.270313 231.921426 
L 266.703243 274.671711 
L 266.746536 272.357028 
L 267.049588 220.09435 
L 267.092881 223.816074 
L 267.22276 234.438247 
L 267.266053 234.374831 
L 267.309346 234.707765 
L 267.525811 261.294907 
L 267.569104 263.189458 
L 267.612397 262.269927 
L 267.742276 254.2161 
L 267.785569 250.561755 
L 267.872156 230.71256 
L 267.915449 234.73551 
L 268.088621 237.930089 
L 268.131914 238.449307 
L 268.391672 274.108894 
L 268.478258 277.897998 
L 268.738016 243.970459 
L 268.78131 245.460734 
L 268.824603 245.179326 
L 268.911189 240.736245 
L 269.300826 282.654195 
L 269.344119 281.17581 
L 269.603877 243.724722 
L 269.64717 246.352521 
L 269.733757 249.614479 
L 269.77705 246.594294 
L 269.820343 249.887961 
L 269.906929 258.678998 
L 270.166687 282.856333 
L 270.20998 283.423113 
L 270.426445 250.038574 
L 270.556324 240.157574 
L 271.032548 276.431504 
L 271.162427 235.199239 
L 271.292306 190.324519 
L 271.595357 112.001844 
L 271.811823 97.705509 
L 271.855116 98.819252 
L 271.984995 132.140375 
L 272.331339 208.263309 
L 272.504511 226.867967 
L 272.76427 273.232961 
L 272.807563 272.024095 
L 272.850856 270.383207 
L 272.894149 274.350668 
L 272.937442 270.367353 
L 273.110614 254.002071 
L 273.153907 249.360816 
L 273.1972 250.787675 
L 273.586838 292.245859 
L 273.630131 288.429011 
L 273.976475 239.170663 
L 274.019768 237.906308 
L 274.236233 253.700845 
L 274.452698 277.699823 
L 274.539285 271.318592 
L 274.928922 233.300723 
L 274.972215 236.959032 
L 275.318559 273.272596 
L 275.405145 271.873482 
L 275.535025 264.323019 
L 275.75149 236.372434 
L 275.794783 234.19251 
L 275.838076 237.589228 
L 276.18442 271.627745 
L 276.227713 270.63687 
L 276.271006 268.21121 
L 276.357592 269.305135 
L 276.530765 233.233344 
L 276.617351 226.852113 
L 276.660644 230.97415 
L 277.093574 266.780387 
L 277.223453 256.697249 
L 277.439919 230.764085 
L 277.483212 227.141448 
L 277.526505 228.160067 
L 277.959435 266.950818 
L 278.349072 218.9053 
L 278.392366 222.238602 
L 278.825296 252.143191 
L 278.868589 250.613281 
L 278.911882 249.836435 
L 278.955175 246.649783 
L 279.17164 213.479272 
L 279.214933 211.029831 
L 279.258226 212.357602 
L 279.474692 233.249198 
L 279.561278 241.437784 
L 279.604571 240.573741 
L 279.647864 239.888056 
L 279.691157 240.12983 
L 279.73445 240.335932 
L 279.777743 241.259427 
L 280.124087 194.509973 
L 280.16738 196.016102 
L 280.383846 223.344418 
L 280.427139 221.033699 
L 280.470432 223.606008 
L 280.513725 225.781969 
L 280.557018 224.533467 
L 280.773483 201.315298 
L 280.903362 187.641232 
L 280.946655 187.351896 
L 280.989948 187.649159 
L 281.336293 227.529871 
L 281.596051 197.807603 
L 281.769223 188.762901 
L 281.812516 183.622245 
L 281.855809 184.743915 
L 281.942395 190.090673 
L 281.985688 184.95398 
L 282.245447 220.336123 
L 282.332033 229.269846 
L 282.375326 227.767681 
L 282.548498 205.742525 
L 282.678377 195.132242 
L 282.72167 199.02836 
L 283.241187 257.149088 
L 283.414359 223.64168 
L 283.457652 224.192606 
L 283.500945 228.988438 
L 283.544238 227.185047 
L 283.587531 222.325799 
L 283.630824 222.841053 
L 283.890582 266.518796 
L 283.933875 264.822419 
L 283.977168 259.856157 
L 284.020461 262.777255 
L 284.063754 272.388736 
L 284.107047 269.963076 
L 284.28022 235.730347 
L 284.323513 237.474286 
L 284.410099 234.469955 
L 284.929615 286.098474 
L 284.972908 283.002983 
L 285.102788 243.526547 
L 285.146081 244.140889 
L 285.232667 249.47972 
L 285.362546 238.207533 
L 285.665597 270.014601 
L 285.795476 281.076723 
L 286.098528 235.884924 
L 286.228407 245.639091 
L 286.314993 253.772188 
L 286.531458 282.907859 
L 286.964388 237.474286 
L 287.007682 239.293532 
L 287.354026 275.186966 
L 287.483905 288.07626 
L 287.873542 238.687117 
L 287.916835 243.019219 
L 288.176594 273.708581 
L 288.26318 273.240888 
L 288.349766 283.01091 
L 288.393059 280.196826 
L 288.609524 243.407642 
L 288.652817 244.763158 
L 288.782696 250.145588 
L 288.825989 249.115079 
L 288.869282 247.977555 
L 288.999162 267.01027 
L 289.085748 277.612626 
L 289.129041 275.147331 
L 289.215627 285.488096 
L 289.25892 285.151198 
L 289.475385 249.860216 
L 289.605264 238.183752 
L 289.648557 240.284406 
L 290.081488 283.597507 
L 290.297953 245.413172 
L 290.427832 238.722788 
L 290.471125 239.265787 
L 290.947349 281.350204 
L 291.207107 245.298231 
L 291.336986 240.534106 
L 291.380279 240.760026 
L 291.596744 268.825552 
L 291.769916 283.137742 
L 292.116261 236.146515 
L 292.159554 237.284038 
L 292.419312 255.147522 
L 292.635777 281.710883 
L 292.67907 280.216644 
L 292.895536 250.847127 
L 293.068708 239.757261 
L 293.112001 241.283207 
L 293.24188 254.604523 
L 293.501638 278.139771 
L 293.544931 278.92058 
L 293.891276 234.279707 
L 293.934569 236.538901 
L 294.021155 251.481287 
L 294.064448 247.914139 
L 294.151034 244.850355 
L 294.367499 272.083547 
L 294.583964 247.125403 
L 294.843723 225.163663 
L 294.887016 226.392347 
L 295.146774 261.493082 
L 295.23336 268.556034 
L 295.536411 227.450601 
L 295.709584 233.768416 
L 296.099221 281.794116 
L 296.142514 274.774762 
L 296.358979 249.582771 
L 296.402272 250.244675 
L 296.445565 250.070282 
L 296.532151 240.411238 
L 296.575444 241.505163 
L 296.705324 253.673101 
L 296.921789 289.079024 
L 296.965082 287.67991 
L 297.22484 248.572079 
L 297.268133 243.50673 
L 297.354719 244.743341 
L 297.78765 289.015608 
L 297.830943 288.41712 
L 298.133994 248.033044 
L 298.177287 248.17573 
L 298.22058 245.250669 
L 298.263873 245.948244 
L 298.696804 291.342182 
L 298.740097 280.002615 
L 299.649251 85.553425 
L 299.692544 87.99494 
L 300.471819 270.644797 
L 300.644991 258.548203 
L 300.818163 249.293436 
L 300.861456 247.719928 
L 301.251093 288.361631 
L 301.294386 283.371588 
L 301.424266 273.161618 
L 301.684024 245.45677 
L 301.77061 247.038206 
L 301.857196 249.40045 
L 302.116954 284.112762 
L 302.593178 240.117939 
L 302.636471 241.128631 
L 302.939522 270.997549 
L 302.982815 276.272964 
L 303.026108 271.932934 
L 303.112694 269.384405 
L 303.19928 263.613553 
L 303.372453 231.148544 
L 303.415746 231.592456 
L 303.588918 252.087702 
L 303.76209 270.454549 
L 303.805383 280.51787 
L 303.848676 274.152493 
L 304.281607 227.700301 
L 304.671244 271.596037 
L 304.75783 266.653555 
L 304.974295 245.000968 
L 305.104174 226.566741 
L 305.147467 229.269846 
L 305.277347 235.072407 
L 305.493812 264.501376 
L 305.537105 265.095901 
L 305.926742 224.454197 
L 305.970035 225.940508 
L 306.099914 230.118035 
L 306.359673 259.273523 
L 306.402966 256.554564 
L 306.446259 253.451145 
L 306.489552 256.003637 
L 306.532845 258.996078 
L 306.835896 210.157861 
L 306.965775 218.231506 
L 307.268827 248.683057 
L 307.528585 223.423688 
L 307.701757 205.912955 
L 307.788343 208.402032 
L 307.831636 207.22091 
L 307.874929 208.774601 
L 308.048101 225.520378 
L 308.091394 230.993968 
L 308.177981 229.662233 
L 308.221274 229.709795 
L 308.654204 188.144596 
L 308.957255 230.332064 
L 309.000548 219.020242 
L 309.087135 224.418525 
L 309.260307 202.754048 
L 309.390186 181.806963 
L 309.433479 182.024956 
L 309.693237 198.9372 
L 309.952995 226.368566 
L 310.126168 213.031397 
L 310.256047 190.403789 
L 310.29934 190.617818 
L 310.472512 199.971673 
L 310.818856 250.244675 
L 310.862149 246.273251 
L 311.078615 219.519642 
L 311.165201 221.414194 
L 311.251787 218.881519 
L 311.554838 263.31629 
L 311.598131 260.193054 
L 311.684717 272.737524 
L 311.72801 270.133506 
L 311.987769 236.499266 
L 312.031062 236.26542 
L 312.074355 235.397414 
L 312.117648 236.523047 
L 312.377406 267.15692 
L 312.550578 275.218674 
L 312.593871 274.521098 
L 312.810336 244.32321 
L 312.853629 244.782976 
L 312.940216 245.738179 
L 313.026802 255.119777 
L 313.070095 253.74048 
L 313.113388 247.771453 
L 313.156681 252.452344 
L 313.243267 278.940398 
L 313.28656 272.412517 
L 313.416439 274.782689 
L 313.459732 274.461645 
L 313.71949 247.751635 
L 313.806076 237.739841 
L 313.849369 241.643886 
L 314.239007 278.952288 
L 314.2823 278.19526 
L 314.455472 261.326615 
L 314.671937 242.614943 
L 314.71523 241.275281 
L 315.104868 283.185304 
L 315.148161 281.964546 
L 315.451212 241.762791 
L 315.494505 242.765556 
L 315.71097 255.520091 
L 316.014022 282.630414 
L 316.057315 283.078289 
L 316.100608 280.882512 
L 316.403659 240.482581 
L 316.620124 262.139132 
L 316.793297 285.167052 
L 317.182934 240.010925 
L 317.26952 241.810353 
L 317.485985 262.753474 
L 317.615864 276.276927 
L 317.745744 280.379147 
L 318.005502 249.384596 
L 318.092088 237.391053 
L 318.178674 237.823074 
L 318.308553 257.390862 
L 318.395139 275.321724 
L 318.438432 267.870349 
L 318.481725 268.476764 
L 318.568311 280.775497 
L 318.611604 279.007777 
L 318.871363 241.723156 
L 318.914656 240.783807 
L 318.957949 241.437784 
L 319.001242 242.000601 
L 319.390879 278.718442 
L 319.434172 277.565064 
L 319.477465 277.644334 
L 319.650638 257.925934 
L 319.82381 242.171031 
L 319.867103 242.230483 
L 320.040275 251.528849 
L 320.25674 281.960583 
L 320.343326 277.933669 
L 320.646378 243.486912 
L 320.862843 253.217299 
L 320.992722 275.389104 
L 321.036015 266.566358 
L 321.079308 266.831913 
L 321.209187 281.187701 
L 321.339066 265.833111 
L 321.512238 243.423496 
L 321.598825 238.572175 
L 321.642118 240.177392 
L 321.771997 260.819287 
L 321.81529 272.372882 
L 321.901876 270.232594 
L 322.075048 277.71964 
L 322.118341 277.842509 
L 322.464685 241.128631 
L 322.507979 242.95184 
L 322.681151 266.257206 
L 322.724444 264.105026 
L 322.897616 280.819096 
L 322.940909 280.811169 
L 323.24396 243.851554 
L 323.287253 245.179326 
L 323.373839 245.9205 
L 323.460426 250.660843 
L 323.633598 276.114424 
L 323.763477 286.165854 
L 323.850063 271.263103 
L 324.196407 238.623701 
L 324.542752 276.73273 
L 324.586045 278.096173 
L 324.629338 277.993122 
L 324.80251 262.567189 
L 324.975682 241.382295 
L 325.495199 275.900395 
L 325.538492 278.425143 
L 325.581785 278.052574 
L 325.668371 265.123645 
L 325.841543 244.608582 
L 325.884836 243.304591 
L 325.928129 244.691815 
L 326.36106 281.318496 
L 326.490939 267.707846 
L 326.79399 235.944376 
L 326.880576 246.083003 
L 326.967162 259.570785 
L 327.010455 252.238315 
L 327.183627 275.075988 
L 327.22692 268.825552 
L 327.529972 238.231314 
L 327.616558 233.827869 
L 327.703144 234.878195 
L 327.78973 245.944281 
L 328.006195 272.915881 
L 328.049488 270.5576 
L 328.35254 235.163567 
L 328.395833 235.861143 
L 328.482419 233.22938 
L 328.525712 233.435482 
L 328.612298 241.980783 
L 328.828763 272.31343 
L 329.001935 280.069995 
L 329.34828 242.091761 
L 329.391573 242.523782 
L 329.78121 282.939567 
L 329.867796 282.368823 
L 329.954382 277.53732 
L 330.170848 243.922897 
L 330.214141 245.020786 
L 330.257434 244.220159 
L 330.387313 261.20771 
L 330.603778 282.400531 
L 330.647071 283.926478 
L 330.690364 283.165486 
L 330.950122 256.138396 
L 331.036708 247.624804 
L 331.080001 249.023918 
L 331.209881 261.290943 
L 331.253174 268.980128 
L 331.296467 264.533084 
L 331.33976 263.914779 
L 331.426346 272.47197 
L 331.512932 283.193231 
L 331.686104 248.01719 
L 332.032448 143.547321 
L 332.075741 145.251625 
L 332.119035 140.971048 
L 332.292207 115.164715 
L 332.422086 99.453411 
L 332.465379 99.99641 
L 332.76843 179.115748 
L 332.984895 245.892755 
L 333.071482 245.008895 
L 333.287947 279.233697 
L 333.33124 274.743054 
L 333.590998 250.66877 
L 333.634291 251.425798 
L 333.937342 276.760474 
L 334.023929 291.94067 
L 334.067222 291.282729 
L 334.153808 281.445328 
L 334.586738 240.732281 
L 335.019669 283.129815 
L 335.062962 282.103269 
L 335.192841 265.476397 
L 335.366013 246.01166 
L 335.452599 243.11038 
L 335.625771 259.6778 
L 335.798943 278.369654 
L 336.058702 263.38367 
L 336.275167 238.05692 
L 336.31846 233.796161 
L 336.405046 252.35722 
L 336.448339 245.432989 
L 336.534925 260.153419 
L 336.621511 276.003446 
L 336.664804 271.239322 
L 336.75139 275.460447 
L 337.097735 236.166332 
L 337.141028 240.12983 
L 337.184321 239.899947 
L 337.357493 256.134433 
L 337.444079 272.531422 
L 337.530665 269.324953 
L 337.617251 267.80297 
L 337.963596 227.759754 
L 338.006889 227.75579 
L 338.396526 265.710243 
L 338.483112 264.624245 
L 338.526405 263.87118 
L 338.916043 227.17712 
L 339.175801 258.219233 
L 339.262387 263.344035 
L 339.30568 261.93303 
L 339.348973 260.799469 
L 339.695317 218.647673 
L 339.73861 221.747128 
L 339.825197 229.448204 
L 339.86849 222.884652 
L 339.911783 224.513649 
L 340.128248 252.888328 
L 340.171541 247.343395 
L 340.344713 234.937648 
L 340.561178 205.992225 
L 340.604471 205.746488 
L 340.950816 233.439446 
L 340.994109 235.952303 
L 341.037402 233.689146 
L 341.210574 223.134352 
L 341.427039 197.938398 
L 341.470332 195.599935 
L 341.556918 196.511539 
L 341.600211 195.607862 
L 341.773384 218.32663 
L 341.946556 224.481941 
L 342.033142 218.219615 
L 342.2929 184.054266 
L 342.336193 185.104593 
L 342.682538 222.670623 
L 342.725831 225.040795 
L 343.158761 189.000711 
L 343.202054 188.560763 
L 343.678278 248.191584 
L 343.938036 220.982173 
L 343.981329 220.466918 
L 344.067915 216.741231 
L 344.327673 249.05959 
L 344.544138 269.800572 
L 344.587432 264.021793 
L 344.84719 228.07287 
L 344.890483 229.230211 
L 345.106948 253.50267 
L 345.150241 256.150287 
L 345.323413 277.557137 
L 345.539879 259.665909 
L 345.713051 238.326438 
L 345.756344 241.049361 
L 345.84293 252.273986 
L 345.886223 248.369941 
L 345.972809 258.738451 
L 346.232567 281.588014 
L 346.27586 283.125851 
L 346.752084 239.931655 
L 347.055135 280.720008 
L 347.098428 279.507178 
L 347.488066 241.552725 
L 347.877703 283.728303 
L 347.920996 282.61456 
L 348.007582 268.900858 
L 348.050875 271.710978 
L 348.094168 273.581749 
L 348.353926 248.052861 
L 348.39722 249.15075 
L 348.483806 253.419437 
L 348.527099 252.476125 
L 348.570392 253.764261 
L 348.743564 278.238859 
L 348.786857 277.327254 
L 348.83015 277.672079 
L 348.873443 277.501648 
L 349.219787 243.831736 
L 349.306373 244.101254 
L 349.609425 272.697889 
L 349.739304 276.835781 
L 349.782597 275.53179 
L 350.042355 243.364044 
L 350.085648 247.834869 
L 350.431993 274.509207 
L 350.561872 288.738164 
L 350.605165 287.081422 
L 350.908216 236.087062 
L 350.994802 247.45041 
L 351.038095 243.574109 
L 351.124681 249.380633 
L 351.38444 281.774298 
L 351.427733 280.355366 
L 351.774077 242.674395 
L 351.81737 249.023918 
L 351.860663 251.794403 
L 351.903956 245.238778 
L 351.947249 246.610148 
L 352.077128 263.177568 
L 352.207007 278.888872 
L 352.250301 278.611427 
L 352.293594 280.272133 
L 352.336887 278.155625 
L 352.553352 255.694485 
L 352.596645 255.975893 
L 352.769817 238.223387 
L 352.81311 240.363676 
L 353.116161 285.559439 
L 353.505799 243.209467 
L 353.549092 246.427827 
L 353.592385 237.47825 
L 353.635678 239.103284 
L 353.895436 268.492618 
L 354.025315 281.251117 
L 354.068608 280.953854 
L 354.458246 243.617708 
L 354.544832 244.965297 
L 354.718004 272.400627 
L 354.847883 283.133778 
L 354.891176 282.000218 
L 355.194228 243.546365 
L 355.237521 246.308922 
L 355.280814 249.622406 
L 355.324107 245.793668 
L 355.3674 244.727487 
L 355.410693 245.857084 
L 355.497279 254.065487 
L 355.713744 283.0228 
L 355.80033 276.435467 
L 356.189968 239.816713 
L 356.276554 250.316018 
L 356.622898 283.391405 
L 356.666191 280.985562 
L 356.839363 260.533915 
L 356.925949 254.13683 
L 357.055829 242.955803 
L 357.229001 265.099864 
L 357.445466 280.478235 
L 357.618638 266.395928 
L 357.921689 237.941979 
L 358.311327 285.293884 
L 358.397913 278.246786 
L 358.441206 277.790983 
L 358.700964 252.967598 
L 358.78755 232.278141 
L 358.830843 239.777078 
L 359.133895 283.355734 
L 359.177188 284.659725 
L 359.220481 283.708485 
L 359.566825 249.578808 
L 359.610118 237.577337 
L 359.696704 241.564616 
L 360.043049 279.011741 
L 360.086342 277.977268 
L 360.3461 249.729421 
L 360.389393 250.60139 
L 360.519272 235.131859 
L 360.562565 241.65974 
L 360.952203 279.982798 
L 360.995496 279.546813 
L 361.385133 242.920132 
L 361.644891 263.823618 
L 361.818063 274.572623 
L 361.861357 273.363757 
L 362.250994 231.009822 
L 362.597338 269.059398 
L 362.683924 266.265133 
L 362.727217 265.543776 
L 362.813804 259.162545 
L 363.030269 229.250029 
L 363.073562 228.500928 
L 363.290027 248.215365 
L 363.549785 272.432335 
L 363.636371 268.016998 
L 363.766251 246.685455 
L 363.809544 249.360816 
L 363.852837 247.478154 
L 363.939423 233.399811 
L 363.982716 237.664534 
L 364.372353 284.421915 
L 364.415646 285.551512 
L 364.805284 237.664534 
L 364.848577 239.25786 
L 365.021749 260.438791 
L 365.108335 270.327718 
L 365.281507 283.141705 
L 365.454679 260.601295 
L 365.627851 240.14172 
L 365.671145 241.334733 
L 365.757731 248.10835 
L 366.060782 281.588014 
L 366.104075 283.649033 
L 366.147368 281.675211 
L 367.013229 167.375869 
L 367.359573 53.568 
L 367.446159 76.643483 
L 367.922383 260.740017 
L 368.008969 253.871276 
L 368.052262 247.926029 
L 368.095555 251.195915 
L 368.138848 253.256934 
L 368.225434 244.794866 
L 368.268727 244.961333 
L 368.31202 244.985114 
L 368.701658 295.488 
L 368.831537 284.956987 
L 369.091295 248.26689 
L 369.177881 252.059957 
L 369.524226 275.943994 
L 369.654105 280.815132 
L 369.783984 250.660843 
L 369.827277 257.299701 
L 369.87057 257.172869 
L 370.000449 240.28837 
L 370.043742 241.861878 
L 370.3035 270.934133 
L 370.390086 278.536121 
L 370.476673 276.340343 
L 370.519966 276.165949 
L 370.736431 246.515024 
L 370.823017 233.459263 
L 370.86631 237.236476 
L 371.255947 275.016535 
L 371.342533 274.073223 
L 371.558999 255.405149 
L 371.732171 231.227814 
L 371.775464 229.824736 
L 371.905343 244.779012 
L 372.121808 270.668578 
L 372.165101 270.292046 
L 372.208394 271.19176 
L 372.251687 268.825552 
L 372.554739 226.166428 
L 372.641325 227.850914 
L 373.030962 267.509671 
L 373.074255 265.294076 
L 373.507186 227.680484 
L 373.593772 232.991571 
L 373.85353 258.992115 
L 374.156581 235.032772 
L 374.243167 221.723347 
L 374.28646 222.036463 
L 374.546219 238.603883 
L 374.719391 251.560557 
L 374.762684 251.572447 
L 375.152321 204.129381 
L 375.238907 210.252985 
L 375.325494 212.496325 
L 375.628545 244.723523 
L 375.671838 244.140889 
L 375.974889 202.032691 
L 376.018182 204.109564 
L 376.061475 201.216211 
L 376.148061 194.379177 
L 376.191354 198.719207 
L 376.40782 226.602413 
L 376.494406 223.082827 
L 376.667578 211.739297 
L 376.884043 183.959142 
L 376.927336 184.173171 
L 377.316974 222.559645 
L 377.360267 218.82603 
L 377.576732 196.598736 
L 377.620025 185.885402 
L 377.706611 186.440292 
L 377.749904 186.535416 
L 377.83649 190.661417 
L 377.966369 202.567763 
L 378.139542 231.667762 
L 378.182835 229.289664 
L 378.226128 232.777542 
L 378.269421 236.170296 
L 378.312714 232.860775 
L 378.529179 197.530158 
L 378.615765 205.278796 
L 378.659058 202.516238 
L 378.702351 205.71478 
L 379.005402 251.620009 
L 379.048695 254.105122 
L 379.091989 253.601758 
L 379.178575 248.421467 
L 379.221868 250.27242 
L 379.265161 254.881968 
L 379.39504 221.172421 
L 379.481626 225.552086 
L 380.001142 271.144198 
L 380.044436 270.169178 
L 380.260901 236.788601 
L 380.434073 238.393818 
L 380.780417 283.32799 
L 380.82371 282.551144 
L 381.170055 235.662968 
L 381.256641 240.36764 
L 381.38652 252.737715 
L 381.602985 281.885276 
L 381.689571 279.832185 
L 382.079209 241.17223 
L 382.165795 244.398517 
L 382.555432 285.464315 
L 382.685311 274.560733 
L 382.728604 270.244484 
L 382.901776 238.61181 
L 382.988363 241.02558 
L 383.074949 250.395288 
L 383.334707 280.002615 
L 383.378 280.830986 
L 383.421293 279.840112 
L 383.767637 240.565814 
L 383.854223 241.160339 
L 383.984103 245.429026 
L 384.200568 279.364492 
L 384.243861 283.213048 
L 384.287154 282.53529 
L 384.633498 239.662137 
L 384.676791 241.108814 
L 384.979843 262.301635 
L 385.066429 269.638069 
L 385.153015 279.388273 
L 385.196308 275.46441 
L 385.542652 239.646283 
L 385.585945 240.395384 
L 385.759117 259.233888 
L 385.975583 273.760106 
L 386.105462 275.519899 
L 386.36522 234.687948 
L 386.408513 236.955068 
L 386.884737 271.90519 
L 386.92803 270.632907 
L 387.014616 276.011373 
L 387.231081 236.554755 
L 387.274374 235.028808 
L 387.317667 235.845289 
L 387.534132 259.959208 
L 387.707304 276.356197 
L 387.92377 254.331041 
L 388.096942 238.524613 
L 388.183528 243.978386 
L 388.443286 275.127513 
L 388.486579 271.82592 
L 388.616458 282.729501 
L 388.962803 235.163567 
L 389.049389 232.987607 
L 389.395733 278.793748 
L 389.871957 240.268552 
L 389.958543 242.547563 
L 390.34818 274.861959 
L 390.434766 279.277295 
L 390.651232 240.351786 
L 390.737818 238.972488 
L 390.781111 239.341094 
L 391.214041 283.835317 
L 391.257334 282.816698 
L 391.646972 240.36764 
L 391.690265 242.706103 
L 391.993316 282.566998 
L 392.036609 281.409657 
L 392.426246 241.180157 
L 392.469539 238.75846 
L 392.512832 240.328005 
L 392.989056 285.967679 
L 393.292107 237.652644 
L 393.378693 245.242742 
L 393.465279 254.37464 
L 393.508573 266.288914 
L 393.595159 263.62148 
L 393.638452 264.644062 
L 393.768331 283.97404 
L 393.811624 281.635576 
L 394.028089 250.629135 
L 394.114675 239.765188 
L 394.157968 241.378331 
L 394.201261 241.834134 
L 394.244554 239.432254 
L 394.720778 285.143271 
L 394.980536 237.779476 
L 395.023829 238.048993 
L 395.543346 280.882512 
L 395.846397 235.980048 
L 395.932983 236.249566 
L 395.976276 235.401377 
L 396.409207 277.236094 
L 396.4525 269.047508 
L 396.712258 226.971018 
L 396.798844 223.364235 
L 397.275067 271.734759 
L 397.318361 270.676505 
L 397.534826 229.384788 
L 397.578119 234.168729 
L 397.88117 257.945751 
L 398.054342 279.1465 
L 398.097635 277.394634 
L 398.140928 282.174612 
L 398.184221 279.435835 
L 398.400687 247.914139 
L 398.487273 244.806757 
L 398.487273 244.806757 
" style="fill:none;stroke:#1f77b4;stroke-linecap:square;stroke-width:1.5;"/>
   </g>
   <g id="patch_3">
    <path d="M 57.6 307.584 
L 57.6 41.472 
" style="fill:none;stroke:#000000;stroke-linecap:square;stroke-linejoin:miter;stroke-width:0.8;"/>
   </g>
   <g id="patch_4">
    <path d="M 414.72 307.584 
L 414.72 41.472 
" style="fill:none;stroke:#000000;stroke-linecap:square;stroke-linejoin:miter;stroke-width:0.8;"/>
   </g>
   <g id="patch_5">
    <path d="M 57.6 307.584 
L 414.72 307.584 
" style="fill:none;stroke:#000000;stroke-linecap:square;stroke-linejoin:miter;stroke-width:0.8;"/>
   </g>
   <g id="patch_6">
    <path d="M 57.6 41.472 
L 414.72 41.472 
" style="fill:none;stroke:#000000;stroke-linecap:square;stroke-linejoin:miter;stroke-width:0.8;"/>
   </g>
  </g>
 </g>
 <defs>
  <clipPath id="pcd6f506fb1">
   <rect height="266.112" width="357.12" x="57.6" y="41.472"/>
  </clipPath>
 </defs>
</svg>
