<?xml version="1.0" encoding="utf-8" standalone="no"?>
<!DOCTYPE svg PUBLIC "-//W3C//DTD SVG 1.1//EN"
  "http://www.w3.org/Graphics/SVG/1.1/DTD/svg11.dtd">
<!-- Created with matplotlib (http://matplotlib.org/) -->
<svg height="345.6pt" version="1.1" viewBox="0 0 460.8 345.6" width="460.8pt" xmlns="http://www.w3.org/2000/svg" xmlns:xlink="http://www.w3.org/1999/xlink">
 <defs>
  <style type="text/css">
*{stroke-linecap:butt;stroke-linejoin:round;}
  </style>
 </defs>
 <g id="figure_1">
  <g id="patch_1">
   <path d="M 0 345.6 
L 460.8 345.6 
L 460.8 0 
L 0 0 
z
" style="fill:#ffffff;"/>
  </g>
  <g id="axes_1">
   <g id="patch_2">
    <path d="M 57.6 307.584 
L 414.72 307.584 
L 414.72 41.472 
L 57.6 41.472 
z
" style="fill:#ffffff;"/>
   </g>
   <g id="matplotlib.axis_1">
    <g id="xtick_1">
     <g id="line2d_1">
      <defs>
       <path d="M 0 0 
L 0 3.5 
" id="m46620da812" style="stroke:#000000;stroke-width:0.8;"/>
      </defs>
      <g>
       <use style="stroke:#000000;stroke-width:0.8;" x="73.832727" xlink:href="#m46620da812" y="307.584"/>
      </g>
     </g>
     <g id="text_1">
      <!-- 0 -->
      <defs>
       <path d="M 31.78125 66.40625 
Q 24.171875 66.40625 20.328125 58.90625 
Q 16.5 51.421875 16.5 36.375 
Q 16.5 21.390625 20.328125 13.890625 
Q 24.171875 6.390625 31.78125 6.390625 
Q 39.453125 6.390625 43.28125 13.890625 
Q 47.125 21.390625 47.125 36.375 
Q 47.125 51.421875 43.28125 58.90625 
Q 39.453125 66.40625 31.78125 66.40625 
z
M 31.78125 74.21875 
Q 44.046875 74.21875 50.515625 64.515625 
Q 56.984375 54.828125 56.984375 36.375 
Q 56.984375 17.96875 50.515625 8.265625 
Q 44.046875 -1.421875 31.78125 -1.421875 
Q 19.53125 -1.421875 13.0625 8.265625 
Q 6.59375 17.96875 6.59375 36.375 
Q 6.59375 54.828125 13.0625 64.515625 
Q 19.53125 74.21875 31.78125 74.21875 
z
" id="DejaVuSans-30"/>
      </defs>
      <g transform="translate(70.651477 322.182437)scale(0.1 -0.1)">
       <use xlink:href="#DejaVuSans-30"/>
      </g>
     </g>
    </g>
    <g id="xtick_2">
     <g id="line2d_2">
      <g>
       <use style="stroke:#000000;stroke-width:0.8;" x="117.125772" xlink:href="#m46620da812" y="307.584"/>
      </g>
     </g>
     <g id="text_2">
      <!-- 2 -->
      <defs>
       <path d="M 19.1875 8.296875 
L 53.609375 8.296875 
L 53.609375 0 
L 7.328125 0 
L 7.328125 8.296875 
Q 12.9375 14.109375 22.625 23.890625 
Q 32.328125 33.6875 34.8125 36.53125 
Q 39.546875 41.84375 41.421875 45.53125 
Q 43.3125 49.21875 43.3125 52.78125 
Q 43.3125 58.59375 39.234375 62.25 
Q 35.15625 65.921875 28.609375 65.921875 
Q 23.96875 65.921875 18.8125 64.3125 
Q 13.671875 62.703125 7.8125 59.421875 
L 7.8125 69.390625 
Q 13.765625 71.78125 18.9375 73 
Q 24.125 74.21875 28.421875 74.21875 
Q 39.75 74.21875 46.484375 68.546875 
Q 53.21875 62.890625 53.21875 53.421875 
Q 53.21875 48.921875 51.53125 44.890625 
Q 49.859375 40.875 45.40625 35.40625 
Q 44.1875 33.984375 37.640625 27.21875 
Q 31.109375 20.453125 19.1875 8.296875 
z
" id="DejaVuSans-32"/>
      </defs>
      <g transform="translate(113.944522 322.182437)scale(0.1 -0.1)">
       <use xlink:href="#DejaVuSans-32"/>
      </g>
     </g>
    </g>
    <g id="xtick_3">
     <g id="line2d_3">
      <g>
       <use style="stroke:#000000;stroke-width:0.8;" x="160.418818" xlink:href="#m46620da812" y="307.584"/>
      </g>
     </g>
     <g id="text_3">
      <!-- 4 -->
      <defs>
       <path d="M 37.796875 64.3125 
L 12.890625 25.390625 
L 37.796875 25.390625 
z
M 35.203125 72.90625 
L 47.609375 72.90625 
L 47.609375 25.390625 
L 58.015625 25.390625 
L 58.015625 17.1875 
L 47.609375 17.1875 
L 47.609375 0 
L 37.796875 0 
L 37.796875 17.1875 
L 4.890625 17.1875 
L 4.890625 26.703125 
z
" id="DejaVuSans-34"/>
      </defs>
      <g transform="translate(157.237568 322.182437)scale(0.1 -0.1)">
       <use xlink:href="#DejaVuSans-34"/>
      </g>
     </g>
    </g>
    <g id="xtick_4">
     <g id="line2d_4">
      <g>
       <use style="stroke:#000000;stroke-width:0.8;" x="203.711863" xlink:href="#m46620da812" y="307.584"/>
      </g>
     </g>
     <g id="text_4">
      <!-- 6 -->
      <defs>
       <path d="M 33.015625 40.375 
Q 26.375 40.375 22.484375 35.828125 
Q 18.609375 31.296875 18.609375 23.390625 
Q 18.609375 15.53125 22.484375 10.953125 
Q 26.375 6.390625 33.015625 6.390625 
Q 39.65625 6.390625 43.53125 10.953125 
Q 47.40625 15.53125 47.40625 23.390625 
Q 47.40625 31.296875 43.53125 35.828125 
Q 39.65625 40.375 33.015625 40.375 
z
M 52.59375 71.296875 
L 52.59375 62.3125 
Q 48.875 64.0625 45.09375 64.984375 
Q 41.3125 65.921875 37.59375 65.921875 
Q 27.828125 65.921875 22.671875 59.328125 
Q 17.53125 52.734375 16.796875 39.40625 
Q 19.671875 43.65625 24.015625 45.921875 
Q 28.375 48.1875 33.59375 48.1875 
Q 44.578125 48.1875 50.953125 41.515625 
Q 57.328125 34.859375 57.328125 23.390625 
Q 57.328125 12.15625 50.6875 5.359375 
Q 44.046875 -1.421875 33.015625 -1.421875 
Q 20.359375 -1.421875 13.671875 8.265625 
Q 6.984375 17.96875 6.984375 36.375 
Q 6.984375 53.65625 15.1875 63.9375 
Q 23.390625 74.21875 37.203125 74.21875 
Q 40.921875 74.21875 44.703125 73.484375 
Q 48.484375 72.75 52.59375 71.296875 
z
" id="DejaVuSans-36"/>
      </defs>
      <g transform="translate(200.530613 322.182437)scale(0.1 -0.1)">
       <use xlink:href="#DejaVuSans-36"/>
      </g>
     </g>
    </g>
    <g id="xtick_5">
     <g id="line2d_5">
      <g>
       <use style="stroke:#000000;stroke-width:0.8;" x="247.004908" xlink:href="#m46620da812" y="307.584"/>
      </g>
     </g>
     <g id="text_5">
      <!-- 8 -->
      <defs>
       <path d="M 31.78125 34.625 
Q 24.75 34.625 20.71875 30.859375 
Q 16.703125 27.09375 16.703125 20.515625 
Q 16.703125 13.921875 20.71875 10.15625 
Q 24.75 6.390625 31.78125 6.390625 
Q 38.8125 6.390625 42.859375 10.171875 
Q 46.921875 13.96875 46.921875 20.515625 
Q 46.921875 27.09375 42.890625 30.859375 
Q 38.875 34.625 31.78125 34.625 
z
M 21.921875 38.8125 
Q 15.578125 40.375 12.03125 44.71875 
Q 8.5 49.078125 8.5 55.328125 
Q 8.5 64.0625 14.71875 69.140625 
Q 20.953125 74.21875 31.78125 74.21875 
Q 42.671875 74.21875 48.875 69.140625 
Q 55.078125 64.0625 55.078125 55.328125 
Q 55.078125 49.078125 51.53125 44.71875 
Q 48 40.375 41.703125 38.8125 
Q 48.828125 37.15625 52.796875 32.3125 
Q 56.78125 27.484375 56.78125 20.515625 
Q 56.78125 9.90625 50.3125 4.234375 
Q 43.84375 -1.421875 31.78125 -1.421875 
Q 19.734375 -1.421875 13.25 4.234375 
Q 6.78125 9.90625 6.78125 20.515625 
Q 6.78125 27.484375 10.78125 32.3125 
Q 14.796875 37.15625 21.921875 38.8125 
z
M 18.3125 54.390625 
Q 18.3125 48.734375 21.84375 45.5625 
Q 25.390625 42.390625 31.78125 42.390625 
Q 38.140625 42.390625 41.71875 45.5625 
Q 45.3125 48.734375 45.3125 54.390625 
Q 45.3125 60.0625 41.71875 63.234375 
Q 38.140625 66.40625 31.78125 66.40625 
Q 25.390625 66.40625 21.84375 63.234375 
Q 18.3125 60.0625 18.3125 54.390625 
z
" id="DejaVuSans-38"/>
      </defs>
      <g transform="translate(243.823658 322.182437)scale(0.1 -0.1)">
       <use xlink:href="#DejaVuSans-38"/>
      </g>
     </g>
    </g>
    <g id="xtick_6">
     <g id="line2d_6">
      <g>
       <use style="stroke:#000000;stroke-width:0.8;" x="290.297953" xlink:href="#m46620da812" y="307.584"/>
      </g>
     </g>
     <g id="text_6">
      <!-- 10 -->
      <defs>
       <path d="M 12.40625 8.296875 
L 28.515625 8.296875 
L 28.515625 63.921875 
L 10.984375 60.40625 
L 10.984375 69.390625 
L 28.421875 72.90625 
L 38.28125 72.90625 
L 38.28125 8.296875 
L 54.390625 8.296875 
L 54.390625 0 
L 12.40625 0 
z
" id="DejaVuSans-31"/>
      </defs>
      <g transform="translate(283.935453 322.182437)scale(0.1 -0.1)">
       <use xlink:href="#DejaVuSans-31"/>
       <use x="63.623047" xlink:href="#DejaVuSans-30"/>
      </g>
     </g>
    </g>
    <g id="xtick_7">
     <g id="line2d_7">
      <g>
       <use style="stroke:#000000;stroke-width:0.8;" x="333.590998" xlink:href="#m46620da812" y="307.584"/>
      </g>
     </g>
     <g id="text_7">
      <!-- 12 -->
      <g transform="translate(327.228498 322.182437)scale(0.1 -0.1)">
       <use xlink:href="#DejaVuSans-31"/>
       <use x="63.623047" xlink:href="#DejaVuSans-32"/>
      </g>
     </g>
    </g>
    <g id="xtick_8">
     <g id="line2d_8">
      <g>
       <use style="stroke:#000000;stroke-width:0.8;" x="376.884043" xlink:href="#m46620da812" y="307.584"/>
      </g>
     </g>
     <g id="text_8">
      <!-- 14 -->
      <g transform="translate(370.521543 322.182437)scale(0.1 -0.1)">
       <use xlink:href="#DejaVuSans-31"/>
       <use x="63.623047" xlink:href="#DejaVuSans-34"/>
      </g>
     </g>
    </g>
   </g>
   <g id="matplotlib.axis_2">
    <g id="ytick_1">
     <g id="line2d_9">
      <defs>
       <path d="M 0 0 
L -3.5 0 
" id="m4831617e86" style="stroke:#000000;stroke-width:0.8;"/>
      </defs>
      <g>
       <use style="stroke:#000000;stroke-width:0.8;" x="57.6" xlink:href="#m4831617e86" y="284.617288"/>
      </g>
     </g>
     <g id="text_9">
      <!-- −10000 -->
      <defs>
       <path d="M 10.59375 35.5 
L 73.1875 35.5 
L 73.1875 27.203125 
L 10.59375 27.203125 
z
" id="DejaVuSans-2212"/>
      </defs>
      <g transform="translate(10.407812 288.416507)scale(0.1 -0.1)">
       <use xlink:href="#DejaVuSans-2212"/>
       <use x="83.789062" xlink:href="#DejaVuSans-31"/>
       <use x="147.412109" xlink:href="#DejaVuSans-30"/>
       <use x="211.035156" xlink:href="#DejaVuSans-30"/>
       <use x="274.658203" xlink:href="#DejaVuSans-30"/>
       <use x="338.28125" xlink:href="#DejaVuSans-30"/>
      </g>
     </g>
    </g>
    <g id="ytick_2">
     <g id="line2d_10">
      <g>
       <use style="stroke:#000000;stroke-width:0.8;" x="57.6" xlink:href="#m4831617e86" y="244.219185"/>
      </g>
     </g>
     <g id="text_10">
      <!-- 0 -->
      <g transform="translate(44.2375 248.018404)scale(0.1 -0.1)">
       <use xlink:href="#DejaVuSans-30"/>
      </g>
     </g>
    </g>
    <g id="ytick_3">
     <g id="line2d_11">
      <g>
       <use style="stroke:#000000;stroke-width:0.8;" x="57.6" xlink:href="#m4831617e86" y="203.821082"/>
      </g>
     </g>
     <g id="text_11">
      <!-- 10000 -->
      <g transform="translate(18.7875 207.620301)scale(0.1 -0.1)">
       <use xlink:href="#DejaVuSans-31"/>
       <use x="63.623047" xlink:href="#DejaVuSans-30"/>
       <use x="127.246094" xlink:href="#DejaVuSans-30"/>
       <use x="190.869141" xlink:href="#DejaVuSans-30"/>
       <use x="254.492188" xlink:href="#DejaVuSans-30"/>
      </g>
     </g>
    </g>
    <g id="ytick_4">
     <g id="line2d_12">
      <g>
       <use style="stroke:#000000;stroke-width:0.8;" x="57.6" xlink:href="#m4831617e86" y="163.422979"/>
      </g>
     </g>
     <g id="text_12">
      <!-- 20000 -->
      <g transform="translate(18.7875 167.222198)scale(0.1 -0.1)">
       <use xlink:href="#DejaVuSans-32"/>
       <use x="63.623047" xlink:href="#DejaVuSans-30"/>
       <use x="127.246094" xlink:href="#DejaVuSans-30"/>
       <use x="190.869141" xlink:href="#DejaVuSans-30"/>
       <use x="254.492188" xlink:href="#DejaVuSans-30"/>
      </g>
     </g>
    </g>
    <g id="ytick_5">
     <g id="line2d_13">
      <g>
       <use style="stroke:#000000;stroke-width:0.8;" x="57.6" xlink:href="#m4831617e86" y="123.024876"/>
      </g>
     </g>
     <g id="text_13">
      <!-- 30000 -->
      <defs>
       <path d="M 40.578125 39.3125 
Q 47.65625 37.796875 51.625 33 
Q 55.609375 28.21875 55.609375 21.1875 
Q 55.609375 10.40625 48.1875 4.484375 
Q 40.765625 -1.421875 27.09375 -1.421875 
Q 22.515625 -1.421875 17.65625 -0.515625 
Q 12.796875 0.390625 7.625 2.203125 
L 7.625 11.71875 
Q 11.71875 9.328125 16.59375 8.109375 
Q 21.484375 6.890625 26.8125 6.890625 
Q 36.078125 6.890625 40.9375 10.546875 
Q 45.796875 14.203125 45.796875 21.1875 
Q 45.796875 27.640625 41.28125 31.265625 
Q 36.765625 34.90625 28.71875 34.90625 
L 20.21875 34.90625 
L 20.21875 43.015625 
L 29.109375 43.015625 
Q 36.375 43.015625 40.234375 45.921875 
Q 44.09375 48.828125 44.09375 54.296875 
Q 44.09375 59.90625 40.109375 62.90625 
Q 36.140625 65.921875 28.71875 65.921875 
Q 24.65625 65.921875 20.015625 65.03125 
Q 15.375 64.15625 9.8125 62.3125 
L 9.8125 71.09375 
Q 15.4375 72.65625 20.34375 73.4375 
Q 25.25 74.21875 29.59375 74.21875 
Q 40.828125 74.21875 47.359375 69.109375 
Q 53.90625 64.015625 53.90625 55.328125 
Q 53.90625 49.265625 50.4375 45.09375 
Q 46.96875 40.921875 40.578125 39.3125 
z
" id="DejaVuSans-33"/>
      </defs>
      <g transform="translate(18.7875 126.824095)scale(0.1 -0.1)">
       <use xlink:href="#DejaVuSans-33"/>
       <use x="63.623047" xlink:href="#DejaVuSans-30"/>
       <use x="127.246094" xlink:href="#DejaVuSans-30"/>
       <use x="190.869141" xlink:href="#DejaVuSans-30"/>
       <use x="254.492188" xlink:href="#DejaVuSans-30"/>
      </g>
     </g>
    </g>
    <g id="ytick_6">
     <g id="line2d_14">
      <g>
       <use style="stroke:#000000;stroke-width:0.8;" x="57.6" xlink:href="#m4831617e86" y="82.626773"/>
      </g>
     </g>
     <g id="text_14">
      <!-- 40000 -->
      <g transform="translate(18.7875 86.425992)scale(0.1 -0.1)">
       <use xlink:href="#DejaVuSans-34"/>
       <use x="63.623047" xlink:href="#DejaVuSans-30"/>
       <use x="127.246094" xlink:href="#DejaVuSans-30"/>
       <use x="190.869141" xlink:href="#DejaVuSans-30"/>
       <use x="254.492188" xlink:href="#DejaVuSans-30"/>
      </g>
     </g>
    </g>
    <g id="ytick_7">
     <g id="line2d_15">
      <g>
       <use style="stroke:#000000;stroke-width:0.8;" x="57.6" xlink:href="#m4831617e86" y="42.22867"/>
      </g>
     </g>
     <g id="text_15">
      <!-- 50000 -->
      <defs>
       <path d="M 10.796875 72.90625 
L 49.515625 72.90625 
L 49.515625 64.59375 
L 19.828125 64.59375 
L 19.828125 46.734375 
Q 21.96875 47.46875 24.109375 47.828125 
Q 26.265625 48.1875 28.421875 48.1875 
Q 40.625 48.1875 47.75 41.5 
Q 54.890625 34.8125 54.890625 23.390625 
Q 54.890625 11.625 47.5625 5.09375 
Q 40.234375 -1.421875 26.90625 -1.421875 
Q 22.3125 -1.421875 17.546875 -0.640625 
Q 12.796875 0.140625 7.71875 1.703125 
L 7.71875 11.625 
Q 12.109375 9.234375 16.796875 8.0625 
Q 21.484375 6.890625 26.703125 6.890625 
Q 35.15625 6.890625 40.078125 11.328125 
Q 45.015625 15.765625 45.015625 23.390625 
Q 45.015625 31 40.078125 35.4375 
Q 35.15625 39.890625 26.703125 39.890625 
Q 22.75 39.890625 18.8125 39.015625 
Q 14.890625 38.140625 10.796875 36.28125 
z
" id="DejaVuSans-35"/>
      </defs>
      <g transform="translate(18.7875 46.027889)scale(0.1 -0.1)">
       <use xlink:href="#DejaVuSans-35"/>
       <use x="63.623047" xlink:href="#DejaVuSans-30"/>
       <use x="127.246094" xlink:href="#DejaVuSans-30"/>
       <use x="190.869141" xlink:href="#DejaVuSans-30"/>
       <use x="254.492188" xlink:href="#DejaVuSans-30"/>
      </g>
     </g>
    </g>
   </g>
   <g id="line2d_16">
    <path clip-path="url(#p9c344faab0)" d="M 73.832727 237.023865 
L 74.179072 275.337426 
L 74.222365 274.541584 
L 74.612002 234.890846 
L 74.655295 235.670529 
L 74.87176 266.247853 
L 75.218105 211.710414 
L 75.607742 98.890632 
L 75.780914 85.135078 
L 75.824207 86.14099 
L 75.910793 110.63436 
L 76.213845 194.561419 
L 76.473603 223.910641 
L 76.516896 226.811225 
L 76.776654 272.957978 
L 76.819947 274.40019 
L 76.86324 272.881222 
L 77.036413 259.06911 
L 77.122999 247.345581 
L 77.166292 247.765721 
L 77.252878 249.252371 
L 77.382757 257.065364 
L 77.555929 278.141055 
L 77.599222 278.896499 
L 77.642515 278.771265 
L 77.902274 244.485395 
L 78.075446 233.004254 
L 78.118739 232.281128 
L 78.508376 271.697557 
L 78.551669 273.058973 
L 78.681548 264.942994 
L 78.854721 229.671411 
L 78.941307 234.030366 
L 78.9846 232.66087 
L 79.027893 233.206245 
L 79.374237 274.727415 
L 79.41753 273.418516 
L 79.504116 265.88831 
L 79.763874 227.800978 
L 79.850461 224.084353 
L 80.110219 257.683455 
L 80.240098 269.402945 
L 80.283391 267.431517 
L 80.629735 221.515034 
L 80.932787 251.373272 
L 81.105959 265.24598 
L 81.149252 264.967233 
L 81.495596 221.510994 
L 81.668768 228.289795 
L 81.885234 255.118176 
L 81.928527 257.299673 
L 81.97182 255.744346 
L 82.144992 241.689846 
L 82.361457 214.99882 
L 82.448043 213.609125 
L 82.577922 230.180427 
L 82.794388 253.473973 
L 82.837681 254.015307 
L 83.010853 233.848574 
L 83.184025 207.504971 
L 83.313904 208.623999 
L 83.357197 209.423881 
L 83.660249 236.963268 
L 83.703542 235.945236 
L 83.790128 231.776152 
L 83.876714 221.478675 
L 84.093179 194.319031 
L 84.136472 191.741632 
L 84.179765 191.818388 
L 84.266351 204.422596 
L 84.526109 228.152442 
L 84.612696 227.417196 
L 84.95904 178.596089 
L 85.002333 181.690584 
L 85.088919 184.575008 
L 85.39197 224.859997 
L 85.435263 224.682245 
L 85.521849 213.172825 
L 85.738315 184.522491 
L 85.824901 179.00815 
L 86.344417 227.691904 
L 86.517589 206.381904 
L 86.647469 194.34327 
L 86.690762 195.341103 
L 86.863934 219.46685 
L 87.123692 246.763848 
L 87.556623 217.002565 
L 87.599916 219.915269 
L 87.686502 231.505484 
L 87.94626 263.735091 
L 88.162725 255.760506 
L 88.37919 230.123869 
L 88.422483 231.667077 
L 88.768828 263.54118 
L 88.898707 273.12765 
L 88.942 271.948025 
L 89.288344 234.006127 
L 89.331637 234.36971 
L 89.721275 276.238304 
L 89.764568 274.884967 
L 89.93774 264.304704 
L 90.154205 235.125154 
L 90.240791 239.669941 
L 90.457257 267.944573 
L 90.630429 273.006456 
L 90.673722 273.402357 
L 90.717015 272.024782 
L 90.976773 234.482825 
L 91.063359 237.670235 
L 91.106652 239.548747 
L 91.323118 265.015711 
L 91.409704 280.641697 
L 91.452997 280.027646 
L 91.539583 270.897675 
L 91.582876 272.501479 
L 91.626169 273.862895 
L 91.92922 235.064557 
L 91.972513 237.549041 
L 92.188978 264.025957 
L 92.362151 272.299489 
L 92.405444 271.277417 
L 92.665202 235.157473 
L 92.795081 235.577613 
L 93.184718 271.083506 
L 93.228011 272.263131 
L 93.271305 270.768401 
L 93.617649 237.678315 
L 93.834114 247.709164 
L 94.050579 273.640706 
L 94.093872 273.208446 
L 94.180458 262.183804 
L 94.526803 232.390203 
L 94.91644 270.970391 
L 95.176199 247.923274 
L 95.262785 237.690434 
L 95.306078 237.77931 
L 95.825594 274.436549 
L 95.868887 270.505813 
L 95.955473 264.284505 
L 96.171939 231.275215 
L 96.215232 231.727674 
L 96.518283 263.836086 
L 96.648162 272.315648 
L 96.778041 257.554181 
L 97.081093 228.063566 
L 97.124386 228.964444 
L 97.514023 266.777068 
L 97.600609 263.561379 
L 97.773781 235.504897 
L 97.90366 221.466556 
L 98.163419 240.1224 
L 98.379884 270.198788 
L 98.423177 268.154644 
L 98.639642 238.659989 
L 98.769521 232.260929 
L 98.812814 234.074804 
L 99.245745 272.016702 
L 99.289038 271.443049 
L 99.418917 265.072268 
L 99.635382 237.977261 
L 99.678675 239.019532 
L 99.721968 246.977958 
L 99.765261 244.739903 
L 99.808554 239.91637 
L 99.851847 244.578311 
L 100.111606 277.009908 
L 100.198192 272.303529 
L 100.544536 237.839907 
L 100.587829 244.545992 
L 101.02076 278.209731 
L 101.064053 277.935024 
L 101.193932 259.695281 
L 101.367104 234.866607 
L 101.670155 260.422447 
L 101.800034 246.72749 
L 102.0165 187.705861 
L 102.362844 79.414706 
L 102.44943 70.971503 
L 102.492723 71.286608 
L 102.536016 73.702415 
L 102.709188 142.177199 
L 103.01224 202.511766 
L 103.315291 235.731126 
L 103.531756 269.423144 
L 103.661635 272.396444 
L 103.704928 270.833038 
L 103.878101 257.986441 
L 103.964687 249.826024 
L 104.00798 252.633692 
L 104.051273 252.952837 
L 104.094566 250.13709 
L 104.137859 253.239664 
L 104.484203 274.299195 
L 104.830548 238.110574 
L 104.960427 238.595352 
L 105.047013 245.160043 
L 105.220185 275.765646 
L 105.263478 272.889301 
L 105.393357 265.24194 
L 105.653115 235.4241 
L 105.696408 236.753198 
L 105.739702 240.821287 
L 105.782995 235.541255 
L 105.826288 237.213736 
L 106.172632 271.035028 
L 106.215925 271.935906 
L 106.648855 230.245064 
L 106.735442 238.853899 
L 106.951907 263.096801 
L 107.081786 269.398905 
L 107.168372 259.331698 
L 107.384837 223.922761 
L 107.42813 226.770827 
L 107.471423 228.463507 
L 107.514716 224.544891 
L 107.558009 230.426855 
L 107.861061 263.028124 
L 107.904354 263.985559 
L 107.947647 262.523148 
L 108.250698 228.855369 
L 108.293991 233.020413 
L 108.337284 231.436808 
L 108.380577 225.098345 
L 108.42387 227.586868 
L 108.683629 257.182519 
L 108.770215 254.689956 
L 108.98668 239.160925 
L 109.116559 223.462222 
L 109.159852 225.63564 
L 109.246438 215.144253 
L 109.333024 219.446651 
L 109.679369 250.423916 
L 109.765955 243.168417 
L 109.98242 210.805496 
L 110.025713 211.682135 
L 110.069006 211.621538 
L 110.112299 206.288989 
L 110.155592 209.326926 
L 110.54523 240.263793 
L 110.934867 195.248187 
L 110.97816 196.601523 
L 111.237918 215.596712 
L 111.367797 220.670713 
L 111.41109 220.355608 
L 111.670849 183.868041 
L 111.757435 190.016633 
L 111.844021 180.48268 
L 111.887314 185.281975 
L 112.147072 214.623117 
L 112.276951 218.885117 
L 112.709882 182.244038 
L 113.142812 232.697229 
L 113.359277 207.274702 
L 113.445864 207.610007 
L 113.489157 204.200407 
L 113.53245 198.257846 
L 113.575743 203.743908 
L 113.922087 252.100437 
L 114.008673 256.536149 
L 114.268431 227.825217 
L 114.355018 230.346059 
L 114.398311 227.057653 
L 114.441604 227.453555 
L 114.614776 251.906526 
L 114.787948 266.611436 
L 114.874534 268.837371 
L 115.047706 246.000324 
L 115.220878 232.721467 
L 115.264171 230.608647 
L 115.480637 258.935796 
L 115.610516 276.658444 
L 115.653809 275.725248 
L 115.783688 270.186668 
L 116.086739 236.151266 
L 116.130032 239.213443 
L 116.433084 272.558037 
L 116.476377 277.474486 
L 116.562963 275.402063 
L 116.606256 274.529464 
L 117.039186 240.227435 
L 117.342238 272.521678 
L 117.385531 269.168636 
L 117.428824 271.123904 
L 117.472117 273.733622 
L 117.51541 270.602769 
L 117.775168 243.750149 
L 117.818461 238.021698 
L 117.861754 240.453664 
L 118.078219 259.121628 
L 118.208099 279.453993 
L 118.251392 278.714708 
L 118.467857 262.321157 
L 118.554443 244.788381 
L 118.597736 248.706997 
L 118.641029 247.478894 
L 118.727615 238.518595 
L 118.770908 241.508055 
L 119.117252 279.348958 
L 119.203839 270.885555 
L 119.550183 238.861979 
L 119.593476 240.857645 
L 119.93982 276.088831 
L 120.069699 271.499606 
L 120.199579 260.78603 
L 120.372751 238.445879 
L 120.416044 238.724625 
L 120.93556 275.830283 
L 121.022146 266.94674 
L 121.238612 236.591606 
L 121.281905 234.539382 
L 121.325198 236.894591 
L 121.758128 277.724954 
L 121.801421 276.052473 
L 122.104473 234.850447 
L 122.147766 235.22211 
L 122.49411 273.054933 
L 122.580696 279.211604 
L 122.623989 278.944977 
L 123.013627 232.212451 
L 123.05692 235.302906 
L 123.446557 276.242344 
L 123.533143 277.793631 
L 123.663022 255.800904 
L 123.879487 235.032239 
L 124.095953 258.964075 
L 124.182539 269.750369 
L 124.225832 268.671739 
L 124.312418 263.803768 
L 124.355711 266.566998 
L 124.399004 268.300077 
L 124.702055 222.924927 
L 124.788641 227.962571 
L 124.918521 237.726792 
L 125.178279 268.493988 
L 125.308158 255.748386 
L 125.567916 226.378965 
L 125.914261 255.114136 
L 126.04414 264.223908 
L 126.087433 262.304998 
L 126.47707 232.23265 
L 126.520363 235.343304 
L 126.866708 278.040059 
L 126.953294 277.264416 
L 127.083173 267.677946 
L 127.256345 243.168417 
L 127.299638 245.766015 
L 127.342931 247.103192 
L 127.386224 241.536333 
L 127.429517 243.334049 
L 127.775862 283.388768 
L 127.819155 281.477938 
L 128.165499 234.636337 
L 128.252085 237.637917 
L 128.641722 280.15692 
L 128.685015 279.155047 
L 128.901481 258.083396 
L 128.988067 239.169005 
L 129.03136 239.253841 
L 129.161239 247.333461 
L 129.204532 252.528657 
L 129.247825 248.690837 
L 129.550876 214.99074 
L 129.637462 187.968449 
L 129.983807 70.300894 
L 130.070393 58.015831 
L 130.113686 61.049729 
L 130.589909 227.368719 
L 130.676496 214.219136 
L 130.849668 219.353735 
L 131.152719 269.067641 
L 131.282598 284.362362 
L 131.325891 283.162539 
L 131.628943 245.050968 
L 132.148459 275.406103 
L 132.191752 273.321561 
L 132.45151 238.62767 
L 132.494803 239.152845 
L 132.538096 239.467951 
L 132.58139 240.607177 
L 132.971027 274.695096 
L 133.187492 261.484917 
L 133.360664 234.264675 
L 133.403957 234.325272 
L 133.490543 240.708172 
L 133.836888 276.003995 
L 133.923474 269.592816 
L 134.096646 244.743943 
L 134.183232 233.484992 
L 134.226525 233.832415 
L 134.269818 233.840495 
L 134.313111 234.37375 
L 134.486284 250.072453 
L 134.659456 267.007337 
L 134.702749 266.5266 
L 134.875921 257.970282 
L 135.092386 228.552383 
L 135.525317 271.370333 
L 135.56861 268.069807 
L 135.958247 222.133125 
L 136.00154 222.185642 
L 136.434471 261.101135 
L 136.521057 257.259275 
L 136.650936 243.669353 
L 136.780815 215.439159 
L 136.824108 215.923936 
L 136.867401 215.85122 
L 136.910694 216.372355 
L 137.257038 254.714195 
L 137.300331 253.898153 
L 137.516797 229.299748 
L 137.689969 207.96147 
L 137.819848 214.821068 
L 138.036313 233.901092 
L 138.122899 243.697632 
L 138.166192 241.847399 
L 138.252778 238.971054 
L 138.339365 226.181014 
L 138.512537 195.688526 
L 138.55583 195.543093 
L 138.98876 230.414736 
L 139.032053 228.677617 
L 139.421691 184.377058 
L 139.464984 183.872081 
L 139.508277 184.017514 
L 139.638156 199.801053 
L 139.854621 220.933301 
L 139.897914 224.807479 
L 139.941207 222.953206 
L 140.157672 180.92706 
L 140.287552 184.086191 
L 140.417431 191.414407 
L 140.54731 209.177453 
L 140.720482 225.934586 
L 140.807068 226.984937 
L 140.893654 227.910053 
L 140.936947 224.468135 
L 141.023533 205.064926 
L 141.066826 205.670898 
L 141.153412 211.237756 
L 141.196706 214.35649 
L 141.239999 214.198937 
L 141.283292 211.944723 
L 141.629636 258.483338 
L 141.672929 259.460972 
L 141.889394 225.2155 
L 142.019273 227.227325 
L 142.105859 228.172641 
L 142.365618 265.447971 
L 142.452204 275.349546 
L 142.495497 274.085085 
L 142.582083 269.548378 
L 142.625376 266.894223 
L 142.798548 245.394352 
L 142.97172 239.871932 
L 143.015013 242.170584 
L 143.318065 280.37103 
L 143.361358 279.466112 
L 143.664409 244.562151 
L 143.750995 235.525096 
L 143.794288 240.498102 
L 144.183926 280.245796 
L 144.270512 275.543457 
L 144.400391 259.517529 
L 144.573563 237.597518 
L 144.746735 249.078659 
L 145.006493 274.432509 
L 145.09308 278.528876 
L 145.439424 242.485689 
L 145.52601 244.154131 
L 145.569303 243.370407 
L 145.829061 271.523845 
L 145.915647 277.842109 
L 145.95894 276.452414 
L 146.002234 274.598141 
L 146.045527 277.401769 
L 146.08882 275.305108 
L 146.261992 247.36578 
L 146.348578 244.449037 
L 146.391871 246.606295 
L 146.608336 262.777656 
L 146.781508 282.976708 
L 146.824801 280.564941 
L 146.868094 281.712247 
L 146.911387 284.043217 
L 147.214439 234.890846 
L 147.257732 235.060518 
L 147.647369 278.500598 
L 148.0803 243.027023 
L 148.123593 243.281531 
L 148.210179 251.037967 
L 148.296765 257.647097 
L 148.51323 282.879752 
L 148.902868 239.088208 
L 148.946161 239.112447 
L 149.205919 262.224202 
L 149.335798 279.207564 
L 149.422384 278.161254 
L 149.465677 279.579227 
L 149.552263 262.652422 
L 149.768728 236.430013 
L 149.812021 236.777437 
L 149.898608 245.770055 
L 150.244952 279.126768 
L 150.331538 283.829107 
L 150.50471 248.698917 
L 150.591296 240.728371 
L 150.634589 241.875678 
L 150.677882 241.495935 
L 150.721175 242.295818 
L 151.024227 269.152477 
L 151.197399 281.22747 
L 151.327278 258.503537 
L 151.587036 239.05993 
L 151.673622 249.624034 
L 151.890088 272.440882 
L 152.019967 283.35645 
L 152.06326 278.540996 
L 152.279725 244.194529 
L 152.323018 238.478197 
L 152.409604 240.397107 
L 152.452897 238.63171 
L 152.539483 239.536627 
L 152.582776 242.081708 
L 152.799242 271.592522 
L 152.885828 273.115531 
L 153.232172 230.014794 
L 153.448637 242.978546 
L 153.665102 263.840126 
L 153.794982 269.895802 
L 154.098033 225.712396 
L 154.271205 240.312271 
L 154.530963 274.307275 
L 154.574256 273.782099 
L 154.617549 275.862602 
L 154.660843 273.55183 
L 154.877308 243.293651 
L 155.180359 260.329531 
L 155.266945 277.114943 
L 155.310238 275.903 
L 155.396824 277.333093 
L 155.440117 278.751066 
L 155.48341 284.245208 
L 155.526703 279.029813 
L 155.699876 255.02122 
L 155.829755 239.245761 
L 155.873048 242.865431 
L 155.959634 250.452195 
L 156.262685 279.078291 
L 156.349271 283.837187 
L 156.565737 251.83381 
L 156.738909 245.345875 
L 157.215132 285.978287 
L 157.734649 181.650186 
L 158.080993 131.338388 
L 158.297458 68.794045 
L 158.470631 118.766498 
L 158.860268 255.352485 
L 158.946854 259.699321 
L 159.03344 251.304595 
L 159.076733 255.053539 
L 159.249905 239.407353 
L 159.336491 241.487856 
L 159.509664 267.791061 
L 159.769422 294.720436 
L 159.812715 291.775414 
L 160.115766 241.249507 
L 160.159059 237.524802 
L 160.202352 239.04781 
L 160.635283 287.569972 
L 160.895041 251.445988 
L 161.02492 240.679894 
L 161.501144 284.964294 
L 161.544437 276.674603 
L 161.890781 235.286747 
L 161.977367 240.54658 
L 162.367005 282.899951 
L 162.756642 231.465086 
L 162.886521 241.891837 
L 163.232865 275.406103 
L 163.57921 234.414148 
L 163.709089 230.818717 
L 164.055433 269.72613 
L 164.142019 263.868405 
L 164.488364 224.031835 
L 164.531657 225.942666 
L 164.834708 259.364016 
L 164.921294 270.853237 
L 164.964587 266.74475 
L 165.181053 229.719888 
L 165.354225 216.113807 
L 165.397518 216.671301 
L 165.484104 221.466556 
L 165.613983 233.468832 
L 165.787155 258.620691 
L 165.830448 251.522745 
L 166.306672 206.983836 
L 166.349965 206.842443 
L 166.653016 244.59447 
L 166.696309 238.922576 
L 167.12924 194.864405 
L 167.518877 225.037748 
L 167.908514 181.803698 
L 168.12498 200.180795 
L 168.341445 224.245945 
L 168.384738 223.357187 
L 168.55791 212.320425 
L 168.774375 188.36031 
L 168.817668 188.970322 
L 169.250599 249.834104 
L 169.293892 242.392773 
L 169.423771 238.700387 
L 169.596943 211.221597 
L 169.640236 212.207311 
L 169.726822 216.037051 
L 170.029874 262.935209 
L 170.073167 273.753821 
L 170.11646 269.366587 
L 170.246339 258.737846 
L 170.506097 232.761865 
L 170.592683 235.407941 
L 170.679269 243.10378 
L 170.939028 280.249836 
L 170.982321 275.301068 
L 171.025614 275.280869 
L 171.155493 271.192581 
L 171.501837 241.786802 
L 171.718302 274.129523 
L 171.804888 281.393102 
L 171.891474 269.843284 
L 171.934768 275.915119 
L 171.978061 274.981923 
L 172.324405 241.863558 
L 172.670749 287.739644 
L 172.757335 287.17407 
L 173.060387 243.435044 
L 173.146973 245.87105 
L 173.190266 242.740197 
L 173.233559 243.964259 
L 173.53661 285.69954 
L 173.579903 279.29644 
L 173.709782 274.460787 
L 174.012834 236.50677 
L 174.056127 239.548747 
L 174.359178 280.431627 
L 174.402471 275.741407 
L 174.445764 276.581688 
L 174.489057 279.332799 
L 174.53235 277.16746 
L 174.705522 255.703948 
L 174.835402 242.069588 
L 174.878695 242.740197 
L 175.225039 284.507796 
L 175.354918 280.298313 
L 175.484797 268.522266 
L 175.744556 242.752316 
L 175.787849 242.275619 
L 175.874435 247.260745 
L 176.0909 286.390347 
L 176.220779 282.326298 
L 176.437244 250.193647 
L 176.610416 241.241427 
L 176.653709 240.869765 
L 176.870175 267.063895 
L 176.956761 282.378816 
L 177.000054 277.474486 
L 177.043347 277.312893 
L 177.08664 279.167166 
L 177.432984 241.907996 
L 177.51957 243.95214 
L 177.692743 261.62227 
L 177.822622 288.414292 
L 177.865915 279.550948 
L 177.909208 278.318806 
L 177.952501 281.44158 
L 177.995794 279.599426 
L 178.168966 253.078071 
L 178.255552 243.039143 
L 178.298845 248.690837 
L 178.342138 248.929186 
L 178.385431 241.120233 
L 178.428724 241.342423 
L 178.601896 265.060149 
L 178.688483 282.479811 
L 178.731776 278.165293 
L 178.818362 278.24609 
L 178.991534 262.220162 
L 179.164706 239.791135 
L 179.207999 238.437799 
L 179.337878 254.156701 
L 179.467757 277.050306 
L 179.51105 285.533907 
L 179.597637 282.330338 
L 179.684223 275.668691 
L 179.857395 259.392295 
L 180.117153 238.191371 
L 180.203739 247.98791 
L 180.376911 276.121149 
L 180.420204 270.174549 
L 180.463497 273.55183 
L 180.550084 276.044393 
L 180.766549 249.838144 
L 180.983014 238.659989 
L 181.199479 267.346681 
L 181.242772 273.147849 
L 181.329358 270.045275 
L 181.415944 272.335847 
L 181.805582 225.21146 
L 181.978754 243.487562 
L 182.238512 270.719923 
L 182.281805 269.782687 
L 182.541564 230.394537 
L 182.671443 237.052144 
L 182.714736 237.843947 
L 182.887908 256.536149 
L 182.974494 273.495273 
L 183.017787 271.018869 
L 183.104373 274.905167 
L 183.147666 272.800425 
L 183.450718 248.00811 
L 183.537304 246.028602 
L 183.580597 247.135511 
L 183.797062 280.007447 
L 183.840355 273.236725 
L 184.013527 282.912071 
L 184.359871 243.911742 
L 184.61963 270.772441 
L 184.662923 280.496264 
L 184.749509 276.10499 
L 184.836095 282.221263 
L 184.879388 279.963009 
L 185.182439 242.917949 
L 185.225732 241.164671 
L 185.269025 243.600677 
L 185.355612 250.787499 
L 185.701956 287.505335 
L 185.745249 281.841521 
L 186.697696 76.922143 
L 186.957454 146.665428 
L 187.260506 255.922098 
L 187.303799 255.251489 
L 187.433678 270.837078 
L 187.520264 276.246384 
L 187.780022 255.66355 
L 187.823315 256.031173 
L 187.953194 260.369929 
L 188.03978 277.737074 
L 188.083073 293.977111 
L 188.169659 286.76605 
L 188.212953 290.16757 
L 188.256246 288.301177 
L 188.516004 259.848794 
L 188.732469 236.054311 
L 188.819055 252.165074 
L 188.948934 273.3458 
L 189.03552 269.92408 
L 189.1654 278.755106 
L 189.208693 278.710668 
L 189.425158 248.807992 
L 189.511744 240.55466 
L 189.555037 242.845232 
L 189.59833 245.337795 
L 189.641623 241.891837 
L 189.728209 243.830946 
L 189.987967 273.729582 
L 190.074553 272.202533 
L 190.204433 255.203012 
L 190.377605 241.843359 
L 190.420898 241.811041 
L 190.507484 237.811628 
L 190.637363 255.178773 
L 190.853828 273.511432 
L 190.897121 274.581982 
L 191.330052 229.170474 
L 191.373345 231.61052 
L 191.546517 260.895104 
L 191.633103 260.373969 
L 191.762982 269.621095 
L 191.806275 266.995218 
L 192.15262 228.847289 
L 192.195913 230.851035 
L 192.58555 270.441176 
L 192.628843 268.502067 
L 192.758722 250.613787 
L 193.061774 221.074694 
L 193.191653 237.338971 
L 193.364825 251.1834 
L 193.451411 258.826722 
L 193.494704 258.451019 
L 193.711169 230.156188 
L 193.884341 219.66884 
L 193.927634 221.422118 
L 194.014221 214.106022 
L 194.273979 247.535452 
L 194.317272 248.440369 
L 194.490444 231.901386 
L 194.706909 206.664691 
L 194.793495 208.531083 
L 195.183133 234.341431 
L 195.269719 230.305661 
L 195.57277 191.951702 
L 195.659356 187.221084 
L 196.048994 223.656133 
L 196.092287 225.869949 
L 196.438631 182.013768 
L 196.525217 184.978989 
L 196.611803 190.044911 
L 196.914855 222.45227 
L 196.958148 222.189682 
L 197.088027 217.863045 
L 197.347785 194.181677 
L 197.434371 201.429097 
L 197.607543 225.304376 
L 197.824009 247.56777 
L 197.867302 246.218474 
L 198.213646 217.042964 
L 198.300232 222.690618 
L 198.646576 266.231694 
L 198.689869 265.593404 
L 198.863042 251.886327 
L 199.079507 229.016961 
L 199.1228 230.160228 
L 199.469144 275.567695 
L 199.512437 274.751654 
L 199.55573 279.08637 
L 199.599023 279.025773 
L 199.858782 247.159749 
L 199.988661 242.328136 
L 200.031954 243.204775 
L 200.075247 248.335334 
L 200.11854 247.14359 
L 200.161833 244.222807 
L 200.335005 278.120856 
L 200.378298 277.951183 
L 200.508177 272.190414 
L 200.811229 240.235515 
L 200.941108 253.813317 
L 201.287452 279.134848 
L 201.330745 275.333386 
L 201.633797 242.728077 
L 201.720383 243.766309 
L 202.066727 279.280281 
L 202.153313 283.897784 
L 202.499657 238.373162 
L 202.54295 241.653488 
L 202.586243 243.435044 
L 202.889295 274.682977 
L 203.019174 281.675889 
L 203.062467 278.771265 
L 203.408811 238.918536 
L 203.66857 263.411906 
L 203.841742 280.952763 
L 203.885035 283.380689 
L 203.971621 269.475661 
L 204.188086 237.407647 
L 204.231379 235.912918 
L 204.274672 237.940902 
L 204.66431 274.816291 
L 204.750896 274.428469 
L 204.837482 268.465709 
L 205.09724 238.567073 
L 205.183826 235.626091 
L 205.486878 273.026655 
L 205.616757 276.238304 
L 205.789929 256.988608 
L 205.919808 238.021698 
L 205.963101 238.094415 
L 206.352738 277.450247 
L 206.439325 286.810487 
L 206.482618 282.451532 
L 206.785669 238.106535 
L 206.828962 236.320938 
L 206.872255 238.437799 
L 207.305185 279.882213 
L 207.348478 278.843982 
L 207.65153 243.180536 
L 207.738116 237.98938 
L 207.824702 254.714195 
L 207.867995 253.10231 
L 207.911288 250.997569 
L 208.171046 279.126768 
L 208.257632 273.98409 
L 208.603977 240.481943 
L 208.993614 277.207858 
L 209.036907 277.098784 
L 209.166786 267.601189 
L 209.426545 230.834876 
L 209.469838 231.323693 
L 209.729596 258.273268 
L 209.946061 266.138778 
L 210.119233 246.840604 
L 210.292406 225.712396 
L 210.335699 227.893894 
L 210.595457 258.955995 
L 210.63875 259.465012 
L 210.811922 267.908215 
L 210.855215 266.142818 
L 210.985094 252.726608 
L 211.158266 239.831533 
L 211.418025 257.424907 
L 211.591197 276.916992 
L 211.764369 269.338308 
L 212.024127 243.386567 
L 212.283886 258.786323 
L 212.457058 279.664063 
L 212.500351 279.579227 
L 212.673523 264.312784 
L 212.889988 236.749158 
L 213.279626 283.013066 
L 213.322919 285.642982 
L 213.366212 284.19673 
L 213.539384 269.156516 
L 213.712556 239.496229 
L 213.842435 246.448743 
L 213.929021 245.576144 
L 214.015607 239.48411 
L 214.361952 166.597852 
L 214.708296 65.865183 
L 214.751589 66.160089 
L 214.838175 90.786772 
L 215.227813 242.917949 
L 215.357692 225.736635 
L 215.444278 219.931428 
L 215.790622 277.248256 
L 215.877208 282.996907 
L 215.963794 295.488 
L 216.007087 292.159196 
L 216.266846 258.778244 
L 216.310139 257.651137 
L 216.353432 260.713313 
L 216.396725 259.873032 
L 216.440018 249.69675 
L 216.483311 254.318293 
L 216.743069 281.506217 
L 216.829655 277.926945 
L 217.002828 265.726718 
L 217.176 241.358582 
L 217.219293 245.244879 
L 217.262586 247.119351 
L 217.305879 240.271873 
L 217.349172 242.740197 
L 217.60893 275.745447 
L 217.652223 275.010202 
L 217.868688 259.646803 
L 217.955275 241.673687 
L 218.041861 242.04535 
L 218.17174 239.774976 
L 218.431498 270.760321 
L 218.60467 268.970685 
L 218.907722 236.91883 
L 218.951015 240.134519 
L 218.994308 236.846114 
L 219.037601 231.570121 
L 219.080894 238.219649 
L 219.383945 272.949898 
L 219.427238 270.594689 
L 219.557117 262.644342 
L 219.773582 234.57978 
L 219.860169 238.4176 
L 219.903462 234.676736 
L 219.946755 238.219649 
L 220.249806 262.870572 
L 220.293099 261.484917 
L 220.379685 259.323618 
L 220.466271 249.224092 
L 220.639443 222.840091 
L 220.682736 225.449809 
L 220.726029 222.318956 
L 220.769322 226.528438 
L 221.115667 267.302244 
L 221.15896 263.945161 
L 221.462011 223.235993 
L 221.505304 221.959413 
L 221.548597 222.254319 
L 221.59189 215.572473 
L 221.635183 216.622823 
L 221.938235 251.41367 
L 221.981528 251.631819 
L 222.111407 244.58235 
L 222.457751 205.448708 
L 222.544337 211.682135 
L 222.804096 242.88967 
L 222.847389 244.679306 
L 223.063854 219.474929 
L 223.193733 200.984718 
L 223.237026 204.475114 
L 223.323612 193.026291 
L 223.366905 195.139112 
L 223.669956 224.722643 
L 223.756543 231.1823 
L 223.799836 226.778906 
L 224.189473 183.876121 
L 224.362645 200.875643 
L 224.622403 223.672292 
L 224.795576 207.634245 
L 225.012041 185.968743 
L 225.055334 186.324246 
L 225.531557 242.619003 
L 225.57485 238.514555 
L 225.921195 203.796426 
L 225.964488 208.280615 
L 226.354125 256.915891 
L 226.440711 254.492005 
L 226.527297 249.777546 
L 226.743763 224.896355 
L 226.916935 242.275619 
L 227.1334 277.623959 
L 227.176693 276.96547 
L 227.609624 237.044064 
L 227.652917 237.104662 
L 228.042554 281.352704 
L 228.085847 280.843688 
L 228.215726 268.126365 
L 228.345605 248.141423 
L 228.388898 253.869874 
L 228.475484 240.195116 
L 228.562071 247.204187 
L 228.821829 278.791464 
L 228.865122 280.346791 
L 228.951708 280.237716 
L 229.038294 274.089125 
L 229.298052 240.776849 
L 229.384638 244.432877 
L 229.514518 258.745925 
L 229.68769 282.188944 
L 229.774276 279.761019 
L 229.817569 280.710374 
L 229.904155 273.862895 
L 230.077327 254.342532 
L 230.12062 253.684043 
L 230.207206 243.544119 
L 230.250499 243.770349 
L 230.510258 277.975422 
L 230.640137 292.486421 
L 230.68343 290.975532 
L 231.073067 237.585399 
L 231.549291 280.928524 
L 231.592584 278.104696 
L 231.938928 239.815374 
L 231.982221 242.049389 
L 232.155393 264.963193 
L 232.328566 277.417929 
L 232.415152 279.93877 
L 232.501738 274.682977 
L 232.804789 237.585399 
L 232.848082 238.312565 
L 233.194426 278.387483 
L 233.367599 271.43093 
L 233.67065 235.779604 
L 233.713943 238.21157 
L 234.016994 272.92162 
L 234.146873 281.784963 
L 234.233459 273.733622 
L 234.449925 240.215315 
L 234.493218 238.256007 
L 234.536511 241.277786 
L 234.579804 242.227141 
L 234.926148 286.055043 
L 234.969441 285.893451 
L 235.315786 235.343304 
L 235.359079 234.535342 
L 235.66213 265.916589 
L 235.835302 287.129632 
L 236.268233 240.364788 
L 236.354819 248.706997 
L 236.701163 284.115934 
L 236.744456 280.613418 
L 237.0908 235.052438 
L 237.177387 239.350796 
L 237.567024 272.49744 
L 237.610317 270.526012 
L 237.913368 233.72738 
L 237.999954 232.131655 
L 238.043247 231.202499 
L 238.476178 270.388659 
L 238.822522 232.769945 
L 238.909108 233.929371 
L 239.255453 278.076418 
L 239.298746 277.026067 
L 239.428625 269.140357 
L 239.688383 244.646987 
L 239.731676 244.752022 
L 239.861555 257.291594 
L 240.121314 282.681801 
L 240.2079 285.032971 
L 240.510951 243.273452 
L 240.684123 252.318587 
L 240.727416 251.482346 
L 240.770709 252.767006 
L 240.987175 287.073075 
L 241.030468 283.376649 
L 241.246933 262.292879 
L 241.376812 245.075207 
L 241.463398 248.351493 
L 241.896328 284.216929 
L 241.939622 281.692048 
L 242.156087 225.591202 
L 242.415845 163.212491 
L 242.848775 92.984429 
L 242.935362 84.512947 
L 243.498171 247.688965 
L 243.714636 271.588482 
L 243.844516 266.268052 
L 243.931102 242.602843 
L 243.974395 244.000618 
L 244.19086 267.16893 
L 244.407325 292.567217 
L 244.450618 292.801526 
L 244.537204 289.585837 
L 244.926842 242.384694 
L 245.359772 282.512129 
L 245.446358 277.252296 
L 245.662823 240.696053 
L 245.792703 246.92948 
L 246.225633 281.837481 
L 246.268926 280.270035 
L 246.528684 244.004658 
L 246.658563 233.812216 
L 246.875029 258.818642 
L 247.048201 272.574196 
L 247.091494 272.49744 
L 247.221373 269.629174 
L 247.481131 236.728959 
L 247.567717 238.433759 
L 247.654303 248.181821 
L 247.870769 269.241352 
L 248.000648 268.542465 
L 248.130527 260.220456 
L 248.217113 236.373456 
L 248.260406 236.898631 
L 248.303699 237.9813 
L 248.390285 231.59032 
L 248.433578 234.539382 
L 248.73663 269.128238 
L 248.779923 272.49744 
L 248.823216 269.948319 
L 249.126267 224.213627 
L 249.16956 226.823344 
L 249.386025 241.60501 
L 249.602491 263.411906 
L 249.645784 263.036204 
L 249.73237 255.219171 
L 249.992128 218.093314 
L 250.035421 220.880783 
L 250.208593 226.762747 
L 250.295179 229.03716 
L 250.468351 249.506879 
L 250.511644 248.755474 
L 250.554938 248.391892 
L 250.857989 207.137349 
L 251.031161 208.450287 
L 251.074454 209.387523 
L 251.377505 238.595352 
L 251.420798 237.456125 
L 251.593971 218.792201 
L 251.72385 197.672073 
L 251.767143 198.37096 
L 251.853729 192.715226 
L 252.243366 228.960404 
L 252.459831 203.444962 
L 252.633004 184.461894 
L 252.676297 185.148661 
L 252.762883 190.303459 
L 253.15252 230.301621 
L 253.325692 208.074585 
L 253.412278 200.039402 
L 253.455572 201.061474 
L 253.542158 195.409779 
L 253.585451 196.767156 
L 254.018381 252.754887 
L 254.061674 253.978949 
L 254.14826 245.087327 
L 254.321432 218.973993 
L 254.364725 215.528035 
L 254.408019 218.699286 
L 254.754363 261.432399 
L 254.884242 268.090007 
L 254.927535 266.639715 
L 254.970828 269.261552 
L 255.014121 267.504234 
L 255.187293 240.320351 
L 255.273879 235.024159 
L 255.70681 280.702294 
L 255.750103 280.181159 
L 255.923275 261.537434 
L 256.053154 245.192362 
L 256.356206 261.440479 
L 256.572671 283.99474 
L 256.919015 243.798627 
L 257.005601 246.614375 
L 257.048894 246.816366 
L 257.481825 284.370442 
L 257.568411 279.482272 
L 257.741583 253.142708 
L 257.784876 246.683052 
L 257.871462 249.809865 
L 257.914755 250.072453 
L 258.087927 264.066355 
L 258.2611 282.439413 
L 258.304393 281.946556 
L 258.390979 281.962715 
L 258.477565 266.894223 
L 258.69403 242.930068 
L 258.737323 247.596049 
L 258.953788 268.22332 
L 259.170253 284.770383 
L 259.343426 272.800425 
L 259.559891 239.568946 
L 259.603184 240.627376 
L 259.733063 253.724441 
L 259.992821 282.059671 
L 260.079407 283.590759 
L 260.165994 274.448668 
L 260.382459 244.283404 
L 260.512338 246.404305 
L 260.858682 288.713238 
L 260.901975 287.109433 
L 261.031854 275.664651 
L 261.291613 238.910457 
L 261.378199 245.075207 
L 261.68125 279.559028 
L 261.767836 281.393102 
L 261.811129 285.501589 
L 261.854422 279.571147 
L 262.070888 246.460862 
L 262.157474 241.665607 
L 262.590404 279.546909 
L 262.67699 281.449659 
L 263.023335 243.548159 
L 263.066628 241.83124 
L 263.109921 244.133931 
L 263.369679 275.951477 
L 263.542851 288.268859 
L 263.845902 242.578605 
L 263.932488 245.23276 
L 264.105661 258.608572 
L 264.322126 282.015233 
L 264.365419 281.22343 
L 264.408712 285.68338 
L 264.452005 281.090116 
L 264.625177 258.042998 
L 264.66847 257.029006 
L 264.841642 243.483522 
L 264.884935 247.99195 
L 265.274573 288.373894 
L 265.66421 233.642544 
L 266.053848 272.764067 
L 266.140434 272.356046 
L 266.313606 250.209806 
L 266.486778 228.891727 
L 266.530071 232.196292 
L 266.919709 272.323728 
L 267.006295 269.310029 
L 267.22276 239.47199 
L 267.309346 241.043477 
L 267.352639 240.522341 
L 267.395932 240.11028 
L 267.525811 250.55319 
L 267.828863 291.524946 
L 267.872156 288.305217 
L 268.088621 256.867414 
L 268.261793 247.293063 
L 268.305086 248.064667 
L 268.694723 291.282557 
L 268.738016 291.266398 
L 268.997775 248.242419 
L 269.300826 262.506989 
L 269.560584 289.715111 
L 269.603877 287.897196 
L 269.863636 253.603247 
L 269.993515 242.356415 
L 270.036808 243.132059 
L 270.253273 267.290124 
L 270.339859 263.088721 
L 270.469738 237.270294 
L 270.945962 96.882846 
L 271.075841 87.546844 
L 271.119134 88.71031 
L 271.162427 91.328107 
L 271.552064 204.55591 
L 271.681944 209.124935 
L 271.811823 231.145941 
L 272.114874 286.774129 
L 272.158167 284.374482 
L 272.417925 259.7074 
L 272.461218 255.413082 
L 272.547804 257.59054 
L 272.591097 255.897859 
L 272.634391 257.445106 
L 272.720977 261.945455 
L 272.937442 285.368275 
L 273.024028 289.96154 
L 273.327079 245.741776 
L 273.370372 247.612208 
L 273.413665 246.71537 
L 273.456958 243.281531 
L 273.500251 243.972339 
L 273.846596 283.057504 
L 273.889889 284.063416 
L 274.19294 244.610629 
L 274.279526 238.155012 
L 274.322819 238.708466 
L 274.712457 285.739938 
L 274.75575 283.974541 
L 275.015508 247.058754 
L 275.145387 233.796057 
L 275.18868 235.024159 
L 275.491732 270.372499 
L 275.578318 281.942516 
L 275.621611 273.943692 
L 275.967955 232.862861 
L 276.054541 235.084756 
L 276.444178 277.862308 
L 276.487472 271.342054 
L 276.920402 230.53593 
L 277.136867 250.98141 
L 277.266746 272.558037 
L 277.310039 272.541877 
L 277.699677 224.177269 
L 277.74297 223.029962 
L 278.046021 247.414257 
L 278.1759 262.713019 
L 278.478952 223.151157 
L 278.565538 213.803036 
L 278.608831 216.077449 
L 278.652124 216.804615 
L 278.998468 248.763554 
L 279.041761 248.084866 
L 279.388106 202.531965 
L 279.517985 201.77652 
L 279.561278 202.725876 
L 279.864329 241.851439 
L 279.907622 232.628552 
L 280.340553 187.94017 
L 280.383846 189.030919 
L 280.73019 231.848868 
L 280.773483 223.631894 
L 281.16312 184.356858 
L 281.206413 185.960663 
L 281.336293 198.58911 
L 281.596051 237.791429 
L 281.639344 231.800391 
L 281.942395 202.863229 
L 281.985688 203.06522 
L 282.028981 203.816625 
L 282.418619 250.512792 
L 282.461912 258.915597 
L 282.505205 253.393177 
L 282.591791 251.058166 
L 282.894842 225.114505 
L 282.938135 228.087805 
L 283.327773 280.14884 
L 283.544238 254.799031 
L 283.760703 234.470705 
L 283.847289 239.847693 
L 284.193634 279.126768 
L 284.236927 278.953056 
L 284.366806 268.946446 
L 284.539978 249.668472 
L 284.669857 236.021992 
L 284.756443 246.792127 
L 285.016201 284.111894 
L 285.059494 281.364823 
L 285.102788 281.477938 
L 285.579011 239.787096 
L 285.622304 246.836565 
L 285.882062 286.378228 
L 286.358286 242.061509 
L 286.444872 247.058754 
L 286.747923 282.407094 
L 287.137561 248.896868 
L 287.224147 237.9813 
L 287.26744 238.155012 
L 287.483905 260.862786 
L 287.613784 283.522082 
L 287.657077 281.037599 
L 287.786956 275.357625 
L 288.090008 243.867304 
L 288.133301 242.614963 
L 288.176594 244.222807 
L 288.609524 283.901824 
L 288.869282 248.125264 
L 288.955869 238.397401 
L 288.999162 240.384988 
L 289.388799 282.467691 
L 289.432092 282.318218 
L 289.561971 267.310323 
L 289.821729 236.49465 
L 289.908316 241.912036 
L 290.25466 277.074545 
L 290.297953 277.268456 
L 290.341246 276.904873 
L 290.774176 240.716252 
L 290.817469 241.342423 
L 291.163814 281.712247 
L 291.207107 281.243629 
L 291.293693 268.425311 
L 291.510158 240.599097 
L 291.596744 237.56116 
L 292.029675 279.538829 
L 292.072968 277.098784 
L 292.376019 240.599097 
L 292.419312 239.823454 
L 292.635777 257.845048 
L 292.765657 282.370736 
L 292.80895 272.457041 
L 292.852243 271.010789 
L 292.895536 274.20224 
L 292.938829 272.000543 
L 293.155294 240.603137 
L 293.24188 223.094599 
L 293.285173 226.993016 
L 293.588224 265.383334 
L 293.67481 263.117 
L 293.718104 264.918755 
L 293.761397 262.373675 
L 293.977862 237.189498 
L 294.151034 226.617314 
L 294.23762 230.596527 
L 294.627257 266.752829 
L 294.67055 266.037783 
L 295.016895 234.418188 
L 295.060188 237.920703 
L 295.406532 285.291519 
L 295.449825 285.461191 
L 295.666291 264.046156 
L 295.926049 236.486571 
L 296.012635 244.396519 
L 296.315686 279.643864 
L 296.358979 280.306393 
L 296.445565 273.54779 
L 296.705324 244.881296 
L 296.748617 245.814493 
L 296.79191 243.152258 
L 296.835203 245.471109 
L 297.22484 284.919856 
L 297.268133 283.505923 
L 297.398012 260.959741 
L 297.571185 239.544707 
L 297.614478 237.56924 
L 297.657771 239.827494 
L 297.701064 241.556532 
L 297.744357 240.5385 
L 297.874236 238.171171 
L 298.523632 55.070809 
L 298.566925 54.755704 
L 298.653511 76.409087 
L 298.999855 227.55051 
L 299.086441 237.044064 
L 299.129734 236.470411 
L 299.302906 224.557011 
L 299.519372 255.324206 
L 299.692544 279.421674 
L 299.822423 291.371433 
L 299.865716 287.416459 
L 300.255353 252.136796 
L 300.385232 258.806522 
L 300.471819 275.200073 
L 300.558405 273.539711 
L 300.688284 283.853346 
L 301.077921 234.628258 
L 301.164507 240.33651 
L 301.554145 278.221851 
L 301.597438 276.420095 
L 301.813903 241.790841 
L 301.900489 243.09974 
L 301.987075 237.080423 
L 302.030368 241.132352 
L 302.073661 242.865431 
L 302.116954 242.441251 
L 302.333419 268.562664 
L 302.420006 271.778353 
L 302.506592 262.030291 
L 302.723057 240.817247 
L 302.809643 229.780485 
L 302.852936 230.156188 
L 302.982815 244.16221 
L 303.155987 265.173264 
L 303.19928 266.627595 
L 303.632211 227.651505 
L 303.675504 229.231071 
L 303.718797 229.780485 
L 303.848676 245.543825 
L 304.065141 264.648088 
L 304.108434 264.563252 
L 304.238313 254.411209 
L 304.541365 223.781367 
L 304.931002 257.727893 
L 305.060881 252.47614 
L 305.32064 212.740566 
L 305.450519 215.245248 
L 305.580398 230.701562 
L 305.75357 244.978252 
L 305.840156 250.844056 
L 305.883449 248.63832 
L 306.143207 206.293028 
L 306.186501 207.658484 
L 306.229794 211.714454 
L 306.273087 210.470192 
L 306.31638 208.361411 
L 306.359673 209.064338 
L 306.446259 220.888863 
L 306.662724 234.595939 
L 306.74931 232.806303 
L 306.922482 212.962755 
L 307.095654 194.363469 
L 307.182241 188.683495 
L 307.225534 190.392335 
L 307.528585 224.900395 
L 307.615171 228.128203 
L 307.961515 181.815818 
L 308.048101 184.413416 
L 308.134688 197.074181 
L 308.351153 220.246533 
L 308.394446 222.217961 
L 308.437739 220.044543 
L 308.524325 214.14642 
L 308.870669 184.918392 
L 309.346893 236.28458 
L 309.390186 234.527263 
L 309.606651 200.92816 
L 309.693237 209.520837 
L 309.823116 214.469604 
L 309.996288 238.251968 
L 310.212754 254.996981 
L 310.429219 232.66087 
L 310.515805 226.374925 
L 310.559098 227.255604 
L 310.645684 229.812804 
L 310.905442 261.036498 
L 311.035322 270.828998 
L 311.078615 267.463836 
L 311.468252 232.624512 
L 311.901182 275.797965 
L 311.987769 272.368166 
L 312.334113 233.194125 
L 312.377406 236.773397 
L 312.550578 259.553887 
L 312.680457 276.601887 
L 312.767043 272.562077 
L 312.896922 265.375254 
L 313.113388 240.506182 
L 313.156681 241.495935 
L 313.243267 245.786214 
L 313.329853 258.810562 
L 313.373146 252.524617 
L 313.503025 266.639715 
L 313.589611 276.549369 
L 313.632904 274.816291 
L 313.849369 254.18094 
L 313.979249 234.1556 
L 314.022542 234.57978 
L 314.109128 238.740785 
L 314.325593 269.697851 
L 314.412179 274.969803 
L 314.455472 273.733622 
L 314.671937 256.52403 
L 314.801816 241.427259 
L 314.84511 242.25138 
L 315.191454 261.089015 
L 315.321333 273.567989 
L 315.407919 270.489654 
L 315.71097 235.4241 
L 315.84085 236.203784 
L 316.187194 273.98409 
L 316.27378 272.06922 
L 316.533538 238.716546 
L 316.576831 232.822463 
L 316.620124 233.476912 
L 317.053055 271.325895 
L 317.096348 268.950486 
L 317.139641 268.837371 
L 317.226227 260.12754 
L 317.399399 241.104074 
L 317.529278 232.551795 
L 317.789037 262.248441 
L 317.918916 269.213074 
L 318.005502 268.069807 
L 318.178674 244.271285 
L 318.26526 234.721173 
L 318.308553 235.080717 
L 318.351846 235.185752 
L 318.395139 237.072343 
L 318.568311 250.088612 
L 318.784777 273.883095 
L 318.871363 271.289536 
L 319.261 227.493953 
L 319.477465 257.772331 
L 319.650638 271.398611 
L 319.737224 269.148437 
L 320.040275 229.978436 
L 320.126861 231.828669 
L 320.170154 240.049683 
L 320.213447 239.649742 
L 320.25674 233.335519 
L 320.300033 238.962974 
L 320.473205 261.674788 
L 320.516498 262.292879 
L 320.559791 261.40412 
L 320.603085 260.689074 
L 320.732964 240.514261 
L 320.949429 224.876156 
L 321.425652 261.028418 
L 321.468945 260.870866 
L 321.642118 242.833113 
L 321.771997 233.440554 
L 321.81529 234.321232 
L 321.901876 242.134225 
L 321.945169 238.83774 
L 322.118341 261.097095 
L 322.24822 279.752939 
L 322.291513 277.922905 
L 322.378099 272.957978 
L 322.637858 237.375329 
L 322.681151 237.516722 
L 323.114081 273.483153 
L 323.200667 273.462954 
L 323.547012 235.500857 
L 323.979942 280.455866 
L 324.023235 280.257915 
L 324.196407 261.258687 
L 324.369579 239.823454 
L 324.412873 235.941196 
L 324.456166 240.445585 
L 324.715924 257.142121 
L 324.80251 254.584921 
L 324.932389 226.080019 
L 325.495199 83.276765 
L 325.538492 85.175476 
L 325.581785 86.771201 
L 325.754957 138.945351 
L 326.101301 213.108188 
L 326.664111 279.288361 
L 326.923869 246.052841 
L 327.010455 254.867707 
L 327.053748 257.178479 
L 327.097041 252.060039 
L 327.140334 253.280062 
L 327.443386 283.77659 
L 327.486679 280.108442 
L 327.746437 244.089494 
L 327.833023 237.77931 
L 327.962902 238.8337 
L 328.22266 270.433097 
L 328.309247 265.88831 
L 328.395833 267.827419 
L 328.698884 233.771818 
L 328.828763 234.038446 
L 329.131814 274.743574 
L 329.218401 270.99867 
L 329.521452 232.899219 
L 329.564745 231.735754 
L 329.608038 237.787389 
L 329.651331 236.514849 
L 329.694624 231.913505 
L 329.737917 236.06239 
L 330.040968 267.621389 
L 330.084261 266.918462 
L 330.34402 235.920997 
L 330.387313 233.7395 
L 330.430606 235.359463 
L 330.473899 236.365376 
L 330.517192 225.405371 
L 330.560485 227.34852 
L 330.863536 262.745338 
L 330.906829 261.969694 
L 330.950122 261.367762 
L 331.166588 235.537215 
L 331.253174 223.732889 
L 331.296467 228.427149 
L 331.33976 228.802851 
L 331.383053 225.732596 
L 331.426346 230.245064 
L 331.77269 259.557927 
L 331.815983 260.333571 
L 332.119035 215.734065 
L 332.205621 223.599576 
L 332.292207 217.592378 
L 332.638551 251.510625 
L 332.681844 250.957171 
L 333.114775 206.523298 
L 333.504412 244.497514 
L 333.590998 242.703839 
L 333.850756 192.076936 
L 333.980635 195.159311 
L 334.32698 226.730429 
L 334.370273 228.346353 
L 334.413566 226.294129 
L 334.543445 208.17962 
L 334.716617 188.416868 
L 334.75991 187.556388 
L 334.803203 178.769801 
L 334.846496 181.714823 
L 335.149548 219.325456 
L 335.236134 222.318956 
L 335.279427 220.824226 
L 335.539185 184.930512 
L 335.625771 189.026879 
L 335.669064 181.916813 
L 335.712357 182.894447 
L 336.101995 231.444887 
L 336.145288 231.145941 
L 336.405046 201.473535 
L 336.578218 203.327808 
L 336.88127 249.676551 
L 336.967856 256.584627 
L 337.011149 253.199266 
L 337.227614 227.744421 
L 337.270907 225.437689 
L 337.3142 228.063566 
L 337.357493 227.97469 
L 337.400786 220.472763 
L 337.444079 222.900689 
L 337.703837 258.86712 
L 337.833716 267.722384 
L 337.920303 264.292585 
L 338.223354 236.579486 
L 338.266647 233.076971 
L 338.30994 234.943363 
L 338.656284 281.562774 
L 338.699577 278.266289 
L 338.87275 260.515362 
L 338.916043 256.697742 
L 339.089215 234.902965 
L 339.132508 233.327439 
L 339.175801 235.549335 
L 339.522145 278.258209 
L 339.565438 277.518924 
L 339.955076 238.83774 
L 340.041662 241.61713 
L 340.128248 248.125264 
L 340.344713 276.824076 
L 340.474592 279.070211 
L 340.604471 260.115421 
L 340.777644 242.67556 
L 340.86423 236.163386 
L 340.907523 239.960807 
L 341.253867 281.045678 
L 341.427039 269.693811 
L 341.556918 244.113732 
L 341.643504 244.440957 
L 341.686798 236.567367 
L 341.773384 239.678021 
L 342.076435 274.985963 
L 342.119728 272.727709 
L 342.163021 272.07326 
L 342.206314 273.741701 
L 342.336193 258.790363 
L 342.552658 236.70876 
L 342.595951 236.753198 
L 342.682538 243.612796 
L 342.942296 278.831862 
L 342.985589 277.59164 
L 343.158761 262.511029 
L 343.461812 232.88306 
L 343.548398 243.277492 
L 343.85145 275.648492 
L 343.894743 275.288949 
L 344.197794 239.585105 
L 344.241087 230.471293 
L 344.327673 232.693189 
L 344.587432 262.797855 
L 344.760604 276.593807 
L 344.803897 276.803877 
L 344.933776 266.74475 
L 345.106948 228.297875 
L 345.150241 232.083177 
L 345.409999 261.997973 
L 345.583172 279.963009 
L 346.016102 232.075098 
L 346.102688 236.91883 
L 346.405739 275.402063 
L 346.449032 272.141936 
L 346.881963 225.470008 
L 346.925256 229.388624 
L 347.011842 234.37375 
L 347.314893 266.546799 
L 347.358186 265.989305 
L 347.704531 224.884235 
L 347.747824 225.195301 
L 347.920996 237.262214 
L 348.137461 267.746623 
L 348.180754 267.411318 
L 348.224047 267.350721 
L 348.26734 267.039656 
L 348.570392 239.585105 
L 348.613685 241.710045 
L 348.656978 240.384988 
L 349.089908 277.017987 
L 349.176494 269.661493 
L 349.436253 238.42568 
L 349.479546 238.716546 
L 349.912476 275.705049 
L 349.955769 275.608094 
L 350.042355 269.70997 
L 350.302113 236.29266 
L 350.3887 243.002785 
L 350.778337 282.871672 
L 350.82163 279.963009 
L 351.038095 252.189313 
L 351.081388 251.930765 
L 351.38444 206.709129 
L 351.427733 209.993495 
L 351.471026 209.092617 
L 351.730784 153.121045 
L 352.033835 53.568 
L 352.077128 54.820341 
L 352.207007 113.987403 
L 352.596645 245.919528 
L 352.769817 237.108701 
L 352.81311 225.801272 
L 352.899696 232.0347 
L 352.986282 230.192546 
L 353.072868 243.140138 
L 353.332627 286.648895 
L 353.37592 286.269153 
L 353.419213 286.026764 
L 353.549092 274.650658 
L 353.852143 244.416718 
L 354.111901 266.138778 
L 354.198488 275.802004 
L 354.285074 275.519218 
L 354.501539 255.291888 
L 354.631418 235.169592 
L 354.891176 259.218583 
L 355.064348 281.704167 
L 355.107642 280.459906 
L 355.150935 280.512423 
L 355.453986 234.220237 
L 355.497279 234.5919 
L 355.540572 234.834288 
L 355.583865 234.341431 
L 355.973502 268.195042 
L 356.016795 270.865356 
L 356.060088 268.86969 
L 356.319847 232.212451 
L 356.449726 233.602146 
L 356.536312 241.491896 
L 356.79607 270.469455 
L 356.839363 270.35634 
L 356.882656 269.770568 
L 357.099122 241.326263 
L 357.229001 227.12633 
L 357.272294 227.841377 
L 357.315587 228.075686 
L 357.618638 257.546102 
L 357.705224 264.967233 
L 357.748517 263.937082 
L 358.094862 222.779494 
L 358.138155 224.520652 
L 358.268034 230.511691 
L 358.484499 250.654185 
L 358.614378 256.604826 
L 358.960723 217.006605 
L 359.047309 217.11972 
L 359.393653 252.952837 
L 359.480239 245.685219 
L 359.78329 212.126514 
L 359.91317 201.857317 
L 359.956463 204.297362 
L 360.259514 236.959228 
L 360.3461 233.024453 
L 360.519272 215.556313 
L 360.649151 189.293507 
L 360.692444 189.851 
L 360.77903 193.49087 
L 361.082082 221.430198 
L 361.211961 223.700571 
L 361.34184 216.630903 
L 361.601598 177.949719 
L 361.644891 180.426123 
L 362.034529 225.502326 
L 362.380873 183.637772 
L 362.467459 188.097723 
L 362.683924 220.355608 
L 362.813804 235.484698 
L 362.857097 235.4443 
L 362.943683 244.707585 
L 362.986976 240.845526 
L 363.246734 209.730907 
L 363.33332 215.063457 
L 363.809544 264.268346 
L 363.89613 259.299379 
L 364.155888 229.925919 
L 364.242474 234.753492 
L 364.588818 275.04656 
L 364.632111 275.975716 
L 364.978456 240.207236 
L 365.108335 242.021111 
L 365.454679 275.389944 
L 365.541265 274.121443 
L 365.584558 272.671151 
L 365.627851 273.115531 
L 365.844317 239.799215 
L 365.88761 240.166838 
L 366.060782 253.292181 
L 366.277247 280.217517 
L 366.32054 282.609085 
L 366.363833 281.86172 
L 366.710178 241.778722 
L 366.753471 240.518301 
L 366.796764 242.283698 
L 367.099815 280.835608 
L 367.143108 285.812654 
L 367.186401 284.802702 
L 367.576039 240.158758 
L 367.705918 240.990959 
L 367.749211 241.584811 
L 368.008969 278.371324 
L 368.052262 278.213771 
L 368.225434 271.479407 
L 368.398606 240.942481 
L 368.441899 241.306064 
L 368.744951 265.371214 
L 368.918123 279.583267 
L 369.091295 266.037783 
L 369.264467 241.798921 
L 369.30776 238.514555 
L 369.351053 242.804834 
L 369.524226 255.134335 
L 369.783984 281.045678 
L 369.827277 279.175246 
L 369.957156 273.499313 
L 370.130328 244.893416 
L 370.173621 240.001206 
L 370.216914 240.55466 
L 370.433379 256.762378 
L 370.606552 278.815703 
L 370.823017 270.085673 
L 370.996189 241.956474 
L 371.082775 245.818532 
L 371.126068 241.556532 
L 371.169361 241.996872 
L 371.472413 279.425714 
L 371.645585 272.505519 
L 371.818757 245.00653 
L 371.948636 236.252262 
L 371.991929 237.003666 
L 372.381567 277.644158 
L 372.468153 275.806044 
L 372.554739 257.36027 
L 372.727911 241.463617 
L 372.771204 239.819414 
L 372.814497 239.827494 
L 373.334014 271.814712 
L 373.463893 250.169408 
L 373.637065 230.11175 
L 373.680358 229.05332 
L 373.723651 229.707769 
L 374.113288 268.259679 
L 374.156581 264.357222 
L 374.199874 264.001719 
L 374.329754 245.44687 
L 374.589512 228.588741 
L 375.065735 277.135142 
L 375.109028 276.799838 
L 375.325494 237.229896 
L 375.368787 238.041898 
L 375.498666 246.214434 
L 375.801717 283.279693 
L 375.931596 282.403054 
L 376.104768 251.203599 
L 376.321234 244.457116 
L 376.364527 244.558112 
L 376.494406 261.565713 
L 376.667578 282.06371 
L 376.84075 266.078181 
L 376.884043 266.470043 
L 376.927336 263.844166 
L 377.100508 237.528842 
L 377.533439 282.176825 
L 377.576732 277.308854 
L 377.620025 278.0239 
L 377.663318 277.337132 
L 378.139542 200.479741 
L 378.529179 132.970471 
L 378.788937 57.502775 
L 378.918816 99.35925 
L 379.351747 256.713901 
L 379.39504 257.808689 
L 379.481626 244.545992 
L 379.524919 246.408345 
L 379.654798 239.375035 
L 379.698091 239.888091 
L 379.957849 267.484035 
L 380.174315 290.264525 
L 380.217608 294.033668 
L 380.434073 255.130295 
L 380.607245 238.538794 
L 380.693831 243.919822 
L 381.083469 280.108442 
L 381.343227 243.875384 
L 381.473106 237.023865 
L 381.516399 239.613384 
L 381.949329 281.970795 
L 382.209088 243.721871 
L 382.338967 233.585987 
L 382.38226 233.95361 
L 382.771897 278.795504 
L 382.81519 277.17958 
L 383.074949 239.920409 
L 383.204828 234.830248 
L 383.248121 235.407941 
L 383.291414 236.531008 
L 383.637758 276.460493 
L 383.681051 276.072672 
L 383.94081 228.992722 
L 384.027396 222.941087 
L 384.546912 272.885261 
L 384.849964 225.720476 
L 384.893257 227.162688 
L 384.93655 226.641553 
L 384.979843 223.850044 
L 385.023136 226.91626 
L 385.196308 248.088906 
L 385.36948 262.345396 
L 385.629238 226.960698 
L 385.802411 213.71012 
L 385.845704 214.764511 
L 386.192048 250.633986 
L 386.235341 251.914606 
L 386.538392 216.05725 
L 386.668271 203.218733 
L 386.711564 204.370079 
L 387.101202 240.150679 
L 387.144495 233.909172 
L 387.490839 187.976528 
L 387.664011 197.413525 
L 387.967063 235.270588 
L 388.226821 192.998013 
L 388.3567 184.284142 
L 388.443286 184.304341 
L 388.486579 185.108263 
L 388.832924 228.536224 
L 389.179268 186.514117 
L 389.395733 205.513345 
L 389.655492 246.020523 
L 389.698785 240.5385 
L 389.742078 240.32439 
L 389.958543 214.1343 
L 390.088422 215.85122 
L 390.175008 218.800281 
L 390.521352 269.394865 
L 390.607939 262.292879 
L 390.781111 242.926028 
L 390.91099 233.254722 
L 390.954283 233.699101 
L 391.387213 287.751763 
L 391.430506 277.462366 
L 391.776851 234.870646 
L 391.820144 240.231475 
L 392.253074 288.45873 
L 392.599419 242.841192 
L 392.642712 243.552199 
L 392.945763 262.818054 
L 393.118935 284.144213 
L 393.3354 261.521275 
L 393.595159 234.050565 
L 393.638452 237.197577 
L 393.941503 289.282851 
L 394.157968 262.284799 
L 394.417726 241.467657 
L 394.504313 245.636741 
L 394.720778 269.73017 
L 394.807364 285.230922 
L 394.850657 276.811957 
L 394.89395 276.468573 
L 394.937243 278.011781 
L 394.980536 276.218105 
L 395.283587 240.457704 
L 395.629932 274.18608 
L 395.673225 279.397436 
L 395.716518 274.771853 
L 395.932983 262.163605 
L 396.106155 235.480658 
L 396.149448 236.878432 
L 396.236034 243.180536 
L 396.539086 282.782797 
L 396.625672 270.675485 
L 396.668965 271.669278 
L 396.798844 262.571626 
L 397.058602 234.78581 
L 397.101895 236.850153 
L 397.361654 272.840823 
L 397.404947 277.753233 
L 397.44824 274.965764 
L 397.534826 270.517933 
L 397.794584 239.69014 
L 397.837877 235.484698 
L 397.88117 235.767484 
L 398.184221 269.221153 
L 398.270808 280.605339 
L 398.314101 275.418222 
L 398.400687 272.743868 
L 398.487273 262.313078 
L 398.487273 262.313078 
" style="fill:none;stroke:#1f77b4;stroke-linecap:square;stroke-width:1.5;"/>
   </g>
   <g id="patch_3">
    <path d="M 57.6 307.584 
L 57.6 41.472 
" style="fill:none;stroke:#000000;stroke-linecap:square;stroke-linejoin:miter;stroke-width:0.8;"/>
   </g>
   <g id="patch_4">
    <path d="M 414.72 307.584 
L 414.72 41.472 
" style="fill:none;stroke:#000000;stroke-linecap:square;stroke-linejoin:miter;stroke-width:0.8;"/>
   </g>
   <g id="patch_5">
    <path d="M 57.6 307.584 
L 414.72 307.584 
" style="fill:none;stroke:#000000;stroke-linecap:square;stroke-linejoin:miter;stroke-width:0.8;"/>
   </g>
   <g id="patch_6">
    <path d="M 57.6 41.472 
L 414.72 41.472 
" style="fill:none;stroke:#000000;stroke-linecap:square;stroke-linejoin:miter;stroke-width:0.8;"/>
   </g>
  </g>
 </g>
 <defs>
  <clipPath id="p9c344faab0">
   <rect height="266.112" width="357.12" x="57.6" y="41.472"/>
  </clipPath>
 </defs>
</svg>
